<svg xmlns="http://www.w3.org/2000/svg" xmlns:xlink="http://www.w3.org/1999/xlink" width="111.861" height="111.861" viewBox="0 0 111.861 111.861">
  <defs>
    <clipPath id="clip-path">
      <rect id="Rectángulo_295276" data-name="Rectángulo 295276" width="47.496" height="63.053" fill="none"/>
    </clipPath>
  </defs>
  <g id="Grupo_904068" data-name="Grupo 904068" transform="translate(-10777 10578)">
    <path id="Trazado_231534" data-name="Trazado 231534" d="M111.862,55.931A55.931,55.931,0,1,1,55.933,0a55.933,55.933,0,0,1,55.929,55.931" transform="translate(10777 -10578)" fill="#fff"/>
    <g id="Grupo_881613" data-name="Grupo 881613" transform="translate(10809 -10554)">
      <g id="Grupo_881613-2" data-name="Grupo 881613" clip-path="url(#clip-path)">
        <path id="Trazado_231534-2" data-name="Trazado 231534" d="M62.017,342.159l0,0h0" transform="translate(-51.599 -284.752)" fill="#fefefe"/>
        <path id="Trazado_231535" data-name="Trazado 231535" d="M204.408,364.4l.006-.007h-.01l0,.007" transform="translate(-170.111 -303.255)" fill="#fefefe"/>
        <path id="Trazado_231536" data-name="Trazado 231536" d="M137.083,330.948l.02.006v-.007h-.019" transform="translate(-114.084 -275.422)" fill="#fefefe"/>
        <path id="Trazado_231537" data-name="Trazado 231537" d="M59.126,11.405l.009-.015-.04,0,.031.013" transform="translate(-49.18 -9.479)" fill="#fefefe"/>
        <path id="Trazado_231538" data-name="Trazado 231538" d="M221.853,30.627c-2.586-2.572-5.176-5.179-7.858-7.847-.01.04-.015.079-.023.119l7.647,7.719c.081,0,.161.008.234.01" transform="translate(-178.073 -18.958)" fill="#fefefe"/>
        <path id="Trazado_231539" data-name="Trazado 231539" d="M253.787,81.665h.021l-.023-.016C253.785,81.655,253.787,81.659,253.787,81.665Z" transform="translate(-211.206 -67.95)" fill="#fefefe"/>
        <path id="Trazado_231540" data-name="Trazado 231540" d="M201.191,62.009h0c0-.024,0-.049,0-.073l-.028.012a.625.625,0,0,0,.028.062" transform="translate(-167.413 -51.545)" fill="#fefefe"/>
        <path id="Trazado_231541" data-name="Trazado 231541" d="M96.464,12.158Q90.672,6.374,84.887.585A1.213,1.213,0,0,0,84,.189L74.467.195a.763.763,0,0,0,.631.35,2.233,2.233,0,0,1,1.58.9c.124.143.29.306.228.485-.078.225-.328.119-.5.12q-6.637.008-13.273,0c-1.085,0-2.17-.013-3.255-.02l-.587.036-.009.015a1.691,1.691,0,0,0,.709.053q11.126.022,22.252.038c.792,0,.793,0,.792.816q0,3.447,0,6.894a1.691,1.691,0,0,0,.05.676l.029-.012c0-1.639.007-3.279.02-4.918,0-.171-.1-.421.126-.495.165-.053.265.166.391.269.46.377.756.941,1.344,1.172V3.855l.241.243c.008-.04.013-.079.023-.119,2.682,2.668,5.272,5.275,7.858,7.847-.073,0-.153-.006-.234-.009l.161.163H90.409c.165.551.7.79,1.024,1.205.17.217.463.347.482.671l.023.016c.808.009,1.617.038,2.424.018.419-.01.541.14.531.545-.033,1.4-.047,2.8-.051,4.2q-.024,9.6-.038,19.2c0,.209.013.417.02.626l.1,0q.005-4.2.01-8.4,0-5.771,0-11.541c0-.154-.088-.372.112-.446.163-.061.31.08.441.182.456.355.729.92,1.309,1.13.01-2.132.017-4.263.033-6.395a1.1,1.1,0,0,0-.368-.828" transform="translate(-49.336 -0.157)" fill="#29c2f2"/>
        <path id="Trazado_231542" data-name="Trazado 231542" d="M98.131,326.259c-.279-.472-.653-.753-1.232-.475a2.057,2.057,0,0,1-1.8.8q-9.835-.042-19.67-.046c-.244,0-.487.012-.731.02v.007a6.974,6.974,0,0,0,1.831.094,2.557,2.557,0,0,0,.687,0,2.589,2.589,0,0,1,2.753,1.219c.108.147.324.276.23.47-.079.164-.3.07-.459.07q-8.423.007-16.846,0c-.265,0-.53.013-.795.02l0,0c1.37.134,2.743.057,4.114.061q12.358.04,24.717.031c.567,0,.746.151.674.695a8.2,8.2,0,0,0-.01.94,1.781,1.781,0,0,1-1.984,1.977c-1.208.017-2.417.017-3.626.025l-.006.007c.2.544.7.84,1.052,1.254.169.2.437.324.451.632.834.008,1.668.035,2.5.021a3.6,3.6,0,0,0,3.418-2.629,6.211,6.211,0,0,0,.127-2.174c-.036-.629.18-.783.769-.735,1.622.132,3.128-.087,4.121-1.6a5.064,5.064,0,0,0-.285-.687" transform="translate(-51.68 -271.034)" fill="#00abeb"/>
        <path id="Trazado_231543" data-name="Trazado 231543" d="M14.865,293.314c.118-.255-.208-.362-.344-.526-.251-.3-.6-.522-.764-.9-.118-.278-.362-.235-.589-.235-1,0-2.006,0-3.008,0-.2,0-.422.061-.6-.1l-5.514-.024c-1.459-.006-2.087-.637-2.1-2.1,0-.626-.017-1.251-.027-1.877q-.017-4.535-.034-9.069h0c-.405-.076-.575-.447-.85-.685a3.764,3.764,0,0,0-1-.819c-.008,1-.022,2-.024,3-.007,3.316-.027,6.633-.006,9.949a3.522,3.522,0,0,0,3.246,3.5q5.515-.006,11.031-.015c.2,0,.487.112.579-.089" transform="translate(0 -230.499)" fill="#0096da"/>
        <path id="Trazado_231544" data-name="Trazado 231544" d="M2.524,11.964h0c.011-.647.015-1.3.035-1.942A1.721,1.721,0,0,1,4.447,8.163c1.7-.026,1.693-.026,1.694,1.67,0,1.8.011,3.6.017,5.393.541.208.842.7,1.255,1.059.2.17.324.436.631.45q.023-4.478.045-8.956c0-.919.033-1.839,0-2.756-.053-1.472.35-2.5,2.323-2.46h0l.04,0c.113-.178.3-.17.482-.183A3.108,3.108,0,0,0,8.9.78h0A3.562,3.562,0,0,0,6.17,3.964a14.313,14.313,0,0,0-.011,1.69c.028.458-.145.556-.572.539a8.965,8.965,0,0,0-2,.046A3.7,3.7,0,0,0,.637,10.583c.455.041.688.407,1,.669.289.246.462.642.892.712" transform="translate(-0.498 -0.649)" fill="#0ab2ee"/>
        <path id="Trazado_231545" data-name="Trazado 231545" d="M59.334,10.483l.587-.036-.105-.147c-.18.013-.369,0-.482.183" transform="translate(-49.379 -8.572)" fill="#0ab2ee"/>
        <path id="Trazado_231546" data-name="Trazado 231546" d="M50.6,364.427c-.13-.158-.315-.365-.162-.539l0-.007c-2.628-.126-5.258-.062-7.887-.074q-6.514-.031-13.029-.029a1.359,1.359,0,0,1,.865.662,8.081,8.081,0,0,0,.587.649c.112.147.251.306.149.507s-.3.115-.452.115c-1.17.006-2.34,0-3.509,0q-3.541,0-7.081,0a1.637,1.637,0,0,1-.68-.048,1.518,1.518,0,0,0,.739.077q11.763.023,23.527.04c2.76,0,5.519,0,8.279-.007a11.351,11.351,0,0,1-1.341-1.347" transform="translate(-16.146 -302.745)" fill="#00a1e3"/>
        <path id="Trazado_231547" data-name="Trazado 231547" d="M205.189,365.688c-.356-.414-.852-.71-1.052-1.254-.153.174.032.381.162.539a11.348,11.348,0,0,0,1.341,1.347c-.014-.308-.282-.435-.451-.632" transform="translate(-169.84 -303.291)" fill="#00a1e3"/>
        <path id="Trazado_231548" data-name="Trazado 231548" d="M20.08,365.691q3.541.006,7.081,0c1.17,0,2.339,0,3.509,0,.156,0,.355.076.452-.115s-.036-.359-.148-.507a8.024,8.024,0,0,1-.587-.649,1.359,1.359,0,0,0-.865-.662l-3.443,0c-.125,0-.25.012-.374.019.178.162.4.1.6.1,1,.006,2.006,0,3.009,0,.227,0,.47-.043.588.235.162.379.513.6.764.9.136.164.462.271.344.526-.093.2-.381.088-.579.089q-5.515.014-11.031.015a1.632,1.632,0,0,0,.68.048" transform="translate(-16.145 -302.724)" fill="#00a1e3"/>
        <path id="Trazado_231549" data-name="Trazado 231549" d="M.268,88.163c.005-3.218,0-6.436.008-9.654,0-.176-.1-.424.1-.514s.3.17.44.276a3.267,3.267,0,0,1,1.216,2.865q-.018,8.048-.018,16.1c.035.047.067.1.1.144q.032-18.112.062-36.224c0-.184-.015-.368-.023-.552-.207.175-.406-.036-.567-.189C1.153,60,.717,59.6.266,59.208c-.01.167-.027.333-.028.5Q.193,74.017.152,88.327c0,.167.014.334.021.5.167-.2.094-.442.094-.664" transform="translate(-0.126 -49.274)" fill="#00a8e9"/>
        <path id="Trazado_231550" data-name="Trazado 231550" d="M11.35,285.985c-.033-.049-.066-.1-.1-.144v.015h0q.017,4.535.034,9.069c.018-.206.052-.413.052-.619q.008-4.16.014-8.321" transform="translate(-9.362 -237.884)" fill="#00a8e9"/>
        <path id="Trazado_231551" data-name="Trazado 231551" d="M2.716,60.6v-.01c-.43-.07-.6-.466-.892-.712-.308-.262-.54-.628-1-.669.451.389.887.793,1.32,1.2.162.153.361.364.568.189" transform="translate(-0.69 -49.274)" fill="#00a8e9"/>
        <path id="Trazado_231552" data-name="Trazado 231552" d="M.591,191.044a10.272,10.272,0,0,1,1.443,1.378,1.761,1.761,0,0,1-.129-.951q-.006-7.4,0-14.8a6.3,6.3,0,0,0-.178-1.615,2.37,2.37,0,0,0-1.074-1.393,1.179,1.179,0,0,0-.112.764c-.006,2.906,0,5.811-.012,8.716,0,.324.135.725-.286.936L.235,191a.333.333,0,0,1,.356.048" transform="translate(-0.196 -144.528)" fill="#00a2e4"/>
        <path id="Trazado_231553" data-name="Trazado 231553" d="M1.232,277.635c.275.238.445.609.85.685a.813.813,0,0,1-.049-.078,10.281,10.281,0,0,0-1.443-1.378.333.333,0,0,0-.356-.048,3.765,3.765,0,0,1,1,.819" transform="translate(-0.196 -230.348)" fill="#00a2e4"/>
        <path id="Trazado_231554" data-name="Trazado 231554" d="M.564,180.982c.014-2.906.006-5.811.012-8.717a1.181,1.181,0,0,1,.112-.764,2.37,2.37,0,0,1,1.074,1.393,6.3,6.3,0,0,1,.178,1.615q0,7.4,0,14.8a1.761,1.761,0,0,0,.13.951c.016.021.033.041.049.062q.008-8.048.018-16.1A3.267,3.267,0,0,0,.92,171.361c-.142-.106-.232-.369-.44-.275s-.1.339-.1.514c-.006,3.218,0,6.436-.008,9.655,0,.222.073.463-.094.664.421-.211.284-.611.286-.936" transform="translate(-0.231 -142.365)" fill="#00a2e4"/>
        <path id="Trazado_231555" data-name="Trazado 231555" d="M11,285.531c-.016-.021-.033-.041-.049-.062a.808.808,0,0,0,.049.078h0Z" transform="translate(-9.116 -237.575)" fill="#00a2e4"/>
        <path id="Trazado_231556" data-name="Trazado 231556" d="M51.121.4c.409.4.97.694,1.091,1.315l.028,0c5.276-.016,10.553,0,15.83-.015.266,0,.684.169.768-.176.065-.266-.308-.459-.541-.629a2.709,2.709,0,0,0-.871-.333c-.275-.081-.587-.139-.6-.525Q58.758.018,50.695,0a.837.837,0,0,0-.6.13A1,1,0,0,1,51.121.4" transform="translate(-41.691 0)" fill="#1dbcf0"/>
        <path id="Trazado_231557" data-name="Trazado 231557" d="M77.919.748a2.709,2.709,0,0,1,.871.333c.234.17.606.363.541.629-.084.345-.5.175-.768.176-5.277.015-10.554,0-15.83.015l-.028,0a1.259,1.259,0,0,1,.021.156c1.085.007,2.17.019,3.255.02q6.637,0,13.273,0c.172,0,.422.1.5-.12.062-.179-.1-.342-.228-.485a2.232,2.232,0,0,0-1.58-.9.763.763,0,0,1-.631-.35c.016.387.327.444.6.525" transform="translate(-52.186 -0.186)" fill="#1dbcf0"/>
        <path id="Trazado_231558" data-name="Trazado 231558" d="M52.128,2.149c.028,0,.056-.005.084-.009-.121-.621-.682-.918-1.091-1.315A1,1,0,0,0,50.1.552h0a3.108,3.108,0,0,1,2.032,1.6" transform="translate(-41.691 -0.421)" fill="#1dbcf0"/>
        <path id="Trazado_231559" data-name="Trazado 231559" d="M62.207,10.253l.105.147a1.259,1.259,0,0,0-.021-.156c-.028,0-.056.007-.084.009" transform="translate(-51.77 -8.525)" fill="#1dbcf0"/>
        <path id="Trazado_231560" data-name="Trazado 231560" d="M273.9,109.9c-.151-.112-.269-.264-.414-.383-.184-.151-.327-.485-.59-.365-.212.1-.113.418-.113.64q-.006,5.145,0,10.291c0,.23,0,.46-.009.691,0,.019,0,.038,0,.057a2.887,2.887,0,0,1,1.352,1.787,20.181,20.181,0,0,1,.209,4.653c.044,2.543.005,5.088,0,7.632h0q0,4.568.008,9.137c0,.271.018.541.027.812a1.989,1.989,0,0,0,.068-.866q.026-16.659.043-33.317c0-.209-.013-.417-.02-.626-.234.139-.395-.02-.559-.142" transform="translate(-226.998 -90.814)" fill="#20bef1"/>
        <path id="Trazado_231561" data-name="Trazado 231561" d="M272.251,106.871c-.131-.1-.278-.243-.441-.182-.2.074-.112.292-.112.446q0,5.771,0,11.541c.06.037.116.074.173.112,0-.019,0-.038,0-.057.009-.231.009-.461.009-.691q0-5.145,0-10.291c0-.222-.1-.544.113-.64.264-.12.407.214.591.365.145.119.263.27.414.383s.326.282.559.142c-.58-.21-.854-.775-1.309-1.13" transform="translate(-226.098 -88.778)" fill="#20bef1"/>
        <path id="Trazado_231562" data-name="Trazado 231562" d="M271.692,268.114c0-3.063-.031-6.126.012-9.189,0-.027,0-.055,0-.082a.578.578,0,0,1-.365-.235c-.342-.464-.736-.729-1.312-.387-.011,3.3-.027,6.6-.029,9.9a3.654,3.654,0,0,1-.192,1.28,1.112,1.112,0,0,1,1.47,1.284,2.761,2.761,0,0,0,.636-1.879.793.793,0,0,1-.219-.689" transform="translate(-224.539 -214.769)" fill="#09b2ee"/>
        <path id="Trazado_231563" data-name="Trazado 231563" d="M269.572,325.307c-.015.041-.03.082-.047.122.578-.278.952,0,1.232.475a5.053,5.053,0,0,1,.285.687,1.112,1.112,0,0,0-1.47-1.284" transform="translate(-224.305 -270.68)" fill="#09b2ee"/>
        <path id="Trazado_231564" data-name="Trazado 231564" d="M281.187,271.844q-.006-4.568-.008-9.137h0a.664.664,0,0,1-.172-.01c0,.027,0,.055,0,.082-.044,3.063-.013,6.126-.012,9.189a.794.794,0,0,0,.219.689h0c-.009-.271-.027-.541-.027-.812" transform="translate(-233.842 -218.623)" fill="#09b2ee"/>
        <line id="Línea_163" data-name="Línea 163" transform="translate(18.869 32.325)" fill="#fefefe"/>
        <path id="Trazado_231565" data-name="Trazado 231565" d="M47.2,11.4a1.069,1.069,0,0,1-.641.212,1.647,1.647,0,0,0-1.441,1.438,6.418,6.418,0,0,0-.089,1.245q0,5.13,0,10.26a2.862,2.862,0,0,1-.067.869.426.426,0,0,1-.129.171c.008.242.022.485.022.727q-.025,18.168-.052,36.336c0,.314,0,.627.006.941A1.811,1.811,0,0,0,46.8,64.977q6.367.013,12.734.018c.25,0,.5.014.751.022h.019c0-.017-.008-.035-.01-.054a1.73,1.73,0,0,1,1.095-.165q9.57-.008,19.14,0a2.32,2.32,0,0,0,1.785-.594,1.788,1.788,0,0,1,.175-.069,10.034,10.034,0,0,1,.076-1.507c-.022-2.836-.011-5.673-.009-8.509a4.117,4.117,0,0,1,.057-1c.056-.074.11-.139.162-.2q0-1.816,0-3.631,0-.745,0-1.491a.2.2,0,0,1-.053-.024,1.293,1.293,0,0,1-.166-.844q-.005-10.731,0-21.462c0-.441.1-.873.11-1.312.018-.624-.088-.736-.7-.767a18.178,18.178,0,0,1-1.879-.054c-.067-.043-.13-.09-.194-.137h-.021c-1.855,0-3.713.055-5.566-.009a3.493,3.493,0,0,1-3.237-3.241.632.632,0,0,1-.028-.062.554.554,0,0,1-.085.025,1.282,1.282,0,0,1-.2-.955c-.007-2.11,0-4.221,0-6.331,0-.869-.041-.911-.927-.911q-10.752,0-21.5-.007c-.38,0-.806.12-1.11-.251a.437.437,0,0,1,.026-.046L47.2,11.4h0m18.85,17.313a1,1,0,0,1,1.11.944,1.035,1.035,0,0,1-1.048,1.025c-.166.014-.334.006-.5.006l-8.589,0q-2.633,0-5.266,0a3.741,3.741,0,0,1-.563-.02,1.015,1.015,0,0,1-.922-1.015.991.991,0,0,1,1.046-.946c1.713-.011,3.427,0,5.14,0H58.72v0c2.445,0,4.89,0,7.335,0m-.38-4.389q-2.444-.008-4.889-.023-4.736.012-9.472.019a.939.939,0,0,1-1.022-.889.875.875,0,0,1,.8-1.008h0a1.188,1.188,0,0,1,.673-.073q6.96,0,13.92,0c.97,0,1.465.33,1.479.973.014.677-.466,1-1.493,1m-14.282-8.3c.146,0,.293,0,.439,0h6.9v0c2.445,0,4.891,0,7.336,0a1,1,0,0,1,1.1.953A1.04,1.04,0,0,1,66.11,18.01c-.187.015-.376.006-.564.006l-10.972,0c-1.066,0-2.132.016-3.2-.007a1,1,0,1,1,.016-1.98M49.775,48.32q1.884-3.851,3.769-7.7c.154-.313.29-.66.7-.737.217-.188.48-.109.723-.11,2.405-.006,4.811-.021,7.216.012.543.008.676-.16.639-.668-.044-.6-.021-1.213-.006-1.819a.976.976,0,0,1,.963-1.087c.612-.014,1,.394,1.018,1.093.014.627.033,1.257-.006,1.882-.028.458.093.6.578.6,2.426-.026,4.853.008,7.279-.022a1.424,1.424,0,0,1,1.463.921c1.172,2.447,2.36,4.889,3.588,7.308a3.074,3.074,0,0,1,.272,2.113,5.028,5.028,0,0,1-9.937-.715,2.2,2.2,0,0,1,.246-1.143c.965-1.945,1.914-3.9,2.868-5.848.09-.184.17-.373.292-.643H67.947c-.858,0-1.717.031-2.572-.011-.482-.023-.584.135-.583.594.017,5.1.012,10.206.012,15.309,0,.23-.013.459-.021.689h0c.138.244.373.135.565.139.753.013,1.506-.007,2.259.01a1,1,0,1,1-.014,1.981q-3.765.017-7.531,0a1.018,1.018,0,0,1-1.149-.979c-.007-.6.451-1,1.186-1.007.9-.012,1.8-.012,2.7-.017q.007-8.125.013-16.25c0-.224.052-.469-.321-.462-2.11.042-4.221-.069-6.33.062L59.452,48.5a2.439,2.439,0,0,1,.007,1.717,5.026,5.026,0,0,1-5.484,3.848,5.076,5.076,0,0,1-4.436-4.844,1.835,1.835,0,0,1,.235-.9" transform="translate(-37.29 -9.492)" fill="#fefefe"/>
        <path id="Trazado_231566" data-name="Trazado 231566" d="M60.233,11.778q10.752.012,21.5.007c.886,0,.925.042.927.911,0,2.11,0,4.221,0,6.331a1.282,1.282,0,0,0,.2.955.574.574,0,0,0,.085-.025,1.691,1.691,0,0,1-.05-.676q-.006-3.447,0-6.894c0-.814,0-.815-.792-.816q-11.126-.018-22.252-.038a1.691,1.691,0,0,1-.709-.053.4.4,0,0,0-.027.046c.3.371.731.25,1.11.25" transform="translate(-49.204 -9.556)" fill="#fefefe"/>
        <path id="Trazado_231567" data-name="Trazado 231567" d="M255.994,81.937c.615.032.72.143.7.767-.012.439-.11.871-.11,1.312q0,10.731,0,21.462a1.294,1.294,0,0,0,.166.844.224.224,0,0,0,.053.024v-.011c-.007-.209-.02-.417-.02-.626q.017-9.6.038-19.2c0-1.4.017-2.8.051-4.2.01-.4-.112-.556-.531-.545-.807.02-1.616-.009-2.424-.018.063.047.127.094.194.138a18.176,18.176,0,0,0,1.879.054" transform="translate(-211.32 -68.031)" fill="#fefefe"/>
        <path id="Trazado_231568" data-name="Trazado 231568" d="M159.156,325.778a2.32,2.32,0,0,1-1.785.594q-9.57-.016-19.14,0a1.73,1.73,0,0,0-1.095.165c0,.02.007.037.01.054.244-.007.487-.02.731-.02q9.835.018,19.67.046a2.057,2.057,0,0,0,1.8-.8c-.008-.035-.011-.069-.017-.1a1.841,1.841,0,0,0-.175.069" transform="translate(-114.128 -271.063)" fill="#fefefe"/>
        <path id="Trazado_231569" data-name="Trazado 231569" d="M45.113,25.423a2.861,2.861,0,0,0,.067-.869q0-5.13,0-10.26a6.433,6.433,0,0,1,.089-1.245,1.646,1.646,0,0,1,1.44-1.438,1.067,1.067,0,0,0,.641-.212h0c-1.973-.041-2.376.988-2.323,2.46.033.918,0,1.837,0,2.756q-.021,4.478-.045,8.955v.024a.426.426,0,0,0,.129-.171" transform="translate(-37.436 -9.485)" fill="#fefefe"/>
        <path id="Trazado_231570" data-name="Trazado 231570" d="M269.436,259.1a4.107,4.107,0,0,0-.057,1c0,2.836-.013,5.673.009,8.509a10.017,10.017,0,0,0-.076,1.507c.022-.007.043-.012.064-.018a3.658,3.658,0,0,0,.192-1.28c0-3.3.018-6.6.029-9.9V258.9c-.053.058-.107.123-.162.2" transform="translate(-224.11 -215.466)" fill="#fefefe"/>
        <path id="Trazado_231571" data-name="Trazado 231571" d="M269.442,325.725c.017-.041.032-.081.047-.122-.021.006-.042.011-.064.018.006.035.009.069.017.1" transform="translate(-224.222 -270.975)" fill="#fefefe"/>
        <path id="Trazado_231572" data-name="Trazado 231572" d="M212.71,25.169c-.022.28.091.6-.172.821.008,1.139.012,2.278.023,3.417a1.769,1.769,0,0,0,1.95,1.935c1.135.013,2.269.018,3.4.027,0-.009.007-.017.012-.025a5.792,5.792,0,0,1,1.977-.137,4.16,4.16,0,0,1,.521,0l-7.647-7.719a13.019,13.019,0,0,0-.068,1.681" transform="translate(-176.88 -19.547)" fill="#fefefe"/>
        <path id="Trazado_231573" data-name="Trazado 231573" d="M212.71,23.963a13.019,13.019,0,0,1,.068-1.681l-.241-.243v2.722c0,.008,0,.016,0,.023.264-.22.15-.541.172-.821" transform="translate(-176.879 -18.341)" fill="#fefefe"/>
        <path id="Trazado_231574" data-name="Trazado 231574" d="M246.579,69.408a5.791,5.791,0,0,0-1.976.137c0,.009-.008.017-.012.025h2.671l-.161-.163a4.128,4.128,0,0,0-.521,0" transform="translate(-203.555 -57.748)" fill="#fefefe"/>
        <path id="Trazado_231575" data-name="Trazado 231575" d="M201.331,37.034c.184.138.2.358.261.553a3.353,3.353,0,0,0,3.4,2.5c1.438,0,2.876,0,4.313,0,.287,0,.591-.046.825.192,0-.006,0-.01,0-.016a12.7,12.7,0,0,1-1.485-1.5.322.322,0,0,1-.061-.367,8.809,8.809,0,0,1-4.492-.106,1.571,1.571,0,0,1-1-1.411,26.375,26.375,0,0,1-.027-3.555.524.524,0,0,1,.109-.285l-.011.009c-.391.024-.568-.3-.815-.505s-.4-.477-.721-.62c-.166.2-.1.438-.1.649-.009,1.245.009,2.491-.015,3.736,0,.218.1.524-.179.649,0,.024,0,.049,0,.073h0" transform="translate(-167.553 -26.57)" fill="#22bff1"/>
        <path id="Trazado_231576" data-name="Trazado 231576" d="M201.495,34.4c.024-1.245.006-2.491.015-3.736,0-.212-.066-.447.1-.649.323.143.486.423.721.62s.424.529.815.505l.011-.009c.013-.018.025-.036.039-.053-.587-.231-.883-.8-1.343-1.172-.125-.1-.226-.321-.391-.269-.23.073-.124.323-.126.495-.012,1.639-.015,3.279-.02,4.918.278-.126.175-.432.179-.649" transform="translate(-167.537 -24.655)" fill="#22bff1"/>
        <path id="Trazado_231577" data-name="Trazado 231577" d="M244.411,70.475a.323.323,0,0,0,.061.367,12.7,12.7,0,0,0,1.485,1.5c-.019-.324-.312-.454-.482-.671-.325-.416-.858-.654-1.024-1.205l-.04.008" transform="translate(-203.378 -58.644)" fill="#22bff1"/>
        <path id="Trazado_231578" data-name="Trazado 231578" d="M209.308,65.432c-1.438-.006-2.876,0-4.313,0a3.353,3.353,0,0,1-3.4-2.5c-.063-.195-.076-.415-.261-.553a3.493,3.493,0,0,0,3.237,3.241c1.853.063,3.71.011,5.566.009-.234-.238-.539-.191-.825-.192" transform="translate(-167.553 -51.909)" fill="#22bff1"/>
        <path id="Trazado_231579" data-name="Trazado 231579" d="M213.544,43.755a1.769,1.769,0,0,1-1.95-1.936c-.012-1.139-.016-2.278-.023-3.417-.012.01-.026.02-.04.03a.528.528,0,0,0-.109.285,26.35,26.35,0,0,0,.027,3.555,1.571,1.571,0,0,0,1,1.412,8.812,8.812,0,0,0,4.492.106l0-.008c-1.135-.009-2.269-.014-3.4-.027" transform="translate(-175.912 -31.959)" fill="#22bff1"/>
        <path id="Trazado_231580" data-name="Trazado 231580" d="M244.573,70.465l0,.008.04-.008h-.037" transform="translate(-203.536 -58.643)" fill="#22bff1"/>
        <path id="Trazado_231581" data-name="Trazado 231581" d="M212.342,38.285c0-.008,0-.016,0-.023-.014.017-.027.035-.039.053.014-.01.027-.019.039-.03" transform="translate(-176.684 -31.843)" fill="#22bff1"/>
        <path id="Trazado_231582" data-name="Trazado 231582" d="M271.392,188.017a8.422,8.422,0,0,1,.08,1.33c.013.929.006,1.858,0,2.787a1.325,1.325,0,0,1-.142.779c.366-.379.67-.355,1.117.06.17.158.354.3.526.456-.012-3.348-.008-6.7,0-10.046,0-1.391-.137-2.72-1.332-3.675a.372.372,0,0,1-.053-.056c.038,2.506.013,5.012.012,7.518a1.034,1.034,0,0,1-.139.6.19.19,0,0,1-.058.046c-.007.066-.009.133-.01.2" transform="translate(-225.81 -149.511)" fill="#13b7ef"/>
        <path id="Trazado_231583" data-name="Trazado 231583" d="M271.8,186.573a1.033,1.033,0,0,0,.139-.6c0-2.506.026-5.011-.012-7.518-.061-.075-.1-.17-.174-.241h0q-.005,4.2-.01,8.4v0a.2.2,0,0,0,.058-.046" transform="translate(-226.151 -148.313)" fill="#13b7ef"/>
        <path id="Trazado_231584" data-name="Trazado 231584" d="M272.893,179.066c1.2.955,1.333,2.284,1.332,3.675,0,3.349-.009,6.7,0,10.046.059.054.117.109.172.166h0c0-2.544.043-5.089,0-7.632a20.181,20.181,0,0,0-.209-4.653,2.888,2.888,0,0,0-1.352-1.787c0,.043,0,.086,0,.129a.363.363,0,0,0,.053.056" transform="translate(-227.063 -148.869)" fill="#13b7ef"/>
        <path id="Trazado_231585" data-name="Trazado 231585" d="M271.98,178.454c0-.043,0-.086,0-.129-.057-.038-.114-.076-.173-.112.07.071.113.167.174.242" transform="translate(-226.204 -148.313)" fill="#13b7ef"/>
        <path id="Trazado_231586" data-name="Trazado 231586" d="M272.279,257.419c-.447-.415-.751-.439-1.117-.06-.011.017-.021.034-.034.05.576-.342.97-.077,1.312.387a.578.578,0,0,0,.365.235c0-.052,0-.1,0-.156-.172-.156-.355-.3-.525-.456" transform="translate(-225.64 -213.958)" fill="#13b7ef"/>
        <path id="Trazado_231587" data-name="Trazado 231587" d="M281.121,261.923a.66.66,0,0,0,.172.011c-.055-.058-.113-.113-.172-.167,0,.052,0,.1,0,.156" transform="translate(-233.956 -217.849)" fill="#13b7ef"/>
        <path id="Trazado_231588" data-name="Trazado 231588" d="M271.127,237.26Z" transform="translate(-225.639 -197.454)" fill="#13b7ef"/>
        <path id="Trazado_231589" data-name="Trazado 231589" d="M271.3,233.628c0-.929.009-1.858,0-2.787a8.417,8.417,0,0,0-.08-1.33,3.086,3.086,0,0,1-.094,1.3q0,1.815,0,3.631l.034-.036a1.326,1.326,0,0,0,.142-.779" transform="translate(-225.639 -191.005)" fill="#13b7ef"/>
        <path id="Trazado_231590" data-name="Trazado 231590" d="M271.128,258.727v.015c.013-.016.023-.034.035-.05l-.035.036" transform="translate(-225.64 -215.289)" fill="#13b7ef"/>
        <path id="Trazado_231591" data-name="Trazado 231591" d="M271.266,228.319a.133.133,0,0,1-.1.012,1.008,1.008,0,0,1,.062.125,1.25,1.25,0,0,1,.033-.138" transform="translate(-225.675 -190.013)" fill="#20bef1"/>
        <path id="Trazado_231592" data-name="Trazado 231592" d="M271.231,228.306v0l-.1,0,.007.013a.133.133,0,0,0,.1-.012" transform="translate(-225.64 -190)" fill="#20bef1"/>
        <path id="Trazado_231593" data-name="Trazado 231593" d="M271.127,237.261" transform="translate(-225.639 -197.455)" fill="#20bef1"/>
        <path id="Trazado_231594" data-name="Trazado 231594" d="M271.2,228.5a1.029,1.029,0,0,0-.062-.126l-.007,0q0,.745,0,1.491c.121-.447-.021-.913.069-1.362" transform="translate(-225.639 -190.06)" fill="#20bef1"/>
        <path id="Trazado_231595" data-name="Trazado 231595" d="M271.135,228.326l-.007-.013v.011l.007,0" transform="translate(-225.64 -190.008)" fill="#20bef1"/>
        <path id="Trazado_231596" data-name="Trazado 231596" d="M271.565,228.519c0-.067,0-.133.01-.2h0a1.253,1.253,0,0,0-.033.138c.009.021.017.041.024.062" transform="translate(-225.983 -190.013)" fill="#20bef1"/>
        <path id="Trazado_231597" data-name="Trazado 231597" d="M271.74,228.306v0h0" transform="translate(-226.149 -190)" fill="#20bef1"/>
        <path id="Trazado_231598" data-name="Trazado 231598" d="M271.221,229.2c-.007-.021-.016-.041-.024-.062-.09.449.052.915-.069,1.362a3.086,3.086,0,0,0,.094-1.3" transform="translate(-225.639 -190.698)" fill="#20bef1"/>
        <path id="Trazado_231599" data-name="Trazado 231599" d="M20.475,95.774a6.486,6.486,0,0,1-2.3-.139A3.566,3.566,0,0,1,15.627,92.4c-.024-3.446.006-6.893.015-10.34-.007-.188-.021-.376-.02-.563q.04-14,.084-27.993c0-.178.017-.356.027-.535-.039-.048-.078-.095-.115-.144-.134-1.312-.034-2.628-.06-3.942-.013-.668,0-1.337,0-2-.009-.715-.068-.767-.8-.777-.209,0-.418,0-.627,0a1.613,1.613,0,0,0-1.82,1.69,13.3,13.3,0,0,1-.08,1.747.615.615,0,0,1-.12.148c.28.316.2.707.2,1.071q.009,6.71,0,13.419,0,15.018-.009,30.036c0,.35.133.761-.139,1.059,0,.012,0,.023,0,.035.026.645-.02,1.292.016,1.937.078,1.4.647,1.944,2.045,1.954,1.48.01,2.96,0,4.441,0a5.134,5.134,0,0,1,1,.056c.048.008.1.013.144.02a1.337,1.337,0,0,1,.648-.087q11.17-.009,22.34,0a2.88,2.88,0,0,1,1.577.306h.01a.565.565,0,0,1,.206-.128,3.742,3.742,0,0,1,.875-.055c.752,0,1.5.009,2.257-.005,1.924-.037,2.235-1.191,2.068-2.882-.022-.227-.184-.312-.388-.336a6.312,6.312,0,0,0-.752-.019q-13.511,0-27.022-.009c-.386,0-.85.167-1.131-.292l0,0h-.016Z" transform="translate(-10.073 -38.368)" fill="#fefefe"/>
        <path id="Trazado_231600" data-name="Trazado 231600" d="M63.216,342.461q13.511.017,27.022.009a6.272,6.272,0,0,1,.752.019c.2.024.366.109.388.336.167,1.691-.144,2.845-2.068,2.882-.752.015-1.5,0-2.257.006a3.753,3.753,0,0,0-.875.055.565.565,0,0,0-.206.128c1.208-.008,2.417-.008,3.626-.025a1.781,1.781,0,0,0,1.984-1.977,8.277,8.277,0,0,1,.01-.94c.072-.544-.107-.7-.674-.695q-12.358.013-24.717-.031c-1.371,0-2.745.073-4.114-.061l0,0c.282.46.745.292,1.131.292" transform="translate(-51.669 -284.76)" fill="#fefefe"/>
        <path id="Trazado_231601" data-name="Trazado 231601" d="M19.116,343.174a5.13,5.13,0,0,0-1-.056c-1.48,0-2.961.007-4.441,0-1.4-.009-1.967-.556-2.045-1.954-.036-.645.01-1.292-.016-1.937,0-.012,0-.023,0-.035a.762.762,0,0,1-.164.134c.009.626.021,1.251.026,1.877.011,1.468.64,2.1,2.1,2.1l5.514.024a.59.59,0,0,1,.168-.135c-.048-.007-.1-.012-.144-.02" transform="translate(-9.531 -282.282)" fill="#fefefe"/>
        <path id="Trazado_231602" data-name="Trazado 231602" d="M12.2,48.417a13.3,13.3,0,0,0,.08-1.747,1.613,1.613,0,0,1,1.82-1.69c.209,0,.418,0,.626,0,.735.01.793.062.8.777.009.668-.009,1.337,0,2,.027,1.314-.074,2.63.06,3.942.037.049.076.1.115.144l0-.028c-.006-1.8-.016-3.6-.017-5.393,0-1.7,0-1.7-1.694-1.67a1.72,1.72,0,0,0-1.888,1.859c-.02.647-.024,1.295-.035,1.942l.005.007a.61.61,0,0,0,.119-.148" transform="translate(-10.049 -37.244)" fill="#fefefe"/>
        <path id="Trazado_231603" data-name="Trazado 231603" d="M80.976,362.52q-11.17-.021-22.34,0a1.338,1.338,0,0,0-.649.087,18.309,18.309,0,0,0,2.918.048,2.786,2.786,0,0,1,.731.071q6.514.007,13.029.029c2.629.013,5.259-.052,7.887.074a2.882,2.882,0,0,0-1.577-.306" transform="translate(-48.259 -301.69)" fill="#fefefe"/>
        <path id="Trazado_231604" data-name="Trazado 231604" d="M57.152,363.062a.593.593,0,0,0-.168.135c.125-.007.25-.019.374-.019l3.443,0a2.783,2.783,0,0,0-.731-.072,18.313,18.313,0,0,1-2.918-.048" transform="translate(-47.424 -302.149)" fill="#fefefe"/>
        <path id="Trazado_231605" data-name="Trazado 231605" d="M11.946,113.067c.273-.3.139-.709.139-1.059q.017-15.018.009-30.036,0-6.71,0-13.419c0-.364.081-.755-.2-1.071l0,0c.008.184.023.368.023.552q-.029,18.112-.062,36.224c.021.031.043.06.063.091.065,2.906.006,5.811.034,8.715" transform="translate(-9.861 -56.159)" fill="#fefefe"/>
        <path id="Trazado_231606" data-name="Trazado 231606" d="M11.616,295.508c-.028-2.9.031-5.809-.034-8.715-.02-.032-.042-.061-.063-.091q-.008,4.16-.014,8.321c0,.207-.034.413-.052.619a.76.76,0,0,0,.164-.134" transform="translate(-9.531 -238.601)" fill="#fefefe"/>
        <path id="Trazado_231607" data-name="Trazado 231607" d="M12.075,67.442v.01l0,0,0-.007" transform="translate(-10.049 -56.127)" fill="#fefefe"/>
        <path id="Trazado_231608" data-name="Trazado 231608" d="M50.509,236.645q-6.206.007-12.412,0c-1.388,0-2.057-.469-2.366-1.592-.007-.146-.008-.293-.007-.439q.008-7.789-.013-15.578a1.222,1.222,0,0,0-.475-.652,8.366,8.366,0,0,1-.762-.743c-.1-.094-.183-.271-.352-.2a.2.2,0,0,0-.046.028c-.02,2.362-.009,4.724,0,7.086.014,3.341,0,6.683.007,10.026a3.426,3.426,0,0,0,3.6,3.568c.362,0,.76-.109,1.07.2h.018c.306-.31.7-.209,1.063-.21q7.932-.011,15.863-.008a1.377,1.377,0,0,0,.814-.118c-.541-.609-.929-1.315-1.917-1.258-.854.05-1.714.03-2.57,0-.238-.009-.572.08-.655-.279l-.02-.006a1.174,1.174,0,0,1-.838.173" transform="translate(-28.348 -180.947)" fill="#009fe2"/>
        <path id="Trazado_231609" data-name="Trazado 231609" d="M75.363,331.265c.856.032,1.716.052,2.57,0,.988-.058,1.376.648,1.917,1.258a1.377,1.377,0,0,1-.814.118q-7.932.006-15.863.008c-.361,0-.758-.1-1.063.21.265-.007.53-.02.795-.02q8.423,0,16.846,0c.156,0,.38.094.459-.07.094-.195-.121-.323-.23-.47a2.59,2.59,0,0,0-2.753-1.219,2.555,2.555,0,0,1-.687,0,6.96,6.96,0,0,1-1.831-.094c.083.359.417.27.655.279" transform="translate(-51.689 -275.455)" fill="#009fe2"/>
        <path id="Trazado_231610" data-name="Trazado 231610" d="M43.945,242.319c-.005-4.889-.013-9.779.01-14.668a2.119,2.119,0,0,0-.078-.631q.014,7.789.013,15.578c0,.146,0,.293.008.439.309,1.123.978,1.589,2.366,1.592q6.206.015,12.412,0a1.174,1.174,0,0,0,.838-.173c-.25-.008-.5-.021-.751-.022q-6.367-.01-12.734-.018a1.811,1.811,0,0,1-1.991-1.371c-.175-.223-.094-.484-.094-.727" transform="translate(-36.516 -188.932)" fill="#009fe2"/>
        <path id="Trazado_231611" data-name="Trazado 231611" d="M33.175,218.064c0,2.048,0,4.1-.008,6.143,0,.222.074.463-.1.663-.008,3.447-.039,6.893-.015,10.34a3.566,3.566,0,0,0,2.551,3.232,6.486,6.486,0,0,0,2.3.139h0c-.309-.311-.707-.2-1.07-.2a3.426,3.426,0,0,1-3.6-3.568c-.006-3.342.007-6.684-.007-10.026-.008-2.362-.02-4.724,0-7.086-.108.085-.053.245-.053.366" transform="translate(-27.503 -181.174)" fill="#009fe2"/>
        <path id="Trazado_231612" data-name="Trazado 231612" d="M34.279,88.4c-.2,6.974-.085,13.949-.145,20.924a.276.276,0,0,1,.031-.015.465.465,0,0,1,.455.15,13.462,13.462,0,0,1,1.121,1.091c.011.012.018.024.028.036q-.019-10.214-.011-20.428a1.757,1.757,0,0,1,.171-1.106.342.342,0,0,1-.4-.1,16.793,16.793,0,0,1-1.386-1.323,1.516,1.516,0,0,1,.133.773" transform="translate(-28.407 -72.923)" fill="#00aaea"/>
        <path id="Trazado_231613" data-name="Trazado 231613" d="M35.2,88.33a.341.341,0,0,0,.4.1c.01-.013.016-.027.027-.041-.307-.014-.435-.28-.631-.45-.414-.359-.715-.851-1.255-1.059a.96.96,0,0,1,.077.124A16.8,16.8,0,0,0,35.2,88.33" transform="translate(-28.079 -72.305)" fill="#00aaea"/>
        <path id="Trazado_231614" data-name="Trazado 231614" d="M43.759,97.142q-.022,10.214.011,20.428a1.089,1.089,0,0,1,.125.739q0,7.515,0,15.03a2.332,2.332,0,0,0,.034.685c0-.314-.006-.627-.006-.941q.026-18.168.053-36.337c0-.242-.014-.485-.022-.727a.229.229,0,0,1-.028.016,1.757,1.757,0,0,0-.17,1.106" transform="translate(-36.409 -79.909)" fill="#00aaea"/>
        <path id="Trazado_231615" data-name="Trazado 231615" d="M44.85,95.9v-.024c-.011.013-.017.027-.027.04a.234.234,0,0,0,.028-.016" transform="translate(-37.302 -79.79)" fill="#00aaea"/>
        <path id="Trazado_231616" data-name="Trazado 231616" d="M33.126,110.132c0-.292-.007-.585,0-.877.006-.145-.06-.331.116-.414.06-6.975-.054-13.95.145-20.924a1.516,1.516,0,0,0-.133-.773c-.027-.032-.053-.064-.079-.1-.01.178-.027.356-.028.535q-.044,14-.084,27.993c0,.188.013.375.02.563h0c.092-2,.015-4,.039-6.007" transform="translate(-27.519 -72.444)" fill="#00aaea"/>
        <path id="Trazado_231617" data-name="Trazado 231617" d="M33.808,87.007a.971.971,0,0,0-.077-.124c0,.009,0,.019,0,.028.026.032.052.065.079.1" transform="translate(-28.07 -72.305)" fill="#00aaea"/>
        <path id="Trazado_231618" data-name="Trazado 231618" d="M35.737,218.005a13.5,13.5,0,0,0-1.121-1.091.465.465,0,0,0-.455-.15.255.255,0,0,0-.031.015c0,.022,0,.045,0,.067s0,.039,0,.059a.2.2,0,0,1,.046-.028c.169-.073.254.1.353.2a8.361,8.361,0,0,0,.762.743,1.222,1.222,0,0,1,.475.652q0-.214,0-.428c-.01-.012-.017-.024-.028-.036" transform="translate(-28.404 -180.381)" fill="#00aaea"/>
        <path id="Trazado_231619" data-name="Trazado 231619" d="M44,240.237q0-7.515,0-15.03a1.089,1.089,0,0,0-.125-.739q0,.214,0,.428a2.125,2.125,0,0,1,.078.631c-.022,4.889-.015,9.779-.01,14.668,0,.243-.081.5.094.727a2.332,2.332,0,0,1-.034-.685" transform="translate(-36.511 -186.808)" fill="#00aaea"/>
        <path id="Trazado_231620" data-name="Trazado 231620" d="M33.347,216.946c-.175.084-.11.269-.116.414-.011.292,0,.585,0,.877-.025,2,.052,4.005-.039,6.007.171-.2.1-.441.1-.663.006-2.048,0-4.1.008-6.143,0-.121-.055-.281.054-.366,0-.02,0-.039,0-.059s0-.045,0-.067" transform="translate(-27.62 -180.548)" fill="#00aaea"/>
        <path id="Trazado_231621" data-name="Trazado 231621" d="M104.552,162.925a.949.949,0,0,1,.936.446,6.307,6.307,0,0,0,.778.808c.109.115.316.212.255.392-.068.2-.289.111-.443.112-.854.008-1.708,0-2.561.008-.191,0-.43-.094-.546.169,2.109-.131,4.221-.021,6.33-.062.372-.007.321.237.321.462q-.006,8.125-.014,16.25c.218-.207.121-.474.121-.714q.009-6.558.01-13.116c0-.218-.125-.531.094-.638.243-.119.35.222.526.348.977.7.988,1.779,1.045,2.806.192,3.485.04,6.974.089,10.461,0,.242-.084.5.1.725.007-.23.021-.459.021-.689,0-5.1.006-10.206-.012-15.309,0-.46.1-.618.583-.594.856.042,1.715.011,2.572.011h3.494c-.122.27-.2.459-.292.643-.953,1.951-1.9,3.9-2.868,5.848a2.2,2.2,0,0,0-.246,1.143,5.027,5.027,0,0,0,9.937.715,3.072,3.072,0,0,0-.272-2.113c-1.229-2.42-2.416-4.861-3.588-7.309a1.424,1.424,0,0,0-1.463-.921c-2.426.03-4.853,0-7.279.022-.485.005-.606-.14-.578-.6.039-.625.02-1.254.006-1.882-.015-.7-.406-1.106-1.018-1.093a.976.976,0,0,0-.963,1.087c-.016.606-.038,1.215.006,1.819.037.507-.1.675-.639.668-2.405-.033-4.811-.017-7.216-.012-.242,0-.505-.078-.723.11,1.166,0,2.333.019,3.5,0m15.41,12.219a3.07,3.07,0,0,1-2.873-1.736c-.073-.2-.1-.315.17-.315,1.8,0,3.609,0,5.429,0a2.874,2.874,0,0,1-2.726,2.05m-.111-9.093,2.466,5.03H117.4l2.451-5.03" transform="translate(-84.1 -132.536)" fill="#0ab2ee"/>
        <path id="Trazado_231622" data-name="Trazado 231622" d="M77.44,195.317a5.026,5.026,0,0,0,5.484-3.849,2.439,2.439,0,0,0-.007-1.717l-3.292-6.679h0c-.032-.411.3-.324.508-.337.646-.04,1.294-.008,1.941-.019a1.309,1.309,0,0,0,.741-.107c-.58-.653-1.006-1.416-2.087-1.3a19.033,19.033,0,0,1-2.253.012c-.265,0-.55.043-.765-.183-.41.077-.546.423-.7.737q-1.89,3.848-3.77,7.7a1.835,1.835,0,0,0-.235.9,5.077,5.077,0,0,0,4.436,4.844m.6-11.054,2.451,5.005h-4.9l2.445-5.005M75.569,191.3c.835.008,1.671,0,2.506,0,.815,0,1.629.008,2.444,0,.331,0,.423.089.251.394a3.08,3.08,0,0,1-5.475-.014c-.192-.338-.016-.382.274-.379" transform="translate(-60.755 -150.747)" fill="#00a9ea"/>
        <path id="Trazado_231623" data-name="Trazado 231623" d="M101.819,181.313a19.032,19.032,0,0,0,2.253-.012c1.08-.115,1.506.647,2.086,1.3a1.308,1.308,0,0,1-.741.107c-.647.011-1.3-.021-1.941.019-.2.013-.54-.074-.508.337.117-.264.355-.167.546-.169.854-.01,1.708,0,2.561-.008.154,0,.375.087.443-.112.062-.18-.145-.277-.255-.392a6.306,6.306,0,0,1-.778-.808.949.949,0,0,0-.936-.446c-1.166.02-2.332,0-3.5,0,.215.226.5.18.765.183" transform="translate(-84.1 -150.74)" fill="#00a9ea"/>
        <path id="Trazado_231624" data-name="Trazado 231624" d="M112.469,192.67Z" transform="translate(-93.6 -160.345)" fill="#00a9ea"/>
        <path id="Trazado_231625" data-name="Trazado 231625" d="M134.46,221.076c-.015-2.907,0-5.815-.012-8.722a15.157,15.157,0,0,0-.273-2.931,2.054,2.054,0,0,0-.961-1.352,1.112,1.112,0,0,0-.128.793c-.005,4.1,0,8.2-.014,12.3,0,.334.18.773-.308.973-.9.005-1.8,0-2.7.017-.735.01-1.193.406-1.186,1.007a1.017,1.017,0,0,0,1.149.979q3.765.013,7.531,0a1,1,0,1,0,.014-1.981c-.753-.017-1.506,0-2.259-.01-.191,0-.427.106-.565-.139-.433-.2-.288-.608-.29-.93" transform="translate(-107.258 -173.161)" fill="#01aaeb"/>
        <path id="Trazado_231626" data-name="Trazado 231626" d="M153.916,219.161c-.049-3.487.1-6.976-.089-10.461-.057-1.026-.067-2.107-1.045-2.806-.176-.126-.283-.466-.526-.348-.22.107-.094.42-.094.638q-.01,6.558-.01,13.117c0,.239.1.506-.121.713.488-.2.306-.639.308-.973.016-4.1.009-8.2.014-12.3a1.112,1.112,0,0,1,.128-.793,2.054,2.054,0,0,1,.962,1.352,15.158,15.158,0,0,1,.273,2.931c.008,2.908,0,5.815.012,8.722,0,.322-.143.727.29.93-.185-.22-.1-.482-.1-.725" transform="translate(-126.524 -171.04)" fill="#01aaeb"/>
        <path id="Trazado_231627" data-name="Trazado 231627" d="M78.492,40.96c1.065.023,2.132.007,3.2.007l10.972,0c.188,0,.377.009.564-.006a1.04,1.04,0,0,0,1.057-1.018,1,1,0,0,0-1.1-.953c-2.445-.007-4.891,0-7.336,0v0h-6.9c-.146,0-.293,0-.439,0a1,1,0,1,0-.016,1.98" transform="translate(-64.406 -32.438)" fill="#1abbf0"/>
        <path id="Trazado_231628" data-name="Trazado 231628" d="M83.586,114.553c-1.713,0-3.427-.008-5.14,0a.991.991,0,0,0-1.047.945,1.015,1.015,0,0,0,.922,1.015,3.764,3.764,0,0,0,.563.02q2.633,0,5.266,0l8.588,0c.167,0,.335.008.5-.006a1.035,1.035,0,0,0,1.048-1.025,1,1,0,0,0-1.11-.944c-2.445-.007-4.89,0-7.335,0v0H83.586" transform="translate(-64.413 -95.332)" fill="#0cb4ee"/>
        <path id="Trazado_231629" data-name="Trazado 231629" d="M86.389,77.19c-.079-.1-.354-.063-.538-.063q-3.776-.012-7.553-.016h0a.875.875,0,0,0-.8,1.008.939.939,0,0,0,1.022.888c3.157,0,6.315-.012,9.472-.019-.36-.75-1.1-1.164-1.6-1.8" transform="translate(-64.493 -64.173)" fill="#0eb4ef"/>
        <path id="Trazado_231630" data-name="Trazado 231630" d="M96.879,76.612q-6.96,0-13.92,0a1.186,1.186,0,0,0-.673.073,5.152,5.152,0,0,1,1.3-.048c2.123-.009,4.245,0,6.368-.011a1.106,1.106,0,0,1,.932.389c.27.316.595.583.867.9.157.181.377.356.222.65q2.444.012,4.889.023c1.027,0,1.507-.322,1.493-1-.014-.644-.509-.973-1.479-.973" transform="translate(-68.48 -63.747)" fill="#19baf0"/>
        <path id="Trazado_231631" data-name="Trazado 231631" d="M91.753,78.015c-.273-.314-.6-.581-.867-.9a1.106,1.106,0,0,0-.932-.389c-2.123.014-4.245,0-6.368.011a5.154,5.154,0,0,0-1.3.048h0q3.777.007,7.553.016c.184,0,.459-.037.538.063.5.634,1.239,1.048,1.6,1.8.155-.294-.065-.469-.222-.65" transform="translate(-68.479 -63.85)" fill="#19baf0"/>
        <path id="Trazado_231632" data-name="Trazado 231632" d="M203.405,204.792l-2.466-5.03-2.451,5.03Z" transform="translate(-165.187 -166.247)" fill="#fefefe"/>
        <path id="Trazado_231633" data-name="Trazado 231633" d="M196.563,241.733c-.266,0-.243.115-.17.314a3.071,3.071,0,0,0,2.873,1.737,2.873,2.873,0,0,0,2.726-2.05c-1.82,0-3.625,0-5.429,0" transform="translate(-163.403 -201.176)" fill="#fefefe"/>
        <path id="Trazado_231634" data-name="Trazado 231634" d="M90.883,199.767l-2.445,5.005h4.9l-2.451-5.005" transform="translate(-73.6 -166.251)" fill="#fefefe"/>
        <path id="Trazado_231635" data-name="Trazado 231635" d="M89,243.755a2.985,2.985,0,0,0,2.741-1.662c.173-.305.08-.4-.251-.394-.814.012-1.629,0-2.444,0-.836,0-1.671.005-2.506,0-.291,0-.466.041-.274.379A2.991,2.991,0,0,0,89,243.755" transform="translate(-71.726 -201.148)" fill="#fefefe"/>
      </g>
    </g>
  </g>
</svg>
