<svg xmlns="http://www.w3.org/2000/svg" xmlns:xlink="http://www.w3.org/1999/xlink" width="111.861" height="111.861" viewBox="0 0 111.861 111.861">
  <defs>
    <clipPath id="clip-path">
      <rect id="Rectángulo_295277" data-name="Rectángulo 295277" width="52.633" height="60.695" fill="none"/>
    </clipPath>
  </defs>
  <g id="Grupo_904066" data-name="Grupo 904066" transform="translate(-10777 11071)">
    <path id="Trazado_231636" data-name="Trazado 231636" d="M111.862,55.931A55.931,55.931,0,1,1,55.933,0a55.933,55.933,0,0,1,55.929,55.931" transform="translate(10777 -11071)" fill="#fff"/>
    <g id="Grupo_881614" data-name="Grupo 881614" transform="translate(10807 -11046)">
      <g id="Grupo_881614-2" data-name="Grupo 881614" clip-path="url(#clip-path)">
        <path id="Trazado_231636-2" data-name="Trazado 231636" d="M181.248,326.759a23.816,23.816,0,0,0,2.744-.373.909.909,0,0,1,.425.038,1.508,1.508,0,0,1-.28-.4c-.869-1.716-1.8-3.4-2.668-5.117a2.756,2.756,0,0,0-1.819-1.657c-.037-.009-.074-.015-.111-.022a6.029,6.029,0,0,0-.942,2.325c-.444,1.556-.9,3.109-1.343,4.666a4.977,4.977,0,0,0-.112.568c.218.005.456-.022.485.294h3.187c.009-.289.23-.305.433-.318" transform="translate(-152.853 -275.453)" fill="#8fd7f8"/>
        <path id="Trazado_231637" data-name="Trazado 231637" d="M199.772,325.427c-.095-.161-.2-.318-.284-.483q-1.437-2.74-2.869-5.484a2.553,2.553,0,0,0-1.845-1.477c-.054.055-.1.112-.152.17.037.007.075.013.111.022a2.755,2.755,0,0,1,1.819,1.657c.869,1.716,1.8,3.4,2.668,5.117a1.5,1.5,0,0,0,.28.4c.09.025.178.055.27.073h0" transform="translate(-167.937 -274.383)" fill="#8fd7f8"/>
        <path id="Trazado_231638" data-name="Trazado 231638" d="M207.652,371.527a.906.906,0,0,1-.125-.1.911.911,0,0,0-.425-.038,23.823,23.823,0,0,1-2.744.373c-.2.013-.425.029-.433.318a.983.983,0,0,1,.546-.1,24.049,24.049,0,0,0,3.182-.453" transform="translate(-175.963 -320.453)" fill="#8fd7f8"/>
        <path id="Trazado_231639" data-name="Trazado 231639" d="M230.2,371.737a.9.9,0,0,0,.125.1l.146-.03c-.092-.019-.181-.048-.27-.073" transform="translate(-198.637 -320.766)" fill="#8fd7f8"/>
        <path id="Trazado_231640" data-name="Trazado 231640" d="M176.946,374.358c-.01.061-.02.122-.031.182.171.043.362-.005.517.112-.029-.315-.267-.289-.485-.294" transform="translate(-152.657 -323.028)" fill="#8fd7f8"/>
        <path id="Trazado_231641" data-name="Trazado 231641" d="M383.443,190.506s0,.007,0,.011l.051.052V189.44a4.66,4.66,0,0,0-.051,1.066" transform="translate(-330.862 -163.465)" fill="#688092"/>
        <path id="Trazado_231642" data-name="Trazado 231642" d="M383.047,190.592h0l.022-.086.012.012s0-.007,0-.011a4.667,4.667,0,0,1,.051-1.066,2.375,2.375,0,0,0-.085,1.152" transform="translate(-330.499 -163.465)" fill="#688092"/>
        <path id="Trazado_231643" data-name="Trazado 231643" d="M383.482,197.36l.051-.014-.051-.051c0,.022,0,.043,0,.065" transform="translate(-330.901 -170.243)" fill="#688092"/>
        <path id="Trazado_231644" data-name="Trazado 231644" d="M383.257,197.21l-.022.086.034-.009c0-.022,0-.043,0-.065l-.012-.012" transform="translate(-330.688 -170.169)" fill="#688092"/>
        <path id="Trazado_231645" data-name="Trazado 231645" d="M58.2,168.908a6.317,6.317,0,0,1-2.556.471q-19.267.019-38.534,0a5.116,5.116,0,0,1-4.187-1.69,5.922,5.922,0,0,1-1.016-1.99,6.021,6.021,0,0,1-.231-1c-.063,1.619.073,3.24.082,4.859a5.065,5.065,0,0,0,5.119,5.022c2.38.029,4.76,0,7.14.01a1.857,1.857,0,0,1,.907.1.563.563,0,0,1,.113.138l2.7,0h4.969a.55.55,0,0,1,.164-.169,1.428,1.428,0,0,1,.555-.071q2.942-.015,5.884,0a1.547,1.547,0,0,1,.555.065.552.552,0,0,1,.18.177l2.7,0h4.889a.386.386,0,0,1,.092-.125,1.671,1.671,0,0,1,.9-.114c2.378-.007,4.757.007,7.135-.009a5.241,5.241,0,0,0,3.208-1.051,5.014,5.014,0,0,0,2.029-3.965c.068-1.533-.036-3.072.1-4.605a2.754,2.754,0,0,0,0-.429,7.551,7.551,0,0,1-.264,1.211,4.78,4.78,0,0,1-2.636,3.16" transform="translate(-10.065 -141.976)" fill="#fec150"/>
        <path id="Trazado_231646" data-name="Trazado 231646" d="M24.144,168.612a.562.562,0,0,0-.113-.138,1.858,1.858,0,0,0-.907-.1c-2.38-.008-4.76.019-7.14-.01a5.065,5.065,0,0,1-5.119-5.022c-.01-1.619-.145-3.239-.082-4.859-.06-.384-.1-.771-.155-1.156,0,2.049-.013,4.1.007,6.148a4.789,4.789,0,0,0,.713,2.481,5.267,5.267,0,0,0,4.742,2.633c2.669.016,5.339.018,8.008.025h.046" transform="translate(-9.167 -135.752)" fill="#fec150"/>
        <path id="Trazado_231647" data-name="Trazado 231647" d="M287.525,158.73c-.131,1.533-.027,3.072-.1,4.605A5.014,5.014,0,0,1,285.4,167.3a5.24,5.24,0,0,1-3.208,1.051c-2.378.016-4.757,0-7.135.008a1.671,1.671,0,0,0-.9.114.386.386,0,0,0-.092.125h.084c.2-.007.41-.02.615-.021,2.5,0,5,.015,7.493-.006a5.244,5.244,0,0,0,5.389-5.117c.063-2.046.012-4.1.012-6.145-.044.33-.083.662-.131.991a2.752,2.752,0,0,1,0,.429" transform="translate(-236.485 -135.74)" fill="#fec150"/>
        <path id="Trazado_231648" data-name="Trazado 231648" d="M172.345,237.907a1.551,1.551,0,0,0-.555-.065q-2.942-.014-5.884,0a1.431,1.431,0,0,0-.555.071.55.55,0,0,0-.164.169h.009l7.278,0h.051a.552.552,0,0,0-.18-.177" transform="translate(-142.537 -205.225)" fill="#fec150"/>
        <path id="Trazado_231649" data-name="Trazado 231649" d="M60.1,82.306c-.293-.154-.227-.438-.23-.682a8.628,8.628,0,0,0-.2-2.237,5.087,5.087,0,0,0-2.517-3.216,2.628,2.628,0,0,1-.514-.366.118.118,0,0,0-.028.07,8.914,8.914,0,0,1-.628,3.149h0a1.975,1.975,0,0,1,.809,1.686c0,2.221.006,4.442,0,6.663a2.014,2.014,0,0,1-2.166,2.138c-2.688.007-5.376,0-8.063,0H15.9a2.039,2.039,0,0,1-2.225-1.631,2,2,0,0,1-.041-.406c0-2.272-.006-4.545,0-6.817a1.885,1.885,0,0,1,.81-1.628h0a7.4,7.4,0,0,1-.621-3.1.262.262,0,0,0-.025-.136c-.558.479-1.237.783-1.764,1.321A5.288,5.288,0,0,0,10.565,80.6c-.027.39,0,.783-.013,1.174-.008.207-.018.415-.244.52h0c0,.01,0,.019,0,.029h.009c.3.172.238.471.245.734.033,1.28-.031,2.561.038,3.84-.008.066-.013.131-.02.2a.831.831,0,0,1,.079.384,7.524,7.524,0,0,0,.685,2.507,4.236,4.236,0,0,0,3.475,2.472,15.843,15.843,0,0,0,2.253.12q18.393-.008,36.786,0a11.238,11.238,0,0,0,1.992-.162,4.328,4.328,0,0,0,3.559-3.288,6.167,6.167,0,0,0,.36-1.752.534.534,0,0,1,.061-.278c-.006-.063-.012-.125-.015-.188.077-1.221.009-2.443.037-3.664a1.518,1.518,0,0,1,.119-.842.527.527,0,0,1,.122-.06C60.1,82.331,60.1,82.319,60.1,82.306Z" transform="translate(-8.895 -65.396)" fill="#fecf64"/>
        <path id="Trazado_231650" data-name="Trazado 231650" d="M10.567,128.226c.007-.066.012-.131.02-.2-.069-1.279,0-2.56-.038-3.84-.007-.263.054-.562-.244-.734H10.3c.009.193.025.386.022.578-.022,1.355-.056,2.71.024,4.065h0a.312.312,0,0,1,.226.127" transform="translate(-8.88 -106.528)" fill="#fecf64"/>
        <path id="Trazado_231651" data-name="Trazado 231651" d="M371.426,124.5c-.029,1.221.04,2.443-.037,3.664,0,.063.009.126.015.188a.287.287,0,0,1,.233-.132c.1-1.54.008-3.082.03-4.622a.526.526,0,0,0-.122.06,1.516,1.516,0,0,0-.119.842" transform="translate(-320.466 -106.653)" fill="#fecf64"/>
        <path id="Trazado_231652" data-name="Trazado 231652" d="M10.551,81.1c.016-.391-.014-.784.013-1.174a5.287,5.287,0,0,1,1.468-3.491c.527-.538,1.207-.843,1.764-1.321a.216.216,0,0,0-.12-.107c-.089.051-.175.107-.266.152a5.175,5.175,0,0,0-3.017,4.215c-.089.742-.061,1.5-.087,2.246h0c.227-.106.236-.314.244-.52" transform="translate(-8.894 -64.725)" fill="#fecf64"/>
        <path id="Trazado_231653" data-name="Trazado 231653" d="M348.711,75.481a5.087,5.087,0,0,1,2.517,3.217,8.623,8.623,0,0,1,.2,2.237c0,.244-.064.528.229.682q-.012-.819-.024-1.638a5.522,5.522,0,0,0-.548-2.372,5.639,5.639,0,0,0-2.778-2.618c-.03.042-.079.084-.109.126a2.623,2.623,0,0,0,.514.366" transform="translate(-300.454 -64.707)" fill="#fecf64"/>
        <path id="Trazado_231654" data-name="Trazado 231654" d="M12.018,160.272a5.924,5.924,0,0,0,1.016,1.99,5.117,5.117,0,0,0,4.187,1.69q19.267.024,38.533,0a6.315,6.315,0,0,0,2.556-.471,4.779,4.779,0,0,0,2.636-3.159,7.524,7.524,0,0,0,.264-1.211c-.02-.287-.072-.572-.1-.859a.534.534,0,0,0-.061.278,6.171,6.171,0,0,1-.36,1.752,4.328,4.328,0,0,1-3.559,3.288,11.237,11.237,0,0,1-1.992.162q-18.393-.008-36.787,0a15.838,15.838,0,0,1-2.253-.12,4.237,4.237,0,0,1-3.475-2.472,7.527,7.527,0,0,1-.685-2.507.83.83,0,0,0-.079-.384c-.035.343-.058.686-.071,1.029a6.021,6.021,0,0,0,.231,1" transform="translate(-10.171 -136.55)" fill="#fecf64"/>
        <path id="Trazado_231655" data-name="Trazado 231655" d="M371.5,157.443c.029.287.081.571.1.859.049-.329.087-.66.131-.991a.286.286,0,0,0-.233.132" transform="translate(-320.563 -135.741)" fill="#fecf64"/>
        <path id="Trazado_231656" data-name="Trazado 231656" d="M10.88,157.45a.312.312,0,0,0-.226-.127c.055.385.1.772.155,1.156.013-.343.036-.687.071-1.03" transform="translate(-9.193 -135.752)" fill="#fecf64"/>
        <path id="Trazado_231657" data-name="Trazado 231657" d="M124.866,240.115c-1.477,0-2.954.05-4.431-.026l-.051,0c-.258,1.167-.665,2.294-.95,3.453a10.588,10.588,0,0,0,.4,6.711,4.188,4.188,0,0,0,1.644,2.1,2.5,2.5,0,0,0,.325.173,1.07,1.07,0,0,0,.346-.119,6.127,6.127,0,0,0,4.883-8.861c-.489-1.013-1.081-1.974-1.548-3a.764.764,0,0,1-.109-.608.584.584,0,0,1-.508.174" transform="translate(-102.746 -207.041)" fill="#8fd7f8"/>
        <path id="Trazado_231658" data-name="Trazado 231658" d="M142.552,239.677a.764.764,0,0,0,.109.608c.467,1.024,1.059,1.985,1.548,3a6.127,6.127,0,0,1-4.883,8.861,1.068,1.068,0,0,1-.346.119,1.141,1.141,0,0,0,.387.095h0c.2-.023.411-.029.61-.071a6.333,6.333,0,0,0,4.439-9.1c-.586-1.195-1.22-2.366-1.832-3.548a.423.423,0,0,1-.031.042" transform="translate(-119.924 -206.777)" fill="#8fd7f8"/>
        <path id="Trazado_231659" data-name="Trazado 231659" d="M128.633,239.826l.051,0c1.477.076,2.954.03,4.431.026a.585.585,0,0,0,.509-.174.382.382,0,0,1,.022-.042h-4.969c-.013.065-.029.129-.043.193" transform="translate(-110.995 -206.776)" fill="#8fd7f8"/>
        <path id="Trazado_231660" data-name="Trazado 231660" d="M165.05,239.635a.429.429,0,0,0-.022.042.44.44,0,0,0,.031-.042Z" transform="translate(-142.4 -206.777)" fill="#8fd7f8"/>
        <path id="Trazado_231661" data-name="Trazado 231661" d="M229.895,240.521l-.064,0c-.258,1.166-.667,2.292-.95,3.452a10.541,10.541,0,0,0,.4,6.711,4.219,4.219,0,0,0,1.644,2.1,2.463,2.463,0,0,0,.329.175,1.069,1.069,0,0,0,.338-.12,6.173,6.173,0,0,0,5.478-5.153,7.011,7.011,0,0,0-1.123-4.725c-.41-.711-.75-1.458-1.116-2.191a.674.674,0,0,1-.094-.33.737.737,0,0,1-.437.107c-1.468,0-2.937.049-4.4-.026" transform="translate(-197.186 -207.473)" fill="#8fd7f8"/>
        <path id="Trazado_231662" data-name="Trazado 231662" d="M251.946,239.746a.676.676,0,0,0,.094.33c.367.733.706,1.48,1.117,2.191a7.011,7.011,0,0,1,1.123,4.725,6.173,6.173,0,0,1-5.478,5.154,1.069,1.069,0,0,1-.338.12,1.13,1.13,0,0,0,.383.093h0c.2-.023.41-.029.609-.072a6.336,6.336,0,0,0,4.415-9.15c-.585-1.176-1.207-2.334-1.813-3.5a.491.491,0,0,1-.112.11" transform="translate(-214.395 -206.778)" fill="#8fd7f8"/>
        <path id="Trazado_231663" data-name="Trazado 231663" d="M238.089,239.827l.064,0c1.468.075,2.936.03,4.4.026a.737.737,0,0,0,.437-.107.308.308,0,0,1,.027-.11h-4.889c-.013.065-.029.13-.044.194" transform="translate(-205.443 -206.776)" fill="#8fd7f8"/>
        <path id="Trazado_231664" data-name="Trazado 231664" d="M273.892,239.636a.307.307,0,0,0-.027.11.488.488,0,0,0,.111-.11h-.084" transform="translate(-236.314 -206.778)" fill="#8fd7f8"/>
        <path id="Trazado_231665" data-name="Trazado 231665" d="M205.341,248.387a13.93,13.93,0,0,1,.8-6.583c.105-.325.189-.655.284-.983a1.25,1.25,0,0,1,.177-.386c-.636.033-1.273.031-1.91.019a.867.867,0,0,1-.553-.126.769.769,0,0,1-.127.539c-.527,1-1.053,1.993-1.55,3.005a6.327,6.327,0,0,0-.684,2.909,6.187,6.187,0,0,0,5.189,5.935c.274.04.55.127.827.156a1.6,1.6,0,0,1-.581-.371,7.045,7.045,0,0,1-1.87-4.115" transform="translate(-174.109 -207.375)" fill="#75cdf8"/>
        <path id="Trazado_231666" data-name="Trazado 231666" d="M206.28,252.285c-.277-.029-.552-.116-.827-.156a6.187,6.187,0,0,1-5.189-5.935,6.326,6.326,0,0,1,.684-2.909c.5-1.012,1.023-2.008,1.55-3.005a.77.77,0,0,0,.127-.539.478.478,0,0,1-.091-.094c-.608,1.182-1.229,2.356-1.82,3.546a6.327,6.327,0,0,0,2.469,8.362,5.551,5.551,0,0,0,3.864.813,1.7,1.7,0,0,1-.768-.083" transform="translate(-172.597 -206.788)" fill="#75cdf8"/>
        <path id="Trazado_231667" data-name="Trazado 231667" d="M221.206,239.835a.883.883,0,0,1,.2-.2l-2.7,0a.375.375,0,0,1,.04.094.866.866,0,0,0,.553.125c.637.012,1.274.015,1.91-.019" transform="translate(-188.715 -206.776)" fill="#75cdf8"/>
        <path id="Trazado_231668" data-name="Trazado 231668" d="M218.422,239.741a.376.376,0,0,0-.04-.094h-.051a.485.485,0,0,0,.091.094" transform="translate(-188.394 -206.788)" fill="#75cdf8"/>
        <path id="Trazado_231669" data-name="Trazado 231669" d="M227.842,251.213a10.539,10.539,0,0,1-.4-6.711c.283-1.16.691-2.285.95-3.452l-.155.008a1.245,1.245,0,0,0-.177.386c-.094.328-.179.658-.284.983a13.931,13.931,0,0,0-.8,6.583,7.045,7.045,0,0,0,1.87,4.115,1.6,1.6,0,0,0,.581.371,1.376,1.376,0,0,0,.385-.01,2.474,2.474,0,0,1-.329-.175,4.218,4.218,0,0,1-1.644-2.1" transform="translate(-195.747 -207.999)" fill="#75cdf8"/>
        <path id="Trazado_231670" data-name="Trazado 231670" d="M246.038,331.745a1.373,1.373,0,0,1-.385.01,1.7,1.7,0,0,0,.768.083h0a1.132,1.132,0,0,1-.383-.093" transform="translate(-211.97 -286.258)" fill="#75cdf8"/>
        <path id="Trazado_231671" data-name="Trazado 231671" d="M236.955,239.835l.156-.008c.014-.065.03-.129.043-.194a.883.883,0,0,0-.2.2" transform="translate(-204.465 -206.776)" fill="#75cdf8"/>
        <path id="Trazado_231672" data-name="Trazado 231672" d="M96.014,248.961a13.473,13.473,0,0,1,.689-7.187c.107-.324.19-.655.284-.983a1.245,1.245,0,0,1,.177-.387c-.632.036-1.266.031-1.9.019a.856.856,0,0,1-.569-.13.791.791,0,0,1-.131.564c-.521,1.017-1.069,2.02-1.574,3.046a6.13,6.13,0,0,0,4.594,8.792c.253.038.505.113.759.141a1.636,1.636,0,0,1-.57-.363,6.6,6.6,0,0,1-1.761-3.512" transform="translate(-79.682 -207.345)" fill="#75cdf8"/>
        <path id="Trazado_231673" data-name="Trazado 231673" d="M96.81,252.278c-.253-.029-.506-.1-.759-.141a6.13,6.13,0,0,1-4.594-8.792c.5-1.026,1.052-2.029,1.574-3.046a.79.79,0,0,0,.131-.564.481.481,0,0,1-.084-.089h0c-.644,1.258-1.328,2.5-1.924,3.777a6.324,6.324,0,0,0,2.749,8.233,5.529,5.529,0,0,0,3.686.711,1.7,1.7,0,0,1-.78-.09" transform="translate(-78.147 -206.787)" fill="#75cdf8"/>
        <path id="Trazado_231674" data-name="Trazado 231674" d="M111.735,239.834a.888.888,0,0,1,.2-.2l-2.7,0a.408.408,0,0,1,.038.089.857.857,0,0,0,.569.13c.633.011,1.266.016,1.9-.019" transform="translate(-94.253 -206.776)" fill="#75cdf8"/>
        <path id="Trazado_231675" data-name="Trazado 231675" d="M108.978,239.735a.418.418,0,0,0-.038-.089h-.046a.482.482,0,0,0,.084.089" transform="translate(-93.963 -206.787)" fill="#75cdf8"/>
        <path id="Trazado_231676" data-name="Trazado 231676" d="M118.4,251.206a10.589,10.589,0,0,1-.4-6.711c.285-1.159.693-2.286.95-3.453l-.155.008a1.246,1.246,0,0,0-.177.387c-.094.328-.177.659-.284.983a13.473,13.473,0,0,0-.689,7.187,6.6,6.6,0,0,0,1.761,3.512,1.638,1.638,0,0,0,.57.364,1.431,1.431,0,0,0,.393-.005,2.464,2.464,0,0,1-.325-.173,4.188,4.188,0,0,1-1.644-2.1" transform="translate(-101.314 -207.991)" fill="#75cdf8"/>
        <path id="Trazado_231677" data-name="Trazado 231677" d="M136.507,331.734a1.425,1.425,0,0,1-.393.005,1.7,1.7,0,0,0,.779.09h0a1.141,1.141,0,0,1-.387-.095" transform="translate(-117.451 -286.248)" fill="#75cdf8"/>
        <path id="Trazado_231678" data-name="Trazado 231678" d="M127.5,239.834l.155-.008c.014-.064.03-.128.043-.193a.888.888,0,0,0-.2.2" transform="translate(-110.018 -206.776)" fill="#75cdf8"/>
        <path id="Trazado_231679" data-name="Trazado 231679" d="M156.9,319.949a16.386,16.386,0,0,0-1,1.781c-.71,1.4-1.434,2.787-2.187,4.163a1.62,1.62,0,0,1-.224.326,1.184,1.184,0,0,1,.453,0c.868.147,1.738.283,2.616.356a1.038,1.038,0,0,1,.071-.661c.36-1.261.718-2.522,1.083-3.782.2-.7.377-1.417.616-2.109a1.822,1.822,0,0,1,.6-1.018,2.334,2.334,0,0,0-2.026.945" transform="translate(-132.439 -275.259)" fill="#75cdf8"/>
        <path id="Trazado_231680" data-name="Trazado 231680" d="M152.216,324.5c.752-1.375,1.477-2.765,2.187-4.163a16.385,16.385,0,0,1,1-1.781,2.335,2.335,0,0,1,2.026-.945,1.018,1.018,0,0,1,.353-.144,1.008,1.008,0,0,0-.239-.075,2.616,2.616,0,0,0-2.661,1.533c-1.037,2-2.086,3.99-3.13,5.984h0a1.011,1.011,0,0,1,.237-.083,1.611,1.611,0,0,0,.224-.326" transform="translate(-130.947 -273.871)" fill="#75cdf8"/>
        <path id="Trazado_231681" data-name="Trazado 231681" d="M155.8,371.867c-.878-.073-1.749-.209-2.616-.356a1.179,1.179,0,0,0-.453,0,.888.888,0,0,1-.12.108,15.258,15.258,0,0,0,3.332.444h0a.525.525,0,0,1-.143-.2" transform="translate(-131.687 -320.553)" fill="#75cdf8"/>
        <path id="Trazado_231682" data-name="Trazado 231682" d="M152,371.658a1.009,1.009,0,0,0-.237.083l.117.025a.886.886,0,0,0,.12-.108" transform="translate(-130.951 -320.698)" fill="#75cdf8"/>
        <path id="Trazado_231683" data-name="Trazado 231683" d="M177.431,320.054c-.238.692-.412,1.405-.616,2.109-.365,1.26-.723,2.521-1.083,3.782a1.04,1.04,0,0,0-.071.661c.058,0,.115.012.173.016h0a4.99,4.99,0,0,1,.112-.568c.443-1.557.9-3.11,1.343-4.666a6.029,6.029,0,0,1,.942-2.325,1.931,1.931,0,0,0-.2-.026,1.821,1.821,0,0,0-.6,1.018" transform="translate(-151.545 -275.291)" fill="#75cdf8"/>
        <path id="Trazado_231684" data-name="Trazado 231684" d="M193.152,318.127a1.974,1.974,0,0,1,.2.026c.048-.058.1-.115.152-.17a1.014,1.014,0,0,0-.353.144" transform="translate(-166.668 -274.383)" fill="#75cdf8"/>
        <path id="Trazado_231685" data-name="Trazado 231685" d="M175.873,374.24a.525.525,0,0,0,.143.2c.011-.06.021-.121.031-.182h0c-.058,0-.115-.011-.173-.016" transform="translate(-151.758 -322.926)" fill="#75cdf8"/>
        <path id="Trazado_231686" data-name="Trazado 231686" d="M64.51,11.041a9.2,9.2,0,0,0,1.376,6.318,2.576,2.576,0,0,0,1.678,1.172h0l.595-.023a8.7,8.7,0,0,0,2.455-1.049h0l1.121-1.008a8.2,8.2,0,0,0,.928-1.463c.109-.265.311-.27.542-.268.955.006,1.911.006,2.866.008l-.091-.116c-.9.005-1.807.008-2.711.017-.285,0-.415-.071-.3-.39a7.38,7.38,0,0,0,.334-2.683.577.577,0,0,1-.314-.424A23.673,23.673,0,0,0,70.705,6.24c-.352-.718-.729-1.426-1.08-2.145-.065-.133-.163-.294-.039-.43a.645.645,0,0,1-.425-.408,2.7,2.7,0,0,0-1.8-1.559l-.053,0c-1.105,1.746-1.27,3.816-1.912,5.721a15.182,15.182,0,0,0-.891,3.624" transform="translate(-55.618 -1.463)" fill="#b37c67"/>
        <path id="Trazado_231687" data-name="Trazado 231687" d="M85.349.484a2.7,2.7,0,0,1,1.8,1.559.644.644,0,0,0,.425.408.365.365,0,0,1,.076-.062,5.717,5.717,0,0,1-.344-.554A2.677,2.677,0,0,0,85.419.288c-.043.063-.083.128-.123.193l.053,0" transform="translate(-73.601 -0.249)" fill="#b37c67"/>
        <path id="Trazado_231688" data-name="Trazado 231688" d="M101.542,16.492c.351.719.728,1.427,1.08,2.145a23.679,23.679,0,0,1,2.281,4.892.577.577,0,0,0,.314.425c0-.046,0-.092,0-.137h0a10.281,10.281,0,0,0-.833-2.355q-.81-1.484-1.568-3c-.4-.8-.881-1.55-1.2-2.384a.656.656,0,0,1-.108-.019c-.124.136-.025.3.039.43" transform="translate(-87.534 -13.86)" fill="#b37c67"/>
        <path id="Trazado_231689" data-name="Trazado 231689" d="M101.877,15.671a.672.672,0,0,0,.108.02c-.011-.027-.022-.054-.033-.082a.361.361,0,0,0-.076.062" transform="translate(-87.908 -13.469)" fill="#b37c67"/>
        <path id="Trazado_231690" data-name="Trazado 231690" d="M283.393,11.065a9.1,9.1,0,0,0,1.408,6.342,2.513,2.513,0,0,0,1.646,1.125h0a6.32,6.32,0,0,0,3.671-1.573,11.982,11.982,0,0,0,1.361-1.735l-.009-.013a.639.639,0,0,1-.013-.59,8.039,8.039,0,0,0,.511-2.443c.008-.156,0-.351.145-.417a1.1,1.1,0,0,1-.248-.524,9.713,9.713,0,0,0-1.045-2.654q-1.369-2.551-2.678-5.134A3.045,3.045,0,0,0,286.253,1.7l-.061,0c-1.069,1.6-1.209,3.534-1.8,5.3a17.44,17.44,0,0,0-1,4.061" transform="translate(-244.487 -1.466)" fill="#b37c67"/>
        <path id="Trazado_231691" data-name="Trazado 231691" d="M304.222.494a3.045,3.045,0,0,1,1.89,1.745c.868,1.723,1.765,3.434,2.678,5.134a9.7,9.7,0,0,1,1.045,2.654,1.1,1.1,0,0,0,.248.524.363.363,0,0,1,.224-.012,2.262,2.262,0,0,1-.262-.605,6.225,6.225,0,0,0-.684-1.973c-1.069-2.041-2.144-4.08-3.2-6.128A2.74,2.74,0,0,0,304.291.3c-.046.063-.087.128-.13.192l.061,0" transform="translate(-262.456 -0.256)" fill="#b37c67"/>
        <path id="Trazado_231692" data-name="Trazado 231692" d="M342.813,75.08c-.141.066-.136.261-.145.417a8.049,8.049,0,0,1-.512,2.443.638.638,0,0,0,.013.59l.009.013.094-.131h0a8.914,8.914,0,0,0,.628-3.149.118.118,0,0,1,.028-.07l-.024-.022a.974.974,0,0,1-.091-.092" transform="translate(-295.185 -64.785)" fill="#b37c67"/>
        <path id="Trazado_231693" data-name="Trazado 231693" d="M347.357,74.932a.974.974,0,0,0,.091.092l.024.022c.03-.042.078-.084.109-.126a.364.364,0,0,0-.224.013" transform="translate(-299.729 -64.637)" fill="#b37c67"/>
        <path id="Trazado_231694" data-name="Trazado 231694" d="M36.628,11.948a8.485,8.485,0,0,0,.558,2.78.473.473,0,0,1-.04.395l-.018.022a10.324,10.324,0,0,0,1.366,1.75,6.608,6.608,0,0,0,4.454,1.645h.063a4.051,4.051,0,0,1-2.26-2.616A10.72,10.72,0,0,1,40.5,9.181c.573-2.109,1.2-4.2,1.8-6.306A2.23,2.23,0,0,1,43,1.611,2.439,2.439,0,0,0,40.643,3.03c-.466.855-.892,1.73-1.349,2.589C38.566,6.99,37.811,8.35,37.15,9.756a5.687,5.687,0,0,0-.394,1.322,1.387,1.387,0,0,1-.25.591.32.32,0,0,1,.123.278" transform="translate(-31.5 -1.39)" fill="#a96951"/>
        <path id="Trazado_231695" data-name="Trazado 231695" d="M35.1,10.362a1.386,1.386,0,0,0,.25-.591,5.684,5.684,0,0,1,.394-1.322c.661-1.407,1.416-2.766,2.145-4.138.457-.859.883-1.734,1.349-2.589A2.439,2.439,0,0,1,41.6.3a1.463,1.463,0,0,1,.319-.182A2.568,2.568,0,0,0,39,1.681q-1.586,3.031-3.167,6.064a6.173,6.173,0,0,0-.7,2.011,1.651,1.651,0,0,1-.246.612.254.254,0,0,1,.223,0" transform="translate(-30.099 -0.082)" fill="#a96951"/>
        <path id="Trazado_231696" data-name="Trazado 231696" d="M36.5,78.428a.473.473,0,0,0,.04-.395,8.485,8.485,0,0,1-.558-2.78.32.32,0,0,0-.123-.278,1.119,1.119,0,0,1-.077.09l-.026.021a.262.262,0,0,1,.025.136,7.4,7.4,0,0,0,.621,3.1h0l.08.123.018-.022" transform="translate(-30.855 -64.695)" fill="#a96951"/>
        <path id="Trazado_231697" data-name="Trazado 231697" d="M35,74.942l.026-.021a1.093,1.093,0,0,0,.077-.09.254.254,0,0,0-.223,0,.216.216,0,0,1,.12.107" transform="translate(-30.099 -64.55)" fill="#a96951"/>
        <path id="Trazado_231698" data-name="Trazado 231698" d="M64.766,2.88c-.591,2.1-1.222,4.2-1.8,6.306a10.719,10.719,0,0,0,.254,6.743,4.05,4.05,0,0,0,2.26,2.616.731.731,0,0,0,.434-.082,2.576,2.576,0,0,1-1.678-1.172,9.2,9.2,0,0,1-1.376-6.319,15.185,15.185,0,0,1,.891-3.624c.642-1.905.807-3.976,1.912-5.721-.066-.005-.132-.009-.2-.011a2.231,2.231,0,0,0-.705,1.263" transform="translate(-53.972 -1.395)" fill="#a96951"/>
        <path id="Trazado_231699" data-name="Trazado 231699" d="M84.065.482c.041-.064.08-.129.123-.193a1.469,1.469,0,0,0-.319.182c.064,0,.129.005.2.011" transform="translate(-72.369 -0.249)" fill="#a96951"/>
        <path id="Trazado_231700" data-name="Trazado 231700" d="M258.34,4.316c-.833,1.584-1.673,3.165-2.487,4.759a8.775,8.775,0,0,0-.709,1.859.727.727,0,0,1-.33.522,7.866,7.866,0,0,0,.424,3.065l.092.115a6.665,6.665,0,0,0,1.041,1.729h0l1.128,1.02a8.927,8.927,0,0,0,2.466,1.049,11.785,11.785,0,0,0,1.439.091,4.17,4.17,0,0,1-2.3-2.7,10.454,10.454,0,0,1-.34-6.19c.572-2.386,1.312-4.73,2-7.086a1.744,1.744,0,0,1,.617-.963,2.469,2.469,0,0,0-2.37,1.4c-.134.237-.258.483-.532.565.162.287-.022.53-.146.765" transform="translate(-219.869 -1.37)" fill="#a96951"/>
        <path id="Trazado_231701" data-name="Trazado 231701" d="M281.474,2.266c.274-.082.4-.328.532-.565a2.469,2.469,0,0,1,2.37-1.4,1.518,1.518,0,0,1,.317-.179A2.588,2.588,0,0,0,281.755,1.7c-.094.179-.2.349-.306.523h0c.009.014.017.028.025.042" transform="translate(-242.858 -0.086)" fill="#a96951"/>
        <path id="Trazado_231702" data-name="Trazado 231702" d="M254.861,23.67h0c0,.045,0,.089,0,.134a.727.727,0,0,0,.33-.522,8.774,8.774,0,0,1,.709-1.859c.814-1.594,1.654-3.175,2.487-4.759.124-.236.308-.479.146-.765-.016,0-.035.007-.053.011-.465.908-.941,1.811-1.389,2.728-.806,1.649-1.9,3.172-2.226,5.033" transform="translate(-219.912 -13.718)" fill="#a96951"/>
        <path id="Trazado_231703" data-name="Trazado 231703" d="M281.3,15.634c-.008-.014-.016-.028-.025-.042h0l-.027.053c.017,0,.036-.006.053-.011" transform="translate(-242.688 -13.454)" fill="#a96951"/>
        <path id="Trazado_231704" data-name="Trazado 231704" d="M283.722,2.568c-.692,2.355-1.431,4.7-2,7.086a10.454,10.454,0,0,0,.34,6.19,4.171,4.171,0,0,0,2.3,2.7,1.829,1.829,0,0,0,.426-.087,2.513,2.513,0,0,1-1.646-1.125,9.1,9.1,0,0,1-1.409-6.342,17.431,17.431,0,0,1,1-4.061c.59-1.77.73-3.7,1.8-5.3-.063-.006-.125-.011-.187-.013a1.744,1.744,0,0,0-.617.963" transform="translate(-242.82 -1.385)" fill="#a96951"/>
        <path id="Trazado_231705" data-name="Trazado 231705" d="M302.985.489c.043-.064.084-.129.13-.192a1.511,1.511,0,0,0-.317.179c.061,0,.124.007.187.013" transform="translate(-261.28 -0.256)" fill="#a96951"/>
        <path id="Trazado_231706" data-name="Trazado 231706" d="M76.889,99.087a1.226,1.226,0,0,1-1,1.917A14.511,14.511,0,0,1,72,100.991a.963.963,0,0,1-.595-.311l-.063-.01a5.255,5.255,0,0,1-2.558-1.015c-.061.991-.428,1.36-1.551,1.414A16.277,16.277,0,0,1,63.808,101a1.194,1.194,0,0,1-1.077-1.059,1.209,1.209,0,0,1,.8-1.386,2.13,2.13,0,0,1,.8-.128c1.031,0,2.062,0,3.093,0a4.738,4.738,0,0,1-1.018-1.677c0-.018-.011-.035-.016-.053q-1.312,0-2.624-.006c-.226,0-.424,0-.546.258a6.664,6.664,0,0,1-2.759,2.913,1.08,1.08,0,0,1-.845,1.1,13.149,13.149,0,0,1-4.288-.012,1.222,1.222,0,0,1-.917-1.121,6.6,6.6,0,0,1-2.787-3.12c-.145.221-.386.192-.607.2-.666.017-1.333.011-2,.005a.733.733,0,0,0-.769.47,4.618,4.618,0,0,1-.735,1.035c1.1,0,2.2-.008,3.305.015a1.3,1.3,0,0,1,1.251,1.967,1.121,1.121,0,0,1-.845.592,16.03,16.03,0,0,1-3.526.071c-1.14-.065-1.458-.4-1.528-1.433a5.345,5.345,0,0,1-2.506,1.022.592.592,0,0,0-.068-.009,1.287,1.287,0,0,1-1.015.412,17.372,17.372,0,0,1-3.512-.048,1.234,1.234,0,0,1-1-1.913,5.624,5.624,0,0,1-1.185-1.36,1.213,1.213,0,0,1-.181-.437,3.32,3.32,0,0,0-.586,2.158c.037,1.879.005,3.76.013,5.64.006,1.537.688,2.224,2.232,2.225q19.113.008,38.225,0c.154,0,.309,0,.462-.014a1.774,1.774,0,0,0,1.76-1.794c.051-2.289.031-4.58.009-6.87a2.418,2.418,0,0,0-.586-1.345,3.314,3.314,0,0,1-.8,1.274,2.8,2.8,0,0,1-.541.515M42.676,105.3c-.6.012-1.2,0-1.8,0-.564,0-1.129.009-1.693,0a1.28,1.28,0,1,1-.005-2.559q1.744-.018,3.488,0a1.28,1.28,0,1,1,.005,2.559m8.348-.008q-1.82.044-3.641,0a1.277,1.277,0,0,1,.08-2.551c.6-.007,1.2,0,1.8,0,.564,0,1.129-.005,1.693,0a1.261,1.261,0,0,1,1.287,1.189,1.234,1.234,0,0,1-1.215,1.363m8.2.008q-1.743.018-3.486,0a1.28,1.28,0,1,1,.005-2.559c.6-.011,1.2,0,1.794,0,.564,0,1.128-.009,1.692,0a1.28,1.28,0,1,1-.005,2.559m8.459-.022c-1.28.047-2.565.048-3.845,0a1.226,1.226,0,0,1-1.11-1.4,1.271,1.271,0,0,1,1.236-1.135c.615-.01,1.231,0,1.846,0,.581,0,1.163-.009,1.744,0a1.238,1.238,0,0,1,1.236,1.182,1.216,1.216,0,0,1-1.107,1.354m8.062.024c-.564.009-1.128,0-1.692,0-.581,0-1.162.008-1.743,0a1.282,1.282,0,1,1,.012-2.56q1.718-.014,3.435,0a1.282,1.282,0,1,1-.012,2.56" transform="translate(-31.166 -83.43)" fill="#365e7c"/>
        <path id="Trazado_231707" data-name="Trazado 231707" d="M77.452,100.965c.023,2.29.043,4.581-.009,6.87a1.774,1.774,0,0,1-1.76,1.794c-.153.015-.308.014-.462.014q-19.113,0-38.225,0c-1.544,0-2.226-.687-2.232-2.225-.008-1.88.023-3.761-.013-5.64a3.32,3.32,0,0,1,.587-2.158.621.621,0,0,1,.009-.235h0a1.884,1.884,0,0,0-.81,1.628c-.007,2.272,0,4.545,0,6.817a2,2,0,0,0,.041.406,2.038,2.038,0,0,0,2.225,1.631q15.33,0,30.661,0c2.688,0,5.375,0,8.063,0a2.014,2.014,0,0,0,2.166-2.138c.007-2.221,0-4.442,0-6.663a1.976,1.976,0,0,0-.809-1.686h0a1.207,1.207,0,0,1-.018.241,2.418,2.418,0,0,1,.586,1.345" transform="translate(-29.797 -85.752)" fill="#365e7c"/>
        <path id="Trazado_231708" data-name="Trazado 231708" d="M90.742,117.89a5.345,5.345,0,0,0,2.506-1.022c0-.066-.008-.134-.011-.2h0a8.7,8.7,0,0,1-2.455,1.049,1.035,1.035,0,0,1-.109.169.588.588,0,0,1,.068.009" transform="translate(-78.241 -100.667)" fill="#365e7c"/>
        <path id="Trazado_231709" data-name="Trazado 231709" d="M118.516,97.38a.733.733,0,0,1,.769-.47c.666.005,1.333.011,2-.006.22-.005.462.024.607-.2l-.006-.014c-.955,0-1.911,0-2.866-.008-.23,0-.432,0-.542.268a8.2,8.2,0,0,1-.928,1.463h.232a4.609,4.609,0,0,0,.735-1.035" transform="translate(-101.431 -83.427)" fill="#365e7c"/>
        <path id="Trazado_231710" data-name="Trazado 231710" d="M332.9,102.235a2.8,2.8,0,0,0,.542-.515,3.316,3.316,0,0,0,.8-1.274l-.076-.11a11.985,11.985,0,0,1-1.361,1.735c.034.055.063.109.09.163" transform="translate(-287.172 -86.578)" fill="#365e7c"/>
        <path id="Trazado_231711" data-name="Trazado 231711" d="M342.8,99.619a1.216,1.216,0,0,0,.018-.241l-.094.131.076.11" transform="translate(-295.736 -85.752)" fill="#365e7c"/>
        <path id="Trazado_231712" data-name="Trazado 231712" d="M41.771,102.228c.027-.053.056-.106.089-.159a10.325,10.325,0,0,1-1.366-1.75c-.031.037-.061.074-.089.112a1.212,1.212,0,0,0,.181.437,5.622,5.622,0,0,0,1.185,1.36" transform="translate(-34.865 -86.564)" fill="#365e7c"/>
        <path id="Trazado_231713" data-name="Trazado 231713" d="M40.36,99.656c.028-.038.058-.075.089-.112l-.08-.123a.623.623,0,0,0-.009.235" transform="translate(-34.82 -85.789)" fill="#365e7c"/>
        <path id="Trazado_231714" data-name="Trazado 231714" d="M256.923,96.79a4.738,4.738,0,0,0,1.018,1.677h.242a6.666,6.666,0,0,1-1.041-1.729h-.235c.005.018.011.035.016.053" transform="translate(-221.681 -83.473)" fill="#365e7c"/>
        <path id="Trazado_231715" data-name="Trazado 231715" d="M276.938,118.015l.063.01a1.443,1.443,0,0,1-.146-.187,8.935,8.935,0,0,1-2.466-1.049c0,.073,0,.143-.008.211a5.255,5.255,0,0,0,2.558,1.015" transform="translate(-236.758 -100.775)" fill="#365e7c"/>
        <path id="Trazado_231716" data-name="Trazado 231716" d="M176.012,2.831c-.749,2.554-1.634,5.078-2.134,7.691a9,9,0,0,0,1.246,7.063,2.528,2.528,0,0,0,1.675,1.171h0a5.982,5.982,0,0,0,2.2-.58c.014-.046.028-.093.038-.142.1-.244.325-.345.521-.473a5.616,5.616,0,0,0,1.994-2.219.885.885,0,0,1,.662-.544c-.058-.046-.078-.129-.023-.284a7.532,7.532,0,0,0,.349-2.732.57.57,0,0,1-.313-.419,21.816,21.816,0,0,0-2.2-4.76q-.807-1.62-1.677-3.215A2.564,2.564,0,0,0,176.734,2c-.049-.017-.1-.031-.149-.043a1.819,1.819,0,0,0-.573.874" transform="translate(-149.846 -1.689)" fill="#b37c67"/>
        <path id="Trazado_231717" data-name="Trazado 231717" d="M195.161.948a2.564,2.564,0,0,1,1.611,1.387q.87,1.592,1.677,3.215a21.818,21.818,0,0,1,2.2,4.76.571.571,0,0,0,.313.419c0-.046,0-.091,0-.137A12.942,12.942,0,0,0,199.534,7.1c-.868-1.628-1.715-3.267-2.568-4.9A2.5,2.5,0,0,0,195.228.737a2.29,2.29,0,0,0-.216.167c.05.012.1.027.149.043" transform="translate(-168.273 -0.636)" fill="#b37c67"/>
        <path id="Trazado_231718" data-name="Trazado 231718" d="M257.408,96.018l-.092-.115h-.1a.572.572,0,0,1,.193.114" transform="translate(-221.947 -82.753)" fill="#b37c67"/>
        <path id="Trazado_231719" data-name="Trazado 231719" d="M216.106,95.663a.5.5,0,0,1-.292-.055.886.886,0,0,0-.662.544,5.614,5.614,0,0,1-1.993,2.219c-.2.128-.426.23-.522.473-.01.049-.024.1-.038.142l.146-.058a6.664,6.664,0,0,0,2.76-2.913c.121-.262.32-.26.546-.258.875,0,1.749,0,2.624.007-.011-.038-.024-.076-.038-.113q-1.265.007-2.53.014" transform="translate(-183.448 -82.499)" fill="#b37c67"/>
        <path id="Trazado_231720" data-name="Trazado 231720" d="M256.631,95.907c.014.037.027.075.038.113h.235a.572.572,0,0,0-.193-.114h-.08" transform="translate(-221.443 -82.757)" fill="#b37c67"/>
        <path id="Trazado_231721" data-name="Trazado 231721" d="M146.3,15.018a6.7,6.7,0,0,0,2.18,2.328.69.69,0,0,1,.341.428c.008.016.016.031.024.048a6.952,6.952,0,0,0,3.034.674h.054a4.208,4.208,0,0,1-2.285-2.712,10.41,10.41,0,0,1-.34-6.151c.578-2.407,1.306-4.776,2.033-7.144a1.475,1.475,0,0,1,.585-.916,2.331,2.331,0,0,0-2.057.934,3.252,3.252,0,0,0-.361.558c-1,2-2.07,3.957-3.088,5.944a8.834,8.834,0,0,0-.731,1.9.722.722,0,0,1-.328.518,7.986,7.986,0,0,0,.384,2.943l.03.009a.226.226,0,0,1,.134.206c-.005.01-.012.017-.018.026.226.041.311.231.41.4" transform="translate(-125.423 -1.346)" fill="#a96951"/>
        <path id="Trazado_231722" data-name="Trazado 231722" d="M145.733,9.568a8.834,8.834,0,0,1,.731-1.9c1.019-1.987,2.092-3.946,3.088-5.944a3.252,3.252,0,0,1,.361-.558A2.331,2.331,0,0,1,151.97.227,1,1,0,0,1,152.423.1a2.483,2.483,0,0,0-2.938,1.281c-.431.776-.856,1.557-1.233,2.36-.968,2.061-2.377,3.921-2.843,6.211,0,.044,0,.088,0,.133a.722.722,0,0,0,.328-.518" transform="translate(-125.468 -0.001)" fill="#a96951"/>
        <path id="Trazado_231723" data-name="Trazado 231723" d="M148.366,95.23a.226.226,0,0,0-.133-.206l-.03-.009c.014.04.026.081.041.122l.091.116.014,0c.006-.009.012-.016.018-.026" transform="translate(-127.882 -81.987)" fill="#a96951"/>
        <path id="Trazado_231724" data-name="Trazado 231724" d="M152.152,99.931a.69.69,0,0,0-.341-.428,6.7,6.7,0,0,1-2.18-2.328c-.1-.173-.184-.362-.41-.4l-.007.011A6.6,6.6,0,0,0,152,99.9l.176.077c-.008-.016-.017-.031-.024-.048" transform="translate(-128.754 -83.502)" fill="#a96951"/>
        <path id="Trazado_231725" data-name="Trazado 231725" d="M149.182,96.749l-.014,0,.006.015.007-.011" transform="translate(-128.715 -83.481)" fill="#a96951"/>
        <path id="Trazado_231726" data-name="Trazado 231726" d="M174.281,2.569c-.726,2.367-1.454,4.737-2.033,7.144a10.409,10.409,0,0,0,.34,6.151,4.208,4.208,0,0,0,2.285,2.712.753.753,0,0,0,.443-.083,2.528,2.528,0,0,1-1.675-1.171A9,9,0,0,1,172.4,10.26c.5-2.614,1.385-5.137,2.134-7.691a1.82,1.82,0,0,1,.573-.874,1.9,1.9,0,0,0-.237-.042,1.476,1.476,0,0,0-.585.916" transform="translate(-148.363 -1.426)" fill="#a96951"/>
        <path id="Trazado_231727" data-name="Trazado 231727" d="M193.521.905a2.3,2.3,0,0,1,.216-.167,1,1,0,0,0-.453.125,1.853,1.853,0,0,1,.237.042" transform="translate(-166.782 -0.637)" fill="#a96951"/>
        <path id="Trazado_231728" data-name="Trazado 231728" d="M238.626,75.21a4.618,4.618,0,0,1-.143.85c-.116.508-.044.589.5.6.475.01.951,0,1.427,0a1.265,1.265,0,0,1,.454.069,5.306,5.306,0,0,1-.38-2.642.455.455,0,0,1,.071-.217,5.893,5.893,0,0,1-1.992.006,2.434,2.434,0,0,1,.067,1.328" transform="translate(-205.743 -63.746)" fill="#fecf64"/>
        <path id="Trazado_231729" data-name="Trazado 231729" d="M240.526,72.755a1.347,1.347,0,0,1,.14-.178l-2.259,0a1,1,0,0,1,.128.18,5.892,5.892,0,0,0,1.992-.006" transform="translate(-205.717 -62.626)" fill="#fecf64"/>
        <path id="Trazado_231730" data-name="Trazado 231730" d="M253.3,73.6a.456.456,0,0,0-.071.217,5.306,5.306,0,0,0,.38,2.642.731.731,0,0,1,.252.162,7.866,7.866,0,0,1-.424-3.065.6.6,0,0,1-.068.032l-.068.012" transform="translate(-218.486 -63.468)" fill="#fecf64"/>
        <path id="Trazado_231731" data-name="Trazado 231731" d="M253.932,72.743a.581.581,0,0,0,.068-.032c0-.045,0-.089,0-.134a1.369,1.369,0,0,0-.14.178l.068-.012" transform="translate(-219.055 -62.626)" fill="#fecf64"/>
        <path id="Trazado_231732" data-name="Trazado 231732" d="M235.676,76.344c-.055.155-.036.238.023.284a1.252,1.252,0,0,1,.266-.017c.733.029,1.469.009,2.2.007a1.605,1.605,0,0,1,.343.025c-.006-.014-.01-.028-.016-.042-.016-.031-.03-.062-.045-.093a1.262,1.262,0,0,0-.454-.069c-.476,0-.951.006-1.427,0-.541-.012-.612-.093-.5-.6a4.616,4.616,0,0,0,.143-.85,2.435,2.435,0,0,0-.067-1.328l-.011,0a.612.612,0,0,1-.114-.041,7.533,7.533,0,0,1-.349,2.732" transform="translate(-203.333 -63.519)" fill="#fecf64"/>
        <path id="Trazado_231733" data-name="Trazado 231733" d="M238.522,72.789l.011,0a1.008,1.008,0,0,0-.128-.18c0,.046,0,.092,0,.137a.611.611,0,0,0,.114.041" transform="translate(-205.717 -62.655)" fill="#fecf64"/>
        <path id="Trazado_231734" data-name="Trazado 231734" d="M256.16,94.818c.006.014.011.028.016.042a.71.71,0,0,1,.09.026h.1a.726.726,0,0,0-.251-.161c.015.031.029.062.045.093" transform="translate(-220.998 -81.737)" fill="#fecf64"/>
        <path id="Trazado_231735" data-name="Trazado 231735" d="M236.313,95.475a1.252,1.252,0,0,0-.266.017.5.5,0,0,0,.292.055q1.265-.005,2.53-.014l-.01-.027a1.606,1.606,0,0,0-.343-.025c-.735,0-1.47.022-2.2-.007" transform="translate(-203.681 -82.383)" fill="#fecf64"/>
        <path id="Trazado_231736" data-name="Trazado 231736" d="M256.647,95.741a.7.7,0,0,0-.09-.026l.01.027h.08" transform="translate(-221.379 -82.591)" fill="#fecf64"/>
        <path id="Trazado_231737" data-name="Trazado 231737" d="M131.111,73.838a5.84,5.84,0,0,1-2.03.01,2.472,2.472,0,0,1,.064,1.381,5.178,5.178,0,0,1-.146.85c-.1.452-.027.535.452.549.459.014.917.006,1.376,0a2.55,2.55,0,0,1,.6.06,1.981,1.981,0,0,1-.375-1.218,2.683,2.683,0,0,1,.061-1.635" transform="translate(-111.278 -63.714)" fill="#fecf64"/>
        <path id="Trazado_231738" data-name="Trazado 231738" d="M131.1,72.755a1.324,1.324,0,0,1,.108-.172l-2.26,0a1.069,1.069,0,0,1,.123.178,5.84,5.84,0,0,0,2.03-.01" transform="translate(-111.27 -62.631)" fill="#fecf64"/>
        <path id="Trazado_231739" data-name="Trazado 231739" d="M129.072,76.5a2.55,2.55,0,0,0-.6-.06c-.459,0-.917.01-1.376,0-.479-.015-.553-.1-.452-.549a5.18,5.18,0,0,0,.146-.85,2.472,2.472,0,0,0-.064-1.381l-.012,0a.6.6,0,0,1-.108-.039,7.38,7.38,0,0,1-.334,2.683c-.114.319.015.393.3.39.9-.009,1.807-.012,2.711-.017a1.039,1.039,0,0,1-.214-.172" transform="translate(-108.924 -63.519)" fill="#fecf64"/>
        <path id="Trazado_231740" data-name="Trazado 231740" d="M129.074,72.788a1.062,1.062,0,0,0-.123-.178c0,.046,0,.091,0,.137a.6.6,0,0,0,.108.039l.012,0" transform="translate(-111.27 -62.654)" fill="#fecf64"/>
        <path id="Trazado_231741" data-name="Trazado 231741" d="M143.743,73.55a.589.589,0,0,1-.073.034l-.031.005a2.683,2.683,0,0,0-.061,1.635,1.98,1.98,0,0,0,.375,1.218c.058.014.116.031.173.05a7.983,7.983,0,0,1-.384-2.943" transform="translate(-123.806 -63.465)" fill="#fecf64"/>
        <path id="Trazado_231742" data-name="Trazado 231742" d="M144.679,72.75a.582.582,0,0,0,.073-.034c0-.044,0-.088,0-.133a1.325,1.325,0,0,0-.108.172l.031-.005" transform="translate(-124.815 -62.631)" fill="#fecf64"/>
        <path id="Trazado_231743" data-name="Trazado 231743" d="M146.941,94.647a1.04,1.04,0,0,0,.214.172c-.015-.04-.027-.081-.041-.122-.057-.019-.115-.037-.173-.05" transform="translate(-126.793 -81.669)" fill="#fecf64"/>
        <path id="Trazado_231744" data-name="Trazado 231744" d="M111.494,112.591a14.833,14.833,0,0,0,3.725-.012.97.97,0,0,0,.921-.987,1,1,0,0,0-.855-1.051,2.508,2.508,0,0,0-.661-.062c-.854-.006-1.708.008-2.563-.009a.844.844,0,0,1-.51-.086,4.282,4.282,0,0,1-1.089.976,1.218,1.218,0,0,1,.119.4,1,1,0,0,0,.914.83" transform="translate(-95.315 -95.25)" fill="#2b4d66"/>
        <path id="Trazado_231745" data-name="Trazado 231745" d="M109.521,110.431a4.282,4.282,0,0,0,1.089-.976.4.4,0,0,1-.118-.148l-1.121,1.008a.322.322,0,0,1,.149.115" transform="translate(-94.375 -94.32)" fill="#2b4d66"/>
        <path id="Trazado_231746" data-name="Trazado 231746" d="M110.677,109.454a.844.844,0,0,0,.51.086c.854.017,1.708,0,2.562.009a2.51,2.51,0,0,1,.661.062,1,1,0,0,1,.855,1.051.969.969,0,0,1-.921.987,14.825,14.825,0,0,1-3.725.012,1,1,0,0,1-.914-.83,1.225,1.225,0,0,0-.119-.4l-.093.059-.046.031c.07,1.035.387,1.367,1.528,1.433a16.03,16.03,0,0,0,3.526-.071,1.121,1.121,0,0,0,.845-.592,1.3,1.3,0,0,0-1.251-1.968c-1.1-.023-2.2-.014-3.305-.015l-.031.039c-.027.037-.055.073-.083.109" transform="translate(-94.442 -94.318)" fill="#2b4d66"/>
        <path id="Trazado_231747" data-name="Trazado 231747" d="M117.667,109.457c.028-.036.056-.072.083-.109l.031-.039h-.232a.4.4,0,0,0,.118.148" transform="translate(-101.431 -94.321)" fill="#2b4d66"/>
        <path id="Trazado_231748" data-name="Trazado 231748" d="M109.383,116.868l.046-.031.093-.059a.322.322,0,0,0-.149-.115c0,.071.006.139.011.2" transform="translate(-94.375 -100.667)" fill="#2b4d66"/>
        <path id="Trazado_231749" data-name="Trazado 231749" d="M86.237,125.879a.267.267,0,0,1-.037.029l.075-.018-.037-.011" transform="translate(-74.381 -108.619)" fill="#2b4d66"/>
        <path id="Trazado_231750" data-name="Trazado 231750" d="M51.451,116.541a11.706,11.706,0,0,0,3.809.087,6.15,6.15,0,0,1-4.441-1.584c-.008.111-.036.222-.055.334a.99.99,0,0,0,.688,1.163" transform="translate(-43.79 -99.27)" fill="#2b4d66"/>
        <path id="Trazado_231751" data-name="Trazado 231751" d="M86.473,124.529l.037.011c.157-.037.313-.078.47-.127a.541.541,0,0,0,.178-.1l-.595.023h0a.313.313,0,0,1-.09.192" transform="translate(-74.616 -107.269)" fill="#2b4d66"/>
        <path id="Trazado_231752" data-name="Trazado 231752" d="M51.05,113.35a6.149,6.149,0,0,0,4.441,1.584c.117-.02.233-.044.349-.07a.28.28,0,0,0,.037-.029,3.5,3.5,0,0,1-.344-.11H55.47a6.608,6.608,0,0,1-4.454-1.645.609.609,0,0,1,.034.269" transform="translate(-44.021 -97.576)" fill="#2b4d66"/>
        <path id="Trazado_231753" data-name="Trazado 231753" d="M84.4,124.482h0a.73.73,0,0,1-.434.082,3.461,3.461,0,0,0,.344.11.313.313,0,0,0,.09-.192" transform="translate(-72.454 -107.414)" fill="#2b4d66"/>
        <path id="Trazado_231754" data-name="Trazado 231754" d="M54.17,115.853l-.023-.006-.075.018a.548.548,0,0,1-.285.069h-.064a11.705,11.705,0,0,1-3.809-.087.99.99,0,0,1-.688-1.163c.019-.112.047-.223.055-.334-.034-.031-.069-.06-.1-.092l-.021-.018a1.234,1.234,0,0,0,1,1.913,17.374,17.374,0,0,0,3.512.048,1.287,1.287,0,0,0,1.015-.412,3.624,3.624,0,0,0-.516.063" transform="translate(-42.253 -98.576)" fill="#2b4d66"/>
        <path id="Trazado_231755" data-name="Trazado 231755" d="M86.744,124.538l.023.006a3.64,3.64,0,0,1,.516-.063,1.043,1.043,0,0,0,.109-.169.543.543,0,0,1-.178.1c-.156.049-.313.09-.47.127" transform="translate(-74.85 -107.268)" fill="#2b4d66"/>
        <path id="Trazado_231756" data-name="Trazado 231756" d="M84,126.087q-.174.039-.349.07h.064a.548.548,0,0,0,.285-.069" transform="translate(-72.184 -108.799)" fill="#2b4d66"/>
        <path id="Trazado_231757" data-name="Trazado 231757" d="M50.366,113.24l.021.018c.034.032.068.061.1.092a.607.607,0,0,0-.034-.269c-.033.053-.062.106-.089.159" transform="translate(-43.46 -97.576)" fill="#2b4d66"/>
        <path id="Trazado_231758" data-name="Trazado 231758" d="M301.146,116.547c.833-.127,1.125-.582.992-1.4a1.74,1.74,0,0,1-.021-.185,5.626,5.626,0,0,1-3.707,1.513l-.035-.011a.672.672,0,0,1-.414.107,3.176,3.176,0,0,1-.684-.037,2.768,2.768,0,0,0,.446.057,17,17,0,0,0,3.424-.041" transform="translate(-256.515 -99.197)" fill="#2b4d66"/>
        <path id="Trazado_231759" data-name="Trazado 231759" d="M305.285,114.764l.035.011a5.627,5.627,0,0,0,3.707-1.513.689.689,0,0,1,.031-.27,6.321,6.321,0,0,1-3.671,1.573h0a.337.337,0,0,1-.1.2" transform="translate(-263.426 -97.5)" fill="#2b4d66"/>
        <path id="Trazado_231760" data-name="Trazado 231760" d="M293.776,124.751a.672.672,0,0,0,.414-.107c-.113-.032-.22-.07-.324-.11a11.839,11.839,0,0,1-1.439-.091,1.966,1.966,0,0,0,.665.271,3.176,3.176,0,0,0,.684.037" transform="translate(-252.331 -107.379)" fill="#2b4d66"/>
        <path id="Trazado_231761" data-name="Trazado 231761" d="M303.346,124.468h0a1.829,1.829,0,0,1-.426.087c.1.041.211.078.324.11a.338.338,0,0,0,.1-.2" transform="translate(-261.385 -107.402)" fill="#2b4d66"/>
        <path id="Trazado_231762" data-name="Trazado 231762" d="M298.853,114.29a1.742,1.742,0,0,0,.021.185c.133.82-.159,1.275-.992,1.4a17.013,17.013,0,0,1-3.424.041,2.768,2.768,0,0,1-.446-.057c-.173-.025-.346-.057-.519-.085a.962.962,0,0,0,.595.311,14.51,14.51,0,0,0,3.885.012,1.226,1.226,0,0,0,1-1.917l-.008.007c-.037.034-.076.067-.113.1" transform="translate(-253.251 -98.527)" fill="#2b4d66"/>
        <path id="Trazado_231763" data-name="Trazado 231763" d="M332.568,113.262c.038-.033.076-.066.113-.1l.008-.007c-.027-.054-.057-.109-.09-.163a.691.691,0,0,0-.031.27" transform="translate(-286.966 -97.499)" fill="#2b4d66"/>
        <path id="Trazado_231764" data-name="Trazado 231764" d="M292.573,124.629c.173.028.345.06.519.085a1.965,1.965,0,0,1-.665-.271,1.44,1.44,0,0,0,.146.187" transform="translate(-252.331 -107.379)" fill="#2b4d66"/>
        <path id="Trazado_231765" data-name="Trazado 231765" d="M236.028,110.5c-.871.017-1.743,0-2.615.008a2.078,2.078,0,0,0-.8.133,1.022,1.022,0,0,0,.144,1.944,13.125,13.125,0,0,0,3.977,0,.963.963,0,0,0,.791-.779,1.324,1.324,0,0,1,.118-.4,5.845,5.845,0,0,1-1.1-.994.874.874,0,0,1-.51.082" transform="translate(-200.158 -95.278)" fill="#2b4d66"/>
        <path id="Trazado_231766" data-name="Trazado 231766" d="M265.322,109.5a5.85,5.85,0,0,0,1.1.994.326.326,0,0,1,.148-.121l-1.128-1.02a.4.4,0,0,1-.122.146" transform="translate(-228.942 -94.357)" fill="#2b4d66"/>
        <path id="Trazado_231767" data-name="Trazado 231767" d="M236.038,110.494a1.322,1.322,0,0,0-.118.4.963.963,0,0,1-.791.779,13.13,13.13,0,0,1-3.977,0,1.022,1.022,0,0,1-.144-1.944,2.081,2.081,0,0,1,.8-.133c.871,0,1.743.009,2.614-.008a.876.876,0,0,0,.51-.082l-.032-.034-.087-.112c-1.031,0-2.062,0-3.093,0a2.129,2.129,0,0,0-.8.128,1.21,1.21,0,0,0-.8,1.386,1.194,1.194,0,0,0,1.077,1.059,16.275,16.275,0,0,0,3.428.069c1.123-.053,1.491-.423,1.551-1.414l-.046-.033c-.033-.018-.063-.038-.094-.058" transform="translate(-198.556 -94.36)" fill="#2b4d66"/>
        <path id="Trazado_231768" data-name="Trazado 231768" d="M273.358,116.909c.031.019.062.04.094.058l.046.033c0-.067.007-.138.008-.211a.328.328,0,0,0-.148.121" transform="translate(-235.876 -100.775)" fill="#2b4d66"/>
        <path id="Trazado_231769" data-name="Trazado 231769" d="M264.536,109.464l.032.034a.4.4,0,0,0,.122-.146h-.242l.088.112" transform="translate(-228.188 -94.357)" fill="#2b4d66"/>
        <path id="Trazado_231770" data-name="Trazado 231770" d="M53.607,140.774q-1.744-.017-3.488,0a1.28,1.28,0,1,0,.005,2.558c.564.012,1.128,0,1.693,0,.6,0,1.2.009,1.8,0a1.28,1.28,0,1,0-.005-2.559" transform="translate(-42.102 -121.464)" fill="#2b4d66"/>
        <path id="Trazado_231771" data-name="Trazado 231771" d="M174.319,140.787c-.564-.012-1.128,0-1.692,0-.6,0-1.2-.009-1.794,0a1.28,1.28,0,1,0-.005,2.558q1.743.018,3.486,0a1.28,1.28,0,1,0,.005-2.559" transform="translate(-146.257 -121.478)" fill="#2b4d66"/>
        <path id="Trazado_231772" data-name="Trazado 231772" d="M295.006,140.778q-1.717-.015-3.435,0a1.282,1.282,0,1,0-.012,2.56c.581.01,1.162,0,1.743,0,.564,0,1.128.007,1.692,0a1.282,1.282,0,1,0,.012-2.56" transform="translate(-250.415 -121.469)" fill="#2b4d66"/>
        <path id="Trazado_231773" data-name="Trazado 231773" d="M114.231,140.793c-.564-.007-1.128,0-1.693,0-.6,0-1.2-.006-1.8,0a1.277,1.277,0,0,0-.08,2.551q1.82.045,3.641,0a1.234,1.234,0,0,0,1.215-1.363,1.261,1.261,0,0,0-1.287-1.189" transform="translate(-94.446 -121.485)" fill="#2b4d66"/>
        <path id="Trazado_231774" data-name="Trazado 231774" d="M234.98,140.789c-.581-.011-1.163,0-1.744,0-.616,0-1.231-.008-1.846,0a1.271,1.271,0,0,0-1.236,1.135,1.226,1.226,0,0,0,1.11,1.4c1.28.047,2.565.046,3.845,0a1.216,1.216,0,0,0,1.107-1.354,1.238,1.238,0,0,0-1.236-1.182" transform="translate(-198.593 -121.479)" fill="#2b4d66"/>
        <path id="Trazado_231775" data-name="Trazado 231775" d="M175.278,122.323l-.068-.021a.456.456,0,0,1-.258.092,5.593,5.593,0,0,1-2.954-.572.707.707,0,0,1-.067-.04,1.313,1.313,0,0,0,1.044.627,15.283,15.283,0,0,0,3.61-.044,1.073,1.073,0,0,0,.847-.638,3.3,3.3,0,0,1-1.6.567,2.1,2.1,0,0,1-.554.03" transform="translate(-148.357 -105.035)" fill="#2c4d66"/>
        <path id="Trazado_231776" data-name="Trazado 231776" d="M175.366,119.9a1.074,1.074,0,0,1-.847.638,15.284,15.284,0,0,1-3.61.044,1.312,1.312,0,0,1-1.044-.627,1.029,1.029,0,0,1-.328-.345,1.223,1.223,0,0,0,.917,1.121,13.15,13.15,0,0,0,4.288.012,1.081,1.081,0,0,0,.845-1.1,1.4,1.4,0,0,1-.221.261" transform="translate(-146.291 -103.209)" fill="#2c4d66"/>
        <path id="Trazado_231777" data-name="Trazado 231777" d="M195.947,120.823h0a.3.3,0,0,1-.1.2l.068.021a2.1,2.1,0,0,0,.554-.03,3.3,3.3,0,0,0,1.6-.567,1.533,1.533,0,0,0,.075-.2,5.985,5.985,0,0,1-2.2.58h0" transform="translate(-168.993 -103.756)" fill="#2c4d66"/>
        <path id="Trazado_231778" data-name="Trazado 231778" d="M212.125,119.88a1.531,1.531,0,0,1-.075.2,1.393,1.393,0,0,0,.221-.261l-.146.058" transform="translate(-182.975 -103.393)" fill="#2c4d66"/>
        <path id="Trazado_231779" data-name="Trazado 231779" d="M174,121.049a.454.454,0,0,0,.258-.092,3.572,3.572,0,0,1-.343-.117h-.054a6.952,6.952,0,0,1-3.034-.674,2.235,2.235,0,0,0,.152.269.724.724,0,0,0,.067.04,5.592,5.592,0,0,0,2.954.572" transform="translate(-147.4 -103.69)" fill="#2c4d66"/>
        <path id="Trazado_231780" data-name="Trazado 231780" d="M169.865,119.954a2.217,2.217,0,0,1-.152-.269l-.176-.077a1.029,1.029,0,0,0,.328.345" transform="translate(-146.291 -103.209)" fill="#2c4d66"/>
        <path id="Trazado_231781" data-name="Trazado 231781" d="M193.786,124.471h0a.754.754,0,0,1-.443.083,3.576,3.576,0,0,0,.343.117.3.3,0,0,0,.1-.2" transform="translate(-166.833 -107.404)" fill="#2c4d66"/>
        <path id="Trazado_231782" data-name="Trazado 231782" d="M175.252,350.193l-.064,0c-.261,1.166-.673,2.292-.958,3.452a10.459,10.459,0,0,0,.4,6.711,4.225,4.225,0,0,0,1.658,2.1,2.493,2.493,0,0,0,.332.175,1.084,1.084,0,0,0,.341-.12,6.2,6.2,0,0,0,5.523-5.153,6.966,6.966,0,0,0-1.132-4.725c-.414-.711-.756-1.458-1.126-2.191a.671.671,0,0,1-.094-.33.748.748,0,0,1-.441.107c-1.48,0-2.961.049-4.441-.026" transform="translate(-150.025 -302.107)" fill="#8fd7f8"/>
        <path id="Trazado_231783" data-name="Trazado 231783" d="M197.487,349.418a.671.671,0,0,0,.094.33c.37.733.712,1.48,1.126,2.191a6.966,6.966,0,0,1,1.132,4.725,6.2,6.2,0,0,1-5.523,5.154,1.085,1.085,0,0,1-.341.12,1.146,1.146,0,0,0,.386.093h0c.2-.023.414-.029.615-.072a6.326,6.326,0,0,0,4.452-9.15c-.59-1.176-1.218-2.334-1.828-3.5a.489.489,0,0,1-.112.11" transform="translate(-167.378 -301.413)" fill="#8fd7f8"/>
        <path id="Trazado_231784" data-name="Trazado 231784" d="M183.515,349.5l.064,0c1.48.075,2.961.03,4.441.026a.748.748,0,0,0,.441-.107.308.308,0,0,1,.027-.11h-4.93c-.013.065-.029.13-.044.194" transform="translate(-158.352 -301.41)" fill="#8fd7f8"/>
        <path id="Trazado_231785" data-name="Trazado 231785" d="M219.615,349.308a.307.307,0,0,0-.027.11.489.489,0,0,0,.112-.11h-.085" transform="translate(-189.479 -301.413)" fill="#8fd7f8"/>
        <path id="Trazado_231786" data-name="Trazado 231786" d="M150.494,358.059a13.825,13.825,0,0,1,.8-6.583c.106-.325.191-.655.286-.983a1.246,1.246,0,0,1,.178-.386c-.641.033-1.283.031-1.925.019a.88.88,0,0,1-.558-.126.764.764,0,0,1-.128.539c-.531,1-1.061,1.993-1.562,3.005a6.283,6.283,0,0,0-.69,2.909,6.2,6.2,0,0,0,5.232,5.935c.277.039.555.127.834.156a1.61,1.61,0,0,1-.585-.371,7.019,7.019,0,0,1-1.885-4.115" transform="translate(-126.756 -302.01)" fill="#75cdf8"/>
        <path id="Trazado_231787" data-name="Trazado 231787" d="M151.44,361.957c-.279-.029-.557-.116-.834-.156a6.2,6.2,0,0,1-5.232-5.935,6.283,6.283,0,0,1,.69-2.909c.5-1.012,1.032-2.008,1.563-3.005a.764.764,0,0,0,.128-.539.488.488,0,0,1-.092-.093c-.613,1.182-1.24,2.356-1.835,3.546a6.3,6.3,0,0,0,2.49,8.362,5.635,5.635,0,0,0,3.9.813,1.726,1.726,0,0,1-.774-.083" transform="translate(-125.232 -301.422)" fill="#75cdf8"/>
        <path id="Trazado_231788" data-name="Trazado 231788" d="M166.49,349.507a.89.89,0,0,1,.2-.2l-2.724,0a.378.378,0,0,1,.041.094.878.878,0,0,0,.557.125c.642.012,1.284.015,1.926-.019" transform="translate(-141.485 -301.41)" fill="#75cdf8"/>
        <path id="Trazado_231789" data-name="Trazado 231789" d="M163.683,349.413a.38.38,0,0,0-.04-.093h-.052a.493.493,0,0,0,.092.093" transform="translate(-141.16 -301.422)" fill="#75cdf8"/>
        <path id="Trazado_231790" data-name="Trazado 231790" d="M173.181,360.885a10.458,10.458,0,0,1-.4-6.711c.285-1.16.7-2.285.958-3.452l-.157.008a1.244,1.244,0,0,0-.178.386c-.1.328-.18.658-.286.983a13.825,13.825,0,0,0-.8,6.583A7.02,7.02,0,0,0,174.2,362.8a1.612,1.612,0,0,0,.585.371,1.4,1.4,0,0,0,.389-.01,2.493,2.493,0,0,1-.332-.175,4.224,4.224,0,0,1-1.658-2.1" transform="translate(-148.574 -302.633)" fill="#75cdf8"/>
        <path id="Trazado_231791" data-name="Trazado 231791" d="M191.53,441.417a1.4,1.4,0,0,1-.388.01,1.722,1.722,0,0,0,.774.083h0a1.149,1.149,0,0,1-.386-.093" transform="translate(-164.933 -380.892)" fill="#75cdf8"/>
        <path id="Trazado_231792" data-name="Trazado 231792" d="M182.371,349.507l.157-.008c.015-.065.03-.129.044-.194a.89.89,0,0,0-.2.2" transform="translate(-157.365 -301.41)" fill="#75cdf8"/>
      </g>
    </g>
  </g>
</svg>
