<svg xmlns="http://www.w3.org/2000/svg" xmlns:xlink="http://www.w3.org/1999/xlink" width="111.862" height="111.862" viewBox="0 0 111.862 111.862">
  <defs>
    <clipPath id="clip-path">
      <rect id="Rect치ngulo_295273" data-name="Rect치ngulo 295273" width="61.634" height="61.59" fill="none"/>
    </clipPath>
  </defs>
  <g id="Grupo_904063" data-name="Grupo 904063" transform="translate(-1007 -628.661)">
    <path id="Trazado_231204" data-name="Trazado 231204" d="M111.862,55.931A55.931,55.931,0,1,1,55.933,0a55.933,55.933,0,0,1,55.929,55.931" transform="translate(1007 628.661)" fill="#fff"/>
    <g id="Grupo_881610" data-name="Grupo 881610" transform="translate(1032.114 651.649)" opacity="0.8">
      <g id="Grupo_881609" data-name="Grupo 881609" clip-path="url(#clip-path)">
        <path id="Trazado_231078" data-name="Trazado 231078" d="M61.634,365.922v-1.683H0v1.683a2.445,2.445,0,0,0,1.324,1.323H60.19a2.861,2.861,0,0,0,1.444-1.323" transform="translate(0 -305.655)" fill="#b4dffe"/>
        <path id="Trazado_231079" data-name="Trazado 231079" d="M61.634,324.135a7.113,7.113,0,0,0-1.785-.121H41.537c-.186,1.579-1.454,2.379-2.717,1.691a1.869,1.869,0,0,1-1.007-1.806,3.925,3.925,0,0,1-1.065.119q-6.634-.008-13.268,0a1.915,1.915,0,0,1-1.288,1.821,1.762,1.762,0,0,1-1.942-.505,1,1,0,0,1-1.041.5Q9.6,325.809,0,325.818v1.563H61.634Z" transform="translate(0 -271.803)" fill="#bee3fe"/>
        <path id="Trazado_231080" data-name="Trazado 231080" d="M137.949,285.112a2.021,2.021,0,0,0-1.926-.985c-2.627.013-5.254.005-7.88,0-1.243,0-2.486,0-3.73,0-.958,0-1.014-.049-1.286-.983-.039-.135-.082-.268-.118-.4a2.7,2.7,0,0,0-.1-.371,3.6,3.6,0,0,0-1.671-.234q-7.771.009-15.541,0a1.805,1.805,0,0,1-1.013,1.579,1.744,1.744,0,0,1-2.614-1.584c-.022-1.321-.017-2.643-.024-3.965-1.459,0-2.92.039-4.378-.01a8.849,8.849,0,0,0-2.4.3c-.047.033-.1.065-.142.1a8.684,8.684,0,0,0-3.442,4.941.793.793,0,0,1-.324.534,2.08,2.08,0,0,0,.962.031c1.439.006,2.879-.018,4.318.018.328.008.646-.242.972-.025,1.381-.322,2.108.121,2.524,1.541a.447.447,0,0,1,.15-.092,3.671,3.671,0,0,1,1.016-.067c4.326-.016,8.652.029,12.976-.026a.4.4,0,0,1,.206.09,3.212,3.212,0,0,1,.8-1.208,1.816,1.816,0,0,1,2.77.822c.059.155.1.318.141.477a.422.422,0,0,1,.167-.094,3.008,3.008,0,0,1,.838-.064q8.9,0,17.8,0a1.629,1.629,0,0,1,1.3.313v-.361c-.2.016-.275-.147-.353-.278" transform="translate(-76.667 -233.42)" fill="#d1ebfe"/>
        <path id="Trazado_231081" data-name="Trazado 231081" d="M91.02,285.064a8.686,8.686,0,0,1,3.442-4.941c.047-.035.094-.067.142-.1l-.306.076a2.456,2.456,0,0,0-.408.242,9.087,9.087,0,0,0-3.024,4.665c-.044.179.031.478-.3.511a.711.711,0,0,0,.128.082.793.793,0,0,0,.324-.534" transform="translate(-76.001 -234.984)" fill="#d1ebfe"/>
        <path id="Trazado_231082" data-name="Trazado 231082" d="M300.5,305.925c-3.621.045-7.244.017-10.866.017-1.482,0-1.482,0-1.907-1.442a1.813,1.813,0,0,0-.219-.13,2.707,2.707,0,0,1,.1.371c.036.134.079.268.118.4.272.934.327.979,1.286.983,1.243,0,2.487,0,3.73,0,2.627,0,5.254.008,7.881,0a2.02,2.02,0,0,1,1.926.985c.078.132.149.295.353.278a2.264,2.264,0,0,0-2.4-1.46" transform="translate(-241.269 -255.415)" fill="#d1ebfe"/>
        <path id="Trazado_231083" data-name="Trazado 231083" d="M277,323.4q-8.9-.007-17.8,0a3.015,3.015,0,0,0-.838.064.423.423,0,0,0-.167.094l.01.035h18.312a7.113,7.113,0,0,1,1.785.121,1.629,1.629,0,0,0-1.3-.313" transform="translate(-216.666 -271.382)" fill="#d1ebfe"/>
        <path id="Trazado_231084" data-name="Trazado 231084" d="M160.068,323.262c-4.324.055-8.651.01-12.976.026a3.67,3.67,0,0,0-1.016.067.446.446,0,0,0-.15.092l.01.031q6.634,0,13.268,0a3.933,3.933,0,0,0,1.065-.119l.007-.013a.4.4,0,0,0-.206-.09" transform="translate(-122.455 -271.269)" fill="#d1ebfe"/>
        <rect id="Rect치ngulo_295272" data-name="Rect치ngulo 295272" width="61.634" height="1.323" transform="translate(0 56.059)" fill="#bbe1fe"/>
        <path id="Trazado_231085" data-name="Trazado 231085" d="M1.219,357.768q29.6,0,59.2,0a1.779,1.779,0,0,1,1.219.193v-1.2a.905.905,0,0,1-.617.192c-.2.008-.4.006-.6.006q-29.6,0-59.2,0A1.78,1.78,0,0,1,0,356.763v1.2a.906.906,0,0,1,.617-.191c.2-.008.4-.006.6-.006" transform="translate(0 -299.382)" fill="#b6dffe"/>
        <path id="Trazado_231086" data-name="Trazado 231086" d="M60.415,362.954q-29.6-.007-59.2,0c-.2,0-.4,0-.6.006a.9.9,0,0,0-.617.192H61.634a1.78,1.78,0,0,0-1.219-.193" transform="translate(0 -304.564)" fill="#b6dffe"/>
        <path id="Trazado_231087" data-name="Trazado 231087" d="M1.219,356.956q29.6.007,59.2,0c.2,0,.4,0,.6-.006a.906.906,0,0,0,.617-.192H0a1.78,1.78,0,0,0,1.219.193" transform="translate(0 -299.382)" fill="#b6dffe"/>
        <path id="Trazado_231088" data-name="Trazado 231088" d="M1.1,318.1q8.835-.007,17.669,0a1.768,1.768,0,0,0,1.256-.281.4.4,0,0,1,.2-.058,1.819,1.819,0,0,1,.548-2.728c-1.88.172-3.764.02-5.645.091-.188.007-.417.009-.52-.191a.675.675,0,0,1-.209.04c-3.9.044-7.8.025-11.7.008A2.449,2.449,0,0,0,.26,316.017a.246.246,0,0,1-.26.111v2.164a1.575,1.575,0,0,1,1.1-.19" transform="translate(0 -264.279)" fill="#c7e6fe"/>
        <path id="Trazado_231089" data-name="Trazado 231089" d="M.26,315.264A2.45,2.45,0,0,1,2.7,314.228c3.9.017,7.8.036,11.7-.008a.675.675,0,0,0,.209-.04.453.453,0,0,1-.042-.121c-4.007,0-8.014.027-12.02-.023A2.412,2.412,0,0,0,0,315.376a.246.246,0,0,0,.26-.111" transform="translate(0 -263.526)" fill="#c7e6fe"/>
        <path id="Trazado_231090" data-name="Trazado 231090" d="M19.209,333.056a1,1,0,0,0,1.041-.5c-.009-.015-.016-.03-.024-.045a.4.4,0,0,0-.2.058,1.768,1.768,0,0,1-1.256.281q-8.835,0-17.669,0a1.574,1.574,0,0,0-1.1.19q9.6,0,19.209.008" transform="translate(0 -279.034)" fill="#c7e6fe"/>
        <path id="Trazado_231091" data-name="Trazado 231091" d="M97.168,314.372c-.326-.217-.644.034-.972.026-1.439-.035-2.878-.012-4.318-.018a2.084,2.084,0,0,1-.962-.031.536.536,0,0,1-.085.039c.1.2.332.2.52.191,1.881-.072,3.766.08,5.645-.092C97.052,314.449,97.108,314.41,97.168,314.372Z" transform="translate(-76.222 -263.735)" fill="#c7e6fe"/>
        <path id="Trazado_231092" data-name="Trazado 231092" d="M90.568,314.181a.447.447,0,0,0,.042.121.508.508,0,0,0,.085-.039.711.711,0,0,1-.128-.081" transform="translate(-76.001 -263.649)" fill="#c7e6fe"/>
        <path id="Trazado_231093" data-name="Trazado 231093" d="M.8,345.836c7.379.013,14.759,0,22.138.011q7.85.01,15.7-.012,10.949-.012,21.9,0a1.566,1.566,0,0,1,1.1.193v-.481a1.567,1.567,0,0,1-1.1.193q-10.107.007-20.214,0-19.581,0-39.163,0A1.672,1.672,0,0,1,0,345.549v.481a1.1,1.1,0,0,1,.8-.194" transform="translate(0 -289.971)" fill="#bde2fe"/>
        <path id="Trazado_231094" data-name="Trazado 231094" d="M1.159,345.741q19.581.006,39.163,0,10.107,0,20.214,0a1.568,1.568,0,0,0,1.1-.193H0a1.673,1.673,0,0,0,1.159.192" transform="translate(0 -289.971)" fill="#bde2fe"/>
        <path id="Trazado_231095" data-name="Trazado 231095" d="M60.535,347.283q-10.949-.007-21.9,0-7.85.009-15.7.012c-7.379-.009-14.759,0-22.138-.011a1.1,1.1,0,0,0-.8.194H61.634a1.566,1.566,0,0,0-1.1-.193" transform="translate(0 -291.418)" fill="#bde2fe"/>
        <path id="Trazado_231096" data-name="Trazado 231096" d="M123.339,148.205a2.037,2.037,0,0,1,.829.093.593.593,0,0,1,.051.045c.006-.963.014-1.926.018-2.889,0-1.214.591-1.991,1.593-2.107a1.865,1.865,0,0,1,2.039,1.676h3.572c.007-2.339.024-4.678.014-7.016a1.757,1.757,0,0,1,.879-1.638,1.716,1.716,0,0,1,1.918.077,1.791,1.791,0,0,1,.821,1.621q.011,3.478.02,6.956c.856,0,1.711.012,2.567,0a1.893,1.893,0,0,1,.853.154c-.008-1.263-.055-2.526.025-3.787a.6.6,0,0,1,.158-.31q0-4.1.009-8.2-.01-4.3-.021-8.605c0-.258-.013-.517-.019-.776H120.648q-.011,3.612-.022,7.223c0,.278-.012.556-.019.835q.007,4.762.013,9.524a.545.545,0,0,1,.129.227c.108,1.816.037,3.633.04,5.449,0,.423-.275.582-.636.671a7.912,7.912,0,0,0-2.371,1.015,4.677,4.677,0,0,1,1.712-.247c1.281.029,2.563.006,3.845.009m.9-17.376a1.807,1.807,0,1,1,3.608-.018q.01,3.516,0,7.032a1.8,1.8,0,1,1-3.606.018c-.009-1.182,0-2.364,0-3.546,0-1.162,0-2.324,0-3.486" transform="translate(-98.839 -103.636)" fill="#e9f5fe"/>
        <path id="Trazado_231097" data-name="Trazado 231097" d="M246.582,233.091c-.079,1.261-.033,2.524-.025,3.787a1.466,1.466,0,0,1,.171.092q.006-2.06.012-4.12v-.069a.6.6,0,0,0-.158.31" transform="translate(-206.884 -195.341)" fill="#e9f5fe"/>
        <path id="Trazado_231098" data-name="Trazado 231098" d="M116.777,239.161c.361-.089.637-.248.636-.671,0-1.816.068-3.633-.04-5.449a.545.545,0,0,0-.129-.227c0,.025,0,.05,0,.075,0,1.719-.027,3.438.022,5.155.018.629-.15.88-.786,1.027a5.619,5.619,0,0,0-2.722,1.412,3.567,3.567,0,0,1,.647-.307,7.912,7.912,0,0,1,2.371-1.015" transform="translate(-95.461 -195.368)" fill="#e9f5fe"/>
        <path id="Trazado_231099" data-name="Trazado 231099" d="M122.386,277.146a2.04,2.04,0,0,0-.829-.093c-1.282,0-2.564.02-3.845-.009a4.678,4.678,0,0,0-1.712.247q-.173.11-.341.231a8.85,8.85,0,0,1,2.4-.3c1.458.05,2.919.011,4.378.01,0-.015,0-.03,0-.045a.546.546,0,0,0-.051-.045" transform="translate(-97.057 -232.483)" fill="#e9f5fe"/>
        <path id="Trazado_231100" data-name="Trazado 231100" d="M114.063,278.82q.168-.12.341-.231a3.574,3.574,0,0,0-.647.307h0l.306-.076" transform="translate(-95.46 -233.781)" fill="#e9f5fe"/>
        <path id="Trazado_231101" data-name="Trazado 231101" d="M99.156,8.362q5.681.006,11.361,0,8.446,0,16.892,0c.331,0,.688.057.926-.23l-.055-.06a20.922,20.922,0,0,0-6.546-5.006,18.92,18.92,0,0,0-6.574-1.784,19.55,19.55,0,0,0-8.335,1.033,19.271,19.271,0,0,0-6.616,3.933A21.91,21.91,0,0,0,98.443,8.04c-.026.029-.051.059-.076.087.166.306.5.234.789.234" transform="translate(-82.546 -1.004)" fill="#07b7fe"/>
        <path id="Trazado_231102" data-name="Trazado 231102" d="M98.164,7.036a21.882,21.882,0,0,1,1.766-1.791,19.271,19.271,0,0,1,6.616-3.933A19.548,19.548,0,0,1,114.882.279a18.916,18.916,0,0,1,6.574,1.784A20.921,20.921,0,0,1,128,7.069l.054.06a.733.733,0,0,0,.074-.105,17.831,17.831,0,0,0-2.269-2.25,18.455,18.455,0,0,0-4.5-2.923,19.41,19.41,0,0,0-16.01-.243A18.448,18.448,0,0,0,98.035,7a.663.663,0,0,0,.053.128c.026-.029.05-.059.076-.087" transform="translate(-82.267 0)" fill="#07b7fe"/>
        <path id="Trazado_231103" data-name="Trazado 231103" d="M256.319,109.128q-5,.006-10,0a11.462,11.462,0,0,1,.211,2.106c.01.006.021.011.031.018a.976.976,0,0,1,.177.679c0,2.91.026,5.819-.011,8.729,0,0,0,.008,0,.012q3.667,0,7.334,0a2.861,2.861,0,0,1,.748.084c.024-.045.049-.089.073-.134a20.158,20.158,0,0,0,2.33-9.955c-.014-.574-.09-1.143-.15-1.712-.152.218-.464.175-.738.175" transform="translate(-206.698 -91.429)" fill="#2493fe"/>
        <path id="Trazado_231104" data-name="Trazado 231104" d="M301.35,107.238c.061.57.136,1.139.15,1.712a20.158,20.158,0,0,1-2.33,9.955c-.023.045-.049.089-.073.134.045.012.089.022.134.038.072-.119.152-.234.216-.357a19.67,19.67,0,0,0,2.194-8.006,13.863,13.863,0,0,0-.2-3.8.606.606,0,0,1-.092.329" transform="translate(-250.991 -89.714)" fill="#2493fe"/>
        <path id="Trazado_231105" data-name="Trazado 231105" d="M247.806,132.572c.038-2.909.011-5.819.011-8.729a.975.975,0,0,0-.177-.679c-.01-.007-.021-.012-.031-.018,0,.019,0,.038,0,.057.007.259.019.517.02.776q.012,4.3.021,8.605h.16s0-.008,0-.012" transform="translate(-207.781 -103.34)" fill="#2493fe"/>
        <path id="Trazado_231106" data-name="Trazado 231106" d="M98.225,48.37a5.755,5.755,0,0,1,1.726.139h2.087a7.807,7.807,0,0,1,2.439-.129c4.313-.023,8.625-.014,12.938-.006a1.936,1.936,0,0,0,.929-.186,17.068,17.068,0,0,0-2.29-3.322c-.044.175-.262.2-.42.255a2.709,2.709,0,0,1-.895.076q-13.8,0-27.595,0a2.548,2.548,0,0,1-.835-.069c-.163-.056-.353-.109-.39-.272a20.61,20.61,0,0,0-2.291,3.322,1.926,1.926,0,0,0,.943.2q6.827-.012,13.653-.005" transform="translate(-70.178 -37.643)" fill="#0fadfe"/>
        <path id="Trazado_231107" data-name="Trazado 231107" d="M85.458,43.713a.387.387,0,0,1,.026-.22,13.479,13.479,0,0,0-2.406,3.491c.029.018.059.034.089.05a20.62,20.62,0,0,1,2.291-3.322" transform="translate(-69.716 -36.498)" fill="#0fadfe"/>
        <path id="Trazado_231108" data-name="Trazado 231108" d="M285.163,43.87a17.073,17.073,0,0,1,2.29,3.322c.035-.018.069-.037.1-.059a13.509,13.509,0,0,0-2.407-3.464.384.384,0,0,1,.013.2" transform="translate(-239.287 -36.645)" fill="#0fadfe"/>
        <path id="Trazado_231109" data-name="Trazado 231109" d="M98.263,44.654a2.547,2.547,0,0,0,.835.069q13.8,0,27.595,0a2.7,2.7,0,0,0,.894-.076c.158-.055.377-.08.42-.255-.029-.032-.057-.064-.087-.1-.239.287-.6.23-.926.23q-8.446,0-16.891,0-5.681,0-11.361,0c-.29,0-.624.072-.789-.234l-.079.091c.037.164.227.216.39.272" transform="translate(-82.131 -37.167)" fill="#0fadfe"/>
        <path id="Trazado_231110" data-name="Trazado 231110" d="M284.778,43.87a.384.384,0,0,0-.013-.2.743.743,0,0,1-.074.105c.03.032.058.064.087.1" transform="translate(-238.902 -36.645)" fill="#0fadfe"/>
        <path id="Trazado_231111" data-name="Trazado 231111" d="M97.84,43.713l.079-.091a.665.665,0,0,1-.053-.128.387.387,0,0,0-.026.22" transform="translate(-82.098 -36.498)" fill="#0fadfe"/>
        <path id="Trazado_231112" data-name="Trazado 231112" d="M79.644,111.547a.979.979,0,0,1,.158-.625c.016-.012.032-.021.048-.031a13.548,13.548,0,0,1,.221-2.228q-5.053,0-10.106,0c-.23,0-.5.053-.64-.122a19.6,19.6,0,0,0,1.247,9.72c.073.186.149.37.217.557.027.063.056.124.084.187h8.78c-.034-2.485-.013-4.971-.01-7.456" transform="translate(-58.045 -91.082)" fill="#2197fe"/>
        <path id="Trazado_231113" data-name="Trazado 231113" d="M69.933,117.43c-.069-.186-.145-.371-.217-.557a19.6,19.6,0,0,1-1.247-9.72.5.5,0,0,1-.1-.266,3.176,3.176,0,0,0-.155,1.176,19.132,19.132,0,0,0,1.645,9.553h.157c-.028-.062-.057-.124-.084-.187" transform="translate(-57.188 -89.696)" fill="#2197fe"/>
        <path id="Trazado_231114" data-name="Trazado 231114" d="M134.449,123.162c-.016.01-.032.019-.048.031a.978.978,0,0,0-.158.625c0,2.485-.024,4.971.01,7.456h.159c.006-.278.018-.557.018-.835q.013-3.611.022-7.223c0-.018,0-.036,0-.054" transform="translate(-112.643 -103.353)" fill="#2197fe"/>
        <path id="Trazado_231115" data-name="Trazado 231115" d="M216.014,66.259a6.363,6.363,0,0,1-.84.024c-4.385.014-8.77-.023-13.155.016a11.339,11.339,0,0,0-1.313.018,9.693,9.693,0,0,1,3.274,1.235,9.011,9.011,0,0,1,3.935,5.179c.034.113.083.222.125.332.007-.021.012-.041.02-.062a1.826,1.826,0,0,1,.938-.124q4.314-.006,8.629,0a2.174,2.174,0,0,0,1.129-.245v0a23.177,23.177,0,0,0-1.745-5.911c-.121-.252-.246-.5-.384-.744a.814.814,0,0,1-.614.283" transform="translate(-168.425 -55.365)" fill="#11aafe"/>
        <path id="Trazado_231116" data-name="Trazado 231116" d="M300.082,66.073a23.176,23.176,0,0,1,1.745,5.911v0c.04-.023.08-.047.119-.074a17.523,17.523,0,0,0-.6-2.921,14.711,14.711,0,0,0-1.576-3.787.594.594,0,0,1-.067.124c.138.243.263.492.384.744" transform="translate(-251.495 -54.718)" fill="#11aafe"/>
        <path id="Trazado_231117" data-name="Trazado 231117" d="M247.266,107.613a1.826,1.826,0,0,0-.938.124c-.008.021-.013.041-.02.062v0q5,0,10,0c.274,0,.586.043.738-.175-.009-.085-.019-.17-.027-.255a2.173,2.173,0,0,1-1.129.245q-4.314-.014-8.629,0" transform="translate(-206.692 -90.101)" fill="#11aafe"/>
        <path id="Trazado_231118" data-name="Trazado 231118" d="M312.962,107.238a.607.607,0,0,0,.092-.329c-.039.027-.079.051-.119.074.008.085.018.17.027.255" transform="translate(-262.603 -89.714)" fill="#11aafe"/>
        <path id="Trazado_231119" data-name="Trazado 231119" d="M200.529,65.764a7.8,7.8,0,0,0-2.439.129c.141.027.281.055.421.085a11.337,11.337,0,0,1,1.313-.018c4.385-.038,8.77,0,13.155-.016a6.394,6.394,0,0,0,.84-.024.814.814,0,0,0,.614-.283v0l-.035-.063a1.936,1.936,0,0,1-.929.186c-4.313-.008-8.625-.017-12.938.006" transform="translate(-166.229 -55.025)" fill="#11aafe"/>
        <path id="Trazado_231120" data-name="Trazado 231120" d="M299.507,65.326v0a.6.6,0,0,0,.067-.124c-.034.022-.069.041-.1.059l.035.063" transform="translate(-251.305 -54.717)" fill="#11aafe"/>
        <path id="Trazado_231121" data-name="Trazado 231121" d="M80.036,80.829a1.956,1.956,0,0,1,.942.116.393.393,0,0,1,.049.042,9.886,9.886,0,0,1,3.611-5.115c-.182-.237-.443-.139-.669-.14q-5.817-.009-11.634-.006c-.225,0-.474.048-.635-.13a18.712,18.712,0,0,0-1.4,5.081,3.221,3.221,0,0,0,1.1.152q4.317-.008,8.635,0" transform="translate(-58.991 -63.438)" fill="#14a7fe"/>
        <path id="Trazado_231122" data-name="Trazado 231122" d="M71.049,74.859a.494.494,0,0,1-.088-.141,14.735,14.735,0,0,0-1.44,5.174c.041.018.083.033.125.048a18.713,18.713,0,0,1,1.4-5.081" transform="translate(-58.339 -62.7)" fill="#14a7fe"/>
        <path id="Trazado_231123" data-name="Trazado 231123" d="M70.773,107.528q5.053,0,10.106,0l.01-.031a.406.406,0,0,0-.049-.043,1.956,1.956,0,0,0-.942-.116q-4.318-.005-8.635,0a3.217,3.217,0,0,1-1.1-.152c0,.007,0,.013,0,.02-.009.066-.015.132-.023.2.144.175.411.122.64.122" transform="translate(-58.853 -89.949)" fill="#14a7fe"/>
        <path id="Trazado_231124" data-name="Trazado 231124" d="M69.619,107.154c.008-.066.015-.132.023-.2l0-.02c-.042-.015-.084-.03-.125-.048a.5.5,0,0,0,.1.266" transform="translate(-58.339 -89.696)" fill="#14a7fe"/>
        <path id="Trazado_231125" data-name="Trazado 231125" d="M88.821,174.293a1.416,1.416,0,0,1-.633.08q-3.752.008-7.5,0a1.632,1.632,0,0,1-.589-.077,18.981,18.981,0,0,0,4.824,6.512,21.86,21.86,0,0,0,3.805,2.7,1.373,1.373,0,0,1,.185.119,1.272,1.272,0,0,1-.1-.527c0-2.935-.022-5.871.012-8.806" transform="translate(-67.213 -146.26)" fill="#3381fe"/>
        <path id="Trazado_231126" data-name="Trazado 231126" d="M87.627,182.921a21.859,21.859,0,0,1-3.805-2.7A18.982,18.982,0,0,1,79,173.712a.8.8,0,0,1-.21-.118,19.543,19.543,0,0,0,9.11,9.6.994.994,0,0,1-.086-.154,1.372,1.372,0,0,0-.185-.119" transform="translate(-66.115 -145.673)" fill="#3381fe"/>
        <path id="Trazado_231127" data-name="Trazado 231127" d="M134.255,173.71c-.034,2.935-.009,5.871-.012,8.806a1.272,1.272,0,0,0,.1.527.744.744,0,0,1,.086.079q-.007-4.762-.013-9.524a.612.612,0,0,1-.16.112" transform="translate(-112.646 -145.677)" fill="#3381fe"/>
        <path id="Trazado_231128" data-name="Trazado 231128" d="M134.9,232.32a.993.993,0,0,0,.086.154c0-.025,0-.05,0-.075a.739.739,0,0,0-.086-.079" transform="translate(-113.2 -194.954)" fill="#3381fe"/>
        <path id="Trazado_231129" data-name="Trazado 231129" d="M87.909,173.787a1.416,1.416,0,0,0,.633-.08c0-.036,0-.071,0-.107v0h-8.78l.053.118a1.629,1.629,0,0,0,.589.077q3.752,0,7.5,0" transform="translate(-66.934 -145.673)" fill="#3381fe"/>
        <path id="Trazado_231130" data-name="Trazado 231130" d="M78.944,173.594h-.157a.8.8,0,0,0,.21.118l-.053-.118" transform="translate(-66.115 -145.673)" fill="#3381fe"/>
        <path id="Trazado_231131" data-name="Trazado 231131" d="M134.35,173.6c0,.036,0,.071,0,.107a.615.615,0,0,0,.16-.112h-.159v0" transform="translate(-112.74 -145.677)" fill="#3381fe"/>
        <path id="Trazado_231132" data-name="Trazado 231132" d="M180.5,272.86h0q0,1.5,0,3.006c4.828,0,9.656.007,14.484-.006a3.546,3.546,0,0,1,1.785.36,8.995,8.995,0,0,0-3.449-2.951l-.263-.111c-4.172-.62-8.373-.147-12.558-.3" transform="translate(-151.467 -228.947)" fill="#dbeffe"/>
        <path id="Trazado_231133" data-name="Trazado 231133" d="M258.84,274.991a9,9,0,0,1,3.449,2.951c.07.039.139.08.207.127A7.8,7.8,0,0,0,259,274.943c-.141-.023-.283-.042-.424-.063l.263.111" transform="translate(-216.988 -230.669)" fill="#dbeffe"/>
        <path id="Trazado_231134" data-name="Trazado 231134" d="M256.14,182.592c-2.334-.035-4.668,0-7-.018a1.676,1.676,0,0,1-.751-.082c.031,2.492.009,4.983.012,7.475a1.281,1.281,0,0,1-.1.539,2.759,2.759,0,0,1,.37-.232,20.941,20.941,0,0,0,4.579-3.466,18.8,18.8,0,0,0,3.16-4.229,1.4,1.4,0,0,1-.266.013" transform="translate(-208.361 -153.14)" fill="#347ffe"/>
        <path id="Trazado_231135" data-name="Trazado 231135" d="M252.829,186.866a20.937,20.937,0,0,1-4.579,3.466,2.76,2.76,0,0,0-.37.232.946.946,0,0,1-.08.144c.419-.23.851-.442,1.256-.694a19.491,19.491,0,0,0,7.128-7.453.5.5,0,0,1-.2.076,18.8,18.8,0,0,1-3.16,4.229" transform="translate(-207.944 -153.198)" fill="#347ffe"/>
        <path id="Trazado_231136" data-name="Trazado 231136" d="M247.97,181.93a.663.663,0,0,1-.16-.108q0,4.1-.01,8.2a.813.813,0,0,1,.08-.074,1.28,1.28,0,0,0,.1-.539c0-2.492.019-4.983-.012-7.475" transform="translate(-207.944 -152.578)" fill="#347ffe"/>
        <path id="Trazado_231137" data-name="Trazado 231137" d="M247.8,232.392v.069a1,1,0,0,0,.08-.144.8.8,0,0,0-.08.074" transform="translate(-207.945 -194.952)" fill="#347ffe"/>
        <path id="Trazado_231138" data-name="Trazado 231138" d="M248.852,181.808c0,.036,0,.072,0,.108a1.676,1.676,0,0,0,.751.082c2.334.015,4.668-.016,7,.018a1.393,1.393,0,0,0,.266-.013c.02-.038.042-.075.062-.114a2.855,2.855,0,0,0-.748-.084q-3.667.008-7.334,0" transform="translate(-208.827 -152.564)" fill="#347ffe"/>
        <path id="Trazado_231139" data-name="Trazado 231139" d="M298.716,182.442a.5.5,0,0,0,.2-.076c-.044-.015-.089-.026-.134-.038-.02.038-.041.076-.061.114" transform="translate(-250.671 -153.003)" fill="#347ffe"/>
        <path id="Trazado_231140" data-name="Trazado 231140" d="M248.019,181.823h-.16a.663.663,0,0,0,.16.108c0-.036,0-.072,0-.108" transform="translate(-207.994 -152.579)" fill="#347ffe"/>
        <path id="Trazado_231141" data-name="Trazado 231141" d="M196.8,292.53a10.061,10.061,0,0,0-3.806-.309c-3.849-.019-7.7-.005-11.547-.009a1.741,1.741,0,0,1-.948-.132q0,.845,0,1.69a.468.468,0,0,1,.065-.044,2.137,2.137,0,0,1,.832-.092q7.514,0,15.029-.006a2,2,0,0,1,1.245.306,8.025,8.025,0,0,0-.766-1.369l-.023-.032a.128.128,0,0,1-.08,0" transform="translate(-151.467 -245.102)" fill="#d2ebfe"/>
        <path id="Trazado_231142" data-name="Trazado 231142" d="M282.371,294.767a8.04,8.04,0,0,1,.766,1.369,1.393,1.393,0,0,1,.261.253,4.636,4.636,0,0,0-.955-1.684c-.031.008-.063.022-.095.03l.023.032" transform="translate(-236.935 -247.305)" fill="#d2ebfe"/>
        <path id="Trazado_231143" data-name="Trazado 231143" d="M196.423,301.7q-7.514.012-15.029.006a2.14,2.14,0,0,0-.831.092.479.479,0,0,0-.065.044v.056q7.771,0,15.541,0a3.6,3.6,0,0,1,1.671.234c-.014-.041-.026-.083-.041-.123a2,2,0,0,0-1.245-.306" transform="translate(-151.466 -253.176)" fill="#d2ebfe"/>
        <path id="Trazado_231144" data-name="Trazado 231144" d="M287.255,303.6c.015.04.028.082.041.123a1.842,1.842,0,0,1,.219.13,1.4,1.4,0,0,0-.261-.253" transform="translate(-241.053 -254.773)" fill="#d2ebfe"/>
        <path id="Trazado_231145" data-name="Trazado 231145" d="M180.5,291.682h0v.058a1.738,1.738,0,0,0,.948.132c3.849,0,7.7-.01,11.547.01a10.061,10.061,0,0,1,3.806.309.128.128,0,0,0,.08,0c-.036-.054-.075-.1-.112-.157a3.548,3.548,0,0,0-1.785-.36c-4.828.014-9.656.007-14.484.006" transform="translate(-151.468 -244.763)" fill="#d2ebfe"/>
        <path id="Trazado_231146" data-name="Trazado 231146" d="M281.651,293.915c.037.053.076.1.112.157.032-.008.064-.022.095-.03a2.424,2.424,0,0,0-.207-.127" transform="translate(-236.351 -246.642)" fill="#d2ebfe"/>
        <path id="Trazado_231147" data-name="Trazado 231147" d="M82.864,67.331c2.768.011,5.536,0,8.3.005a2.327,2.327,0,0,1,.948.1.449.449,0,0,1,.148.21A9.411,9.411,0,0,1,95.948,66.2h.006a8.724,8.724,0,0,0-1.156-.046q-6.82.012-13.639,0c-.413,0-.874.074-1.158-.328a11.2,11.2,0,0,0-.663,1.444,33.981,33.981,0,0,0,3.526.063" transform="translate(-66.577 -55.236)" fill="#11aafe"/>
        <path id="Trazado_231148" data-name="Trazado 231148" d="M79.276,65.3a.929.929,0,0,1-.062-.1,5.988,5.988,0,0,0-.741,1.531l.139.014a11.184,11.184,0,0,1,.663-1.445" transform="translate(-65.852 -54.714)" fill="#11aafe"/>
        <path id="Trazado_231149" data-name="Trazado 231149" d="M84.621,65.892q6.819.015,13.639,0a8.723,8.723,0,0,1,1.156.046c.133-.025.265-.063.4-.1a5.751,5.751,0,0,0-1.726-.14q-6.827,0-13.653.005a1.926,1.926,0,0,1-.943-.2h0l-.026.049c.284.4.745.327,1.158.328" transform="translate(-70.039 -54.977)" fill="#11aafe"/>
        <path id="Trazado_231150" data-name="Trazado 231150" d="M83.166,65.252h0c-.03-.016-.059-.032-.089-.05a.931.931,0,0,0,.062.1c.009-.016.017-.033.026-.049" transform="translate(-69.716 -54.714)" fill="#11aafe"/>
        <path id="Trazado_231151" data-name="Trazado 231151" d="M79.658,75.062q5.817,0,11.634.006c.226,0,.487-.1.669.14L92,75.182a.449.449,0,0,0-.148-.21,2.327,2.327,0,0,0-.948-.1c-2.768,0-5.536.006-8.3-.005a34.028,34.028,0,0,1-3.526-.063c-.014.036-.029.072-.043.109l-.008.019c.162.178.41.13.635.13" transform="translate(-66.313 -62.773)" fill="#11aafe"/>
        <path id="Trazado_231152" data-name="Trazado 231152" d="M78.562,74.859l.008-.019.043-.109c-.046,0-.093-.008-.139-.014a.494.494,0,0,0,.088.141" transform="translate(-65.852 -62.7)" fill="#11aafe"/>
        <path id="Trazado_231153" data-name="Trazado 231153" d="M187.716,257.693a1.815,1.815,0,0,1-1.727,1.855c-1.083.1-1.794-.621-1.913-1.857a2.208,2.208,0,0,1-1.163.127,12.6,12.6,0,0,1-2.332-.073.508.508,0,0,1-.084-.05q0,1.2,0,2.407a1.285,1.285,0,0,1,.742-.133q4.806-.007,9.612,0a6.162,6.162,0,0,1,1.543.225,3.466,3.466,0,0,0-.547-.142.775.775,0,0,1-.71-.928c.021-.419,0-.84,0-1.261-1.019-.07-2.04-.026-3.059-.062a.7.7,0,0,1-.364-.108" transform="translate(-151.466 -216.245)" fill="#e5f3fe"/>
        <path id="Trazado_231154" data-name="Trazado 231154" d="M246.642,258.756c-.006.421.019.841,0,1.261a.776.776,0,0,0,.71.928,3.469,3.469,0,0,1,.547.143c.364.095.725.209,1.085.325-.155-.215-.431-.194-.628-.32-.469-.3-1.256-.12-1.475-.607a4.611,4.611,0,0,1-.065-1.717l-.171-.011" transform="translate(-206.969 -217.138)" fill="#e5f3fe"/>
        <path id="Trazado_231155" data-name="Trazado 231155" d="M180.582,257.441a12.609,12.609,0,0,0,2.332.073,2.208,2.208,0,0,0,1.163-.126c0-.02,0-.038-.007-.058H180.5v.062a.5.5,0,0,0,.084.05" transform="translate(-151.467 -215.941)" fill="#e5f3fe"/>
        <path id="Trazado_231156" data-name="Trazado 231156" d="M225.384,257.3c0,.021,0,.039,0,.06a.7.7,0,0,0,.364.108c1.02.036,2.041-.009,3.059.062,0-.02,0-.04,0-.06s0-.013,0-.02a1.893,1.893,0,0,0-.853-.154c-.855.017-1.711.005-2.567.005" transform="translate(-189.13 -215.912)" fill="#e5f3fe"/>
        <path id="Trazado_231157" data-name="Trazado 231157" d="M246.664,258.277c0,.02,0,.04,0,.06l.171.011a1.458,1.458,0,0,0-.171-.092c0,.007,0,.013,0,.02" transform="translate(-206.991 -216.719)" fill="#e5f3fe"/>
        <path id="Trazado_231158" data-name="Trazado 231158" d="M181.241,271.831a1.285,1.285,0,0,0-.742.132v.056c4.185.151,8.386-.322,12.558.3-.218-.093-.437-.186-.661-.262a6.163,6.163,0,0,0-1.543-.225q-4.806-.01-9.612,0" transform="translate(-151.468 -228.107)" fill="#e5f3fe"/>
        <path id="Trazado_231159" data-name="Trazado 231159" d="M255.129,273.513c.141.021.282.04.424.063-.36-.116-.72-.23-1.085-.325.224.076.442.169.661.262" transform="translate(-213.54 -229.302)" fill="#e5f3fe"/>
        <path id="Trazado_231160" data-name="Trazado 231160" d="M238.614,316.25a1.659,1.659,0,0,0-3.073-.1c-.079.16-.1.393-.345.416a1.05,1.05,0,0,1,.194.487,1.675,1.675,0,0,0,3.29.067,1.213,1.213,0,0,1,.2-.453.763.763,0,0,1-.265-.418" transform="translate(-197.368 -264.475)" fill="#505efe"/>
        <path id="Trazado_231161" data-name="Trazado 231161" d="M238.593,324.437a1.675,1.675,0,0,1-3.29-.067,1.048,1.048,0,0,0-.195-.487l-.016,0a1.869,1.869,0,0,0,1.007,1.805c1.263.688,2.532-.112,2.718-1.691-.01,0-.017-.011-.026-.016a1.217,1.217,0,0,0-.2.453" transform="translate(-197.279 -271.79)" fill="#505efe"/>
        <path id="Trazado_231162" data-name="Trazado 231162" d="M235.492,315.291a1.659,1.659,0,0,1,3.073.1.763.763,0,0,0,.265.418c.006-.006.01-.013.016-.019-.045-.16-.082-.323-.14-.477a1.816,1.816,0,0,0-2.77-.822,3.21,3.21,0,0,0-.8,1.208l.009.01c.248-.023.265-.255.345-.416" transform="translate(-197.319 -263.613)" fill="#505efe"/>
        <path id="Trazado_231163" data-name="Trazado 231163" d="M258.092,324.411c.009.005.017.011.026.016l-.01-.035c-.006.006-.011.013-.016.019" transform="translate(-216.581 -272.217)" fill="#505efe"/>
        <path id="Trazado_231164" data-name="Trazado 231164" d="M235.1,323.821l-.007.013.016,0-.009-.01" transform="translate(-197.284 -271.738)" fill="#505efe"/>
        <path id="Trazado_231165" data-name="Trazado 231165" d="M127.583,316.418a1.647,1.647,0,0,0-2.013-1.093,1.938,1.938,0,0,1-.29.015.809.809,0,0,1-.2.2,1.712,1.712,0,0,0-.515,2.17.63.63,0,0,1,.074.355,1.086,1.086,0,0,1,.421.192,1.659,1.659,0,0,0,2.55-.952,1.377,1.377,0,0,1,.221-.53.753.753,0,0,1-.248-.362" transform="translate(-104.378 -264.586)" fill="#4f5efe"/>
        <path id="Trazado_231166" data-name="Trazado 231166" d="M128.888,325.037a1.659,1.659,0,0,1-2.55.952,1.088,1.088,0,0,0-.421-.191.373.373,0,0,1-.01.043,1.762,1.762,0,0,0,1.942.505,1.916,1.916,0,0,0,1.288-1.821c-.01-.005-.019-.011-.028-.017a1.374,1.374,0,0,0-.221.53" transform="translate(-105.656 -272.314)" fill="#4f5efe"/>
        <path id="Trazado_231167" data-name="Trazado 231167" d="M130.247,314.414a1.646,1.646,0,0,1,2.013,1.093.754.754,0,0,0,.248.362l.018-.015c-.416-1.42-1.143-1.863-2.524-1.541a.333.333,0,0,1-.044.116,1.95,1.95,0,0,0,.289-.015" transform="translate(-109.056 -263.676)" fill="#4f5efe"/>
        <path id="Trazado_231168" data-name="Trazado 231168" d="M145.815,324.43c.009.006.018.012.027.017,0-.011-.007-.021-.01-.032l-.018.015" transform="translate(-122.362 -272.236)" fill="#4f5efe"/>
        <path id="Trazado_231169" data-name="Trazado 231169" d="M123.721,317.905a1.712,1.712,0,0,1,.515-2.17.808.808,0,0,0,.2-.2c-.023,0-.047,0-.07,0l-.057,0a1.819,1.819,0,0,0-.549,2.728l.035,0a.629.629,0,0,0-.074-.355" transform="translate(-103.534 -264.777)" fill="#4f5efe"/>
        <path id="Trazado_231170" data-name="Trazado 231170" d="M125.756,332.515c.009.015.015.03.024.045a.336.336,0,0,0,.01-.043l-.035,0" transform="translate(-105.53 -279.034)" fill="#4f5efe"/>
        <path id="Trazado_231171" data-name="Trazado 231171" d="M129.293,314.95a.332.332,0,0,0,.044-.116c-.06.038-.116.077-.171.116l.057,0c.023,0,.047,0,.07,0" transform="translate(-108.391 -264.196)" fill="#4f5efe"/>
        <path id="Trazado_231172" data-name="Trazado 231172" d="M161.553,255.049l-.023-.013a6.142,6.142,0,0,1-.017-3.053c.015-.012.03-.021.045-.031a3.25,3.25,0,0,1,0-2.432,1.481,1.481,0,0,1-.314-.57,1.644,1.644,0,0,0-1.762-.961,1.607,1.607,0,0,0-1.354,1.542c-.049.858,0,1.719-.02,2.579,0,.242.045.506-.16.7.207.207.158.492.162.753.015,1.076-.032,2.153.018,3.227a1.6,1.6,0,0,0,2.571,1.322,1.638,1.638,0,0,0,.6-.8,1.26,1.26,0,0,1,.26-.547,1.792,1.792,0,0,1,0-1.717" transform="translate(-132.543 -208.084)" fill="#4868fe"/>
        <path id="Trazado_231173" data-name="Trazado 231173" d="M161.17,282.6a1.636,1.636,0,0,1-.6.8,1.6,1.6,0,0,1-2.57-1.322c-.05-1.074,0-2.151-.018-3.227,0-.261.045-.546-.162-.753-.009.008-.015.017-.024.024.007,1.322,0,2.644.024,3.965a1.744,1.744,0,0,0,2.614,1.584,1.806,1.806,0,0,0,1.013-1.579c-.007-.014-.012-.028-.019-.041a1.263,1.263,0,0,0-.261.547" transform="translate(-132.419 -233.367)" fill="#4868fe"/>
        <path id="Trazado_231174" data-name="Trazado 231174" d="M157.983,251.154c.015-.86-.029-1.721.02-2.579a1.607,1.607,0,0,1,1.354-1.542,1.643,1.643,0,0,1,1.762.961,1.485,1.485,0,0,0,.314.57c.006-.016.011-.032.017-.048a1.865,1.865,0,0,0-2.039-1.676c-1,.115-1.588.892-1.593,2.106,0,.963-.012,1.926-.018,2.889l.024.021c.205-.2.155-.459.16-.7" transform="translate(-132.42 -207.127)" fill="#4868fe"/>
        <path id="Trazado_231175" data-name="Trazado 231175" d="M157.8,277.967c0,.015,0,.03,0,.045.009-.008.016-.016.024-.024l-.023-.021" transform="translate(-132.418 -233.259)" fill="#4868fe"/>
        <path id="Trazado_231176" data-name="Trazado 231176" d="M179.159,272.777a6.136,6.136,0,0,0,.017,3.053l.022.013c.008-.015.013-.031.022-.046v-3.006c-.006-.015-.01-.03-.016-.045-.015.01-.03.019-.045.031" transform="translate(-150.188 -228.878)" fill="#4868fe"/>
        <path id="Trazado_231177" data-name="Trazado 231177" d="M179.227,292a1.792,1.792,0,0,0,0,1.717l.019-.015q0-.845,0-1.69l-.021-.012" transform="translate(-150.217 -245.037)" fill="#4868fe"/>
        <path id="Trazado_231178" data-name="Trazado 231178" d="M180.376,302.6c.007.014.012.028.019.042v-.056l-.019.015" transform="translate(-151.365 -253.918)" fill="#4868fe"/>
        <path id="Trazado_231179" data-name="Trazado 231179" d="M180.387,291.774v-.058c-.008.015-.014.031-.022.046l.022.012" transform="translate(-151.355 -244.797)" fill="#4868fe"/>
        <path id="Trazado_231180" data-name="Trazado 231180" d="M179.166,260.06l.016-.011q0-1.2,0-2.407l-.017-.013a3.25,3.25,0,0,0,0,2.431" transform="translate(-150.151 -216.192)" fill="#4868fe"/>
        <path id="Trazado_231181" data-name="Trazado 231181" d="M180.408,257.391v-.062c-.006.016-.011.032-.017.048l.017.014" transform="translate(-151.377 -215.941)" fill="#4868fe"/>
        <path id="Trazado_231182" data-name="Trazado 231182" d="M180.417,272.733v-.056l-.016.011c.006.015.01.03.016.045" transform="translate(-151.386 -228.82)" fill="#4868fe"/>
        <path id="Trazado_231183" data-name="Trazado 231183" d="M153.531,75.166c-.262-.081-.259-.329-.331-.528a8.866,8.866,0,0,0-6.818-6.021c-.171-.037-.383,0-.516-.137l-.025.006q-1.107.043-2.214,0l-.021,0a.557.557,0,0,1-.282.1,10.7,10.7,0,0,0-3.417,1.241.5.5,0,0,1-.3.081c.019.174-.19.291-.32.418a12.244,12.244,0,0,0-2.076,2.306,10.04,10.04,0,0,0-.965,1.92.843.843,0,0,1-.279.48.314.314,0,0,1,.092.25,8.562,8.562,0,0,1-.311,1.978,1.511,1.511,0,0,1,.791-.12q8.18-.006,16.361,0a1.579,1.579,0,0,1,.82.123,3.562,3.562,0,0,1-.191-2.094" transform="translate(-113.915 -57.466)" fill="#fefefe"/>
        <path id="Trazado_231184" data-name="Trazado 231184" d="M152.773,122.29q-8.18-.005-16.361,0a1.511,1.511,0,0,0-.791.12c-.009.024-.015.048-.024.072h18.016l-.019-.069a1.579,1.579,0,0,0-.82-.123" transform="translate(-113.787 -102.619)" fill="#fefefe"/>
        <path id="Trazado_231185" data-name="Trazado 231185" d="M245.984,112.141l.022.013a11.475,11.475,0,0,0-.211-2.106h0a3.561,3.561,0,0,0,.191,2.094" transform="translate(-206.178 -92.347)" fill="#fefefe"/>
        <path id="Trazado_231186" data-name="Trazado 231186" d="M247.49,123.066l.019.069c0-.019,0-.038,0-.057l-.022-.013" transform="translate(-207.684 -103.272)" fill="#fefefe"/>
        <path id="Trazado_231187" data-name="Trazado 231187" d="M184.594,67.713l.021,0q1.107.042,2.214,0l.025-.005a.36.36,0,0,1-.089-.147h-2.087a.265.265,0,0,1-.084.15" transform="translate(-154.904 -56.696)" fill="#fefefe"/>
        <path id="Trazado_231188" data-name="Trazado 231188" d="M135.835,109.447a.313.313,0,0,0-.092-.25l-.026.018a13.532,13.532,0,0,0-.221,2.228l.028-.018a8.562,8.562,0,0,0,.311-1.978" transform="translate(-113.691 -91.634)" fill="#fefefe"/>
        <path id="Trazado_231189" data-name="Trazado 231189" d="M135.573,123.068c0,.018,0,.036,0,.054.009-.024.016-.048.024-.072l-.028.018" transform="translate(-113.768 -103.259)" fill="#fefefe"/>
        <path id="Trazado_231190" data-name="Trazado 231190" d="M199.161,68.292a8.865,8.865,0,0,1,6.818,6.021c.072.2.07.447.331.528v0c-.042-.111-.092-.219-.125-.332a9.011,9.011,0,0,0-3.935-5.179,9.687,9.687,0,0,0-3.274-1.235,2.565,2.565,0,0,0-.332.062c.133.132.345.1.516.137" transform="translate(-166.695 -57.14)" fill="#fefefe"/>
        <path id="Trazado_231191" data-name="Trazado 231191" d="M246.307,110.038v0h0" transform="translate(-206.69 -92.337)" fill="#fefefe"/>
        <path id="Trazado_231192" data-name="Trazado 231192" d="M198.179,67.711a2.563,2.563,0,0,1,.332-.063c-.14-.029-.28-.058-.421-.085h0a.358.358,0,0,0,.089.147" transform="translate(-166.229 -56.697)" fill="#fefefe"/>
        <path id="Trazado_231193" data-name="Trazado 231193" d="M137.306,81.959a10.032,10.032,0,0,1,.965-1.921,12.248,12.248,0,0,1,2.076-2.306c.131-.127.34-.244.32-.418a.291.291,0,0,1-.043,0,9.885,9.885,0,0,0-3.612,5.115l.016.014a.845.845,0,0,0,.279-.48" transform="translate(-114.975 -64.876)" fill="#fefefe"/>
        <path id="Trazado_231194" data-name="Trazado 231194" d="M136.959,109.113l-.01.031c.009-.005.017-.012.026-.018l-.016-.014" transform="translate(-114.922 -91.563)" fill="#fefefe"/>
        <path id="Trazado_231195" data-name="Trazado 231195" d="M160.011,69.55a10.7,10.7,0,0,1,3.417-1.241.556.556,0,0,0,.282-.1c-.1-.023-.208-.041-.313-.055h-.006a9.409,9.409,0,0,0-3.683,1.446.2.2,0,0,1,0,.03.505.505,0,0,0,.3-.082" transform="translate(-134.021 -57.193)" fill="#fefefe"/>
        <path id="Trazado_231196" data-name="Trazado 231196" d="M183.045,67.563h0c-.132.032-.263.07-.4.1.1.014.209.032.313.055a.265.265,0,0,0,.084-.15" transform="translate(-153.271 -56.696)" fill="#fefefe"/>
        <path id="Trazado_231197" data-name="Trazado 231197" d="M159.506,77.153l-.039.025a.313.313,0,0,0,.043,0,.221.221,0,0,0,0-.03" transform="translate(-133.819 -64.744)" fill="#fefefe"/>
        <path id="Trazado_231198" data-name="Trazado 231198" d="M203.092,212.392a1.626,1.626,0,0,0,1.458,1.286,1.705,1.705,0,0,0,1.7-1.067c.1-.216.079-.482.262-.66a1.4,1.4,0,0,1-.162-.921c-.007-1.983,0-3.967-.005-5.95a1.712,1.712,0,0,0-.875-1.66,1.562,1.562,0,0,0-2.351,1.256c-.045.479-.016.961-.016,1.442,0,1.663,0,3.326,0,4.988a1.234,1.234,0,0,1-.163.838c.133.117.12.294.161.449" transform="translate(-170.292 -170.524)" fill="#387bfe"/>
        <path id="Trazado_231199" data-name="Trazado 231199" d="M202.906,210.027c.006-1.663,0-3.326,0-4.988,0-.481-.028-.963.016-1.442a1.562,1.562,0,0,1,2.351-1.256,1.712,1.712,0,0,1,.875,1.66c.006,1.983,0,3.967.005,5.95a1.4,1.4,0,0,0,.162.921.475.475,0,0,1,.038-.036q-.01-3.478-.02-6.956a1.791,1.791,0,0,0-.821-1.621,1.716,1.716,0,0,0-1.918-.077,1.757,1.757,0,0,0-.878,1.638c.01,2.339-.007,4.678-.014,7.016a.318.318,0,0,1,.036.03,1.233,1.233,0,0,0,.163-.838" transform="translate(-170.104 -169.447)" fill="#387bfe"/>
        <path id="Trazado_231200" data-name="Trazado 231200" d="M206.354,257.522c-.183.178-.165.444-.262.66a1.706,1.706,0,0,1-1.7,1.067,1.625,1.625,0,0,1-1.458-1.286c-.041-.155-.028-.332-.161-.449-.006.007-.01.015-.016.023l-.013.006c.119,1.236.83,1.956,1.913,1.857a1.815,1.815,0,0,0,1.727-1.855c-.01-.007-.021-.011-.031-.019l0,0" transform="translate(-170.138 -216.097)" fill="#387bfe"/>
        <path id="Trazado_231201" data-name="Trazado 231201" d="M225.173,257.371c.01.007.021.012.031.019,0-.02,0-.039,0-.06a.484.484,0,0,0-.038.036l0,0" transform="translate(-188.954 -215.941)" fill="#387bfe"/>
        <path id="Trazado_231202" data-name="Trazado 231202" d="M202.726,257.383c.006-.007.01-.015.016-.022a.3.3,0,0,0-.036-.03c0,.02,0,.039.007.058l.013-.006" transform="translate(-170.103 -215.942)" fill="#387bfe"/>
        <path id="Trazado_231203" data-name="Trazado 231203" d="M157.913,166.106a1.8,1.8,0,1,0,3.606-.018q.012-3.516,0-7.032a1.807,1.807,0,1,0-3.608.018c-.006,1.162,0,2.324,0,3.486,0,1.182-.007,2.364,0,3.546" transform="translate(-132.511 -131.88)" fill="#3184fe"/>
      </g>
    </g>
  </g>
</svg>
