<svg xmlns="http://www.w3.org/2000/svg" xmlns:xlink="http://www.w3.org/1999/xlink" width="111.861" height="111.861" viewBox="0 0 111.861 111.861">
  <defs>
    <clipPath id="clip-path">
      <rect id="Rectángulo_295275" data-name="Rectángulo 295275" width="61.11" height="61.21" fill="none"/>
    </clipPath>
  </defs>
  <g id="Grupo_904065" data-name="Grupo 904065" transform="translate(-10141 11071)">
    <g id="Grupo_904064" data-name="Grupo 904064">
      <path id="Trazado_231504" data-name="Trazado 231504" d="M111.862,55.931A55.931,55.931,0,1,1,55.933,0a55.933,55.933,0,0,1,55.929,55.931" transform="translate(10141 -11071)" fill="#fff"/>
      <g id="Grupo_881612" data-name="Grupo 881612" transform="translate(10166 -11046)">
        <g id="Grupo_881612-2" data-name="Grupo 881612" clip-path="url(#clip-path)">
          <path id="Trazado_231504-2" data-name="Trazado 231504" d="M318.324,320.4h.115l.276-.036a2.1,2.1,0,0,0-.392.035" transform="translate(-267.564 -269.278)" fill="#b9edfb"/>
          <path id="Trazado_231505" data-name="Trazado 231505" d="M39.878,254.907a4.138,4.138,0,0,0,2.271-1.429,1.7,1.7,0,0,0-.445-2.265,8.483,8.483,0,0,0-3.012-1.015,4.673,4.673,0,0,1-1.276-.467,1.408,1.408,0,0,1-.766-1.309,1.426,1.426,0,0,1,.779-1.242,5.518,5.518,0,0,1,2.44-.67,29.3,29.3,0,0,1,4.275-.137.873.873,0,0,1,.266.1,12.579,12.579,0,0,0,2.122-.119c1.8-.05,3.59.189,5.387.123.193-.007.4.054.576-.072a.465.465,0,0,0-.041-.036H51.6l.366-.048h-.115a.673.673,0,0,1-.156,0h.156a2.1,2.1,0,0,1,.392-.035,32.9,32.9,0,0,0,3.294-.519,5.6,5.6,0,0,0,1.67-.608,1.567,1.567,0,0,0,.933-1.468,1.513,1.513,0,0,0-1.074-1.243,10.43,10.43,0,0,0-3.039-.746c-2.856-.374-5.755-.364-8.588-.951a4.437,4.437,0,0,1-1.326-.5,1.326,1.326,0,0,1-.093-2.232,6.783,6.783,0,0,1,2.874-.848,12.756,12.756,0,0,0,1.763-.511,1.623,1.623,0,0,0,.212-2.778,9.615,9.615,0,0,0-3.363-1.1c-.879-.149-1.765-.281-2.656-.351l-1.022-.011a1.158,1.158,0,0,1-.338-.039c-.1,0-.192,0-.289,0a9.723,9.723,0,0,1-7.974,6.807,9.743,9.743,0,0,1-8.75-2.844,10.011,10.011,0,0,1-2.45-4.115h0c-.276.281-.632.189-.96.195a43.576,43.576,0,0,0-8.179.7,7.076,7.076,0,0,0-2.073.733,1.45,1.45,0,0,0-.942,1.452,1.557,1.557,0,0,0,1.179,1.349,19.079,19.079,0,0,0,2.558.573,4.861,4.861,0,0,1,1.51.537,1.609,1.609,0,0,1,.817,1.494,1.379,1.379,0,0,1-.946,1.258,10.5,10.5,0,0,1-3.359.75c-2.367.274-4.754.352-7.11.727a7.886,7.886,0,0,0-2.29.635c-.473.234-.913.535-.931,1.138a1.36,1.36,0,0,0,.867,1.252,9.956,9.956,0,0,0,3.737.928c3.665.414,7.345.184,11.019.251a20.2,20.2,0,0,1,3.673.343,3.837,3.837,0,0,1,1.426.583,1.559,1.559,0,0,1,.008,2.657,3.781,3.781,0,0,1-1.258.528,16.882,16.882,0,0,0-2.635.749,1.68,1.68,0,0,0-1.009.957,1.393,1.393,0,0,0,.3,1.548,3.955,3.955,0,0,0,1.33.886,23.065,23.065,0,0,0,6.322,1.414,28.853,28.853,0,0,0,3.384.26c.213,0,.5-.058.564.28h2.148a5.4,5.4,0,0,1,1.738-.217,29.52,29.52,0,0,0,6.969-1.286" transform="translate(-1.089 -195.199)" fill="#b9edfb"/>
          <path id="Trazado_231506" data-name="Trazado 231506" d="M27.37,255.63a28.856,28.856,0,0,1-3.384-.261,23.059,23.059,0,0,1-6.322-1.414,3.958,3.958,0,0,1-1.33-.886,1.393,1.393,0,0,1-.3-1.548,1.678,1.678,0,0,1,1.009-.957,16.908,16.908,0,0,1,2.635-.749,3.779,3.779,0,0,0,1.258-.528,1.56,1.56,0,0,0-.008-2.657,3.84,3.84,0,0,0-1.426-.583,20.194,20.194,0,0,0-3.673-.344c-3.674-.068-7.354.163-11.019-.251a9.957,9.957,0,0,1-3.737-.928,1.36,1.36,0,0,1-.867-1.252c.018-.6.458-.9.931-1.138a7.878,7.878,0,0,1,2.29-.635c2.356-.375,4.743-.453,7.11-.727a10.5,10.5,0,0,0,3.359-.75,1.38,1.38,0,0,0,.946-1.258,1.61,1.61,0,0,0-.817-1.494,4.871,4.871,0,0,0-1.51-.537,19.075,19.075,0,0,1-2.558-.573,1.557,1.557,0,0,1-1.179-1.349,1.45,1.45,0,0,1,.942-1.453,7.08,7.08,0,0,1,2.073-.733,43.561,43.561,0,0,1,8.179-.7c.328-.006.684.086.96-.2h0c-.011-.032-.022-.063-.032-.1-.1.133-.239.121-.378.124-1.11.022-2.218.033-3.329.091a35.358,35.358,0,0,0-4.951.511,6.184,6.184,0,0,0-3.161,1.245,1.526,1.526,0,0,0,.373,2.523,6.33,6.33,0,0,0,1.755.535,8.292,8.292,0,0,1,2.73.738,1.449,1.449,0,0,1,.747,1.446c-.028.6-.467.823-.921,1.051a6.91,6.91,0,0,1-2.173.57c-2.72.38-5.476.428-8.191.858a6.478,6.478,0,0,0-2.746.876,1.3,1.3,0,0,0,.009,2.269,5.869,5.869,0,0,0,2.49.91,39.581,39.581,0,0,0,6.862.494c2.66.009,5.324-.115,7.98.118a6.224,6.224,0,0,1,2.685.666,1.358,1.358,0,0,1,.811,1.219c0,.841-.507,1.413-1.535,1.693a16.965,16.965,0,0,0-3.348,1,1.746,1.746,0,0,0-.411,2.65,6.482,6.482,0,0,0,2.343,1.244,34.33,34.33,0,0,0,8.291,1.328c.367.026.753-.114,1.1.115-.065-.338-.351-.281-.564-.28" transform="translate(0 -194.699)" fill="#b9edfb"/>
          <path id="Trazado_231507" data-name="Trazado 231507" d="M253.344,233.165a1.158,1.158,0,0,0,.338.039l1.022.012q-.678-.053-1.36-.05" transform="translate(-212.946 -195.984)" fill="#b9edfb"/>
          <path id="Trazado_231508" data-name="Trazado 231508" d="M321.6,320.575a.393.393,0,0,1,.081.049h.087a.746.746,0,0,1,.119-.054l-.288,0" transform="translate(-270.314 -269.452)" fill="#a1e0f7"/>
          <path id="Trazado_231509" data-name="Trazado 231509" d="M251.54,232.105a.462.462,0,0,1,.05-.03h.108a.462.462,0,0,1-.082-.072.482.482,0,0,1-.027-.058.262.262,0,0,0-.049.159" transform="translate(-211.429 -194.96)" fill="#a1e0f7"/>
          <path id="Trazado_231510" data-name="Trazado 231510" d="M285.169,244.525c-1.025-1.137-2.448-1.242-3.817-1.441-2.674-.389-5.388-.407-8.057-.848a6.418,6.418,0,0,1-1.926-.612,1.366,1.366,0,0,1-.406-2.241,2.6,2.6,0,0,1,1.319-.775c.672-.185,1.358-.3,2.044-.423a4.3,4.3,0,0,0,1.624-.564,1.37,1.37,0,0,0,.05-2.411,5.188,5.188,0,0,0-1.633-.713,28.627,28.627,0,0,0-5.362-.762c-.491-.037-.981-.06-1.471-.075a15.25,15.25,0,0,1,3.487.74,6.389,6.389,0,0,1,1.162.6,1.756,1.756,0,0,1-.165,2.945,6.311,6.311,0,0,1-1.811.578c-.626.111-1.252.228-1.87.378a2.439,2.439,0,0,0-1.016.479,1.147,1.147,0,0,0,.2,2,9.452,9.452,0,0,0,3.295.755c2.4.286,4.83.362,7.226.731a10.591,10.591,0,0,1,1.622.388,3.919,3.919,0,0,1,.977.438,1.5,1.5,0,0,1,.027,2.679,7.668,7.668,0,0,1-3.155,1.006c-.1.017-.2.031-.293.045a45.794,45.794,0,0,0,4.633-.415,7.844,7.844,0,0,0,2.056-.567,2.475,2.475,0,0,0,1.141-.823c.075-.111.166-.229.335-.2v-.837a.217.217,0,0,1-.22-.054" transform="translate(-224.279 -196.4)" fill="#a1e0f7"/>
          <path id="Trazado_231511" data-name="Trazado 231511" d="M270.684,241.585a70.839,70.839,0,0,0-8.232-.962,10.316,10.316,0,0,1-3.619-.831,1.21,1.21,0,0,1-.328-2.021,3.373,3.373,0,0,1,1.918-.853,9.886,9.886,0,0,0,3.017-.811,1.531,1.531,0,0,0,.113-2.686,4.848,4.848,0,0,0-1.165-.586,23,23,0,0,0-5.6-.937c-1.5-.133-3.011-.12-4.519-.118-.138,0-.282.011-.378-.121a.22.22,0,0,0-.048.046.471.471,0,0,0,.027.058.452.452,0,0,0,.082.072c1,.008,2,.041,2.987.143.49.015.98.038,1.471.075a28.62,28.62,0,0,1,5.362.762,5.188,5.188,0,0,1,1.633.713,1.37,1.37,0,0,1-.05,2.411,4.306,4.306,0,0,1-1.624.564c-.686.119-1.372.238-2.044.423a2.6,2.6,0,0,0-1.319.775,1.366,1.366,0,0,0,.406,2.241,6.417,6.417,0,0,0,1.926.612c2.669.442,5.383.459,8.057.848,1.369.2,2.792.3,3.817,1.441a.217.217,0,0,0,.22.054,3.213,3.213,0,0,0-2.114-1.311" transform="translate(-211.688 -194.718)" fill="#a1e0f7"/>
          <path id="Trazado_231512" data-name="Trazado 231512" d="M271.684,247.368a2.025,2.025,0,0,1,.63-.07q.372-.014.744-.031c.1-.013.2-.028.293-.045a7.671,7.671,0,0,0,3.155-1.006,1.5,1.5,0,0,0-.027-2.679,3.923,3.923,0,0,0-.977-.438,10.594,10.594,0,0,0-1.622-.388c-2.4-.369-4.822-.445-7.227-.731a9.449,9.449,0,0,1-3.295-.756,1.146,1.146,0,0,1-.2-2,2.438,2.438,0,0,1,1.016-.479c.618-.15,1.244-.267,1.87-.378a6.315,6.315,0,0,0,1.811-.578,1.756,1.756,0,0,0,.165-2.945,6.39,6.39,0,0,0-1.163-.6,15.258,15.258,0,0,0-3.487-.739c-.5-.015-1-.023-1.5-.029.891.07,1.777.2,2.656.351a9.613,9.613,0,0,1,3.363,1.1,1.623,1.623,0,0,1-.212,2.778,12.705,12.705,0,0,1-1.763.511,6.785,6.785,0,0,0-2.874.848,1.326,1.326,0,0,0,.093,2.232,4.444,4.444,0,0,0,1.326.5c2.834.587,5.732.576,8.588.951a10.43,10.43,0,0,1,3.039.746,1.513,1.513,0,0,1,1.074,1.243,1.566,1.566,0,0,1-.933,1.468,5.592,5.592,0,0,1-1.67.608,32.932,32.932,0,0,1-3.294.519.407.407,0,0,1,.13.035l.288,0" transform="translate(-220.114 -196.25)" fill="#a1e0f7"/>
          <path id="Trazado_231513" data-name="Trazado 231513" d="M251.585,232.757a.435.435,0,0,0-.05.03c0,.012,0,.024,0,.037.1,0,.192,0,.289,0a.473.473,0,0,1-.129-.064h-.108" transform="translate(-211.424 -195.641)" fill="#a1e0f7"/>
          <path id="Trazado_231514" data-name="Trazado 231514" d="M319.453,320.416a.416.416,0,0,0-.13-.035l-.276.036h.406" transform="translate(-268.171 -269.293)" fill="#a1e0f7"/>
          <path id="Trazado_231515" data-name="Trazado 231515" d="M317.119,320.6l-.366.048h.854a.4.4,0,0,0-.081-.049c-.136,0-.271,0-.406,0" transform="translate(-266.243 -269.477)" fill="#a1e0f7"/>
          <path id="Trazado_231516" data-name="Trazado 231516" d="M252.533,232.763a.474.474,0,0,0,.129.064q.682,0,1.36.05c.5.006,1,.013,1.5.028-.989-.1-1.986-.134-2.987-.143" transform="translate(-212.264 -195.646)" fill="#a1e0f7"/>
          <path id="Trazado_231517" data-name="Trazado 231517" d="M331.979,307.552a2.477,2.477,0,0,1-1.141.823,7.853,7.853,0,0,1-2.056.567,45.736,45.736,0,0,1-4.633.415,12.208,12.208,0,0,1-1.375.1.759.759,0,0,0-.119.054,32.737,32.737,0,0,0,6.66-.5c1.156-.222,2.343-.484,3-1.657-.169-.033-.26.085-.335.2" transform="translate(-271.204 -258.339)" fill="#a1e0f7"/>
          <path id="Trazado_231518" data-name="Trazado 231518" d="M323.4,320.035a12.208,12.208,0,0,0,1.375-.1q-.372.017-.744.031a2.025,2.025,0,0,0-.63.07" transform="translate(-271.831 -268.917)" fill="#a1e0f7"/>
          <path id="Trazado_231519" data-name="Trazado 231519" d="M192.971,331.345a35.6,35.6,0,0,0,6.145-.743,11.166,11.166,0,0,0,3.794-1.367,1.589,1.589,0,0,0,.846-1.585,1.658,1.658,0,0,0-1.12-1.42,12.874,12.874,0,0,0-2.294-.642,5.209,5.209,0,0,1-1.405-.483,1.518,1.518,0,0,1-.895-1.376,1.589,1.589,0,0,1,.9-1.5,4.882,4.882,0,0,1,1.755-.517c-.49,0-.981.036-1.469.052a16.606,16.606,0,0,0-3.073.333,3.5,3.5,0,0,0-1.26.515,1.23,1.23,0,0,0-.024,2.1,3.074,3.074,0,0,0,1.03.454c.709.193,1.434.321,2.138.534a4.134,4.134,0,0,1,1.131.524,1.865,1.865,0,0,1,.185,3.015,5.65,5.65,0,0,1-1.933,1.036,25.708,25.708,0,0,1-6.951,1.233,12.287,12.287,0,0,0-1.825.112h3.7c.083-.368.392-.27.622-.277" transform="translate(-158.567 -270.412)" fill="#a1e0f7"/>
          <path id="Trazado_231520" data-name="Trazado 231520" d="M197.425,329.5a5.646,5.646,0,0,0,1.933-1.036,1.865,1.865,0,0,0-.185-3.015,4.124,4.124,0,0,0-1.131-.524c-.7-.212-1.429-.341-2.138-.534a3.076,3.076,0,0,1-1.03-.454,1.23,1.23,0,0,1,.024-2.1,3.49,3.49,0,0,1,1.26-.515,16.593,16.593,0,0,1,3.073-.333c.487-.017.978-.053,1.469-.052a7.154,7.154,0,0,1,1.185-.025.879.879,0,0,0-.265-.1,29.355,29.355,0,0,0-4.275.137,5.52,5.52,0,0,0-2.44.67,1.427,1.427,0,0,0-.779,1.242,1.408,1.408,0,0,0,.766,1.31,4.677,4.677,0,0,0,1.276.467,8.479,8.479,0,0,1,3.012,1.015,1.7,1.7,0,0,1,.445,2.265,4.139,4.139,0,0,1-2.271,1.429,29.526,29.526,0,0,1-6.969,1.286,5.393,5.393,0,0,0-1.738.217,12.3,12.3,0,0,1,1.825-.112,25.715,25.715,0,0,0,6.951-1.233" transform="translate(-158.566 -269.633)" fill="#a1e0f7"/>
          <path id="Trazado_231521" data-name="Trazado 231521" d="M212.413,331.509a34.4,34.4,0,0,0,6.757-.86,9.346,9.346,0,0,0,3.563-1.431,1.741,1.741,0,0,0-.059-2.88,4.23,4.23,0,0,0-1.365-.568c-.8-.218-1.62-.377-2.41-.629-.853-.273-1.206-.744-1.2-1.435a1.539,1.539,0,0,1,1.2-1.52,9.161,9.161,0,0,1,2.061-.435,6.9,6.9,0,0,0-.753-.039,4.882,4.882,0,0,0-1.755.517,1.589,1.589,0,0,0-.9,1.5,1.518,1.518,0,0,0,.895,1.376,5.21,5.21,0,0,0,1.405.483,12.876,12.876,0,0,1,2.294.642,1.658,1.658,0,0,1,1.12,1.42,1.589,1.589,0,0,1-.846,1.585,11.166,11.166,0,0,1-3.794,1.367,35.6,35.6,0,0,1-6.145.743c-.23.007-.539-.091-.622.277.161-.17.372-.107.564-.113" transform="translate(-178.067 -270.412)" fill="#a1e0f7"/>
          <path id="Trazado_231522" data-name="Trazado 231522" d="M264.222,321.513a6.907,6.907,0,0,1,.753.039c.144-.02.289-.041.432-.064a7.157,7.157,0,0,0-1.185.025" transform="translate(-222.089 -270.212)" fill="#a1e0f7"/>
          <path id="Trazado_231523" data-name="Trazado 231523" d="M135.276,1.145c-.724,1.235-1.437,2.476-2.129,3.729a2.76,2.76,0,0,0,.083,2.947,2.817,2.817,0,0,0,2.752,1.439,2.872,2.872,0,0,0,2.538-1.889,3.077,3.077,0,0,0-.351-2.9c-.75-1.266-1.471-2.548-2.212-3.819-.115-.2-.3-.392-.132-.652h-.119a1.813,1.813,0,0,1-.43,1.145" transform="translate(-111.591)" fill="#82d4f1"/>
          <path id="Trazado_231524" data-name="Trazado 231524" d="M131.811,6.185a3.216,3.216,0,0,0,1.964,3,3.118,3.118,0,0,0,4.023-4.2c-.206-.45-.483-.867-.718-1.3C136.414,2.444,135.6,1.287,135.025,0c-.169.26.017.455.133.652.741,1.271,1.462,2.554,2.212,3.819a3.077,3.077,0,0,1,.351,2.9,2.872,2.872,0,0,1-2.538,1.889,2.818,2.818,0,0,1-2.752-1.439,2.76,2.76,0,0,1-.083-2.947c.692-1.253,1.405-2.494,2.128-3.729A1.813,1.813,0,0,0,134.906,0c-.809,1.434-1.613,2.871-2.429,4.3a4.014,4.014,0,0,0-.666,1.885" transform="translate(-110.791)" fill="#82d4f1"/>
          <path id="Trazado_231525" data-name="Trazado 231525" d="M149.1,112.711a.607.607,0,0,1-.006-.37c.823-3.145-.031-5.935-1.649-8.644-2.57-4.3-5.033-8.669-7.521-13.02a2.559,2.559,0,0,0-.362-.548c-.264.06-.311.3-.412.478q-3.976,6.971-8.016,13.906a10.376,10.376,0,0,0-1.248,7.694,1,1,0,0,1,.039.5c.182.045.183.236.235.375a9.915,9.915,0,0,0,15.661,4.393,10.383,10.383,0,0,0,2.919-4.016c.085-.192.124-.417.312-.545-.048-.093-.051-.168.05-.2m-3.289.749A6.969,6.969,0,0,1,140.862,117c-.174.034-.347.078-.522.1s-.357.019-.395.021c-1.109,0-1.554-.49-1.268-1.238a.78.78,0,0,1,.749-.562,5.525,5.525,0,0,0,4.686-2.583c.247-.4.582-.784,1.169-.61a.888.888,0,0,1,.533,1.331" transform="translate(-108.957 -75.757)" fill="#81d4f1"/>
          <path id="Trazado_231526" data-name="Trazado 231526" d="M129.01,110.442a1,1,0,0,0-.039-.5,10.376,10.376,0,0,1,1.248-7.694q4.032-6.939,8.016-13.906c.1-.177.148-.418.412-.478a2.566,2.566,0,0,1,.362.548c2.488,4.351,4.951,8.717,7.521,13.02,1.618,2.709,2.472,5.5,1.649,8.644a.607.607,0,0,0,.006.37.344.344,0,0,1,.064-.014,10.233,10.233,0,0,0-1.1-8.2c-2.371-4.069-4.71-8.158-7.063-12.238-.48-.833-.963-1.664-1.481-2.559-.119.19-.184.286-.242.387q-4.228,7.334-8.454,14.67a10.046,10.046,0,0,0-.967,7.938h0a.314.314,0,0,1,.065.011" transform="translate(-108.041 -73.494)" fill="#81d4f1"/>
          <path id="Trazado_231527" data-name="Trazado 231527" d="M150.138,232.454a10.384,10.384,0,0,1-2.919,4.016,9.915,9.915,0,0,1-15.661-4.393c-.052-.14-.053-.33-.235-.375a.477.477,0,0,1-.033.084,10.012,10.012,0,0,0,2.45,4.115,10.08,10.08,0,0,0,16.724-3.964c-.006-.009-.01-.018-.015-.028-.187.128-.226.353-.312.545" transform="translate(-110.354 -194.755)" fill="#81d4f1"/>
          <path id="Trazado_231528" data-name="Trazado 231528" d="M131.091,231.636h0c.01.032.021.063.032.1a.464.464,0,0,0,.033-.084.316.316,0,0,0-.065-.011" transform="translate(-110.187 -194.699)" fill="#81d4f1"/>
          <path id="Trazado_231529" data-name="Trazado 231529" d="M251.27,231.945l.016-.009a.261.261,0,0,1,.049-.159c0-.011-.011-.021-.015-.032-.1.033-.1.107-.05.2" transform="translate(-211.175 -194.79)" fill="#81d4f1"/>
          <path id="Trazado_231530" data-name="Trazado 231530" d="M251.769,231.7a.217.217,0,0,1,.049-.046.328.328,0,0,0-.064.014c0,.011.01.021.015.032" transform="translate(-211.609 -194.718)" fill="#81d4f1"/>
          <path id="Trazado_231531" data-name="Trazado 231531" d="M251.441,232.954c0,.009.009.018.015.028,0-.013,0-.025,0-.037l-.016.009" transform="translate(-211.346 -195.799)" fill="#81d4f1"/>
          <path id="Trazado_231532" data-name="Trazado 231532" d="M233.809,41.6a4.534,4.534,0,0,0,4.81-4.487,4.455,4.455,0,0,0-.729-2.53c-1.124-1.915-2.22-3.847-3.33-5.77-.115-.2-.167-.53-.425-.508-.144.012-.285.3-.391.484-.961,1.666-1.9,3.343-2.874,5a7.623,7.623,0,0,0-1.192,2.763,4.607,4.607,0,0,0,4.131,5.045" transform="translate(-193.022 -23.794)" fill="#b9edfb"/>
          <path id="Trazado_231533" data-name="Trazado 231533" d="M192.531,227.868c-.587-.174-.922.214-1.169.61a5.525,5.525,0,0,1-4.686,2.583.78.78,0,0,0-.749.562c-.286.748.16,1.238,1.268,1.238.038,0,.218,0,.395-.021s.348-.065.522-.1a6.97,6.97,0,0,0,4.952-3.542.888.888,0,0,0-.533-1.331" transform="translate(-156.207 -191.496)" fill="#67c5e3"/>
        </g>
      </g>
    </g>
  </g>
</svg>
