<svg xmlns="http://www.w3.org/2000/svg" xmlns:xlink="http://www.w3.org/1999/xlink" width="111.861" height="111.861" viewBox="0 0 111.861 111.861">
  <defs>
    <clipPath id="clip-path">
      <rect id="Rectángulo_295274" data-name="Rectángulo 295274" width="48.648" height="60.629" fill="none"/>
    </clipPath>
  </defs>
  <g id="Grupo_904067" data-name="Grupo 904067" transform="translate(-10141 10578.338)">
    <path id="Trazado_231205" data-name="Trazado 231205" d="M111.862,55.931A55.931,55.931,0,1,1,55.933,0a55.933,55.933,0,0,1,55.929,55.931" transform="translate(10141 -10578.338)" fill="#fff"/>
    <g id="Grupo_881611" data-name="Grupo 881611" transform="translate(10172.802 -10555.346)" opacity="0.8">
      <g id="Grupo_881611-2" data-name="Grupo 881611" clip-path="url(#clip-path)">
        <path id="Trazado_231205-2" data-name="Trazado 231205" d="M143.568,246.916a.542.542,0,0,0-.246-.216l-.1.008a2.006,2.006,0,0,1,.347.209" transform="translate(-117.71 -202.757)" fill="#f8f9fa"/>
        <path id="Trazado_231206" data-name="Trazado 231206" d="M26.8,246.956a.108.108,0,0,1,.038,0c0-.006,0-.011,0-.017l-.036.013" transform="translate(-22.026 -202.956)" fill="#f8f9fa"/>
        <path id="Trazado_231207" data-name="Trazado 231207" d="M173.734,69.823h0c0-.018,0-.036,0-.053l-.037-.022c.011.025.024.048.035.075" transform="translate(-142.759 -57.324)" fill="#f8f9fa"/>
        <path id="Trazado_231208" data-name="Trazado 231208" d="M142.693,246.481a.672.672,0,0,0-.237-.048c.046.017.092.034.136.055l.1-.008" transform="translate(-117.081 -202.537)" fill="#5b828a"/>
        <path id="Trazado_231209" data-name="Trazado 231209" d="M48.648,63.239h0c-.046-.236-.095-.471-.139-.707q-.6-3.135-1.19-6.269-.672-3.521-1.349-7.04c-.551-2.894-1.092-5.79-1.65-8.682-.327-1.691-.7-3.375-1.016-5.067-.309-1.631-.577-3.271-.871-4.9-.048-.268-.05-.543-.494-.534-1.777.039-3.555.032-5.332.043.588,1.153,1.273,2.258,1.761,3.462a5.359,5.359,0,0,0,.594-.006c.421-.048.579.111.6.545a22.845,22.845,0,0,1,.367,2.425,2.17,2.17,0,0,1,.3,1.336h0A32.019,32.019,0,0,1,41,42.154a3.031,3.031,0,0,1,.288,1.308,38.29,38.29,0,0,1,.786,4.306,2.458,2.458,0,0,1,.25,1.279,16.339,16.339,0,0,1,.548,2.525,5.065,5.065,0,0,1,.28,1.811,2.485,2.485,0,0,1,.25,1.306h0a9.678,9.678,0,0,1,.531,2.429,5.284,5.284,0,0,1,.26,1.91,2.172,2.172,0,0,1,.284,1.274c.209.931.414,1.862.629,2.791.079.343-.157.292-.346.291-.841-.006-1.683-.018-2.524-.028l-4.006.013a3.693,3.693,0,0,0-.645.026c-.45.095-.605-.155-.684-.523h0q-.01.83-.707.378a.9.9,0,0,1-.5.138q-3.157-.02-6.314-.026H19.246l-4.946,0h0c-.7.01-1.4.006-2.1.037-.307.013-.448-.1-.456-.392h0c-.273.72-.87.273-1.318.363h0L7.2,63.359c-1.1.009-2.207.008-3.311.031-.35.007-.386-.108-.318-.426.188-.875.335-1.759.5-2.64l.254-1.3.811-4.321a6.182,6.182,0,0,1,.264-1.3l.795-4.36.27-1.26c.27-1.471.468-2.956.872-4.4a3.731,3.731,0,0,1,.194-1.221C7.8,40.7,8,39.22,8.4,37.781h0l.193-1.27h0c.144-.807.282-1.616.433-2.421.068-.362.2-.647.675-.561a5.3,5.3,0,0,0,.856.021l1.48-3.493c-1.734,0-3.468.011-5.2-.022-.437-.009-.568.164-.63.54-.141.84-.3,1.678-.463,2.514-.652,3.333-1.326,6.661-1.959,10-.7,3.7-1.36,7.4-2.053,11.1C1.164,57.21.577,60.226,0,63.244l.014,5.205,0,0,4.774.037h0l11.919,0h0l7.105,0h0c.106,0,.212,0,.318-.005a2.923,2.923,0,0,1,.685-.024,5.165,5.165,0,0,1,1.356.1h0l.043.016c.081-.149.226-.115.352-.115q3.53,0,7.059.014H44.805l3.828-.014h0v-.008l.014-5.211" transform="translate(0 -24.684)" fill="#5b828a"/>
        <path id="Trazado_231210" data-name="Trazado 231210" d="M109.537,255.5a5.179,5.179,0,1,0,9.945-1.388,54.9,54.9,0,0,0-3.683-7.353c-.011-.019-.022-.035-.033-.051a2,2,0,0,0-.347-.208,9.505,9.505,0,0,1-1.638-.053h-.043l-.148.135c-.476.851-.964,1.695-1.424,2.554a37.049,37.049,0,0,0-2.773,5.958.354.354,0,0,1,.143.407" transform="translate(-89.909 -202.548)" fill="#01befc"/>
        <path id="Trazado_231211" data-name="Trazado 231211" d="M134.027,246.431a9.5,9.5,0,0,0,1.638.053c-.044-.021-.09-.038-.136-.055-.025,0-.051,0-.078,0-.474.013-.949,0-1.423,0" transform="translate(-110.154 -202.533)" fill="#01befc"/>
        <path id="Trazado_231212" data-name="Trazado 231212" d="M135.484,245.707c.228-.007.456-.017.685-.024a2.924,2.924,0,0,0-.685.024" transform="translate(-111.351 -201.913)" fill="#01befc"/>
        <path id="Trazado_231213" data-name="Trazado 231213" d="M59.564,7.213c-.456.887-.81,1.818-1.2,2.732a.664.664,0,0,1-.3.34h0a5.533,5.533,0,0,0-.095,2.828c.327.02.654.055.981.058,1.11.011,1.216.082,1.617,1.086.1.242-.106.167-.2.214.1.4.5.01.659.258a1.918,1.918,0,0,0,.758.546,6.129,6.129,0,0,0,3.148-.62,4.42,4.42,0,0,0,1.9-5.671A49.6,49.6,0,0,0,63.354,2.2c-.193-.339-.421-.633-.882-.549-.122.18-.258.352-.365.54q-1.281,2.26-2.552,4.526a.412.412,0,0,1,.009.5" transform="translate(-47.52 -1.344)" fill="#01befc"/>
        <path id="Trazado_231214" data-name="Trazado 231214" d="M59.17,33.653h0c-.007.026-.013.051-.019.077h0a.664.664,0,0,0,.3-.34c.391-.915.745-1.846,1.2-2.732a.411.411,0,0,0-.009-.5l-1.48,3.493" transform="translate(-48.615 -24.788)" fill="#01befc"/>
        <path id="Trazado_231215" data-name="Trazado 231215" d="M186.521,247.716a5.765,5.765,0,1,0,11.4.679,10.5,10.5,0,0,0-.521-1.934q-5.073.008-10.146,0a1.313,1.313,0,0,1-.4-.048l-.03-.013h-.005a.48.48,0,0,1-.1.018h0l-.246.8c.137.157.089.325.045.5" transform="translate(-153.17 -202.509)" fill="#01befc"/>
        <path id="Trazado_231216" data-name="Trazado 231216" d="M199.526,246.413h0l-10.558-.014.03.013a1.313,1.313,0,0,0,.4.048q5.073.008,10.146,0l-.014-.047h0" transform="translate(-155.308 -202.509)" fill="#01befc"/>
        <path id="Trazado_231217" data-name="Trazado 231217" d="M166.809,20.723c-.293,1-.854,1.9-1.076,2.924a.8.8,0,0,0,.3.078.931.931,0,0,1,1.121.555l.037.022a8,8,0,0,1,.263-3.07,10.392,10.392,0,0,1,2.064-3.3c.154-.152.3-.373.56-.251s.217.368.205.587a18.947,18.947,0,0,1-.646,3.237c-.232,1.01-.431,2.029-.707,3.027-.269.971-.531,1.035-1.311.428-.243.236-.551.14-.823.125-.629-.036-.536.316-.363.66a4.428,4.428,0,0,0,3.335,2.549c.318.055.778.4.8-.317h0c-.024-.353-.029-.708-.075-1.058-.112-.844-.117-.813.709-.878.406-.032.49.136.521.468.052.551.128,1.1.193,1.65a4.457,4.457,0,0,0,2.786-6.119,53.812,53.812,0,0,0-3.533-6.9,3.137,3.137,0,0,0-.758-.718c-.7.862-1.129,1.894-1.745,2.809Z" transform="translate(-136.212 -11.856)" fill="#01befc"/>
        <path id="Trazado_231218" data-name="Trazado 231218" d="M106.806,33.651l1.41.035,5.312-.016c.009-.109.024-.219.024-.328,0-.654.4-.931,1.036-.737.216.066.175.216.2.359.035.235-.045.487.1.707l2.134.012.008-.019c.531-.963.955-1.982,1.533-2.921a1.4,1.4,0,0,1,.458-.548l-13.694.006a32.846,32.846,0,0,1,1.482,3.45h0" transform="translate(-86.563 -24.817)" fill="#43707c"/>
        <path id="Trazado_231219" data-name="Trazado 231219" d="M172.522,30.743c-.578.939-1,1.958-1.533,2.921l-.008.019h.141l1.858-3.488a1.4,1.4,0,0,0-.458.548" transform="translate(-140.525 -24.817)" fill="#43707c"/>
        <path id="Trazado_231220" data-name="Trazado 231220" d="M113.48,246.591a3.554,3.554,0,0,1,1.01,1.348,44.282,44.282,0,0,1,3.077,6.692,5.282,5.282,0,0,1-2.373,5.919,5.4,5.4,0,0,1-6.427-.658,5.579,5.579,0,0,1-1.779-3.542c-.06-.477.189-.908.12-1.374a5.261,5.261,0,0,0-.495,2.086,6,6,0,0,0,7.271,5.85,5.847,5.847,0,0,0,4.552-6.894,24.7,24.7,0,0,0-2.317-5.48c-.748-1.426-1.547-2.824-2.324-4.235h0c-.187.033-.374.055-.561.07a.543.543,0,0,1,.246.216" transform="translate(-87.622 -202.432)" fill="#00b1ee"/>
        <path id="Trazado_231221" data-name="Trazado 231221" d="M139.327,245.71a2.093,2.093,0,0,1,.557.125.669.669,0,0,1,.237.048c.187-.015.374-.037.561-.07a5.157,5.157,0,0,0-1.356-.1" transform="translate(-114.51 -201.94)" fill="#00b1ee"/>
        <path id="Trazado_231222" data-name="Trazado 231222" d="M133.782,245.9c.08-.016.157-.029.233-.04-.106,0-.212.005-.318.006h0a.344.344,0,0,0,.009.054.284.284,0,0,1,.077-.019" transform="translate(-109.882 -202.07)" fill="#00b1ee"/>
        <path id="Trazado_231223" data-name="Trazado 231223" d="M133.781,246.425h.043l-.044,0a.039.039,0,0,0,0,0" transform="translate(-109.951 -202.528)" fill="#00b1ee"/>
        <path id="Trazado_231224" data-name="Trazado 231224" d="M108.679,257.673a5.579,5.579,0,0,0,1.779,3.542,5.4,5.4,0,0,0,6.427.658,5.282,5.282,0,0,0,2.373-5.919,44.3,44.3,0,0,0-3.077-6.692,3.554,3.554,0,0,0-1.01-1.348c.011.017.022.033.033.051a54.9,54.9,0,0,1,3.683,7.353,5.179,5.179,0,1,1-9.945,1.388.353.353,0,0,0-.143-.407c.069.466-.18.9-.12,1.374" transform="translate(-89.313 -203.754)" fill="#00b1ee"/>
        <path id="Trazado_231225" data-name="Trazado 231225" d="M133.745,245.814a.336.336,0,0,0,.006.04l.044,0c.475,0,.949.009,1.423,0,.027,0,.053,0,.078,0a2.1,2.1,0,0,0-.557-.125c-.228.006-.456.017-.685.024-.076.011-.153.023-.233.04a.282.282,0,0,0-.077.019" transform="translate(-109.922 -201.96)" fill="#00b1ee"/>
        <path id="Trazado_231226" data-name="Trazado 231226" d="M35.793,246.475h0a1.45,1.45,0,0,1-.381.049c.211.116.206.406.233.63a6.074,6.074,0,0,1-4.571,6.725,6.171,6.171,0,0,1-7.425-4.4c-.08-.315-.076-.668-.391-.88a6.585,6.585,0,0,0,13.08,1.518l-.007-1.678h0a10.141,10.141,0,0,0-.427-1.716.262.262,0,0,1-.109-.255" transform="translate(-19.075 -202.572)" fill="#00b0ee"/>
        <path id="Trazado_231227" data-name="Trazado 231227" d="M26.934,246.018H38.141a.524.524,0,0,1,.3.049,1.442,1.442,0,0,0,.381-.049h0a.679.679,0,0,0-.008-.1h0l-11.919,0a.446.446,0,0,0,.04.1" transform="translate(-22.104 -202.113)" fill="#00b0ee"/>
        <path id="Trazado_231228" data-name="Trazado 231228" d="M195.525,251.237a5.512,5.512,0,0,1-1.109,4.3,6.469,6.469,0,0,1-3.777,2.422,6.333,6.333,0,0,1-6.91-3.646c-.2-.49-.08-1.135-.641-1.468a6.614,6.614,0,0,0,8.039,6.848,6.747,6.747,0,0,0,5.068-5.767,8.89,8.89,0,0,0-.707-3.752c-.334.362,0,.723.038,1.064" transform="translate(-150.461 -205.611)" fill="#00b0ee"/>
        <path id="Trazado_231229" data-name="Trazado 231229" d="M82.16.589a44.692,44.692,0,0,1,3.7,7.186,4.638,4.638,0,0,1-4.5,6.318c-.222,0-.444,0-.665-.015h0c.268.432-.079.916.015,1.363a5.065,5.065,0,0,0,5.36-2.3l-.852-.055c.622-.358.481-1.2,1.3-1.26.156-.012.224-.339.277-.557a4.551,4.551,0,0,0-.2-2.31.648.648,0,0,1-.3-.375c-.372-.915-.746-1.829-1.2-2.71-.076-.149-.172-.319-.017-.485-.6-1.085-1.163-2.191-1.807-3.248A11.152,11.152,0,0,0,82.112.266c-.286-.311-.581-.409-.84.04a.589.589,0,0,1,.888.283" transform="translate(-66.319 0)" fill="#01b1ee"/>
        <path id="Trazado_231230" data-name="Trazado 231230" d="M81.63,1.781a49.578,49.578,0,0,1,3.478,6.786,4.42,4.42,0,0,1-1.9,5.671,6.128,6.128,0,0,1-3.147.62.772.772,0,0,1,.115.145h0c.221.02.443.016.665.015a4.638,4.638,0,0,0,4.5-6.318,44.678,44.678,0,0,0-3.7-7.186.589.589,0,0,0-.888-.283c.461-.084.689.21.881.549" transform="translate(-65.796 -0.926)" fill="#01b1ee"/>
        <path id="Trazado_231231" data-name="Trazado 231231" d="M104.957,30.715c.449.882.824,1.8,1.2,2.71a.648.648,0,0,0,.3.375l-.032-.121h0a32.92,32.92,0,0,0-1.482-3.45c-.155.166-.059.336.016.485" transform="translate(-86.18 -24.845)" fill="#01b1ee"/>
        <path id="Trazado_231232" data-name="Trazado 231232" d="M202.057,51.239a5.346,5.346,0,0,0,2.484-4.31l-.208-1.253a17.555,17.555,0,0,0-1.167-2.906h-.009c-.334-.535-.681-1.065-.989-1.614a22.1,22.1,0,0,1,1.466,3.544,4.576,4.576,0,0,1-2.383,5.331.836.836,0,0,1-.79.143c.083,1.257.13,1.278,1.6,1.066" transform="translate(-164.755 -33.824)" fill="#00b1ef"/>
        <path id="Trazado_231233" data-name="Trazado 231233" d="M192.726,14.208c.741,1.241,1.494,2.477,2.174,3.749a6.936,6.936,0,0,1-.492-1.333c-.489-.8-.966-1.613-1.472-2.406-.207-.324-.4-.785-.934-.418a.83.83,0,0,1,.724.408" transform="translate(-157.802 -11.231)" fill="#00b1ef"/>
        <path id="Trazado_231234" data-name="Trazado 231234" d="M206,31.612q.161.3.315.6c.308.549.654,1.078.989,1.614h.009c-.015-.03-.029-.061-.044-.09-.488-1.2-1.173-2.308-1.761-3.462A6.942,6.942,0,0,0,206,31.612" transform="translate(-168.901 -24.885)" fill="#00b1ef"/>
        <path id="Trazado_231235" data-name="Trazado 231235" d="M192.761,15.144a53.809,53.809,0,0,1,3.533,6.9,4.457,4.457,0,0,1-2.786,6.119c0,.015,0,.028,0,.042a.837.837,0,0,0,.79-.143,4.576,4.576,0,0,0,2.383-5.331,22.118,22.118,0,0,0-1.466-3.544c-.111-.2-.217-.4-.315-.6-.679-1.273-1.433-2.508-2.174-3.75a.831.831,0,0,0-.724-.408,3.136,3.136,0,0,1,.758.718" transform="translate(-157.803 -11.856)" fill="#00b1ef"/>
        <path id="Trazado_231236" data-name="Trazado 231236" d="M208.585,38.369q-.154-.3-.315-.6c.1.2.2.406.315.6" transform="translate(-171.172 -31.038)" fill="#00b1ef"/>
        <path id="Trazado_231237" data-name="Trazado 231237" d="M229.965,260.8a5.893,5.893,0,0,0,3.888-6.572,1.045,1.045,0,0,0-.031-.116,5.912,5.912,0,0,1-3.857,6.688" transform="translate(-189.003 -208.852)" fill="#00b1ee"/>
        <path id="Trazado_231238" data-name="Trazado 231238" d="M249.308,246.355a1.189,1.189,0,0,1-.395.054h-.024a1.207,1.207,0,0,1,.216.418,5.52,5.52,0,0,1,.182.543c0-.14.059-.267.294-.35l-.133-.662c-.031-.006-.061-.014-.092-.022s-.033.011-.049.019" transform="translate(-204.556 -202.458)" fill="#00b1ee"/>
        <path id="Trazado_231239" data-name="Trazado 231239" d="M183.715,254.049c.037.124.077.246.119.366a6.239,6.239,0,0,1-.307-1.629c-.034-.63.331-1.189.319-1.814a7.72,7.72,0,0,0-.68,2.528c.392-.026.467.27.549.548" transform="translate(-150.54 -206.268)" fill="#00b1ee"/>
        <path id="Trazado_231240" data-name="Trazado 231240" d="M190.217,277.366a5.755,5.755,0,0,0,4.632,2.852,6.037,6.037,0,0,1-4.632-2.852" transform="translate(-156.335 -227.96)" fill="#00b1ee"/>
        <path id="Trazado_231241" data-name="Trazado 231241" d="M249.065,246.333h0l-.529.023a.409.409,0,0,1,.063.05h.024a1.183,1.183,0,0,0,.395-.053c.016-.008.033-.013.049-.019h0Z" transform="translate(-204.267 -202.455)" fill="#00b1ee"/>
        <path id="Trazado_231242" data-name="Trazado 231242" d="M185.489,250.938a6.855,6.855,0,0,0,.588,1.259,6.037,6.037,0,0,0,4.631,2.852,6.766,6.766,0,0,0,2.378-.283l.071-.023a5.912,5.912,0,0,0,3.857-6.688,1.376,1.376,0,0,1-.088-.352,5.512,5.512,0,0,0-.182-.543,1.2,1.2,0,0,0-.216-.419h-.1a10.5,10.5,0,0,1,.521,1.934,5.765,5.765,0,1,1-11.4-.679c.044-.177.092-.345-.045-.5.012.625-.353,1.184-.319,1.814a6.238,6.238,0,0,0,.307,1.629" transform="translate(-152.195 -202.791)" fill="#00b1ee"/>
        <path id="Trazado_231243" data-name="Trazado 231243" d="M248.294,246.464l-.053,0h0c0,.016.009.032.014.047h.1a.4.4,0,0,0-.063-.05" transform="translate(-204.023 -202.563)" fill="#00b1ee"/>
        <path id="Trazado_231244" data-name="Trazado 231244" d="M195.272,250.522c.033.117.063.235.088.352a1,1,0,0,1,.031.116,5.893,5.893,0,0,1-3.888,6.572,5.811,5.811,0,0,1-1.052.261,6.04,6.04,0,0,1-1.4.045,5.755,5.755,0,0,1-4.631-2.852,6.025,6.025,0,0,1-.588-1.259c-.042-.12-.082-.241-.119-.366-.082-.278-.157-.574-.549-.548.561.333.444.977.641,1.468a6.333,6.333,0,0,0,6.91,3.646,6.469,6.469,0,0,0,3.777-2.422,5.512,5.512,0,0,0,1.109-4.3c-.043-.341-.372-.7-.038-1.064-.236.084-.3.211-.295.35" transform="translate(-150.541 -205.61)" fill="#00b1ee"/>
        <path id="Trazado_231245" data-name="Trazado 231245" d="M251.126,252.138a1.371,1.371,0,0,0,.088.352c-.025-.118-.055-.235-.088-.352" transform="translate(-206.394 -207.226)" fill="#00b1ee"/>
        <path id="Trazado_231246" data-name="Trazado 231246" d="M216.218,291.967a6.02,6.02,0,0,0,1.4-.045,5.791,5.791,0,0,0,1.052-.261l-.071.023a6.766,6.766,0,0,1-2.378.283" transform="translate(-177.704 -239.709)" fill="#00b1ee"/>
        <path id="Trazado_231247" data-name="Trazado 231247" d="M187.5,271.558a6.865,6.865,0,0,1-.588-1.259,6.026,6.026,0,0,0,.588,1.259" transform="translate(-153.621 -222.152)" fill="#00b1ee"/>
        <path id="Trazado_231248" data-name="Trazado 231248" d="M24.024,249.836a5.783,5.783,0,0,0,4,4.2,5.956,5.956,0,0,0,7.6-4.374,8.332,8.332,0,0,0,.048-2.057.457.457,0,0,0-.273-.469c1.02,3.437-2.064,7-5.517,7.009a5.951,5.951,0,0,1-5.9-5.431c-.047-.577.218-1.122.122-1.7a.109.109,0,0,0-.038,0c-.025.009-.051.017-.076.027a7.657,7.657,0,0,0-.517,2.007c.488.049.469.47.555.789" transform="translate(-19.289 -203.014)" fill="#00b1ef"/>
        <path id="Trazado_231249" data-name="Trazado 231249" d="M23.86,249.715a6.171,6.171,0,0,0,7.425,4.4,6.075,6.075,0,0,0,4.571-6.725c-.026-.224-.022-.514-.233-.63-.093,0-.186,0-.279,0h0c.019.056.035.112.052.168a.457.457,0,0,1,.273.468,8.313,8.313,0,0,1-.048,2.057,5.956,5.956,0,0,1-7.6,4.374,5.783,5.783,0,0,1-4-4.2c-.085-.319-.067-.74-.555-.789.315.212.31.564.391.88" transform="translate(-19.289 -202.802)" fill="#00b1ef"/>
        <path id="Trazado_231250" data-name="Trazado 231250" d="M90.037,246.467c.006.017.01.033.015.05h0c.093,0,.186,0,.279,0a.525.525,0,0,0-.3-.049" transform="translate(-73.999 -202.563)" fill="#00b1ef"/>
        <path id="Trazado_231251" data-name="Trazado 231251" d="M133.085,246.389l-.042,0a.258.258,0,0,0-.086.146l.147-.135-.019-.006" transform="translate(-109.273 -202.498)" fill="#bfcfd3"/>
        <path id="Trazado_231252" data-name="Trazado 231252" d="M133.441,246.343l.042,0a.112.112,0,0,1-.028-.014l-.014.009" transform="translate(-109.672 -202.456)" fill="#bfcfd3"/>
        <path id="Trazado_231253" data-name="Trazado 231253" d="M133.43,245.935c-.008.015,0,.027.013.038a.2.2,0,0,1,.04-.024.325.325,0,0,1-.009-.054c-.016,0-.03.014-.045.041" transform="translate(-109.66 -202.094)" fill="#bfcfd3"/>
        <path id="Trazado_231254" data-name="Trazado 231254" d="M133.7,246.412l-.018,0,.019.006a.045.045,0,0,1,0,0" transform="translate(-109.867 -202.518)" fill="#bfcfd3"/>
        <path id="Trazado_231255" data-name="Trazado 231255" d="M133.559,246.2a.22.22,0,0,0-.04.024.117.117,0,0,0,.028.014l.018,0a.335.335,0,0,1-.006-.04" transform="translate(-109.736 -202.343)" fill="#bfcfd3"/>
        <path id="Trazado_231256" data-name="Trazado 231256" d="M93.855,246.426a.262.262,0,0,0,.109.255c-.07-.071-.032-.178-.055-.265l-.054.011" transform="translate(-77.137 -202.523)" fill="#bfcfd3"/>
        <path id="Trazado_231257" data-name="Trazado 231257" d="M93.87,246.007a.144.144,0,0,0-.063-.089.674.674,0,0,1,.009.1l.054-.011" transform="translate(-77.098 -202.114)" fill="#bfcfd3"/>
        <path id="Trazado_231258" data-name="Trazado 231258" d="M188.469,246.305v0l-.044-.018a.352.352,0,0,0-.057.038A.482.482,0,0,0,188.469,246.305Z" transform="translate(-154.814 -202.416)" fill="#bfced2"/>
        <path id="Trazado_231259" data-name="Trazado 231259" d="M188.688,246.215l.044.017c0-.011-.006-.022-.009-.033a.3.3,0,0,0-.035.015" transform="translate(-155.078 -202.346)" fill="#bfced2"/>
        <path id="Trazado_231260" data-name="Trazado 231260" d="M26.932,246.027h0a.437.437,0,0,1-.039-.1h0a.29.29,0,0,0,.039.1" transform="translate(-22.103 -202.121)" fill="#bfced2"/>
        <path id="Trazado_231261" data-name="Trazado 231261" d="M26.374,247.042h0c.025-.01.05-.019.076-.027a.151.151,0,0,0-.076.027" transform="translate(-21.676 -203.016)" fill="#bfced2"/>
        <path id="Trazado_231262" data-name="Trazado 231262" d="M251.517,246.265c.03.008.061.015.092.022a.249.249,0,0,0-.05-.037l-.041.016" transform="translate(-206.716 -202.386)" fill="#beced2"/>
        <path id="Trazado_231263" data-name="Trazado 231263" d="M251.49,246.17h0l.041-.016a.231.231,0,0,0-.047-.02.149.149,0,0,0,0,.035Z" transform="translate(-206.691 -202.292)" fill="#beced2"/>
        <path id="Trazado_231264" data-name="Trazado 231264" d="M96.869,259.216a2.613,2.613,0,0,0-.007-1.678,5.4,5.4,0,0,1,.007,1.678" transform="translate(-79.609 -211.664)" fill="#00b1ef"/>
        <path id="Trazado_231265" data-name="Trazado 231265" d="M96.869,259.215a5.4,5.4,0,0,0-.007-1.678h0q0,.839.007,1.678" transform="translate(-79.609 -211.663)" fill="#00b1ef"/>
        <path id="Trazado_231266" data-name="Trazado 231266" d="M49,48.683c-1.249.015-1.079.186-1.119-1.1-.018-.576-.01-1.154-.011-1.73a.626.626,0,0,1-.305-.51c-.043-.261-.133-.471-.455-.453-.292.015-.344.226-.384.453a.674.674,0,0,1-.211.468c.022.82.033,1.641.072,2.46.015.317-.086.434-.407.432-1.532-.01-3.064-.013-4.6,0-.373,0-.436-.158-.424-.483.028-.761.029-1.522.039-2.284a4.89,4.89,0,0,1-1.315-.065,2.766,2.766,0,0,1,.132,2.728c-.213.47-.911.552-1.045,1.221.041.093.282.019.376.166,0,.011,0,.022.006.033.265-.052.4.036.385.363-.052,1.219-.09,2.439-.124,3.659-.007.258-.119.344-.368.342q-2.6-.026-5.2-.034c-.341,0-.345-.211-.317-.442.06-.495.131-.988.2-1.482a.521.521,0,0,1-.105-.121,8.177,8.177,0,0,1-.017-1.354,2.146,2.146,0,0,1-.82-.472.469.469,0,0,0-.117-.062c-.136.187-.022.458-.079.67-.068.255-.1.52-.146.781-.077.634-.194,1.266-.219,1.9-.018.463-.183.59-.631.585-1.518-.014-3.037.008-4.556.019l-.008.038c-.088.391-.119.791-.178,1.186,1.5.012,3,.036,4.5.026.478,0,.712.023.6.634-.18,1.023-.246,2.066-.339,3.1-.042.471-.211.659-.735.647-1.638-.038-3.278-.014-4.917-.011v0c-.091.417-.137.843-.237,1.258,1.738.017,3.477.039,5.216.042.353,0,.456.094.406.46q-.219,1.612-.364,3.234c-.042.467-.209.624-.7.617-1.795-.026-3.59,0-5.385,0-.1.431-.159.868-.244,1.3q2.809,0,5.617.007c.262,0,.5-.012.441.371-.134.914-.254,1.831-.38,2.746-.074,1.262.29,1.227-1.327,1.143l-5.172.052c-.058.437-.179.863-.247,1.3l4.591.014c.594,0,1.353-.231,1.739.051.455.332-.028,1.087-.014,1.664a7.66,7.66,0,0,1-.107,1.14,3.527,3.527,0,0,0,1.3-.211c.1-.776.222-1.55.3-2.329.048-.492.372-.307.629-.312,2.087-.008,4.173-.009,6.26-.031.359,0,.461.116.438.461-.052.8-.079,1.607-.114,2.41.432-.022.864-.022,1.3,0,.056-.825.117-1.649.157-2.475.013-.269.073-.395.377-.393q3.271.015,6.542,0c.352,0,.4.175.4.452.013.806.035,1.611.054,2.417a13.019,13.019,0,0,1,1.305,0c0-.8.006-1.605-.02-2.408-.011-.337.069-.467.431-.465q3.191.021,6.383,0c.345,0,.471.121.5.438.04.483.1.965.145,1.448h0l.077.65.024-.025a1.6,1.6,0,0,0,1.3.374c-.061-.824-.105-1.65-.206-2.468-.043-.348.04-.422.361-.412.734.024,1.468.021,2.2.03l3.769-.039c-.062-.431-.171-.853-.271-1.276l-4.4-.053a2.538,2.538,0,0,1-.913,0c-1.021.065-1,.063-1.089-.936a22.461,22.461,0,0,0-.32-2.7c-.13-.618.106-.637.585-.634,1.782.012,3.565-.006,5.347-.014q-.114-.657-.262-1.307-2.732,0-5.464.007c-.245,0-.41-.016-.443-.333-.128-1.232-.281-2.461-.436-3.689-.046-.366.221-.264.387-.267,1.712-.023,3.425-.037,5.137-.052l0-.013c-.067-.426-.159-.847-.251-1.268l-5.066.014c-.2,0-.382.022-.413-.283-.119-1.209-.261-2.416-.4-3.623-.034-.289.014-.461.368-.456,1.567.023,3.133.03,4.7.042l0-.023c-.068-.429-.16-.854-.254-1.278v-.007l-3.277-.049a1.442,1.442,0,0,1-.456.236,2.3,2.3,0,0,1-.66.054c-.834-.03-1.147-.578-.791-1.369a.6.6,0,0,1-.067-.036,3.252,3.252,0,0,1-.277-1.339c-.027-.341-.127-.626-.549-.564s-.355.374-.315.664a5.922,5.922,0,0,1,.037,1.117.773.773,0,0,1-.078.283c.245,1.007.133,1.017-1.091,1.006a6.806,6.806,0,0,1-1.58-.057h0c-.929.013-1.857.02-2.785.045-.275.007-.389-.064-.4-.363-.027-1.059-.094-2.118-.122-3.177-.022-.827-.007-.827.872-.775a3.856,3.856,0,0,1,.951-.016,2.063,2.063,0,0,1,.5-.067l.3-.011a1.344,1.344,0,0,0,.173-.07.711.711,0,0,1-.289-.48c-.01-.027-.023-.05-.035-.076-.458-.28-1.039-.257-1.479-.583,0-.017-.005-.032-.009-.049M38.966,69.877c-.04,1.33-.04,1.33-1.393,1.33-1.757,0-3.514-.007-5.271.006-.4,0-.583-.015-.5-.531.166-.98.229-1.977.312-2.969.046-.549.19-.846.864-.814,1.42.068,2.845.025,4.269.028h0c1.856-.2,1.864-.2,1.81,1.571a4.266,4.266,0,0,1-.1,1.379M48.243,58c-.026-.642-.04-1.286-.083-1.927-.023-.34.081-.469.442-.465,1.734.019,3.469.02,5.2.015.329,0,.458.1.49.451.1,1.079.239,2.155.378,3.23.061.468,0,.713-.591.7-1.622-.041-3.246-.005-4.869,0a5.685,5.685,0,0,0,.54,1.245c1.55.018,3.1.049,4.65.045.422,0,.519.188.554.552.1,1.075.216,2.15.366,3.22.057.407-.017.545-.454.538-1.374-.022-2.748,0-4.122,0L50.541,66.9c1.467.009,2.935.033,4.4.017.4,0,.607.1.649.518q.177,1.75.395,3.5c.036.286-.121.282-.308.282-2.179,0-4.358,0-6.537,0-.261,0-.351-.105-.348-.355,0-.332-.013-.665-.022-1h0a2.068,2.068,0,0,1-.068-.314c-.07-1.14-.075-1.185-1.159-1.168l-.134.095c.018.613.009,1.228.073,1.835.072.689-.275.925-.878.931q-1.867.015-3.735.007c-.688,0-1.376-.045-2.064-.042-.4,0-.571-.149-.536-.555.053-.618.085-1.237.126-1.856a1.536,1.536,0,0,0-1.37-2.029,4.2,4.2,0,0,1-2.041-1.181c-1.377,0-2.753,0-4.13.02-.382.006-.471-.073-.408-.483.155-1,.258-2.017.325-3.031.039-.6.241-.819.88-.8,1.44.039,2.883-.014,4.324-.03L38.519,60c-1.644,0-3.287-.021-4.931,0-.439,0-.576-.1-.507-.559.156-1.049.272-2.1.362-3.161.039-.451.153-.668.668-.66,1.621.027,3.243.028,4.863-.013.553-.014.619.2.573.663-.056.572-.047,1.15-.066,1.726l1.959-3.607c-.363.035-.58-.034-.548-.494.081-1.172.126-2.347.163-3.522.009-.307.141-.365.408-.364q2.4.011,4.8,0c.263,0,.4.049.411.359.032,1.176.07,2.352.149,3.525.031.458-.18.531-.543.5L48.243,58" transform="translate(-19.545 -36.891)" fill="#fdce05"/>
        <path id="Trazado_231267" data-name="Trazado 231267" d="M108.057,216.05q0,.089-.008.179h1.291l.012-.181c-.432-.02-.864-.021-1.3,0" transform="translate(-88.803 -177.553)" fill="#fdce05"/>
        <path id="Trazado_231268" data-name="Trazado 231268" d="M157.646,216.05c0,.06,0,.12,0,.18h1.3c0-.059,0-.118,0-.177a12.964,12.964,0,0,0-1.305,0" transform="translate(-129.565 -177.554)" fill="#fdce05"/>
        <path id="Trazado_231269" data-name="Trazado 231269" d="M235.735,130.86l0,.013h.126a2.459,2.459,0,0,0-.25-1.279h-.129c.093.421.185.842.251,1.267" transform="translate(-193.539 -106.509)" fill="#fdce05"/>
        <path id="Trazado_231270" data-name="Trazado 231270" d="M35.173,129.7v0h-.153l-.27,1.26.184,0c.1-.415.146-.841.237-1.258" transform="translate(-28.562 -106.592)" fill="#fdce05"/>
        <path id="Trazado_231271" data-name="Trazado 231271" d="M229.468,98.075c.094.424.186.849.254,1.278l0,.023h.156a3.034,3.034,0,0,0-.288-1.308l-.127,0v.007" transform="translate(-188.593 -80.6)" fill="#fdce05"/>
        <path id="Trazado_231272" data-name="Trazado 231272" d="M247.7,194.075h.134a2.171,2.171,0,0,0-.284-1.273l-.121,0c.1.423.209.845.271,1.276" transform="translate(-203.354 -158.457)" fill="#fdce05"/>
        <path id="Trazado_231273" data-name="Trazado 231273" d="M59.839,215.012a3.526,3.526,0,0,1-1.3.211c-.007.057-.015.114-.021.17.448-.09,1.044.357,1.318-.363h0l0-.018" transform="translate(-48.095 -176.713)" fill="#fdce05"/>
        <path id="Trazado_231274" data-name="Trazado 231274" d="M241.764,162.422h.122a2.485,2.485,0,0,0-.25-1.306H241.5q.147.65.262,1.307" transform="translate(-198.485 -132.417)" fill="#fdce05"/>
        <path id="Trazado_231275" data-name="Trazado 231275" d="M41.508,98.175l.008-.038h-.161a3.731,3.731,0,0,0-.194,1.221l.169,0c.06-.4.091-.795.179-1.186" transform="translate(-33.828 -80.656)" fill="#fdce05"/>
        <path id="Trazado_231276" data-name="Trazado 231276" d="M207.177,214.087l-.024.025,0,.027h0c.079.368.233.618.684.523a3.709,3.709,0,0,1,.645-.026c0-.059-.008-.117-.013-.176a1.6,1.6,0,0,1-1.3-.374" transform="translate(-170.254 -175.953)" fill="#fdce05"/>
        <path id="Trazado_231277" data-name="Trazado 231277" d="M23.243,192.8l-.163,0h0l-.254,1.3H23c.068-.436.189-.861.247-1.3" transform="translate(-18.76 -158.456)" fill="#fdce05"/>
        <path id="Trazado_231278" data-name="Trazado 231278" d="M29.223,161.242h-.152a6.187,6.187,0,0,0-.265,1.3h.173c.085-.433.145-.871.244-1.3" transform="translate(-23.675 -132.521)" fill="#fdce05"/>
        <path id="Trazado_231279" data-name="Trazado 231279" d="M74.761,75.285a.457.457,0,0,1,.117.062,2.145,2.145,0,0,0,.82.472c0-.042,0-.084.006-.125a1.917,1.917,0,0,1-.758-.545.411.411,0,0,0-.186.136" transform="translate(-61.444 -61.763)" fill="#fdce05"/>
        <path id="Trazado_231280" data-name="Trazado 231280" d="M170.849,73.261c-.1,0-.2.008-.3.011a2.081,2.081,0,0,0-.5.066,2.178,2.178,0,0,0,.8-.078" transform="translate(-139.759 -60.211)" fill="#fdce05"/>
        <path id="Trazado_231281" data-name="Trazado 231281" d="M165.355,66.244c.44.326,1.021.3,1.479.583a.931.931,0,0,0-1.121-.555.8.8,0,0,1-.3-.078h-.069c0,.016,0,.032.009.049" transform="translate(-135.894 -54.403)" fill="#fdce05"/>
        <path id="Trazado_231282" data-name="Trazado 231282" d="M192.448,81.632a5.937,5.937,0,0,0-.037-1.117c-.041-.29-.1-.6.315-.664s.522.223.549.564a3.252,3.252,0,0,0,.277,1.339.605.605,0,0,0,.067.036c0-.011.009-.022.014-.033-.066-.55-.142-1.1-.193-1.65-.031-.332-.115-.5-.521-.468-.826.065-.821.034-.709.878.046.35.051.705.075,1.058h0c.032.125.059.236.085.339a.773.773,0,0,0,.078-.283" transform="translate(-157.929 -65.45)" fill="#fdce05"/>
        <path id="Trazado_231283" data-name="Trazado 231283" d="M115.051,49.807c0-.058,0-.116,0-.174l-1.41-.035c.033.048.064.1.094.144a4.892,4.892,0,0,0,1.315.065" transform="translate(-93.4 -40.763)" fill="#fdce05"/>
        <path id="Trazado_231284" data-name="Trazado 231284" d="M151.594,44.1c.04-.228.092-.438.384-.453.323-.017.412.192.455.453a.625.625,0,0,0,.305.509c0-.035,0-.07,0-.1-.146-.22-.066-.472-.1-.707-.021-.143.019-.293-.2-.359-.634-.194-1.036.083-1.036.737,0,.109-.016.219-.024.328,0,.021,0,.043,0,.064a.676.676,0,0,0,.211-.468" transform="translate(-124.416 -35.653)" fill="#fdce05"/>
        <path id="Trazado_231285" data-name="Trazado 231285" d="M107,54.412c-.095-.146-.336-.073-.376-.166.134-.669.831-.752,1.045-1.221a2.765,2.765,0,0,0-.132-2.728l-.035-.008c-.01,0-.017-.011-.027-.016a4.551,4.551,0,0,1,.2,2.31c-.053.218-.121.545-.277.557-.815.062-.674.9-1.3,1.26l.852.055c.02,0,.037-.007.055-.011,0-.011,0-.021-.006-.033" transform="translate(-87.198 -41.319)" fill="#fdce05"/>
        <path id="Trazado_231286" data-name="Trazado 231286" d="M79.952,80.269a.518.518,0,0,0,.106.121l.013-.091c-.094-.446.252-.931-.015-1.363a1.006,1.006,0,0,1-.121-.02,8.178,8.178,0,0,0,.017,1.354" transform="translate(-65.681 -64.858)" fill="#fdce05"/>
        <path id="Trazado_231287" data-name="Trazado 231287" d="M80.145,78.356a.779.779,0,0,0-.115-.145c0,.042,0,.084-.006.125a1.079,1.079,0,0,0,.12.02" transform="translate(-65.771 -64.28)" fill="#fdce05"/>
        <path id="Trazado_231288" data-name="Trazado 231288" d="M113.735,49.741c-.03-.048-.06-.1-.094-.144h0l.032.121c.01,0,.017.012.027.016l.035.008" transform="translate(-93.399 -40.763)" fill="#fdce05"/>
        <path id="Trazado_231289" data-name="Trazado 231289" d="M200.488,93.1a2.3,2.3,0,0,0,.66-.054,1.445,1.445,0,0,0,.456-.235l-.295,0h0c-1.465.212-1.512.191-1.6-1.066l-.017-.009c-.356.791-.043,1.339.791,1.369" transform="translate(-164.007 -75.394)" fill="#fdce05"/>
        <path id="Trazado_231290" data-name="Trazado 231290" d="M200.383,91.589c0-.015,0-.027,0-.043-.005.011-.009.022-.014.033l.017.009" transform="translate(-164.676 -75.239)" fill="#fdce05"/>
        <path id="Trazado_231291" data-name="Trazado 231291" d="M215.921,169.145c-1.393.012-2.786,0-4.179.009-.711.006-.759.058-.682.773.08.746.2,1.49.243,2.236.036.614.282.893.895.843l.263.011a.484.484,0,0,1,.389,0c.11,0,.22-.01.33-.023,1.179-.012,2.357-.01,3.535,0a1.332,1.332,0,0,1,.779.128c-.211-1.376-.477-2.742-.75-4.106a1.263,1.263,0,0,1-.821.132" transform="translate(-173.443 -138.908)" fill="#fefefe"/>
        <path id="Trazado_231292" data-name="Trazado 231292" d="M243.834,172.654a.637.637,0,0,1,.144.132,5.279,5.279,0,0,0-.26-1.91,9.681,9.681,0,0,0-.531-2.429.633.633,0,0,1-.1.1c.273,1.365.539,2.73.75,4.106" transform="translate(-199.785 -138.443)" fill="#fefefe"/>
        <path id="Trazado_231293" data-name="Trazado 231293" d="M210.094,168.466c-.479,0-.715.016-.585.634a22.465,22.465,0,0,1,.32,2.7c.085,1,.068,1,1.089.936a.835.835,0,0,1,.261-.181q-.132,0-.263-.011c-.613.051-.859-.228-.895-.842-.043-.747-.162-1.491-.243-2.236-.077-.715-.028-.767.682-.773,1.393-.011,2.786,0,4.179-.008a1.262,1.262,0,0,0,.821-.132c0-.024-.01-.048-.014-.072s0-.019-.005-.029c-1.782.008-3.565.026-5.347.015" transform="translate(-172.161 -138.446)" fill="#fefefe"/>
        <path id="Trazado_231294" data-name="Trazado 231294" d="M225.093,191.312c-1.178-.008-2.357-.011-3.535,0-.11.013-.22.019-.33.023a.837.837,0,0,1,.263.182l4.4.053-.006-.026c-.005-.035-.012-.069-.017-.1a1.331,1.331,0,0,0-.779-.128" transform="translate(-181.822 -157.229)" fill="#fefefe"/>
        <path id="Trazado_231295" data-name="Trazado 231295" d="M247.3,192.065c.005.035.012.07.017.1l.006.026h.121a.637.637,0,0,0-.144-.132" transform="translate(-203.247 -157.854)" fill="#fefefe"/>
        <path id="Trazado_231296" data-name="Trazado 231296" d="M242.979,168.476l.014.072a.636.636,0,0,0,.1-.1h-.122c0,.009,0,.019.006.028" transform="translate(-199.694 -138.443)" fill="#fefefe"/>
        <path id="Trazado_231297" data-name="Trazado 231297" d="M26.086,173.14c1.422-.007,2.844-.013,4.265,0,.088,0-.024,0,.065,0l.211.011c.249-.432.388-.993,1.033-.967l.009-.079c.077-.707.137-1.417.253-2.117.084-.51-.11-.688-.6-.688-1.469,0-2.938.007-4.407,0a1.559,1.559,0,0,1-.792-.105c-.229,1.351-.473,2.7-.765,4.037a1.5,1.5,0,0,1,.725-.092" transform="translate(-20.844 -139.057)" fill="#fefefe"/>
        <path id="Trazado_231298" data-name="Trazado 231298" d="M24.45,172.7c.292-1.339.537-2.686.765-4.037a.666.666,0,0,1-.152-.115l-.811,4.321h0a.63.63,0,0,1,.2-.169" transform="translate(-19.933 -138.526)" fill="#fefefe"/>
        <path id="Trazado_231299" data-name="Trazado 231299" d="M30.45,168.77c1.469.01,2.938.005,4.407,0,.488,0,.682.177.6.688-.115.7-.176,1.41-.253,2.117l-.009.079a1.326,1.326,0,0,1,.164.017h0c.126-.916.247-1.832.38-2.746.056-.383-.179-.371-.441-.371q-2.809,0-5.617-.007c0,.025-.009.049-.014.074l-.007.041a1.559,1.559,0,0,0,.792.105" transform="translate(-24.375 -138.527)" fill="#fefefe"/>
        <path id="Trazado_231300" data-name="Trazado 231300" d="M30.471,191.324l-.211-.011c-.089,0,.023,0-.065,0-1.421-.012-2.843-.007-4.265,0a1.5,1.5,0,0,0-.725.092c-.01.047-.02.094-.03.142,0,.009,0,.017,0,.026l5.171-.052a1.518,1.518,0,0,0,.129-.193" transform="translate(-20.687 -157.227)" fill="#fefefe"/>
        <path id="Trazado_231301" data-name="Trazado 231301" d="M24.421,192c.01-.047.02-.094.03-.141a.634.634,0,0,0-.2.169l.163,0c0-.009,0-.017,0-.026" transform="translate(-19.934 -157.685)" fill="#fefefe"/>
        <path id="Trazado_231302" data-name="Trazado 231302" d="M28.965,168.623c0-.024.009-.049.014-.074h-.173a.674.674,0,0,0,.152.115l.007-.041" transform="translate(-23.675 -138.526)" fill="#fefefe"/>
        <path id="Trazado_231303" data-name="Trazado 231303" d="M32.075,141.3c1.4-.01,2.8,0,4.195-.007.762-.007.82-.074.909-.819.094-.792.169-1.586.279-2.375.064-.463-.107-.611-.566-.653-1.351-.126-2.7-.128-4.056-.127a2.02,2.02,0,0,1-.735-.065c-.265,1.377-.454,2.769-.778,4.135a1.623,1.623,0,0,1,.753-.089" transform="translate(-25.743 -112.806)" fill="#fefefe"/>
        <path id="Trazado_231304" data-name="Trazado 231304" d="M31.253,136.856a.767.767,0,0,1-.167-.086l-.795,4.36a.66.66,0,0,1,.184-.138c.324-1.366.514-2.758.778-4.135" transform="translate(-24.895 -112.408)" fill="#fefefe"/>
        <path id="Trazado_231305" data-name="Trazado 231305" d="M36.53,141.134c.491.007.658-.15.7-.617q.144-1.621.364-3.234c.05-.367-.053-.46-.406-.46-1.738,0-3.477-.025-5.216-.042,0,.008,0,.016-.005.024l-.011.06a2.02,2.02,0,0,0,.735.065c1.353,0,2.7,0,4.056.127.459.043.631.19.566.653-.11.789-.185,1.584-.279,2.375-.089.745-.147.812-.909.819-1.4.012-2.8,0-4.195.007a1.626,1.626,0,0,0-.753.089c-.01.043-.02.087-.03.131v.007c1.795-.007,3.59-.03,5.385,0" transform="translate(-25.597 -112.416)" fill="#fefefe"/>
        <path id="Trazado_231306" data-name="Trazado 231306" d="M34.931,136.8c0-.008,0-.016.005-.024l-.184,0a.777.777,0,0,0,.167.086c0-.02.007-.04.011-.06" transform="translate(-28.563 -112.408)" fill="#fefefe"/>
        <path id="Trazado_231307" data-name="Trazado 231307" d="M30.445,160.6c.011-.043.02-.087.03-.131a.656.656,0,0,0-.184.138h.152V160.6" transform="translate(-24.895 -131.886)" fill="#fefefe"/>
        <path id="Trazado_231308" data-name="Trazado 231308" d="M208.03,137.19c-.446-.01-.664.144-.613.621.095.881.228,1.758.311,2.64.047.492.386.583.806.583,1.377,0,2.753,0,4.13,0a1.721,1.721,0,0,1,.8.1c-.214-1.412-.573-2.8-.8-4.206a18.164,18.164,0,0,1-2.775.247,16.6,16.6,0,0,1-1.864.008" transform="translate(-170.465 -112.544)" fill="#fefefe"/>
        <path id="Trazado_231309" data-name="Trazado 231309" d="M236.934,136.8c.223,1.41.582,2.794.8,4.206a.744.744,0,0,1,.153.1,5.065,5.065,0,0,0-.28-1.811,16.366,16.366,0,0,0-.548-2.525c-.04.011-.081.019-.121.029" transform="translate(-194.73 -112.412)" fill="#fefefe"/>
        <path id="Trazado_231310" data-name="Trazado 231310" d="M205.872,137.1c.155,1.229.307,2.458.436,3.689.033.317.2.334.443.333q2.732-.009,5.464-.007c0-.01,0-.02-.006-.03s-.008-.047-.011-.07a1.721,1.721,0,0,0-.8-.1c-1.377-.007-2.754,0-4.13,0-.42,0-.76-.091-.806-.583-.083-.883-.216-1.759-.311-2.64-.051-.478.167-.631.613-.621a16.607,16.607,0,0,0,1.864-.008,18.164,18.164,0,0,0,2.775-.247l0-.027c-1.712.016-3.425.029-5.137.053-.166,0-.433-.1-.387.266" transform="translate(-169.197 -112.418)" fill="#fefefe"/>
        <path id="Trazado_231311" data-name="Trazado 231311" d="M241.412,160.621l.007.03h.135a.746.746,0,0,0-.153-.1c0,.024.008.047.011.071" transform="translate(-198.402 -131.952)" fill="#fefefe"/>
        <path id="Trazado_231312" data-name="Trazado 231312" d="M236.913,136.8c.04-.01.081-.017.121-.029h-.125c0,.009,0,.018,0,.027" transform="translate(-194.709 -112.412)" fill="#fefefe"/>
        <path id="Trazado_231313" data-name="Trazado 231313" d="M38.036,109.694c1.263-.01,2.527.007,3.79-.009.7-.009.812-.113.884-.793.089-.836.179-1.671.278-2.505.059-.49-.132-.681-.627-.675-1.174.015-2.349.011-3.524,0a1.439,1.439,0,0,1-.732-.1c-.35,1.375-.529,2.785-.836,4.168a1.749,1.749,0,0,1,.766-.084" transform="translate(-30.631 -86.798)" fill="#fefefe"/>
        <path id="Trazado_231314" data-name="Trazado 231314" d="M37.28,105.106a.632.632,0,0,1-.143-.109c-.4,1.444-.6,2.929-.872,4.4a.684.684,0,0,1,.179-.122c.307-1.384.485-2.793.836-4.168" transform="translate(-29.805 -86.295)" fill="#fefefe"/>
        <path id="Trazado_231315" data-name="Trazado 231315" d="M42.04,109.414c.524.012.693-.176.735-.647.093-1.036.159-2.08.339-3.1.108-.611-.127-.637-.6-.634-1.5.01-3-.014-4.5-.026v0c-.009.035-.017.07-.025.1a1.441,1.441,0,0,0,.732.1c1.175.011,2.35.014,3.524,0,.5-.006.686.185.627.675-.1.834-.19,1.67-.278,2.505-.072.68-.182.784-.884.793-1.263.015-2.527,0-3.79.009a1.752,1.752,0,0,0-.766.084c-.009.041-.017.081-.026.122,1.639,0,3.279-.027,4.917.011" transform="translate(-30.51 -86.301)" fill="#fefefe"/>
        <path id="Trazado_231316" data-name="Trazado 231316" d="M36.445,129.011a.681.681,0,0,0-.179.122h.153c.009-.04.017-.081.026-.122" transform="translate(-29.806 -106.031)" fill="#fefefe"/>
        <path id="Trazado_231317" data-name="Trazado 231317" d="M41.328,105v0l-.169,0a.629.629,0,0,0,.143.109c.009-.035.016-.07.025-.1" transform="translate(-33.828 -86.294)" fill="#fefefe"/>
        <path id="Trazado_231318" data-name="Trazado 231318" d="M207.879,105.888c-1.087.009-2.174-.007-3.26.007-.716.01-.8.115-.715.838.09.792.187,1.582.257,2.376a.727.727,0,0,0,.861.76c1.242-.023,2.484-.012,3.726,0a1.646,1.646,0,0,1,.744.1c-.221-1.388-.556-2.754-.784-4.141a2.269,2.269,0,0,1-.828.068" transform="translate(-167.562 -86.971)" fill="#fefefd"/>
        <path id="Trazado_231319" data-name="Trazado 231319" d="M230.992,105.492c.227,1.387.563,2.753.784,4.141a.72.72,0,0,1,.145.093,38.289,38.289,0,0,0-.786-4.305.821.821,0,0,1-.143.071" transform="translate(-189.847 -86.643)" fill="#fefefd"/>
        <path id="Trazado_231320" data-name="Trazado 231320" d="M202.429,105.633c.141,1.207.283,2.414.4,3.623.03.305.211.284.413.283l5.066-.013,0-.011c0-.028-.009-.055-.014-.083a1.644,1.644,0,0,0-.744-.1c-1.242-.008-2.484-.019-3.726,0a.727.727,0,0,1-.861-.76c-.071-.793-.167-1.584-.258-2.376-.082-.724,0-.829.715-.838,1.087-.015,2.173,0,3.26-.007a2.273,2.273,0,0,0,.828-.068c0-.024-.008-.048-.012-.072-1.567-.012-3.134-.02-4.7-.042-.354,0-.4.167-.368.456" transform="translate(-166.365 -86.442)" fill="#fefefd"/>
        <path id="Trazado_231321" data-name="Trazado 231321" d="M235.408,129.151l0,.011h.129a.711.711,0,0,0-.145-.094c0,.028.009.055.014.083" transform="translate(-193.465 -106.078)" fill="#fefefd"/>
        <path id="Trazado_231322" data-name="Trazado 231322" d="M230.935,105.486a.819.819,0,0,0,.143-.071h-.156c0,.024.008.048.012.072" transform="translate(-189.79 -86.637)" fill="#fefefd"/>
        <path id="Trazado_231323" data-name="Trazado 231323" d="M123.122,202.6c-.029-1.469.1-1.358-1.379-1.362-1.575,0-3.15-.007-4.725,0-.746,0-.726.045-.834.786a5.327,5.327,0,0,1-.268,1.861q3.656-.056,7.312,0a2.649,2.649,0,0,1-.105-1.287" transform="translate(-95.268 -165.393)" fill="#fefefe"/>
        <path id="Trazado_231324" data-name="Trazado 231324" d="M115.405,216a1.47,1.47,0,0,1-.11.178h7.548a.983.983,0,0,1-.125-.178q-3.656-.058-7.312,0" transform="translate(-94.758 -177.501)" fill="#fefefe"/>
        <path id="Trazado_231325" data-name="Trazado 231325" d="M122.441,200.014q-3.271.019-6.542,0c-.3,0-.364.125-.377.394-.04.825-.1,1.65-.157,2.475l.07,0h.028a5.325,5.325,0,0,0,.268-1.861c.108-.741.088-.782.835-.786,1.575-.009,3.15-.006,4.725,0,1.483,0,1.35-.107,1.379,1.362a2.649,2.649,0,0,0,.105,1.287h.051l.069,0c-.019-.806-.042-1.611-.054-2.417,0-.277-.048-.454-.4-.452" transform="translate(-94.816 -164.387)" fill="#fefefe"/>
        <path id="Trazado_231326" data-name="Trazado 231326" d="M157.019,216.12h-.051a.982.982,0,0,0,.125.178c0-.06,0-.12,0-.18l-.07,0" transform="translate(-129.008 -177.622)" fill="#fefefe"/>
        <path id="Trazado_231327" data-name="Trazado 231327" d="M115.378,216.122l-.07,0c0,.06-.008.12-.012.181a1.477,1.477,0,0,0,.11-.178h-.028" transform="translate(-94.759 -177.623)" fill="#fefefe"/>
        <path id="Trazado_231328" data-name="Trazado 231328" d="M172.838,202.893a5.658,5.658,0,0,1-.112-.786c-.075-.795-.151-.881-.918-.886q-2.622-.016-5.244,0c-.7,0-.746.064-.76.764-.009.441,0,.883-.006,1.325a1.329,1.329,0,0,1-.09.561c2.155-.049,4.311.018,6.465-.04a.973.973,0,0,0,.257.034l.451-.759a1.149,1.149,0,0,0-.042-.213" transform="translate(-136.191 -165.373)" fill="#fefefe"/>
        <path id="Trazado_231329" data-name="Trazado 231329" d="M171.569,215.906c-2.154.058-4.31-.01-6.465.04a.612.612,0,0,1-.13.178q3.157.011,6.314.026a.9.9,0,0,0,.5-.138l.043-.072a.958.958,0,0,1-.257-.034" transform="translate(-135.588 -177.448)" fill="#fefefe"/>
        <path id="Trazado_231330" data-name="Trazado 231330" d="M165.1,200.987c.015-.7.064-.76.76-.764q2.622-.014,5.244,0c.767,0,.844.091.918.886a5.66,5.66,0,0,0,.112.786,1.144,1.144,0,0,1,.042.212l.132-.223h0c-.049-.483-.105-.964-.145-1.448-.026-.316-.152-.44-.5-.437q-3.191.025-6.383,0c-.362,0-.442.127-.431.465.025.8.018,1.6.02,2.408h.02l.11,0a1.328,1.328,0,0,0,.09-.56c.01-.442,0-.883.006-1.325" transform="translate(-135.492 -164.374)" fill="#fefefe"/>
        <path id="Trazado_231331" data-name="Trazado 231331" d="M164.993,216.132h-.021c0,.059,0,.118,0,.177a.617.617,0,0,0,.13-.178l-.11,0" transform="translate(-135.587 -177.632)" fill="#fefefe"/>
        <path id="Trazado_231332" data-name="Trazado 231332" d="M43.992,77.744c1.128-.01,2.255-.014,3.383,0a.774.774,0,0,0,.911-.8,13.944,13.944,0,0,1,.2-1.508c.008-.037.014-.075.02-.112a4.509,4.509,0,0,1-1.839-1.757l-2.519-.03v.008c-.37,1.4-.548,2.846-.86,4.261a1.838,1.838,0,0,1,.7-.067" transform="translate(-35.579 -60.442)" fill="#fefefe"/>
        <path id="Trazado_231333" data-name="Trazado 231333" d="M43.3,73.54v-.008l-.175,0c-.4,1.439-.593,2.921-.872,4.384a.681.681,0,0,1,.185-.113c.312-1.415.489-2.858.86-4.261" transform="translate(-34.724 -60.432)" fill="#fefefe"/>
        <path id="Trazado_231334" data-name="Trazado 231334" d="M47.712,86.149c.447,0,.613-.123.631-.585.024-.636.141-1.269.219-1.9-.055-.028-.108-.058-.162-.087-.007.037-.013.075-.02.112a13.944,13.944,0,0,0-.2,1.508.774.774,0,0,1-.911.8c-1.127-.014-2.255-.01-3.383,0a1.837,1.837,0,0,0-.7.067c-.008.037-.016.074-.024.112,1.519-.01,3.037-.032,4.556-.019" transform="translate(-35.469 -68.687)" fill="#fefefe"/>
        <path id="Trazado_231335" data-name="Trazado 231335" d="M42.435,97.51a.68.68,0,0,0-.185.113h.161c.008-.037.016-.074.024-.112" transform="translate(-34.724 -80.141)" fill="#fefefe"/>
        <path id="Trazado_231336" data-name="Trazado 231336" d="M77.954,202.518c0-.176.051-.35.066-.526.062-.707-.027-.816-.744-.825-1.86-.023-3.721.024-5.58-.023-.017,0-.031,0-.047,0l1.433,2.649c.065,0,.129,0,.194.007,1.584,0,3.167-.031,4.749.013a2.813,2.813,0,0,1-.071-1.295" transform="translate(-58.887 -165.314)" fill="#fefefe"/>
        <path id="Trazado_231337" data-name="Trazado 231337" d="M79.886,216.009c-.064,0-.129-.006-.194-.007l.105.195,4.946,0h0a1.053,1.053,0,0,1-.108-.178c-1.583-.043-3.166-.013-4.749-.013" transform="translate(-65.497 -177.524)" fill="#fefefe"/>
        <path id="Trazado_231338" data-name="Trazado 231338" d="M77.389,200.009c-2.087.022-4.173.023-6.26.031l.093.172c.016,0,.03,0,.047,0,1.859.047,3.72,0,5.58.023.717.009.805.118.744.825-.015.176-.064.35-.066.526a2.816,2.816,0,0,0,.071,1.295h.076l.04,0c.035-.8.062-1.608.114-2.41.022-.345-.08-.465-.438-.461" transform="translate(-58.459 -164.382)" fill="#fefefe"/>
        <path id="Trazado_231339" data-name="Trazado 231339" d="M107.52,216.13h-.076a1.053,1.053,0,0,0,.108.179c0-.06,0-.119.008-.179l-.04,0" transform="translate(-88.306 -177.63)" fill="#fefefe"/>
        <path id="Trazado_231340" data-name="Trazado 231340" d="M22.428,200.824a1.248,1.248,0,0,1-.593-.092c-.026.7-.285,1.351-.374,2.037-.08.62-.03.69.6.7.946.017,1.893-.01,2.84.011l1.443-2.675c-1.307.049-2.613.019-3.919.018" transform="translate(-17.614 -164.977)" fill="#f8f9fa"/>
        <path id="Trazado_231341" data-name="Trazado 231341" d="M20.782,202.94c-.633-.011-.682-.082-.6-.7.089-.685.348-1.34.374-2.037a.607.607,0,0,1-.154-.115c-.163.88-.309,1.765-.5,2.64-.068.318-.033.434.318.426,1.1-.023,2.207-.023,3.311-.031l.092-.17c-.947-.02-1.894.006-2.84-.011" transform="translate(-16.333 -164.446)" fill="#f8f9fa"/>
        <path id="Trazado_231342" data-name="Trazado 231342" d="M28.205,200.278l.094-.175-4.591-.014c0,.025-.009.05-.013.076s0,.026,0,.039a1.249,1.249,0,0,0,.594.092c1.306,0,2.612.031,3.919-.018" transform="translate(-19.473 -164.448)" fill="#f8f9fa"/>
        <path id="Trazado_231343" data-name="Trazado 231343" d="M22.983,200.162c0-.025.009-.05.013-.076h-.17a.6.6,0,0,0,.154.115c0-.013,0-.026,0-.039" transform="translate(-18.76 -164.446)" fill="#f8f9fa"/>
        <path id="Trazado_231344" data-name="Trazado 231344" d="M228.381,200.65h-.059l1.475,2.674c.72-.012,1.441-.005,2.161,0,.445,0,.607-.176.5-.612q-.265-1.076-.444-2.17a1.04,1.04,0,0,1-.609.124c-1.008,0-2.017.034-3.023-.017" transform="translate(-187.652 -164.821)" fill="#f8f9fa"/>
        <path id="Trazado_231345" data-name="Trazado 231345" d="M238.818,200.061q.177,1.094.444,2.17c.107.436-.055.614-.5.611-.721,0-1.442-.011-2.161,0l.093.168c.841.01,1.682.022,2.524.028.189,0,.425.052.346-.291-.215-.929-.42-1.861-.629-2.791a.567.567,0,0,1-.117.1" transform="translate(-194.457 -164.34)" fill="#f8f9fa"/>
        <path id="Trazado_231346" data-name="Trazado 231346" d="M227.886,200.175h.06c1.007.051,2.015.021,3.023.017a1.041,1.041,0,0,0,.609-.124c0-.014,0-.028-.007-.042s-.007-.041-.01-.061l-3.769.039.095.172" transform="translate(-187.216 -164.346)" fill="#f8f9fa"/>
        <path id="Trazado_231347" data-name="Trazado 231347" d="M248.961,200.019l.007.042a.567.567,0,0,0,.117-.1h-.134c0,.02.007.04.01.061" transform="translate(-204.607 -164.34)" fill="#f8f9fa"/>
        <path id="Trazado_231348" data-name="Trazado 231348" d="M217.423,201.931c-.156-.239-.4-.468-.383-.783-.576.01-1.153.007-1.729,0-.426-.006-.594.15-.554.589.046.5.126,1,.131,1.512a1.549,1.549,0,0,1-.047.569h0c1.237-.024,2.473-.035,3.708,0a10.777,10.777,0,0,1-1.126-1.889" transform="translate(-176.499 -165.317)" fill="#01befc"/>
        <path id="Trazado_231349" data-name="Trazado 231349" d="M218.449,216.04c-1.235-.038-2.471-.027-3.708,0h0a.6.6,0,0,1-.111.185h0l4.006-.013a2.027,2.027,0,0,1-.187-.169" transform="translate(-176.399 -177.537)" fill="#01befc"/>
        <path id="Trazado_231350" data-name="Trazado 231350" d="M213.732,202.317c-.005-.507-.085-1.009-.131-1.512-.04-.439.128-.6.554-.59.576.009,1.153.011,1.729,0a.633.633,0,0,1,.033-.173c-.734-.008-1.468-.006-2.2-.029-.322-.011-.4.063-.361.412.1.819.145,1.645.206,2.468l.124-.009a1.548,1.548,0,0,0,.047-.568" transform="translate(-175.343 -164.386)" fill="#01befc"/>
        <path id="Trazado_231351" data-name="Trazado 231351" d="M214.684,216.136l-.124.009c0,.059.008.117.013.176a.591.591,0,0,0,.111-.185" transform="translate(-176.342 -177.637)" fill="#01befc"/>
        <path id="Trazado_231352" data-name="Trazado 231352" d="M227.6,201.148c-.017.316.227.544.383.783a10.766,10.766,0,0,0,1.126,1.889h.094l-1.475-2.674H227.6" transform="translate(-187.058 -165.318)" fill="#01befc"/>
        <path id="Trazado_231353" data-name="Trazado 231353" d="M236.133,216.155h-.061a2.051,2.051,0,0,0,.187.169l-.092-.168h-.033" transform="translate(-194.022 -177.652)" fill="#01befc"/>
        <path id="Trazado_231354" data-name="Trazado 231354" d="M227.731,200.355l-.095-.172a.634.634,0,0,0-.033.173h.128" transform="translate(-187.061 -164.526)" fill="#01befc"/>
        <path id="Trazado_231355" data-name="Trazado 231355" d="M44.329,202.54a4.8,4.8,0,0,1,.091-.789c.048-.4-.128-.57-.522-.575-.366,0-.732.014-1.1,0,0,.377-.3.642-.47.95a8.859,8.859,0,0,1-1.017,1.72c.987-.033,1.974-.029,2.96,0h0c-.172-.426.071-.866.052-1.3" transform="translate(-33.954 -165.338)" fill="#01bffc"/>
        <path id="Trazado_231356" data-name="Trazado 231356" d="M43.53,216.045h0c-.986-.026-1.973-.029-2.96,0-.052.059-.1.117-.162.172l3.227.006h0a.858.858,0,0,1-.1-.181" transform="translate(-33.207 -177.545)" fill="#01bffc"/>
        <path id="Trazado_231357" data-name="Trazado 231357" d="M51.293,199.8c-.386-.282-1.145-.053-1.739-.051a.763.763,0,0,1,.019.178c.366.018.732,0,1.1,0,.394,0,.571.179.522.575a4.821,4.821,0,0,0-.091.789c.019.432-.225.872-.052,1.3.041.005.082.007.122.01a7.636,7.636,0,0,0,.107-1.14c-.014-.577.469-1.332.014-1.664" transform="translate(-40.727 -164.099)" fill="#01bffc"/>
        <path id="Trazado_231358" data-name="Trazado 231358" d="M57.952,216.14a.858.858,0,0,0,.1.181c.006-.057.014-.114.021-.17-.041,0-.081,0-.122-.01" transform="translate(-47.629 -177.64)" fill="#01bffc"/>
        <path id="Trazado_231359" data-name="Trazado 231359" d="M42.477,201.153l-.1,0h-.015l-1.443,2.675h.006l.064,0a8.864,8.864,0,0,0,1.017-1.72c.167-.308.465-.573.47-.95" transform="translate(-33.631 -165.32)" fill="#01bffc"/>
        <path id="Trazado_231360" data-name="Trazado 231360" d="M40.5,216.16H40.5l-.092.17c.058-.055.11-.113.162-.172l-.065,0" transform="translate(-33.207 -177.655)" fill="#01bffc"/>
        <path id="Trazado_231361" data-name="Trazado 231361" d="M49.039,200.343l.1,0a.766.766,0,0,0-.019-.179l-.094.175h.015" transform="translate(-40.292 -164.513)" fill="#01bffc"/>
        <path id="Trazado_231362" data-name="Trazado 231362" d="M211.693,77.821l-.073.056a21.694,21.694,0,0,1,2.752-.048.912.912,0,0,1,.411.081c-.237-1.414-.525-2.818-.8-4.226,0-.006,0-.012,0-.018l-.155-.018a5.215,5.215,0,0,1-2.139,4.173" transform="translate(-173.926 -60.53)" fill="#f8f9fa"/>
        <path id="Trazado_231363" data-name="Trazado 231363" d="M224.908,73.766c.27,1.408.559,2.812.8,4.225a.671.671,0,0,1,.143.091,32.019,32.019,0,0,0-.776-4.315h0l-.164-.019c0,.006,0,.012,0,.018" transform="translate(-184.845 -60.612)" fill="#f8f9fa"/>
        <path id="Trazado_231364" data-name="Trazado 231364" d="M209.81,77.812l.073-.056a5.215,5.215,0,0,0,2.139-4.173l-.12-.014a5.345,5.345,0,0,1-2.484,4.31h0c.131-.028.261-.05.392-.068" transform="translate(-172.115 -60.465)" fill="#f8f9fa"/>
        <path id="Trazado_231365" data-name="Trazado 231365" d="M211.17,97.067l-.1.073,3.276.049c0-.03-.01-.059-.015-.089a.914.914,0,0,0-.411-.081,21.7,21.7,0,0,0-2.752.048" transform="translate(-173.475 -79.72)" fill="#f8f9fa"/>
        <path id="Trazado_231366" data-name="Trazado 231366" d="M229.4,97.658l.127,0a.667.667,0,0,0-.143-.091c0,.03.01.059.015.089" transform="translate(-188.522 -80.19)" fill="#f8f9fa"/>
        <path id="Trazado_231367" data-name="Trazado 231367" d="M209.418,97.453h0l.295,0,.1-.073c-.131.018-.262.041-.392.068" transform="translate(-172.115 -80.038)" fill="#f8f9fa"/>
        <path id="Trazado_231368" data-name="Trazado 231368" d="M50.5,67.26a.74.74,0,0,1,.352.186H52.4c0-.018,0-.035,0-.055-.218-.961-.4-1.1-1.381-1.121-.346-.007-.72.081-1.02-.18l-1.613.05a7.129,7.129,0,0,1-.178,1.2,6.343,6.343,0,0,1,2.3-.078" transform="translate(-39.616 -54.316)" fill="#fbce07"/>
        <path id="Trazado_231369" data-name="Trazado 231369" d="M47.511,66.369l-.173.005h0l-.193,1.27c.063-.029.125-.053.188-.076a7.168,7.168,0,0,0,.178-1.2" transform="translate(-38.747 -54.547)" fill="#fbce07"/>
        <path id="Trazado_231370" data-name="Trazado 231370" d="M59.278,66.259c.98.02,1.164.16,1.381,1.121a.531.531,0,0,0,0,.055h.06c.091-.047.293.028.2-.214-.4-1-.506-1.075-1.617-1.086-.327,0-.654-.038-.981-.058l-.065,0c.3.261.674.173,1.02.18" transform="translate(-47.881 -54.307)" fill="#fbce07"/>
        <path id="Trazado_231371" data-name="Trazado 231371" d="M50.79,72.533a.739.739,0,0,0-.352-.186,6.334,6.334,0,0,0-2.3.078c0,.026-.009.052-.014.078l2.519.03h.145" transform="translate(-39.554 -59.403)" fill="#fbce07"/>
        <path id="Trazado_231372" data-name="Trazado 231372" d="M47.32,73.181c0-.026.009-.052.014-.078-.063.022-.126.047-.188.076Z" transform="translate(-38.747 -60.082)" fill="#fbce07"/>
        <path id="Trazado_231373" data-name="Trazado 231373" d="M66.9,201.181c-.295.043-.379.278-.445.6-.129.624-.01,1.312-.441,1.862l.054-.017a4.917,4.917,0,0,0,2.27.2,7.04,7.04,0,0,1-.907-1.574c-.19-.339-.545-.634-.531-1.068" transform="translate(-54.254 -165.346)" fill="#02bdfa"/>
        <path id="Trazado_231374" data-name="Trazado 231374" d="M68.258,215.092a4.913,4.913,0,0,1-2.27-.2l-.054.017-.017.023c.009.3.149.406.456.392.7-.03,1.4-.027,2.1-.037a1.915,1.915,0,0,1-.218-.2" transform="translate(-54.175 -176.615)" fill="#02bdfa"/>
        <path id="Trazado_231375" data-name="Trazado 231375" d="M66.831,200.226a.813.813,0,0,1,.025-.177c-.257.006-.582-.18-.629.312-.075.779-.2,1.553-.3,2.329l.015,0c.431-.55.312-1.238.441-1.862.066-.319.15-.554.445-.6" transform="translate(-54.186 -164.391)" fill="#02bdfa"/>
        <path id="Trazado_231376" data-name="Trazado 231376" d="M65.918,214.991l0,.018h0l.017-.023-.015,0" transform="translate(-54.175 -176.692)" fill="#02bdfa"/>
        <path id="Trazado_231377" data-name="Trazado 231377" d="M70.986,201.154c-.014.433.341.728.531,1.068a7.04,7.04,0,0,0,.907,1.574h.112L71.1,201.148a.775.775,0,0,0-.118.006" transform="translate(-58.341 -165.319)" fill="#02bdfa"/>
        <path id="Trazado_231378" data-name="Trazado 231378" d="M79.062,216.014a1.916,1.916,0,0,0,.218.2l-.105-.195h-.112" transform="translate(-64.979 -177.536)" fill="#02bdfa"/>
        <path id="Trazado_231379" data-name="Trazado 231379" d="M71.1,200.357l-.093-.172a.812.812,0,0,0-.025.177.773.773,0,0,1,.118-.006" transform="translate(-58.343 -164.527)" fill="#02bdfa"/>
        <path id="Trazado_231380" data-name="Trazado 231380" d="M50.871,53.014a3.041,3.041,0,0,1,.175-2.772c-1.213.252-1.218.265-1.477,1.581q-.115.587-.24,1.173a1.714,1.714,0,0,1,1.542.018" transform="translate(-40.542 -41.293)" fill="#f8f9fa"/>
        <path id="Trazado_231381" data-name="Trazado 231381" d="M48.666,51.268c.259-1.315.264-1.329,1.477-1.581.017-.028.033-.056.052-.084a5.3,5.3,0,0,1-.856-.021c-.477-.086-.608.2-.675.561-.151.806-.289,1.614-.433,2.421h0a1.666,1.666,0,0,1,.2-.124q.125-.586.24-1.173" transform="translate(-39.64 -40.738)" fill="#f8f9fa"/>
        <path id="Trazado_231382" data-name="Trazado 231382" d="M56.834,52.982l.113.048a5.534,5.534,0,0,1,.094-2.828l-.033.007a3.041,3.041,0,0,0-.175,2.772" transform="translate(-46.506 -41.261)" fill="#f8f9fa"/>
        <path id="Trazado_231383" data-name="Trazado 231383" d="M59,49.847c.007-.026.012-.051.019-.077-.019.028-.035.056-.052.084L59,49.847" transform="translate(-48.463 -40.905)" fill="#f8f9fa"/>
        <path id="Trazado_231384" data-name="Trazado 231384" d="M50.77,64.925l0-.014a1.714,1.714,0,0,0-1.542-.018c-.008.037-.015.074-.022.11,0,0,0,.005,0,.008l1.613-.05c-.015-.013-.03-.022-.044-.036" transform="translate(-40.437 -53.189)" fill="#f8f9fa"/>
        <path id="Trazado_231385" data-name="Trazado 231385" d="M48.406,65.814c.008-.037.015-.074.023-.11a1.65,1.65,0,0,0-.2.124l.172-.005s0-.006,0-.008" transform="translate(-39.642 -54.001)" fill="#f8f9fa"/>
        <path id="Trazado_231386" data-name="Trazado 231386" d="M57.99,65.82c.014.014.029.024.044.036l.065,0-.113-.048,0,.014" transform="translate(-47.656 -54.084)" fill="#f8f9fa"/>
        <path id="Trazado_231387" data-name="Trazado 231387" d="M216.824,51.727a7.019,7.019,0,0,1,.467,1.411l.067-.006-.012-.042c-.076-.588-.255-1.162-.308-1.75-.06-.671-.344-1.051-1.007-1.088a3.88,3.88,0,0,1,.793,1.474" transform="translate(-177.551 -41.302)" fill="#f8f9fa"/>
        <path id="Trazado_231388" data-name="Trazado 231388" d="M216.516,50.832c.053.587.231,1.162.308,1.75l.012.042.119-.011a22.8,22.8,0,0,0-.367-2.425c-.019-.434-.178-.593-.6-.545a5.4,5.4,0,0,1-.594.006,1.423,1.423,0,0,1,.113.1c.663.037.947.417,1.007,1.088" transform="translate(-177.029 -40.793)" fill="#f8f9fa"/>
        <path id="Trazado_231389" data-name="Trazado 231389" d="M216.971,53.11A7.035,7.035,0,0,0,216.5,51.7a3.879,3.879,0,0,0-.793-1.474c-.024,0-.044-.005-.069-.006a17.54,17.54,0,0,1,1.167,2.906l.162-.015" transform="translate(-177.231 -41.274)" fill="#f8f9fa"/>
        <path id="Trazado_231390" data-name="Trazado 231390" d="M215.44,49.8c.025,0,.045,0,.069.006a1.423,1.423,0,0,0-.113-.1c.015.03.029.061.044.09" transform="translate(-177.029 -40.857)" fill="#f8f9fa"/>
        <path id="Trazado_231391" data-name="Trazado 231391" d="M188.872,245.877a.346.346,0,0,1,.081,0q5.126,0,10.251,0a.456.456,0,0,1,.2.054c.141-.1.306-.034.458-.052l-.015-.007.117-.036H188.79l.1.027-.022.021" transform="translate(-155.162 -202.04)" fill="#17a5d1"/>
        <path id="Trazado_231392" data-name="Trazado 231392" d="M188.938,246.391h.005l0,0,0,0" transform="translate(-155.284 -202.501)" fill="#17a5d1"/>
        <path id="Trazado_231393" data-name="Trazado 231393" d="M199.509,246.142a.257.257,0,0,1,.027-.019.454.454,0,0,0-.2-.054q-5.125,0-10.251,0a.343.343,0,0,0-.081,0l-.054.051,0,0Z" transform="translate(-155.291 -202.238)" fill="#17a5d1"/>
        <path id="Trazado_231394" data-name="Trazado 231394" d="M248.949,246.106h0l-.1-.045c-.153.018-.317-.046-.459.052l.025.017.529-.023" transform="translate(-204.15 -202.228)" fill="#17a5d1"/>
        <path id="Trazado_231395" data-name="Trazado 231395" d="M248.295,246.388l-.025-.017a.24.24,0,0,0-.027.019l.053,0" transform="translate(-204.024 -202.486)" fill="#17a5d1"/>
        <path id="Trazado_231396" data-name="Trazado 231396" d="M188.872,245.877l.022-.021-.1-.027c.007.022.012.044.017.066a.319.319,0,0,1,.064-.018" transform="translate(-155.162 -202.041)" fill="#17a5d1"/>
        <path id="Trazado_231397" data-name="Trazado 231397" d="M188.934,246.384v0l0,0Z" transform="translate(-155.28 -202.497)" fill="#17a5d1"/>
        <path id="Trazado_231398" data-name="Trazado 231398" d="M188.951,246.1a.322.322,0,0,0-.064.018c0,.011.006.022.009.033h0l.054-.051" transform="translate(-155.242 -202.264)" fill="#17a5d1"/>
        <path id="Trazado_231399" data-name="Trazado 231399" d="M250.9,245.878h0a.24.24,0,0,1,.088.01.144.144,0,0,1,.01-.053l-.117.036.015.007" transform="translate(-206.197 -202.046)" fill="#17a5d1"/>
        <path id="Trazado_231400" data-name="Trazado 231400" d="M250.97,246.075l.1.045a.149.149,0,0,1,0-.035.239.239,0,0,0-.088-.01h0" transform="translate(-206.266 -202.243)" fill="#17a5d1"/>
        <path id="Trazado_231401" data-name="Trazado 231401" d="M223.384,67.934a.275.275,0,0,1,.146-.015,5.887,5.887,0,0,0-.225-1.134.316.316,0,0,1-.06.036,5.365,5.365,0,0,1,.139,1.113" transform="translate(-183.48 -54.889)" fill="#ebca15"/>
        <path id="Trazado_231402" data-name="Trazado 231402" d="M223.582,66.431a5.892,5.892,0,0,1,.225,1.134.278.278,0,0,1,.175.125,2.17,2.17,0,0,0-.3-1.336h0c-.034.023-.067.052-.1.076" transform="translate(-183.757 -54.535)" fill="#ebca15"/>
        <path id="Trazado_231403" data-name="Trazado 231403" d="M222.52,67.729a5.365,5.365,0,0,0-.139-1.113c-.058.024-.118.016-.187-.08l.208,1.253a.629.629,0,0,1,.118-.06" transform="translate(-182.616 -54.684)" fill="#ebca15"/>
        <path id="Trazado_231404" data-name="Trazado 231404" d="M224.026,73.147c0,.015,0,.029,0,.044s0,.02,0,.03l.155.018c0-.036-.007-.071-.011-.106a.275.275,0,0,0-.146.015" transform="translate(-184.122 -60.102)" fill="#ebca15"/>
        <path id="Trazado_231405" data-name="Trazado 231405" d="M224.847,73.151c0,.035.008.071.01.106l.164.019a.278.278,0,0,0-.175-.125" transform="translate(-184.796 -60.121)" fill="#ebca15"/>
        <path id="Trazado_231406" data-name="Trazado 231406" d="M223.483,73.277c0-.015,0-.029,0-.044a.629.629,0,0,0-.118.06l.12.014c0-.01,0-.02,0-.03" transform="translate(-183.576 -60.188)" fill="#ebca15"/>
        <path id="Trazado_231407" data-name="Trazado 231407" d="M223.107,66.447c.007.023.013.047.02.07a.318.318,0,0,0,.06-.036c-.006-.022-.012-.044-.019-.066l-.067.006.006.025" transform="translate(-183.361 -54.586)" fill="#ebca15"/>
        <path id="Trazado_231408" data-name="Trazado 231408" d="M223.5,66.431c.034-.025.067-.054.1-.076h0l-.119.011.019.066" transform="translate(-183.671 -54.535)" fill="#ebca15"/>
        <path id="Trazado_231409" data-name="Trazado 231409" d="M222.381,66.546c-.007-.023-.012-.047-.02-.07s0-.017-.006-.025l-.162.015c.069.1.129.1.187.08" transform="translate(-182.616 -54.614)" fill="#ebca15"/>
        <path id="Trazado_231410" data-name="Trazado 231410" d="M204.56,213.044a.842.842,0,0,1-.356.532.91.91,0,0,0,.512-.307.421.421,0,0,1-.156-.225" transform="translate(-167.83 -175.096)" fill="#07befa"/>
        <path id="Trazado_231411" data-name="Trazado 231411" d="M203.379,214.614a.87.87,0,0,1-.179.084q.7.451.707-.378c-.006,0-.01-.009-.016-.014a.91.91,0,0,1-.512.307" transform="translate(-167.005 -176.134)" fill="#07befa"/>
        <path id="Trazado_231412" data-name="Trazado 231412" d="M206.3,210.583c-.029.147-.053.3-.092.438a.42.42,0,0,0,.156.225l.013-.014-.077-.65h0" transform="translate(-169.475 -173.073)" fill="#07befa"/>
        <path id="Trazado_231413" data-name="Trazado 231413" d="M207.093,214.23l-.013.014.016.014h0l0-.027" transform="translate(-170.194 -176.07)" fill="#07befa"/>
        <path id="Trazado_231414" data-name="Trazado 231414" d="M203.934,212.049a1.319,1.319,0,0,1-.041-.216l-.451.759a.808.808,0,0,0,.136-.012.842.842,0,0,0,.356-.532" transform="translate(-167.204 -174.101)" fill="#07befa"/>
        <path id="Trazado_231415" data-name="Trazado 231415" d="M203.243,216.043l-.043.072a.855.855,0,0,0,.179-.084.786.786,0,0,1-.136.012" transform="translate(-167.005 -177.551)" fill="#07befa"/>
        <path id="Trazado_231416" data-name="Trazado 231416" d="M206.017,211.022c.039-.141.062-.291.092-.438l-.132.223a1.316,1.316,0,0,0,.041.216" transform="translate(-169.287 -173.074)" fill="#07befa"/>
        <path id="Trazado_231417" data-name="Trazado 231417" d="M63.539,73.916c.015.018.032.035.046.055a13.8,13.8,0,0,0,1.578,1.552c.053-.3.088-.608.12-.915a.7.7,0,0,1,.141-.421c-.185-.051-.38-.091-.418-.33a1.8,1.8,0,0,1-1.467.059" transform="translate(-52.221 -60.701)" fill="#03b1ec"/>
        <path id="Trazado_231418" data-name="Trazado 231418" d="M72.2,74.061a.38.38,0,0,1,.3-.1c-.156-.248-.562.14-.659-.258-.019.011-.038.017-.058.027.037.24.233.279.418.33" transform="translate(-58.993 -60.575)" fill="#03b1ec"/>
        <path id="Trazado_231419" data-name="Trazado 231419" d="M72.656,77.047c.051.05.1.1.15.152.047-.261.078-.526.146-.781.056-.213-.057-.483.079-.67-.036-.014-.074-.025-.113-.036a.7.7,0,0,0-.141.421c-.032.307-.067.612-.12.915" transform="translate(-59.714 -62.225)" fill="#03b1ec"/>
        <path id="Trazado_231420" data-name="Trazado 231420" d="M74.124,75.248c.039.011.077.022.113.036a.415.415,0,0,1,.186-.136.38.38,0,0,0-.3.1" transform="translate(-60.921 -61.762)" fill="#03b1ec"/>
        <path id="Trazado_231421" data-name="Trazado 231421" d="M62.541,73.85c-.014-.02-.031-.037-.046-.055q-.113-.038-.226-.085a4.509,4.509,0,0,0,1.839,1.757l.012-.065a13.823,13.823,0,0,1-1.578-1.552" transform="translate(-51.177 -60.58)" fill="#03b1ec"/>
        <path id="Trazado_231422" data-name="Trazado 231422" d="M72.59,83.274c.054.029.107.06.162.087-.049-.052-.1-.1-.15-.152,0,.022-.008.043-.012.065" transform="translate(-59.66 -68.387)" fill="#03b1ec"/>
        <path id="Trazado_231423" data-name="Trazado 231423" d="M63.164,73.79a1.8,1.8,0,0,0,1.467-.059c0-.009,0-.018,0-.027H63.083a.949.949,0,0,1,.081.085" transform="translate(-51.846 -60.575)" fill="#03b1ec"/>
        <path id="Trazado_231424" data-name="Trazado 231424" d="M71.762,73.7c0,.009,0,.019,0,.027.019-.01.038-.017.058-.027h-.06" transform="translate(-58.979 -60.575)" fill="#03b1ec"/>
        <path id="Trazado_231425" data-name="Trazado 231425" d="M62.413,73.709h-.145q.113.047.226.085a.925.925,0,0,0-.081-.085" transform="translate(-51.177 -60.58)" fill="#03b1ec"/>
        <path id="Trazado_231426" data-name="Trazado 231426" d="M173.894,40.819c.212.124.378.267.316.5l.032.029.063,0c.9.3,1.031.247,1.243-.709.388-1.752.854-3.487,1.189-5.25.059-.31.242-.749-.106-.906-.3-.134-.512.276-.7.507A9.516,9.516,0,0,0,174.265,38a3.876,3.876,0,0,0-.192,1.833,1.109,1.109,0,0,1-.144.954c-.011-.007-.022-.012-.033-.019C173.9,40.783,173.9,40.8,173.894,40.819Z" transform="translate(-142.919 -28.32)" fill="#00cbfe"/>
        <path id="Trazado_231427" data-name="Trazado 231427" d="M174,38.248a3.876,3.876,0,0,1,.192-1.833,9.518,9.518,0,0,1,1.667-3.008c.187-.231.4-.641.7-.506.348.157.165.6.106.906-.335,1.763-.8,3.5-1.189,5.25-.212.956-.341,1.009-1.243.709l-.063,0,.083.075c.78.606,1.042.543,1.311-.428.277-1,.476-2.017.707-3.027a18.914,18.914,0,0,0,.645-3.237c.011-.218.043-.471-.205-.587s-.407.1-.56.251a10.387,10.387,0,0,0-2.064,3.3,8,8,0,0,0-.263,3.07c.011.007.022.012.033.019a1.11,1.11,0,0,0,.144-.954" transform="translate(-142.844 -26.737)" fill="#00cbfe"/>
        <path id="Trazado_231428" data-name="Trazado 231428" d="M173.894,70.171a.711.711,0,0,0,.289.48l.027.024c.063-.237-.1-.381-.316-.5" transform="translate(-142.919 -57.672)" fill="#00cbfe"/>
        <path id="Trazado_231429" data-name="Trazado 231429" d="M164.77,74.316a5.058,5.058,0,0,0,2.268,4h.162c.528-.018,1.056,0,1.584,0,.726-.008.978-.155,1-.736a.713.713,0,0,1-.662.112,4.73,4.73,0,0,1-3.539-2.5c-.263-.494-.3-.791-.082-.954-.229.024-.457.05-.685.081-.018,0-.033,0-.05,0" transform="translate(-135.421 -61.012)" fill="#01b1ee"/>
        <path id="Trazado_231430" data-name="Trazado 231430" d="M175.613,73.1h.018l-.012-.017-.007.018" transform="translate(-144.332 -60.067)" fill="#01b1ee"/>
        <path id="Trazado_231431" data-name="Trazado 231431" d="M169.453,73.179h-.018a.614.614,0,0,1-.043.1c-.386.016-.771.047-1.154.087-.218.163-.181.46.083.954a4.73,4.73,0,0,0,3.539,2.5.713.713,0,0,0,.662-.112,3.691,3.691,0,0,0-.011-.442h0c-.024.714-.484.372-.8.317a4.428,4.428,0,0,1-3.335-2.549c-.173-.344-.265-.7.363-.66.272.016.58.112.823-.125a.137.137,0,0,1-.107-.074" transform="translate(-138.154 -60.144)" fill="#01b1ee"/>
        <path id="Trazado_231432" data-name="Trazado 231432" d="M174.738,72.907c-.008-.013-.016-.026-.024-.039a1.308,1.308,0,0,1-.173.07c.064,0,.128-.009.191-.014,0-.006,0-.012.007-.018" transform="translate(-143.45 -59.888)" fill="#01b1ee"/>
        <path id="Trazado_231433" data-name="Trazado 231433" d="M164.772,73.773c.228-.031.456-.057.685-.081a.645.645,0,0,1,.206-.1,3.838,3.838,0,0,0-.951.016c0,.055.007.107.01.161.017,0,.032,0,.05,0" transform="translate(-135.373 -60.469)" fill="#01b1ee"/>
        <path id="Trazado_231434" data-name="Trazado 231434" d="M179.246,93.272c-.528.006-1.056-.014-1.584,0H177.5c.051.036.1.072.153.107a6.8,6.8,0,0,0,1.58.057c1.224.011,1.336,0,1.091-1.006a.449.449,0,0,1-.073.1c-.027.581-.278.728-1,.736" transform="translate(-145.883 -75.968)" fill="#01b1ee"/>
        <path id="Trazado_231435" data-name="Trazado 231435" d="M192.887,90.972a.449.449,0,0,0,.073-.1c-.025-.1-.053-.214-.085-.339a3.729,3.729,0,0,1,.011.442" transform="translate(-158.52 -74.404)" fill="#01b1ee"/>
        <path id="Trazado_231436" data-name="Trazado 231436" d="M170.047,73.285a.616.616,0,0,0,.043-.1c-.064.005-.127.011-.191.014a2.186,2.186,0,0,1-.8.077.651.651,0,0,0-.206.1c.384-.04.768-.071,1.154-.087" transform="translate(-138.809 -60.149)" fill="#01b1ee"/>
        <path id="Trazado_231437" data-name="Trazado 231437" d="M175.663,73.037l.023,0-.032-.029s0,.009,0,.014l.012.017" transform="translate(-144.363 -60.002)" fill="#01b1ee"/>
        <path id="Trazado_231438" data-name="Trazado 231438" d="M175.716,73.172a.137.137,0,0,0,.107.074l-.083-.075-.023,0" transform="translate(-144.417 -60.137)" fill="#01b1ee"/>
        <path id="Trazado_231439" data-name="Trazado 231439" d="M175.54,72.892l-.027-.024c.009.012.016.025.024.038,0,0,0-.009,0-.014" transform="translate(-144.25 -59.888)" fill="#01b1ee"/>
        <path id="Trazado_231440" data-name="Trazado 231440" d="M159.683,51.294c-.068.809-.028,1.517.923,1.728a2.171,2.171,0,0,1,.273-1.144c.2-.575.467-1.127.7-1.69a4.727,4.727,0,0,1-2,.058,1.725,1.725,0,0,1,.1,1.048" transform="translate(-131.157 -41.247)" fill="#fdfefe"/>
        <path id="Trazado_231441" data-name="Trazado 231441" d="M165.525,51.542a2.173,2.173,0,0,0-.273,1.144c.024.006.046.012.072.017.221-1.025.782-1.925,1.076-2.924-.057.028-.115.051-.172.072-.236.563-.5,1.115-.7,1.69" transform="translate(-135.803 -40.912)" fill="#fdfefe"/>
        <path id="Trazado_231442" data-name="Trazado 231442" d="M161.105,49.793l.031-.074L159,49.708a.9.9,0,0,1,.1.144,4.728,4.728,0,0,0,2-.058" transform="translate(-130.681 -40.854)" fill="#fdfefe"/>
        <path id="Trazado_231443" data-name="Trazado 231443" d="M170.978,49.775h-.141l-.031.074c.058-.022.115-.045.172-.073" transform="translate(-140.381 -40.908)" fill="#fdfefe"/>
        <path id="Trazado_231444" data-name="Trazado 231444" d="M159.009,52.026c.04,1.288-.13,1.118,1.119,1.1,0-.006,0-.012,0-.018-.951-.211-.991-.919-.923-1.728a1.726,1.726,0,0,0-.1-1.048h0a.561.561,0,0,1-.1-.039c0,.577-.007,1.154.011,1.73" transform="translate(-130.676 -41.337)" fill="#fdfefe"/>
        <path id="Trazado_231445" data-name="Trazado 231445" d="M165.332,66.117h.069c-.025,0-.048-.011-.072-.017,0,.006,0,.012,0,.018" transform="translate(-135.88 -54.325)" fill="#fdfefe"/>
        <path id="Trazado_231446" data-name="Trazado 231446" d="M159.1,49.851h0a.894.894,0,0,0-.1-.144c0,.035,0,.07,0,.1a.562.562,0,0,0,.1.039" transform="translate(-130.68 -40.853)" fill="#fdfefe"/>
        <path id="Trazado_231447" data-name="Trazado 231447" d="M122.347,52.286c0,.408.162.613.591.613q1.867,0,3.734,0c.434,0,.589-.212.585-.617,0-.444-.005-.887,0-1.331a1.363,1.363,0,0,1,.11-.653,5.681,5.681,0,0,1-1.77.1c-1.116,0-2.232.034-3.346-.015a1.543,1.543,0,0,1,.087.638c.012.421.008.843.005,1.264" transform="translate(-100.478 -41.34)" fill="#fefefe"/>
        <path id="Trazado_231448" data-name="Trazado 231448" d="M125.03,49.909a5.68,5.68,0,0,0,1.77-.1.662.662,0,0,1,.071-.106l-5.312.016a.631.631,0,0,1,.124.175c1.115.049,2.231.02,3.346.015" transform="translate(-99.907 -40.849)" fill="#fefefe"/>
        <path id="Trazado_231449" data-name="Trazado 231449" d="M121.748,52.955c1.532-.015,3.064-.012,4.6,0,.321,0,.422-.115.407-.432-.039-.819-.051-1.639-.072-2.46a.442.442,0,0,1-.058.038l-.015,0a1.363,1.363,0,0,0-.11.653c-.009.444-.008.887,0,1.331,0,.4-.151.617-.585.617q-1.867,0-3.734,0c-.429,0-.594-.206-.592-.613s.006-.843-.005-1.264a1.542,1.542,0,0,0-.087-.638h-.126c-.009.761-.011,1.523-.039,2.284-.012.325.051.486.424.483" transform="translate(-99.713 -41.145)" fill="#fefefe"/>
        <path id="Trazado_231450" data-name="Trazado 231450" d="M151,49.8a.455.455,0,0,0,.058-.038l0-.064a.671.671,0,0,0-.071.107l.016,0" transform="translate(-124.087 -40.848)" fill="#fefefe"/>
        <path id="Trazado_231451" data-name="Trazado 231451" d="M121.626,49.967h.048a.631.631,0,0,0-.124-.175c0,.058,0,.116,0,.174h.078" transform="translate(-99.897 -40.924)" fill="#fefefe"/>
        <path id="Trazado_231452" data-name="Trazado 231452" d="M27.154,247.349a5.442,5.442,0,0,0,3.106,5.613,5.511,5.511,0,0,0,6.3-1A5.2,5.2,0,0,0,38.182,247a1.027,1.027,0,0,1-.033-.317.767.767,0,0,0-.134.013c-3.346.019-6.69.007-10.034.008a1.969,1.969,0,0,1-.85-.108.28.28,0,0,1-.108-.1h0l-.02.08c0,.006,0,.011,0,.016a.15.15,0,0,1,.071.046,1.017,1.017,0,0,1,.079.711" transform="translate(-22.193 -202.59)" fill="#01befc"/>
        <path id="Trazado_231453" data-name="Trazado 231453" d="M27.112,246.494h0" transform="translate(-22.283 -202.587)" fill="#01befc"/>
        <path id="Trazado_231454" data-name="Trazado 231454" d="M27.123,246.5h-.008a.277.277,0,0,0,.108.1,1.97,1.97,0,0,0,.85.108c3.344,0,6.689.011,10.034-.008a.77.77,0,0,1,.134-.013.369.369,0,0,1,.048-.143q-5.253,0-10.506,0a2.552,2.552,0,0,1-.66-.045" transform="translate(-22.285 -202.59)" fill="#01befc"/>
        <path id="Trazado_231455" data-name="Trazado 231455" d="M27.113,246.481h.008a2.559,2.559,0,0,0,.66.045q5.253,0,10.506,0a.373.373,0,0,1,.033-.05H27.114v0" transform="translate(-22.284 -202.574)" fill="#01befc"/>
        <path id="Trazado_231456" data-name="Trazado 231456" d="M37.569,247.129a1.037,1.037,0,0,0,.033.317,5.2,5.2,0,0,1-1.618,4.958,5.512,5.512,0,0,1-6.3,1,5.443,5.443,0,0,1-3.106-5.613,1.016,1.016,0,0,0-.079-.711.15.15,0,0,0-.071-.046c.1.574-.169,1.119-.122,1.7a5.951,5.951,0,0,0,5.9,5.431c3.452-.01,6.537-3.572,5.517-7.009a.458.458,0,0,0-.149-.025" transform="translate(-21.613 -203.033)" fill="#01befc"/>
        <path id="Trazado_231457" data-name="Trazado 231457" d="M89.576,246.9a.459.459,0,0,1,.149.025c-.017-.056-.033-.112-.052-.168h-.049a.369.369,0,0,0-.048.143" transform="translate(-73.62 -202.803)" fill="#01befc"/>
        <path id="Trazado_231458" data-name="Trazado 231458" d="M89.882,246.478a.379.379,0,0,0-.033.05H89.9C89.892,246.511,89.888,246.495,89.882,246.478Z" transform="translate(-73.845 -202.574)" fill="#01befc"/>
        <path id="Trazado_231459" data-name="Trazado 231459" d="M27.008,246.5a.085.085,0,0,0-.019.08l.02-.079h0" transform="translate(-22.179 -202.589)" fill="#01befc"/>
        <path id="Trazado_231460" data-name="Trazado 231460" d="M27.109,246.491h0" transform="translate(-22.28 -202.585)" fill="#01befc"/>
        <path id="Trazado_231461" data-name="Trazado 231461" d="M27.113,246.483h0v0" transform="translate(-22.283 -202.578)" fill="#01befc"/>
        <path id="Trazado_231462" data-name="Trazado 231462" d="M81.01,77.6c-.079.444.058.677.543.677,1.424,0,2.848.008,4.272-.005.247,0,.511-.021.551-.353a14.518,14.518,0,0,0,.11-3.452.569.569,0,0,0-.107-.271.824.824,0,0,1-.257.533,5.218,5.218,0,0,1-4.776,1.926.81.81,0,0,1-.343-.1A2.174,2.174,0,0,1,81.01,77.6" transform="translate(-66.563 -60.978)" fill="#fefefd"/>
        <path id="Trazado_231463" data-name="Trazado 231463" d="M80.836,76.188a.809.809,0,0,0,.343.1,5.219,5.219,0,0,0,4.776-1.926.825.825,0,0,0,.257-.533.774.774,0,0,0-.066-.079,5.065,5.065,0,0,1-5.36,2.3h0a1.355,1.355,0,0,1,.05.135" transform="translate(-66.396 -60.613)" fill="#fefefd"/>
        <path id="Trazado_231464" data-name="Trazado 231464" d="M79.864,77.954q2.6.006,5.2.034c.249,0,.361-.084.368-.342.034-1.22.072-2.44.125-3.659.014-.327-.12-.416-.385-.363a.5.5,0,0,1,.011.09.568.568,0,0,1,.107.271,14.511,14.511,0,0,1-.11,3.452c-.04.332-.3.35-.551.353-1.424.013-2.848.006-4.273.005-.484,0-.622-.233-.543-.677a2.174,2.174,0,0,0-.007-1.045.482.482,0,0,1-.062-.044c-.068.494-.14.987-.2,1.483-.028.231-.024.441.317.442" transform="translate(-65.369 -60.498)" fill="#fefefd"/>
        <path id="Trazado_231465" data-name="Trazado 231465" d="M80.715,86.77a.5.5,0,0,0,.062.044,1.337,1.337,0,0,0-.05-.135h0l-.013.091" transform="translate(-66.338 -71.239)" fill="#fefefd"/>
        <path id="Trazado_231466" data-name="Trazado 231466" d="M110.931,73.689c-.019,0-.036.006-.055.011a.728.728,0,0,1,.066.079.5.5,0,0,0-.01-.09" transform="translate(-91.126 -60.563)" fill="#fefefd"/>
        <path id="Trazado_231467" data-name="Trazado 231467" d="M156.435,176.865l.134-.1-.136,0c0,.031,0,.062,0,.093" transform="translate(-128.568 -145.283)" fill="#01befc"/>
        <path id="Trazado_231468" data-name="Trazado 231468" d="M108.26,98.129c2.263-1.84,2.834-4.427,1.645-7.349a71.935,71.935,0,0,0-4.538-8.773,1.909,1.909,0,0,0-1.126-.932l-1.891,3.054-1.96,3.608-.964,2.006L98.887,91c-.264.858-.633,1.68-.826,2.564a6.758,6.758,0,0,0-.165,1.763h0a4.2,4.2,0,0,0,2.041,1.181,1.536,1.536,0,0,1,1.37,2.029,5.975,5.975,0,0,0,6.955-.406" transform="translate(-80.453 -66.634)" fill="#01befc"/>
        <path id="Trazado_231469" data-name="Trazado 231469" d="M164.087,171.415h0c.008.333.026.666.021,1,0,.249.087.355.348.355,2.179-.006,4.358,0,6.537,0,.187,0,.344,0,.308-.282q-.217-1.745-.394-3.5c-.043-.419-.246-.522-.65-.518-1.467.016-2.934-.008-4.4-.017a7.822,7.822,0,0,1-1.768,2.963" transform="translate(-134.859 -138.447)" fill="#fefefe"/>
        <path id="Trazado_231470" data-name="Trazado 231470" d="M74.184,168.484c-1.423,0-2.849.039-4.269-.028-.674-.032-.819.265-.865.814-.083.992-.146,1.99-.312,2.969-.087.516.1.534.5.531,1.757-.013,3.514-.006,5.271-.006,1.353,0,1.353,0,1.393-1.33a6.934,6.934,0,0,1-1.714-2.95h0" transform="translate(-56.478 -138.448)" fill="#fefefe"/>
        <path id="Trazado_231471" data-name="Trazado 231471" d="M161.689,109.488c1.623-.005,3.247-.041,4.869,0,.6.015.652-.23.591-.7-.139-1.075-.279-2.151-.378-3.23-.032-.352-.161-.452-.49-.451-1.734.005-3.469,0-5.2-.015-.361,0-.464.125-.442.465.043.641.057,1.285.083,1.927h0a8.292,8.292,0,0,0,.97,2" transform="translate(-132.021 -86.375)" fill="#fefefe"/>
        <path id="Trazado_231472" data-name="Trazado 231472" d="M82.383,105.72c.045-.461-.02-.677-.573-.663-1.62.041-3.243.041-4.864.014-.515-.009-.629.208-.668.659-.091,1.056-.206,2.112-.362,3.161-.069.463.068.564.507.559,1.643-.018,3.287,0,4.931,0a3.62,3.62,0,0,1,.964-2.006c.019-.576.009-1.154.066-1.726" transform="translate(-62.38 -86.343)" fill="#fefefe"/>
        <path id="Trazado_231473" data-name="Trazado 231473" d="M106.52,120.477l.964-2.006a3.62,3.62,0,0,0-.964,2.006" transform="translate(-87.546 -97.368)" fill="#fefefe"/>
        <path id="Trazado_231474" data-name="Trazado 231474" d="M170.586,141.105h0c1.374,0,2.748-.022,4.122,0,.437.007.511-.131.454-.538-.15-1.069-.263-2.145-.366-3.22-.035-.364-.132-.553-.554-.552-1.55,0-3.1-.027-4.65-.045.258.866.636,1.691.83,2.58a7.208,7.208,0,0,1,.164,1.775" transform="translate(-139.383 -112.392)" fill="#fefefe"/>
        <path id="Trazado_231475" data-name="Trazado 231475" d="M76.687,140.437a12.29,12.29,0,0,1,.977-3.42.586.586,0,0,1,.229-.233c-1.442.016-2.884.069-4.324.03-.639-.017-.84.2-.88.8-.067,1.014-.17,2.027-.325,3.031-.063.41.026.489.408.483,1.376-.021,2.753-.015,4.13-.02a.849.849,0,0,1-.214-.673" transform="translate(-59.458 -112.419)" fill="#fefefe"/>
        <path id="Trazado_231476" data-name="Trazado 231476" d="M97.062,139.348c.193-.883.563-1.706.826-2.564a.585.585,0,0,0-.229.233,12.278,12.278,0,0,0-.977,3.42.849.849,0,0,0,.214.673,6.767,6.767,0,0,1,.165-1.763" transform="translate(-79.454 -112.419)" fill="#fefefe"/>
        <path id="Trazado_231477" data-name="Trazado 231477" d="M135.214,80.324a2.423,2.423,0,0,0-.648-.8.5.5,0,0,0-.779.1,1.284,1.284,0,0,1,1.1.719,61.826,61.826,0,0,1,4.769,9.216,6.054,6.054,0,0,1-.616,6.133,4.726,4.726,0,0,1-1.08,1.042c1.084-.017,1.089.028,1.159,1.168a2.064,2.064,0,0,0,.068.313.8.8,0,0,1,.237-.522,7.2,7.2,0,0,0,1.17-2.035c.061-.175.1-.4.362-.406l.207-1.291c-.182-.036-.16-.185-.167-.311a10.744,10.744,0,0,0-.76-3.292c-.092-.239-.254-.484-.068-.753a5.677,5.677,0,0,1-.54-1.245,2.472,2.472,0,0,1-.97-2h0L136.7,82.742c-.577-.756-.985-1.615-1.483-2.418" transform="translate(-109.956 -65.243)" fill="#00b1ee"/>
        <path id="Trazado_231478" data-name="Trazado 231478" d="M138.841,96.78a6.054,6.054,0,0,0,.616-6.133,61.843,61.843,0,0,0-4.769-9.216,1.284,1.284,0,0,0-1.1-.719.765.765,0,0,0-.043.065,1.908,1.908,0,0,1,1.126.932,71.919,71.919,0,0,1,4.538,8.773c1.189,2.921.618,5.509-1.645,7.349l.057-.006h0l.136,0a4.723,4.723,0,0,0,1.08-1.042" transform="translate(-109.761 -66.335)" fill="#00b1ee"/>
        <path id="Trazado_231479" data-name="Trazado 231479" d="M165.49,168.857a7.2,7.2,0,0,1-1.17,2.035.8.8,0,0,0-.237.522h0a7.826,7.826,0,0,0,1.768-2.963c-.26.01-.3.23-.362.406" transform="translate(-134.856 -138.446)" fill="#00b1ee"/>
        <path id="Trazado_231480" data-name="Trazado 231480" d="M162.036,120.53a8.293,8.293,0,0,1-.97-2h0a2.472,2.472,0,0,0,.97,2" transform="translate(-132.368 -97.416)" fill="#00b1ee"/>
        <path id="Trazado_231481" data-name="Trazado 231481" d="M169.264,137.5a10.744,10.744,0,0,1,.76,3.292c.007.126-.014.275.167.311a7.208,7.208,0,0,0-.164-1.775c-.194-.889-.572-1.715-.83-2.58-.186.269-.024.514.068.753" transform="translate(-138.988 -112.392)" fill="#00b1ee"/>
        <path id="Trazado_231482" data-name="Trazado 231482" d="M120.573,77.4c.4-.657.765-1.334,1.168-1.989.134-.217.25-.465.542-.521.022-.317.274-.339.53-.338a.655.655,0,0,1,.525.247,13.224,13.224,0,0,1,1.894,3.212c.363.031.574-.042.543-.5-.079-1.173-.117-2.349-.149-3.525-.008-.31-.148-.361-.411-.36q-2.4.01-4.8,0c-.267,0-.4.057-.408.364-.037,1.175-.082,2.35-.163,3.522-.032.46.185.529.548.494-.073-.243.073-.423.185-.607" transform="translate(-98.491 -60.513)" fill="#fefefe"/>
        <path id="Trazado_231483" data-name="Trazado 231483" d="M124.733,80.782a.626.626,0,0,1,0-.063c-.292.057-.407.3-.542.521-.4.654-.769,1.332-1.168,1.989-.112.185-.258.364-.185.607h0l1.891-3.054" transform="translate(-100.945 -66.341)" fill="#fefefe"/>
        <path id="Trazado_231484" data-name="Trazado 231484" d="M134.1,78.818c-.256,0-.507.021-.53.339l.012,0,.026,0a.5.5,0,0,1,.779-.1,2.422,2.422,0,0,1,.648.8c.5.8.906,1.663,1.483,2.418a13.228,13.228,0,0,0-1.894-3.212.655.655,0,0,0-.525-.247" transform="translate(-109.78 -64.779)" fill="#fefefe"/>
        <path id="Trazado_231485" data-name="Trazado 231485" d="M133.552,80.7a.618.618,0,0,0,0,.063.765.765,0,0,1,.043-.065l-.026,0-.012,0" transform="translate(-109.76 -66.326)" fill="#fefefe"/>
        <path id="Trazado_231486" data-name="Trazado 231486" d="M122.265,178.126a5.88,5.88,0,0,1-5.08.054,1.284,1.284,0,0,1-.717-.558c-.041.619-.073,1.239-.126,1.856-.035.406.137.556.536.555.688,0,1.376.039,2.064.042q1.867.009,3.735-.007c.6-.005.95-.241.878-.93-.063-.608-.055-1.223-.073-1.835l-.026.019a2.38,2.38,0,0,1-1.191.8" transform="translate(-95.615 -145.721)" fill="#00b0ee"/>
        <path id="Trazado_231487" data-name="Trazado 231487" d="M124.082,176.783l-.057.006a5.975,5.975,0,0,1-6.954.406,1.284,1.284,0,0,0,.717.558,5.88,5.88,0,0,0,5.08-.054,2.383,2.383,0,0,0,1.191-.8l.026-.019C124.083,176.845,124.083,176.814,124.082,176.783Z" transform="translate(-96.217 -145.294)" fill="#00b0ee"/>
        <path id="Trazado_231488" data-name="Trazado 231488" d="M156.17,176.783h0l-.057.006Z" transform="translate(-128.305 -145.293)" fill="#00b0ee"/>
        <path id="Trazado_231489" data-name="Trazado 231489" d="M162.633,77.774a3.679,3.679,0,0,1-1.092-3.08c-.458.005-.637.246-.646.748-.017.93.179,1.843.157,2.771-.009.387.258.468.577.471.639.005,1.277.007,1.916.01a3.026,3.026,0,0,1-.912-.92" transform="translate(-132.235 -61.389)" fill="#fdfdfc"/>
        <path id="Trazado_231490" data-name="Trazado 231490" d="M162.634,77.862c-.639,0-1.277,0-1.916-.01-.319,0-.586-.084-.577-.471.022-.927-.174-1.841-.157-2.771.009-.5.188-.743.646-.748.01-.054.02-.107.033-.162-.879-.052-.895-.052-.872.775.028,1.059.1,2.118.122,3.177.008.3.122.371.4.363.928-.025,1.856-.031,2.785-.045h0a1.115,1.115,0,0,1-.46-.108" transform="translate(-131.324 -60.557)" fill="#fdfdfc"/>
        <path id="Trazado_231491" data-name="Trazado 231491" d="M164.334,74.692h-.043a3.679,3.679,0,0,0,1.092,3.08,3.027,3.027,0,0,0,.912.92l.307,0a5.058,5.058,0,0,1-2.268-4" transform="translate(-134.985 -61.387)" fill="#fdfdfc"/>
        <path id="Trazado_231492" data-name="Trazado 231492" d="M175.776,97.152a1.115,1.115,0,0,0,.46.108h0c-.053-.035-.1-.071-.153-.107l-.307,0" transform="translate(-144.466 -79.847)" fill="#fdfdfc"/>
        <path id="Trazado_231493" data-name="Trazado 231493" d="M164.569,73.948c0-.054-.008-.107-.01-.161-.013.055-.023.108-.033.162h.043" transform="translate(-135.22 -60.644)" fill="#fdfdfc"/>
        <path id="Trazado_231494" data-name="Trazado 231494" d="M99.406,168.212h0a.362.362,0,0,1,.234.215,7.726,7.726,0,0,0,1.37,2.37.438.438,0,0,1,.109.365,4.267,4.267,0,0,0,.1-1.379c.054-1.774.047-1.774-1.81-1.571" transform="translate(-81.699 -138.175)" fill="#01b1ee"/>
        <path id="Trazado_231495" data-name="Trazado 231495" d="M101.011,171.211a7.726,7.726,0,0,1-1.37-2.37.362.362,0,0,0-.234-.215,6.934,6.934,0,0,0,1.714,2.95.438.438,0,0,0-.109-.365" transform="translate(-81.699 -138.59)" fill="#01b1ee"/>
        <path id="Trazado_231496" data-name="Trazado 231496" d="M55.554,187.274c.763.03.816-.064.914-.906-.425.163-.611.6-.914.906" transform="translate(-45.658 -153.171)" fill="#07bcf6"/>
        <path id="Trazado_231497" data-name="Trazado 231497" d="M54.444,187.047a1.124,1.124,0,0,1-.24.188c1.617.084,1.253.119,1.327-1.143a.909.909,0,0,0-.172.049c-.1.841-.152.936-.914.906" transform="translate(-44.549 -152.945)" fill="#07bcf6"/>
        <path id="Trazado_231498" data-name="Trazado 231498" d="M55.954,186.056l.008-.067c-.646-.026-.784.535-1.033.968l.112,0c.3-.3.489-.743.914-.906" transform="translate(-45.144 -152.859)" fill="#07bcf6"/>
        <path id="Trazado_231499" data-name="Trazado 231499" d="M60.695,185.993l-.008.067a.913.913,0,0,1,.172-.049h0a1.292,1.292,0,0,0-.164-.017" transform="translate(-49.877 -152.863)" fill="#07bcf6"/>
        <path id="Trazado_231500" data-name="Trazado 231500" d="M54.332,191.425a1.516,1.516,0,0,1-.129.193,1.126,1.126,0,0,0,.241-.188l-.112,0" transform="translate(-44.548 -157.328)" fill="#07bcf6"/>
        <path id="Trazado_231501" data-name="Trazado 231501" d="M217.582,191.98a2.536,2.536,0,0,0,.913,0,.976.976,0,0,0-.913,0" transform="translate(-178.825 -157.69)" fill="#3bc2f2"/>
        <path id="Trazado_231502" data-name="Trazado 231502" d="M219.434,191.3a.484.484,0,0,0-.389,0q.195.006.389,0" transform="translate(-180.028 -157.191)" fill="#3bc2f2"/>
        <path id="Trazado_231503" data-name="Trazado 231503" d="M218.231,191.485q-.194.007-.389,0a.837.837,0,0,0-.261.181.976.976,0,0,1,.913,0,.837.837,0,0,0-.263-.181" transform="translate(-178.825 -157.377)" fill="#3bc2f2"/>
      </g>
    </g>
  </g>
</svg>
