<svg xmlns="http://www.w3.org/2000/svg" xmlns:xlink="http://www.w3.org/1999/xlink" width="169.947" height="172" viewBox="0 0 169.947 172">
  <defs>
    <clipPath id="clip-path">
      <rect id="Rectángulo_7034" data-name="Rectángulo 7034" width="118.327" height="167.258" transform="translate(0 0)" fill="none"/>
    </clipPath>
    <clipPath id="clip-path-2">
      <rect id="Rectángulo_7035" data-name="Rectángulo 7035" width="51.62" height="134" fill="none"/>
    </clipPath>
    <clipPath id="clip-path-3">
      <path id="Trazado_108197" data-name="Trazado 108197" d="M39.9,364.717a.685.685,0,0,0,.722-.672c.076-.336.154-.672.23-1.008-1.635-.122-3.752-.286-5.361-.406.013.317.028.635.043.952a.908.908,0,0,0,.143.547.892.892,0,0,0,.447.245c.616.2,1.234.4,1.85.6l1.926-.254m-.486-4.242a10.055,10.055,0,0,0,3.227.59,4.847,4.847,0,0,0,1.646-.319q.459,11.8,1.395,23.57c-.95-.009-1.9-.015-2.848-.026q-5.605-.049-11.208-.1a133.749,133.749,0,0,1-.3-18.981q.215-3.875.67-7.723a69.727,69.727,0,0,0,7.417,2.989" transform="translate(-31.118 -357.486)" fill="none"/>
    </clipPath>
    <linearGradient id="linear-gradient" x1="1.315" y1="3.007" x2="1.305" y2="3.007" gradientUnits="objectBoundingBox">
      <stop offset="0" stop-color="#e6e0f0"/>
      <stop offset="1" stop-color="#fff"/>
    </linearGradient>
    <clipPath id="clip-path-5">
      <path id="Trazado_108240" data-name="Trazado 108240" d="M206.324,234.305l.2.505,1.351,3.429,1.149,2.917a.764.764,0,0,1-.872,1.028l-.75-.16-12.848-2.737a1.862,1.862,0,0,1-1.345-1.138l-2.975-7.547a1.5,1.5,0,0,0,.579-.048c.154-.041.325-.124.356-.282a.34.34,0,0,0-.187-.336,1.259,1.259,0,0,0-.393-.111.9.9,0,0,1-.284-.089,2.439,2.439,0,0,0,.733-.013.627.627,0,0,0,.529-.334.491.491,0,0,0-.252-.542,1,1,0,0,0-.28-.113.4.4,0,0,0,.161-.2.491.491,0,0,0-.254-.542.993.993,0,0,0-.282-.113.39.39,0,0,0,.163-.2.493.493,0,0,0-.252-.542,1.959,1.959,0,0,0-.618-.182,3.935,3.935,0,0,1-.941-.325c-.087-.043-.288-.206-.468-.321l-1.777-4.505Z" transform="translate(-186.767 -221.806)" fill="none"/>
    </clipPath>
    <linearGradient id="linear-gradient-2" x1="2.231" y1="4.921" x2="2.225" y2="4.921" gradientUnits="objectBoundingBox">
      <stop offset="0" stop-color="#f8b133"/>
      <stop offset="1" stop-color="#f29100"/>
    </linearGradient>
  </defs>
  <g id="Grupo_59524" data-name="Grupo 59524" transform="translate(4075 5780)">
    <g id="Grupo_59512" data-name="Grupo 59512" transform="translate(-4075 -5779.998)">
      <g id="Grupo_59511" data-name="Grupo 59511" transform="translate(0 -0.002)" clip-path="url(#clip-path)">
        <path id="Trazado_108177" data-name="Trazado 108177" d="M422.045,517.17v79.5a7.884,7.884,0,0,1-7.739,8.02H382.829a7.882,7.882,0,0,1-7.738-8.02V515.737a17.812,17.812,0,0,1,10.068-16.187,4.736,4.736,0,0,0,2.649-4.309v-3.2h21.519v3.57a5.077,5.077,0,0,0,2.667,4.485,19.289,19.289,0,0,1,10.051,17.077" transform="translate(-333.463 -437.431)" fill="#aec3ff"/>
        <path id="Trazado_108178" data-name="Trazado 108178" d="M445.731,743.456v69.955a6.847,6.847,0,0,1-6.616,7.056H412.2a6.847,6.847,0,0,1-6.617-7.056V742.194c0-.531.024-1.058.074-1.576a23.316,23.316,0,0,1,11.629-.291c6.217,1.524,11.337-1.463,18.652-1.463,5.094,0,7.351.789,9.349.608a17.978,17.978,0,0,1,.444,3.984" transform="translate(-360.571 -656.864)" fill="#83a9ff"/>
        <path id="Trazado_108179" data-name="Trazado 108179" d="M504.131,451.764H480.644V447.6a2,2,0,0,1,1.995-1.995h19.6a1.9,1.9,0,0,1,1.9,1.9Z" transform="translate(-427.301 -396.151)" fill="#f99746"/>
        <path id="Trazado_108180" data-name="Trazado 108180" d="M683.926,587.638s-3.51-5.651-6.58-4.875-1.055,2.755.811,4.875,3.1,2.586,4.57,1.787,1.7-1.055,1.2-1.787" transform="translate(-600.765 -518.022)" fill="#e3eeff"/>
        <path id="Trazado_108181" data-name="Trazado 108181" d="M820.1,547.363c0-3.138,5.2-9.23,5.2-9.23s5.2,6.092,5.2,9.23a5.223,5.223,0,1,1-10.406,0" transform="translate(-729.084 -478.41)" fill="#83a9ff"/>
        <path id="Trazado_108182" data-name="Trazado 108182" d="M834.527,618.16a2.151,2.151,0,0,1-.1-.873c.061-1.375,1.33-2.116,2.34-1.182a3.8,3.8,0,0,1,.7.96c.392.952.225,1.811-.647,2.17a1.791,1.791,0,0,1-2.288-1.075" transform="translate(-741.816 -547.358)" fill="#ccdcff"/>
        <rect id="Rectángulo_7032" data-name="Rectángulo 7032" width="23.339" height="3.82" transform="translate(35.958 129.391)" fill="#2b478b"/>
        <path id="Trazado_108183" data-name="Trazado 108183" d="M145.936,165.217h-9.8V42.651a42.653,42.653,0,1,1,85.307,0v10.1h-9.8v-10.1a32.858,32.858,0,0,0-65.717,0Z" transform="translate(-121.032 0.002)" fill="#233862"/>
        <path id="Trazado_108184" data-name="Trazado 108184" d="M236.878,1140h-5.866v-12.291h5.866a5.7,5.7,0,0,1,5.7,5.7v.884a5.7,5.7,0,0,1-5.7,5.7" transform="translate(-205.374 -1002.558)" fill="#233862"/>
        <path id="Trazado_108185" data-name="Trazado 108185" d="M432.224,1152.359l-21.036-.883a2.691,2.691,0,0,1-2.578-2.688v-1.879a2.691,2.691,0,0,1,2.611-2.69l21.036-.621a2.691,2.691,0,0,1,2.77,2.69v3.384a2.691,2.691,0,0,1-2.8,2.688" transform="translate(-363.262 -1016.678)" fill="#f99746"/>
        <path id="Trazado_108186" data-name="Trazado 108186" d="M120.34,1111.563h-17.1v-42.912a4.169,4.169,0,0,1,4.169-4.169h9.095a3.833,3.833,0,0,1,3.833,3.833Z" transform="translate(-91.785 -946.344)" fill="#2b478b"/>
        <path id="Trazado_108187" data-name="Trazado 108187" d="M40.013,1471.85H0v-.567a2.946,2.946,0,0,1,2.946-2.946h34.12a2.946,2.946,0,0,1,2.946,2.946Z" transform="translate(0 -1305.378)" fill="#163560"/>
        <path id="Trazado_108188" data-name="Trazado 108188" d="M812.747,449.908H802.631a1.561,1.561,0,0,1-1.556-1.556v-1.19a1.561,1.561,0,0,1,1.556-1.556h10.116a1.561,1.561,0,0,1,1.556,1.556v1.19a1.561,1.561,0,0,1-1.556,1.556" transform="translate(-712.171 -396.152)" fill="#060633"/>
        <path id="Trazado_108189" data-name="Trazado 108189" d="M696.012,703.223h40.295l-3.38,82.827-34.846-.482Z" transform="translate(-618.768 -625.178)" fill="#ccdbfd"/>
        <path id="Trazado_108190" data-name="Trazado 108190" d="M739.937,888.61l-1.553,49.646c-.075,2.383-1.73,4.271-3.745,4.271h-26c-2.127,0-3.878-1.983-3.971-4.5l-2.022-54.31c3.168-.774,9.419-1.342,16.875,2.988,6.323,3.671,14.611,3.054,20.412,1.906" transform="translate(-624.668 -785.163)" fill="#a6c6ff"/>
        <rect id="Rectángulo_7033" data-name="Rectángulo 7033" width="41.833" height="0.528" transform="translate(75.706 78.045)" fill="#83a9ff"/>
        <path id="Trazado_108191" data-name="Trazado 108191" d="M718.761,703.838l-2.693,86.071a2.411,2.411,0,0,1-2.41,2.336H678.681l-3.291-88.406h2.289l.582,15.785.155,4.193,2.023,54.8c.093,2.541,1.844,4.54,3.971,4.54h26c2.015,0,3.67-1.9,3.745-4.309l1.553-50.093.36-11.612.413-13.3Z" transform="translate(-600.434 -625.725)" fill="#2b478b"/>
        <path id="Trazado_108192" data-name="Trazado 108192" d="M971.682,731.326s-.072-1.8-2.45-1.8c-3.838,0-3.676,13.189-2.378,14.7s3.867.687,4.324-.144c1.764-3.207.5-12.753.5-12.753" transform="translate(-858.813 -648.558)" fill="#e3eeff"/>
        <path id="Trazado_108193" data-name="Trazado 108193" d="M935.766,1294.424c-.105-.712-.305-2.095-1.587-2.4s-2.692,1.221-3.421,3.722-4.451,4.21-3.291,6.407,4.844,1.5,5.85.667c1.838-1.521,2.753-6.337,2.449-8.4" transform="translate(-824.339 -1148.598)" fill="#e3eeff"/>
        <path id="Trazado_108194" data-name="Trazado 108194" d="M876.614,875.116s-4.685-1.171-5.549-3.4.7-3.488,2.324-2.992.883,2.6,2.054,4.5Z" transform="translate(-774.174 -772.22)" fill="#a6c6ff"/>
      </g>
    </g>
    <g id="Grupo_59523" data-name="Grupo 59523" transform="translate(-3956.673 -5742)">
      <g id="Grupo_59514" data-name="Grupo 59514">
        <g id="Grupo_59513" data-name="Grupo 59513" clip-path="url(#clip-path-2)">
          <path id="Trazado_108195" data-name="Trazado 108195" d="M83.8,162.552a1.505,1.505,0,0,1-2.535.529q-2.339,10.049-3.889,20.15l4.134,1.425a113.989,113.989,0,0,1,5.756-20.833,2.8,2.8,0,0,1-.688.412,2.172,2.172,0,0,1-1.88-.065,1.637,1.637,0,0,1-.831-1.631v0c-.022.007-.045.011-.067.015" transform="translate(-47.186 -138.296)" fill="#7a5ca2"/>
          <path id="Trazado_108196" data-name="Trazado 108196" d="M63.5,391.979c.013.317.028.635.043.952a.907.907,0,0,0,.143.546.889.889,0,0,0,.447.245l1.85.6,1.926-.254a.908.908,0,0,0,.481-.163.9.9,0,0,0,.241-.51c.076-.336.154-.672.23-1.008-1.635-.121-3.752-.286-5.361-.406" transform="translate(-26.715 -333.519)" fill="#e6e0f0"/>
        </g>
      </g>
      <g id="Grupo_59516" data-name="Grupo 59516" transform="translate(32.418 53.315)">
        <g id="Grupo_59515" data-name="Grupo 59515" transform="translate(0)" clip-path="url(#clip-path-3)">
          <rect id="Rectángulo_7036" data-name="Rectángulo 7036" width="14.711" height="26.83" transform="translate(-0.15 0)" fill="url(#linear-gradient)"/>
        </g>
      </g>
      <g id="Grupo_59518" data-name="Grupo 59518">
        <g id="Grupo_59517" data-name="Grupo 59517" clip-path="url(#clip-path-2)">
          <path id="Trazado_108198" data-name="Trazado 108198" d="M309.434,252.543a1.468,1.468,0,0,0,.13.128,2.047,2.047,0,0,0,1.653.382.9.9,0,0,0,.364-.134h0a.391.391,0,0,0,.163-.2.494.494,0,0,0-.252-.542,1.96,1.96,0,0,0-.618-.182,3.943,3.943,0,0,1-.941-.325c-.087-.043-.288-.206-.468-.321-.124-.076-.236-.132-.295-.113-.21.074-.093.618-.048.763a1.481,1.481,0,0,0,.31.544" transform="translate(-306.236 -213.762)" fill="#f6bb96"/>
          <path id="Trazado_108199" data-name="Trazado 108199" d="M307.686,274a1.5,1.5,0,0,0,.579-.048c.154-.041.325-.124.356-.282a.34.34,0,0,0-.186-.336,1.259,1.259,0,0,0-.393-.111.9.9,0,0,1-.284-.089,1.845,1.845,0,0,1-.824-.323.7.7,0,0,0-.011.707.951.951,0,0,0,.59.449.935.935,0,0,0,.173.033" transform="translate(-302.766 -232.122)" fill="#f6bb96"/>
          <path id="Trazado_108200" data-name="Trazado 108200" d="M304.654,266.8a1.844,1.844,0,0,0,.824.323,2.444,2.444,0,0,0,.733-.013.628.628,0,0,0,.529-.334.491.491,0,0,0-.251-.542,1.011,1.011,0,0,0-.28-.113.918.918,0,0,1-.371.135,2.043,2.043,0,0,1-1.653-.382,1.206,1.206,0,0,1-.128-.128,1.721,1.721,0,0,0,.063.31,1.439,1.439,0,0,0,.438.67,1.031,1.031,0,0,0,.1.074" transform="translate(-300.487 -226.109)" fill="#f6bb96"/>
          <path id="Trazado_108201" data-name="Trazado 108201" d="M308.332,260.537a2.048,2.048,0,0,1-1.653-.382,1.452,1.452,0,0,1-.13-.128,1.794,1.794,0,0,0,.063.31,1.428,1.428,0,0,0,.31.542,1.2,1.2,0,0,0,.128.128,2.043,2.043,0,0,0,1.653.382.917.917,0,0,0,.371-.134.4.4,0,0,0,.16-.2.49.49,0,0,0-.254-.542,1,1,0,0,0-.282-.113h0a.9.9,0,0,1-.364.135" transform="translate(-303.352 -221.247)" fill="#f6bb96"/>
          <path id="Trazado_108202" data-name="Trazado 108202" d="M40.961,16.6a7.39,7.39,0,0,0,3.7,4.307c.113-.247.249-.51.408-.8A21.078,21.078,0,0,1,47.6,16.982a9.762,9.762,0,0,0,2.093-4.1,6.551,6.551,0,0,0-.566-4.509,9.35,9.35,0,0,0-2.509-2.707c-.668-.527-1.358-1.026-2.058-1.507a16.009,16.009,0,0,1-1.271-2.553,3.479,3.479,0,0,0-2.622-1.6,3.87,3.87,0,0,0-2.919,1.024A4.367,4.367,0,0,0,36.4,3.843a2.512,2.512,0,0,0,.414,1.765.4.4,0,0,0-.03.028,6.122,6.122,0,0,0,.551.371,14.318,14.318,0,0,0,2.574,1.128l-.02.056A4.207,4.207,0,0,0,40,9.79a6.639,6.639,0,0,1,.512,1.44,1.894,1.894,0,0,1-.62,1.629c.184.156.366.315.551.473a1.8,1.8,0,0,1,2.4,2.674,2.42,2.42,0,0,1-1.518.586c-.119.007-.241.009-.36,0" transform="translate(-3.66 0)" fill="#402f6d"/>
          <path id="Trazado_108203" data-name="Trazado 108203" d="M79.3,56.416c.022,0,.045-.009.067-.015a11.254,11.254,0,0,0,3.96-1.945,3.6,3.6,0,0,1,.362-1.392,7.39,7.39,0,0,1-3.7-4.307c.119,0,.241,0,.36,0a2.42,2.42,0,0,0,1.518-.586,1.8,1.8,0,0,0-2.4-2.674c-.184-.158-.366-.317-.551-.473a1.9,1.9,0,0,0,.62-1.629,6.638,6.638,0,0,0-.512-1.44,4.207,4.207,0,0,1-.108-2.6l.019-.056a14.321,14.321,0,0,1-2.574-1.128,6.123,6.123,0,0,1-.551-.371A6.775,6.775,0,0,0,74.428,40a5.722,5.722,0,0,1-1.956,2.75c-.443.267-1.026.495-1.1,1.006a.9.9,0,0,0,.351.787,2.138,2.138,0,0,0,.592.33,12.9,12.9,0,0,0-1.071,3.353,2.975,2.975,0,0,0,.139,1.737,3.191,3.191,0,0,0,2.013,1.4c.961.312,1.945.538,2.91.831a2.143,2.143,0,0,1,1.1.616,1.791,1.791,0,0,1,.115,1.666,5.739,5.739,0,0,0,1.759,1.948s.011,0,.015,0" transform="translate(-42.683 -32.16)" fill="#f6bb96"/>
          <path id="Trazado_108204" data-name="Trazado 108204" d="M115.447,157.705c.056-.245.115-.492.173-.737a2.746,2.746,0,0,0-.173.737" transform="translate(-81.218 -133.558)" fill="#1d1d1b"/>
          <path id="Trazado_108205" data-name="Trazado 108205" d="M103.134,151.557a5.737,5.737,0,0,1-1.759-1.948c-.017.054-.037.108-.057.16-.119.312-.267.62-.382.935v0c-.059.245-.117.492-.173.737l-.15.638a1.506,1.506,0,0,0,2.535-.529l-.015,0" transform="translate(-66.535 -127.296)" fill="#402f6d"/>
          <path id="Trazado_108206" data-name="Trazado 108206" d="M120.994,158.331l.15-.638a2.748,2.748,0,0,1,.174-.737v0a10.293,10.293,0,0,1-3.31,1.034q-.612,1.07-1.223,2.139a1.538,1.538,0,0,0-.28.833c.069.961,1.718,1.08,1.906,2.026a3.956,3.956,0,0,0-2.587,1.421,3.73,3.73,0,0,0-.377,1.95c0,3.4.468,7.925.872,11.854l.787.271q1.532-10.108,3.889-20.15" transform="translate(-86.915 -133.546)" fill="#e6e0f0"/>
          <path id="Trazado_108207" data-name="Trazado 108207" d="M153.708,315.6c.054-.3.111-.592.173-.887a6.158,6.158,0,0,1-1.681-.744,17.617,17.617,0,0,0-2.507-1.464c-.163-.065-.328-.122-.495-.174a.029.029,0,0,0,0,.013c-.1.859-.2,1.715-.3,2.576l6.617,2.874c.063-.523.128-1.043.2-1.566-.837-.269-1.531-.484-2-.629" transform="translate(-126.291 -265.752)" fill="#e6e0f0"/>
          <path id="Trazado_108208" data-name="Trazado 108208" d="M72.392,151.441a1.637,1.637,0,0,0,.831,1.631,2.172,2.172,0,0,0,1.88.065,2.811,2.811,0,0,0,.688-.412q.361-.953.746-1.9a4.226,4.226,0,0,1-.184-1.332,11.255,11.255,0,0,1-3.96,1.946Z" transform="translate(-35.71 -127.198)" fill="#402f6d"/>
          <path id="Trazado_108209" data-name="Trazado 108209" d="M191.071,282.118q-.989-.156-1.976-.308c-.141.106-.28.213-.418.321l1.609.267a1.391,1.391,0,0,0,.694,0,.233.233,0,0,0,.152-.121.11.11,0,0,0-.063-.141Z" transform="translate(-167.658 -239.781)" fill="#f2a68e"/>
          <path id="Trazado_108210" data-name="Trazado 108210" d="M191.982,291.659a.1.1,0,0,0-.069-.126l.006-.024-2.472-.716a.129.129,0,0,0-.028-.007.4.4,0,0,0-.334.221,15.367,15.367,0,0,0,2.26.672c.117.026.234.05.353.069a.414.414,0,0,0,.163.009.16.16,0,0,0,.121-.1" transform="translate(-168.567 -247.418)" fill="#f2a68e"/>
          <path id="Trazado_108211" data-name="Trazado 108211" d="M211.132,278.669l.243.616c.152-.113.308-.23.464-.349a1.546,1.546,0,0,1-.672-.239l-.035-.028" transform="translate(-191.707 -237.108)" fill="#1d1d1b"/>
          <path id="Trazado_108212" data-name="Trazado 108212" d="M211.729,288.994a.309.309,0,0,0-.03.024l.046.013Z" transform="translate(-191.698 -245.894)" fill="#1d1d1b"/>
          <path id="Trazado_108213" data-name="Trazado 108213" d="M192.519,312.2l.059.033a.028.028,0,0,1,0-.013l-.061-.02" transform="translate(-169.672 -265.641)" fill="#1d1d1b"/>
          <path id="Trazado_108214" data-name="Trazado 108214" d="M204.148,280.66l-1.212-.189-.093-.013c-.156.119-.312.236-.464.349l.364.924.987-.75c.139-.108.278-.215.419-.321" transform="translate(-182.711 -238.631)" fill="#7a5ca2"/>
          <path id="Trazado_108215" data-name="Trazado 108215" d="M205.554,303.918l-.078-.193a.641.641,0,0,0,.078.193" transform="translate(-184.579 -258.428)" fill="#1d1d1b"/>
          <path id="Trazado_108216" data-name="Trazado 108216" d="M193.687,300.215a8.5,8.5,0,0,1-1.579-.579.533.533,0,0,0-.421.169,4.752,4.752,0,0,0,1.748.616.3.3,0,0,0,.219-.035.124.124,0,0,0,.033-.171" transform="translate(-170.677 -254.945)" fill="#f2a68e"/>
          <path id="Trazado_108217" data-name="Trazado 108217" d="M215.881,274.975a.619.619,0,0,0,.217.551Z" transform="translate(-196.673 -233.965)" fill="#1d1d1b"/>
          <path id="Trazado_108218" data-name="Trazado 108218" d="M157.553,275.968a.1.1,0,0,1,.069.126.16.16,0,0,1-.121.1.41.41,0,0,1-.163-.009c-.119-.02-.236-.043-.353-.069a15.376,15.376,0,0,1-2.26-.672.4.4,0,0,0-.05.1.518.518,0,0,0,.121.471,1.354,1.354,0,0,0,.4.3c.143.08.288.156.438.226a8.5,8.5,0,0,0,1.579.579.124.124,0,0,1-.033.171.3.3,0,0,1-.219.035,4.755,4.755,0,0,1-1.748-.616.417.417,0,0,0-.119.208.549.549,0,0,0,.007.23l.078.193a.908.908,0,0,0,.2.241,2.515,2.515,0,0,0,.672.343,8.482,8.482,0,0,1,1,.488l.061.02c.167.052.332.108.495.174a17.643,17.643,0,0,1,2.507,1.464,6.157,6.157,0,0,0,1.681.744q.465-2.29,1.15-4.528a6.954,6.954,0,0,1-2.507-1.629,10.009,10.009,0,0,0-1.451-1.427,3.592,3.592,0,0,0-1.247-.51c-.158-.035-.319-.061-.481-.08-.228-.03-.455-.046-.683-.054s-.477-.011-.716-.011c-.538,0-1.076.013-1.609-.037v0l0-.013a.719.719,0,0,0-.787.2.4.4,0,0,0-.052.137l.217.551.035.028a1.545,1.545,0,0,0,.672.239l.093.013,1.212.189q.986.153,1.976.308l0,.015a.11.11,0,0,1,.063.141.233.233,0,0,1-.152.121,1.393,1.393,0,0,1-.694,0l-1.609-.267-.987.75.015.037c.269.076.536.154.8.232a.138.138,0,0,1,.028.006l2.472.716Z" transform="translate(-134.207 -231.853)" fill="#f6bb96"/>
          <path id="Trazado_108219" data-name="Trazado 108219" d="M183.648,231.918l.525,1.336a.405.405,0,0,1,.052-.137.719.719,0,0,1,.787-.2l0,.013v0c.534.05,1.071.039,1.609.037v-.048c.694-.525,1.388-1.052,2.063-1.568q.273-2.723.514-5.411l-5.548,5.977" transform="translate(-164.965 -192.244)" fill="#e6e0f0"/>
          <path id="Trazado_108220" data-name="Trazado 108220" d="M220.25,882.287a2.275,2.275,0,0,0-1.483,1.258q1.6-.058,3.2-.1a4.02,4.02,0,0,0-.473-1.464c-.414.1-.833.2-1.247.3" transform="translate(-202.977 -750.445)" fill="#fff"/>
          <path id="Trazado_108221" data-name="Trazado 108221" d="M159.444,891.246q-1.6.039-3.2.1a1.836,1.836,0,0,0-.174.9l12.7-.03c.009-.354.017-.707.024-1.06q-4.675-.023-9.352.093" transform="translate(-140.451 -758.243)" fill="#402f6d"/>
          <path id="Trazado_108222" data-name="Trazado 108222" d="M155.889,860.247c-.206.067-.416.126-.627.182a4.013,4.013,0,0,1,.473,1.464q4.675-.117,9.352-.093.059-2.547.119-5.094-2.859-.029-5.723-.054a5.77,5.77,0,0,1-3.594,3.6" transform="translate(-136.742 -728.891)" fill="#7a5ca2"/>
          <path id="Trazado_108223" data-name="Trazado 108223" d="M150.9,339.272c1.618-.026,3.739-.052,5.379-.076.158,0,.312-.007.46-.009l.605.056q.306-3.344.713-6.673l-6.617-2.874c-.013.113-.028.228-.041.343l1.149,2.917a.764.764,0,0,1-.872,1.028l-.75-.16q-.345,2.7-.722,5.4l.351.05.345-.007" transform="translate(-128.836 -280.526)" fill="#fff"/>
          <path id="Trazado_108224" data-name="Trazado 108224" d="M40.653,347.569c-.065.492-.126.987-.184,1.479a69.656,69.656,0,0,0,7.417,2.989,10.055,10.055,0,0,0,3.227.59,4.85,4.85,0,0,0,1.646-.319q-.081-2.02-.143-4.038l-.135.219a4.156,4.156,0,0,1-5.246,1.616c-1.874-.844-4.307-1.748-6.582-2.535" transform="translate(-7.175 -295.733)" fill="#e6e0f0"/>
          <path id="Trazado_108225" data-name="Trazado 108225" d="M129.116,464.625c0,.024,0,.048,0,.074.353,3.769,1.859,19.95,2.308,26.721.362-4.008.776-8.007,1.243-11.959q-.264-2.368-.56-4.717-.647-5.179-1.442-10.239a.781.781,0,0,0-1.553.119" transform="translate(-100.307 -394.669)" fill="#231a3c"/>
          <path id="Trazado_108226" data-name="Trazado 108226" d="M42.522,887.37l-2.709.043c0,.505,0,1.008-.007,1.514q4.9-.021,9.8-.049l-.116-1.617-6.968.108" transform="translate(-3.924 -754.936)" fill="#402f6d"/>
          <path id="Trazado_108227" data-name="Trazado 108227" d="M47.3,584.245l6.285-.059,2.987-.028c-1.505-15.073-1.453-31.605-1.045-47.555q-5.605-.049-11.208-.1L43.7,536.5l-.5.063q.3,2.349.56,4.717c1.6,14.279,2.409,29,2.622,42.976.306,0,.614-.006.92-.009" transform="translate(-11.398 -456.484)" fill="#402f6d"/>
          <path id="Trazado_108228" data-name="Trazado 108228" d="M133.593,427.242q-3.263.023-6.526.044c-.488,16.456-.126,32.08-1.7,47.685l3.394.033q2.863.026,5.723.054l.967.009c.156-9.976.74-20.558,1.689-31.072-.449-6.771-1.954-22.952-2.307-26.721,0-.026,0-.05,0-.074a.781.781,0,0,1,1.553-.119q.8,5.052,1.442,10.239l.5-.063.622.007a133.725,133.725,0,0,1-.3-18.981q-2.154-.085-4.307-.173-.784,9.506-.742,19.135" transform="translate(-106.019 -347.242)" fill="#402f6d"/>
          <path id="Trazado_108229" data-name="Trazado 108229" d="M46.2,246.261q-.364.53-.709,1.041l5.875,2.026q2.319-6.584,4.637-13.164l-5.342,11.555Z" transform="translate(-11.162 -200.942)" fill="#e6e0f0"/>
          <path id="Trazado_108230" data-name="Trazado 108230" d="M162.126,393.466c.045.315.087.631.13.946a.907.907,0,0,0,.193.531.893.893,0,0,0,.466.2q.95.215,1.9.427l1.9-.427a.682.682,0,0,0,.659-.735c.045-.341.093-.681.139-1.021-1.64.024-3.761.05-5.379.076" transform="translate(-140.064 -334.72)" fill="#e6e0f0"/>
          <path id="Trazado_108231" data-name="Trazado 108231" d="M161.781,395.525q-.947-.211-1.9-.427a.894.894,0,0,1-.466-.2.906.906,0,0,1-.193-.531c-.043-.315-.085-.631-.13-.946l-.345.007-.351-.05c-1,7.241-2.151,14.44-3.414,21.362q1.549-.01,3.1-.022,3.263-.02,6.526-.043-.055-9.636.742-19.135c.061-.716.121-1.431.189-2.147l-.605-.056c-.147,0-.3,0-.46.009-.045.34-.093.681-.139,1.022a.682.682,0,0,1-.659.735l-1.9.427" transform="translate(-137.034 -334.671)" fill="#fff"/>
          <path id="Trazado_108232" data-name="Trazado 108232" d="M60.524,158.422q-.384.947-.746,1.9a113.984,113.984,0,0,0-5.756,20.833q.345-.511.709-1.041c2.295-3.372,5.042-7.354,6.741-10.5a3.708,3.708,0,0,0,.594-1.9,3.957,3.957,0,0,0-1.6-2.481c.616-.742,2.123-.063,2.642-.876a1.538,1.538,0,0,0,.15-.865q-.026-1.132-.054-2.266a12.818,12.818,0,0,1-2.681-2.811" transform="translate(-19.698 -134.795)" fill="#e6e0f0"/>
          <path id="Trazado_108233" data-name="Trazado 108233" d="M.174,199.793c-.063.3-.119.59-.173.887.466.145,1.16.36,2,.629,1.149.371,2.572.839,4.064,1.357,2.275.787,4.708,1.692,6.582,2.535a4.156,4.156,0,0,0,5.246-1.616l.134-.219a61.339,61.339,0,0,0,4.656-9.269c1.208-3.017,2.171-6.437.974-9.456-.9-2.262-2.869-3.9-4.834-5.339-.913-.666-1.852-1.321-2.73-2.034q.029,1.136.054,2.266a1.538,1.538,0,0,1-.15.865c-.518.814-2.026.135-2.642.876a3.958,3.958,0,0,1,1.6,2.481,3.706,3.706,0,0,1-.594,1.9c-1.7,3.143-4.446,7.125-6.741,10.5l4.461,1.458,5.342-11.555q-2.316,6.581-4.637,13.164L6.908,197.19l-4.134-1.425-.787-.271c-.13-.045-.26-.091-.393-.135-.091-.03-.182-.061-.271-.1Q.64,197.5.174,199.793" transform="translate(27.416 -150.83)" fill="#fff"/>
          <path id="Trazado_108234" data-name="Trazado 108234" d="M172.143,253.769c-.674.516-1.368,1.043-2.062,1.568v.048c.238,0,.477,0,.716.011s.455.024.683.054c.178-.139.358-.275.534-.412.865-.666,1.709-1.319,2.49-1.926a.467.467,0,0,0,.178-.364.453.453,0,0,0-.141-.332.458.458,0,0,0-.6-.033c-.573.445-1.175.909-1.8,1.386" transform="translate(-148.427 -214.661)" fill="#7a5ca2"/>
          <path id="Trazado_108235" data-name="Trazado 108235" d="M188.5,270.729c-.176.137-.356.273-.533.412.163.02.323.046.481.08.02-.163.037-.328.052-.492" transform="translate(-164.914 -230.353)" fill="#1d1d1b"/>
          <path id="Trazado_108236" data-name="Trazado 108236" d="M142.1,173.144q-.241,2.684-.514,5.411c.623-.477,1.225-.941,1.8-1.386a.458.458,0,0,1,.6.033.453.453,0,0,1,.141.332.467.467,0,0,1-.178.364c-.781.607-1.624,1.26-2.49,1.926-.015.165-.033.33-.052.492a3.592,3.592,0,0,1,1.247.51,10.028,10.028,0,0,1,1.451,1.427,6.951,6.951,0,0,0,2.507,1.629c.089.035.18.065.271.1.132.043.262.089.393.134-.4-3.93-.876-8.452-.872-11.854a3.73,3.73,0,0,1,.377-1.95,3.956,3.956,0,0,1,2.587-1.421c-.189-.946-1.837-1.065-1.906-2.026a1.538,1.538,0,0,1,.28-.833q.612-1.067,1.223-2.138a26.6,26.6,0,0,0-4.535.924c-2.876,1.037-4.995,3.494-6.717,6.023-.939,1.382-1.811,2.824-2.774,4.19l1.616,4.095,5.548-5.977" transform="translate(-117.866 -139.448)" fill="#fff"/>
          <path id="Trazado_108237" data-name="Trazado 108237" d="M121.645,340.032c.063-.523.128-1.043.2-1.566,1.149.371,2.572.839,4.064,1.358-.065.492-.126.987-.184,1.479,0,.032-.007.064-.011.1l-4.068-1.341c0-.009,0-.017,0-.026" transform="translate(-92.426 -287.987)" fill="#654494"/>
          <path id="Trazado_108238" data-name="Trazado 108238" d="M122.948,357.932c.061-.716.121-1.431.189-2.147q.3-3.331.71-6.647l4.068,1.341q-.447,3.8-.66,7.627-2.154-.085-4.307-.173" transform="translate(-94.631 -297.068)" fill="#7a5ca2"/>
          <path id="Trazado_108239" data-name="Trazado 108239" d="M205.3,192.056a.765.765,0,0,1,.872-1.03l13.6,2.9a1.864,1.864,0,0,1,1.345,1.136l1.2,3.038,1.616,4.095.525,1.336a.619.619,0,0,0,.217.551l.243.616.364.924a.322.322,0,0,0-.03.024l.046.013.85,2.16a.645.645,0,0,0,.078.193l.035.089-19.557-12.5Z" transform="translate(-205.241 -162.522)" fill="#f8b133"/>
        </g>
      </g>
      <g id="Grupo_59520" data-name="Grupo 59520" transform="translate(1.454 33.08)">
        <g id="Grupo_59519" data-name="Grupo 59519" transform="translate(0)" clip-path="url(#clip-path-5)">
          <rect id="Rectángulo_7038" data-name="Rectángulo 7038" width="22.482" height="20.506" transform="translate(0 0)" fill="url(#linear-gradient-2)"/>
        </g>
      </g>
      <g id="Grupo_59522" data-name="Grupo 59522">
        <g id="Grupo_59521" data-name="Grupo 59521" clip-path="url(#clip-path-2)">
          <path id="Trazado_108241" data-name="Trazado 108241" d="M49.522,861.035q.006-2.358.015-4.717l6.285-.058a5,5,0,0,0,.679,1.4,9.866,9.866,0,0,0,.688.874c.22.251.449.5.678.74a5.091,5.091,0,0,0-4.621,1.7l-1.015.016-2.709.043" transform="translate(-13.632 -728.557)" fill="#7a5ca2"/>
          <path id="Trazado_108242" data-name="Trazado 108242" d="M43.018,876.305a5.159,5.159,0,0,1,2.188-.142c.318.341.635.682.925,1.045.143.178.28.367.408.562l-5.954.093a5.175,5.175,0,0,1,2.433-1.557" transform="translate(-0.972 -745.445)" fill="#fff"/>
        </g>
      </g>
    </g>
  </g>
</svg>
