<svg xmlns="http://www.w3.org/2000/svg" xmlns:xlink="http://www.w3.org/1999/xlink" width="200.037" height="207.194" viewBox="0 0 200.037 207.194">
  <defs>
    <clipPath id="clip-path">
      <rect id="Rectángulo_7088" data-name="Rectángulo 7088" width="148" height="198.568" fill="none"/>
    </clipPath>
    <clipPath id="clip-path-2">
      <path id="Trazado_108353" data-name="Trazado 108353" d="M416.769,1202.977v15.832a17.4,17.4,0,1,0,18.857,0v-15.832Z" transform="translate(-408.801 -1202.977)" fill="none"/>
    </clipPath>
    <linearGradient id="linear-gradient" x1="-0.862" y1="1.341" x2="-0.859" y2="1.341" gradientUnits="objectBoundingBox">
      <stop offset="0" stop-color="#cdd747"/>
      <stop offset="1" stop-color="#93bf2b"/>
    </linearGradient>
    <clipPath id="clip-path-4">
      <path id="Trazado_108357" data-name="Trazado 108357" d="M739.038,480.1a.725.725,0,0,1-.375-.164.716.716,0,0,1-.154-.427c-.035-.253-.07-.508-.1-.762,1.3-.019,3.007-.04,4.324-.059-.038.274-.075.548-.112.822a.73.73,0,0,1-.155.427.712.712,0,0,1-.375.164c-.508.113-1.017.228-1.524.344-.509-.115-1.015-.23-1.525-.344m-.48-23.586a15.7,15.7,0,0,0-4.528,4.122q-3.652,4.333-7.3,8.664-4.44-3.064-8.823-6.208-.641,1.594-1.286,3.187c-.126.314-.253.63-.38.944q3.163,3.765,6.627,7.26a4.245,4.245,0,0,0,2.2,1.425,4.029,4.029,0,0,0,2.73-.926c1.573-1.055,3.042-2.257,4.505-3.457q1.334-1.094,2.667-2.186A23.41,23.41,0,0,1,738.1,461a44.2,44.2,0,0,0-1.223,5.725,4.5,4.5,0,0,0,.112.952c.251,1.148.86,2.175,1.1,3.384a161.646,161.646,0,0,1-2.5,25.891l2.039,0,5.409,0c.57-6.2.98-12.435,1.176-18.682q.1-3.079.124-6.163-1.7-4.969-3.4-9.937a3.374,3.374,0,0,1-.263-1.835,2.243,2.243,0,0,1,.94-1.272,4.972,4.972,0,0,1,1-.523l-1.061-.5a.532.532,0,0,1-.321-.8c.192-.647.385-1.3.576-1.943a26.116,26.116,0,0,0-3.253,1.211" transform="translate(-716.238 -455.299)" fill="none"/>
    </clipPath>
    <linearGradient id="linear-gradient-2" x1="-1.851" y1="4.691" x2="-1.849" y2="4.691" gradientUnits="objectBoundingBox">
      <stop offset="0" stop-color="#e6e0f0"/>
      <stop offset="1" stop-color="#fff"/>
    </linearGradient>
    <clipPath id="clip-path-6">
      <path id="Trazado_108372" data-name="Trazado 108372" d="M989.343,474.593a.725.725,0,0,1-.377-.164.74.74,0,0,1-.154-.427c-.037-.274-.075-.548-.112-.822,1.317.019,3.025.04,4.324.059-.035.255-.07.509-.1.762a.739.739,0,0,1-.154.427.724.724,0,0,1-.377.164c-.508.113-1.013.228-1.523.344-.508-.115-1.017-.23-1.525-.344m-.155-22.854a.715.715,0,0,1,.009.558.706.706,0,0,1-.328.244q-.531.251-1.062.5a5.13,5.13,0,0,1,1,.525,2.252,2.252,0,0,1,.94,1.272,3.392,3.392,0,0,1-.263,1.835q-1.711,5-3.424,10c.007,1.931.023,3.914.051,5.922.087,6.335.3,12.934.71,19.016q4.027.112,8.053-.047.809-.031,1.617-.073c-.644-5.768-2.807-17.964-3.1-22.442a45.564,45.564,0,0,1,.047-6.173c.148-2.107.4-4.211.7-6.309a46.751,46.751,0,0,1,.387,8.13,35.12,35.12,0,0,1,4.406,16.806l.014.1.811-.12q1.617-.241,3.232-.48c.058-.009.113-.017.171-.024l0-.009q-.369-5.869-1.1-11.706a.006.006,0,0,0,0,0c-1.422-4.287-3.722-10.234-5.182-13.932a9,9,0,0,0-5.044-5.048q-1.7-.678-3.429-1.238.4,1.347.8,2.693" transform="translate(-986.062 -449.046)" fill="none"/>
    </clipPath>
    <linearGradient id="linear-gradient-3" x1="-2.439" y1="7.202" x2="-2.436" y2="7.202" xlink:href="#linear-gradient-2"/>
    <clipPath id="clip-path-7">
      <path id="Trazado_108373" data-name="Trazado 108373" d="M659.673,501.854a.274.274,0,0,1-.05.048.318.318,0,0,0,.05-.048m-6.34-3.823a.482.482,0,0,0-.248.417.525.525,0,0,0,.23.429,1.077,1.077,0,0,0,.447.141c.49.082,1.015.211,1.507.295l-2.25-.042a1.386,1.386,0,0,0-.628.087.418.418,0,0,0,0,.8.952.952,0,0,0,.141.04.459.459,0,0,0-.307.5.72.72,0,0,0,.4.509,1.922,1.922,0,0,0,.649.171c.593.077,1.191.11,1.79.131v.019a7.611,7.611,0,0,0-1.643.173.946.946,0,0,0-.415.173.374.374,0,0,0-.136.4.5.5,0,0,0,.375.256,4.3,4.3,0,0,0,1.1.086,5.157,5.157,0,0,1,.933.05c.863.153,1.6.741,2.47.9a5.051,5.051,0,0,0,.968.051c.121,0,.243,0,.363,0s.237.007.356.019l.276-1.842a.241.241,0,0,0,.029-.194.18.18,0,0,0-.272-.091l.005.038a1.523,1.523,0,0,1-1.242-.509,3.746,3.746,0,0,0-1.132-.905c-.274-.1-.577-.115-.839-.241s-.48-.441-.351-.7c.136-.277.523-.281.83-.244q1.081.128,2.161.26l.028-.063a12.82,12.82,0,0,0-1.2-.457,13.261,13.261,0,0,0-2.69-.583l0,.019a7.946,7.946,0,0,0-1.252-.159c-.039,0-.077,0-.116,0a.705.705,0,0,0-.328.064" transform="translate(-652.093 -497.967)" fill="none"/>
    </clipPath>
    <linearGradient id="linear-gradient-4" x1="-13.261" y1="17.673" x2="-13.241" y2="17.673" gradientUnits="objectBoundingBox">
      <stop offset="0" stop-color="#f2a68e"/>
      <stop offset="0.162" stop-color="#f2a68e"/>
      <stop offset="1" stop-color="#f6bb96"/>
    </linearGradient>
    <clipPath id="clip-path-9">
      <path id="Trazado_108377" data-name="Trazado 108377" d="M35.768,1118.844a.73.73,0,0,1-.387-.131.721.721,0,0,1-.194-.41c-.061-.27-.124-.541-.185-.811,1.315-.1,3.018-.23,4.312-.326-.01.255-.023.511-.035.766a.731.731,0,0,1-.115.44.714.714,0,0,1-.359.2l-1.488.48-1.549-.2m.391-3.412a8.085,8.085,0,0,1-2.6.474,3.894,3.894,0,0,1-1.324-.256q-.369,9.488-1.122,18.957c.764-.007,1.526-.012,2.29-.021q4.508-.039,9.015-.08a107.571,107.571,0,0,0,.241-15.266q-.173-3.116-.539-6.212a56.049,56.049,0,0,1-5.965,2.4" transform="translate(-31.118 -1113.028)" fill="none"/>
    </clipPath>
    <linearGradient id="linear-gradient-5" x1="-0.315" y1="3.015" x2="-0.305" y2="3.015" xlink:href="#linear-gradient-2"/>
    <clipPath id="clip-path-11">
      <path id="Trazado_108420" data-name="Trazado 108420" d="M188.983,987.4l-.16.406-1.087,2.758-.924,2.346a.614.614,0,0,0,.7.827l.6-.129,10.333-2.2a1.5,1.5,0,0,0,1.082-.916l2.393-6.07a1.2,1.2,0,0,1-.466-.038c-.124-.033-.261-.1-.286-.227a.274.274,0,0,1,.15-.27,1.01,1.01,0,0,1,.316-.089.731.731,0,0,0,.229-.071,1.966,1.966,0,0,1-.59-.011.5.5,0,0,1-.426-.269.4.4,0,0,1,.2-.436.813.813,0,0,1,.225-.091.322.322,0,0,1-.129-.159.4.4,0,0,1,.2-.436.8.8,0,0,1,.227-.091.314.314,0,0,1-.131-.161.4.4,0,0,1,.2-.436,1.571,1.571,0,0,1,.5-.147,3.164,3.164,0,0,0,.757-.262c.07-.035.232-.166.377-.258l1.429-3.624Z" transform="translate(-186.767 -977.347)" fill="none"/>
    </clipPath>
    <linearGradient id="linear-gradient-6" x1="-1.231" y1="4.931" x2="-1.225" y2="4.931" gradientUnits="objectBoundingBox">
      <stop offset="0" stop-color="#f8b133"/>
      <stop offset="1" stop-color="#f29100"/>
    </linearGradient>
    <clipPath id="clip-path-13">
      <path id="Trazado_108423" data-name="Trazado 108423" d="M964.349,1257.118h19.059l1.572,7.233H965.921Zm-1.913-8.8h19.059l1.572,7.233H964.008Zm-1.913-8.8h19.059l1.572,7.233H962.095Zm-1.913-8.8h19.059l1.572,7.233H960.181Zm17.123-8.907,1.595,7.338H958.268l-1.667-7.671-1.534.334,11.24,51.719,1.534-.334-1.579-7.266h19.059l1.652,7.6,1.534-.334-11.24-51.719Z" transform="translate(-955.067 -1221.468)" fill="none"/>
    </clipPath>
    <linearGradient id="linear-gradient-7" x1="-3.426" y1="1" x2="-3.422" y2="1" xlink:href="#linear-gradient-2"/>
    <clipPath id="clip-path-14">
      <rect id="Rectángulo_7106" data-name="Rectángulo 7106" width="27.341" height="1.873" fill="none"/>
    </clipPath>
    <linearGradient id="linear-gradient-8" x1="-46.012" y1="2.395" x2="-45.968" y2="2.395" xlink:href="#linear-gradient-2"/>
  </defs>
  <g id="Grupo_904040" data-name="Grupo 904040" transform="translate(-1114.963 -5879)">
    <g id="Grupo_562019" data-name="Grupo 562019" transform="translate(12959.296 18274.9)">
      <path id="Trazado_193902" data-name="Trazado 193902" d="M514.814,214.68l-7.886,7.886a3.5,3.5,0,0,1-4.945,0h0a3.5,3.5,0,0,1,0-4.945l4.3-4.305a3.5,3.5,0,0,0,0-4.945l-.348-.347a3.5,3.5,0,0,0-4.945,0l-15.04,14.819a3.5,3.5,0,0,0,0,4.945l.347.347a3.5,3.5,0,0,0,4.945,0l2.465-2.465a3.5,3.5,0,0,1,4.945,0h0a3.5,3.5,0,0,1,0,4.945l-2.865,2.865a3.5,3.5,0,0,0,0,4.945l.347.347a3.5,3.5,0,0,0,4.945,0l19.021-18.8a3.5,3.5,0,0,0,0-4.945l-.347-.347A3.5,3.5,0,0,0,514.814,214.68Z" transform="translate(-12222.771 -12594.096)" fill="#b4bbdc"/>
      <g id="Grupo_559619" data-name="Grupo 559619" transform="translate(-11843.019 -12386.023)">
        <g id="Grupo_559609" data-name="Grupo 559609">
          <path id="Trazado_193904" data-name="Trazado 193904" d="M191.815,336.349a49.843,49.843,0,1,1,49.843-49.844A49.9,49.9,0,0,1,191.815,336.349Zm0-97.756a47.913,47.913,0,1,0,47.912,47.912A47.967,47.967,0,0,0,191.815,238.593Z" transform="translate(-141.971 -236.663)" fill="#6376c7"/>
        </g>
        <g id="Grupo_559610" data-name="Grupo 559610" transform="translate(4.532 4.531)">
          <path id="Trazado_193905" data-name="Trazado 193905" d="M202.228,342.23a45.312,45.312,0,1,1,45.311-45.312A45.363,45.363,0,0,1,202.228,342.23Zm0-88.693a43.381,43.381,0,1,0,43.381,43.381A43.43,43.43,0,0,0,202.228,253.537Z" transform="translate(-156.916 -251.607)" fill="#6376c7"/>
        </g>
        <g id="Grupo_559611" data-name="Grupo 559611" transform="translate(9.064 9.063)">
          <path id="Trazado_193906" data-name="Trazado 193906" d="M212.642,348.112a40.78,40.78,0,1,1,40.78-40.78A40.827,40.827,0,0,1,212.642,348.112Zm0-79.63a38.85,38.85,0,1,0,38.85,38.85A38.894,38.894,0,0,0,212.642,268.482Z" transform="translate(-171.862 -266.552)" fill="#6376c7"/>
        </g>
        <g id="Grupo_559612" data-name="Grupo 559612" transform="translate(13.595 13.594)">
          <path id="Trazado_193907" data-name="Trazado 193907" d="M223.056,353.993A36.248,36.248,0,1,1,259.3,317.745,36.289,36.289,0,0,1,223.056,353.993Zm0-70.567a34.318,34.318,0,1,0,34.318,34.318A34.357,34.357,0,0,0,223.056,283.426Z" transform="translate(-186.807 -281.496)" fill="#6376c7"/>
        </g>
        <g id="Grupo_559613" data-name="Grupo 559613" transform="translate(18.127 18.126)">
          <path id="Trazado_193908" data-name="Trazado 193908" d="M233.469,359.875a31.717,31.717,0,1,1,31.717-31.717A31.753,31.753,0,0,1,233.469,359.875Zm0-61.5a29.787,29.787,0,1,0,29.786,29.786A29.82,29.82,0,0,0,233.469,298.372Z" transform="translate(-201.752 -296.441)" fill="#6376c7"/>
        </g>
        <g id="Grupo_559614" data-name="Grupo 559614" transform="translate(22.659 22.658)">
          <path id="Trazado_193909" data-name="Trazado 193909" d="M243.883,365.757a27.185,27.185,0,1,1,27.185-27.185A27.216,27.216,0,0,1,243.883,365.757Zm0-52.44a25.255,25.255,0,1,0,25.254,25.255A25.283,25.283,0,0,0,243.883,313.317Z" transform="translate(-216.698 -311.387)" fill="#6376c7"/>
        </g>
        <g id="Grupo_559615" data-name="Grupo 559615" transform="translate(27.19 27.189)">
          <path id="Trazado_193910" data-name="Trazado 193910" d="M254.3,371.639a22.654,22.654,0,1,1,22.653-22.654A22.68,22.68,0,0,1,254.3,371.639Zm0-43.378a20.724,20.724,0,1,0,20.723,20.723A20.747,20.747,0,0,0,254.3,328.261Z" transform="translate(-231.641 -326.331)" fill="#6376c7"/>
        </g>
        <g id="Grupo_559616" data-name="Grupo 559616" transform="translate(31.721 31.721)">
          <path id="Trazado_193911" data-name="Trazado 193911" d="M264.708,377.52A18.122,18.122,0,1,1,282.831,359.4,18.143,18.143,0,0,1,264.708,377.52Zm0-34.314A16.192,16.192,0,1,0,280.9,359.4,16.21,16.21,0,0,0,264.708,343.206Z" transform="translate(-246.586 -341.276)" fill="#6376c7"/>
        </g>
        <g id="Grupo_559617" data-name="Grupo 559617" transform="translate(36.253 36.252)">
          <path id="Trazado_193912" data-name="Trazado 193912" d="M275.122,383.4a13.591,13.591,0,1,1,13.591-13.591A13.606,13.606,0,0,1,275.122,383.4Zm0-25.251a11.66,11.66,0,1,0,11.66,11.66A11.673,11.673,0,0,0,275.122,358.151Z" transform="translate(-261.531 -356.221)" fill="#6376c7"/>
        </g>
        <g id="Grupo_559618" data-name="Grupo 559618" transform="translate(40.785 40.784)">
          <path id="Trazado_193913" data-name="Trazado 193913" d="M285.536,389.284a9.059,9.059,0,1,1,9.059-9.059A9.069,9.069,0,0,1,285.536,389.284Zm0-16.188a7.129,7.129,0,1,0,7.128,7.129A7.137,7.137,0,0,0,285.536,373.1Z" transform="translate(-276.477 -371.166)" fill="#6376c7"/>
        </g>
      </g>
      <g id="Grupo_559620" data-name="Grupo 559620" transform="translate(-11730.393 -12289.962)">
        <path id="Trazado_193914" data-name="Trazado 193914" d="M617.377,611.524l-53.755,53.755c.911.313,1.83.6,2.76.84l51.834-51.835C617.972,613.354,617.689,612.435,617.377,611.524Z" transform="translate(-538.096 -585.998)" fill="#354aa2"/>
        <path id="Trazado_193915" data-name="Trazado 193915" d="M603.625,594.873l-56.654,56.654q1.206.621,2.448,1.15l55.356-55.356Q604.245,596.08,603.625,594.873Z" transform="translate(-526.494 -574.396)" fill="#354aa2"/>
        <path id="Trazado_193916" data-name="Trazado 193916" d="M631.986,630.356l-49.532,49.532q1.569.284,3.158.441l46.815-46.815Q632.269,631.926,631.986,630.356Z" transform="translate(-551.218 -599.12)" fill="#354aa2"/>
        <path id="Trazado_193917" data-name="Trazado 193917" d="M590.615,580.105,532.2,638.517c.711.5,1.438.974,2.176,1.423l57.659-57.659C591.589,581.543,591.118,580.816,590.615,580.105Z" transform="translate(-516.204 -564.106)" fill="#354aa2"/>
        <path id="Trazado_193918" data-name="Trazado 193918" d="M604.084,695.6c1.234.018,2.472-.016,3.709-.11L647.587,655.7c.094-1.237.128-2.475.11-3.709Z" transform="translate(-566.289 -614.191)" fill="#354aa2"/>
        <path id="Trazado_193919" data-name="Trazado 193919" d="M501.354,549.256a43.889,43.889,0,0,0-8.76,12.488L513.842,540.5A43.9,43.9,0,0,0,501.354,549.256Z" transform="translate(-488.605 -536.507)" fill="#354aa2"/>
        <path id="Trazado_193920" data-name="Trazado 193920" d="M519.348,527.455,479.554,567.25c-.094,1.237-.128,2.475-.11,3.709l43.613-43.613C521.823,527.328,520.585,527.362,519.348,527.455Z" transform="translate(-479.439 -527.341)" fill="#354aa2"/>
        <path id="Trazado_193921" data-name="Trazado 193921" d="M634.658,711.835l29.275-29.275a42.292,42.292,0,0,0,1.132-4.732l-35.14,35.14A42.274,42.274,0,0,0,634.658,711.835Z" transform="translate(-584.296 -632.198)" fill="#354aa2"/>
        <path id="Trazado_193922" data-name="Trazado 193922" d="M578.275,567.04l-59.137,59.137c.625.584,1.261,1.15,1.915,1.684l58.905-58.905C579.425,568.3,578.859,567.665,578.275,567.04Z" transform="translate(-507.1 -555.002)" fill="#354aa2"/>
        <path id="Trazado_193923" data-name="Trazado 193923" d="M511.965,530.592,482.69,559.867a42.259,42.259,0,0,0-1.133,4.732l35.14-35.14A42.26,42.26,0,0,0,511.965,530.592Z" transform="translate(-480.915 -528.817)" fill="#354aa2"/>
        <path id="Trazado_193924" data-name="Trazado 193924" d="M526.924,528.012,480.11,574.827q.158,1.589.441,3.158l49.532-49.532Q528.514,528.169,526.924,528.012Z" transform="translate(-479.906 -527.809)" fill="#354aa2"/>
        <path id="Trazado_193925" data-name="Trazado 193925" d="M677.19,725.092a43.9,43.9,0,0,0,8.76-12.488L664.7,733.853A43.9,43.9,0,0,0,677.19,725.092Z" transform="translate(-608.527 -656.429)" fill="#354aa2"/>
        <path id="Trazado_193926" data-name="Trazado 193926" d="M555.5,545.739,497.837,603.4c.449.738.92,1.465,1.423,2.177l58.412-58.412C556.961,546.659,556.234,546.188,555.5,545.739Z" transform="translate(-492.258 -540.16)" fill="#354aa2"/>
        <path id="Trazado_193927" data-name="Trazado 193927" d="M535.536,531.6,483.7,583.438c.243.93.527,1.849.84,2.76L538.3,532.444C537.385,532.131,536.466,531.848,535.536,531.6Z" transform="translate(-482.409 -530.311)" fill="#354aa2"/>
        <path id="Trazado_193928" data-name="Trazado 193928" d="M566.555,555.553,507.65,614.458c.534.655,1.1,1.291,1.684,1.916l59.137-59.137C567.846,556.652,567.21,556.087,566.555,555.553Z" transform="translate(-499.096 -546.999)" fill="#354aa2"/>
        <path id="Trazado_193929" data-name="Trazado 193929" d="M545.12,537.666l-55.356,55.356q.531,1.242,1.15,2.448l56.654-56.654Q546.362,538.2,545.12,537.666Z" transform="translate(-486.633 -534.535)" fill="#354aa2"/>
      </g>
      <path id="Trazado_193930" data-name="Trazado 193930" d="M738.6,552.19a2.543,2.543,0,1,1,2.5-2.586A2.546,2.546,0,0,1,738.6,552.19Zm-.068-3.906a1.364,1.364,0,1,0,1.387,1.34A1.366,1.366,0,0,0,738.529,548.284Z" transform="translate(-12397.716 -12831.074)" fill="#fff"/>
      <g id="Grupo_562013" data-name="Grupo 562013" transform="translate(-11844.333 -12384.186)">
        <path id="Trazado_193931" data-name="Trazado 193931" d="M407.786,225.068a4.236,4.236,0,1,1,4.161-4.308A4.24,4.24,0,0,1,407.786,225.068Zm-.113-6.507a2.272,2.272,0,1,0,2.312,2.233A2.275,2.275,0,0,0,407.673,218.561Z" transform="translate(-321.681 -216.597)" fill="#fff"/>
        <g id="Grupo_559621" data-name="Grupo 559621" transform="translate(0 6.49)">
          <path id="Trazado_193932" data-name="Trazado 193932" d="M574.763,279.522,517.683,336.6a15.542,15.542,0,0,1-21.979,0h0a15.542,15.542,0,0,1,0-21.979l57.081-57.081a15.542,15.542,0,0,1,21.979,0h0A15.541,15.541,0,0,1,574.763,279.522Z" transform="translate(-379.279 -248.618)" fill="#5a6bb4"/>
          <path id="Trazado_193933" data-name="Trazado 193933" d="M165.253,577.084l-42.882,42.882a8.658,8.658,0,0,1-12.245,0h0a8.659,8.659,0,0,1,0-12.245l42.882-42.882a8.659,8.659,0,0,1,12.245,0h0A8.659,8.659,0,0,1,165.253,577.084Z" transform="translate(-107.589 -467.714)" fill="#fff" opacity="0.5"/>
          <path id="Trazado_193934" data-name="Trazado 193934" d="M523.88,252.783,481,295.665a8.659,8.659,0,0,1-12.245,0h0a8.659,8.659,0,0,1,0-12.245l42.882-42.882a8.659,8.659,0,0,1,12.245,0h0A8.659,8.659,0,0,1,523.88,252.783Z" transform="translate(-361.617 -238.002)" fill="#fff"/>
          <path id="Trazado_193935" data-name="Trazado 193935" d="M179.252,468.437,131.01,516.679a4.869,4.869,0,0,1-6.885,0h0a4.869,4.869,0,0,1,0-6.885l48.242-48.242a4.869,4.869,0,0,1,6.885,0h0A4.869,4.869,0,0,1,179.252,468.437Z" transform="translate(-118.292 -395.339)" fill="#5a6bb4"/>
          <path id="Trazado_193936" data-name="Trazado 193936" d="M629.774,403.378,581.532,451.62a4.869,4.869,0,0,1-6.885,0h0a4.869,4.869,0,0,1,0-6.885l48.242-48.242a4.869,4.869,0,0,1,6.885,0h0A4.869,4.869,0,0,1,629.774,403.378Z" transform="translate(-437.411 -349.256)" fill="#b4bbdc"/>
          <path id="Trazado_193937" data-name="Trazado 193937" d="M616.872,481.49l-51.685,51.685a2.434,2.434,0,0,1-3.443,0h0a2.435,2.435,0,0,1,0-3.443l51.685-51.685a2.435,2.435,0,0,1,3.443,0h0A2.435,2.435,0,0,1,616.872,481.49Z" transform="translate(-428.777 -407.528)" fill="#5a6bb4"/>
          <path id="Trazado_193938" data-name="Trazado 193938" d="M350.93,638.078,304.41,684.6a6.087,6.087,0,0,1-8.608,0h0a6.087,6.087,0,0,1,0-8.608l46.519-46.519a6.087,6.087,0,0,1,8.608,0h0A6.087,6.087,0,0,1,350.93,638.078Z" transform="translate(-239.644 -514.028)" fill="#b4bbdc"/>
          <path id="Trazado_193939" data-name="Trazado 193939" d="M281.485,586.4l-36.863,36.863a12.914,12.914,0,0,1-18.264,0h0a12.915,12.915,0,0,1,0-18.264l36.863-36.863a12.915,12.915,0,0,1,18.264,0h0A12.914,12.914,0,0,1,281.485,586.4Z" transform="translate(-189.037 -469.166)" fill="#5a6bb4"/>
        </g>
        <path id="Trazado_193940" data-name="Trazado 193940" d="M506.792,806.526h-2.247V804.28a1,1,0,0,0-2,0v2.247H500.3a1,1,0,1,0,0,2h2.247v2.247a1,1,0,1,0,2,0v-2.247h2.247a1,1,0,0,0,0-2Z" transform="translate(-388.45 -625.388)" fill="#fff"/>
        <g id="Grupo_559608" data-name="Grupo 559608" transform="translate(0 174.561)">
          <path id="Trazado_193903" data-name="Trazado 193903" d="M112.106,804.528h0a.721.721,0,0,1-.721-.721v-3.318a.721.721,0,0,1,.721-.721h2.6a.721.721,0,0,0,.721-.721v-2.6a.721.721,0,0,1,.721-.721h2.6a.721.721,0,0,0,.721-.721v-2.6a.721.721,0,0,1,.721-.721h2.6a.721.721,0,0,0,.721-.721v-2.6a.721.721,0,0,1,.721-.721h2.6a.721.721,0,0,0,.721-.721v-2.6a.721.721,0,0,1,.721-.721h3.318a.721.721,0,0,1,.721.721h0a.721.721,0,0,1-.721.721h-1.875a.721.721,0,0,0-.721.721v2.6a.721.721,0,0,1-.721.721h-2.6a.721.721,0,0,0-.721.721v2.6a.721.721,0,0,1-.721.721h-2.6a.721.721,0,0,0-.721.721v2.6a.721.721,0,0,1-.721.721h-2.6a.721.721,0,0,0-.721.721v2.6a.721.721,0,0,1-.721.721h-2.6a.721.721,0,0,0-.721.721v1.875A.721.721,0,0,1,112.106,804.528Z" transform="translate(-111.385 -783.61)" fill="#fff"/>
        </g>
      </g>
    </g>
    <g id="Grupo_59666" data-name="Grupo 59666" transform="translate(1150 5878.997)">
      <g id="Grupo_59639" data-name="Grupo 59639" transform="translate(0 0.003)">
        <g id="Grupo_59638" data-name="Grupo 59638" clip-path="url(#clip-path)">
          <path id="Trazado_108351" data-name="Trazado 108351" d="M356.672,1283.352a23.65,23.65,0,1,0,23.65-23.65,23.65,23.65,0,0,0-23.65,23.65" transform="translate(-313.889 -1108.601)" fill="#fff"/>
          <path id="Trazado_108352" data-name="Trazado 108352" d="M436.323,167.947V14.1a14.1,14.1,0,0,1,28.191,0V167.947Z" transform="translate(-383.986 -0.003)" fill="#fff"/>
          <rect id="Rectángulo_7085" data-name="Rectángulo 7085" width="18.857" height="21.356" transform="translate(57.004 101.584)" fill="#f8b133"/>
          <rect id="Rectángulo_7086" data-name="Rectángulo 7086" width="18.857" height="21.356" transform="translate(57.004 80.228)" fill="#f29100"/>
          <rect id="Rectángulo_7087" data-name="Rectángulo 7087" width="18.857" height="21.356" transform="translate(57.004 122.941)" fill="#fcea0d"/>
        </g>
      </g>
      <g id="Grupo_59641" data-name="Grupo 59641" transform="translate(49.036 144.3)">
        <g id="Grupo_59640" data-name="Grupo 59640" clip-path="url(#clip-path-2)">
          <rect id="Rectángulo_7089" data-name="Rectángulo 7089" width="48.783" height="36.088" transform="translate(-1.306 47.815) rotate(-88.435)" fill="url(#linear-gradient)"/>
        </g>
      </g>
      <g id="Grupo_59643" data-name="Grupo 59643" transform="translate(0 0.003)">
        <g id="Grupo_59642" data-name="Grupo 59642" clip-path="url(#clip-path)">
          <rect id="Rectángulo_7090" data-name="Rectángulo 7090" width="18.857" height="21.356" transform="translate(57.004 58.872)" fill="#e84e1b"/>
          <rect id="Rectángulo_7091" data-name="Rectángulo 7091" width="18.857" height="21.356" transform="translate(57.004 37.515)" fill="#e5332a"/>
          <rect id="Rectángulo_7092" data-name="Rectángulo 7092" width="18.857" height="23.42" transform="translate(57.004 14.096)" fill="#bd1622"/>
          <path id="Trazado_108354" data-name="Trazado 108354" d="M797.863,1221.468l-1.667,7.671H777.137l1.595-7.338-1.534-.334-11.24,51.719,1.534.333,1.652-7.6H788.2l-1.579,7.266,1.534.333L799.4,1221.8Zm-2.008,9.241-1.572,7.233H775.224l1.572-7.233Zm-22.544,16.036,1.572-7.233h19.059l-1.572,7.233Zm18.718,1.57-1.572,7.233H771.4l1.572-7.233Zm-22.544,16.036,1.572-7.233h19.059l-1.572,7.233Z" transform="translate(-674.08 -1074.953)" fill="#ccc1e0"/>
          <path id="Trazado_108355" data-name="Trazado 108355" d="M874.409,509.528q-1.01.827-2.02,1.654a23.413,23.413,0,0,1,3.131-8.331,44.263,44.263,0,0,0-1.223,5.725,4.5,4.5,0,0,0,.112.952" transform="translate(-767.746 -442.534)" fill="#ccc1e0"/>
          <path id="Trazado_108356" data-name="Trazado 108356" d="M905.361,650.247c-.038.274-.075.548-.112.822a.728.728,0,0,1-.155.427.712.712,0,0,1-.375.164c-.508.113-1.017.229-1.525.344-.509-.115-1.015-.23-1.525-.344a.725.725,0,0,1-.375-.164.716.716,0,0,1-.154-.427c-.035-.253-.07-.508-.1-.762,1.3-.019,3.007-.04,4.324-.059" transform="translate(-792.957 -572.25)" fill="#ccc1e0"/>
        </g>
      </g>
      <g id="Grupo_59645" data-name="Grupo 59645" transform="translate(85.913 54.616)">
        <g id="Grupo_59644" data-name="Grupo 59644" clip-path="url(#clip-path-4)">
          <rect id="Rectángulo_7094" data-name="Rectángulo 7094" width="42.512" height="29.382" transform="translate(-1.294 41.619) rotate(-88.219)" fill="url(#linear-gradient-2)"/>
        </g>
      </g>
      <g id="Grupo_59647" data-name="Grupo 59647" transform="translate(0 0.003)">
        <g id="Grupo_59646" data-name="Grupo 59646" clip-path="url(#clip-path)">
          <path id="Trazado_108358" data-name="Trazado 108358" d="M1000.989,325.615a4.169,4.169,0,0,1-1.3.372c-.071-.188-.153-.372-.242-.553l-.679-1.289a4.965,4.965,0,0,1,2.217,1.47" transform="translate(-878.969 -285.264)" fill="#231a3c"/>
          <path id="Trazado_108359" data-name="Trazado 108359" d="M922.769,447.519c.4,5.814.555,11.664.508,17.518q-1.7-4.969-3.4-9.937a3.374,3.374,0,0,1-.263-1.835,2.243,2.243,0,0,1,.94-1.272,4.965,4.965,0,0,1,1-.523l-1.061-.5a.532.532,0,0,1-.321-.8c.192-.647.385-1.3.576-1.943a8.99,8.99,0,0,0,2.039-.965c-.005.087-.012.174-.019.262" transform="translate(-809.263 -393.609)" fill="#ccc1e0"/>
          <path id="Trazado_108360" data-name="Trazado 108360" d="M1041.9,1166.794a7.584,7.584,0,0,0,.225,1.045v.017h-2.906a19.949,19.949,0,0,1-.628-6.3l4.2-.136.007.232a13.416,13.416,0,0,0,4.495,3.794c.429.223.926.492,1.006.97a.966.966,0,0,1-.389.879,2.087,2.087,0,0,1-.924.375,7.125,7.125,0,0,1-3.293-.216,13.673,13.673,0,0,1-1.79-.663" transform="translate(-913.98 -1022.11)" fill="#402f6d"/>
          <path id="Trazado_108361" data-name="Trazado 108361" d="M849.158,1168.97a3.022,3.022,0,0,0-.274-1.7,5.859,5.859,0,0,0-.72.267,17.078,17.078,0,0,1-6.1,1.425,2.21,2.21,0,0,1-.888-.112.841.841,0,0,1-.549-.658.868.868,0,0,1,.342-.7,2.849,2.849,0,0,1,.713-.387,15.083,15.083,0,0,0,5.645-4.294l4.912-.035a11.244,11.244,0,0,1,.03,6.194v.077h-3.112Z" transform="translate(-739.793 -1023.301)" fill="#402f6d"/>
          <path id="Trazado_108362" data-name="Trazado 108362" d="M906.314,664.42q4.027.112,8.053-.047c.38,14.3.67,28.544,2.426,42.9l-.715.023-4.2.136-.593.019L903.982,668.8l-3.37,38.655-.89.007-4.912.035-.171,0q.7-21.615-.059-43.241l5.409,0c.57-6.2.98-12.435,1.176-18.681q2.219-.089,4.439-.174c.087,6.335.3,12.934.71,19.016" transform="translate(-787.275 -567.988)" fill="#402f6d"/>
          <path id="Trazado_108363" data-name="Trazado 108363" d="M928.168,298.666a7.069,7.069,0,0,1-1.2,7.174,6.026,6.026,0,0,0-1.232,1.66.475.475,0,0,0-.017.054l-.75-.787a6.383,6.383,0,0,1-1.221-1.591,1.887,1.887,0,0,0,.9-.529,1.6,1.6,0,0,0,.319-1.678,1.327,1.327,0,0,0-1.477-.762,1.818,1.818,0,0,0-1.029.869,1.861,1.861,0,0,0-.607-.98,4.538,4.538,0,0,0-1.249-.712,7.175,7.175,0,0,1-1.291-.642,4.01,4.01,0,0,1-1.287-1.594,8,8,0,0,1-.527-1.545,6.351,6.351,0,0,1,2.712-2.309,6.492,6.492,0,0,1,5.638.289,1.808,1.808,0,0,1,.127-1.1,2.311,2.311,0,0,1,1.017-1.061A2.731,2.731,0,0,1,930,297.956a2.831,2.831,0,0,1-.537.338,4.964,4.964,0,0,0-2.217-1.47l.679,1.289c.089.181.171.365.242.553" transform="translate(-807.444 -257.943)" fill="#402f6d"/>
          <path id="Trazado_108364" data-name="Trazado 108364" d="M987.79,448.434a5.13,5.13,0,0,1,1,.525,2.251,2.251,0,0,1,.94,1.272,3.391,3.391,0,0,1-.263,1.835q-1.711,5-3.424,10c-.021-7.241.1-13.763.232-18.259q1.055.293,2.1.628.4,1.348.8,2.693a.714.714,0,0,1,.009.558.7.7,0,0,1-.328.244q-.531.251-1.062.5" transform="translate(-867.767 -390.575)" fill="#ccc1e0"/>
          <path id="Trazado_108365" data-name="Trazado 108365" d="M1048.242,511.779a46.757,46.757,0,0,1,.387,8.13c-.34-.617-.7-1.225-1.083-1.821.148-2.107.4-4.211.7-6.309" transform="translate(-921.893 -450.391)" fill="#ccc1e0"/>
          <path id="Trazado_108366" data-name="Trazado 108366" d="M1099.184,732.444c-.04.094-.085.185-.134.276-.113.209-.328.436-.551.352s-.239-.363-.225-.59c.056-.839.192-1.673.192-2.515a4.5,4.5,0,0,0-.539-2.313.987.987,0,0,0-.293.6,5.16,5.16,0,0,0,.021.914,1.113,1.113,0,0,1-.07.5.49.49,0,0,1-.373.3.511.511,0,0,1-.474-.286,1.38,1.38,0,0,1-.127-.57,18.926,18.926,0,0,1,.242-4.1q1.842-.141,3.675-.406a13.316,13.316,0,0,1,.4,2.709,6.8,6.8,0,0,1-.863,3.708,4.657,4.657,0,0,1-.881,1.427" transform="translate(-965.043 -637.684)" fill="#f6bb96"/>
          <path id="Trazado_108367" data-name="Trazado 108367" d="M1102.256,715.5c.1.363.2.726.284,1.092q-1.832.264-3.675.406c.049-.34.1-.68.159-1.019q1.617-.241,3.232-.48" transform="translate(-967.056 -629.672)" fill="#f2a68e"/>
          <path id="Trazado_108368" data-name="Trazado 108368" d="M948.557,426.215a9.116,9.116,0,0,1-1.655,1.462q.024-.586.024-1.172c.548-.07,1.092-.174,1.631-.29" transform="translate(-833.321 -375.091)" fill="#f2a68e"/>
          <path id="Trazado_108369" data-name="Trazado 108369" d="M910.554,338.219a6.384,6.384,0,0,0,1.221,1.591l.75.787a7.083,7.083,0,0,0,.131,3.2c-.537-.005-1.078-.009-1.617-.012a.8.8,0,0,0-.358.052c-.288.14-.5.987-.514,1.066-.021-.078-.229-.926-.516-1.066a.8.8,0,0,0-.359-.052c-.488,0-.98.005-1.47.01,0-.075.007-.15.009-.225a9.109,9.109,0,0,0,1.655-1.462c-.539.115-1.083.22-1.631.29a9.361,9.361,0,0,1-2,.063,2.479,2.479,0,0,1-1.378-.455,2.538,2.538,0,0,1-.748-1.7,7.146,7.146,0,0,0-.305-1.769,1.121,1.121,0,0,1-.483.061.483.483,0,0,1-.434-.412.825.825,0,0,1,.206-.46,3.656,3.656,0,0,0,.53-1.948c.024-.682-.044-1.364,0-2.046a6.29,6.29,0,0,1,1.062-3.084,7.989,7.989,0,0,0,.527,1.545,4.011,4.011,0,0,0,1.287,1.594,7.183,7.183,0,0,0,1.291.642,4.537,4.537,0,0,1,1.249.712,1.86,1.86,0,0,1,.607.98,1.817,1.817,0,0,1,1.029-.869,1.328,1.328,0,0,1,1.477.762,1.6,1.6,0,0,1-.319,1.678,1.888,1.888,0,0,1-.9.529" transform="translate(-794.248 -290.984)" fill="#f6bb96"/>
          <path id="Trazado_108370" data-name="Trazado 108370" d="M1012.389,650.306l-.1.762a.741.741,0,0,1-.154.427.725.725,0,0,1-.377.164c-.508.113-1.013.229-1.523.344-.508-.115-1.017-.23-1.525-.344a.725.725,0,0,1-.377-.164.741.741,0,0,1-.154-.427c-.037-.274-.075-.548-.112-.822,1.317.019,3.025.04,4.324.059" transform="translate(-887.147 -572.25)" fill="#ccc1e0"/>
          <path id="Trazado_108371" data-name="Trazado 108371" d="M951.178,440.2c.058.26.1.422.1.422-.133,4.5-.253,11.019-.232,18.259.007,1.931.023,3.914.051,5.922q-2.219.089-4.439.175.1-3.08.124-6.163c.047-5.854-.106-11.7-.508-17.518.007-.087.014-.174.019-.262q.029-.419.047-.837c.49-.005.982-.007,1.47-.01a.8.8,0,0,1,.359.052c.288.14.5.987.516,1.066.019-.078.227-.926.515-1.066a.8.8,0,0,1,.358-.052c.539,0,1.08.007,1.617.012" transform="translate(-832.77 -387.386)" fill="#7a5ca2"/>
        </g>
      </g>
      <g id="Grupo_59649" data-name="Grupo 59649" transform="translate(118.278 53.866)">
        <g id="Grupo_59648" data-name="Grupo 59648" clip-path="url(#clip-path-6)">
          <rect id="Rectángulo_7096" data-name="Rectángulo 7096" width="43.155" height="18.409" transform="translate(-1.324 42.603) rotate(-88.219)" fill="url(#linear-gradient-3)"/>
        </g>
      </g>
      <g id="Grupo_59651" data-name="Grupo 59651" transform="translate(78.219 59.734)">
        <g id="Grupo_59650" data-name="Grupo 59650" clip-path="url(#clip-path-7)">
          <rect id="Rectángulo_7097" data-name="Rectángulo 7097" width="5.961" height="7.92" transform="matrix(0.038, -0.999, 0.999, 0.038, -0.258, 5.667)" fill="url(#linear-gradient-4)"/>
        </g>
      </g>
      <g id="Grupo_59653" data-name="Grupo 59653" transform="translate(0 0.003)">
        <g id="Grupo_59652" data-name="Grupo 59652" clip-path="url(#clip-path)">
          <path id="Trazado_108374" data-name="Trazado 108374" d="M689.16,507.746c-.134-.1-.267-.19-.4-.286l.019-.026a13.328,13.328,0,0,0-2.146-1.176l-.028.063q-1.081-.131-2.161-.26c-.307-.037-.694-.033-.83.244-.129.262.087.577.351.7s.565.138.839.241a3.748,3.748,0,0,1,1.132.905,1.523,1.523,0,0,0,1.242.509l-.005-.038a.18.18,0,0,1,.272.091.241.241,0,0,1-.029.194l-.276,1.842a2.244,2.244,0,0,1,.734.182q.644-1.593,1.286-3.187" transform="translate(-601.582 -445.345)" fill="#f6bb96"/>
          <path id="Trazado_108375" data-name="Trazado 108375" d="M80.163,918.091a1.211,1.211,0,0,0,2.039.426q1.881,8.082,3.128,16.206l-3.325,1.146a91.681,91.681,0,0,0-4.629-16.756,2.254,2.254,0,0,0,.553.331,1.747,1.747,0,0,0,1.512-.052,1.317,1.317,0,0,0,.668-1.312v0c.018.005.037.009.054.012" transform="translate(-68.095 -807.956)" fill="#7a5ca2"/>
          <path id="Trazado_108376" data-name="Trazado 108376" d="M67.815,1147.521c-.01.255-.023.511-.035.766a.729.729,0,0,1-.115.439.714.714,0,0,1-.359.2l-1.488.48-1.549-.2a.73.73,0,0,1-.387-.131.722.722,0,0,1-.194-.41c-.061-.27-.124-.541-.185-.811,1.315-.1,3.018-.23,4.312-.326" transform="translate(-55.886 -1009.876)" fill="#e6e0f0"/>
        </g>
      </g>
      <g id="Grupo_59655" data-name="Grupo 59655" transform="translate(3.733 133.511)">
        <g id="Grupo_59654" data-name="Grupo 59654" clip-path="url(#clip-path-9)">
          <rect id="Rectángulo_7099" data-name="Rectángulo 7099" width="11.832" height="21.579" transform="translate(0 0)" fill="url(#linear-gradient-5)"/>
        </g>
      </g>
      <g id="Grupo_59657" data-name="Grupo 59657" transform="translate(0 0.003)">
        <g id="Grupo_59656" data-name="Grupo 59656" clip-path="url(#clip-path)">
          <path id="Trazado_108378" data-name="Trazado 108378" d="M310.924,1007.828a1.171,1.171,0,0,1-.1.1,1.646,1.646,0,0,1-1.329.307.726.726,0,0,1-.293-.108h0a.314.314,0,0,1-.131-.161.4.4,0,0,1,.2-.436,1.575,1.575,0,0,1,.5-.146,3.17,3.17,0,0,0,.757-.262c.07-.035.232-.166.377-.258.1-.061.19-.106.237-.091.169.059.075.5.038.614a1.19,1.19,0,0,1-.249.438" transform="translate(-271.979 -886.011)" fill="#f6bb96"/>
          <path id="Trazado_108379" data-name="Trazado 108379" d="M307.588,1029.307a1.2,1.2,0,0,1-.466-.038c-.124-.033-.262-.1-.286-.227a.273.273,0,0,1,.15-.27,1.014,1.014,0,0,1,.316-.089.724.724,0,0,0,.228-.072,1.481,1.481,0,0,0,.663-.26.566.566,0,0,1,.009.569.809.809,0,0,1-.614.387" transform="translate(-270.028 -905)" fill="#f6bb96"/>
          <path id="Trazado_108380" data-name="Trazado 108380" d="M305.751,1022.132a1.483,1.483,0,0,1-.663.26,1.962,1.962,0,0,1-.59-.011.5.5,0,0,1-.426-.269.394.394,0,0,1,.2-.436.813.813,0,0,1,.225-.091.739.739,0,0,0,.3.108,1.643,1.643,0,0,0,1.329-.307.972.972,0,0,0,.1-.1,1.385,1.385,0,0,1-.051.249,1.158,1.158,0,0,1-.352.539.84.84,0,0,1-.077.059" transform="translate(-267.586 -898.781)" fill="#f6bb96"/>
          <path id="Trazado_108381" data-name="Trazado 108381" d="M307.29,1015.979a1.647,1.647,0,0,0,1.329-.307,1.171,1.171,0,0,0,.1-.1,1.442,1.442,0,0,1-.051.249,1.148,1.148,0,0,1-.249.436.961.961,0,0,1-.1.1,1.643,1.643,0,0,1-1.329.307.737.737,0,0,1-.3-.108.319.319,0,0,1-.129-.159.394.394,0,0,1,.2-.436.8.8,0,0,1,.227-.091h0a.725.725,0,0,0,.293.108" transform="translate(-269.779 -893.752)" fill="#f6bb96"/>
          <path id="Trazado_108382" data-name="Trazado 108382" d="M43.535,768.889a5.943,5.943,0,0,1-2.978,3.464c-.091-.2-.2-.41-.328-.644a16.955,16.955,0,0,0-2.03-2.51,7.852,7.852,0,0,1-1.683-3.3,5.269,5.269,0,0,1,.455-3.626A7.521,7.521,0,0,1,38.99,760.1c.537-.424,1.092-.825,1.655-1.212a12.877,12.877,0,0,0,1.022-2.053,2.8,2.8,0,0,1,2.109-1.284,3.112,3.112,0,0,1,2.348.823,3.512,3.512,0,0,1,1.081,2.257,2.02,2.02,0,0,1-.333,1.42.323.323,0,0,1,.024.023,4.951,4.951,0,0,1-.443.3,11.524,11.524,0,0,1-2.071.907l.016.045a3.383,3.383,0,0,1-.087,2.09,5.338,5.338,0,0,0-.412,1.158,1.523,1.523,0,0,0,.5,1.31c-.148.126-.295.253-.443.38a1.446,1.446,0,0,0-1.931,2.151,1.946,1.946,0,0,0,1.221.471c.1.005.194.007.29,0" transform="translate(-32.02 -664.915)" fill="#402f6d"/>
          <path id="Trazado_108383" data-name="Trazado 108383" d="M74.711,808.314c-.018,0-.037-.007-.054-.012a9.052,9.052,0,0,1-3.185-1.565,2.9,2.9,0,0,0-.291-1.12,5.943,5.943,0,0,0,2.978-3.464c-.1,0-.194,0-.29,0a1.946,1.946,0,0,1-1.221-.471,1.446,1.446,0,0,1,1.931-2.151c.148-.127.295-.255.443-.38a1.524,1.524,0,0,1-.5-1.31,5.338,5.338,0,0,1,.412-1.158,3.383,3.383,0,0,0,.087-2.09l-.016-.045a11.527,11.527,0,0,0,2.07-.907,4.951,4.951,0,0,0,.443-.3,5.451,5.451,0,0,1,1.108,1.769,4.6,4.6,0,0,0,1.573,2.212c.356.215.825.4.884.809a.726.726,0,0,1-.283.633,1.72,1.72,0,0,1-.476.265,10.375,10.375,0,0,1,.862,2.7,2.393,2.393,0,0,1-.112,1.4,2.566,2.566,0,0,1-1.619,1.127c-.773.251-1.565.433-2.341.668a1.723,1.723,0,0,0-.886.5,1.44,1.44,0,0,0-.092,1.34,4.615,4.615,0,0,1-1.415,1.566l-.012,0" transform="translate(-62.643 -698.178)" fill="#f6bb96"/>
          <path id="Trazado_108384" data-name="Trazado 108384" d="M115.587,913.1c-.045-.2-.092-.4-.14-.593a2.208,2.208,0,0,1,.14.593" transform="translate(-101.599 -803.055)" fill="#1d1d1b"/>
          <path id="Trazado_108385" data-name="Trazado 108385" d="M100.626,906.717a4.614,4.614,0,0,0,1.415-1.566c.014.044.03.087.045.129.1.251.214.5.307.752v0c.047.2.094.4.14.593l.12.513a1.211,1.211,0,0,1-2.039-.426l.012,0" transform="translate(-88.545 -796.578)" fill="#402f6d"/>
          <path id="Trazado_108386" data-name="Trazado 108386" d="M115.706,913.6l-.12-.513a2.21,2.21,0,0,0-.14-.593v0a8.279,8.279,0,0,0,2.662.832q.492.861.984,1.72a1.237,1.237,0,0,1,.225.67c-.056.773-1.381.869-1.533,1.629a3.182,3.182,0,0,1,2.081,1.143,3,3,0,0,1,.3,1.568c0,2.737-.377,6.374-.7,9.534l-.633.218q-1.232-8.129-3.128-16.206" transform="translate(-101.598 -803.042)" fill="#e6e0f0"/>
          <path id="Trazado_108387" data-name="Trazado 108387" d="M150.5,1070.5c-.044-.239-.089-.476-.14-.714a4.947,4.947,0,0,0,1.352-.6,14.184,14.184,0,0,1,2.016-1.177c.131-.052.263-.1.4-.14a.023.023,0,0,1,0,.011c.079.691.16,1.38.244,2.072l-5.322,2.311c-.051-.42-.1-.839-.157-1.259.673-.216,1.232-.389,1.606-.506" transform="translate(-131.033 -939.784)" fill="#e6e0f0"/>
          <path id="Trazado_108388" data-name="Trazado 108388" d="M75.706,906.6a1.317,1.317,0,0,1-.668,1.312,1.747,1.747,0,0,1-1.512.052,2.26,2.26,0,0,1-.553-.331q-.29-.767-.6-1.528a3.4,3.4,0,0,0,.148-1.071,9.052,9.052,0,0,0,3.185,1.565Z" transform="translate(-63.692 -796.476)" fill="#402f6d"/>
          <path id="Trazado_108389" data-name="Trazado 108389" d="M188.731,1037.6q.8-.126,1.589-.248c.113.085.225.171.337.258l-1.294.215a1.118,1.118,0,0,1-.558,0,.188.188,0,0,1-.122-.1.088.088,0,0,1,.051-.113Z" transform="translate(-166.045 -912.922)" fill="#f2a68e"/>
          <path id="Trazado_108390" data-name="Trazado 108390" d="M189.088,1047.03a.079.079,0,0,1,.056-.1l-.005-.019,1.988-.576a.1.1,0,0,1,.023-.005.322.322,0,0,1,.269.178,12.355,12.355,0,0,1-1.818.541c-.094.021-.188.04-.284.056a.332.332,0,0,1-.131.007.129.129,0,0,1-.1-.08" transform="translate(-166.404 -920.821)" fill="#f2a68e"/>
          <path id="Trazado_108391" data-name="Trazado 108391" d="M211.7,1034.211l-.2.5c-.122-.091-.248-.185-.373-.281a1.243,1.243,0,0,0,.541-.192l.028-.023" transform="translate(-185.807 -910.158)" fill="#1d1d1b"/>
          <path id="Trazado_108392" data-name="Trazado 108392" d="M211.711,1044.536a.239.239,0,0,1,.024.019l-.037.01Z" transform="translate(-186.306 -919.244)" fill="#1d1d1b"/>
          <path id="Trazado_108393" data-name="Trazado 108393" d="M192.568,1067.745l-.047.026a.023.023,0,0,0,0-.01l.049-.016" transform="translate(-169.426 -939.669)" fill="#1d1d1b"/>
          <path id="Trazado_108394" data-name="Trazado 108394" d="M202.378,1036.162l.975-.152.075-.01c.126.1.251.19.373.281l-.293.743-.794-.6c-.112-.087-.223-.173-.337-.258" transform="translate(-178.103 -911.732)" fill="#7a5ca2"/>
          <path id="Trazado_108395" data-name="Trazado 108395" d="M205.476,1059.422l.063-.155a.517.517,0,0,1-.063.155" transform="translate(-180.829 -932.208)" fill="#1d1d1b"/>
          <path id="Trazado_108396" data-name="Trazado 108396" d="M191.7,1055.643a6.83,6.83,0,0,0,1.27-.466.429.429,0,0,1,.338.136,3.824,3.824,0,0,1-1.406.5.245.245,0,0,1-.176-.028.1.1,0,0,1-.026-.138" transform="translate(-168.694 -928.607)" fill="#f2a68e"/>
          <path id="Trazado_108397" data-name="Trazado 108397" d="M216.047,1030.517a.5.5,0,0,1-.174.443Z" transform="translate(-189.979 -906.907)" fill="#1d1d1b"/>
          <path id="Trazado_108398" data-name="Trazado 108398" d="M157.753,1030.83a.079.079,0,0,0-.056.1.129.129,0,0,0,.1.08.334.334,0,0,0,.131-.007c.1-.016.19-.035.284-.056a12.373,12.373,0,0,0,1.818-.541.324.324,0,0,1,.04.082.417.417,0,0,1-.1.379,1.09,1.09,0,0,1-.324.242c-.115.065-.232.126-.352.182a6.843,6.843,0,0,1-1.27.466.1.1,0,0,0,.026.138.244.244,0,0,0,.176.028,3.824,3.824,0,0,0,1.406-.5.335.335,0,0,1,.1.167.441.441,0,0,1-.005.185l-.063.155a.73.73,0,0,1-.164.194,2.028,2.028,0,0,1-.541.276,6.8,6.8,0,0,0-.8.392l-.049.016c-.134.042-.267.087-.4.139a14.2,14.2,0,0,0-2.016,1.177,4.952,4.952,0,0,1-1.352.6q-.374-1.842-.925-3.642a5.593,5.593,0,0,0,2.016-1.31,8.048,8.048,0,0,1,1.167-1.148,2.889,2.889,0,0,1,1-.41c.127-.028.256-.049.387-.065.183-.024.366-.037.549-.044s.384-.009.576-.009c.433,0,.865.01,1.294-.03v0l0-.011a.579.579,0,0,1,.633.162.324.324,0,0,1,.042.11l-.174.443-.028.023a1.243,1.243,0,0,1-.541.192l-.075.011-.975.152q-.793.123-1.589.248l0,.012a.089.089,0,0,0-.051.114.188.188,0,0,0,.122.1,1.119,1.119,0,0,0,.558,0l1.294-.214.794.6-.012.03c-.216.061-.431.124-.647.187a.108.108,0,0,0-.023.005l-1.989.576Z" transform="translate(-135.013 -904.722)" fill="#f6bb96"/>
          <path id="Trazado_108399" data-name="Trazado 108399" d="M188.11,986.29l-.422,1.075a.325.325,0,0,0-.042-.11.579.579,0,0,0-.633-.162l0,.011v0c-.429.04-.862.031-1.294.03V987.1c-.558-.422-1.116-.846-1.659-1.261q-.22-2.19-.413-4.352l4.462,4.807" transform="translate(-161.619 -863.754)" fill="#e6e0f0"/>
          <path id="Trazado_108400" data-name="Trazado 108400" d="M220.15,1637.769a1.83,1.83,0,0,1,1.193,1.012q-1.287-.047-2.576-.078a3.233,3.233,0,0,1,.38-1.177c.333.084.67.157,1,.244" transform="translate(-192.526 -1441.104)" fill="#fff"/>
          <path id="Trazado_108401" data-name="Trazado 108401" d="M163.583,1646.769q1.29.031,2.576.078a1.476,1.476,0,0,1,.14.724l-10.218-.024c-.007-.284-.014-.569-.019-.853q3.76-.018,7.521.075" transform="translate(-137.342 -1449.17)" fill="#402f6d"/>
          <path id="Trazado_108402" data-name="Trazado 108402" d="M162.756,1615.085c.166.054.335.1.5.146a3.229,3.229,0,0,0-.38,1.177q-3.76-.094-7.521-.075-.047-2.049-.1-4.1,2.3-.024,4.6-.044a4.641,4.641,0,0,0,2.89,2.892" transform="translate(-136.638 -1418.811)" fill="#7a5ca2"/>
          <path id="Trazado_108403" data-name="Trazado 108403" d="M155.958,1092.94c-1.3-.021-3.007-.042-4.326-.061-.127,0-.251-.005-.37-.007l-.487.045q-.246-2.69-.574-5.367l5.322-2.311c.01.091.023.183.033.276l-.924,2.346a.614.614,0,0,0,.7.827l.6-.129q.277,2.174.581,4.347l-.283.04-.277-.005" transform="translate(-132.185 -955.065)" fill="#fff"/>
          <path id="Trazado_108404" data-name="Trazado 108404" d="M50.206,1103.111c.052.4.1.794.148,1.19a56.014,56.014,0,0,1-5.965,2.4,8.084,8.084,0,0,1-2.6.474,3.9,3.9,0,0,1-1.324-.256q.065-1.625.115-3.248l.108.176a3.342,3.342,0,0,0,4.219,1.3c1.507-.678,3.464-1.406,5.294-2.039" transform="translate(-35.615 -970.793)" fill="#e6e0f0"/>
          <path id="Trazado_108405" data-name="Trazado 108405" d="M131.975,1220.015c0,.019,0,.038,0,.059-.284,3.031-1.495,16.046-1.856,21.491-.291-3.223-.624-6.44-1-9.618q.212-1.9.45-3.794.521-4.165,1.16-8.235a.628.628,0,0,1,1.249.1" transform="translate(-113.629 -1073.124)" fill="#231a3c"/>
          <path id="Trazado_108406" data-name="Trazado 108406" d="M45.5,1642.891l2.179.035c0,.406,0,.811.005,1.218q-3.94-.017-7.882-.039l.093-1.3,5.6.087" transform="translate(-35.032 -1445.75)" fill="#402f6d"/>
          <path id="Trazado_108407" data-name="Trazado 108407" d="M50.659,1330.442l-5.055-.047-2.4-.023c1.211-12.123,1.169-25.42.841-38.247q4.508-.039,9.014-.08l.5-.005.4.051q-.238,1.889-.45,3.794c-1.286,11.484-1.938,23.321-2.109,34.565-.246,0-.494-.005-.74-.007" transform="translate(-38.02 -1137.059)" fill="#402f6d"/>
          <path id="Trazado_108408" data-name="Trazado 108408" d="M129.666,1179.038q2.624.018,5.249.035c.392,13.236.1,25.8,1.369,38.352l-2.73.026q-2.3.021-4.6.044l-.778.007c-.126-8.024-.595-16.534-1.359-24.99.361-5.446,1.572-18.46,1.856-21.492,0-.021,0-.04,0-.059a.628.628,0,0,0-1.249-.1q-.641,4.063-1.16,8.235l-.4-.051-.5.005a107.558,107.558,0,0,0,.241-15.266q1.732-.068,3.464-.14.63,7.645.6,15.39" transform="translate(-110.327 -1024.069)" fill="#402f6d"/>
          <path id="Trazado_108409" data-name="Trazado 108409" d="M53.37,999.826q.293.426.57.837l-4.725,1.629q-1.865-5.3-3.729-10.588l4.3,9.294Z" transform="translate(-40.03 -872.75)" fill="#e6e0f0"/>
          <path id="Trazado_108410" data-name="Trazado 108410" d="M166.452,1148.993c-.037.253-.07.508-.1.76a.729.729,0,0,1-.155.427.717.717,0,0,1-.375.164l-1.525.344-1.524-.344a.548.548,0,0,1-.53-.591c-.037-.274-.075-.548-.112-.822,1.319.019,3.025.04,4.326.061" transform="translate(-142.679 -1011.118)" fill="#e6e0f0"/>
          <path id="Trazado_108411" data-name="Trazado 108411" d="M158.009,1150.638q.761-.17,1.525-.344a.718.718,0,0,0,.375-.164.728.728,0,0,0,.155-.427c.035-.253.068-.508.1-.761l.277.005.283-.04c.808,5.824,1.73,11.614,2.746,17.181q-1.245-.008-2.491-.017-2.624-.016-5.249-.035.045-7.75-.6-15.39c-.049-.576-.1-1.151-.152-1.727l.487-.045c.119,0,.242,0,.37.007.037.274.075.548.112.822a.548.548,0,0,0,.53.591l1.525.344" transform="translate(-136.395 -1011.067)" fill="#fff"/>
          <path id="Trazado_108412" data-name="Trazado 108412" d="M56.223,913.964q.309.761.6,1.528a91.677,91.677,0,0,1,4.629,16.756q-.277-.411-.57-.837c-1.845-2.712-4.056-5.915-5.421-8.442a2.982,2.982,0,0,1-.478-1.524,3.182,3.182,0,0,1,1.286-2c-.5-.6-1.708-.051-2.125-.7a1.237,1.237,0,0,1-.12-.7q.021-.911.044-1.823a10.311,10.311,0,0,0,2.156-2.261" transform="translate(-47.542 -804.334)" fill="#e6e0f0"/>
          <path id="Trazado_108413" data-name="Trazado 108413" d="M19.327,950.926c.051.237.1.474.14.714-.375.117-.933.29-1.606.506-.924.3-2.069.675-3.269,1.092-1.83.633-3.787,1.361-5.294,2.039a3.343,3.343,0,0,1-4.219-1.3L4.97,953.8a49.325,49.325,0,0,1-3.745-7.455c-.972-2.426-1.746-5.177-.783-7.605a10.551,10.551,0,0,1,3.888-4.294c.734-.535,1.49-1.062,2.2-1.636q-.024.913-.044,1.823a1.237,1.237,0,0,0,.12.7c.417.654,1.629.108,2.125.7a3.183,3.183,0,0,0-1.286,2,2.981,2.981,0,0,0,.478,1.524c1.366,2.528,3.576,5.73,5.421,8.442l-3.588,1.172-4.3-9.294q1.863,5.293,3.729,10.588l4.725-1.629,3.325-1.146.633-.218c.1-.037.209-.073.316-.108.073-.024.147-.049.218-.077q.549,1.8.924,3.642" transform="translate(0 -820.92)" fill="#fff"/>
          <path id="Trazado_108414" data-name="Trazado 108414" d="M172.122,1009.021c.542.415,1.1.839,1.659,1.261v.038c-.192,0-.384,0-.576.009s-.366.019-.549.044c-.143-.112-.288-.222-.429-.331-.7-.535-1.374-1.061-2-1.549a.376.376,0,0,1-.143-.293.364.364,0,0,1,.113-.267.369.369,0,0,1,.481-.026c.46.358.945.731,1.446,1.115" transform="translate(-149.68 -886.94)" fill="#7a5ca2"/>
          <path id="Trazado_108415" data-name="Trazado 108415" d="M187.967,1026.271c.141.11.286.22.429.331-.131.016-.26.036-.387.065-.016-.131-.03-.263-.042-.4" transform="translate(-165.42 -903.17)" fill="#1d1d1b"/>
          <path id="Trazado_108416" data-name="Trazado 108416" d="M140.776,926.875q.194,2.159.413,4.352c-.5-.384-.986-.757-1.446-1.115a.368.368,0,0,0-.481.026.364.364,0,0,0-.113.267.376.376,0,0,0,.143.293c.628.488,1.306,1.013,2,1.549.012.133.026.265.042.4a2.889,2.889,0,0,0-1,.41,8.072,8.072,0,0,0-1.167,1.148,5.591,5.591,0,0,1-2.016,1.31c-.072.028-.145.052-.218.077-.106.035-.211.071-.316.108.324-3.161.7-6.8.7-9.534a3,3,0,0,0-.3-1.568,3.183,3.183,0,0,0-2.081-1.143c.152-.76,1.477-.856,1.533-1.629a1.237,1.237,0,0,0-.225-.67q-.492-.858-.984-1.72a21.384,21.384,0,0,1,3.647.743c2.313.834,4.017,2.81,5.4,4.844.755,1.111,1.456,2.271,2.231,3.37l-1.3,3.293-4.462-4.807" transform="translate(-118.748 -809.146)" fill="#fff"/>
          <path id="Trazado_108417" data-name="Trazado 108417" d="M125.068,1095.267c-.051-.42-.1-.839-.157-1.259-.924.3-2.069.675-3.269,1.092.052.4.1.794.148,1.189,0,.026.006.052.009.077l3.272-1.078,0-.021" transform="translate(-107.051 -962.782)" fill="#654494"/>
          <path id="Trazado_108418" data-name="Trazado 108418" d="M126.943,1111.753c-.049-.576-.1-1.151-.152-1.727q-.245-2.679-.571-5.346l-3.272,1.078q.359,3.057.531,6.134,1.732-.068,3.464-.14" transform="translate(-108.2 -972.174)" fill="#7a5ca2"/>
          <path id="Trazado_108419" data-name="Trazado 108419" d="M222.095,947.393a.615.615,0,0,0-.7-.828L210.457,948.9a1.5,1.5,0,0,0-1.081.914l-.963,2.444-1.3,3.293-.422,1.075a.5.5,0,0,1-.175.443l-.2.5-.293.743a.226.226,0,0,1,.024.019l-.037.01-.684,1.737a.517.517,0,0,1-.063.155l-.028.071,15.729-10.053Z" transform="translate(-180.622 -833.012)" fill="#f8b133"/>
        </g>
      </g>
      <g id="Grupo_59659" data-name="Grupo 59659" transform="translate(22.403 117.236)">
        <g id="Grupo_59658" data-name="Grupo 59658" clip-path="url(#clip-path-11)">
          <rect id="Rectángulo_7101" data-name="Rectángulo 7101" width="18.082" height="16.493" transform="translate(-0.137 0)" fill="url(#linear-gradient-6)"/>
        </g>
      </g>
      <g id="Grupo_59661" data-name="Grupo 59661" transform="translate(0 0.003)">
        <g id="Grupo_59660" data-name="Grupo 59660" clip-path="url(#clip-path)">
          <path id="Trazado_108421" data-name="Trazado 108421" d="M56.233,1615.642q-.005-1.9-.012-3.794l-5.055-.047a4.023,4.023,0,0,1-.546,1.128,7.918,7.918,0,0,1-.553.7c-.177.2-.361.4-.545.6a4.094,4.094,0,0,1,3.716,1.367l.816.013,2.179.035" transform="translate(-43.582 -1418.466)" fill="#7a5ca2"/>
          <path id="Trazado_108422" data-name="Trazado 108422" d="M43.417,1631.809a4.15,4.15,0,0,0-1.76-.114c-.256.274-.511.549-.744.84-.115.143-.225.295-.328.452l4.788.075a4.162,4.162,0,0,0-1.957-1.253" transform="translate(-35.717 -1435.932)" fill="#fff"/>
          <rect id="Rectángulo_7102" data-name="Rectángulo 7102" width="16.312" height="1.872" transform="translate(96.586 145.746)" fill="#ccc1e0"/>
        </g>
      </g>
      <g id="Grupo_59663" data-name="Grupo 59663" transform="translate(114.56 146.518)">
        <g id="Grupo_59662" data-name="Grupo 59662" clip-path="url(#clip-path-13)">
          <rect id="Rectángulo_7104" data-name="Rectángulo 7104" width="33.44" height="52.053" transform="translate(0)" fill="url(#linear-gradient-7)"/>
        </g>
      </g>
      <g id="Grupo_59665" data-name="Grupo 59665" transform="translate(112.897 145.748)">
        <g id="Grupo_59664" data-name="Grupo 59664" clip-path="url(#clip-path-14)">
          <rect id="Rectángulo_7105" data-name="Rectángulo 7105" width="2.721" height="27.386" transform="matrix(0.031, -1, 1, 0.031, -0.058, 1.871)" fill="url(#linear-gradient-8)"/>
        </g>
      </g>
    </g>
  </g>
</svg>
