<svg xmlns="http://www.w3.org/2000/svg" xmlns:xlink="http://www.w3.org/1999/xlink" width="111" height="111" viewBox="0 0 111 111">
  <defs>
    <clipPath id="clip-path">
      <rect id="Rectángulo_295264" data-name="Rectángulo 295264" width="47.989" height="63.073" fill="none"/>
    </clipPath>
  </defs>
  <g id="Grupo_904049" data-name="Grupo 904049" transform="translate(-331 -5789)">
    <circle id="Elipse_5447" data-name="Elipse 5447" cx="55.5" cy="55.5" r="55.5" transform="translate(331 5789)" fill="#fff"/>
    <g id="Grupo_881602" data-name="Grupo 881602" transform="translate(362.506 5813.02)">
      <g id="Grupo_881596" data-name="Grupo 881596" clip-path="url(#clip-path)">
        <path id="Trazado_231036" data-name="Trazado 231036" d="M16.3,44.427a68.525,68.525,0,0,0-2.684,6.638A16.272,16.272,0,0,0,14.1,62.756,19.13,19.13,0,0,0,28.552,74.963,18.922,18.922,0,0,0,44.985,70.87,19.324,19.324,0,0,0,50.731,63.1c.1-.231.149-.481.221-.722A18.411,18.411,0,0,1,21.6,50.978,18.367,18.367,0,0,1,35.989,29.742a19.341,19.341,0,0,1,3.94-.4c-2.065-3.324-4.325-6.516-6.594-9.7-.854-1.2-.878-1.186-1.741.018-3.5,4.872-6.828,9.853-9.94,14.98-.568.935-.934,1.079-2.011.806a11.286,11.286,0,0,1-1.408,2.174c.776.569.989,1.22.611,1.87A1.324,1.324,0,0,1,17,39.932c-.19.868-.843,1.533-1.055,2.392a1.472,1.472,0,0,1,.354,2.1M18.053,55.9a13.038,13.038,0,0,0,1.288,5.755,14.24,14.24,0,0,0,11.728,8.376c.428.051.858.094,1.289.115a1.319,1.319,0,1,1-.059,2.616c-.153,0-.305,0-.349,0A17.176,17.176,0,0,1,15.787,59.356a26.08,26.08,0,0,1-.4-3.4,1.378,1.378,0,0,1,1.269-1.529,1.357,1.357,0,0,1,1.4,1.477" transform="translate(-10.147 -14.917)" fill="#94ecfe"/>
        <path id="Trazado_231037" data-name="Trazado 231037" d="M90.209,83.763a1.352,1.352,0,0,0-.923,1.81,15.772,15.772,0,1,1-10.81-11.63,15.934,15.934,0,0,1,5.589,3.034c.8.662,1.552.673,2.09.053.558-.642.411-1.4-.424-2.093-.392-.325-.8-.635-1.207-.934a19.585,19.585,0,0,0-7.079-3.077c-1.113-.082-2.21-.335-3.332-.324a.564.564,0,0,1-.054.1c-1.072.214-2.168.218-3.246.4A18.153,18.153,0,0,0,56.083,85.322a17.7,17.7,0,0,0,4.055,15.6,17.508,17.508,0,0,0,11.879,6.2,18.019,18.019,0,0,0,12.3-3.146c.244-.164.457-.427.809-.356,0,0,0,.009.008.013a23.775,23.775,0,0,0,3.623-3.658h0c.13-.218.253-.441.392-.653a18.137,18.137,0,0,0,2.7-14.28c-.21-.979-.824-1.45-1.642-1.275" transform="translate(-44.312 -56.18)" fill="#0056d4"/>
        <path id="Trazado_231038" data-name="Trazado 231038" d="M73.4,70.6a19.324,19.324,0,0,0-3.94.4,18.418,18.418,0,0,0,3.064,36.438,18.665,18.665,0,0,0,11.9-3.8l.018-.014s0-.009-.008-.013c-.352-.07-.564.192-.809.356a18.02,18.02,0,0,1-12.3,3.146,17.508,17.508,0,0,1-11.879-6.2,17.7,17.7,0,0,1-4.055-15.6A18.154,18.154,0,0,1,70.118,71.093c1.078-.177,2.174-.182,3.246-.4a.571.571,0,0,0,.054-.1H73.4" transform="translate(-43.618 -56.18)" fill="#0056d4"/>
        <path id="Trazado_231039" data-name="Trazado 231039" d="M40.826,153.885c.2.3.048.574-.072.844-3.074,6.915-8.329,11.089-15.819,12.176a18.959,18.959,0,0,1-15.476-4.572A19.624,19.624,0,0,1,2.5,149.093a15.294,15.294,0,0,1,.688-6.244,41.065,41.065,0,0,1,2.329-5.97c.468-.976,1.016-1.949.284-3.039-1.116-.228-1.516-.03-2,.977-.818,1.693-1.565,3.418-2.226,5.178a20.528,20.528,0,0,0-1.4,10.235,22.3,22.3,0,0,0,20.08,19.185c8.689.7,15.636-2.663,20.66-9.807a19.936,19.936,0,0,0,3.538-9.384,9.207,9.207,0,0,1-3.621,3.661" transform="translate(0 -106.433)" fill="#00b6fe"/>
        <path id="Trazado_231040" data-name="Trazado 231040" d="M14.919,137.211a41.065,41.065,0,0,0-2.329,5.97,15.29,15.29,0,0,0-.688,6.244,19.623,19.623,0,0,0,6.96,13.239,18.959,18.959,0,0,0,15.476,4.572c7.49-1.087,12.745-5.261,15.819-12.176.12-.27.277-.546.072-.844l-.019.011c-.073.241-.125.491-.221.722a19.327,19.327,0,0,1-5.746,7.769,18.922,18.922,0,0,1-16.433,4.092A19.13,19.13,0,0,1,13.358,154.6a16.272,16.272,0,0,1-.485-11.69,68.525,68.525,0,0,1,2.684-6.638,1.472,1.472,0,0,0-.354-2.1c.733,1.09.184,2.064-.284,3.039" transform="translate(-9.404 -106.765)" fill="#00b6fe"/>
        <path id="Trazado_231041" data-name="Trazado 231041" d="M199.856,218.038l0,0a9.209,9.209,0,0,0,3.621-3.661,23.777,23.777,0,0,1-3.623,3.658" transform="translate(-159.032 -170.59)" fill="#00b6fe"/>
        <path id="Trazado_231042" data-name="Trazado 231042" d="M199.79,232.289l0,0-.018.014.02-.011" transform="translate(-158.964 -184.838)" fill="#00b6fe"/>
        <path id="Trazado_231043" data-name="Trazado 231043" d="M44.493,20.445a1.284,1.284,0,0,0,1.375-.739C47.238,17.443,48.64,15.2,50.1,13c2.023-3.053,4.085-6.079,6.247-9.036.438-.6.658-.6,1.089,0q3.46,4.8,6.7,9.744c.139.213.353.431.229.713a4.742,4.742,0,0,1,3.328.33C64.736,10,61.543,5.412,58.229.908,57.336-.306,56.448-.3,55.553.914Q49.306,9.387,43.827,18.375a1.408,1.408,0,0,0,.233,2.151.5.5,0,0,1,.434-.081" transform="translate(-34.562 0)" fill="#00b6fe"/>
        <path id="Trazado_231044" data-name="Trazado 231044" d="M48.506,33.394c3.111-5.127,6.444-10.108,9.94-14.98.863-1.2.887-1.216,1.741-.017,2.27,3.185,4.529,6.377,6.594,9.7l.021-.006c.125-.282-.09-.5-.229-.713q-3.231-4.954-6.7-9.744c-.431-.6-.651-.6-1.089,0-2.162,2.957-4.224,5.983-6.247,9.035-1.461,2.205-2.864,4.447-4.233,6.711a1.284,1.284,0,0,1-1.375.738.5.5,0,0,0-.434.081c1.077.273,1.443.129,2.01-.806" transform="translate(-36.998 -13.675)" fill="#00b6fe"/>
        <path id="Trazado_231045" data-name="Trazado 231045" d="M145.891,69.881l0,.006c1.122-.011,2.219.242,3.332.324a4.742,4.742,0,0,0-3.328-.33" transform="translate(-116.087 -55.465)" fill="#00b6fe"/>
        <path id="Trazado_231046" data-name="Trazado 231046" d="M145.8,70.577h.017l0-.007-.02.006" transform="translate(-116.021 -56.156)" fill="#00b6fe"/>
        <path id="Trazado_231047" data-name="Trazado 231047" d="M211.411,113.766a1.313,1.313,0,0,0,1.294-1.318,1.332,1.332,0,0,0-1.33-1.293,1.306,1.306,0,0,0,.036,2.611" transform="translate(-167.187 -88.45)" fill="#0257d4"/>
        <path id="Trazado_231048" data-name="Trazado 231048" d="M31.637,113.124a1.1,1.1,0,0,0,1.041-1.849c-.112-.125-.289-.222-.23-.44a1.314,1.314,0,0,0-1.677.647,1.256,1.256,0,0,0,.442,1.669c.133-.132.282-.063.424-.028" transform="translate(-24.359 -88.137)" fill="#01b7fe"/>
        <path id="Trazado_231049" data-name="Trazado 231049" d="M35.4,113c.378-.65.166-1.3-.611-1.87-.059.217.118.315.23.44a1.1,1.1,0,0,1-1.041,1.849c-.142-.036-.291-.1-.424.028A1.324,1.324,0,0,0,35.4,113" transform="translate(-26.702 -88.427)" fill="#01b7fe"/>
        <path id="Trazado_231050" data-name="Trazado 231050" d="M25.615,194.941a26.115,26.115,0,0,0,.4,3.4,17.176,17.176,0,0,0,16.162,13.409c.044,0,.2,0,.349,0a1.319,1.319,0,1,0,.059-2.616c-.431-.021-.861-.063-1.289-.115a14.24,14.24,0,0,1-11.728-8.376,13.038,13.038,0,0,1-1.288-5.755,1.357,1.357,0,0,0-1.4-1.477,1.379,1.379,0,0,0-1.269,1.529" transform="translate(-20.378 -153.903)" fill="#00b6fe"/>
        <path id="Trazado_231051" data-name="Trazado 231051" d="M102.817,126.273q0-5.883,5.412-5.882a5.557,5.557,0,0,1,3.85,1.283,4.6,4.6,0,0,1,1.433,3.615v.15h-2.8v-.128a2.45,2.45,0,0,0-.652-1.8,2.479,2.479,0,0,0-1.85-.663,2.261,2.261,0,0,0-1.957.834,4.737,4.737,0,0,0-.61,2.738v3.187a4.28,4.28,0,0,0,.631,2.61,2.348,2.348,0,0,0,1.979.813,2.452,2.452,0,0,0,1.829-.642,2.394,2.394,0,0,0,.631-1.754v-.171h2.759v.15a4.657,4.657,0,0,1-1.412,3.647,5.571,5.571,0,0,1-3.872,1.273q-5.369,0-5.369-5.882Z" transform="translate(-81.815 -95.799)" fill="#0056d4"/>
        <path id="Trazado_231052" data-name="Trazado 231052" d="M163.973,132.819v-11.38h2.652v11.209a1.507,1.507,0,0,0,.246.973,1,1,0,0,0,.8.289h.9V136.2h-1.219a3.071,3.071,0,0,1-3.38-3.38" transform="translate(-130.479 -96.633)" fill="#0056d4"/>
      </g>
    </g>
  </g>
</svg>
