<svg id="Grupo_875324" data-name="Grupo 875324" xmlns="http://www.w3.org/2000/svg" xmlns:xlink="http://www.w3.org/1999/xlink" width="295.198" height="415.063" viewBox="0 0 295.198 415.063">
  <defs>
    <clipPath id="clip-path">
      <rect id="Rectángulo_292810" data-name="Rectángulo 292810" width="295.198" height="415.063" fill="none"/>
    </clipPath>
    <clipPath id="clip-path-2">
      <rect id="Rectángulo_292802" data-name="Rectángulo 292802" width="295.196" height="415.063" fill="none"/>
    </clipPath>
    <clipPath id="clip-path-3">
      <rect id="Rectángulo_292801" data-name="Rectángulo 292801" width="193.14" height="111.533" fill="none"/>
    </clipPath>
    <clipPath id="clip-path-5">
      <rect id="Rectángulo_292808" data-name="Rectángulo 292808" width="91.593" height="54.282" fill="none"/>
    </clipPath>
  </defs>
  <g id="Grupo_875323" data-name="Grupo 875323" clip-path="url(#clip-path)">
    <path id="Trazado_197504" data-name="Trazado 197504" d="M8.026,121.893l4.741,7.224,13.4-7.751v-4.332Z" transform="translate(19.61 285.947)" fill="#403531"/>
    <path id="Trazado_197505" data-name="Trazado 197505" d="M13.381,129.116h19v-4.352L0,117.034Z" transform="translate(0 285.947)" fill="#544540"/>
    <path id="Trazado_197506" data-name="Trazado 197506" d="M0,121.376l13.381,7.74v-4.352L0,117.034Z" transform="translate(0 285.946)" fill="#685750"/>
    <path id="Trazado_197507" data-name="Trazado 197507" d="M13.381,111.6,0,119.351v10.957l13.381,7.73h19l13.4-7.73V119.351l-13.4-7.751Z" transform="translate(0 272.672)" fill="#836e69"/>
    <path id="Trazado_197508" data-name="Trazado 197508" d="M10.585,46.207,8.3,64.295l2.283,230.132,11.235-6.453V52.684Z" transform="translate(20.284 112.897)" fill="#a39c95"/>
    <path id="Trazado_197509" data-name="Trazado 197509" d="M7.421,43.553,3.1,69.422,7.421,300.91H23.285l-.01-248.219-1.5-9.139Z" transform="translate(7.583 106.412)" fill="#b5afa7"/>
    <path id="Trazado_197510" data-name="Trazado 197510" d="M12.33,48.134V305.492L1.095,299.039V41.678L10.76,42.99Z" transform="translate(2.674 101.831)" fill="#d8d1c7"/>
    <path id="Trazado_197511" data-name="Trazado 197511" d="M73.246,0,69.5,2.166l13.281,13.27L86.668,7.73Z" transform="translate(169.817 -0.001)" fill="#836e69"/>
    <path id="Trazado_197512" data-name="Trazado 197512" d="M73.39,4.427l3.784-2.183L86.667,18.7,82.893,36.326Z" transform="translate(179.312 5.483)" fill="#544540"/>
    <path id="Trazado_197513" data-name="Trazado 197513" d="M76.149,9.2l3.777-2.173-.01,15.464-3.767,2.159Z" transform="translate(186.054 17.16)" fill="#403531"/>
    <path id="Trazado_197514" data-name="Trazado 197514" d="M89.644,45.76l9.49-5.492V24.818L89.63,8.373,76.246.629,66.756,6.1l-.014,15.481,9.5,16.455Z" transform="translate(163.071 1.538)" fill="#685750"/>
    <path id="Trazado_197515" data-name="Trazado 197515" d="M1.095,138.693,237.5,1.971l11.246,6.477L89.277,108.038l-16.531,7.413-60.416,29.7Z" transform="translate(2.675 4.815)" fill="#e0dedc"/>
    <path id="Trazado_197516" data-name="Trazado 197516" d="M4.357,140.553,240.777,3.852l6.976,14.107L31.456,153.876l-11.235-4.184Z" transform="translate(10.647 9.411)" fill="#b5afa7"/>
    <path id="Trazado_197517" data-name="Trazado 197517" d="M8.965,139.682,236.493,7.949v13.26L20.2,146.159l-5.482,3.829Z" transform="translate(21.904 19.422)" fill="#a39c95"/>
    <path id="Trazado_197518" data-name="Trazado 197518" d="M42.054,16.393H37.22l-3.43,1.98v2.779l3.43,1.98h4.834l3.423-1.98V18.373Z" transform="translate(82.56 40.052)" fill="#e6e1dd"/>
    <rect id="Rectángulo_292800" data-name="Rectángulo 292800" width="4.834" height="21.355" transform="translate(119.781 63.184)" fill="#b5afa7"/>
    <path id="Trazado_197519" data-name="Trazado 197519" d="M33.791,39.144l3.426,1.966V19.755l-3.426-1.98Z" transform="translate(82.562 43.43)" fill="#d8d1c7"/>
    <path id="Trazado_197520" data-name="Trazado 197520" d="M36.191,19.755V41.11l3.423-1.966V17.775Z" transform="translate(88.424 43.429)" fill="#a39c95"/>
    <path id="Trazado_197521" data-name="Trazado 197521" d="M57.138,12.176l-12.2-7.083L31.806,12.669,44.316,25.04Z" transform="translate(77.711 12.445)" fill="#fa5c52"/>
    <path id="Trazado_197522" data-name="Trazado 197522" d="M50.613,14.407,38.3,7.293l-9.152,15.88,12.334,22Z" transform="translate(71.217 17.82)" fill="#c84030"/>
    <path id="Trazado_197523" data-name="Trazado 197523" d="M41.509,18.94,29.147,11.905l.127,14.951L41.481,33.9Z" transform="translate(71.215 29.088)" fill="#ab281f"/>
    <path id="Trazado_197524" data-name="Trazado 197524" d="M41.9,50.821l-9.173-5.3.028-14.961,9.1-15.8L54.884,7.15l9.18,5.285L64,27.558,54.877,43.353Z" transform="translate(79.968 17.47)" fill="#8a1c14"/>
    <path id="Trazado_197525" data-name="Trazado 197525" d="M57.232,10.5l-3.04-1.732L34.74,42.431l3.034,1.787,11.4-6.546,8.03-13.9Z" transform="translate(84.881 21.417)" fill="#c84030"/>
    <path id="Trazado_197526" data-name="Trazado 197526" d="M57.761,10.828,52.745,7.922,41.32,14.6l-8,13.887L33.28,41.631l5.031,2.861,11.408-6.5,8.03-13.89Z" transform="translate(81.312 19.355)" fill="#fff"/>
    <path id="Trazado_197527" data-name="Trazado 197527" d="M38.269,23.7l-1.618.189L40.828,9.406l1.615-.169Z" transform="translate(89.549 22.57)" fill="#362c29"/>
    <path id="Trazado_197528" data-name="Trazado 197528" d="M37.983,22.459l-2.269-1.3.014-3.695,2.242-3.922L41.2,11.668l2.252,1.295v3.753L41.2,20.644Z" transform="translate(87.26 28.508)" fill="#a39c95"/>
    <g id="Grupo_875317" data-name="Grupo 875317">
      <g id="Grupo_875316" data-name="Grupo 875316" clip-path="url(#clip-path-2)">
        <g id="Grupo_875315" data-name="Grupo 875315" transform="translate(68.324 264.615)" opacity="0.3">
          <g id="Grupo_875314" data-name="Grupo 875314">
            <g id="Grupo_875313" data-name="Grupo 875313" clip-path="url(#clip-path-3)">
              <path id="Trazado_197529" data-name="Trazado 197529" d="M212.983,92.486,46.9,188.384,19.843,172.773,185.953,76.85Z" transform="translate(-19.843 -76.85)"/>
            </g>
          </g>
        </g>
      </g>
    </g>
    <path id="Trazado_197530" data-name="Trazado 197530" d="M89.959,78.453v3.633l-11.225,6.47L74.788,82.53Z" transform="translate(182.729 191.683)" fill="#403531"/>
    <path id="Trazado_197531" data-name="Trazado 197531" d="M95.114,84.95v3.605H79.261l-11.177-10.1Z" transform="translate(166.35 191.682)" fill="#544540"/>
    <path id="Trazado_197532" data-name="Trazado 197532" d="M79.262,84.95v3.605L68.085,82.1V78.453Z" transform="translate(166.351 191.682)" fill="#685750"/>
    <path id="Trazado_197533" data-name="Trazado 197533" d="M68.085,80.381v9.135l11.177,6.5H95.115l11.222-6.5V80.381l-11.2-6.456H79.262Z" transform="translate(166.351 180.619)" fill="#836e69"/>
    <path id="Trazado_197534" data-name="Trazado 197534" d="M76.966,58.087l-1.942,4.194,1.942,110.35,9.5-5.478V41.494Z" transform="translate(183.304 101.381)" fill="#a39c95"/>
    <path id="Trazado_197535" data-name="Trazado 197535" d="M74.269,40.838,70.63,62.71l3.64,111.521H87.7L87.684,48.554l-9.975,1.277Z" transform="translate(172.568 99.779)" fill="#b5afa7"/>
    <path id="Trazado_197536" data-name="Trazado 197536" d="M78.42,43.924V177.317l-9.49-5.478V46.179l8.167-6.6Z" transform="translate(168.417 96.693)" fill="#d8d1c7"/>
    <path id="Trazado_197537" data-name="Trazado 197537" d="M38.451,108.192V111.8l-11.2,6.487L23.3,112.266Z" transform="translate(56.929 264.344)" fill="#403531"/>
    <path id="Trazado_197538" data-name="Trazado 197538" d="M43.633,114.655v3.636H27.777l-11.18-10.1Z" transform="translate(40.549 264.344)" fill="#544540"/>
    <path id="Trazado_197539" data-name="Trazado 197539" d="M27.774,114.655v3.636L16.6,111.825v-3.633Z" transform="translate(40.551 264.344)" fill="#685750"/>
    <path id="Trazado_197540" data-name="Trazado 197540" d="M16.6,110.115v9.152l11.177,6.463h15.86l11.194-6.463v-9.152l-11.18-6.456H27.774Z" transform="translate(40.55 253.269)" fill="#836e69"/>
    <path id="Trazado_197541" data-name="Trazado 197541" d="M25.472,72.816,23.537,88.1l1.935,110.371,9.5-5.475V78.291Z" transform="translate(57.507 177.911)" fill="#a39c95"/>
    <path id="Trazado_197542" data-name="Trazado 197542" d="M22.791,70.573l-3.65,21.872,3.65,111.511H36.213L36.2,78.3l-1.267-7.723Z" transform="translate(46.767 172.43)" fill="#b5afa7"/>
    <path id="Trazado_197543" data-name="Trazado 197543" d="M26.942,74.443V207.826l-9.5-5.475V68.989l8.174,1.095Z" transform="translate(42.616 168.56)" fill="#d8d1c7"/>
    <path id="Trazado_197544" data-name="Trazado 197544" d="M17.442,147.179l190.7-110.192,9.5,5.475-24.206,20.37L57.987,139.067,26.942,152.633Z" transform="translate(42.617 90.37)" fill="#e0dedc"/>
    <path id="Trazado_197545" data-name="Trazado 197545" d="M20.2,148.749,210.9,38.577l9.517,10.041L114.681,116.984,33.623,156.472Z" transform="translate(49.357 94.255)" fill="#b5afa7"/>
    <path id="Trazado_197546" data-name="Trazado 197546" d="M24.1,149.347,210.89,41.493l-9.5,16.593L33.6,154.822l-4.642,3.254Z" transform="translate(58.88 101.38)" fill="#a39c95"/>
    <path id="Trazado_197547" data-name="Trazado 197547" d="M60.5,81.542l-9.066-15.7L38.58,58.421l-9.073,5.237,0,7,9.528-5.5,9.555,5.526,6.749,11.69,0,11.032-9.07,5.237,5.155,2.975L60.5,96.376Z" transform="translate(72.086 142.738)" fill="#d8d1c7"/>
    <rect id="Rectángulo_292803" data-name="Rectángulo 292803" width="52.385" height="18.136" transform="translate(123.515 208.575) rotate(-29.99)" fill="#b5afa7"/>
    <path id="Trazado_197548" data-name="Trazado 197548" d="M83.873,57.531l.01,14.827L38.5,98.548V83.717Z" transform="translate(94.078 140.565)" fill="#a39c95"/>
    <path id="Trazado_197549" data-name="Trazado 197549" d="M90.355,58.233l-12.843-7.42L32.14,77.009l12.85,7.424Z" transform="translate(78.527 124.15)" fill="#e0dedc"/>
    <path id="Trazado_197550" data-name="Trazado 197550" d="M65.184,50.335H47.138L34.35,57.724V68.144l12.788,7.382H65.184l12.8-7.382V57.724Z" transform="translate(83.926 122.983)" fill="#e6e1dd"/>
    <path id="Trazado_197551" data-name="Trazado 197551" d="M56.11,73.9,38.064,63.357V57.651H56.11Z" transform="translate(93 140.858)" fill="#b5afa7"/>
    <path id="Trazado_197552" data-name="Trazado 197552" d="M47.138,68.6,34.349,61.216V55.507l12.788,7.386Z" transform="translate(83.925 135.618)" fill="#d8d1c7"/>
    <path id="Trazado_197553" data-name="Trazado 197553" d="M43.3,79.926l12.8-7.379V55.507L43.3,62.893Z" transform="translate(105.806 135.618)" fill="#a39c95"/>
    <path id="Trazado_197554" data-name="Trazado 197554" d="M54.568,50.985H44.341l-7.248,4.184v5.905l7.248,4.187H54.568l7.252-4.187V55.169Z" transform="translate(90.629 124.572)" fill="#e6e1dd"/>
    <rect id="Rectángulo_292804" data-name="Rectángulo 292804" width="10.223" height="3.027" transform="translate(134.973 189.835)" fill="#b5afa7"/>
    <path id="Trazado_197555" data-name="Trazado 197555" d="M44.341,61.132l-7.248-4.177v-3.04l7.248,4.19Z" transform="translate(90.629 131.729)" fill="#d8d1c7"/>
    <path id="Trazado_197556" data-name="Trazado 197556" d="M42.168,61.132l7.252-4.177v-3.04l-7.252,4.19Z" transform="translate(103.028 131.729)" fill="#a39c95"/>
    <path id="Trazado_197557" data-name="Trazado 197557" d="M45.414,47.477H41.919L39.46,48.9v2.021l2.458,1.425h3.495l2.472-1.425V48.9Z" transform="translate(96.413 115.999)" fill="#836e69"/>
    <rect id="Rectángulo_292805" data-name="Rectángulo 292805" width="3.495" height="16.455" transform="translate(138.33 168.349)" fill="#544540"/>
    <path id="Trazado_197558" data-name="Trazado 197558" d="M39.46,64.936l2.462,1.426V49.9L39.46,48.477Z" transform="translate(96.411 118.443)" fill="#685750"/>
    <path id="Trazado_197559" data-name="Trazado 197559" d="M41.189,49.9V66.362l2.472-1.426V48.477Z" transform="translate(100.637 118.444)" fill="#403531"/>
    <path id="Trazado_197560" data-name="Trazado 197560" d="M37.309,47.731l23.256-.014V42.659l-6.487-1.315H41l-3.695,1.315Z" transform="translate(91.155 101.013)" fill="#ab281f"/>
    <path id="Trazado_197561" data-name="Trazado 197561" d="M55.543,61.364,43.147,54.2l-1.219-6.632L45.5,48.665,48.746,50.3l7.262,5.881Z" transform="translate(102.442 116.235)" fill="#c84030"/>
    <path id="Trazado_197562" data-name="Trazado 197562" d="M35.812,60.894l12.4-7.159,1.133-5.971-3.495.43L42.6,49.835l-7.248,5.891Z" transform="translate(86.38 116.704)" fill="#8a1c14"/>
    <path id="Trazado_197563" data-name="Trazado 197563" d="M39.087,54.022h11V48.96l-3-1.312h-4.3l-3.7,1.312Z" transform="translate(95.5 116.418)" fill="#ab281f"/>
    <path id="Trazado_197564" data-name="Trazado 197564" d="M35.487,50.736l6.27-3.609V42.055L39.4,41.59l-3.237,1.615-.665,2.465Z" transform="translate(86.705 101.617)" fill="#8a1c14"/>
    <path id="Trazado_197565" data-name="Trazado 197565" d="M32.9,52.456l6.26-3.622V43.779L36.8,43.3l-3.247,1.636L32.366,47.37Z" transform="translate(79.08 105.794)" fill="#8a1c14"/>
    <path id="Trazado_197566" data-name="Trazado 197566" d="M50.333,50.737l-6.27-3.612V42.067l2.362-.482,3.244,1.632.658,2.465Z" transform="translate(107.658 101.604)" fill="#c84030"/>
    <path id="Trazado_197567" data-name="Trazado 197567" d="M46.734,56l-12.4-7.162V43.781L36.7,43.3l3.24,1.639,7.252,5.891Z" transform="translate(83.899 105.793)" fill="#c84030"/>
    <path id="Trazado_197568" data-name="Trazado 197568" d="M53.3,52.454l-6.27-3.605V43.777l2.359-.472,3.247,1.632,1.184,2.438Z" transform="translate(114.904 105.806)" fill="#c84030"/>
    <path id="Trazado_197569" data-name="Trazado 197569" d="M43.759,56l12.4-7.152V43.779L53.789,43.3,50.552,44.94l-7.258,5.888Z" transform="translate(105.779 105.804)" fill="#8a1c14"/>
    <path id="Trazado_197570" data-name="Trazado 197570" d="M77.322,40.969H50.337L31.21,52.018V67.61L50.337,78.656H77.322L96.45,67.61V52.018Zm-25.115,2.6H75.463L81.73,47.2,69.341,54.343h-11L45.944,47.188ZM35.721,66.539V53.089l6.263-3.615,12.392,7.162v6.349l-12.4,7.172ZM75.46,76.059l-23.266-.017L45.937,72.43l12.4-7.152h11L81.719,72.43ZM85.7,70.144,73.294,63V56.646l12.382-7.162,6.27,3.605V66.539Z" transform="translate(76.255 100.099)" fill="#fa5c52"/>
    <rect id="Rectángulo_292806" data-name="Rectángulo 292806" width="26.988" height="5.055" transform="translate(126.592 178.754)" fill="#ab281f"/>
    <path id="Trazado_197571" data-name="Trazado 197571" d="M44.6,64.807,63.73,53.785V48.706L44.6,59.752Z" transform="translate(108.977 119.002)" fill="#8a1c14"/>
    <path id="Trazado_197572" data-name="Trazado 197572" d="M50.337,64.807,31.213,53.785l0-5.079L50.337,59.752Z" transform="translate(76.254 119.002)" fill="#c84030"/>
    <path id="Trazado_197573" data-name="Trazado 197573" d="M46.84,44.521H42.3l-3.206,1.846v2.62L42.3,50.847H46.84l3.216-1.859v-2.62Z" transform="translate(95.515 108.779)" fill="#e6e1dd"/>
    <rect id="Rectángulo_292807" data-name="Rectángulo 292807" width="4.542" height="3.56" transform="translate(137.814 159.627)" fill="#b5afa7"/>
    <path id="Trazado_197574" data-name="Trazado 197574" d="M39.092,49.372,42.3,51.239v-3.56l-3.206-1.859Z" transform="translate(95.514 111.949)" fill="#d8d1c7"/>
    <path id="Trazado_197575" data-name="Trazado 197575" d="M41.342,47.678v3.56l3.216-1.866V45.819Z" transform="translate(101.011 111.948)" fill="#a39c95"/>
    <g id="Grupo_875322" data-name="Grupo 875322">
      <g id="Grupo_875321" data-name="Grupo 875321" clip-path="url(#clip-path-2)">
        <g id="Grupo_875320" data-name="Grupo 875320" transform="translate(154.854 345.633)" opacity="0.3">
          <g id="Grupo_875319" data-name="Grupo 875319">
            <g id="Grupo_875318" data-name="Grupo 875318" clip-path="url(#clip-path-5)">
              <path id="Trazado_197576" data-name="Trazado 197576" d="M116.848,100.379H99.7l-54.724,31.6v9.9l30.9,12.781H93.013l43.554-25.146v-9.893Z" transform="translate(-44.973 -100.379)"/>
            </g>
          </g>
        </g>
      </g>
    </g>
    <path id="Trazado_197577" data-name="Trazado 197577" d="M75.034,51.629l-4.989-.947,2.018,15.987,7.72-3.1,2.975-3.223L80.594,54.58Z" transform="translate(171.138 123.831)" fill="#362c29"/>
    <path id="Trazado_197578" data-name="Trazado 197578" d="M92.811,40.59,90.276,53.646l5.464,3.6L71.493,86.23l2.462,6.718,5.261,2.007,36.64-28.545,4.662-17.43L104.511,36.52Z" transform="translate(174.678 89.228)" fill="#f0c6b4"/>
    <path id="Trazado_197579" data-name="Trazado 197579" d="M78.21,31.076,68.666,41.093l7.84,14.816L96.277,68.577l8.508-3.887,6.639-7.785V48l-17.3-15.154Z" transform="translate(167.769 75.928)" fill="#d6a950"/>
    <path id="Trazado_197580" data-name="Trazado 197580" d="M61.21,37.8,64.9,39.319l-.8,11.79.53,3.863,8.791,2.83,14.252-3.495,4.067-7.861-.764-4.19-.72-3.089-2.706-11.7-27.181.455Z" transform="translate(147.502 67.119)" fill="#f0c6b4"/>
    <path id="Trazado_197581" data-name="Trazado 197581" d="M53.214,75.208,54.708,45.2l5.7.83,5.509,38.857L56.3,88.665Z" transform="translate(130.017 110.437)" fill="#275c78"/>
    <path id="Trazado_197582" data-name="Trazado 197582" d="M106.27,31.765l-3.092,6.728L91.715,42.887H83.726l-4.332-2.269-7.059,6.694-.572,2.438-5.31,1-4.58,4.473L54.111,82.87l1.105,24.323-1.105,16.38,8.963,6.122,25.959-5.547L110.99,91.7l12.833-21.545,1.6-21.947L119.526,36.9l-4.06-3.113-2.972,1.77Z" transform="translate(132.208 77.61)" fill="#e3bd5e"/>
    <path id="Trazado_197583" data-name="Trazado 197583" d="M74.082,100.379l-11.793.348-2.131,3.715,5.464,6.666,10.4,7.627,7.031,10.64,6.432,1.518,4.721-2.758v-1.412Z" transform="translate(146.981 245.254)" fill="#362c29"/>
    <path id="Trazado_197584" data-name="Trazado 197584" d="M84.319,110.96H58.139l-11.959,1.174v1.388l3.426,3.5,9.1,2.4,15.471-1.185,15.057,1.185,7.431-4.5v-1.4Z" transform="translate(112.833 271.106)" fill="#362c29"/>
    <path id="Trazado_197585" data-name="Trazado 197585" d="M74.082,99.972l-11.793.348-2.131,3.729,5.464,6.649,10.4,7.627,7.031,10.64,6.432,1.525,4.721-2.768-2.5-13.863Z" transform="translate(146.981 244.259)" fill="#fff"/>
    <path id="Trazado_197586" data-name="Trazado 197586" d="M99.632,66.1l-6.59,59.032,4.366,23.115-2.813,48.809H79.141l-4.528-9.2-1.863-47.81-3.867-10.929L59.748,82.3Z" transform="translate(145.981 161.502)" fill="#377691"/>
    <path id="Trazado_197587" data-name="Trazado 197587" d="M74.375,106.506l-11.449,5.671-16.745,3.189v7.651l3.426,3.495,9.1,2.393,15.471-1.174L89.233,128.9l7.434-4.5-2.493-16.483Z" transform="translate(112.834 260.224)" fill="#fff"/>
    <path id="Trazado_197588" data-name="Trazado 197588" d="M61.013,21.629l-1.983,7.51,1.639,4.07-2.018,3.175.809,14.279L65.41,53.5l3.939-4.042,4.084,2.51,4.507-3.512-.427-16.431L64.329,21.044Z" transform="translate(143.301 51.416)" fill="#f0c6b4"/>
    <path id="Trazado_197589" data-name="Trazado 197589" d="M80.724,16.791l-12.589.51-8.653,7.885-.244,9.92,5.905,11.008L63.71,52.97l1.625,1.319,3.426-5.465,3.9,3.065.675,5.268L72,62.359l2.913,4.283,6.239,1.708,7.465-1.426L93.8,64.969l10.1-18.811-1.253-15.133L92.562,21.071Z" transform="translate(144.734 41.025)" fill="#944e39"/>
    <path id="Trazado_197590" data-name="Trazado 197590" d="M43.731,52.828l-3.643-5.2-5.3-15.887,8.26-9.865,3.536,1.391,1.594,1.883.324-4.969-2.779-6.429,2.658-1.494,3.8,5.1,3.392,11.724L55.094,48.7l-1.012,5.437-5.106,1.5Z" transform="translate(84.991 29.962)" fill="#362c29"/>
    <path id="Trazado_197591" data-name="Trazado 197591" d="M73.989,69.073,62.241,66.418,48.747,22.844l-3.877,3.078-7.486,1.054,3.147,39.171L52.624,82.932l13.5,6.807,7.868-7.871Z" transform="translate(91.339 55.813)" fill="#f0c6b4"/>
    <path id="Trazado_197592" data-name="Trazado 197592" d="M91.228,70.232l5.864-13.69L86.029,43.085,54.978,35.826,49.84,39.79,45.533,50.97l.861,8.918L77.1,73.878Z" transform="translate(111.249 87.534)" fill="#d6a950"/>
    <path id="Trazado_197593" data-name="Trazado 197593" d="M118.7,58.363l-14.655,1.329L80.2,61.617l-22.04-3.254-6.2,43.4L53.3,154.011l3.788,26.176.021,45.51,12.578,8.86,11.786-7.21,3.46-39.9-6.656-27.037,12.719-55.688,24.829-13.677,4.211-7.114Z" transform="translate(126.938 142.598)" fill="#428aa8"/>
    <path id="Trazado_197594" data-name="Trazado 197594" d="M112.229,40.139l-9.386,7.334L89.035,52.82,87.816,81.561,78.991,94.79,67,101.426H56.1v9.311l7.53,8.192L98,117.254l10.561-14.362-1.436-27.729Z" transform="translate(137.076 98.07)" fill="#428aa8"/>
    <path id="Trazado_197595" data-name="Trazado 197595" d="M85.142,62.249,79.13,50.517,69.045,42.811,57.7,39.716l5.878-3.436h8.639l12.7,10.6L91.3,59.866l-1.26,4.872Z" transform="translate(140.968 88.641)" fill="#428aa8"/>
    <path id="Trazado_197596" data-name="Trazado 197596" d="M80.087,60.6,81.7,45.975,78.455,33.782l-9.2-2.018,3.436,4.724,2.827,9.955-1.1,18.587,1.99,1.863Z" transform="translate(169.217 77.61)" fill="#428aa8"/>
    <path id="Trazado_197597" data-name="Trazado 197597" d="M53.214,53.915,55.08,69.231l3.106,4.989,7.079-.864-2.1-5.592-6.677-4.92Z" transform="translate(130.017 131.73)" fill="#428aa8"/>
    <path id="Trazado_197598" data-name="Trazado 197598" d="M60.157,68.592l17.392-5.1,1.6,3.815-18.081,4.3Z" transform="translate(146.981 155.121)" fill="#377691"/>
    <path id="Trazado_197599" data-name="Trazado 197599" d="M61.028,67.635,68.8,64.264l5.926.1,2.531,8.006.878,16.387-7.5,4.387L60.77,91.807l2.672-13.949Z" transform="translate(148.478 157.016)" fill="#fff"/>
    <path id="Trazado_197600" data-name="Trazado 197600" d="M78.536,42.539,91.9,44.278l.227,3.984Z" transform="translate(191.886 103.935)" fill="#c7a495"/>
  </g>
</svg>
