<svg xmlns="http://www.w3.org/2000/svg" xmlns:xlink="http://www.w3.org/1999/xlink" width="107.491" height="205.954" viewBox="0 0 107.491 205.954">
  <defs>
    <clipPath id="clip-path">
      <rect id="Rectángulo_7040" data-name="Rectángulo 7040" width="99" height="189.842" fill="none"/>
    </clipPath>
    <clipPath id="clip-path-2">
      <path id="Trazado_108245" data-name="Trazado 108245" d="M103.285,204.766a1.243,1.243,0,0,1-.644-.281,1.229,1.229,0,0,1-.263-.734c-.06-.434-.12-.871-.18-1.309,2.231-.033,5.162-.069,7.423-.1-.066.47-.129.94-.192,1.41a1.251,1.251,0,0,1-.266.734,1.223,1.223,0,0,1-.644.281c-.871.195-1.746.392-2.617.59-.874-.2-1.743-.4-2.617-.59m-.823-40.49c-3.138,1.614-5.5,4.381-7.773,7.076q-6.27,7.438-12.537,14.873-7.622-5.259-15.146-10.657-1.1,2.735-2.207,5.471c-.216.539-.434,1.081-.653,1.62q5.43,6.463,11.375,12.463a7.287,7.287,0,0,0,3.779,2.446c1.671.258,3.282-.65,4.686-1.59,2.7-1.812,5.222-3.875,7.734-5.935q2.291-1.877,4.578-3.752a40.183,40.183,0,0,1,5.375-14.3,75.934,75.934,0,0,0-2.1,9.827,7.7,7.7,0,0,0,.192,1.635c.431,1.97,1.476,3.734,1.9,5.809a277.517,277.517,0,0,1-4.294,44.445l3.5,0,9.285,0c.979-10.636,1.683-21.347,2.018-32.069q.171-5.287.213-10.579-2.915-8.529-5.836-17.059a5.792,5.792,0,0,1-.452-3.15,3.852,3.852,0,0,1,1.614-2.183,8.526,8.526,0,0,1,1.719-.9l-1.82-.863a.913.913,0,0,1-.551-1.377c.329-1.111.662-2.225.988-3.336a44.911,44.911,0,0,0-5.585,2.078" transform="translate(-64.146 -162.198)" fill="none"/>
    </clipPath>
    <linearGradient id="linear-gradient" x1="-0.011" y1="2.893" x2="-0.009" y2="2.893" gradientUnits="objectBoundingBox">
      <stop offset="0" stop-color="#e6e0f0"/>
      <stop offset="1" stop-color="#fff"/>
    </linearGradient>
    <clipPath id="clip-path-4">
      <path id="Trazado_108260" data-name="Trazado 108260" d="M339.6,199.8a1.242,1.242,0,0,1-.647-.281,1.27,1.27,0,0,1-.264-.734c-.063-.47-.129-.94-.192-1.41,2.261.033,5.192.069,7.423.1-.06.437-.12.875-.18,1.309a1.269,1.269,0,0,1-.264.734,1.243,1.243,0,0,1-.647.281c-.871.195-1.74.392-2.614.59-.871-.2-1.746-.4-2.617-.59m-.266-39.232a1.226,1.226,0,0,1,.015.958,1.208,1.208,0,0,1-.563.419q-.912.431-1.824.859a8.8,8.8,0,0,1,1.722.9,3.863,3.863,0,0,1,1.614,2.183,5.819,5.819,0,0,1-.452,3.15q-2.938,8.588-5.878,17.173c.012,3.315.039,6.719.087,10.166.15,10.876.515,22.2,1.219,32.645q6.912.193,13.825-.081,1.387-.054,2.776-.126c-1.1-9.9-4.818-30.839-5.327-38.525a78.245,78.245,0,0,1,.081-10.6c.255-3.617.695-7.228,1.195-10.83a80.25,80.25,0,0,1,.665,13.957,60.286,60.286,0,0,1,7.564,28.851l.024.171,1.392-.207q2.776-.413,5.549-.823c.1-.015.195-.03.293-.042l0-.015q-.633-10.074-1.9-20.1a.009.009,0,0,0,0-.006c-2.44-7.36-6.39-17.568-8.9-23.916a15.448,15.448,0,0,0-8.66-8.666q-2.911-1.163-5.887-2.126.683,2.313,1.369,4.623" transform="translate(-333.97 -155.945)" fill="none"/>
    </clipPath>
    <linearGradient id="linear-gradient-2" x1="-0.626" y1="4.333" x2="-0.624" y2="4.333" xlink:href="#linear-gradient"/>
    <clipPath id="clip-path-5">
      <path id="Trazado_108261" data-name="Trazado 108261" d="M13.012,211.539a.473.473,0,0,1-.085.082.527.527,0,0,0,.085-.082M2.129,204.977a.827.827,0,0,0-.425.716.9.9,0,0,0,.4.737,1.841,1.841,0,0,0,.767.243c.842.141,1.743.362,2.587.506l-3.863-.072a2.377,2.377,0,0,0-1.078.15.875.875,0,0,0-.512.72v.015a.569.569,0,0,0,.021.147.809.809,0,0,0,.5.5,1.6,1.6,0,0,0,.243.069.788.788,0,0,0-.527.862,1.235,1.235,0,0,0,.686.874,3.3,3.3,0,0,0,1.114.294c1.018.132,2.045.189,3.072.225v.033a13.036,13.036,0,0,0-2.821.3,1.622,1.622,0,0,0-.713.3.642.642,0,0,0-.234.692.863.863,0,0,0,.644.44,7.377,7.377,0,0,0,1.88.147,8.831,8.831,0,0,1,1.6.086c1.482.264,2.755,1.273,4.24,1.539a8.652,8.652,0,0,0,1.661.088c.208,0,.416,0,.624,0s.408.013.611.032l.474-3.161a.415.415,0,0,0,.05-.332.308.308,0,0,0-.467-.156l.009.066a2.613,2.613,0,0,1-2.132-.874A6.43,6.43,0,0,0,8.591,208.6c-.47-.176-.991-.2-1.44-.413s-.823-.757-.6-1.206c.234-.476.9-.482,1.425-.419q1.855.22,3.71.446l.048-.108a21.974,21.974,0,0,0-2.066-.785,22.761,22.761,0,0,0-4.617-1l-.006.033a13.725,13.725,0,0,0-2.15-.272c-.067,0-.134-.006-.2-.006a1.2,1.2,0,0,0-.563.111" transform="translate(0 -204.866)" fill="none"/>
    </clipPath>
    <linearGradient id="linear-gradient-3" x1="-0.143" y1="11.063" x2="-0.123" y2="11.063" gradientUnits="objectBoundingBox">
      <stop offset="0" stop-color="#f2a68e"/>
      <stop offset="0.162" stop-color="#f2a68e"/>
      <stop offset="1" stop-color="#f6bb96"/>
    </linearGradient>
    <clipPath id="clip-path-7">
      <rect id="Rectángulo_7046" data-name="Rectángulo 7046" width="37.452" height="53.67" fill="none"/>
    </clipPath>
  </defs>
  <g id="Grupo_59540" data-name="Grupo 59540" transform="translate(4006 5471)">
    <g id="Grupo_59537" data-name="Grupo 59537" transform="translate(-3997.509 -5454.888)">
      <g id="Grupo_59526" data-name="Grupo 59526">
        <g id="Grupo_59525" data-name="Grupo 59525" clip-path="url(#clip-path)">
          <path id="Trazado_108243" data-name="Trazado 108243" d="M223.764,221.213q-1.734,1.419-3.467,2.839a40.188,40.188,0,0,1,5.375-14.3,75.934,75.934,0,0,0-2.1,9.827,7.714,7.714,0,0,0,.192,1.635" transform="translate(-174.935 -166.561)" fill="#ccc1e0"/>
          <path id="Trazado_108244" data-name="Trazado 108244" d="M256.367,357.147c-.066.47-.129.94-.192,1.41a1.25,1.25,0,0,1-.266.734,1.223,1.223,0,0,1-.644.281c-.871.195-1.746.392-2.617.59-.874-.2-1.743-.4-2.617-.59a1.244,1.244,0,0,1-.644-.281,1.229,1.229,0,0,1-.264-.734c-.06-.434-.12-.871-.18-1.309,2.231-.033,5.162-.069,7.423-.1" transform="translate(-197.683 -283.606)" fill="#ccc1e0"/>
        </g>
      </g>
      <g id="Grupo_59528" data-name="Grupo 59528" transform="translate(13.208 33.399)">
        <g id="Grupo_59527" data-name="Grupo 59527" clip-path="url(#clip-path-2)">
          <rect id="Rectángulo_7041" data-name="Rectángulo 7041" width="72.979" height="50.438" transform="translate(-2.221 71.445) rotate(-88.219)" fill="url(#linear-gradient)"/>
        </g>
      </g>
      <g id="Grupo_59530" data-name="Grupo 59530">
        <g id="Grupo_59529" data-name="Grupo 59529" clip-path="url(#clip-path)">
          <path id="Trazado_108246" data-name="Trazado 108246" d="M350.486,33.569a7.156,7.156,0,0,1-2.225.638c-.123-.323-.263-.638-.416-.949l-1.165-2.213a8.523,8.523,0,0,1,3.806,2.524" transform="translate(-275.294 -24.652)" fill="#231a3c"/>
          <path id="Trazado_108247" data-name="Trazado 108247" d="M272.973,154.606c.689,9.98.952,20.023.871,30.072q-2.915-8.529-5.836-17.059a5.792,5.792,0,0,1-.452-3.15,3.851,3.851,0,0,1,1.614-2.183,8.538,8.538,0,0,1,1.719-.9l-1.821-.862a.912.912,0,0,1-.551-1.377c.329-1.111.662-2.225.988-3.336a15.433,15.433,0,0,0,3.5-1.656c-.009.15-.021.3-.033.449" transform="translate(-212.397 -122.414)" fill="#ccc1e0"/>
          <path id="Trazado_108248" data-name="Trazado 108248" d="M392.2,877.543a13.02,13.02,0,0,0,.386,1.794v.03h-4.989a34.236,34.236,0,0,1-1.078-10.81l7.2-.234.012.4a23.035,23.035,0,0,0,7.716,6.513c.737.383,1.59.844,1.728,1.665a1.659,1.659,0,0,1-.668,1.509,3.583,3.583,0,0,1-1.587.644,12.23,12.23,0,0,1-5.653-.371,23.488,23.488,0,0,1-3.072-1.138" transform="translate(-306.885 -689.524)" fill="#402f6d"/>
          <path id="Trazado_108249" data-name="Trazado 108249" d="M203.179,880.309a5.188,5.188,0,0,0-.47-2.911,10.066,10.066,0,0,0-1.237.458A29.317,29.317,0,0,1,191,880.3a3.788,3.788,0,0,1-1.524-.192,1.444,1.444,0,0,1-.943-1.129,1.49,1.49,0,0,1,.587-1.21,4.89,4.89,0,0,1,1.225-.665,25.893,25.893,0,0,0,9.69-7.372l8.432-.06a19.3,19.3,0,0,1,.051,10.633v.132h-5.342Z" transform="translate(-149.712 -690.599)" fill="#402f6d"/>
          <path id="Trazado_108250" data-name="Trazado 108250" d="M262.63,384.949q6.913.193,13.825-.081c.653,24.554,1.15,49,4.165,73.652l-1.228.039-7.2.233-1.018.033-12.544-66.358-5.785,66.358-1.527.012-8.432.06-.293,0q1.195-37.1-.1-74.23l9.285,0c.979-10.636,1.683-21.347,2.018-32.069q3.809-.153,7.621-.3c.15,10.876.515,22.2,1.219,32.645" transform="translate(-192.556 -279.76)" fill="#402f6d"/>
          <path id="Trazado_108251" data-name="Trazado 108251" d="M283.722,9.554a12.136,12.136,0,0,1-2.057,12.316,10.342,10.342,0,0,0-2.114,2.851.8.8,0,0,0-.03.093l-1.288-1.351a10.961,10.961,0,0,1-2.1-2.731,3.243,3.243,0,0,0,1.539-.907,2.75,2.75,0,0,0,.548-2.881,2.279,2.279,0,0,0-2.536-1.309,3.121,3.121,0,0,0-1.767,1.491,3.194,3.194,0,0,0-1.042-1.683,7.792,7.792,0,0,0-2.144-1.221,12.334,12.334,0,0,1-2.216-1.1,6.883,6.883,0,0,1-2.21-2.737,13.738,13.738,0,0,1-.9-2.653,10.9,10.9,0,0,1,4.656-3.964,11.144,11.144,0,0,1,9.678.5,3.1,3.1,0,0,1,.219-1.887A3.969,3.969,0,0,1,281.7.556,4.775,4.775,0,0,1,286.15.541a4.767,4.767,0,0,1,2.458,3.7,4.765,4.765,0,0,1-1.74,4.09,4.859,4.859,0,0,1-.922.581,8.522,8.522,0,0,0-3.806-2.524l1.165,2.213c.153.311.293.626.416.949" transform="translate(-210.755 0.001)" fill="#402f6d"/>
          <path id="Trazado_108252" data-name="Trazado 108252" d="M336.949,158.648a8.809,8.809,0,0,1,1.722.9,3.865,3.865,0,0,1,1.614,2.183,5.821,5.821,0,0,1-.452,3.15q-2.938,8.588-5.878,17.173c-.036-12.43.171-23.626.4-31.345q1.81.5,3.6,1.078.683,2.313,1.368,4.623a1.226,1.226,0,0,1,.015.958,1.209,1.209,0,0,1-.563.419q-.912.431-1.824.859" transform="translate(-265.186 -119.677)" fill="#ccc1e0"/>
          <path id="Trazado_108253" data-name="Trazado 108253" d="M396.648,218.679a80.258,80.258,0,0,1,.665,13.957c-.584-1.06-1.207-2.1-1.859-3.126.255-3.617.695-7.228,1.195-10.831" transform="translate(-314.024 -173.65)" fill="#ccc1e0"/>
          <path id="Trazado_108254" data-name="Trazado 108254" d="M448.959,444.966c-.069.162-.147.317-.231.473-.195.359-.563.748-.946.6-.365-.135-.41-.623-.386-1.012.1-1.44.329-2.872.329-4.318a7.725,7.725,0,0,0-.925-3.97,1.7,1.7,0,0,0-.5,1.024,8.874,8.874,0,0,0,.036,1.569,1.91,1.91,0,0,1-.12.85.842.842,0,0,1-.641.521.878.878,0,0,1-.814-.491,2.371,2.371,0,0,1-.219-.979,32.492,32.492,0,0,1,.416-7.04q3.162-.243,6.309-.7a22.861,22.861,0,0,1,.689,4.65,11.674,11.674,0,0,1-1.482,6.366,8,8,0,0,1-1.512,2.449" transform="translate(-352.959 -342.649)" fill="#f6bb96"/>
          <path id="Trazado_108255" data-name="Trazado 108255" d="M452.593,422.4c.174.623.338,1.246.488,1.875q-3.144.454-6.309.7c.084-.584.177-1.168.272-1.749q2.776-.414,5.549-.824" transform="translate(-354.776 -335.419)" fill="#f2a68e"/>
          <path id="Trazado_108256" data-name="Trazado 108256" d="M297.651,133.115a15.648,15.648,0,0,1-2.842,2.509q.04-1.006.042-2.012c.94-.12,1.875-.3,2.8-.5" transform="translate(-234.104 -105.705)" fill="#f2a68e"/>
          <path id="Trazado_108257" data-name="Trazado 108257" d="M264.23,50.547a10.962,10.962,0,0,0,2.1,2.731l1.288,1.351c-.539,1.587-.063,4.225.225,5.495-.922-.009-1.851-.015-2.776-.021a1.365,1.365,0,0,0-.614.09c-.494.24-.85,1.695-.883,1.83-.036-.135-.392-1.59-.886-1.83a1.378,1.378,0,0,0-.617-.09c-.839.006-1.683.009-2.524.018.006-.129.012-.257.015-.386a15.641,15.641,0,0,0,2.842-2.509c-.925.2-1.86.377-2.8.5a16.069,16.069,0,0,1-3.434.108,4.254,4.254,0,0,1-2.366-.782,4.356,4.356,0,0,1-1.285-2.922,12.259,12.259,0,0,0-.524-3.036,1.924,1.924,0,0,1-.829.1.828.828,0,0,1-.746-.707,1.418,1.418,0,0,1,.353-.79,6.277,6.277,0,0,0,.91-3.345c.042-1.171-.075-2.342,0-3.512a10.8,10.8,0,0,1,1.824-5.294,13.725,13.725,0,0,0,.9,2.653,6.885,6.885,0,0,0,2.21,2.737,12.332,12.332,0,0,0,2.216,1.1,7.784,7.784,0,0,1,2.144,1.222,3.193,3.193,0,0,1,1.042,1.683,3.119,3.119,0,0,1,1.767-1.491,2.279,2.279,0,0,1,2.536,1.308,2.751,2.751,0,0,1-.548,2.881,3.243,3.243,0,0,1-1.539.907" transform="translate(-198.848 -29.814)" fill="#f6bb96"/>
          <path id="Trazado_108258" data-name="Trazado 108258" d="M363.395,357.25l-.18,1.309a1.271,1.271,0,0,1-.264.734,1.244,1.244,0,0,1-.647.281c-.871.195-1.74.392-2.614.59-.871-.2-1.746-.4-2.617-.59a1.245,1.245,0,0,1-.647-.281,1.271,1.271,0,0,1-.264-.734c-.063-.47-.129-.94-.191-1.41,2.261.033,5.192.069,7.423.1" transform="translate(-282.673 -283.607)" fill="#ccc1e0"/>
          <path id="Trazado_108259" data-name="Trazado 108259" d="M302.6,147.107c.1.446.177.725.177.725-.228,7.719-.434,18.915-.4,31.345.012,3.315.039,6.719.087,10.166q-3.809.153-7.621.3.171-5.287.213-10.579c.081-10.049-.183-20.092-.871-30.072.012-.15.024-.3.033-.449q.049-.719.081-1.437c.841-.009,1.686-.012,2.524-.018a1.378,1.378,0,0,1,.617.09c.494.24.85,1.695.886,1.83.033-.135.389-1.59.883-1.83a1.365,1.365,0,0,1,.614-.09c.925.006,1.853.012,2.776.021" transform="translate(-233.607 -116.799)" fill="#7a5ca2"/>
        </g>
      </g>
      <g id="Grupo_59532" data-name="Grupo 59532" transform="translate(68.769 32.111)">
        <g id="Grupo_59531" data-name="Grupo 59531" clip-path="url(#clip-path-4)">
          <rect id="Rectángulo_7043" data-name="Rectángulo 7043" width="74.083" height="31.602" transform="matrix(0.031, -1, 1, 0.031, -2.274, 73.136)" fill="url(#linear-gradient-2)"/>
        </g>
      </g>
      <g id="Grupo_59534" data-name="Grupo 59534" transform="translate(0 42.185)">
        <g id="Grupo_59533" data-name="Grupo 59533" clip-path="url(#clip-path-5)">
          <rect id="Rectángulo_7044" data-name="Rectángulo 7044" width="10.23" height="13.517" transform="translate(-0.366 9.729) rotate(-87.847)" fill="url(#linear-gradient-3)"/>
        </g>
      </g>
      <g id="Grupo_59536" data-name="Grupo 59536">
        <g id="Grupo_59535" data-name="Grupo 59535" clip-path="url(#clip-path)">
          <path id="Trazado_108262" data-name="Trazado 108262" d="M41.069,215.865c-.231-.165-.458-.326-.686-.491l.033-.045a22.885,22.885,0,0,0-3.683-2.018l-.048.108q-1.855-.225-3.71-.446c-.527-.063-1.192-.057-1.425.419-.222.449.15.991.6,1.207s.97.237,1.44.413a6.429,6.429,0,0,1,1.943,1.554,2.613,2.613,0,0,0,2.132.874l-.009-.066a.308.308,0,0,1,.467.156.414.414,0,0,1-.05.333l-.473,3.161a3.853,3.853,0,0,1,1.26.312q1.1-2.735,2.207-5.471" transform="translate(-25.001 -169.096)" fill="#f6bb96"/>
        </g>
      </g>
    </g>
    <g id="Grupo_59539" data-name="Grupo 59539" transform="translate(-4006 -5471)">
      <g id="Grupo_59538" data-name="Grupo 59538" clip-path="url(#clip-path-7)">
        <path id="Trazado_108263" data-name="Trazado 108263" d="M0,33.221C0,21.927,18.726,0,18.726,0S37.452,21.927,37.452,33.221,29.068,53.67,18.726,53.67,0,44.514,0,33.221" fill="#83a9ff"/>
        <path id="Trazado_108264" data-name="Trazado 108264" d="M33.815,189.946a7.749,7.749,0,0,1-.367-3.142c.219-4.947,4.786-7.617,8.423-4.255A13.688,13.688,0,0,1,44.379,186c1.41,3.427.808,6.518-2.33,7.809a6.445,6.445,0,0,1-8.234-3.868" transform="translate(-27.712 -150.071)" fill="#ccdcff"/>
      </g>
    </g>
  </g>
</svg>
