<svg xmlns="http://www.w3.org/2000/svg" xmlns:xlink="http://www.w3.org/1999/xlink" width="111" height="111" viewBox="0 0 111 111">
  <defs>
    <clipPath id="clip-path">
      <rect id="Rectángulo_295266" data-name="Rectángulo 295266" width="56.529" height="63.093" fill="none"/>
    </clipPath>
  </defs>
  <g id="Grupo_904051" data-name="Grupo 904051" transform="translate(-1158 -5789)">
    <circle id="Elipse_5448" data-name="Elipse 5448" cx="55.5" cy="55.5" r="55.5" transform="translate(1158 5789)" fill="#fff"/>
    <g id="Grupo_881600" data-name="Grupo 881600" transform="translate(1185.235 5813)">
      <g id="Grupo_881600-2" data-name="Grupo 881600" transform="translate(0)" clip-path="url(#clip-path)">
        <path id="Trazado_231070" data-name="Trazado 231070" d="M31.859,63.615a17.232,17.232,0,0,0,6.843-2.48A17.562,17.562,0,0,0,46.993,48.47c.251-1.63-.122-1.587,1.818-1.585,1.684,0,3.368.015,5.051,0a3.545,3.545,0,0,0,3.485-2.523,3.664,3.664,0,0,0,.118-1.036q0-13.645,0-27.29a3.424,3.424,0,0,0-2.56-3.366c-.808-.227-.881-.312-.885-1.149-.008-1.437-.051-2.877.011-4.312a2.32,2.32,0,0,0-2.581-2.612c-9.465.047-18.931.009-28.4.042a1.727,1.727,0,0,1-1.893-1.152,3.817,3.817,0,0,0-3.941-2.456c-4.065.047-8.131.009-12.2.017a3.538,3.538,0,0,0-3.5,2.5A3.527,3.527,0,0,0,1.4,4.579q0,19.343,0,38.687a3.456,3.456,0,0,0,3.542,3.612c1.889.032,3.778,0,5.667.009,1.032,0,1.059,0,1.181,1.036a17.828,17.828,0,0,0,14.792,15.62c.349.064.8-.05,1,.408h3.573c.094-.4.451-.3.7-.336M23.5,6.378q13.915-.005,27.83,0c.9,0,.9,0,.9.873,0,1.5-.014,3,.009,4.495.007.432-.072.605-.562.6q-12.776-.023-25.551-.009c-.322,0-.585-.015-.75-.375-.814-1.768-1.652-3.526-2.479-5.288a1.625,1.625,0,0,1-.069-.229,1.286,1.286,0,0,1,.676-.068M11.727,43.2a13.093,13.093,0,0,0-.155,1.466c-.016.294-.079.443-.419.441-2.115-.014-4.23.011-6.345-.019A1.7,1.7,0,0,1,3.157,43.3c-.015-2.3-.007-4.6-.007-6.9q0-6.222,0-12.444c0-6.3.032-12.609-.022-18.912A2.012,2.012,0,0,1,5.384,2.809c4.044.058,8.09.032,12.134.014a1.922,1.922,0,0,1,1.943,1.208c1.3,2.808,2.67,5.588,3.938,8.412a2.861,2.861,0,0,0,2.962,1.882c9.034-.044,18.069-.022,27.1-.022a3.154,3.154,0,0,1,1.035.107,1.69,1.69,0,0,1,1.2,1.548c.009.123.011.246.011.369q0,13.4,0,26.8A1.768,1.768,0,0,1,53.734,45.1c-1.971,0-3.942-.01-5.913.01-.4,0-.5-.126-.534-.518a17.5,17.5,0,0,0-4.453-10.445,17.325,17.325,0,0,0-10.926-5.871A17.974,17.974,0,0,0,11.727,43.2M29.461,61.979A15.958,15.958,0,1,1,45.37,46.024,15.95,15.95,0,0,1,29.461,61.979" transform="translate(-1.168 -0.858)" fill="#0056d4"/>
        <path id="Trazado_231071" data-name="Trazado 231071" d="M46.112,46.717c.033-.462.206-.517.595-.513,1.766.017,3.532.01,5.3.006a8.143,8.143,0,0,0,1.351-.049A3.678,3.678,0,0,0,56.521,42.3c.012-4.97,0-9.94,0-14.91,0-4,.008-8.009-.005-12.014a3.623,3.623,0,0,0-3.066-3.805c-.371-.079-.44-.245-.436-.583.015-1.561.008-3.121.007-4.682,0-1.939-.829-2.766-2.773-2.766-9.384,0-18.769-.021-28.153.028a1.854,1.854,0,0,1-2.1-1.3A3.511,3.511,0,0,0,16.458,0Q10.205,0,3.952,0A3.7,3.7,0,0,0,.006,3.924q-.012,19.192,0,38.384a3.7,3.7,0,0,0,3.966,3.9c1.91,0,3.82.015,5.729-.01.492-.006.747.053.727.644a6.436,6.436,0,0,0,.211,1.518c1.5,7.082,5.716,11.724,12.571,14,1.046.347,2.156.4,3.2.73-.2-.458-.652-.344-1-.408a17.828,17.828,0,0,1-14.792-15.62c-.122-1.031-.15-1.034-1.182-1.036-1.889,0-3.778.023-5.667-.009A3.456,3.456,0,0,1,.232,42.408q0-19.343,0-38.687A3.536,3.536,0,0,1,.352,2.686a3.538,3.538,0,0,1,3.5-2.5c4.065-.008,8.131.03,12.2-.017A3.817,3.817,0,0,1,19.99,2.626a1.728,1.728,0,0,0,1.893,1.152c9.465-.033,18.931,0,28.4-.042A2.32,2.32,0,0,1,52.86,6.348c-.062,1.435-.019,2.874-.011,4.312,0,.837.077.922.885,1.149a3.424,3.424,0,0,1,2.56,3.366q.007,13.645,0,27.29a3.67,3.67,0,0,1-.118,1.036,3.545,3.545,0,0,1-3.485,2.523c-1.683.019-3.367.006-5.051,0-1.94,0-1.567-.045-1.818,1.585a17.562,17.562,0,0,1-8.292,12.665,17.232,17.232,0,0,1-6.843,2.48c-.251.037-.608-.062-.7.336a2.511,2.511,0,0,1,1.114-.226,17.976,17.976,0,0,0,15.009-16.15" transform="translate(0 0)" fill="#0056d4"/>
        <path id="Trazado_231072" data-name="Trazado 231072" d="M26.453,41.546A17.426,17.426,0,0,1,40.68,37.307a17.326,17.326,0,0,1,10.926,5.872A17.5,17.5,0,0,1,56.06,53.624c.032.392.13.522.534.518,1.971-.019,3.942-.006,5.913-.01a1.768,1.768,0,0,0,1.978-1.972q.007-13.4,0-26.8c0-.123,0-.247-.011-.369a1.691,1.691,0,0,0-1.2-1.548,3.154,3.154,0,0,0-1.035-.107c-9.035,0-18.069-.022-27.1.022a2.861,2.861,0,0,1-2.962-1.882c-1.268-2.824-2.633-5.6-3.938-8.412a1.922,1.922,0,0,0-1.943-1.207c-4.045.018-8.09.044-12.135-.014A2.012,2.012,0,0,0,11.9,14.076c.054,6.3.022,12.608.022,18.912q0,6.222,0,12.444c0,2.3-.008,4.6.007,6.9A1.7,1.7,0,0,0,13.58,54.12c2.114.03,4.23,0,6.344.019.341,0,.4-.147.419-.44a13.126,13.126,0,0,1,.155-1.466,17.566,17.566,0,0,1,5.954-10.687" transform="translate(-9.94 -9.894)" fill="#94ecfe"/>
        <path id="Trazado_231073" data-name="Trazado 231073" d="M106.723,193.312a15.938,15.938,0,1,0-15.909,15.954,15.926,15.926,0,0,0,15.909-15.954M90.754,203.993a10.686,10.686,0,1,1,10.741-10.7,10.685,10.685,0,0,1-10.741,10.7" transform="translate(-62.521 -148.145)" fill="#fefefe"/>
        <path id="Trazado_231074" data-name="Trazado 231074" d="M134.035,39.04c.166.36.429.376.75.375q12.776-.005,25.552.009c.49,0,.569-.172.562-.6-.023-1.5-.009-3-.009-4.5,0-.871,0-.873-.9-.873q-13.915,0-27.83,0a1.285,1.285,0,0,0-.676.068,1.615,1.615,0,0,0,.069.229c.827,1.762,1.665,3.52,2.479,5.288" transform="translate(-109.834 -27.935)" fill="#94ecfe"/>
        <path id="Trazado_231075" data-name="Trazado 231075" d="M117.431,209.357a10.686,10.686,0,1,0,10.586,10.672,10.689,10.689,0,0,0-10.586-10.672m-.144,19.4a8.711,8.711,0,1,1,8.758-8.692,8.719,8.719,0,0,1-8.758,8.692" transform="translate(-89.044 -174.881)" fill="#0056d4"/>
        <path id="Trazado_231076" data-name="Trazado 231076" d="M127.318,221.357a8.711,8.711,0,1,0,8.719,8.731,8.709,8.709,0,0,0-8.719-8.731m.568,9.512c-1.093,1.083-2.176,2.178-3.27,3.261-.526.521-1.081.551-1.509.106a1.028,1.028,0,0,1,.159-1.515c.9-.9,1.789-1.81,2.7-2.695a1.08,1.08,0,0,0,.351-.864c-.015-1.826-.009-3.653-.006-5.48,0-.811.328-1.214.975-1.219s.992.4.995,1.2c0,1.047,0,2.094,0,3.14,0,1.026-.009,2.053,0,3.078a1.284,1.284,0,0,1-.4.988" transform="translate(-99.035 -184.904)" fill="#94ecfe"/>
        <path id="Trazado_231077" data-name="Trazado 231077" d="M150.006,232.414c0-1.047,0-2.093,0-3.14,0-.8-.344-1.2-.994-1.2s-.974.408-.975,1.219c0,1.827-.009,3.653.006,5.48a1.08,1.08,0,0,1-.351.864c-.914.885-1.807,1.791-2.7,2.695a1.029,1.029,0,0,0-.159,1.516c.428.445.983.415,1.509-.106,1.094-1.083,2.176-2.178,3.27-3.261a1.285,1.285,0,0,0,.4-.989c-.014-1.026,0-2.052,0-3.078" transform="translate(-120.757 -190.516)" fill="#0056d4"/>
      </g>
    </g>
  </g>
</svg>
