<svg xmlns="http://www.w3.org/2000/svg" width="22.768" height="20.628" viewBox="0 0 22.768 20.628">
  <path id="Trazado_231035" data-name="Trazado 231035" d="M503.727,211.83l-4.96,4.96a2.2,2.2,0,0,1-3.11,0h0a2.2,2.2,0,0,1,0-3.11l2.708-2.708a2.2,2.2,0,0,0,0-3.11l-.219-.219a2.2,2.2,0,0,0-3.11,0l-9.46,9.321a2.2,2.2,0,0,0,0,3.11l.218.219a2.2,2.2,0,0,0,3.11,0l1.551-1.551a2.2,2.2,0,0,1,3.11,0h0a2.2,2.2,0,0,1,0,3.11l-1.8,1.8a2.2,2.2,0,0,0,0,3.11l.219.219a2.2,2.2,0,0,0,3.11,0l11.964-11.824a2.2,2.2,0,0,0,0-3.11l-.219-.219A2.2,2.2,0,0,0,503.727,211.83Z" transform="translate(-484.932 -207)" fill="#fff"/>
</svg>
