<svg id="Grupo_59637" data-name="Grupo 59637" xmlns="http://www.w3.org/2000/svg" xmlns:xlink="http://www.w3.org/1999/xlink" width="258.491" height="199.506" viewBox="0 0 258.491 199.506">
  <defs>
    <clipPath id="clip-path">
      <rect id="Rectángulo_7084" data-name="Rectángulo 7084" width="258.491" height="199.507" fill="none"/>
    </clipPath>
    <clipPath id="clip-path-2">
      <rect id="Rectángulo_7083" data-name="Rectángulo 7083" width="258.491" height="199.506" fill="none"/>
    </clipPath>
    <clipPath id="clip-path-3">
      <rect id="Rectángulo_7047" data-name="Rectángulo 7047" width="230.17" height="92.57" fill="none"/>
    </clipPath>
    <clipPath id="clip-path-4">
      <rect id="Rectángulo_7055" data-name="Rectángulo 7055" width="157.635" height="179.473" fill="none"/>
    </clipPath>
    <clipPath id="clip-path-5">
      <rect id="Rectángulo_7048" data-name="Rectángulo 7048" width="157.635" height="78.206" fill="none"/>
    </clipPath>
    <clipPath id="clip-path-6">
      <rect id="Rectángulo_7049" data-name="Rectángulo 7049" width="148.146" height="74.893" fill="none"/>
    </clipPath>
    <clipPath id="clip-path-7">
      <rect id="Rectángulo_7050" data-name="Rectángulo 7050" width="138.657" height="71.582" fill="none"/>
    </clipPath>
    <clipPath id="clip-path-8">
      <rect id="Rectángulo_7051" data-name="Rectángulo 7051" width="129.168" height="68.268" fill="none"/>
    </clipPath>
    <clipPath id="clip-path-9">
      <rect id="Rectángulo_7052" data-name="Rectángulo 7052" width="119.679" height="64.955" fill="none"/>
    </clipPath>
    <clipPath id="clip-path-10">
      <rect id="Rectángulo_7053" data-name="Rectángulo 7053" width="110.189" height="61.645" fill="none"/>
    </clipPath>
    <clipPath id="clip-path-11">
      <rect id="Rectángulo_7054" data-name="Rectángulo 7054" width="100.7" height="58.332" fill="none"/>
    </clipPath>
    <clipPath id="clip-path-12">
      <rect id="Rectángulo_7074" data-name="Rectángulo 7074" width="55.408" height="55.401" fill="none"/>
    </clipPath>
    <clipPath id="clip-path-15">
      <rect id="Rectángulo_7064" data-name="Rectángulo 7064" width="46.764" height="46.756" fill="none"/>
    </clipPath>
    <clipPath id="clip-path-17">
      <rect id="Rectángulo_7066" data-name="Rectángulo 7066" width="38.119" height="38.114" fill="none"/>
    </clipPath>
    <clipPath id="clip-path-19">
      <rect id="Rectángulo_7068" data-name="Rectángulo 7068" width="29.474" height="29.469" fill="none"/>
    </clipPath>
    <clipPath id="clip-path-21">
      <rect id="Rectángulo_7070" data-name="Rectángulo 7070" width="20.83" height="20.825" fill="none"/>
    </clipPath>
    <clipPath id="clip-path-23">
      <rect id="Rectángulo_7072" data-name="Rectángulo 7072" width="12.184" height="12.182" fill="none"/>
    </clipPath>
    <clipPath id="clip-path-25">
      <rect id="Rectángulo_7073" data-name="Rectángulo 7073" width="3.54" height="3.538" fill="none"/>
    </clipPath>
    <clipPath id="clip-path-26">
      <rect id="Rectángulo_7082" data-name="Rectángulo 7082" width="98.162" height="98.375" fill="none"/>
    </clipPath>
    <clipPath id="clip-path-27">
      <rect id="Rectángulo_7075" data-name="Rectángulo 7075" width="98.162" height="48.701" fill="none"/>
    </clipPath>
    <clipPath id="clip-path-28">
      <rect id="Rectángulo_7076" data-name="Rectángulo 7076" width="91.811" height="46.379" fill="none"/>
    </clipPath>
    <clipPath id="clip-path-29">
      <rect id="Rectángulo_7077" data-name="Rectángulo 7077" width="85.458" height="44.06" fill="none"/>
    </clipPath>
    <clipPath id="clip-path-30">
      <rect id="Rectángulo_7078" data-name="Rectángulo 7078" width="79.105" height="41.738" fill="none"/>
    </clipPath>
    <clipPath id="clip-path-31">
      <rect id="Rectángulo_7079" data-name="Rectángulo 7079" width="72.751" height="39.419" fill="none"/>
    </clipPath>
    <clipPath id="clip-path-32">
      <rect id="Rectángulo_7080" data-name="Rectángulo 7080" width="66.398" height="37.097" fill="none"/>
    </clipPath>
    <clipPath id="clip-path-33">
      <rect id="Rectángulo_7081" data-name="Rectángulo 7081" width="60.047" height="34.778" fill="none"/>
    </clipPath>
  </defs>
  <g id="Grupo_59636" data-name="Grupo 59636" clip-path="url(#clip-path)">
    <g id="Grupo_59635" data-name="Grupo 59635" transform="translate(0 0)">
      <g id="Grupo_59634" data-name="Grupo 59634" clip-path="url(#clip-path-2)">
        <g id="Grupo_59543" data-name="Grupo 59543" transform="translate(25.656 106.936)" opacity="0.1">
          <g id="Grupo_59542" data-name="Grupo 59542">
            <g id="Grupo_59541" data-name="Grupo 59541" clip-path="url(#clip-path-3)">
              <path id="Trazado_108265" data-name="Trazado 108265" d="M230.927,94.2c-15.767-9.1-41.24-9.1-56.9,0-.658.384-1.247.788-1.848,1.188-1.466-10.631-9.228-21.036-23.309-29.167-31.314-18.077-81.909-18.077-113.014,0s-30.938,47.383.37,65.456,81.9,18.073,113.01,0A56.409,56.409,0,0,0,164.9,118.74a26.631,26.631,0,0,0,9.311,8.413c15.765,9.1,41.24,9.1,56.9,0s15.578-23.857-.185-32.957" transform="translate(-12.635 -52.659)"/>
            </g>
          </g>
        </g>
        <g id="Grupo_59567" data-name="Grupo 59567" transform="translate(0 0)" opacity="0.4">
          <g id="Grupo_59566" data-name="Grupo 59566" transform="translate(0 0)">
            <g id="Grupo_59565" data-name="Grupo 59565" clip-path="url(#clip-path-4)">
              <g id="Grupo_59546" data-name="Grupo 59546" opacity="0">
                <g id="Grupo_59545" data-name="Grupo 59545">
                  <g id="Grupo_59544" data-name="Grupo 59544" clip-path="url(#clip-path-5)">
                    <path id="Trazado_108266" data-name="Trazado 108266" d="M23.271,66.744c30.881,15.283,80.776,15.283,111.458,0,30.682-15.257,30.522-40.013-.368-55.288s-80.776-15.273-111.456,0-30.514,40.032.366,55.288" transform="translate(0 0)" fill="#fcfdfd"/>
                  </g>
                </g>
              </g>
              <g id="Grupo_59549" data-name="Grupo 59549" transform="translate(4.745 20.191)" opacity="0.167">
                <g id="Grupo_59548" data-name="Grupo 59548">
                  <g id="Grupo_59547" data-name="Grupo 59547" clip-path="url(#clip-path-6)">
                    <path id="Trazado_108267" data-name="Trazado 108267" d="M24.207,73.858c29.019,14.635,75.915,14.635,104.749,0,28.834-14.611,28.686-38.318-.345-52.947s-75.917-14.625-104.747,0-28.68,38.336.343,52.947" transform="translate(-2.338 -9.943)" fill="#fdfdfd"/>
                  </g>
                </g>
              </g>
              <g id="Grupo_59552" data-name="Grupo 59552" transform="translate(9.49 40.38)" opacity="0.333">
                <g id="Grupo_59551" data-name="Grupo 59551">
                  <g id="Grupo_59550" data-name="Grupo 59550" clip-path="url(#clip-path-7)">
                    <path id="Trazado_108268" data-name="Trazado 108268" d="M25.142,80.978c27.161,13.986,71.053,13.986,98.039,0s26.848-36.626-.321-50.61-71.057-13.979-98.039,0-26.842,36.638.321,50.61" transform="translate(-4.673 -19.885)" fill="#fdfefe"/>
                  </g>
                </g>
              </g>
              <g id="Grupo_59555" data-name="Grupo 59555" transform="translate(14.236 60.571)" opacity="0.5">
                <g id="Grupo_59554" data-name="Grupo 59554">
                  <g id="Grupo_59553" data-name="Grupo 59553" clip-path="url(#clip-path-8)">
                    <path id="Trazado_108269" data-name="Trazado 108269" d="M26.078,88.095c25.3,13.334,66.189,13.334,91.332,0s25.01-34.93-.3-48.27-66.2-13.33-91.332,0-25.006,34.945.3,48.27" transform="translate(-7.01 -29.827)" fill="#fefefe"/>
                  </g>
                </g>
              </g>
              <g id="Grupo_59558" data-name="Grupo 59558" transform="translate(18.981 80.761)" opacity="0.667">
                <g id="Grupo_59557" data-name="Grupo 59557">
                  <g id="Grupo_59556" data-name="Grupo 59556" clip-path="url(#clip-path-9)">
                    <path id="Trazado_108270" data-name="Trazado 108270" d="M27.014,95.211c23.439,12.686,61.328,12.686,84.622,0s23.175-33.235-.278-45.929-61.338-12.682-84.622,0-23.171,33.247.278,45.929" transform="translate(-9.347 -39.769)" fill="#fefefe"/>
                  </g>
                </g>
              </g>
              <g id="Grupo_59561" data-name="Grupo 59561" transform="translate(23.726 100.951)" opacity="0.833">
                <g id="Grupo_59560" data-name="Grupo 59560">
                  <g id="Grupo_59559" data-name="Grupo 59559" clip-path="url(#clip-path-10)">
                    <path id="Trazado_108271" data-name="Trazado 108271" d="M27.949,102.33c21.578,12.036,56.466,12.036,77.913,0s21.337-31.543-.256-43.591-56.476-12.036-77.913,0-21.335,31.549.256,43.591" transform="translate(-11.684 -49.711)" fill="#fff"/>
                  </g>
                </g>
              </g>
              <g id="Grupo_59564" data-name="Grupo 59564" transform="translate(28.471 121.141)">
                <g id="Grupo_59563" data-name="Grupo 59563">
                  <g id="Grupo_59562" data-name="Grupo 59562" clip-path="url(#clip-path-11)">
                    <path id="Trazado_108272" data-name="Trazado 108272" d="M28.885,109.446c19.718,11.386,51.6,11.386,71.2,0s19.5-29.848-.234-41.252c-19.72-11.386-51.617-11.386-71.2,0-19.594,11.4-19.5,29.856.234,41.252" transform="translate(-14.021 -59.655)" fill="#fff"/>
                  </g>
                </g>
              </g>
            </g>
          </g>
        </g>
        <path id="Trazado_108273" data-name="Trazado 108273" d="M71.759,71.4c11.861,6.848,11.924,17.95.138,24.8s-30.946,6.844-42.808,0-11.918-17.948-.14-24.791,30.954-6.85,42.81,0" transform="translate(20.775 68.307)" fill="#b5dbdc"/>
        <path id="Trazado_108274" data-name="Trazado 108274" d="M71.759,70.383c11.861,6.848,11.924,17.952.138,24.8s-30.946,6.846-42.808,0-11.918-17.95-.14-24.793,30.954-6.85,42.81,0" transform="translate(20.775 67.253)" fill="#5abce5"/>
        <path id="Trazado_108275" data-name="Trazado 108275" d="M71.759,42.472c11.861,6.848,11.924,17.952.138,24.8s-30.946,6.844-42.808,0-11.918-17.95-.14-24.793,30.954-6.848,42.81,0" transform="translate(20.775 38.487)" fill="#5abce5"/>
        <rect id="Rectángulo_7056" data-name="Rectángulo 7056" width="60.331" height="83.207" transform="translate(40.931 68.907)" fill="#5abce5"/>
        <path id="Trazado_108276" data-name="Trazado 108276" d="M71.759,57.093c11.861,6.848,11.924,17.952.138,24.8s-30.946,6.846-42.808,0S17.171,63.94,28.949,57.1s30.954-6.848,42.81,0" transform="translate(20.775 53.557)" fill="#b5dbdc"/>
        <path id="Trazado_108277" data-name="Trazado 108277" d="M71.759,56.07c11.861,6.848,11.924,17.952.138,24.8s-30.946,6.844-42.808,0-11.918-17.95-.14-24.793,30.954-6.848,42.81,0" transform="translate(20.775 52.502)" fill="#5abce5"/>
        <path id="Trazado_108278" data-name="Trazado 108278" d="M71.759,42.984c11.861,6.848,11.924,17.95.138,24.8s-30.946,6.844-42.808,0-11.918-17.948-.14-24.791,30.954-6.85,42.81,0" transform="translate(20.775 39.013)" fill="#b5dbdc"/>
        <path id="Trazado_108279" data-name="Trazado 108279" d="M71.759,41.962c11.861,6.848,11.924,17.952.138,24.8s-30.946,6.846-42.808,0-11.918-17.95-.14-24.793,30.954-6.85,42.81,0" transform="translate(20.775 37.959)" fill="#5abce5"/>
        <path id="Trazado_108280" data-name="Trazado 108280" d="M71.759,32.361c11.861,6.848,11.924,17.95.138,24.8s-30.946,6.844-42.808,0-11.918-17.948-.14-24.791,30.954-6.85,42.81,0" transform="translate(20.775 28.063)" fill="#b5dbdc"/>
        <path id="Trazado_108281" data-name="Trazado 108281" d="M71.759,31.339c11.861,6.848,11.924,17.952.138,24.8s-30.946,6.846-42.808,0-11.918-17.95-.14-24.793,30.954-6.85,42.81,0" transform="translate(20.775 27.01)" fill="#5abce5"/>
        <path id="Trazado_108282" data-name="Trazado 108282" d="M68.568,31.638c10.846,6.263,10.9,16.414.126,22.679s-28.3,6.259-39.146,0-10.9-16.412-.126-22.671,28.3-6.265,39.146,0" transform="translate(22.037 27.771)" fill="#298bed"/>
        <path id="Trazado_108283" data-name="Trazado 108283" d="M28.591,52.323c10.848,6.263,28.377,6.263,39.146,0a20.312,20.312,0,0,0,4.931-3.895c2.859-5.172.733-11.074-6.383-15.184-10.1-5.834-26.442-5.834-36.488,0-7.016,4.08-9.1,9.93-6.263,15.076a20.527,20.527,0,0,0,5.056,3.994" transform="translate(22.994 29.76)" fill="#0467d8"/>
        <path id="Trazado_108284" data-name="Trazado 108284" d="M105.509,61.028c11.861,6.848,11.924,17.95.14,24.8s-30.948,6.844-42.81,0S50.923,67.875,62.7,61.032s30.954-6.85,42.81,0" transform="translate(55.562 57.611)" fill="#b5dbdc"/>
        <path id="Trazado_108285" data-name="Trazado 108285" d="M105.509,60.006c11.861,6.848,11.924,17.952.14,24.8s-30.948,6.846-42.81,0S50.923,66.853,62.7,60.01s30.954-6.85,42.81,0" transform="translate(55.562 56.558)" fill="#5abce5"/>
        <path id="Trazado_108286" data-name="Trazado 108286" d="M105.509,32.095c11.861,6.848,11.924,17.952.14,24.8s-30.948,6.844-42.81,0S50.923,38.942,62.7,32.1s30.954-6.848,42.81,0" transform="translate(55.562 27.791)" fill="#5abce5"/>
        <rect id="Rectángulo_7057" data-name="Rectángulo 7057" width="60.331" height="83.207" transform="translate(109.468 47.834)" fill="#5abce5"/>
        <path id="Trazado_108287" data-name="Trazado 108287" d="M105.509,46.716c11.861,6.848,11.924,17.952.14,24.8s-30.948,6.846-42.81,0S50.923,53.563,62.7,46.72s30.954-6.848,42.81,0" transform="translate(55.562 42.861)" fill="#b5dbdc"/>
        <path id="Trazado_108288" data-name="Trazado 108288" d="M105.509,45.693c11.861,6.848,11.924,17.952.14,24.8s-30.948,6.844-42.81,0S50.923,52.54,62.7,45.7s30.954-6.848,42.81,0" transform="translate(55.562 41.807)" fill="#5abce5"/>
        <path id="Trazado_108289" data-name="Trazado 108289" d="M105.509,32.607c11.861,6.848,11.924,17.95.14,24.8s-30.948,6.844-42.81,0S50.923,39.454,62.7,32.611s30.954-6.85,42.81,0" transform="translate(55.562 28.317)" fill="#b5dbdc"/>
        <path id="Trazado_108290" data-name="Trazado 108290" d="M105.509,31.585c11.861,6.848,11.924,17.952.14,24.8s-30.948,6.846-42.81,0-11.916-17.95-.14-24.793,30.954-6.85,42.81,0" transform="translate(55.562 27.263)" fill="#5abce5"/>
        <path id="Trazado_108291" data-name="Trazado 108291" d="M105.509,21.984c11.861,6.848,11.924,17.95.14,24.8s-30.948,6.844-42.81,0S50.923,28.831,62.7,21.988s30.954-6.85,42.81,0" transform="translate(55.562 17.367)" fill="#b5dbdc"/>
        <path id="Trazado_108292" data-name="Trazado 108292" d="M105.509,20.962c11.861,6.848,11.924,17.952.14,24.8s-30.948,6.846-42.81,0-11.916-17.95-.14-24.793,30.954-6.85,42.81,0" transform="translate(55.562 16.314)" fill="#5abce5"/>
        <path id="Trazado_108293" data-name="Trazado 108293" d="M102.318,21.261c10.848,6.263,10.9,16.414.126,22.679s-28.3,6.259-39.146,0-10.9-16.412-.126-22.671,28.306-6.265,39.146,0" transform="translate(56.824 17.075)" fill="#298bed"/>
        <path id="Trazado_108294" data-name="Trazado 108294" d="M81.789,24.995c1.933,1.119,1.943,2.932.024,4.051a7.676,7.676,0,0,1-6.98,0c-1.933-1.119-1.943-2.932-.022-4.051a7.671,7.671,0,0,1,6.978,0" transform="translate(75.631 24.898)" fill="#5abce5"/>
        <rect id="Rectángulo_7058" data-name="Rectángulo 7058" width="9.867" height="6.744" transform="translate(149.01 45.358)" fill="#5abce5"/>
        <path id="Trazado_108295" data-name="Trazado 108295" d="M81.789,21.764c1.933,1.119,1.943,2.93.024,4.049a7.67,7.67,0,0,1-6.98,0c-1.933-1.117-1.943-2.93-.022-4.049a7.672,7.672,0,0,1,6.978,0" transform="translate(75.631 21.567)" fill="#b5dbdc"/>
        <path id="Trazado_108296" data-name="Trazado 108296" d="M104.182,81.062c11.863,6.848,11.926,17.95.142,24.8s-30.95,6.844-42.812,0S49.6,87.909,61.372,81.066s30.954-6.85,42.81,0" transform="translate(54.195 78.261)" fill="#b5dbdc"/>
        <path id="Trazado_108297" data-name="Trazado 108297" d="M104.182,80.039c11.863,6.848,11.926,17.952.142,24.8s-30.95,6.846-42.812,0-11.916-17.95-.14-24.793,30.954-6.85,42.81,0" transform="translate(54.195 77.206)" fill="#a6ecff"/>
        <path id="Trazado_108298" data-name="Trazado 108298" d="M104.182,52.128c11.863,6.848,11.926,17.952.142,24.8s-30.95,6.844-42.812,0-11.916-17.95-.14-24.793,30.954-6.848,42.81,0" transform="translate(54.195 48.439)" fill="#5abce5"/>
        <rect id="Rectángulo_7059" data-name="Rectángulo 7059" width="60.333" height="83.207" transform="translate(106.773 88.515)" fill="#a6ecff"/>
        <path id="Trazado_108299" data-name="Trazado 108299" d="M104.182,66.749c11.863,6.848,11.926,17.952.142,24.8s-30.95,6.846-42.812,0S49.6,73.6,61.372,66.753s30.954-6.848,42.81,0" transform="translate(54.195 63.51)" fill="#5abce5"/>
        <path id="Trazado_108300" data-name="Trazado 108300" d="M104.182,65.727c11.863,6.848,11.926,17.952.142,24.8s-30.95,6.844-42.812,0-11.916-17.95-.14-24.793,30.954-6.848,42.81,0" transform="translate(54.195 62.456)" fill="#a6ecff"/>
        <path id="Trazado_108301" data-name="Trazado 108301" d="M104.182,52.641c11.863,6.848,11.926,17.95.142,24.8s-30.95,6.844-42.812,0S49.6,59.488,61.372,52.645s30.954-6.85,42.81,0" transform="translate(54.195 48.966)" fill="#5abce5"/>
        <path id="Trazado_108302" data-name="Trazado 108302" d="M104.182,51.618c11.863,6.848,11.926,17.952.142,24.8s-30.95,6.846-42.812,0-11.916-17.95-.14-24.793,30.954-6.85,42.81,0" transform="translate(54.195 47.912)" fill="#a6ecff"/>
        <path id="Trazado_108303" data-name="Trazado 108303" d="M104.182,42.018c11.863,6.848,11.926,17.95.142,24.8s-30.95,6.844-42.812,0S49.6,48.865,61.372,42.022s30.954-6.85,42.81,0" transform="translate(54.195 38.017)" fill="#b5dbdc"/>
        <path id="Trazado_108304" data-name="Trazado 108304" d="M104.182,40.995c11.863,6.848,11.926,17.952.142,24.8s-30.95,6.846-42.812,0S49.6,47.842,61.372,41s30.954-6.85,42.81,0" transform="translate(54.195 36.963)" fill="#5abce5"/>
        <path id="Trazado_108305" data-name="Trazado 108305" d="M100.99,41.3c10.85,6.263,10.9,16.414.126,22.679s-28.3,6.259-39.146,0-10.9-16.412-.126-22.671,28.306-6.265,39.146,0" transform="translate(55.455 37.724)" fill="#298bed"/>
        <path id="Trazado_108306" data-name="Trazado 108306" d="M80.462,45.028c1.933,1.119,1.943,2.932.024,4.051a7.676,7.676,0,0,1-6.98,0c-1.933-1.119-1.943-2.932-.022-4.051a7.672,7.672,0,0,1,6.978,0" transform="translate(74.263 45.546)" fill="#5abce5"/>
        <rect id="Rectángulo_7060" data-name="Rectángulo 7060" width="9.867" height="6.744" transform="translate(146.316 86.04)" fill="#5abce5"/>
        <path id="Trazado_108307" data-name="Trazado 108307" d="M80.462,41.8c1.933,1.119,1.943,2.93.024,4.049a7.67,7.67,0,0,1-6.98,0c-1.933-1.117-1.943-2.93-.022-4.049a7.672,7.672,0,0,1,6.978,0" transform="translate(74.263 42.217)" fill="#b5dbdc"/>
        <g id="Grupo_59609" data-name="Grupo 59609" transform="translate(15.711 43.885)">
          <g id="Grupo_59608" data-name="Grupo 59608">
            <g id="Grupo_59607" data-name="Grupo 59607" clip-path="url(#clip-path-12)">
              <g id="Grupo_59573" data-name="Grupo 59573" opacity="0">
                <g id="Grupo_59572" data-name="Grupo 59572">
                  <g id="Grupo_59571" data-name="Grupo 59571" clip-path="url(#clip-path-12)">
                    <g id="Grupo_59570" data-name="Grupo 59570" opacity="0.903">
                      <g id="Grupo_59569" data-name="Grupo 59569">
                        <g id="Grupo_59568" data-name="Grupo 59568" clip-path="url(#clip-path-12)">
                          <path id="Trazado_108308" data-name="Trazado 108308" d="M63.145,49.307a27.7,27.7,0,1,1-27.709-27.7,27.709,27.709,0,0,1,27.709,27.7" transform="translate(-7.737 -21.612)" fill="#933de6"/>
                        </g>
                      </g>
                    </g>
                  </g>
                </g>
              </g>
              <g id="Grupo_59579" data-name="Grupo 59579" transform="translate(4.322 4.617)" opacity="0.167">
                <g id="Grupo_59578" data-name="Grupo 59578">
                  <g id="Grupo_59577" data-name="Grupo 59577" clip-path="url(#clip-path-15)">
                    <g id="Grupo_59576" data-name="Grupo 59576" opacity="0.802">
                      <g id="Grupo_59575" data-name="Grupo 59575">
                        <g id="Grupo_59574" data-name="Grupo 59574" clip-path="url(#clip-path-15)">
                          <path id="Trazado_108309" data-name="Trazado 108309" d="M56.629,47.26A23.382,23.382,0,1,1,33.244,23.884,23.385,23.385,0,0,1,56.629,47.26" transform="translate(-9.864 -23.884)" fill="#a55dea"/>
                        </g>
                      </g>
                    </g>
                  </g>
                </g>
              </g>
              <g id="Grupo_59585" data-name="Grupo 59585" transform="translate(8.644 9.231)" opacity="0.333">
                <g id="Grupo_59584" data-name="Grupo 59584">
                  <g id="Grupo_59583" data-name="Grupo 59583" clip-path="url(#clip-path-17)">
                    <g id="Grupo_59582" data-name="Grupo 59582" opacity="0.702">
                      <g id="Grupo_59581" data-name="Grupo 59581">
                        <g id="Grupo_59580" data-name="Grupo 59580" clip-path="url(#clip-path-17)">
                          <path id="Trazado_108310" data-name="Trazado 108310" d="M50.113,45.213A19.059,19.059,0,1,1,31.05,26.157,19.061,19.061,0,0,1,50.113,45.213" transform="translate(-11.993 -26.156)" fill="#b77eee"/>
                        </g>
                      </g>
                    </g>
                  </g>
                </g>
              </g>
              <g id="Grupo_59591" data-name="Grupo 59591" transform="translate(12.967 13.848)" opacity="0.5">
                <g id="Grupo_59590" data-name="Grupo 59590">
                  <g id="Grupo_59589" data-name="Grupo 59589" clip-path="url(#clip-path-19)">
                    <g id="Grupo_59588" data-name="Grupo 59588" opacity="0.601">
                      <g id="Grupo_59587" data-name="Grupo 59587">
                        <g id="Grupo_59586" data-name="Grupo 59586" clip-path="url(#clip-path-19)">
                          <path id="Trazado_108311" data-name="Trazado 108311" d="M43.6,43.163A14.737,14.737,0,1,1,28.855,28.43,14.738,14.738,0,0,1,43.6,43.163" transform="translate(-14.122 -28.43)" fill="#c99ef3"/>
                        </g>
                      </g>
                    </g>
                  </g>
                </g>
              </g>
              <g id="Grupo_59597" data-name="Grupo 59597" transform="translate(17.289 18.465)" opacity="0.667">
                <g id="Grupo_59596" data-name="Grupo 59596">
                  <g id="Grupo_59595" data-name="Grupo 59595" clip-path="url(#clip-path-21)">
                    <g id="Grupo_59594" data-name="Grupo 59594" opacity="0.501">
                      <g id="Grupo_59593" data-name="Grupo 59593">
                        <g id="Grupo_59592" data-name="Grupo 59592" clip-path="url(#clip-path-21)">
                          <path id="Trazado_108312" data-name="Trazado 108312" d="M37.08,41.116A10.415,10.415,0,1,1,26.663,30.7,10.415,10.415,0,0,1,37.08,41.116" transform="translate(-16.25 -30.703)" fill="#dbbef7"/>
                        </g>
                      </g>
                    </g>
                  </g>
                </g>
              </g>
              <g id="Grupo_59603" data-name="Grupo 59603" transform="translate(21.611 23.08)" opacity="0.833">
                <g id="Grupo_59602" data-name="Grupo 59602">
                  <g id="Grupo_59601" data-name="Grupo 59601" clip-path="url(#clip-path-23)">
                    <g id="Grupo_59600" data-name="Grupo 59600" opacity="0.4">
                      <g id="Grupo_59599" data-name="Grupo 59599">
                        <g id="Grupo_59598" data-name="Grupo 59598" clip-path="url(#clip-path-23)">
                          <path id="Trazado_108313" data-name="Trazado 108313" d="M30.563,39.068a6.092,6.092,0,1,1-6.1-6.092,6.091,6.091,0,0,1,6.1,6.092" transform="translate(-18.379 -32.976)" fill="#eddffb"/>
                        </g>
                      </g>
                    </g>
                  </g>
                </g>
              </g>
              <g id="Grupo_59606" data-name="Grupo 59606" transform="translate(25.933 27.696)" opacity="0.3">
                <g id="Grupo_59605" data-name="Grupo 59605">
                  <g id="Grupo_59604" data-name="Grupo 59604" clip-path="url(#clip-path-25)">
                    <path id="Trazado_108314" data-name="Trazado 108314" d="M24.047,37.021a1.77,1.77,0,1,1-1.773-1.771,1.767,1.767,0,0,1,1.773,1.771" transform="translate(-20.508 -35.249)" fill="#fff"/>
                  </g>
                </g>
              </g>
            </g>
          </g>
        </g>
        <path id="Trazado_108315" data-name="Trazado 108315" d="M124.964,41.138l-12.16-4.49L99.8,25.335l-3.535,2.811s12.5,15.4,15.147,17.036,10.089,3.6,10.089,3.6Z" transform="translate(99.219 26.113)" fill="#ccdcf8"/>
        <path id="Trazado_108316" data-name="Trazado 108316" d="M111.276,82.921s2.077,3.334-.81,4.135-2.029-1.015-8.312.577-5.552-1.954-5.418-2.683,2.89-1.728,4.256-2.092,6.872-1.629,6.872-1.629l3.353.619Z" transform="translate(99.609 83.724)" fill="#111114"/>
        <path id="Trazado_108317" data-name="Trazado 108317" d="M106.691,77.516s-2.4.361-1.817,1.748,3.351,3.5,3.71,4.384,2.589,3.584,3.365,3.72c1.3.223,2.628.15,2.413-3.432s-4.457-6.578-7.67-6.421" transform="translate(108.001 79.891)" fill="#111114"/>
        <path id="Trazado_108318" data-name="Trazado 108318" d="M116.038,47.426s4.679,6.943,1.639,18.652c0,0-5.237,17.675-4.3,21.148s4.128,11.823,2.027,18.967a83.471,83.471,0,0,0-2.114,8.43c-.162,1.878-3.28,2.055-3.735-.053-.981-4.474-.244-11.132-.924-14.445-2.218-10.836-3.361-16.487-2.658-23.861s-.15-24.066-.15-24.066,8.348.863,10.219-4.772" transform="translate(109.013 48.883)" fill="#efb185"/>
        <path id="Trazado_108319" data-name="Trazado 108319" d="M115.1,49.5s4.015,7.351-.1,18.725c0,0-6.874,17.113-6.255,20.661.6,3.542,3.007,12.16.25,19.073,0,0-2.668,6.366-2.876,8.2-.331,2.91-3.276,3.278-3.58,1.139-.636-4.35.654-12.639.28-16-1.192-11-1.82-16.729-.431-24S104.479,53.3,104.479,53.3s8.228,1.645,10.619-3.8" transform="translate(104.72 51.02)" fill="#efb185"/>
        <path id="Trazado_108320" data-name="Trazado 108320" d="M105.345,71.38h0s.229-9.605-1.872-12.178-5.388-8.432-2.585-11.711,4.457-4.918,4.457-4.918,13.11-12.877,17.556-9.132c0,0,3.984,3.046,2.343,13.577s-4.815,12.172-.936,17.785c3.01,4.352,4.256,5.554,2.26,21.911-1.828,15.058-.934,16.922-.934,16.922s-12.178,6.716-23.416,1.556c0,0-2.331-3.572,0-17.015,2.1-12.107,3.127-16.8,3.127-16.8" transform="translate(102.871 33.763)" fill="#e5eeff"/>
        <path id="Trazado_108321" data-name="Trazado 108321" d="M101.963,81.7s1.679,3.611,4.6.8c0,0,.459,3.854-2.293,3.353s-3.869-3.355-2.3-4.155" transform="translate(104.358 84.206)" fill="#111114"/>
        <path id="Trazado_108322" data-name="Trazado 108322" d="M103.917,34.385l.638,6.431s5.509,3,9.408-1.744l-.642-6.458a22.4,22.4,0,0,1-9.4,1.771" transform="translate(107.11 33.616)" fill="#efb185"/>
        <path id="Trazado_108323" data-name="Trazado 108323" d="M110.173,24.394s-4.894-.045-6.744,3.594S100,37.012,102.306,40.05c2.459,3.251,1.16,5.209,0,6.263s12.747,5.8,18.721-3.1c0,0,3.929-22.094-10.854-18.815" transform="translate(104.264 24.801)" fill="#231202"/>
        <path id="Trazado_108324" data-name="Trazado 108324" d="M98.39,104.138h2.329a9.313,9.313,0,0,0,9.313-9.309V11.791H89.083V94.829a9.309,9.309,0,0,0,9.307,9.309" transform="translate(91.82 12.153)" fill="#ade9f4"/>
        <path id="Trazado_108325" data-name="Trazado 108325" d="M97.3,90.46h1.72a6.877,6.877,0,0,0,6.876-6.876V22.278H90.432V83.583A6.878,6.878,0,0,0,97.3,90.46" transform="translate(93.21 22.962)" fill="#f6802d"/>
        <path id="Trazado_108326" data-name="Trazado 108326" d="M103.752,21.438c2.955,1.785,2.853,4.62-.227,6.34a12.05,12.05,0,0,1-10.937-.116c-2.953-1.775-2.861-4.612.219-6.332a12.067,12.067,0,0,1,10.946.108" transform="translate(93.211 20.687)" fill="#e35b01"/>
        <path id="Trazado_108327" data-name="Trazado 108327" d="M88.517,12.9V10.7c0,1.649,1.056,2.256,3.182,3.538,4.382,2.638,11.634,2.711,16.2.164,2.352-1.306,3.535-1.724,3.531-3.473l0,1.9c0,1.748-1.174,3.5-3.527,4.809-4.563,2.547-11.821,2.473-16.2-.164-2.13-1.281-3.188-2.93-3.192-4.579" transform="translate(91.236 11.027)" fill="#4ed2f2"/>
        <path id="Trazado_108328" data-name="Trazado 108328" d="M108.245,9.758c4.38,2.638,4.228,6.839-.339,9.39s-11.821,2.471-16.2-.167-4.232-6.837.337-9.388,11.819-2.473,16.205.164" transform="translate(91.233 7.968)" fill="#b8f8ff"/>
        <path id="Trazado_108329" data-name="Trazado 108329" d="M99.127,18.6a14.826,14.826,0,0,1-7.412-1.8c-1.58-.948-2.437-2.1-2.415-3.255.02-1.188,1.005-2.419,2.707-3.363A15.066,15.066,0,0,1,99.2,8.517a14.815,14.815,0,0,1,7.408,1.8c1.574.948,2.437,2.11,2.413,3.257-.018,1.19-1,2.419-2.7,3.367A15.065,15.065,0,0,1,99.127,18.6" transform="translate(92.043 8.778)" fill="#2bb4da"/>
        <path id="Trazado_108330" data-name="Trazado 108330" d="M92.007,11.585A15.042,15.042,0,0,1,99.2,9.926a14.823,14.823,0,0,1,7.406,1.8,4.859,4.859,0,0,1,2.3,2.51,2.29,2.29,0,0,0,.116-.658c.024-1.149-.839-2.311-2.415-3.259a14.823,14.823,0,0,0-7.406-1.8,15.042,15.042,0,0,0-7.193,1.667c-1.7.942-2.687,2.173-2.707,3.361a2.371,2.371,0,0,0,.116.747,5.176,5.176,0,0,1,2.591-2.707" transform="translate(92.043 8.778)" fill="#29b2dc"/>
        <path id="Trazado_108331" data-name="Trazado 108331" d="M87.254,11.749s2.124,1.757,3.94,3.2-.526-2.356-.526-2.356Z" transform="translate(89.935 12.11)" fill="#4ed2f2"/>
        <path id="Trazado_108332" data-name="Trazado 108332" d="M90.311,10.7s-4.1,1.866-2.835,2.224,4.847,1.1,4.847,1.1-2.053-1.968-2.012-3.326" transform="translate(89.913 11.027)" fill="#b8f8ff"/>
        <path id="Trazado_108333" data-name="Trazado 108333" d="M92.175,10.917s-4.922,1.283-4.252,1.564a10.424,10.424,0,0,0,4.161.489Z" transform="translate(90.559 11.252)" fill="#2bb4da"/>
        <path id="Trazado_108334" data-name="Trazado 108334" d="M101.462,17.515c.3-.173.542-.037.542.309a1.193,1.193,0,0,1-.536.938l-4.423,2.551c-.292.173-.536.035-.536-.319a1.174,1.174,0,0,1,.536-.926Z" transform="translate(99.474 17.976)" fill="#f3f4f4"/>
        <path id="Trazado_108335" data-name="Trazado 108335" d="M101.462,20.376c.3-.169.542-.032.542.307a1.194,1.194,0,0,1-.536.942l-4.423,2.551c-.292.171-.536.035-.536-.317a1.192,1.192,0,0,1,.536-.932Z" transform="translate(99.474 20.927)" fill="#f3f4f4"/>
        <path id="Trazado_108336" data-name="Trazado 108336" d="M101.462,24.675c.3-.175.542-.039.542.307a1.189,1.189,0,0,1-.536.938l-4.423,2.553c-.292.171-.536.032-.536-.319a1.175,1.175,0,0,1,.536-.928Z" transform="translate(99.474 25.354)" fill="#f3f4f4"/>
        <path id="Trazado_108337" data-name="Trazado 108337" d="M101.462,27.537c.3-.173.542-.037.542.307a1.189,1.189,0,0,1-.536.938l-4.423,2.551c-.292.173-.536.037-.536-.317a1.181,1.181,0,0,1,.536-.928Z" transform="translate(99.474 28.306)" fill="#f3f4f4"/>
        <path id="Trazado_108338" data-name="Trazado 108338" d="M101.462,33.264c.3-.175.542-.037.542.307a1.186,1.186,0,0,1-.536.938l-4.423,2.553c-.292.171-.536.035-.536-.317a1.179,1.179,0,0,1,.536-.93Z" transform="translate(99.474 34.208)" fill="#f3f4f4"/>
        <path id="Trazado_108339" data-name="Trazado 108339" d="M101.462,36.127c.3-.173.542-.035.542.307a1.186,1.186,0,0,1-.536.938l-4.423,2.553c-.292.173-.536.037-.536-.317a1.185,1.185,0,0,1,.536-.93Z" transform="translate(99.474 37.16)" fill="#f3f4f4"/>
        <path id="Trazado_108340" data-name="Trazado 108340" d="M101.462,40.421c.3-.171.542-.035.542.307a1.19,1.19,0,0,1-.536.94l-4.423,2.551c-.292.171-.536.035-.536-.317a1.182,1.182,0,0,1,.536-.93Z" transform="translate(99.474 41.587)" fill="#f3f4f4"/>
        <path id="Trazado_108341" data-name="Trazado 108341" d="M101.462,43.287c.3-.175.542-.037.542.307a1.189,1.189,0,0,1-.536.938l-4.423,2.551c-.292.173-.536.037-.536-.317a1.178,1.178,0,0,1,.536-.928Z" transform="translate(99.474 44.539)" fill="#f3f4f4"/>
        <path id="Trazado_108342" data-name="Trazado 108342" d="M92.785,42.588a20.651,20.651,0,0,0-2.664-1.866,3.9,3.9,0,0,1-1.436-2.577c-.041-.808.075-2.977,1.093-2.345a25.229,25.229,0,0,0,2.063,1.464,5.058,5.058,0,0,1,1.939,1.872c.193.5.8,2.114.8,2.114Z" transform="translate(91.403 36.782)" fill="#efb185"/>
        <path id="Trazado_108343" data-name="Trazado 108343" d="M119.876,42.506c-.42-1.448-2.155-3.371-5.838-1.73s-13.89,6.332-13.89,6.332-6.876-8.4-7.82-9.25A2.184,2.184,0,0,1,90.4,40.344s4.082,11.376,7.587,12.266,23.634-4.12,21.889-10.1" transform="translate(93.177 39.021)" fill="#f9f9f9"/>
        <g id="Grupo_59633" data-name="Grupo 59633" transform="translate(160.328 81.454)" opacity="0.4">
          <g id="Grupo_59632" data-name="Grupo 59632">
            <g id="Grupo_59631" data-name="Grupo 59631" clip-path="url(#clip-path-26)">
              <g id="Grupo_59612" data-name="Grupo 59612" opacity="0">
                <g id="Grupo_59611" data-name="Grupo 59611">
                  <g id="Grupo_59610" data-name="Grupo 59610" clip-path="url(#clip-path-27)">
                    <path id="Trazado_108344" data-name="Trazado 108344" d="M93.442,81.676c19.229,9.516,50.3,9.516,69.408,0s19.006-24.917-.232-34.431-50.3-9.512-69.4,0-19.006,24.927.223,34.431" transform="translate(-78.952 -40.111)" fill="#fcfdfd"/>
                  </g>
                </g>
              </g>
              <g id="Grupo_59615" data-name="Grupo 59615" transform="translate(3.622 10.599)" opacity="0.167">
                <g id="Grupo_59614" data-name="Grupo 59614">
                  <g id="Grupo_59613" data-name="Grupo 59613" clip-path="url(#clip-path-28)">
                    <path id="Trazado_108345" data-name="Trazado 108345" d="M94.288,84.914c17.984,9.061,47.048,9.061,64.916,0s17.779-23.731-.215-32.792c-17.978-9.055-47.044-9.055-64.908,0S76.3,75.863,94.288,84.914" transform="translate(-80.734 -45.33)" fill="#fdfdfd"/>
                  </g>
                </g>
              </g>
              <g id="Grupo_59618" data-name="Grupo 59618" transform="translate(7.244 21.199)" opacity="0.333">
                <g id="Grupo_59617" data-name="Grupo 59617">
                  <g id="Grupo_59616" data-name="Grupo 59616" clip-path="url(#clip-path-29)">
                    <path id="Trazado_108346" data-name="Trazado 108346" d="M95.133,88.155c16.739,8.606,43.79,8.606,60.422,0s16.55-22.545-.2-31.151-43.793-8.6-60.42,0-16.544,22.553.195,31.151" transform="translate(-82.519 -50.55)" fill="#fdfefe"/>
                  </g>
                </g>
              </g>
              <g id="Grupo_59621" data-name="Grupo 59621" transform="translate(10.866 31.798)" opacity="0.5">
                <g id="Grupo_59620" data-name="Grupo 59620">
                  <g id="Grupo_59619" data-name="Grupo 59619" clip-path="url(#clip-path-30)">
                    <path id="Trazado_108347" data-name="Trazado 108347" d="M95.978,91.393c15.494,8.153,40.535,8.153,55.934,0s15.318-21.359-.185-29.51-40.539-8.151-55.928,0-15.316,21.363.179,29.51" transform="translate(-84.302 -55.769)" fill="#fefefe"/>
                  </g>
                </g>
              </g>
              <g id="Grupo_59624" data-name="Grupo 59624" transform="translate(14.488 42.398)" opacity="0.667">
                <g id="Grupo_59623" data-name="Grupo 59623">
                  <g id="Grupo_59622" data-name="Grupo 59622" clip-path="url(#clip-path-31)">
                    <path id="Trazado_108348" data-name="Trazado 108348" d="M96.823,94.635c14.252,7.7,37.282,7.7,51.44,0s14.091-20.173-.167-27.874-37.286-7.7-51.436,0-14.089,20.177.162,27.874" transform="translate(-86.086 -60.989)" fill="#fefefe"/>
                  </g>
                </g>
              </g>
              <g id="Grupo_59627" data-name="Grupo 59627" transform="translate(18.11 52.998)" opacity="0.833">
                <g id="Grupo_59626" data-name="Grupo 59626">
                  <g id="Grupo_59625" data-name="Grupo 59625" clip-path="url(#clip-path-32)">
                    <path id="Trazado_108349" data-name="Trazado 108349" d="M97.669,97.872c13.007,7.244,34.025,7.244,46.948,0s12.863-18.985-.152-26.231-34.033-7.244-46.944,0c-12.928,7.246-12.859,18.989.148,26.231" transform="translate(-87.869 -66.209)" fill="#fff"/>
                  </g>
                </g>
              </g>
              <g id="Grupo_59630" data-name="Grupo 59630" transform="translate(21.732 63.597)">
                <g id="Grupo_59629" data-name="Grupo 59629">
                  <g id="Grupo_59628" data-name="Grupo 59628" clip-path="url(#clip-path-33)">
                    <path id="Trazado_108350" data-name="Trazado 108350" d="M98.513,101.113c11.762,6.791,30.77,6.791,42.456,0s11.634-17.8-.136-24.592-30.78-6.791-42.452,0c-11.689,6.793-11.63,17.8.132,24.592" transform="translate(-89.653 -71.428)" fill="#fff"/>
                  </g>
                </g>
              </g>
            </g>
          </g>
        </g>
      </g>
    </g>
  </g>
</svg>
