<svg id="Grupo_562263" data-name="Grupo 562263" xmlns="http://www.w3.org/2000/svg" xmlns:xlink="http://www.w3.org/1999/xlink" width="121.463" height="128" viewBox="0 0 121.463 128">
  <defs>
    <clipPath id="clip-path">
      <rect id="Rectángulo_41150" data-name="Rectángulo 41150" width="121.463" height="128" fill="none"/>
    </clipPath>
    <clipPath id="clip-path-2">
      <rect id="Rectángulo_41149" data-name="Rectángulo 41149" width="121.464" height="127.999" fill="none"/>
    </clipPath>
    <clipPath id="clip-path-3">
      <rect id="Rectángulo_41139" data-name="Rectángulo 41139" width="9.05" height="11.482" fill="none"/>
    </clipPath>
    <clipPath id="clip-path-4">
      <rect id="Rectángulo_41146" data-name="Rectángulo 41146" width="16.767" height="38.477" fill="none"/>
    </clipPath>
    <clipPath id="clip-path-5">
      <rect id="Rectángulo_41147" data-name="Rectángulo 41147" width="13.469" height="13.491" fill="none"/>
    </clipPath>
  </defs>
  <g id="Grupo_562262" data-name="Grupo 562262" clip-path="url(#clip-path)">
    <rect id="Rectángulo_41137" data-name="Rectángulo 41137" width="68.669" height="5.479" transform="translate(49.601 7.764)" fill="#fff"/>
    <g id="Grupo_562261" data-name="Grupo 562261" transform="translate(0 0.001)">
      <g id="Grupo_562260" data-name="Grupo 562260" clip-path="url(#clip-path-2)">
        <rect id="Rectángulo_41138" data-name="Rectángulo 41138" width="68.669" height="5.479" transform="translate(49.601 7.764)" fill="none" stroke="#1c007f" stroke-miterlimit="10" stroke-width="1"/>
        <path id="Trazado_194385" data-name="Trazado 194385" d="M41.317,9.175a7.493,7.493,0,1,1-7.493-7.493,7.493,7.493,0,0,1,7.493,7.493" transform="translate(20.803 1.328)" fill="#fff"/>
        <circle id="Elipse_5451" data-name="Elipse 5451" cx="7.493" cy="7.493" r="7.493" transform="translate(47.132 3.01)" fill="none" stroke="#1c007f" stroke-miterlimit="10" stroke-width="1"/>
        <g id="Grupo_562250" data-name="Grupo 562250" transform="translate(48.923 4.8)" opacity="0.75">
          <g id="Grupo_562249" data-name="Grupo 562249">
            <g id="Grupo_562248" data-name="Grupo 562248" clip-path="url(#clip-path-3)">
              <path id="Trazado_194386" data-name="Trazado 194386" d="M33.674,3.3a4.8,4.8,0,1,0-1.248,9.475A6.1,6.1,0,0,1,33.674,3.3" transform="translate(-26.935 -2.287)" fill="#fff"/>
              <path id="Trazado_194387" data-name="Trazado 194387" d="M33.674,3.3a4.8,4.8,0,1,0-1.248,9.475A6.1,6.1,0,0,1,33.674,3.3Z" transform="translate(-26.935 -2.287)" fill="none" stroke="#1c007f" stroke-miterlimit="10" stroke-width="1"/>
            </g>
          </g>
        </g>
        <path id="Trazado_194388" data-name="Trazado 194388" d="M73.969,9.175a7.493,7.493,0,1,1-7.493-7.493,7.493,7.493,0,0,1,7.493,7.493" transform="translate(46.6 1.328)" fill="#fff"/>
        <circle id="Elipse_5452" data-name="Elipse 5452" cx="7.493" cy="7.493" r="7.493" transform="translate(105.582 3.01)" fill="none" stroke="#1c007f" stroke-miterlimit="10" stroke-width="1"/>
        <rect id="Rectángulo_41140" data-name="Rectángulo 41140" width="8.702" height="19.231" transform="translate(79.585 5.714)" fill="#fff"/>
        <rect id="Rectángulo_41141" data-name="Rectángulo 41141" width="8.702" height="19.231" transform="translate(79.585 5.714)" fill="none" stroke="#1c007f" stroke-miterlimit="10" stroke-width="1"/>
        <rect id="Rectángulo_41142" data-name="Rectángulo 41142" width="22.559" height="106.028" transform="translate(72.656 21.076)" fill="#fff"/>
        <rect id="Rectángulo_41143" data-name="Rectángulo 41143" width="22.559" height="106.028" transform="translate(72.656 21.076)" fill="none" stroke="#1c007f" stroke-miterlimit="10" stroke-width="1"/>
        <rect id="Rectángulo_41144" data-name="Rectángulo 41144" width="28.36" height="52.046" transform="translate(69.756 27.039)" fill="#fff"/>
        <rect id="Rectángulo_41145" data-name="Rectángulo 41145" width="28.36" height="52.046" transform="translate(69.756 27.039)" fill="none" stroke="#1c007f" stroke-miterlimit="10" stroke-width="1"/>
        <path id="Trazado_194389" data-name="Trazado 194389" d="M31.492,25.1A30.005,30.005,0,0,0,1.521,55.068v8.379h17.4V55.068A12.583,12.583,0,0,1,31.492,42.5H91.471V25.1Z" transform="translate(1.202 19.828)" fill="#fff"/>
        <path id="Trazado_194390" data-name="Trazado 194390" d="M31.492,25.1A30.005,30.005,0,0,0,1.521,55.068v8.379h17.4V55.068A12.583,12.583,0,0,1,31.492,42.5H91.471V25.1Z" transform="translate(1.202 19.828)" fill="none" stroke="#1c007f" stroke-miterlimit="10" stroke-width="1"/>
        <path id="Trazado_194391" data-name="Trazado 194391" d="M75.562,59.952H38.656a49.387,49.387,0,0,1,0-42.056H75.562a49.387,49.387,0,0,1,0,42.056" transform="translate(26.827 14.139)" fill="#fff"/>
        <path id="Trazado_194392" data-name="Trazado 194392" d="M75.562,59.952H38.656a49.387,49.387,0,0,1,0-42.056H75.562A49.387,49.387,0,0,1,75.562,59.952Z" transform="translate(26.827 14.139)" fill="none" stroke="#1c007f" stroke-miterlimit="10" stroke-width="1"/>
        <g id="Grupo_562253" data-name="Grupo 562253" transform="translate(62.557 33.823)" opacity="0.75">
          <g id="Grupo_562252" data-name="Grupo 562252">
            <g id="Grupo_562251" data-name="Grupo 562251" clip-path="url(#clip-path-4)">
              <path id="Trazado_194393" data-name="Trazado 194393" d="M48.853,19.4h-9.64a46.545,46.545,0,0,0,0,36.688H41.75c-4.994-14.24-.743-30.127,7.1-36.688" transform="translate(-34.552 -18.501)" fill="#fff"/>
              <path id="Trazado_194394" data-name="Trazado 194394" d="M48.853,19.4h-9.64a46.545,46.545,0,0,0,0,36.688H41.75C36.756,41.843,41.007,25.956,48.853,19.4Z" transform="translate(-34.552 -18.501)" fill="none" stroke="#1c007f" stroke-miterlimit="10" stroke-width="1"/>
            </g>
          </g>
        </g>
        <path id="Trazado_194395" data-name="Trazado 194395" d="M61.167,17.572a11.114,11.114,0,1,0-18.744,0Z" transform="translate(32.141 0.394)" fill="#fff"/>
        <path id="Trazado_194396" data-name="Trazado 194396" d="M61.167,17.572a11.114,11.114,0,1,0-18.744,0Z" transform="translate(32.141 0.394)" fill="none" stroke="#1c007f" stroke-miterlimit="10" stroke-width="1"/>
        <g id="Grupo_562256" data-name="Grupo 562256" transform="translate(74.612 2.685)" opacity="0.75">
          <g id="Grupo_562255" data-name="Grupo 562255">
            <g id="Grupo_562254" data-name="Grupo 562254" clip-path="url(#clip-path-5)">
              <path id="Trazado_194397" data-name="Trazado 194397" d="M51.844,2.125A8.274,8.274,0,0,0,50.609,2a8.439,8.439,0,0,0-8.428,8.429,8.345,8.345,0,0,0,.668,3.272h3.874C45.2,9.046,46.531,4.821,51.844,2.125" transform="translate(-41.285 -1.106)" fill="#fff"/>
              <path id="Trazado_194398" data-name="Trazado 194398" d="M51.844,2.125A8.274,8.274,0,0,0,50.609,2a8.439,8.439,0,0,0-8.428,8.429,8.345,8.345,0,0,0,.668,3.272h3.874C45.2,9.046,46.531,4.821,51.844,2.125Z" transform="translate(-41.285 -1.106)" fill="none" stroke="#1c007f" stroke-miterlimit="10" stroke-width="1"/>
            </g>
          </g>
        </g>
        <path id="Trazado_194399" data-name="Trazado 194399" d="M20.687,72.6c0,7.284-4.518,13.189-10.092,13.189S.5,79.883.5,72.6s10.094-23.94,10.094-23.94S20.687,65.316,20.687,72.6" transform="translate(0.395 38.444)" fill="#fff"/>
        <path id="Trazado_194400" data-name="Trazado 194400" d="M20.687,72.6c0,7.284-4.518,13.189-10.092,13.189S.5,79.883.5,72.6s10.094-23.94,10.094-23.94S20.687,65.316,20.687,72.6Z" transform="translate(0.395 38.444)" fill="none" stroke="#1c007f" stroke-miterlimit="10" stroke-width="1"/>
        <path id="Trazado_194401" data-name="Trazado 194401" d="M7.521,63.807c0,2.538-1.343,4.6-3,4.6s-3-2.059-3-4.6,1.343-4.6,3-4.6,3,2.057,3,4.6" transform="translate(1.202 46.78)" fill="#fff"/>
        <ellipse id="Elipse_5453" data-name="Elipse 5453" cx="3" cy="4.597" rx="3" ry="4.597" transform="translate(2.723 105.991)" fill="none" stroke="#1c007f" stroke-miterlimit="10" stroke-width="1"/>
        <g id="Grupo_562259" data-name="Grupo 562259" transform="translate(106.989 4.8)" opacity="0.75">
          <g id="Grupo_562258" data-name="Grupo 562258">
            <g id="Grupo_562257" data-name="Grupo 562257" clip-path="url(#clip-path-3)">
              <path id="Trazado_194402" data-name="Trazado 194402" d="M66.111,3.3a4.8,4.8,0,1,0-1.248,9.475A6.1,6.1,0,0,1,66.111,3.3" transform="translate(-59.372 -2.287)" fill="#fff"/>
              <path id="Trazado_194403" data-name="Trazado 194403" d="M66.111,3.3a4.8,4.8,0,1,0-1.248,9.475A6.1,6.1,0,0,1,66.111,3.3Z" transform="translate(-59.372 -2.287)" fill="none" stroke="#1c007f" stroke-miterlimit="10" stroke-width="1"/>
            </g>
          </g>
        </g>
      </g>
    </g>
  </g>
</svg>
