<svg xmlns="http://www.w3.org/2000/svg" xmlns:xlink="http://www.w3.org/1999/xlink" width="133.035" height="139" viewBox="0 0 133.035 139">
  <defs>
    <clipPath id="clip-path">
      <rect id="Rectángulo_41219" data-name="Rectángulo 41219" width="133.035" height="139" fill="none"/>
    </clipPath>
  </defs>
  <g id="Grupo_562319" data-name="Grupo 562319" transform="translate(0)">
    <g id="Grupo_562321" data-name="Grupo 562321" transform="translate(0)" clip-path="url(#clip-path)">
      <path id="Trazado_194691" data-name="Trazado 194691" d="M171.4,362.662a69.26,69.26,0,0,0,16.036-3.656,63.454,63.454,0,0,0,14.015-7.079q-11.694-.022-23.388-.04c-6.987,0-13.974.031-20.961.049-.946,1.175-2.161,2.111-2.47,3.777a6.189,6.189,0,0,0,2.328,6.564.629.629,0,0,1,.23.243l.02,0c.745.365,1.843-.327,2.341.778h10.579c.138-.773.792-.585,1.269-.638" transform="translate(-98.465 -224.3)" fill="#2a428b"/>
      <path id="Trazado_194692" data-name="Trazado 194692" d="M198.216,363.11a63.128,63.128,0,0,0,14.795-2.981A60.505,60.505,0,0,0,229.529,352h-.55a63.451,63.451,0,0,1-14.015,7.079,69.252,69.252,0,0,1-16.036,3.656c-.477.053-1.131-.135-1.269.638.1-.273.34-.243.557-.26" transform="translate(-125.992 -224.37)" fill="#2a428b"/>
      <path id="Trazado_194693" data-name="Trazado 194693" d="M161.762,381.214l-.02,0c.025.076,0,.162-.129.269.76.509,1.762-.158,2.49.512-.5-1.1-1.6-.413-2.341-.778" transform="translate(-103.015 -242.992)" fill="#2a428b"/>
      <path id="Trazado_194694" data-name="Trazado 194694" d="M20.162,101.858a6.818,6.818,0,0,0,.9-.247c0-.85-.013-1.7.01-2.55a3.939,3.939,0,0,1,3.27-3.982c.47-.406,1.037-.237,1.561-.237q14.156,0,28.313.025c.6-.013,1.2-.023,1.793-.034l.005-.009L40.13,81.522c-3.206-2.686-6.446-5.332-9.605-8.071a4.844,4.844,0,0,1-1.1-6.519,4.921,4.921,0,0,1,6.385-1.374,2.951,2.951,0,0,0,.755.219,7.805,7.805,0,0,0,.869-6.423h0A4.224,4.224,0,0,1,35.743,56.3a3.5,3.5,0,0,1,4.866-3.393c.364.143.66.482,1.107.389h0q9.119-10.923,18.239-21.845c1.245-1.49,2.509-2.965,3.764-4.446-.333-.724-.971-1.278-1.1-2.123a3.523,3.523,0,0,1,1.589-3.727,3.477,3.477,0,0,1,4.036.2l.773.532h0c2.322.059,4.468-.374,6.119-2.192l-1.366-2.122a.727.727,0,0,1-.079.077,2.465,2.465,0,0,1-1.457.19,64.618,64.618,0,0,0-32.21,5.659,63.662,63.662,0,0,0-21.039,15.03A66.293,66.293,0,0,0,5.98,108.587a48.417,48.417,0,0,0,3.457,7.193,17.493,17.493,0,0,1,.668-5.717c1.745-4.707,5.028-7.523,10.057-8.205" transform="translate(-0.722 -11.198)" fill="#73c2f8"/>
      <path id="Trazado_194695" data-name="Trazado 194695" d="M5.258,108A66.293,66.293,0,0,1,18.265,37.936,63.653,63.653,0,0,1,39.3,22.906a64.62,64.62,0,0,1,32.209-5.659,2.465,2.465,0,0,0,1.457-.19.762.762,0,0,0,.079-.077L73,16.9a69.209,69.209,0,0,0-18.056.778A66.614,66.614,0,0,0,.121,79.524,63.076,63.076,0,0,0,2.03,99.248,58.91,58.91,0,0,0,8.7,115.733c.008-.18.015-.36.02-.54A48.434,48.434,0,0,1,5.258,108" transform="translate(0 -10.611)" fill="#73c2f8"/>
      <path id="Trazado_194696" data-name="Trazado 194696" d="M262.289,45.049a4.6,4.6,0,0,1-.541,5.495A4.726,4.726,0,0,1,256.2,51.7c-.4-.182-.724-.573-1.235-.406a7.808,7.808,0,0,0-.867,6.434h0c.7.8,1.574,1.476,1.677,2.67a3.409,3.409,0,0,1-1.468,3.393,3.357,3.357,0,0,1-3.686.16c-.2-.105-.4-.206-.595-.309l-5.5,6.592c.806.711,1.6,1.43,2.419,2.132,1.825,1.572,2.036,2.668.91,4.817,2.468.146,4.96.145,7.283,1.182.2.091.394.209.59.314a11.75,11.75,0,0,1,5.835,4.834,61.288,61.288,0,0,0,9.107,11.674c3.86-1.185,6.444.958,5.825,4.828h0a25.925,25.925,0,0,1,3.466,3.031h0c2.181,1.5,4.039,3.39,6.127,5,.277.214.561.419.844.626a62.25,62.25,0,0,0,1.509-17.533,66.152,66.152,0,0,0-14.111-37.61,67.056,67.056,0,0,0-23.589-18.909,6.564,6.564,0,0,0-.717-.308c3.411,2.861,6.83,5.714,10.223,8.6a8.858,8.858,0,0,1,2.044,2.142" transform="translate(-155.864 -21.871)" fill="#73c2f8"/>
      <path id="Trazado_194697" data-name="Trazado 194697" d="M259.5,33.867a67.053,67.053,0,0,1,23.589,18.909,66.152,66.152,0,0,1,14.111,37.61,62.26,62.26,0,0,1-1.509,17.533l.227.166h0a4.964,4.964,0,0,0,.285-.756,64.5,64.5,0,0,0-.05-27.511c-4.518-19.9-15.769-34.834-33.6-44.768a13.035,13.035,0,0,0-4.279-1.919l.51.428a6.6,6.6,0,0,1,.717.308" transform="translate(-164.631 -21.118)" fill="#73c2f8"/>
      <path id="Trazado_194698" data-name="Trazado 194698" d="M152.505,230.7l-.041-.035h-.015c-.006.013-.014.022-.021.034Z" transform="translate(-97.161 -147.031)" fill="#3c589f"/>
      <path id="Trazado_194699" data-name="Trazado 194699" d="M61.22,268v0a5.989,5.989,0,0,1-2.717-5.4c.077-5.471.007-10.943.031-16.415a8.27,8.27,0,0,1,6.149-8.1,6,6,0,0,1,1.742-.152q20.885-.008,41.771,0c1.873,0,1.873,0,1.873-1.915,0-.542.005-1.085.008-1.628a3.662,3.662,0,0,0-3.244-2.989h0l-36.182.015a2.733,2.733,0,0,1-1.205.09q-2.634,0-5.268,0c-.41.906-1.195,1.628-1.308,2.683a4.237,4.237,0,0,0,1.434,3.724H36.176c0,.01-.007.021-.012.031-.341.512-.889.543-1.425.627A11.768,11.768,0,0,0,24.7,250.171a4.078,4.078,0,0,1-.2,2.195,55.1,55.1,0,0,0,7.309,10.6,61.841,61.841,0,0,0,4.637,4.9c.08.079.162.154.242.232q10.449-.025,20.9-.053c1.211,0,2.423-.029,3.635-.044" transform="translate(-15.616 -147.495)" fill="#3c589f"/>
      <path id="Trazado_194700" data-name="Trazado 194700" d="M164.079,230.659c-.029-.014-.058-.025-.086-.041,0-.006,0-.011,0-.017l-.07.059Z" transform="translate(-104.488 -146.989)" fill="#3c589f"/>
      <path id="Trazado_194701" data-name="Trazado 194701" d="M36.358,304.964c-.08-.078-.162-.154-.242-.232a61.832,61.832,0,0,1-4.638-4.9,55.119,55.119,0,0,1-7.309-10.6,1.628,1.628,0,0,1-.187.251,2.227,2.227,0,0,0,.151.511,63.146,63.146,0,0,0,11.811,14.965h.414" transform="translate(-15.287 -184.366)" fill="#3c589f"/>
      <path id="Trazado_194702" data-name="Trazado 194702" d="M149.312,230.7c.006-.012.015-.021.02-.034-.6.011-1.2.021-1.793.034h1.773" transform="translate(-94.044 -147.032)" fill="#3c589f"/>
      <path id="Trazado_194703" data-name="Trazado 194703" d="M24.4,261.625a11.768,11.768,0,0,1,10.039-11.606c.536-.084,1.083-.114,1.425-.627,0-.01.007-.021.012-.031h-.218a6.813,6.813,0,0,1-.9.246c-5.029.682-8.311,3.5-10.057,8.206a17.482,17.482,0,0,0-.668,5.717c.049.081.095.162.144.243l.024.046a4.078,4.078,0,0,0,.2-2.195" transform="translate(-15.321 -158.948)" fill="#3c589f"/>
      <path id="Trazado_194704" data-name="Trazado 194704" d="M133.938,231.528q2.634,0,5.268,0a2.731,2.731,0,0,0,1.2-.09l-6.429,0c-.013.031-.03.06-.044.091" transform="translate(-85.375 -147.521)" fill="#3c589f"/>
      <path id="Trazado_194705" data-name="Trazado 194705" d="M24.145,288.683c-.049-.08-.1-.162-.144-.243-.005.18-.011.36-.019.54a1.629,1.629,0,0,0,.187-.251l-.024-.046" transform="translate(-15.287 -183.857)" fill="#3c589f"/>
      <path id="Trazado_194706" data-name="Trazado 194706" d="M217.017,196.735h0c-3.358,1.327-6.615-1.012-5.862-4.977a63.365,63.365,0,0,0-12.617-6.7c-4.736-1.867-7.433-5.671-8.577-10.6-.151-.649-.367-1.284-.552-1.925h0c-1.927,1.395-3,1.355-4.815-.166-.827-.692-1.666-1.37-2.5-2.054l-5.482,6.424c.309.693.927,1.207,1.1,1.986a3.639,3.639,0,0,1-1.311,3.737,3.45,3.45,0,0,1-3.929.1c-.344-.21-.673-.445-1.008-.669a7.433,7.433,0,0,0-6.211,2.156l-.01.025c1.509,1.9,2.27,3.893.85,6.2a8.305,8.305,0,0,1-1.841,1.863c10.425-.119,20.852,0,31.276-.034a3.95,3.95,0,0,1,3.983,3.574c.027.768.011,1.537.009,2.3a1.867,1.867,0,0,1-.082.56c.074.442.293.677.973.748a11.879,11.879,0,0,1,10.4,11.481c.022,6.1.012,12.2.015,18.3l0,0a3.863,3.863,0,0,1,3.662,2,67.029,67.029,0,0,0,16.9-22.452,49.788,49.788,0,0,1-5.079-4.091c-3.133-2.555-6.206-5.183-9.3-7.781" transform="translate(-104.698 -108.56)" fill="#73c2f8"/>
      <path id="Trazado_194707" data-name="Trazado 194707" d="M302.822,298.384c.045.082.09.166.132.254h0c.718-.611,1.466-1.191,2.15-1.838a67.849,67.849,0,0,0,14.889-20.7c-.091-.053-.177-.112-.266-.168a67.034,67.034,0,0,1-16.9,22.452" transform="translate(-193.025 -175.885)" fill="#73c2f8"/>
      <path id="Trazado_194708" data-name="Trazado 194708" d="M199.313,236.347a3.188,3.188,0,0,0,.036.445,1.865,1.865,0,0,0,.082-.56c0-.768.018-1.536-.009-2.3a3.95,3.95,0,0,0-3.983-3.574c-10.424.037-20.851-.085-31.276.034l-.05.043c0,.006,0,.011,0,.017.028.017.057.028.086.041h1.58q14.24,0,28.479.008c.525,0,1.091-.168,1.568.221h0a3.662,3.662,0,0,1,3.244,2.988h0c.509.838.22,1.76.242,2.64" transform="translate(-104.609 -146.819)" fill="#73c2f8"/>
      <path id="Trazado_194709" data-name="Trazado 194709" d="M183.589,332.349h0c-.541.015-1.081.043-1.622.043l-56.992,0c-.541,0-1.081.028-1.622.043a9.311,9.311,0,0,0-1.568,2.336c-.786,1.979.268,3.339,1.561,4.616l12.447.089a1.937,1.937,0,0,1,.762-.367,10.268,10.268,0,0,1,2.028-.105q19.98,0,39.959.009a3.844,3.844,0,0,1,2.2.265,43.368,43.368,0,0,0,6.447-4.881,12.129,12.129,0,0,0-3.6-2.051" transform="translate(-77.454 -211.846)" fill="#fedc40"/>
      <path id="Trazado_194710" data-name="Trazado 194710" d="M284.87,342.887a1.7,1.7,0,0,1,.249.193,36.016,36.016,0,0,0,6.392-4.875c-.062-.073-.13-.132-.195-.2a43.415,43.415,0,0,1-6.447,4.881" transform="translate(-181.582 -215.452)" fill="#fedc40"/>
      <path id="Trazado_194711" data-name="Trazado 194711" d="M205.843,350.946a3.847,3.847,0,0,0-2.2-.265q-19.98-.022-39.959-.008a10.272,10.272,0,0,0-2.028.106,1.941,1.941,0,0,0-.762.366l.3,0c6.987-.017,13.974-.048,20.961-.049q11.694,0,23.388.04c.057-.038.114-.074.171-.112s.086-.054.13-.08" transform="translate(-102.555 -223.511)" fill="#fedc40"/>
      <path id="Trazado_194712" data-name="Trazado 194712" d="M284.212,351.547c-.057.038-.114.074-.171.112h.55a1.715,1.715,0,0,0-.249-.193c-.044.026-.086.054-.13.08" transform="translate(-181.053 -224.032)" fill="#fedc40"/>
      <path id="Trazado_194713" data-name="Trazado 194713" d="M292.722,332.349a12.128,12.128,0,0,1,3.6,2.051l.022-.019.041-.036a3.864,3.864,0,0,0-3.662-2" transform="translate(-186.587 -211.846)" fill="#fedc40"/>
      <path id="Trazado_194714" data-name="Trazado 194714" d="M302.712,337.854l-.041.036-.022.019c.065.067.133.127.195.2-.042-.088-.087-.171-.132-.254" transform="translate(-192.914 -215.355)" fill="#fedc40"/>
      <path id="Trazado_194715" data-name="Trazado 194715" d="M202.97,9.217q4.155,3.428,8.309,6.857c.588.485,1.171.977,1.743,1.481.284.251.389.632-.066.706-2,.322-2.7,1.7-3.007,3.469-.026.154-.206.283-.314.423l.319.5h0q6.44,5.35,12.881,10.7c1.153.956,2.318,1.9,3.479,2.842-.443-2.166-.533-4.282.973-6.168a1.153,1.153,0,0,1,.246-.143,1.544,1.544,0,0,0-.585-.814q-6.159-5.093-12.311-10.193c-1.277-1.059-1.284-4.176-.021-5.652a5.669,5.669,0,0,1,4.021-2.2c.292-.019.542-.059.672-.267l-.124-.109c-3.276-2.684-6.49-5.442-9.732-8.166-1.585-1.332-3.284-1.946-5.226-1.033a4.346,4.346,0,0,0-2.531,4.779.974.974,0,0,1-.16.762,3.168,3.168,0,0,1,1.435,2.223" transform="translate(-128.462 -0.649)" fill="#3c589f"/>
      <path id="Trazado_194716" data-name="Trazado 194716" d="M201.252,5.582A4.346,4.346,0,0,1,203.784.8c1.942-.913,3.64-.3,5.225,1.032,3.242,2.724,6.456,5.483,9.733,8.166l.124.11a.662.662,0,0,0,.09-.3c-3.438-2.9-6.844-5.851-10.327-8.7a4.649,4.649,0,0,0-6.559.516,4.92,4.92,0,0,0-1.051,4.658c.026.017.049.036.074.054a.975.975,0,0,0,.159-.762" transform="translate(-128.021 0)" fill="#3c589f"/>
      <path id="Trazado_194717" data-name="Trazado 194717" d="M202.93,19.721a3.168,3.168,0,0,0-1.435-2.223l-.023.025,1.366,2.122.092.076" transform="translate(-128.422 -11.154)" fill="#3c589f"/>
      <path id="Trazado_194718" data-name="Trazado 194718" d="M201.4,17.4c-.025-.017-.048-.037-.074-.054l.051.079.023-.025" transform="translate(-128.332 -11.059)" fill="#3c589f"/>
      <path id="Trazado_194719" data-name="Trazado 194719" d="M270.626,80.815a1.139,1.139,0,0,0-.03-.188,1.173,1.173,0,0,0-.246.144c-1.506,1.886-1.417,4-.973,6.168l.383.311a7.809,7.809,0,0,1,.867-6.435" transform="translate(-171.524 -51.393)" fill="#3c589f"/>
      <path id="Trazado_194720" data-name="Trazado 194720" d="M240.66,28.732a13.238,13.238,0,0,0-1.439.357,4.977,4.977,0,0,0-3.265,5.569,2.479,2.479,0,0,0,1.028,1.523c3.921,3.238,7.832,6.487,11.691,9.8.407.349,1.01.622.858,1.278.493-.145.947.158,1.417.334a4.358,4.358,0,0,0,6.081-3.3,4.085,4.085,0,0,0-1.326-3.789c-2.011-2.008-4.3-3.693-6.463-5.528q-2.161-1.835-4.319-3.675c-.323-.277-.794-.489-.9-.961a13.252,13.252,0,0,1-2.639-2.005c-.066.27-.43.324-.727.4" transform="translate(-150.358 -18.062)" fill="#4f71b5"/>
      <path id="Trazado_194721" data-name="Trazado 194721" d="M250.894,27.531a13.252,13.252,0,0,0,2.638,2.005.921.921,0,0,1-.021-.266l-2.711-2.2a.689.689,0,0,1,.093.458" transform="translate(-159.866 -17.257)" fill="#4f71b5"/>
      <path id="Trazado_194722" data-name="Trazado 194722" d="M259.232,34.826q2.152,1.845,4.319,3.675c2.161,1.835,4.453,3.52,6.464,5.528a4.085,4.085,0,0,1,1.326,3.789,4.358,4.358,0,0,1-6.081,3.3c-.47-.175-.924-.479-1.417-.334a1.215,1.215,0,0,1-.075.227c.512-.166.837.224,1.235.406a4.726,4.726,0,0,0,5.547-1.156,4.6,4.6,0,0,0,.542-5.495,8.86,8.86,0,0,0-2.044-2.142c-3.393-2.882-6.812-5.735-10.223-8.6a3.518,3.518,0,0,0-.42-.123c-.024-.012-.046-.026-.07-.038.1.472.574.685.9.961" transform="translate(-164.668 -21.586)" fill="#4f71b5"/>
      <path id="Trazado_194723" data-name="Trazado 194723" d="M258.364,33.436a3.537,3.537,0,0,1,.42.123l-.511-.428a.92.92,0,0,0,.021.266c.024.012.046.026.07.038" transform="translate(-164.627 -21.118)" fill="#4f71b5"/>
      <path id="Trazado_194724" data-name="Trazado 194724" d="M239.976,28.156a5.668,5.668,0,0,0-4.021,2.2c-1.262,1.476-1.256,4.594.021,5.652q6.153,5.1,12.311,10.193a1.543,1.543,0,0,1,.585.813.959.959,0,0,1,.1-.038c.152-.656-.451-.929-.858-1.278-3.859-3.311-7.771-6.56-11.691-9.8a2.478,2.478,0,0,1-1.028-1.523,4.977,4.977,0,0,1,3.265-5.569,13.323,13.323,0,0,1,1.439-.357c.3-.072.66-.125.727-.4l-.183-.162c-.13.208-.38.248-.672.267" transform="translate(-149.802 -17.777)" fill="#4f71b5"/>
      <path id="Trazado_194725" data-name="Trazado 194725" d="M250.552,27.369l.183.162a.689.689,0,0,0-.092-.458h0a.656.656,0,0,1-.09.3" transform="translate(-159.707 -17.257)" fill="#4f71b5"/>
      <path id="Trazado_194726" data-name="Trazado 194726" d="M273.343,80.521a.965.965,0,0,0-.105.038,1.1,1.1,0,0,1,.03.188,1.228,1.228,0,0,0,.075-.226" transform="translate(-174.167 -51.326)" fill="#4f71b5"/>
      <path id="Trazado_194727" data-name="Trazado 194727" d="M110.493,352.174l.044-.037a1.617,1.617,0,0,1-.509.094c-3.749,0-7.5.163-11.247-.086a6.129,6.129,0,0,1-.614-.372q-7.155.028-14.31.058c-.475,0-.951.016-1.426.029a66.213,66.213,0,0,0,28.286,10.513,6.542,6.542,0,0,1-.223-10.2" transform="translate(-52.543 -224.227)" fill="#1c2e7a"/>
      <path id="Trazado_194728" data-name="Trazado 194728" d="M81.617,352.014l-.462.012a50.68,50.68,0,0,0,9.326,5.32,61.4,61.4,0,0,0,19.847,5.523c-.148-.111-.288-.226-.424-.342a66.208,66.208,0,0,1-28.286-10.513" transform="translate(-51.73 -224.381)" fill="#1c2e7a"/>
      <path id="Trazado_194729" data-name="Trazado 194729" d="M155.763,352.294l-.044.037a6.542,6.542,0,0,0,.223,10.2c.185.023.368.051.553.073a.636.636,0,0,0-.23-.243,6.189,6.189,0,0,1-2.328-6.564c.309-1.666,1.524-2.6,2.47-3.777a5.965,5.965,0,0,1-.645.274" transform="translate(-97.769 -224.385)" fill="#1c2e7a"/>
      <path id="Trazado_194730" data-name="Trazado 194730" d="M161,381.082c-.185-.022-.368-.05-.553-.073.137.117.277.231.424.342.128-.107.154-.193.129-.269" transform="translate(-102.27 -242.863)" fill="#1c2e7a"/>
      <path id="Trazado_194731" data-name="Trazado 194731" d="M125.831,351.771a6.118,6.118,0,0,0,.614.372c3.747.249,7.5.083,11.247.086a1.613,1.613,0,0,0,.509-.094q.167-.147.342-.276L126.1,351.77h-.266" transform="translate(-80.207 -224.225)" fill="#1c2e7a"/>
      <path id="Trazado_194732" data-name="Trazado 194732" d="M159.947,352.29a5.971,5.971,0,0,0,.645-.274l-.3,0q-.176.129-.342.276" transform="translate(-101.953 -224.381)" fill="#1c2e7a"/>
      <path id="Trazado_194733" data-name="Trazado 194733" d="M325.71,230.66c-1.666-1.435-3.41-2.786-5.01-4.291-2.144-2.015-2.2-3.535-.483-5.895a5.637,5.637,0,0,1,1.366-1.488c-1.048-1.066-2.336-1.867-3.332-2.991a18.894,18.894,0,0,1-2.813,3.7,45.4,45.4,0,0,1-5.27,6.031,2.229,2.229,0,0,1,.673.407c4.462,3.619,8.781,7.408,13.231,11.041a2.456,2.456,0,0,1,.4.423,58.529,58.529,0,0,0,2.2-5.529l.1-.32a3.774,3.774,0,0,0-1.059-1.091" transform="translate(-197.707 -137.68)" fill="#2a428b"/>
      <path id="Trazado_194734" data-name="Trazado 194734" d="M351.808,259.768a58.581,58.581,0,0,1-2.2,5.529,3.085,3.085,0,0,1,.207.3,34.082,34.082,0,0,0,2.231-5.67,1.41,1.41,0,0,0-.137-.474l-.1.32" transform="translate(-222.848 -165.377)" fill="#2a428b"/>
      <path id="Trazado_194735" data-name="Trazado 194735" d="M332.46,215.69c1,1.124,2.285,1.925,3.332,2.991.07-.047.142-.092.218-.133h0a25.967,25.967,0,0,0-3.466-3.031h0c-.026.06-.057.115-.084.173" transform="translate(-211.917 -137.374)" fill="#2a428b"/>
      <path id="Trazado_194736" data-name="Trazado 194736" d="M323.823,254.287c-4.45-3.633-8.769-7.422-13.231-11.041a2.225,2.225,0,0,0-.674-.407c-.048.041-.093.086-.141.127,3.1,2.6,6.17,5.227,9.3,7.781a49.8,49.8,0,0,0,5.079,4.091l.033-.067.027-.061a2.473,2.473,0,0,0-.4-.423" transform="translate(-197.458 -154.791)" fill="#2a428b"/>
      <path id="Trazado_194737" data-name="Trazado 194737" d="M349.477,275.641l-.033.067c.09.055.176.115.266.168a3.073,3.073,0,0,0-.207-.3l-.027.061" transform="translate(-222.743 -175.66)" fill="#2a428b"/>
      <path id="Trazado_194738" data-name="Trazado 194738" d="M68.687,339.016c4.288-.018,8.575-.007,12.863-.011a4.479,4.479,0,0,1,1.307.181c-2.309-1.807-2.151-4.766.468-6.772l-.22-.07H83.1a.923.923,0,0,1-.068.161,3.052,3.052,0,0,1-1.832.322q-10.473.012-20.945.008a5.741,5.741,0,0,1-1.429-.146,64.873,64.873,0,0,0,8.293,6.617,2.465,2.465,0,0,1,1.569-.29" transform="translate(-37.496 -211.843)" fill="#feb232"/>
      <path id="Trazado_194739" data-name="Trazado 194739" d="M57.644,332.862a3.264,3.264,0,0,1-.672-.247,50.414,50.414,0,0,0,8.768,7.046,1.319,1.319,0,0,1,.2-.183,64.9,64.9,0,0,1-8.293-6.616" transform="translate(-36.315 -212.016)" fill="#feb232"/>
      <path id="Trazado_194740" data-name="Trazado 194740" d="M80.746,332.828a3.054,3.054,0,0,0,1.832-.322.952.952,0,0,0,.069-.161c-1.212.015-2.423.041-3.635.044q-10.449.03-20.9.053c.085.083.172.165.258.248a5.74,5.74,0,0,0,1.43.146q10.472-.008,20.945-.008" transform="translate(-37.043 -211.843)" fill="#feb232"/>
      <path id="Trazado_194741" data-name="Trazado 194741" d="M57.386,332.612h-.414a3.305,3.305,0,0,0,.672.247c-.086-.083-.173-.165-.258-.248" transform="translate(-36.315 -212.014)" fill="#feb232"/>
      <path id="Trazado_194742" data-name="Trazado 194742" d="M121.222,334.895a9.311,9.311,0,0,1,1.568-2.336l-.067-.021c-2.619,2.005-2.777,4.964-.468,6.772a3.538,3.538,0,0,1,.529.2c-1.294-1.277-2.347-2.637-1.561-4.615" transform="translate(-76.894 -211.966)" fill="#feb232"/>
      <path id="Trazado_194743" data-name="Trazado 194743" d="M97.7,351.1c-.094-.065-.176-.135-.263-.2a4.463,4.463,0,0,0-1.307-.181c-4.288,0-8.575-.007-12.863.011a2.465,2.465,0,0,0-1.569.289l.007,0c.086.057.173.11.259.166.475-.013.951-.027,1.426-.029q7.155-.033,14.31-.058" transform="translate(-52.075 -223.553)" fill="#feb232"/>
      <path id="Trazado_194744" data-name="Trazado 194744" d="M81.358,351.548l-.007,0a1.319,1.319,0,0,0-.2.183l.462-.012c-.086-.056-.173-.109-.259-.166" transform="translate(-51.73 -224.081)" fill="#feb232"/>
      <path id="Trazado_194745" data-name="Trazado 194745" d="M125.105,351.213c.087.068.169.138.263.2h.266a3.556,3.556,0,0,0-.529-.2" transform="translate(-79.744 -223.87)" fill="#feb232"/>
      <path id="Trazado_194746" data-name="Trazado 194746" d="M343.95,229.55c-2.05-1.635-3.971-3.424-6.041-5.035a20.449,20.449,0,0,1-1.489,1.924,3.391,3.391,0,0,0,.36,4.766c1.661,1.724,3.627,3.1,5.4,4.7a3.454,3.454,0,0,1,.912.937,65.529,65.529,0,0,0,1.846-6.7c-.422.021-.685-.343-.992-.587" transform="translate(-213.925 -143.11)" fill="#3c589f"/>
      <path id="Trazado_194747" data-name="Trazado 194747" d="M356.254,246.616a1.068,1.068,0,0,1,.028.818,34.519,34.519,0,0,0,2.092-7.578.815.815,0,0,1-.275.059,65.472,65.472,0,0,1-1.846,6.7" transform="translate(-227.083 -152.889)" fill="#3c589f"/>
      <path id="Trazado_194748" data-name="Trazado 194748" d="M342.058,223.877c-.032.08-.071.156-.111.231,2.07,1.611,3.992,3.4,6.041,5.035.307.245.57.608.992.587.008-.041.018-.082.026-.123l.022-.1c-.283-.207-.567-.412-.844-.627-2.087-1.611-3.946-3.5-6.126-5" transform="translate(-217.964 -142.704)" fill="#3c589f"/>
      <path id="Trazado_194749" data-name="Trazado 194749" d="M361.393,239.4c-.008.034-.014.068-.022.1s-.018.082-.026.123a.819.819,0,0,0,.275-.059h0l-.227-.166" transform="translate(-230.328 -152.597)" fill="#3c589f"/>
      <path id="Trazado_194750" data-name="Trazado 194750" d="M341.5,235.728c-1.776-1.594-3.743-2.973-5.4-4.7a3.391,3.391,0,0,1-.36-4.766,20.389,20.389,0,0,0,1.489-1.923l-.04-.033c-.022-.023-.045-.043-.067-.066a5.642,5.642,0,0,0-1.366,1.488c-1.715,2.36-1.661,3.88.483,5.895,1.6,1.5,3.344,2.856,5.01,4.291a3.763,3.763,0,0,1,1.058,1.091l.109-.344a3.454,3.454,0,0,0-.912-.937" transform="translate(-213.242 -142.938)" fill="#3c589f"/>
      <path id="Trazado_194751" data-name="Trazado 194751" d="M356.062,258.5l-.109.344a1.408,1.408,0,0,1,.137.474,1.068,1.068,0,0,0-.028-.818" transform="translate(-226.891 -164.772)" fill="#3c589f"/>
      <path id="Trazado_194752" data-name="Trazado 194752" d="M341.651,224.01c.022.022.045.043.067.065l.041.033c.039-.075.078-.151.11-.231-.076.041-.148.086-.218.133" transform="translate(-217.775 -142.704)" fill="#3c589f"/>
      <path id="Trazado_194753" data-name="Trazado 194753" d="M111.638,75.846h0c.2-1.76,0-3.694,2.132-4.563,1.339-.545,2.491-.822,3.8.347,3.487,3.11,7.085,6.1,10.7,9.061a53.84,53.84,0,0,0,5.8,4.654c.19-.926.962-1.478,1.534-2.119,1.331-1.492,2.306-3.309,4.017-4.457h0a13.961,13.961,0,0,1,10.351-12.933c.271-.073.54-.157.809-.238,0-.009.011-.023.025-.048a23.194,23.194,0,0,1,5.524-6.614c-2.478-2.114-4.945-4.24-7.436-6.337-3.059-2.574-6.149-5.111-9.2-7.689-.819-.691-.7-2.536.164-3.615a3.943,3.943,0,0,1,2.228-1.45,6.308,6.308,0,0,0,1.4-.524.943.943,0,0,1-.22-.621l.017-.083c-4.189-3.412-8.35-6.856-12.41-10.421l-.127-.01a3.15,3.15,0,0,1-1.328-.6,3.173,3.173,0,0,0-3.98.222,3.378,3.378,0,0,0-.59,3.963,3.919,3.919,0,0,1,.482,1.1c-.011.062-.032.117-.048.176a33.789,33.789,0,0,1,4.267,3.387c2.776,2.214,5.462,4.54,8.182,6.824a3.846,3.846,0,0,1,.38.446c-.665.358-1.189-.087-1.726-.138-2.71-.256-4.352,1.306-5.827,3.245-3.488,4.586-7.3,8.905-11.083,13.241-1.1,1.254-2.234,2.478-3.227,3.81a4.885,4.885,0,0,0-.825,4.727c.158.453.33.9.632,1.722-3.018-2.509-5.772-4.729-8.442-7.047-1.452-1.26-3.124-2.285-4.3-3.851a1.227,1.227,0,0,1-.153.075,3.068,3.068,0,0,1-1.424-.309,3.273,3.273,0,0,0-3.579,1.142,3.453,3.453,0,0,0,.224,4.007,4.763,4.763,0,0,1,.846,1.035c.022.1.043.193.064.289L111.4,75.838a.618.618,0,0,0,.242.009" transform="translate(-62.218 -17.209)" fill="#feb232"/>
      <path id="Trazado_194754" data-name="Trazado 194754" d="M98.566,121.007a4.762,4.762,0,0,0-.846-1.035,3.453,3.453,0,0,1-.224-4.007,3.273,3.273,0,0,1,3.579-1.143,3.067,3.067,0,0,0,1.424.309,1.28,1.28,0,0,0,.153-.074c-.029-.039-.062-.074-.09-.114-.447.094-.743-.246-1.107-.389a3.5,3.5,0,0,0-4.866,3.393A4.226,4.226,0,0,0,98.277,121h0l.352.3c-.021-.1-.042-.193-.064-.289" transform="translate(-61.567 -72.844)" fill="#feb232"/>
      <path id="Trazado_194755" data-name="Trazado 194755" d="M171.83,32.2a3.925,3.925,0,0,0-.482-1.1,3.378,3.378,0,0,1,.59-3.963,3.173,3.173,0,0,1,3.98-.222,3.15,3.15,0,0,0,1.329.6l.127.01c-.117-.1-.235-.2-.352-.305h0l-.772-.532a3.477,3.477,0,0,0-4.036-.2,3.523,3.523,0,0,0-1.589,3.727c.127.846.765,1.4,1.1,2.123.021.011.04.025.06.036.015-.059.036-.114.048-.176" transform="translate(-108.726 -16.529)" fill="#feb232"/>
      <path id="Trazado_194756" data-name="Trazado 194756" d="M244.29,121.7c-.014.025-.021.038-.026.048l.094-.028,5.5-6.593-.048-.041a23.2,23.2,0,0,0-5.524,6.615" transform="translate(-155.699 -73.359)" fill="#feb232"/>
      <path id="Trazado_194757" data-name="Trazado 194757" d="M203.727,169.787h0c-1.711,1.148-2.686,2.965-4.017,4.457-.571.641-1.344,1.192-1.534,2.118.02.012.039.026.059.038l5.482-6.423c0-.063.008-.127.011-.19" transform="translate(-126.321 -108.226)" fill="#feb232"/>
      <path id="Trazado_194758" data-name="Trazado 194758" d="M223.516,59.134a.945.945,0,0,0,.22.621l.229-.11-.319-.5-.113-.093c-.005.028-.011.056-.016.084" transform="translate(-142.473 -37.64)" fill="#feb232"/>
      <path id="Trazado_194759" data-name="Trazado 194759" d="M125.447,80.114a5.467,5.467,0,0,1,1.016-6.105c4.055-4.78,8.2-9.483,12.183-14.326.832-1.012,1.6-2.067,2.432-3.082,1.791-2.195,3.442-2.845,6.347-2.4-3.777-3.2-7.572-6.326-11.309-9.519-.274-.234-.616-.416-.757-.774a7.33,7.33,0,0,1-1.838,2.475c-6.408,7.683-12.861,15.329-19.251,23.027a2.911,2.911,0,0,1-.809.762,28.559,28.559,0,0,1,3.515,2.872c2.855,2.348,5.7,4.713,8.472,7.067" transform="translate(-72.322 -27.989)" fill="#fe9000"/>
      <path id="Trazado_194760" data-name="Trazado 194760" d="M114.016,69.212c6.39-7.7,12.843-15.344,19.251-23.027a7.332,7.332,0,0,0,1.838-2.475.906.906,0,0,1-.039-.114c-1.255,1.482-2.519,2.956-3.764,4.447q-9.123,10.919-18.239,21.845c.049.028.095.059.144.087a2.91,2.91,0,0,0,.809-.763" transform="translate(-72.069 -27.788)" fill="#fe9000"/>
      <path id="Trazado_194761" data-name="Trazado 194761" d="M117.617,73.916c2.67,2.317,5.425,4.538,8.442,7.047-.3-.821-.473-1.269-.631-1.722a4.885,4.885,0,0,1,.825-4.728c.992-1.332,2.131-2.557,3.226-3.81,3.788-4.336,7.6-8.656,11.084-13.242,1.475-1.939,3.117-3.5,5.827-3.245.537.051,1.061.5,1.726.138a3.876,3.876,0,0,0-.38-.446c-2.72-2.284-5.406-4.611-8.182-6.824a33.8,33.8,0,0,0-4.268-3.386c-.007.026-.013.052-.021.078.141.358.483.54.757.774,3.737,3.193,7.533,6.315,11.309,9.519-2.9-.447-4.555.2-6.347,2.4-.828,1.014-1.6,2.07-2.432,3.082-3.982,4.843-8.128,9.546-12.183,14.326a5.467,5.467,0,0,0-1.016,6.105c-2.776-2.354-5.616-4.719-8.472-7.067a28.594,28.594,0,0,0-3.515-2.872c-.017.009-.036.017-.053.026,1.179,1.565,2.852,2.59,4.3,3.851" transform="translate(-72.228 -27.853)" fill="#fe9000"/>
      <path id="Trazado_194762" data-name="Trazado 194762" d="M173.806,43.632l-.06-.036a.893.893,0,0,0,.039.114c.007-.025.014-.051.021-.078" transform="translate(-110.749 -27.789)" fill="#fe9000"/>
      <path id="Trazado_194763" data-name="Trazado 194763" d="M113.208,116.2c-.049-.028-.094-.06-.144-.087.029.04.061.075.09.113.018-.008.036-.016.053-.026" transform="translate(-72.069 -74.011)" fill="#fe9000"/>
      <path id="Trazado_194764" data-name="Trazado 194764" d="M114.3,168.124a5.16,5.16,0,0,1,1.729-.018q-6.882-5.82-13.764-11.641-1.577-1.334-3.145-2.677a.477.477,0,0,1-.281.1c-.032-.021-.063-.045-.1-.067-.377.36-.91.367-1.36.561a2.531,2.531,0,0,0-1.85,2.784c.033.281.145.674-.249.82-.116.043-.335-.088-.46-.194q-4.474-3.774-8.932-7.568a1.9,1.9,0,0,1-.325-.425c-.531.234-.995-.115-1.489-.269a4.639,4.639,0,0,0-4.6.64,4.306,4.306,0,0,0-.332,6.365c2.059,2.154,4.523,3.853,6.741,5.834,1.085.969,2.223,1.879,3.338,2.819a5.675,5.675,0,0,0,.268-1.949c.35-2.352,1.932-3.408,3.868-4.266,1.586-.7,2.682-.111,3.9.945,3.588,3.121,7.274,6.13,10.952,9.146.646.529,1.037,1.4,1.985,1.544l.017-.016c.77-1.733,2.441-2.106,4.094-2.466" transform="translate(-49.655 -95.108)" fill="#3c589f"/>
      <path id="Trazado_194765" data-name="Trazado 194765" d="M85.257,161.709c-2.218-1.98-4.681-3.68-6.741-5.834a4.305,4.305,0,0,1,.332-6.364,4.638,4.638,0,0,1,4.6-.64c.495.154.958.5,1.489.269-.025-.038-.05-.076-.076-.112h0a2.951,2.951,0,0,1-.755-.22,4.922,4.922,0,0,0-6.385,1.375,4.845,4.845,0,0,0,1.1,6.519c3.159,2.739,6.4,5.385,9.6,8.071a1.482,1.482,0,0,0,.163-.245c-1.114-.94-2.253-1.851-3.338-2.819" transform="translate(-49.025 -94.449)" fill="#3c589f"/>
      <path id="Trazado_194766" data-name="Trazado 194766" d="M171.108,201.236c-1.653.36-3.324.734-4.094,2.466a7.432,7.432,0,0,1,6.211-2.156l-.388-.328a5.161,5.161,0,0,0-1.729.018" transform="translate(-106.458 -128.219)" fill="#3c589f"/>
      <path id="Trazado_194767" data-name="Trazado 194767" d="M135.728,161.709h0a.624.624,0,0,1-.242-.008,1.129,1.129,0,0,1-.085.083c.032.022.063.045.095.067a.482.482,0,0,0,.282-.1Z" transform="translate(-86.307 -103.071)" fill="#3c589f"/>
      <path id="Trazado_194768" data-name="Trazado 194768" d="M129.35,195.984c-.012-.5.366-.763.644-1.078,1.845-2.092,2-3.406.657-5.867a2.882,2.882,0,0,1-.364-.868c.032-.087.067-.168.1-.249l-.006-.008c-.592.392-.917-.111-1.267-.411-4.07-3.5-8.229-6.89-12.313-10.372a2.6,2.6,0,0,0-2.706-.629,5.328,5.328,0,0,0-4.232,4.848c-.045.408.173,1.008-.293,1.277l.015.012c4.749,3.677,9.224,7.681,13.858,11.493.278.229.554.465.818.709.373.346,1.122.578.881,1.185,0,.006-.006.009-.008.015l.01.009q2.1-.039,4.2-.066" transform="translate(-69.845 -112.415)" fill="#4f71b5"/>
      <path id="Trazado_194769" data-name="Trazado 194769" d="M123.7,205.862c-.264-.244-.54-.48-.818-.709-4.634-3.813-9.109-7.817-13.858-11.493l-.015-.012a.97.97,0,0,1-.322.112l15.886,13.3c0-.005.007-.009.009-.015.241-.607-.508-.839-.882-1.185" transform="translate(-69.279 -123.435)" fill="#4f71b5"/>
      <path id="Trazado_194770" data-name="Trazado 194770" d="M90.262,230.781q2.379-.077,4.758-.125-14.156-.016-28.312-.025c-.524,0-1.092-.168-1.561.237l24.847.034a2.467,2.467,0,0,1,.269-.121" transform="translate(-41.526 -146.986)" fill="#4f71b5"/>
      <path id="Trazado_194771" data-name="Trazado 194771" d="M186.511,230.695q-14.4-.013-28.806-.013a3,3,0,0,1-1.36-.1h-.156l.07-.059c0-.015,0-.028,0-.042q-2.1.025-4.2.066l.042.035h-.077a.574.574,0,0,1-.231.244l36.182-.015h0a3.015,3.015,0,0,0-1.46-.118" transform="translate(-96.754 -146.915)" fill="#4f71b5"/>
      <path id="Trazado_194772" data-name="Trazado 194772" d="M140.474,230.761H138.7q-2.379.052-4.758.125a2.389,2.389,0,0,0-.268.121h.139l6.43,0a.571.571,0,0,0,.231-.244" transform="translate(-85.207 -147.092)" fill="#4f71b5"/>
      <path id="Trazado_194773" data-name="Trazado 194773" d="M165.417,209.367c1.338,2.461,1.187,3.775-.657,5.867-.278.315-.657.581-.644,1.078h.05a8.305,8.305,0,0,0,1.841-1.863c1.421-2.3.659-4.3-.85-6.2-.035.081-.071.162-.1.249a2.88,2.88,0,0,0,.364.868" transform="translate(-104.61 -132.743)" fill="#4f71b5"/>
      <path id="Trazado_194774" data-name="Trazado 194774" d="M194.411,230.721q-14.24-.016-28.479-.008h-1.58a3,3,0,0,0,1.36.1q14.4.014,28.807.013a3.016,3.016,0,0,1,1.46.118c-.477-.389-1.043-.22-1.568-.221" transform="translate(-104.761 -147.043)" fill="#4f71b5"/>
      <path id="Trazado_194775" data-name="Trazado 194775" d="M164.114,230.525l.05-.042h-.05c0,.014,0,.027,0,.042" transform="translate(-104.61 -146.915)" fill="#4f71b5"/>
      <path id="Trazado_194776" data-name="Trazado 194776" d="M128.118,185.691c-3.678-3.016-7.364-6.025-10.951-9.146-1.215-1.057-2.311-1.648-3.9-.946-1.936.858-3.517,1.914-3.868,4.266a5.669,5.669,0,0,1-.268,1.95l.16.133c.466-.269.248-.869.293-1.277a5.328,5.328,0,0,1,4.232-4.848,2.6,2.6,0,0,1,2.706.629c4.083,3.482,8.243,6.873,12.313,10.372.35.3.675.8,1.267.411-.949-.14-1.34-1.015-1.986-1.544" transform="translate(-69.564 -111.736)" fill="#4f71b5"/>
      <path id="Trazado_194777" data-name="Trazado 194777" d="M108.848,193.279a1.467,1.467,0,0,1-.163.245.967.967,0,0,0,.322-.112l-.16-.133" transform="translate(-69.278 -123.2)" fill="#4f71b5"/>
      <path id="Trazado_194778" data-name="Trazado 194778" d="M61.789,232.239a3.042,3.042,0,0,1-1.6-.224c-.046.013-.092.023-.138.038-2.216.755-3.014,1.858-3.038,4.158a6.1,6.1,0,0,1-.129,1.916,4.151,4.151,0,0,1,1.933-.221q11.51-.011,23.021,0c.271,0,.543-.016.812,0,.887.064,1.239-.111.8-1.119a4.286,4.286,0,0,1,.87-4.662.97.97,0,0,1,.069-.07,4.151,4.151,0,0,1-1.472.194q-10.566,0-21.131-.008" transform="translate(-36.261 -147.891)" fill="#2a428b"/>
      <path id="Trazado_194779" data-name="Trazado 194779" d="M56.509,235.785c.023-2.3.822-3.4,3.038-4.158.046-.015.092-.025.138-.038a1.366,1.366,0,0,1-.309-.243,3.939,3.939,0,0,0-3.27,3.982c-.024.849-.008,1.7-.01,2.55a1.781,1.781,0,0,1,.285-.177,6.106,6.106,0,0,0,.129-1.916" transform="translate(-35.754 -147.465)" fill="#2a428b"/>
      <path id="Trazado_194780" data-name="Trazado 194780" d="M84.274,231.848c-.023.024-.048.044-.069.07a4.286,4.286,0,0,0-.871,4.662c.44,1.009.088,1.183-.8,1.119-.269-.019-.542,0-.812,0q-11.511,0-23.021,0a4.156,4.156,0,0,0-1.933.221c-.02.059-.042.119-.067.177h28.13a4.239,4.239,0,0,1-1.434-3.724c.113-1.055.9-1.776,1.308-2.683H84.6a2.258,2.258,0,0,1-.325.156" transform="translate(-36.143 -147.685)" fill="#2a428b"/>
      <path id="Trazado_194781" data-name="Trazado 194781" d="M133.793,231.442c-.049.034-.1.062-.15.091h.107C133.764,231.5,133.78,231.473,133.793,231.442Z" transform="translate(-85.187 -147.526)" fill="#2a428b"/>
      <path id="Trazado_194782" data-name="Trazado 194782" d="M56.1,249.05h.218c.026-.059.047-.118.067-.177a1.8,1.8,0,0,0-.285.177" transform="translate(-35.76 -158.637)" fill="#2a428b"/>
      <path id="Trazado_194783" data-name="Trazado 194783" d="M90.387,231.683q-11.187.007-22.375.008A7.563,7.563,0,0,0,66,231.8a3.038,3.038,0,0,0,1.6.224q10.565.022,21.131.008a4.149,4.149,0,0,0,1.472-.194,1.2,1.2,0,0,1,.186-.156" transform="translate(-42.07 -147.676)" fill="#2a428b"/>
      <path id="Trazado_194784" data-name="Trazado 194784" d="M67.467,231.48q11.187-.008,22.375-.008a1.6,1.6,0,0,1,.152-.091l-24.847-.034a1.368,1.368,0,0,0,.31.243,7.548,7.548,0,0,1,2.011-.109" transform="translate(-41.526 -147.465)" fill="#2a428b"/>
      <path id="Trazado_194785" data-name="Trazado 194785" d="M132.745,231.848a2.259,2.259,0,0,0,.325-.156h-.14a1.215,1.215,0,0,0-.185.156" transform="translate(-84.614 -147.685)" fill="#2a428b"/>
      <path id="Trazado_194786" data-name="Trazado 194786" d="M133.4,231.532c.05-.029.1-.057.15-.091h-.139a1.548,1.548,0,0,0-.152.091h.14" transform="translate(-84.941 -147.525)" fill="#2a428b"/>
      <path id="Trazado_194787" data-name="Trazado 194787" d="M201.529,35.64a2.615,2.615,0,0,1,.821.891c.36-1.794,1-3.388,3.165-3.933a9.468,9.468,0,0,0-2.376-2.245c-2.291-1.963-4.641-3.856-6.925-5.828a1.773,1.773,0,0,1-.464-.555c-1.039,1.643-2.759,1.985-4.484,2.292a4.3,4.3,0,0,1-1.032.03,20.524,20.524,0,0,1,3.092,2.491q4.08,3.454,8.2,6.857" transform="translate(-121.26 -15.279)" fill="#2a428b"/>
      <path id="Trazado_194788" data-name="Trazado 194788" d="M190.075,25.912c1.725-.307,3.445-.649,4.484-2.292a1.09,1.09,0,0,1-.076-.2c-1.65,1.818-3.8,2.251-6.118,2.191h0a5.829,5.829,0,0,1,.678.33,4.3,4.3,0,0,0,1.032-.03" transform="translate(-120.067 -14.929)" fill="#2a428b"/>
      <path id="Trazado_194789" data-name="Trazado 194789" d="M205.448,23.754a1.771,1.771,0,0,0,.464.554c2.284,1.973,4.633,3.866,6.925,5.829a9.467,9.467,0,0,1,2.376,2.245c-2.164.545-2.805,2.139-3.165,3.933a1.212,1.212,0,0,1,.082.251c.108-.141.288-.269.314-.423.3-1.769,1.01-3.147,3.007-3.469.455-.073.35-.455.066-.706-.572-.5-1.155-1-1.743-1.481q-4.152-3.432-8.31-6.857c0,.027.011.052.014.079s-.02.029-.03.044" transform="translate(-130.957 -15.063)" fill="#2a428b"/>
      <path id="Trazado_194790" data-name="Trazado 194790" d="M205.314,23.62c.01-.015.02-.029.03-.044s-.01-.052-.014-.079l-.092-.076a1.09,1.09,0,0,0,.076.2" transform="translate(-130.823 -14.929)" fill="#2a428b"/>
      <path id="Trazado_194791" data-name="Trazado 194791" d="M201.776,40.572a2.616,2.616,0,0,0-.821-.891q-4.112-3.415-8.2-6.857a20.511,20.511,0,0,0-3.092-2.492c-.109-.007-.218-.015-.326-.024,4.06,3.566,8.221,7.01,12.41,10.421.01-.053.021-.106.031-.158" transform="translate(-120.686 -19.32)" fill="#2a428b"/>
      <path id="Trazado_194792" data-name="Trazado 194792" d="M189.043,29.8a5.8,5.8,0,0,0-.678-.33c.117.1.235.2.352.306.109.009.217.017.326.024" transform="translate(-120.068 -18.782)" fill="#2a428b"/>
      <path id="Trazado_194793" data-name="Trazado 194793" d="M223.562,58.772l.113.093a1.2,1.2,0,0,0-.082-.251c-.01.053-.021.105-.031.158" transform="translate(-142.503 -37.362)" fill="#2a428b"/>
      <path id="Trazado_194794" data-name="Trazado 194794" d="M108.607,147.924c.56-2.58,1.337-3.363,3.633-3.695-2.355-1.605-4.393-3.6-6.619-5.372-1.546-1.228-2.993-2.582-4.537-3.815a4.566,4.566,0,0,1-.744-.79c.426,2.087.441,4.115-1.03,5.93a.992.992,0,0,1-.113.058c1.61,1.069,2.954,2.465,4.47,3.652,1.658,1.3,3.194,2.751,4.94,4.032" transform="translate(-63.23 -85.576)" fill="#2a428b"/>
      <path id="Trazado_194795" data-name="Trazado 194795" d="M99.09,139.265c1.471-1.815,1.456-3.843,1.03-5.93-.134-.173-.265-.348-.4-.521h0a7.805,7.805,0,0,1-.869,6.423c.043.028.083.058.125.086a1,1,0,0,0,.114-.058" transform="translate(-63.01 -84.658)" fill="#2a428b"/>
      <path id="Trazado_194796" data-name="Trazado 194796" d="M103.011,134.647c1.544,1.233,2.99,2.587,4.537,3.814,2.226,1.768,4.264,3.767,6.619,5.372.057-.008.11-.017.168-.025l-12.116-10.177c.017.075.033.15.048.226a4.553,4.553,0,0,0,.744.79" transform="translate(-65.156 -85.179)" fill="#2a428b"/>
      <path id="Trazado_194797" data-name="Trazado 194797" d="M101.6,133.111l-.352-.3c.135.174.265.349.4.521q-.023-.113-.048-.226" transform="translate(-64.537 -84.659)" fill="#2a428b"/>
      <path id="Trazado_194798" data-name="Trazado 194798" d="M108.317,158.786c.125.106.344.236.46.194.395-.146.282-.54.249-.82a2.531,2.531,0,0,1,1.85-2.784c.45-.194.983-.2,1.36-.561l-.083-.058c-2.3.331-3.073,1.114-3.633,3.695-1.746-1.281-3.282-2.734-4.94-4.032-1.516-1.186-2.86-2.582-4.47-3.652-.016.008-.033.018-.05.025a1.935,1.935,0,0,0,.325.425q4.458,3.794,8.932,7.568" transform="translate(-63.143 -96.103)" fill="#2a428b"/>
      <path id="Trazado_194799" data-name="Trazado 194799" d="M98.927,150.642c.016-.007.033-.017.05-.025-.042-.028-.083-.059-.125-.086.026.036.051.074.076.112" transform="translate(-63.01 -95.951)" fill="#2a428b"/>
      <path id="Trazado_194800" data-name="Trazado 194800" d="M135.171,161.725c.028.019.055.04.083.058a1.022,1.022,0,0,0,.085-.083c-.059.008-.112.017-.168.025" transform="translate(-86.161 -103.071)" fill="#2a428b"/>
      <path id="Trazado_194801" data-name="Trazado 194801" d="M233.678,161.31c.608.257.628.86.733,1.365,1.23,5.935,4.766,9.717,10.483,11.687a40.048,40.048,0,0,1,9.843,5.375,2.361,2.361,0,0,1,.728.685c1.049-1.909,2.729-3.334,3.947-5.113h0c-.544-1.566-2.01-2.253-3.17-3.182A43.361,43.361,0,0,0,247.9,167c-3.9-1.883-4.486-5.762-2.117-8.9.934-1.235,1.878-2.463,2.818-3.693-.054-.023-.107-.048-.162-.07a14.486,14.486,0,0,0-5.782-1.2,3.474,3.474,0,0,1-1.594-.2.711.711,0,0,1-.2-.223c-2.5,2.785-4.881,5.667-7.215,8.59l.024,0" transform="translate(-148.936 -97.346)" fill="#2a428b"/>
      <path id="Trazado_194802" data-name="Trazado 194802" d="M253.748,152.832a3.476,3.476,0,0,0,1.594.2,14.484,14.484,0,0,1,5.781,1.2c.055.022.107.047.162.07l.2-.258c-.2-.105-.387-.224-.59-.314-2.323-1.037-4.816-1.035-7.284-1.181l-.055.062a.713.713,0,0,0,.195.223" transform="translate(-161.62 -97.237)" fill="#2a428b"/>
      <path id="Trazado_194803" data-name="Trazado 194803" d="M255.452,195.522a2.357,2.357,0,0,0-.728-.685,40.044,40.044,0,0,0-9.843-5.375c-5.716-1.969-9.253-5.752-10.483-11.687-.1-.505-.124-1.108-.733-1.365l-.024,0-.007.009c.186.641.4,1.276.552,1.925,1.145,4.926,3.84,8.73,8.577,10.6a63.382,63.382,0,0,1,12.617,6.7c.022-.042.049-.08.072-.122" transform="translate(-148.923 -112.446)" fill="#2a428b"/>
      <path id="Trazado_194804" data-name="Trazado 194804" d="M216.123,61.976a4.435,4.435,0,0,0-1.895,1,2.6,2.6,0,0,0,.121,4.2c5.04,4.242,10.1,8.462,15.134,12.711.286.241.625.459.6.894l.057-.048a2.848,2.848,0,0,1,1.158.323,3.1,3.1,0,0,0,3.6-1.072,3.191,3.191,0,0,0-.232-3.867,4.668,4.668,0,0,1-.832-1.188c-.77-.131-1.235-.793-1.786-1.25-4.938-4.091-9.818-8.252-14.757-12.342a1.822,1.822,0,0,1-1.162.639" transform="translate(-135.911 -39.097)" fill="#fedc40"/>
      <path id="Trazado_194805" data-name="Trazado 194805" d="M263.457,98.824a4.668,4.668,0,0,0,.832,1.188,3.191,3.191,0,0,1,.232,3.867,3.1,3.1,0,0,1-3.6,1.072,2.849,2.849,0,0,0-1.158-.323l-.057.048a.8.8,0,0,1-.006.086c.2.1.4.2.595.309a3.357,3.357,0,0,0,3.686-.16,3.409,3.409,0,0,0,1.468-3.393c-.1-1.194-.98-1.868-1.677-2.67h0a1.648,1.648,0,0,1-.316-.025" transform="translate(-165.539 -62.992)" fill="#fedc40"/>
      <path id="Trazado_194806" data-name="Trazado 194806" d="M239.189,73.266c.552.457,1.016,1.119,1.786,1.25,0-.009-.009-.017-.013-.026-.019-.087-.036-.173-.054-.26-1.161-.946-2.326-1.886-3.479-2.842q-6.445-5.343-12.881-10.7h0a1.115,1.115,0,0,1-.117.235c4.939,4.091,9.819,8.251,14.757,12.342" transform="translate(-143.057 -38.684)" fill="#fedc40"/>
      <path id="Trazado_194807" data-name="Trazado 194807" d="M269.942,98.32a1.647,1.647,0,0,0,.316.025l-.383-.311c.018.087.035.173.054.26,0,.009.009.017.013.026" transform="translate(-172.024 -62.489)" fill="#fedc40"/>
      <path id="Trazado_194808" data-name="Trazado 194808" d="M212.865,62.966c-.866,1.079-.982,2.923-.163,3.615,3.055,2.578,6.145,5.116,9.2,7.689,2.492,2.1,4.958,4.223,7.436,6.337l.054-.045c.028-.435-.31-.653-.6-.894-5.035-4.248-10.094-8.469-15.134-12.711a2.6,2.6,0,0,1-.121-4.2,4.437,4.437,0,0,1,1.895-1,1.823,1.823,0,0,0,1.162-.639l-.042-.035c-.025-.029-.047-.059-.07-.09a6.321,6.321,0,0,1-1.4.524,3.943,3.943,0,0,0-2.228,1.449" transform="translate(-135.227 -38.878)" fill="#fedc40"/>
      <path id="Trazado_194809" data-name="Trazado 194809" d="M259.57,115.009l.048.041a.694.694,0,0,0,.006-.086c-.018.014-.036.03-.054.045" transform="translate(-165.455 -73.28)" fill="#fedc40"/>
      <path id="Trazado_194810" data-name="Trazado 194810" d="M224.194,60.888l.042.035a1.125,1.125,0,0,0,.117-.235l-.229.11c.023.03.044.061.07.09" transform="translate(-142.861 -38.684)" fill="#fedc40"/>
      <path id="Trazado_194811" data-name="Trazado 194811" d="M265.615,161.366c-2.332,3.166-1.552,6.834,2,8.461a44.149,44.149,0,0,1,9.737,6.261c.724.6,1.583,1.124,1.761,2.169l.892-.881a20.834,20.834,0,0,1,3.178-3.526,30.281,30.281,0,0,1-5.079-5.312,33.793,33.793,0,0,1-3.191-4.7,14.45,14.45,0,0,0-6.588-6.219c-.067.48-.467.807-.743,1.168-.658.857-1.328,1.7-1.97,2.575" transform="translate(-168.461 -100.472)" fill="#3c589f"/>
      <path id="Trazado_194812" data-name="Trazado 194812" d="M275.424,157.017a14.453,14.453,0,0,1,6.589,6.219,33.733,33.733,0,0,0,3.19,4.7,30.283,30.283,0,0,0,5.079,5.312c.027-.021.052-.044.078-.065h0a61.291,61.291,0,0,1-9.107-11.674,11.749,11.749,0,0,0-5.834-4.834,1.03,1.03,0,0,1,0,.344" transform="translate(-175.558 -99.867)" fill="#3c589f"/>
      <path id="Trazado_194813" data-name="Trazado 194813" d="M266.759,169.972A43.365,43.365,0,0,1,275.1,175.1c1.16.929,2.626,1.616,3.17,3.182h0l.178-.177c-.178-1.045-1.037-1.571-1.761-2.169a44.144,44.144,0,0,0-9.737-6.261c-3.556-1.627-4.336-5.3-2-8.461.641-.87,1.312-1.718,1.97-2.575.277-.361.676-.687.743-1.168l-.2-.087c-.941,1.231-1.884,2.458-2.818,3.693-2.369,3.133-1.779,7.013,2.117,8.9" transform="translate(-167.795 -100.319)" fill="#3c589f"/>
      <path id="Trazado_194814" data-name="Trazado 194814" d="M275.078,157.017a1.031,1.031,0,0,0,0-.344l-.2.257.2.087" transform="translate(-175.212 -99.867)" fill="#3c589f"/>
      <path id="Trazado_194815" data-name="Trazado 194815" d="M223.8,134.229c-5.36,1.82-8.635,5.45-9.605,11.08a3.926,3.926,0,0,1-.431,1.484c.97.243,1.53,1.081,2.226,1.678,1.389,1.191,2.777,1.74,4.485.752a.8.8,0,0,1,.492-.06c-.116-.56.238-.92.562-1.286,1.839-2.081,3.572-4.249,5.354-6.379.349-.418.663-.911,1.279-.974-.131-.3.058-.628.143-.943A3.153,3.153,0,0,0,227.2,136c-.838-.7-1.922-1.192-2.346-2.322v-.01c-.243.369-.666.43-1.053.561" transform="translate(-136.258 -85.203)" fill="#fedc40"/>
      <path id="Trazado_194816" data-name="Trazado 194816" d="M244.346,133.5c.425,1.13,1.508,1.627,2.347,2.322a3.154,3.154,0,0,1,1.1,3.582c-.085.315-.273.64-.143.943.029,0,.055-.01.085-.011,1.125-2.149.914-3.244-.91-4.816-.814-.7-1.613-1.421-2.419-2.132a.894.894,0,0,1-.063.1s0,.005,0,.009" transform="translate(-155.751 -85.021)" fill="#fedc40"/>
      <path id="Trazado_194817" data-name="Trazado 194817" d="M220.772,172.239a.791.791,0,0,0-.492.06c-1.708.988-3.1.438-4.485-.752-.7-.6-1.256-1.434-2.226-1.678a1.785,1.785,0,0,1-.112.16c.834.684,1.673,1.362,2.5,2.054,1.817,1.52,2.889,1.561,4.815.166h0s0-.007,0-.01" transform="translate(-136.062 -108.278)" fill="#fedc40"/>
      <path id="Trazado_194818" data-name="Trazado 194818" d="M213.487,146.633c.036.007.066.021.1.029a3.917,3.917,0,0,0,.431-1.484c.971-5.631,4.246-9.26,9.606-11.08.387-.131.81-.193,1.053-.561.026-.129-.053-.028-.03-.075-.269.081-.537.165-.809.238a13.961,13.961,0,0,0-10.351,12.933" transform="translate(-136.081 -85.071)" fill="#fedc40"/>
      <path id="Trazado_194819" data-name="Trazado 194819" d="M244.289,133.486a.873.873,0,0,0,.063-.1l-.094.029c-.022.047.057-.054.031.075" transform="translate(-155.693 -85.021)" fill="#fedc40"/>
      <path id="Trazado_194820" data-name="Trazado 194820" d="M213.468,169.788c0,.063-.008.126-.011.19a1.842,1.842,0,0,0,.112-.16c-.034-.009-.065-.022-.1-.029" transform="translate(-136.062 -108.226)" fill="#fedc40"/>
      <path id="Trazado_194821" data-name="Trazado 194821" d="M239.5,153.551c-1.781,2.129-3.514,4.3-5.354,6.379-.323.365-.678.726-.562,1.286h.009c2.334-2.922,4.716-5.8,7.215-8.589a.566.566,0,0,1-.03-.051c-.615.063-.929.557-1.279.974" transform="translate(-148.88 -97.256)" fill="#fedc40"/>
      <path id="Trazado_194822" data-name="Trazado 194822" d="M253.5,152.609l.055-.062c-.03,0-.056.008-.084.011a.562.562,0,0,0,.03.051" transform="translate(-161.567 -97.237)" fill="#fedc40"/>
      <path id="Trazado_194823" data-name="Trazado 194823" d="M233.63,176.4s0,.007,0,.01h0l.007-.009h-.009" transform="translate(-148.92 -112.444)" fill="#fedc40"/>
      <path id="Trazado_194824" data-name="Trazado 194824" d="M307.667,205.941c.075,3.3,1.815,5.256,4.6,5.1a8.259,8.259,0,0,0,1.129-.174c.084-.1.168-.206.251-.31,1.073-1.1,1.842-2.462,2.962-3.524-.034-.04-.072-.077-.106-.117.021-1.207.12-2.415-.785-3.429a3.5,3.5,0,0,0-3.936-1.291,1.5,1.5,0,0,1-.794.066c-.044-.031-.085-.066-.128-.1a24.728,24.728,0,0,1-3.005,3.594,1.1,1.1,0,0,0-.191.187" transform="translate(-196.113 -128.762)" fill="#fedc40"/>
      <path id="Trazado_194825" data-name="Trazado 194825" d="M316.612,201.809a1.5,1.5,0,0,0,.795-.066,3.5,3.5,0,0,1,3.935,1.291c.905,1.014.806,2.223.785,3.43.034.041.071.077.106.117.043-.041.083-.085.128-.125.619-3.871-1.965-6.014-5.825-4.828-.016.029-.036.056-.052.085.044.032.084.066.128.1" transform="translate(-201.733 -128.313)" fill="#fedc40"/>
      <path id="Trazado_194826" data-name="Trazado 194826" d="M323.73,219.386c-.083.1-.168.207-.251.31.148-.029.3-.058.443-.083a18.906,18.906,0,0,0,2.813-3.7l-.044-.048c-1.119,1.062-1.888,2.422-2.962,3.524" transform="translate(-206.192 -137.595)" fill="#fedc40"/>
      <path id="Trazado_194827" data-name="Trazado 194827" d="M332.383,215.691c.027-.058.059-.113.085-.173-.045.04-.085.084-.128.125l.044.048" transform="translate(-211.84 -137.376)" fill="#fedc40"/>
      <path id="Trazado_194828" data-name="Trazado 194828" d="M307.647,205.906c0,.094.005.183.007.275a1.109,1.109,0,0,1,.191-.187,24.707,24.707,0,0,0,3.005-3.594l-.026-.02a20.834,20.834,0,0,0-3.178,3.526" transform="translate(-196.1 -129.001)" fill="#fedc40"/>
      <path id="Trazado_194829" data-name="Trazado 194829" d="M316.411,202.267l.026.02c.017-.029.036-.055.053-.084h0c-.027.021-.051.044-.078.065" transform="translate(-201.687 -128.888)" fill="#fedc40"/>
      <path id="Trazado_194830" data-name="Trazado 194830" d="M122.022,279.2c.136-.1.27-.207.42-.3a8.372,8.372,0,0,1,2.16-.137q27.6-.005,55.2,0a4.55,4.55,0,0,1,2.268.253,5.366,5.366,0,0,1-.178-1.983c-.006-5.2,0-10.394,0-15.591a11.47,11.47,0,0,0-9.7-11.629c-.8-.136-1.241-.378-1.4-.92a1.4,1.4,0,0,1-1.241.581c-.542.021-1.084.022-1.626.022-13.374,0-26.75.094-40.123-.048a7.923,7.923,0,0,0-8.288,8.225c-.045,5.424,0,10.848-.016,16.272a5.574,5.574,0,0,0,1.656,4.159c.279.278.789.523.62,1.046l0,0a.2.2,0,0,1,.251.047" transform="translate(-76.162 -158.647)" fill="#4f71b5"/>
      <path id="Trazado_194831" data-name="Trazado 194831" d="M292.685,332.331v0l-.016-.008.016.009" transform="translate(-186.553 -211.829)" fill="#4f71b5"/>
      <path id="Trazado_194832" data-name="Trazado 194832" d="M120.38,272.2a5.572,5.572,0,0,1-1.656-4.158c.011-5.424-.03-10.848.016-16.272a7.923,7.923,0,0,1,8.288-8.225c13.373.142,26.749.049,40.123.048.542,0,1.084,0,1.626-.022a1.4,1.4,0,0,0,1.241-.581,2.232,2.232,0,0,1-.057-.813,6.224,6.224,0,0,0-.1-2.542h0c0,.542-.008,1.085-.008,1.628,0,1.914,0,1.915-1.873,1.915q-20.885,0-41.771,0a6,6,0,0,0-1.742.152,8.27,8.27,0,0,0-6.149,8.1c-.024,5.472.046,10.944-.031,16.415a5.991,5.991,0,0,0,2.717,5.4c.169-.523-.342-.767-.62-1.046" transform="translate(-75.396 -152.749)" fill="#4f71b5"/>
      <path id="Trazado_194833" data-name="Trazado 194833" d="M262.368,249.335a11.47,11.47,0,0,1,9.7,11.629c.005,5.2,0,10.394,0,15.591a5.367,5.367,0,0,0,.178,1.983,1.952,1.952,0,0,1,.211.128l.016.008c0-6.1.007-12.2-.015-18.3a11.879,11.879,0,0,0-10.4-11.48c-.68-.071-.9-.306-.973-.748a1.212,1.212,0,0,1-.118.269c.157.542.6.784,1.4.92" transform="translate(-166.347 -158.173)" fill="#4f71b5"/>
      <path id="Trazado_194834" data-name="Trazado 194834" d="M260.631,242.179a2.23,2.23,0,0,0,.057.813,1.207,1.207,0,0,0,.118-.269,3.2,3.2,0,0,1-.036-.445c-.022-.88.267-1.8-.242-2.64a6.224,6.224,0,0,1,.1,2.542" transform="translate(-166.065 -152.749)" fill="#4f71b5"/>
      <path id="Trazado_194835" data-name="Trazado 194835" d="M186.536,331.513c0-.009-.006-.019-.009-.028a4.546,4.546,0,0,0-2.268-.254q-27.6-.014-55.2,0a8.359,8.359,0,0,0-2.16.137c-.149.1-.284.2-.419.3a.325.325,0,0,1,.037.044c.541-.015,1.081-.043,1.622-.043l56.991,0c.541,0,1.081-.028,1.622-.043l-.016-.009c-.067-.034-.135-.065-.2-.1" transform="translate(-80.622 -211.12)" fill="#4f71b5"/>
      <path id="Trazado_194836" data-name="Trazado 194836" d="M292.3,332.1a1.952,1.952,0,0,0-.211-.128c0,.009.006.019.01.028.066.035.135.066.2.1" transform="translate(-186.181 -211.603)" fill="#4f71b5"/>
      <path id="Trazado_194837" data-name="Trazado 194837" d="M125.79,332.3h0l.22.07.031-.022a.2.2,0,0,0-.251-.047" transform="translate(-80.181 -211.803)" fill="#4f71b5"/>
      <path id="Trazado_194838" data-name="Trazado 194838" d="M126.428,332.475l-.031.022.067.021a.322.322,0,0,0-.037-.044" transform="translate(-80.568 -211.926)" fill="#4f71b5"/>
      <path id="Trazado_194839" data-name="Trazado 194839" d="M157.648,162.6q-7.64-6.334-15.2-12.765a3.029,3.029,0,0,0-3.557-.536,2.67,2.67,0,0,0-1.8,2.32,5.594,5.594,0,0,1-.451,1.94c.348-.038.578.217.819.421,5.241,4.421,10.524,8.79,15.734,13.247.264.226.668.391.7.787a8.49,8.49,0,0,1,1.3.656,3.041,3.041,0,0,0,3.634-.309,3.5,3.5,0,0,0,.693-3.764,6,6,0,0,1-.6-1.352c0-.032.014-.059.019-.09-.607.282-.921-.248-1.291-.555" transform="translate(-87.1 -94.947)" fill="#fedc40"/>
      <path id="Trazado_194840" data-name="Trazado 194840" d="M189.216,188.064c-.005.031-.016.058-.019.09a5.983,5.983,0,0,0,.6,1.352,3.5,3.5,0,0,1-.694,3.764,3.04,3.04,0,0,1-3.634.309,8.426,8.426,0,0,0-1.3-.656.723.723,0,0,1-.025.256c.335.224.664.459,1.008.669a3.45,3.45,0,0,0,3.929-.1,3.64,3.64,0,0,0,1.311-3.737c-.175-.779-.793-1.293-1.1-1.986h0c-.025.014-.05.024-.074.036" transform="translate(-117.378 -119.853)" fill="#fedc40"/>
      <path id="Trazado_194841" data-name="Trazado 194841" d="M142.237,148.66c-1.311-1.169-2.464-.892-3.8-.347-2.135.869-1.935,2.8-2.132,4.563a.67.67,0,0,1,.124-.022,5.579,5.579,0,0,0,.452-1.94,2.668,2.668,0,0,1,1.8-2.32,3.03,3.03,0,0,1,3.557.536q7.546,6.445,15.2,12.765c.37.307.683.837,1.291.555,0-.025.011-.049.016-.074a53.843,53.843,0,0,1-5.8-4.654c-3.615-2.962-7.213-5.951-10.7-9.061" transform="translate(-86.882 -94.238)" fill="#fedc40"/>
      <path id="Trazado_194842" data-name="Trazado 194842" d="M198.148,187.923c-.005.025-.012.049-.016.074.025-.011.049-.022.075-.036l-.059-.038" transform="translate(-126.293 -119.786)" fill="#fedc40"/>
      <path id="Trazado_194843" data-name="Trazado 194843" d="M153.068,175.323c-5.21-4.458-10.493-8.827-15.734-13.248-.242-.2-.471-.459-.82-.421,0,.007-.005.015-.008.021a.506.506,0,0,1-.066.044q1.572,1.339,3.145,2.677,6.881,5.822,13.764,11.641c.087.011.174.02.26.032.053.011.1.026.154.041-.027-.4-.431-.561-.7-.787" transform="translate(-86.97 -103.039)" fill="#fedc40"/>
      <path id="Trazado_194844" data-name="Trazado 194844" d="M183.489,201.4c-.051-.015-.1-.03-.154-.041-.086-.012-.173-.021-.26-.032l.388.328a.726.726,0,0,0,.026-.256" transform="translate(-116.696 -128.332)" fill="#fedc40"/>
      <path id="Trazado_194845" data-name="Trazado 194845" d="M136.425,161.661a.732.732,0,0,0-.124.022h0l.05.042a.476.476,0,0,0,.065-.044c0-.007.005-.014.009-.021" transform="translate(-86.881 -103.046)" fill="#fedc40"/>
      <path id="Trazado_194846" data-name="Trazado 194846" d="M300.24,217.617a3.818,3.818,0,0,1-1.5-4.153,1.041,1.041,0,0,1-.744.559c-.529,1.4-1.684,2.353-2.594,3.469-.47.577-.772,1.337-1.48,1.711v0a3.617,3.617,0,0,1,.179,1.315,3.6,3.6,0,0,0,4.375,3.647,4.758,4.758,0,0,1,1.059-.113,1.213,1.213,0,0,1,.224.048,48.634,48.634,0,0,1,3.2-3.845c.478-.637.993-1.249,1.5-1.867a3.98,3.98,0,0,1-4.218-.772" transform="translate(-187.35 -136.066)" fill="#feb232"/>
      <path id="Trazado_194847" data-name="Trazado 194847" d="M299.367,234.189a1.273,1.273,0,0,0-.224-.048,4.78,4.78,0,0,0-1.06.113,3.6,3.6,0,0,1-4.375-3.646,3.627,3.627,0,0,0-.179-1.315h0c-.038.02-.072.044-.112.061-.753,3.966,2.5,6.3,5.862,4.977h0c.028-.049.06-.093.088-.14" transform="translate(-186.96 -146.155)" fill="#feb232"/>
      <path id="Trazado_194848" data-name="Trazado 194848" d="M313.22,228.379a48.647,48.647,0,0,0-3.2,3.845c.018.005.036.008.053.014a45.394,45.394,0,0,0,5.27-6.031,4.786,4.786,0,0,1-.623.3c-.507.619-1.023,1.231-1.5,1.867" transform="translate(-197.613 -144.189)" fill="#feb232"/>
      <path id="Trazado_194849" data-name="Trazado 194849" d="M309.777,242.941h0c.049-.041.094-.085.142-.127-.017-.006-.036-.008-.053-.014-.029.048-.061.092-.088.14" transform="translate(-197.458 -154.766)" fill="#feb232"/>
      <path id="Trazado_194850" data-name="Trazado 194850" d="M295.327,218.475c.91-1.116,2.066-2.067,2.594-3.469a.858.858,0,0,1-.166.005c-1.218,1.78-2.9,3.2-3.948,5.113.013.021.029.038.04.061.708-.374,1.01-1.134,1.48-1.711" transform="translate(-187.278 -137.049)" fill="#feb232"/>
      <path id="Trazado_194851" data-name="Trazado 194851" d="M293.682,229.124c-.023.041-.049.08-.072.122.04-.017.074-.041.112-.061-.012-.022-.028-.04-.04-.061" transform="translate(-187.153 -146.048)" fill="#feb232"/>
      <path id="Trazado_194852" data-name="Trazado 194852" d="M305.155,213.156a1.04,1.04,0,0,0,.744-.559c.045-.162.1-.326.16-.493l-.892.881c.006.032.017.061.021.094s-.023.05-.033.077" transform="translate(-194.512 -135.199)" fill="#feb232"/>
      <path id="Trazado_194853" data-name="Trazado 194853" d="M304.9,214.628c0-.033-.015-.062-.021-.094l-.178.177a.828.828,0,0,0,.166-.006c.01-.026.023-.05.033-.076" transform="translate(-194.219 -136.748)" fill="#feb232"/>
      <path id="Trazado_194854" data-name="Trazado 194854" d="M307.11,212.862c-.058.069-.113.143-.167.218a3.817,3.817,0,0,0,1.5,4.153,3.979,3.979,0,0,0,4.218.772c.061-.073.12-.148.18-.221a8.254,8.254,0,0,1-1.129.174c-2.79.16-4.53-1.8-4.6-5.1" transform="translate(-195.556 -135.683)" fill="#feb232"/>
      <path id="Trazado_194855" data-name="Trazado 194855" d="M323.164,226.29l-.18.222a4.858,4.858,0,0,0,.623-.3c-.148.025-.3.054-.443.083" transform="translate(-205.877 -144.189)" fill="#feb232"/>
      <path id="Trazado_194856" data-name="Trazado 194856" d="M307.373,212.379c0-.092-.008-.181-.007-.275a5.044,5.044,0,0,0-.16.493c.054-.075.109-.149.167-.218" transform="translate(-195.819 -135.199)" fill="#feb232"/>
    </g>
  </g>
</svg>
