<svg id="Grupo_881567" data-name="Grupo 881567" xmlns="http://www.w3.org/2000/svg" xmlns:xlink="http://www.w3.org/1999/xlink" width="95" height="90.806" viewBox="0 0 95 90.806">
  <defs>
    <clipPath id="clip-path">
      <rect id="Rectángulo_7415" data-name="Rectángulo 7415" width="95" height="90.806" fill="#12263f"/>
    </clipPath>
  </defs>
  <g id="Grupo_60372" data-name="Grupo 60372" transform="translate(0 0)" clip-path="url(#clip-path)">
    <path id="Trazado_109048" data-name="Trazado 109048" d="M57.521,39.723H26.211a1.6,1.6,0,0,1,0-3.207H55.917V29.851a1.6,1.6,0,0,1,3.209,0v8.267a1.6,1.6,0,0,1-1.6,1.6" transform="translate(30.467 34.973)" fill="#12263f"/>
    <path id="Trazado_109049" data-name="Trazado 109049" d="M35.329,39.723H4.018a1.6,1.6,0,0,1-1.6-1.6V29.851a1.6,1.6,0,0,1,3.207,0v6.665H35.329a1.6,1.6,0,1,1,0,3.207" transform="translate(2.991 34.973)" fill="#12263f"/>
    <path id="Trazado_109050" data-name="Trazado 109050" d="M12.306,38.468A4.692,4.692,0,0,1,7.62,33.781v-18.8a4.685,4.685,0,1,1,9.371,0v18.8a4.69,4.69,0,0,1-4.684,4.686m0-24.97a1.48,1.48,0,0,0-1.479,1.479v18.8a1.478,1.478,0,0,0,2.956,0v-18.8A1.479,1.479,0,0,0,12.306,13.5" transform="translate(9.434 12.74)" fill="#12263f"/>
    <path id="Trazado_109051" data-name="Trazado 109051" d="M16.088,44.93a5.719,5.719,0,0,1-5.714-5.711V14.143a5.714,5.714,0,0,1,11.427,0V39.218a5.719,5.719,0,0,1-5.714,5.711m0-33.291a2.507,2.507,0,0,0-2.5,2.5V39.218a2.5,2.5,0,1,0,5.009,0V14.143a2.507,2.507,0,0,0-2.5-2.5" transform="translate(12.843 10.438)" fill="#12263f"/>
    <path id="Trazado_109052" data-name="Trazado 109052" d="M44.571,34.376H15.651a1.6,1.6,0,0,1-1.6-1.6V13.07a1.6,1.6,0,0,1,1.6-1.6h28.92a1.6,1.6,0,0,1,1.6,1.6v19.7a1.6,1.6,0,0,1-1.6,1.6M17.255,31.169H42.968V14.675H17.255Z" transform="translate(17.389 14.197)" fill="#12263f"/>
    <path id="Trazado_109053" data-name="Trazado 109053" d="M35.324,38.468a4.69,4.69,0,0,1-4.684-4.686v-18.8a4.684,4.684,0,1,1,9.368,0v18.8a4.69,4.69,0,0,1-4.684,4.686m0-24.97a1.479,1.479,0,0,0-1.477,1.479v18.8a1.477,1.477,0,1,0,2.954,0v-18.8A1.479,1.479,0,0,0,35.324,13.5" transform="translate(37.933 12.74)" fill="#12263f"/>
    <path id="Trazado_109054" data-name="Trazado 109054" d="M32.682,44.93a5.719,5.719,0,0,1-5.714-5.711V14.143a5.713,5.713,0,0,1,11.425,0V39.218a5.718,5.718,0,0,1-5.711,5.711m0-33.291a2.507,2.507,0,0,0-2.5,2.5V39.218a2.5,2.5,0,1,0,5.009,0V14.143a2.507,2.507,0,0,0-2.5-2.5" transform="translate(33.387 10.438)" fill="#12263f"/>
    <path id="Trazado_109055" data-name="Trazado 109055" d="M31.111,30.273H19.523a1.6,1.6,0,0,1-1.6-1.6V21.873a1.6,1.6,0,0,1,1.6-1.6H31.111a1.6,1.6,0,0,1,1.6,1.6v6.795a1.6,1.6,0,0,1-1.6,1.6m-9.984-3.207h8.379V23.478H21.127Z" transform="translate(22.183 25.095)" fill="#12263f"/>
    <path id="Trazado_109056" data-name="Trazado 109056" d="M25.156,61.951a7.446,7.446,0,0,1-1.638-.186,7.1,7.1,0,0,1-3.6-11.716.7.7,0,0,0,.139-.452V24.909a1.6,1.6,0,0,1,1.6-1.6h7.007a1.6,1.6,0,0,1,1.6,1.6V49.6a.7.7,0,0,0,.148.459,7.1,7.1,0,0,1-5.262,11.893M23.264,26.514V49.6a3.85,3.85,0,0,1-.985,2.623,3.892,3.892,0,0,0,1.947,6.419,3.922,3.922,0,0,0,4.85-3.809,3.846,3.846,0,0,0-1.025-2.605,3.869,3.869,0,0,1-.989-2.625V26.514Z" transform="translate(22.335 28.854)" fill="#12263f"/>
    <path id="Trazado_109057" data-name="Trazado 109057" d="M56.68,69.742a1.6,1.6,0,0,1-.589-3.1c7.381-2.912,19.471-5.72,35.7-2.99V4.384C63.878-.5,48.67,11.678,48.521,11.806a1.612,1.612,0,0,1-2.041,0c-.15-.123-15.445-12.285-43.27-7.421V63.656c16.226-2.733,28.318.078,35.7,2.99a1.6,1.6,0,0,1-1.175,2.983c-7.271-2.867-19.39-5.622-35.829-2.48a1.627,1.627,0,0,1-1.323-.34A1.606,1.606,0,0,1,0,65.574V3.046A1.6,1.6,0,0,1,1.3,1.473c26.371-5.047,42.151,4.27,46.2,7.1,4.049-2.827,19.836-12.139,46.2-7.1A1.6,1.6,0,0,1,95,3.046V65.574a1.6,1.6,0,0,1-.58,1.235,1.613,1.613,0,0,1-1.323.34c-16.441-3.144-28.557-.387-35.831,2.48a1.583,1.583,0,0,1-.584.112" transform="translate(0 -0.001)" fill="#12263f"/>
    <path id="Trazado_109058" data-name="Trazado 109058" d="M22.112,18.365a1.6,1.6,0,0,1-1.6-1.6V5.609a1.6,1.6,0,1,1,3.209,0V16.761a1.6,1.6,0,0,1-1.6,1.6" transform="translate(25.388 4.956)" fill="#12263f"/>
  </g>
</svg>
