<svg xmlns="http://www.w3.org/2000/svg" xmlns:xlink="http://www.w3.org/1999/xlink" width="96.837" height="84.615" viewBox="0 0 96.837 84.615">
  <defs>
    <clipPath id="clip-path">
      <rect id="Rectángulo_7414" data-name="Rectángulo 7414" width="96.837" height="84.615" fill="none"/>
    </clipPath>
  </defs>
  <g id="Grupo_881566" data-name="Grupo 881566" transform="translate(0 0)">
    <g id="Grupo_60370" data-name="Grupo 60370" transform="translate(0 0)" clip-path="url(#clip-path)">
      <path id="Trazado_109028" data-name="Trazado 109028" d="M66.2,50.21H13.238a1.53,1.53,0,1,1,0-3.061,6.908,6.908,0,0,0,6.9-6.9V31.815a1.53,1.53,0,0,1,1.531-1.529H75.578a1.53,1.53,0,0,1,1.531,1.529V39.3A10.919,10.919,0,0,1,66.2,50.21M20.417,47.149H66.2A7.855,7.855,0,0,0,74.049,39.3V33.347H23.2v6.9a9.926,9.926,0,0,1-2.783,6.9" transform="translate(13.298 34.404)"/>
      <path id="Trazado_109029" data-name="Trazado 109029" d="M21.945,84.615a9.77,9.77,0,0,1-6.878-2.851,10.341,10.341,0,0,1-3.091-7.333V9.46a6.4,6.4,0,0,0-6.4-6.4A1.531,1.531,0,0,1,5.577,0h64.1a1.531,1.531,0,0,1,0,3.063H12.538a9.416,9.416,0,0,1,2.5,6.4V74.431a7.265,7.265,0,0,0,2.174,5.148,6.718,6.718,0,0,0,4.859,1.974,6.932,6.932,0,0,0,6.769-6.9V66.22a1.531,1.531,0,0,1,1.531-1.531H68.15V51.28a1.53,1.53,0,1,1,3.061,0V66.22a1.531,1.531,0,0,1-1.531,1.531H31.9v6.9a10.011,10.011,0,0,1-9.774,9.96c-.062,0-.122,0-.184,0" transform="translate(4.598 0.001)"/>
      <path id="Trazado_109030" data-name="Trazado 109030" d="M12.066,28.686H1.529A1.53,1.53,0,0,1,0,27.154V10.178A10.189,10.189,0,0,1,10.176,0a1.531,1.531,0,0,1,0,3.063,7.122,7.122,0,0,0-7.115,7.115V25.625h9.005a1.53,1.53,0,1,1,0,3.061" transform="translate(0 0.001)"/>
      <path id="Trazado_109031" data-name="Trazado 109031" d="M32.669,9.3H12.832a1.53,1.53,0,1,1,0-3.061H32.669a1.53,1.53,0,1,1,0,3.061" transform="translate(12.837 7.084)"/>
      <path id="Trazado_109032" data-name="Trazado 109032" d="M30.22,12.14H12.831a1.53,1.53,0,0,1,0-3.061H30.22a1.53,1.53,0,1,1,0,3.061" transform="translate(12.838 10.314)"/>
      <path id="Trazado_109033" data-name="Trazado 109033" d="M27.771,14.982H12.832a1.53,1.53,0,1,1,0-3.061H27.771a1.53,1.53,0,1,1,0,3.061" transform="translate(12.837 13.542)"/>
      <path id="Trazado_109034" data-name="Trazado 109034" d="M27.771,17.825H12.832a1.53,1.53,0,1,1,0-3.061H27.771a1.53,1.53,0,1,1,0,3.061" transform="translate(12.837 16.772)"/>
      <path id="Trazado_109035" data-name="Trazado 109035" d="M36.343,20.667H12.832a1.53,1.53,0,1,1,0-3.061h23.51a1.53,1.53,0,1,1,0,3.061" transform="translate(12.837 20)"/>
      <path id="Trazado_109036" data-name="Trazado 109036" d="M36.343,23.51H12.832a1.53,1.53,0,1,1,0-3.061h23.51a1.53,1.53,0,1,1,0,3.061" transform="translate(12.837 23.229)"/>
      <path id="Trazado_109037" data-name="Trazado 109037" d="M55.323,26.352H12.832a1.53,1.53,0,1,1,0-3.061h42.49a1.53,1.53,0,1,1,0,3.061" transform="translate(12.837 26.458)"/>
      <path id="Trazado_109038" data-name="Trazado 109038" d="M55.323,29.195H12.832a1.53,1.53,0,1,1,0-3.061h42.49a1.53,1.53,0,1,1,0,3.061" transform="translate(12.837 29.687)"/>
      <path id="Trazado_109039" data-name="Trazado 109039" d="M45.911,22.623a9.005,9.005,0,0,1-9-9A1.529,1.529,0,0,1,38.443,12.1h14.93A1.53,1.53,0,0,1,54.9,13.626a9,9,0,0,1-8.994,9m-5.735-7.465a5.935,5.935,0,0,0,11.468,0Z" transform="translate(41.932 13.742)"/>
      <path id="Trazado_109040" data-name="Trazado 109040" d="M50.485,23.719a1.532,1.532,0,0,1-1.446-1.03L44.906,10.765,40.775,22.69a1.531,1.531,0,0,1-2.894-1L43.46,5.59a1.53,1.53,0,0,1,2.892,0l5.579,16.1a1.527,1.527,0,0,1-.944,1.946,1.476,1.476,0,0,1-.5.085" transform="translate(42.935 5.181)"/>
      <path id="Trazado_109041" data-name="Trazado 109041" d="M60.484,7.621H25.614a1.53,1.53,0,1,1,0-3.061H60.484a1.53,1.53,0,1,1,0,3.061" transform="translate(27.357 5.181)"/>
      <path id="Trazado_109042" data-name="Trazado 109042" d="M29.583,22.623a9,9,0,0,1-8.994-9A1.529,1.529,0,0,1,22.118,12.1h14.93a1.53,1.53,0,0,1,1.531,1.529,9.005,9.005,0,0,1-9,9m-5.733-7.465a5.935,5.935,0,0,0,11.468,0Z" transform="translate(23.388 13.742)"/>
      <path id="Trazado_109043" data-name="Trazado 109043" d="M34.16,23.719a1.532,1.532,0,0,1-1.446-1.03L28.581,10.765,24.448,22.69a1.53,1.53,0,0,1-2.892-1l5.579-16.1a1.53,1.53,0,0,1,2.892,0l5.579,16.1a1.527,1.527,0,0,1-.944,1.946,1.476,1.476,0,0,1-.5.085" transform="translate(24.39 5.181)"/>
      <path id="Trazado_109044" data-name="Trazado 109044" d="M33.777,35.494a1.531,1.531,0,0,1-1.531-1.531V4.683a1.531,1.531,0,0,1,3.063,0V33.963a1.531,1.531,0,0,1-1.531,1.531" transform="translate(36.629 3.583)"/>
      <path id="Trazado_109045" data-name="Trazado 109045" d="M44.764,26.745H30.419a1.53,1.53,0,0,1-1.531-1.529V18.393a1.531,1.531,0,0,1,1.531-1.531H44.764a1.531,1.531,0,0,1,1.529,1.531v6.822a1.529,1.529,0,0,1-1.529,1.529M31.949,23.684H43.233V19.923H31.949Z" transform="translate(32.815 19.155)"/>
      <path id="Trazado_109046" data-name="Trazado 109046" d="M56.93,30.027H26.7A1.53,1.53,0,0,1,25.169,28.5v-6.91A1.531,1.531,0,0,1,26.7,20.056H56.93a1.531,1.531,0,0,1,1.531,1.531V28.5a1.53,1.53,0,0,1-1.531,1.529m-28.7-3.061H55.4V23.117H28.23Z" transform="translate(28.59 22.783)"/>
      <path id="Trazado_109047" data-name="Trazado 109047" d="M69.04,26.352H23a1.53,1.53,0,0,1,0-3.061H69.04a1.53,1.53,0,1,1,0,3.061" transform="translate(24.386 26.458)"/>
    </g>
  </g>
</svg>
