<svg xmlns="http://www.w3.org/2000/svg" xmlns:xlink="http://www.w3.org/1999/xlink" width="139.034" height="139" viewBox="0 0 139.034 139">
  <defs>
    <clipPath id="clip-path">
      <rect id="Rectángulo_41217" data-name="Rectángulo 41217" width="139.034" height="139" fill="none"/>
    </clipPath>
  </defs>
  <g id="Grupo_562317" data-name="Grupo 562317" transform="translate(0)">
    <g id="Grupo_562317-2" data-name="Grupo 562317" transform="translate(0)" clip-path="url(#clip-path)">
      <path id="Trazado_194442" data-name="Trazado 194442" d="M166.91,260.134c4.279-10.36,7.269-21.161,10.657-31.825.615-1.934,1.317-3.84,1.978-5.759a32.3,32.3,0,0,1,2.118-5.438l-.015,0c-3.645,3.465-6.064,7.776-8.388,12.153a13.783,13.783,0,0,1-1.336,2.486c-4.926,10.194-9.52,20.574-16.564,29.581a62.2,62.2,0,0,1-19.723,16.69,1.514,1.514,0,0,1-1.388.091,58.439,58.439,0,0,0,18.964,4.1.8.8,0,0,1,.159-.312c6.775-5.849,10.237-13.776,13.538-21.768" transform="translate(-88.586 -143.262)" fill="#fefaf1"/>
      <path id="Trazado_194443" data-name="Trazado 194443" d="M13.656,172.988c5.582.325,10.8,2.28,16.244,3.206a72.193,72.193,0,0,0,17.487.729c8.646-.633,16.979-2.9,25.427-4.569.353-.07.706-.226.979.16h0a44.65,44.65,0,0,1,9.959-3.08c.575-.079,1.148-.168,1.722-.252-.4-.3-.872-.175-1.313-.18a46.5,46.5,0,0,1-20.425-4.894c-4.36-2.169-8.525-4.736-13.109-6.453a59.377,59.377,0,0,0-12.939-3.1A106.265,106.265,0,0,0,23.24,154.1c-2.51,0-5.019.311-7.529.481h0a114.222,114.222,0,0,1-12.6.915,4.316,4.316,0,0,0-1.037.17c-.02.1-.045.2-.064.307-.676,3.386-1.025,6.821-1.6,10.222a.323.323,0,0,1-.178.128A6.005,6.005,0,0,1,0,169.266v4.615c4.485-1.342,9.046-1.162,13.656-.893" transform="translate(0 -101.663)" fill="#93d65b"/>
      <path id="Trazado_194444" data-name="Trazado 194444" d="M.847,169.284c.576-3.4.925-6.836,1.6-10.222.02-.1.044-.2.064-.308-.138.034-.275.066-.413.093h0a76.72,76.72,0,0,0-1.431,10.47c0,.031,0,.063,0,.095a.326.326,0,0,0,.178-.128" transform="translate(-0.441 -104.756)" fill="#93d65b"/>
      <path id="Trazado_194445" data-name="Trazado 194445" d="M200.812,292.931h.01a7.95,7.95,0,0,1,1.187-8.562,7.208,7.208,0,0,1,4.945-2.736c.867-.085,1.268-.261,1.337-1.237a12.8,12.8,0,0,1,11.115-11.619,13.043,13.043,0,0,1,5.434.49,1.911,1.911,0,0,0,2.154-.486,9.092,9.092,0,0,1,4.01-2.154c.471-.124,1.173-.11,1.142-.9-.14-3.552,1.424-6.438,3.542-9.11a71.9,71.9,0,0,0-7.1-6.793c-.736-.656-1.525-1.256-2.23-1.944-3.167-3.091-6.741-5.81-8.743-9.953-.577-1.195-.49-2.533-.995-3.713-3.225,9.487-5.888,19.154-9.188,28.616a122.274,122.274,0,0,1-9.057,20.846A35.715,35.715,0,0,1,191.2,292.8a9.263,9.263,0,0,1-1.052.706q.538.027,1.085.045h8.619c.032-.656.567-.526.961-.618" transform="translate(-125.471 -154.549)" fill="#71bd63"/>
      <path id="Trazado_194446" data-name="Trazado 194446" d="M219.638,406.841c-.394.092-.929-.038-.961.618.3-.321.742-.16,1.093-.311-.044-.1-.082-.206-.122-.309h-.01" transform="translate(-144.297 -268.459)" fill="#71bd63"/>
      <path id="Trazado_194447" data-name="Trazado 194447" d="M214.357,238.867c-3.388,10.664-6.378,21.465-10.657,31.825-3.3,7.993-6.763,15.919-13.538,21.768a.808.808,0,0,0-.159.312l.049,0a9.267,9.267,0,0,0,1.052-.706,35.716,35.716,0,0,0,7.17-9.124,122.264,122.264,0,0,0,9.057-20.846c3.3-9.462,5.964-19.129,9.188-28.616a3.752,3.752,0,0,0-.183-.376c-.662,1.919-1.364,3.825-1.978,5.759" transform="translate(-125.376 -153.82)" fill="#71bd63"/>
      <path id="Trazado_194448" data-name="Trazado 194448" d="M.645,213.242c.04,1.349.279,2.672.429,4.005a7.476,7.476,0,0,1,4.5-.95c.514.06.8-.294,1.121-.636,2.673-2.879,6.27-2.282,7.962,1.3.518,1.1,1.907,1.291,2.486,2.389.2.384.507-.128.673-.357,1.889-2.608,5.492-2.422,7.1.821.824-.884,1.537-1.883,2.979-1.65a2.409,2.409,0,0,1,2.2,1.5,1.274,1.274,0,0,0,1.5.984c2.782-.141,5.554-.354,8.31-.771a9.377,9.377,0,0,1,1.239-.007,24.774,24.774,0,0,1-6.76,3.172,83.255,83.255,0,0,1-17.539,4.161,84.876,84.876,0,0,1-12.245.764,4.143,4.143,0,0,1-1.2-.082c.378,1.545,1.124,2.967,1.551,4.5.017.048.036.095.053.143,13.545.76,26.213-2.6,38.4-8.24,8.447-3.907,16.453-8.655,24.7-12.935a13.08,13.08,0,0,1,4.175-1.819l1.135-.644a8.649,8.649,0,0,0-2.089.366c-7.034,1.473-14.02,3.216-21.178,4.017a68.218,68.218,0,0,1-23.841-1.25c-4.305-1.044-8.574-2.259-13.03-2.507-3.883-.216-7.766-.429-11.6.519-.555.137-1.128.408-1.7.02v1.9c.762.149.631.794.645,1.283" transform="translate(0 -137.84)" fill="#71bd63"/>
      <path id="Trazado_194449" data-name="Trazado 194449" d="M.269,219.439a17.042,17.042,0,0,0,.538,3.9c.088-.051.178-.1.266-.143-.15-1.334-.389-2.657-.429-4.006-.014-.489.117-1.134-.645-1.283a2.314,2.314,0,0,1,.269,1.532" transform="translate(0 -143.789)" fill="#71bd63"/>
      <path id="Trazado_194450" data-name="Trazado 194450" d="M10.851,268.892c-.427-1.528-1.173-2.95-1.551-4.495a1.333,1.333,0,0,1-.377-.185h0q.81,2.4,1.62,4.8c.12.008.239.012.36.019-.017-.048-.036-.095-.053-.143" transform="translate(-5.889 -174.344)" fill="#71bd63"/>
      <path id="Trazado_194451" data-name="Trazado 194451" d="M1.7,209.16c3.833-.948,7.716-.736,11.6-.519,4.456.248,8.725,1.464,13.03,2.508a68.236,68.236,0,0,0,23.841,1.25c7.159-.8,14.144-2.544,21.179-4.017a8.65,8.65,0,0,1,2.088-.366l.36-.2c-.272-.386-.626-.23-.979-.16-8.448,1.672-16.781,3.936-25.427,4.569a72.19,72.19,0,0,1-17.487-.729c-5.44-.927-10.662-2.881-16.244-3.206-4.611-.268-9.171-.449-13.656.893.569.388,1.142.118,1.7-.02" transform="translate(0 -136.962)" fill="#71bd63"/>
      <path id="Trazado_194452" data-name="Trazado 194452" d="M.208,190.014A.326.326,0,0,1,0,189.972v2.986c.347-.961-.013-1.974.208-2.944" transform="translate(0 -125.356)" fill="#afe59a"/>
      <path id="Trazado_194453" data-name="Trazado 194453" d="M.227,189.81a.448.448,0,0,0-.227.055.328.328,0,0,0,.208.042c.007-.033.01-.065.019-.1" transform="translate(0 -125.249)" fill="#afe59a"/>
      <path id="Trazado_194454" data-name="Trazado 194454" d="M.228,190.088l-.02,0c-.221.97.139,1.984-.208,2.944a6,6,0,0,0,.228-2.947" transform="translate(0 -125.432)" fill="#afe59a"/>
      <path id="Trazado_194455" data-name="Trazado 194455" d="M.632,189.9c0-.032,0-.063,0-.095-.009.032-.012.065-.019.1l.02,0" transform="translate(-0.404 -125.249)" fill="#afe59a"/>
      <path id="Trazado_194456" data-name="Trazado 194456" d="M38.641,30.734a16.974,16.974,0,0,1,11.617,4.345c.667.58.995.587,1.4-.2a20.658,20.658,0,0,1,6.289-7.15,19.558,19.558,0,0,1,10.506-3.8,20.932,20.932,0,0,1,11.427,2.4,18.526,18.526,0,0,1,7.7,7.367A2.838,2.838,0,0,0,90.524,35.4a15.352,15.352,0,0,1,12.08,5.059,13.975,13.975,0,0,1,3.487,6.02h0c.765.351.834-.415,1.014-.744a11.948,11.948,0,0,1,12.855-5.86c.943.179,1.1-.46,1.318-1.005a14.885,14.885,0,0,1,6.1-7.018,12.565,12.565,0,0,1,5.974-1.912,2.07,2.07,0,0,0,2.173-1.69,11.756,11.756,0,0,1,6.028-6.972,3.267,3.267,0,0,0,.984-.551c-.019-.014-.036-.029-.054-.043a77.432,77.432,0,0,0-8.212-6.858A68.95,68.95,0,0,0,104.781,1.792a64.787,64.787,0,0,0-13.5-.8A69.819,69.819,0,0,0,37.369,30.625l-.02.028a2.625,2.625,0,0,0,1.292.081" transform="translate(-24.645 -0.605)" fill="#99f3ee"/>
      <path id="Trazado_194457" data-name="Trazado 194457" d="M36.88,30.02A69.819,69.819,0,0,1,90.789.388a64.812,64.812,0,0,1,13.5.8,68.959,68.959,0,0,1,29.487,12.035,77.438,77.438,0,0,1,8.211,6.859c.019.013.036.029.055.043a.955.955,0,0,0,.19-.3A69.535,69.535,0,0,0,94.731.009a71.039,71.039,0,0,0-9.307.511A67.048,67.048,0,0,0,65.075,6.164a69.079,69.079,0,0,0-28.467,23.7.957.957,0,0,0,.252.184l.02-.028" transform="translate(-24.156 0)" fill="#99f3ee"/>
      <path id="Trazado_194458" data-name="Trazado 194458" d="M19.74,98.418c1.047.016,2.089-.048,3.13-.136,1.6-.274,3.2-.546,4.8-.808q4.913-.8,9.833-1.568c9.17-1.43,17.99-.576,26.436,3.61,6.715,3.328,13.227,7.014,19.778,10.635a42.157,42.157,0,0,0,6.47,3.061h0l5.443-.022h0c.024-2.608.105-5.19-.959-7.7a13.539,13.539,0,0,0-6.737-7.227c-1.11-.533-1.713-1.133-1.549-2.449a8.762,8.762,0,0,0-.718-3.858,1.716,1.716,0,0,1-.213-.133c-.632-1.044-1.01-2.212-1.664-3.255a15.168,15.168,0,0,0-13.444-7.533,3.81,3.81,0,0,1-3.677-2.061,19.076,19.076,0,0,0-15.763-9.394c-8.4-.532-14.631,3.119-19.04,10.126-1,1.594-1.3,1.7-2.79.511a17.123,17.123,0,0,0-11.044-3.862c-.434,0-.99.15-1.282-.275A61.165,61.165,0,0,0,9.666,89,58.715,58.715,0,0,0,6.3,99.538a1.9,1.9,0,0,1,1.06-.27c4.155.11,8.258-.522,12.381-.851" transform="translate(-4.157 -45.882)" fill="#ddfaf1"/>
      <path id="Trazado_194459" data-name="Trazado 194459" d="M5.359,111.593A58.752,58.752,0,0,1,8.725,101.05a61.164,61.164,0,0,1,7.086-12.913,1,1,0,0,1-.144-.337,15.341,15.341,0,0,0-2.117,3.1,66.847,66.847,0,0,0-8.676,21.124h0a1.838,1.838,0,0,1,.484-.434" transform="translate(-3.216 -57.936)" fill="#ddfaf1"/>
      <path id="Trazado_194460" data-name="Trazado 194460" d="M19.6,154.192c-4.123.328-8.226.961-12.381.851a1.9,1.9,0,0,0-1.06.27c-.024.114-.049.227-.071.341a4.337,4.337,0,0,1,1.037-.17,114.222,114.222,0,0,0,12.6-.915h0l3-.513c-1.041.087-2.083.152-3.13.136" transform="translate(-4.019 -101.656)" fill="#ddfaf1"/>
      <path id="Trazado_194461" data-name="Trazado 194461" d="M5.359,157.75a1.838,1.838,0,0,0-.484.434c.138-.026.276-.059.413-.093.023-.114.048-.228.071-.341" transform="translate(-3.217 -104.094)" fill="#ddfaf1"/>
      <path id="Trazado_194462" data-name="Trazado 194462" d="M38.313,75.606a17.12,17.12,0,0,1,11.043,3.862c1.492,1.19,1.787,1.084,2.79-.511C56.555,71.95,62.782,68.3,71.186,68.831a19.076,19.076,0,0,1,15.763,9.394,3.811,3.811,0,0,0,3.677,2.061,15.168,15.168,0,0,1,13.444,7.533c.653,1.043,1.031,2.211,1.663,3.255a1.738,1.738,0,0,0,.214.132c-.022-.066-.045-.133-.067-.2h0a13.972,13.972,0,0,0-3.487-6.02,15.352,15.352,0,0,0-12.08-5.059,2.837,2.837,0,0,1-2.943-1.711,18.527,18.527,0,0,0-7.7-7.367,20.931,20.931,0,0,0-11.427-2.4,19.558,19.558,0,0,0-10.506,3.8,20.655,20.655,0,0,0-6.289,7.15c-.408.791-.735.784-1.4.2A16.974,16.974,0,0,0,38.43,75.259a2.63,2.63,0,0,1-1.292-.08c-.037.05-.071.1-.108.152.293.425.849.277,1.283.276" transform="translate(-24.435 -45.13)" fill="#ddfaf1"/>
      <path id="Trazado_194463" data-name="Trazado 194463" d="M36.86,87.985a.944.944,0,0,1-.252-.185.992.992,0,0,0,.144.337c.037-.05.071-.1.108-.152" transform="translate(-24.156 -57.936)" fill="#ddfaf1"/>
      <path id="Trazado_194464" data-name="Trazado 194464" d="M275.679,60.179a12.03,12.03,0,0,0-6.2,7.372,1.96,1.96,0,0,1-1.972,1.37,14.465,14.465,0,0,0-12.048,8.652,1.843,1.843,0,0,1-2.215,1.247c-5.147-.6-9.2,1.224-12,5.674-.262.417-.477,1.162-1.129.939a5.48,5.48,0,0,1,.921,3.636,2.3,2.3,0,0,0,1.441,2.314c5.589,3.032,8.131,7.789,7.8,14.112a1.847,1.847,0,0,1-.256,1.1l12.391.054h0l2.177,0,2.709-.021h0c4.605-.291,9.176-.733,13.236-3.238,1.727-1.066,3.436-2.159,5.145-3.253a21.487,21.487,0,0,1,10.354-3.505,67.042,67.042,0,0,0-8.886-23.689,79.456,79.456,0,0,0-8.618-11.439,14.51,14.51,0,0,0-2.038-1.969c-.127.338-.508.481-.817.642" transform="translate(-158.445 -39.286)" fill="#c4f7f0"/>
      <path id="Trazado_194465" data-name="Trazado 194465" d="M347.068,58.717a14.508,14.508,0,0,1,2.038,1.969,79.462,79.462,0,0,1,8.618,11.439,67.042,67.042,0,0,1,8.886,23.689c.095-.006.189-.014.284-.019a40.872,40.872,0,0,0-1.991-8.636A66.918,66.918,0,0,0,354.636,66.9a50.313,50.313,0,0,0-7.54-8.6h0a.8.8,0,0,1-.028.422" transform="translate(-229.018 -38.466)" fill="#c4f7f0"/>
      <path id="Trazado_194466" data-name="Trazado 194466" d="M268.881,66.687a2.07,2.07,0,0,1-2.173,1.69,12.56,12.56,0,0,0-5.974,1.912,14.884,14.884,0,0,0-6.1,7.018c-.222.546-.375,1.185-1.318,1.006a11.947,11.947,0,0,0-12.855,5.86c-.18.328-.249,1.095-1.014.744.082.088.156.179.228.27.651.223.866-.523,1.129-.939,2.8-4.449,6.85-6.273,12-5.674a1.843,1.843,0,0,0,2.215-1.247,14.465,14.465,0,0,1,12.048-8.652,1.96,1.96,0,0,0,1.972-1.37,12.03,12.03,0,0,1,6.2-7.372c.309-.162.69-.3.817-.642-.054-.041-.106-.086-.162-.127a3.275,3.275,0,0,1-.984.552,11.754,11.754,0,0,0-6.028,6.972" transform="translate(-158.004 -39.04)" fill="#c4f7f0"/>
      <path id="Trazado_194467" data-name="Trazado 194467" d="M346.754,58.717a.8.8,0,0,0,.028-.422.956.956,0,0,1-.19.3c.056.04.107.085.162.127" transform="translate(-228.703 -38.467)" fill="#c4f7f0"/>
      <path id="Trazado_194468" data-name="Trazado 194468" d="M249.97,155.6c.329-6.323-2.213-11.08-7.8-14.112a2.3,2.3,0,0,1-1.441-2.314,5.483,5.483,0,0,0-.921-3.636,1.116,1.116,0,0,1-.161-.07,8.762,8.762,0,0,1,.718,3.858c-.164,1.316.439,1.916,1.549,2.449A13.539,13.539,0,0,1,248.65,149c1.065,2.509.983,5.091.959,7.7h.1a1.846,1.846,0,0,0,.256-1.1" transform="translate(-158.133 -89.389)" fill="#c4f7f0"/>
      <path id="Trazado_194469" data-name="Trazado 194469" d="M239.448,134.879h0l.067.2a1.1,1.1,0,0,0,.161.07c-.071-.091-.146-.182-.228-.27" transform="translate(-158.003 -89.002)" fill="#c4f7f0"/>
      <path id="Trazado_194470" data-name="Trazado 194470" d="M299.046,198.393c-4.244.743-8.452.914-12.564-.651a5.353,5.353,0,0,1-.789.051c-.867,0-1.733.024-2.6.006-.53-.026-1.059-.021-1.588-.016a22.128,22.128,0,0,0-6.63,2.381,19.327,19.327,0,0,0-4.783,3.723l-.014.034c.035.008.069.017.106.029.224.493-.117.854-.294,1.251a29.911,29.911,0,0,0-1.653,4.252c.5.255.441.851.489,1.289a10.92,10.92,0,0,0,2.211,5.033c2.012,2.884,4.727,5.085,7.285,7.431,2.8,2.564,5.736,4.971,8.363,7.717a2.268,2.268,0,0,1,.764,1.105,15.867,15.867,0,0,1,6.1-3.483c5.477-1.351,9.959.183,13.674,4.206l.012-.022a68.652,68.652,0,0,0,8.472-34.876c0-.035,0-.07,0-.1a6.343,6.343,0,0,0-2.755-.6,65.4,65.4,0,0,0-13.8,1.246" transform="translate(-176.999 -130.07)" fill="#93d65b"/>
      <path id="Trazado_194471" data-name="Trazado 194471" d="M391.037,198.977c0,.035,0,.07,0,.1a68.653,68.653,0,0,1-8.472,34.877l-.012.022c.082.088.165.171.246.262a67.569,67.569,0,0,0,8.578-35.064c-.112-.073-.225-.139-.341-.2" transform="translate(-252.433 -131.298)" fill="#93d65b"/>
      <path id="Trazado_194472" data-name="Trazado 194472" d="M267.421,222.558a1.046,1.046,0,0,1,.277.094,29.876,29.876,0,0,1,1.653-4.252c.177-.4.518-.758.294-1.251-.036-.013-.071-.021-.105-.03a32.272,32.272,0,0,0-2.119,5.438" transform="translate(-176.461 -143.27)" fill="#93d65b"/>
      <path id="Trazado_194473" data-name="Trazado 194473" d="M286.4,254.856c-2.627-2.747-5.568-5.154-8.364-7.718-2.558-2.346-5.273-4.547-7.285-7.431a10.92,10.92,0,0,1-2.211-5.033c-.049-.438.006-1.034-.49-1.29v0c-.032.093-.062.186-.093.279.5,1.18.418,2.518.995,3.713,2,4.143,5.576,6.862,8.743,9.953.7.688,1.494,1.288,2.23,1.944a71.859,71.859,0,0,1,7.1,6.792l.135-.109a2.269,2.269,0,0,0-.764-1.1" transform="translate(-176.817 -154.002)" fill="#93d65b"/>
      <path id="Trazado_194474" data-name="Trazado 194474" d="M267.7,233.2a1.022,1.022,0,0,0-.277-.094,3.7,3.7,0,0,1,.183.376c.032-.093.062-.186.093-.279v0" transform="translate(-176.461 -153.82)" fill="#93d65b"/>
      <path id="Trazado_194475" data-name="Trazado 194475" d="M311.6,197.994h0l-2.709.021c-.549.112-1.1.225-1.643.346.529,0,1.059-.01,1.588.016.867.018,1.733,0,2.6-.006a5.346,5.346,0,0,0,.788-.051c-.057-.022-.115-.04-.172-.063a3.344,3.344,0,0,1-.453-.264" transform="translate(-202.74 -130.649)" fill="#93d65b"/>
      <path id="Trazado_194476" data-name="Trazado 194476" d="M257.419,291.909c-.475.358-.855.96-1.56.918a1.142,1.142,0,0,1,.005.142,4.148,4.148,0,0,1-.892,1.5,11.3,11.3,0,0,0-2.406,6.643,1.892,1.892,0,0,1-1.594,2.123,8.433,8.433,0,0,0-3.673,1.969,2.432,2.432,0,0,1-2.6.577,11.993,11.993,0,0,0-11.78,2.512,11.639,11.639,0,0,0-4.2,7.95,1.9,1.9,0,0,1-1.885,1.984,7.6,7.6,0,0,0-6.1,9.407c.122.484.472.954.365,1.478a61.462,61.462,0,0,0,13.057-2.364,67.824,67.824,0,0,0,26.125-14.2,65.958,65.958,0,0,0,15.253-18.956,3.96,3.96,0,0,1-.965-.813,12.942,12.942,0,0,0-17.147-.87" transform="translate(-145.497 -190.751)" fill="#43aa5f"/>
      <path id="Trazado_194477" data-name="Trazado 194477" d="M261.2,321.31a67.821,67.821,0,0,1-26.125,14.2,61.463,61.463,0,0,1-13.057,2.364,1.059,1.059,0,0,1-.126.327,39.756,39.756,0,0,0,8.416-1.135,68.985,68.985,0,0,0,36.47-20.683,61.731,61.731,0,0,0,10.007-13.927h0a1.223,1.223,0,0,1-.333-.1A65.959,65.959,0,0,1,261.2,321.31" transform="translate(-146.418 -199.513)" fill="#43aa5f"/>
      <path id="Trazado_194478" data-name="Trazado 194478" d="M220,334.894a7.6,7.6,0,0,1,6.1-9.407,1.9,1.9,0,0,0,1.885-1.984,11.64,11.64,0,0,1,4.2-7.95,11.993,11.993,0,0,1,11.78-2.512,2.432,2.432,0,0,0,2.6-.577,8.433,8.433,0,0,1,3.673-1.969,1.892,1.892,0,0,0,1.594-2.123,11.3,11.3,0,0,1,2.406-6.643,4.144,4.144,0,0,0,.893-1.5,1.142,1.142,0,0,0-.005-.142,1.146,1.146,0,0,1-.147-.01c-2.118,2.672-3.682,5.557-3.542,9.11.031.79-.671.776-1.142.9a9.1,9.1,0,0,0-4.01,2.154,1.911,1.911,0,0,1-2.153.485,13.039,13.039,0,0,0-5.434-.489,12.8,12.8,0,0,0-11.115,11.619c-.069.976-.469,1.152-1.337,1.236a7.208,7.208,0,0,0-4.945,2.736,7.95,7.95,0,0,0-1.187,8.562c.083,0,.166-.013.249-.018.106-.524-.243-.994-.365-1.478" transform="translate(-144.765 -198.009)" fill="#43aa5f"/>
      <path id="Trazado_194479" data-name="Trazado 194479" d="M221.531,406.805c.041.1.079.205.122.309a1.049,1.049,0,0,0,.126-.327c-.083.005-.165.014-.248.018" transform="translate(-146.18 -268.424)" fill="#43aa5f"/>
      <path id="Trazado_194480" data-name="Trazado 194480" d="M330.525,288.586a15.872,15.872,0,0,0-6.1,3.483c.006.038.009.078.012.118.7.042,1.085-.561,1.56-.918a12.942,12.942,0,0,1,17.146.87,3.955,3.955,0,0,0,.966.813c.029-.053.059-.106.087-.16-3.715-4.023-8.2-5.557-13.674-4.206" transform="translate(-214.078 -190.111)" fill="#43aa5f"/>
      <path id="Trazado_194481" data-name="Trazado 194481" d="M382.3,302.044a1.236,1.236,0,0,0,.332.1c-.081-.091-.164-.173-.246-.262-.028.054-.058.106-.087.16" transform="translate(-252.265 -199.202)" fill="#43aa5f"/>
      <path id="Trazado_194482" data-name="Trazado 194482" d="M324.166,299.758l-.135.108a1.157,1.157,0,0,0,.147.01c0-.04-.005-.08-.012-.118" transform="translate(-213.816 -197.8)" fill="#43aa5f"/>
      <path id="Trazado_194483" data-name="Trazado 194483" d="M340.416,173.248c-1.737,1.131-3.47,2.263-5.311,3.23A21.927,21.927,0,0,1,325,179.087a8.365,8.365,0,0,0-1.267.142c1.744.342,3.477.742,5.251.92a20.818,20.818,0,0,0,4.845-.365c4.915-.655,9.8-1.6,14.791-1.479a12.144,12.144,0,0,1,2.681.317,2.142,2.142,0,0,1,.92.424,84.874,84.874,0,0,0-.965-9.8c0-.015-.006-.031-.008-.047a2.069,2.069,0,0,1-1.093.323c-3.636.227-6.757,1.782-9.736,3.721" transform="translate(-213.618 -111.652)" fill="#afea81"/>
      <path id="Trazado_194484" data-name="Trazado 194484" d="M404.627,168.771c0,.016.006.031.008.047a84.746,84.746,0,0,1,.965,9.8,1.291,1.291,0,0,1,.343.484,23.674,23.674,0,0,0-.314-5.787,21.146,21.146,0,0,0-.754-4.763h0a1.355,1.355,0,0,1-.248.223" transform="translate(-266.999 -111.219)" fill="#afea81"/>
      <path id="Trazado_194485" data-name="Trazado 194485" d="M333.275,175.362c-4.06,2.506-8.632,2.947-13.237,3.238h0c.419.071.838.151,1.255.233a8.32,8.32,0,0,1,1.267-.142,21.927,21.927,0,0,0,10.108-2.61c1.84-.967,3.574-2.1,5.311-3.229,2.98-1.94,6.1-3.495,9.736-3.722a2.066,2.066,0,0,0,1.094-.322c-.011-.068-.024-.136-.036-.2a21.487,21.487,0,0,0-10.354,3.505c-1.709,1.094-3.419,2.187-5.145,3.253" transform="translate(-211.181 -111.255)" fill="#afea81"/>
      <path id="Trazado_194486" data-name="Trazado 194486" d="M404.557,168.771a1.354,1.354,0,0,0,.248-.223h0c-.095,0-.189.013-.284.019.012.068.025.136.036.2" transform="translate(-266.929 -111.219)" fill="#afea81"/>
      <path id="Trazado_194487" data-name="Trazado 194487" d="M350.076,196.258a12.205,12.205,0,0,0-2.681-.317c-4.994-.121-9.876.824-14.791,1.479a20.8,20.8,0,0,1-4.846.365c-1.774-.178-3.507-.578-5.251-.92-.21.035-.419.068-.63.095,4.112,1.565,8.32,1.394,12.564.651a65.4,65.4,0,0,1,13.8-1.246,6.343,6.343,0,0,1,2.755.6c0-.095,0-.189,0-.284a2.137,2.137,0,0,0-.92-.425" transform="translate(-212.395 -129.287)" fill="#afea81"/>
      <path id="Trazado_194488" data-name="Trazado 194488" d="M407.49,198.427c.115.061.229.127.341.2a1.29,1.29,0,0,0-.343-.484c0,.095,0,.189,0,.284" transform="translate(-268.887 -130.747)" fill="#afea81"/>
      <path id="Trazado_194489" data-name="Trazado 194489" d="M320.492,198.258c.057.022.115.041.172.063.211-.027.42-.06.63-.095-.418-.082-.836-.162-1.255-.233a3.343,3.343,0,0,0,.453.264" transform="translate(-211.182 -130.649)" fill="#afea81"/>
      <path id="Trazado_194490" data-name="Trazado 194490" d="M118.258,203.331a20.6,20.6,0,0,1,9.08-4.617l-.431,0a35.272,35.272,0,0,0-6.7,2.61,107.554,107.554,0,0,0-15.726,10.7c-5.294,4.212-10.245,8.8-15.25,13.336a6.273,6.273,0,0,1-4.177,2.009,1.706,1.706,0,0,1-1.983-1.844,11.436,11.436,0,0,1,1.866-6.666,55.672,55.672,0,0,1,6.193-8.161,45.776,45.776,0,0,1,8.162-7.45,26.444,26.444,0,0,1,9.193-4.114c.58-.144,1.232-.11,1.7-.577l-.073-.029-.394-.021c-.463.65-1.231.5-1.851.607a38.174,38.174,0,0,0-8.535,2.613,2.788,2.788,0,0,1-1.434.341c-.018,0-.035,0-.053-.005a2.517,2.517,0,0,1-1.537.977c-.315.106-.623.224-.931.344a108.156,108.156,0,0,0-9.4,6.675c-.171.139-.318.31-.476.466.3.561-.283.686-.512.911-3.569,3.516-7.057,7.124-10.777,10.474a76.575,76.575,0,0,1-19.048,13.135,45.661,45.661,0,0,1-15.795,4.272c-.921.068-1.839.183-2.758.284a67.4,67.4,0,0,0,16.522,17c.546.4,1.095.8,1.655,1.181l.134.086c2.795-.893,5.678-1.462,8.462-2.422a68.638,68.638,0,0,0,11.489-5.363,82.233,82.233,0,0,0,12.757-9.051A116.99,116.99,0,0,0,99.566,229.29c2.383-2.713,4.5-5.613,6.75-8.423.312-.39.327-1.064.828-1.3.041-.066.079-.133.122-.2,1.51-2.91,2.977-5.837,4.757-8.6a46.158,46.158,0,0,1,3.9-5.149c.331-.383.651-.924,1.3-.779l.03-.029h0c-.064-.762.538-1.088,1-1.478" transform="translate(-24.161 -130.992)" fill="#57b8e6"/>
      <path id="Trazado_194491" data-name="Trazado 194491" d="M252.751,217.838a46.165,46.165,0,0,0-3.9,5.149c-1.78,2.764-3.248,5.692-4.757,8.6-.043.065-.081.132-.122.2a.926.926,0,0,1,.355-.087h0a13.787,13.787,0,0,0,1.336-2.486c2.324-4.377,4.744-8.688,8.388-12.153-.647-.146-.966.4-1.3.779" transform="translate(-160.986 -143.214)" fill="#57b8e6"/>
      <path id="Trazado_194492" data-name="Trazado 194492" d="M54.165,337.514c-.561-.381-1.109-.781-1.655-1.181a67.4,67.4,0,0,1-16.522-17l-.323.036h0a65.974,65.974,0,0,0,18.3,18.34c.112-.037.224-.069.335-.105l-.134-.086" transform="translate(-23.533 -210.714)" fill="#57b8e6"/>
      <path id="Trazado_194493" data-name="Trazado 194493" d="M216.688,202.065a2.784,2.784,0,0,0,1.434-.341,38.174,38.174,0,0,1,8.535-2.613c.619-.109,1.387.044,1.85-.607l-.082,0h0c-.574.084-1.148.173-1.722.252a44.674,44.674,0,0,0-9.96,3.08h0a1.564,1.564,0,0,1-.107.228c.018,0,.035,0,.053.005" transform="translate(-142.95 -130.983)" fill="#57b8e6"/>
      <path id="Trazado_194494" data-name="Trazado 194494" d="M210.309,209.9a2.515,2.515,0,0,0,1.537-.976c-.085-.011-.169-.021-.252-.024l-1.135.644q-.541.349-1.081.7c.307-.12.616-.239.931-.345" transform="translate(-138.161 -137.844)" fill="#57b8e6"/>
      <path id="Trazado_194495" data-name="Trazado 194495" d="M216.254,208.3l-.36.2c.083,0,.168.013.252.024a1.511,1.511,0,0,0,.107-.228" transform="translate(-142.461 -137.449)" fill="#57b8e6"/>
      <path id="Trazado_194496" data-name="Trazado 194496" d="M252.7,198.574l.073.029c.009-.009.019-.014.027-.023l-.1-.005" transform="translate(-166.746 -131.032)" fill="#57b8e6"/>
      <path id="Trazado_194497" data-name="Trazado 194497" d="M302.5,198.408a17.736,17.736,0,0,1,2.972-.356l-2.177,0h0q-.613.18-1.225.363l.431,0" transform="translate(-199.326 -130.685)" fill="#57b8e6"/>
      <path id="Trazado_194498" data-name="Trazado 194498" d="M283.766,199.084a20.6,20.6,0,0,0-9.08,4.617c-.466.39-1.068.715-1,1.478h0a19.321,19.321,0,0,1,4.783-3.723,22.132,22.132,0,0,1,6.63-2.381c-.223,0-.446,0-.669,0l-.66.007" transform="translate(-180.59 -131.362)" fill="#57b8e6"/>
      <path id="Trazado_194499" data-name="Trazado 194499" d="M303.338,198.413l.66-.007c.223,0,.446,0,.669,0,.546-.121,1.094-.234,1.643-.346a17.732,17.732,0,0,0-2.972.356" transform="translate(-200.162 -130.69)" fill="#57b8e6"/>
      <path id="Trazado_194500" data-name="Trazado 194500" d="M133.447,276.138A105.913,105.913,0,0,1,120.29,288.2a85.813,85.813,0,0,1-12.507,8.066,62.8,62.8,0,0,1-14.934,5.565,10.133,10.133,0,0,1-1.895.344,69.537,69.537,0,0,0,14.117,7.259,2.545,2.545,0,0,0,2.322-.036,63.182,63.182,0,0,0,15.367-11.92,78.86,78.86,0,0,0,11.262-15.889c2.888-5.273,5.55-10.66,8.087-16.11-.825,1.215-1.651,2.429-2.559,3.587-1.924,2.455-4,4.767-6.1,7.07" transform="translate(-60.017 -175.181)" fill="#3c9ad3"/>
      <path id="Trazado_194501" data-name="Trazado 194501" d="M106.087,306.418a62.2,62.2,0,0,0,19.723-16.69c7.044-9.007,11.638-19.387,16.564-29.581-.421.6-.833,1.207-1.245,1.814-2.537,5.45-5.2,10.837-8.087,16.11A78.867,78.867,0,0,1,121.78,293.96a63.183,63.183,0,0,1-15.367,11.921,2.545,2.545,0,0,1-2.322.036,69.508,69.508,0,0,1-14.117-7.259,4.123,4.123,0,0,1-.506,0A68.738,68.738,0,0,0,104.7,306.51a1.514,1.514,0,0,0,1.388-.091" transform="translate(-59.036 -171.662)" fill="#3c9ad3"/>
      <path id="Trazado_194502" data-name="Trazado 194502" d="M142.669,260.4c-.5.239-.516.913-.828,1.3-2.247,2.81-4.367,5.71-6.751,8.423A117.021,117.021,0,0,1,123.16,281.88a82.254,82.254,0,0,1-12.757,9.051,68.611,68.611,0,0,1-11.489,5.363c-2.784.96-5.667,1.53-8.462,2.423l.171.109a10.1,10.1,0,0,0,1.895-.343,62.818,62.818,0,0,0,14.934-5.565,85.789,85.789,0,0,0,12.507-8.066,105.882,105.882,0,0,0,13.157-12.064c2.1-2.3,4.181-4.616,6.1-7.07.908-1.159,1.734-2.372,2.559-3.587.039-.084.079-.167.117-.251a13.9,13.9,0,0,1,.773-1.476" transform="translate(-59.686 -171.83)" fill="#3c9ad3"/>
      <path id="Trazado_194503" data-name="Trazado 194503" d="M241.469,261.71l-.118.251c.412-.607.824-1.214,1.245-1.814a.925.925,0,0,0-.355.087,13.969,13.969,0,0,0-.773,1.476" transform="translate(-159.259 -171.662)" fill="#3c9ad3"/>
      <path id="Trazado_194504" data-name="Trazado 194504" d="M89.972,373.155l-.171-.11c-.112.036-.224.069-.335.105a4.13,4.13,0,0,0,.506,0" transform="translate(-59.035 -246.159)" fill="#3c9ad3"/>
      <path id="Trazado_194505" data-name="Trazado 194505" d="M57.333,232.272c4.71-3.269,9.038-7.02,13.531-10.562a2.079,2.079,0,0,0,.282-.485,7,7,0,0,1,2.1-1.858,59.14,59.14,0,0,1,6.311-4.448c-2.066.978-4.019,2.181-6.028,3.262-8.752,4.71-17.392,9.641-26.687,13.253a82.214,82.214,0,0,1-20.582,5.174,80.9,80.9,0,0,1-10.285.316,2.876,2.876,0,0,1-.873-.086,72.447,72.447,0,0,0,3.468,7.472l.059.1A110.675,110.675,0,0,0,32.85,242.9a65.168,65.168,0,0,0,24.484-10.628" transform="translate(-9.967 -141.818)" fill="#feeec5"/>
      <path id="Trazado_194506" data-name="Trazado 194506" d="M17.636,286.157a72.61,72.61,0,0,1-3.467-7.471.967.967,0,0,1-.482-.349h0a47.372,47.372,0,0,0,3.726,7.944l.283-.02-.059-.1" transform="translate(-9.032 -183.665)" fill="#feeec5"/>
      <path id="Trazado_194507" data-name="Trazado 194507" d="M15.741,234.2a80.908,80.908,0,0,0,10.286-.316,82.217,82.217,0,0,0,20.582-5.174c9.3-3.612,17.935-8.543,26.687-13.253,2.009-1.081,3.963-2.284,6.028-3.262a27.37,27.37,0,0,1,2.7-1.405,13.088,13.088,0,0,0-4.175,1.819c-8.252,4.28-16.257,9.028-24.7,12.935-12.19,5.638-24.858,9-38.4,8.24.039.111.082.22.122.33a2.877,2.877,0,0,0,.873.086" transform="translate(-9.73 -139.092)" fill="#feeec5"/>
      <path id="Trazado_194508" data-name="Trazado 194508" d="M14.17,278.687c-.04-.11-.083-.219-.122-.33-.12-.007-.239-.011-.36-.019a.968.968,0,0,0,.482.349" transform="translate(-9.032 -183.665)" fill="#feeec5"/>
      <path id="Trazado_194509" data-name="Trazado 194509" d="M179.322,219.861a2.088,2.088,0,0,1-.282.485c.149-.117.3-.236.445-.353.158-.156.3-.327.476-.467a108.163,108.163,0,0,1,9.4-6.675c-.551.215-1.091.452-1.623.7A59.191,59.191,0,0,0,181.425,218a6.994,6.994,0,0,0-2.1,1.858" transform="translate(-118.142 -140.453)" fill="#feeec5"/>
      <path id="Trazado_194510" data-name="Trazado 194510" d="M206.229,211.491q.54-.351,1.081-.7a27.332,27.332,0,0,0-2.7,1.405c.533-.252,1.073-.489,1.623-.7" transform="translate(-135.012 -139.093)" fill="#feeec5"/>
      <path id="Trazado_194511" data-name="Trazado 194511" d="M6.536,237.943a84.053,84.053,0,0,0,33.1-6.157,18.618,18.618,0,0,0,2.384-1.146c-2.624.331-5.4.615-8.19.708a1.926,1.926,0,0,1-1.867-1.073c-.989-1.653-2.5-1.857-3.938-.531-.711.654-1.138.618-1.743-.131-1.749-2.169-3.749-2.264-5.748-.266-.728.728-1.234.819-2.016.053a18.772,18.772,0,0,1-2.6-2.88c-1.611-2.386-4.293-2.6-6.414-.608a3.5,3.5,0,0,1-2.781,1.106A4.829,4.829,0,0,0,4.1,227.6a1.374,1.374,0,0,1-.821.264,75.769,75.769,0,0,0,2.2,9.957c.008.04.019.079.028.119a4.966,4.966,0,0,1,1.025,0" transform="translate(-2.166 -148.18)" fill="#43aa5f"/>
      <path id="Trazado_194512" data-name="Trazado 194512" d="M4.884,243.971a75.825,75.825,0,0,1-2.2-9.957.7.7,0,0,1-.309-.138A51.274,51.274,0,0,0,4.6,244.194a1.2,1.2,0,0,1,.309-.1c-.008-.04-.02-.079-.028-.119" transform="translate(-1.567 -154.326)" fill="#43aa5f"/>
      <path id="Trazado_194513" data-name="Trazado 194513" d="M3.2,227.12a1.372,1.372,0,0,0,.821-.264,4.832,4.832,0,0,1,2.614-.586,3.5,3.5,0,0,0,2.781-1.106c2.121-1.988,4.8-1.778,6.414.608a18.8,18.8,0,0,0,2.6,2.88c.782.766,1.288.674,2.016-.053,2-2,4-1.9,5.748.266.6.75,1.032.786,1.743.131,1.44-1.327,2.949-1.122,3.938.531a1.926,1.926,0,0,0,1.867,1.073c2.792-.093,5.566-.377,8.19-.708a18.6,18.6,0,0,1-2.384,1.146,84.046,84.046,0,0,1-33.1,6.157,4.965,4.965,0,0,0-1.025,0c.02.1.044.194.067.29a4.142,4.142,0,0,0,1.2.082,84.87,84.87,0,0,0,12.245-.764,83.262,83.262,0,0,0,17.539-4.161,24.769,24.769,0,0,0,6.76-3.173,9.37,9.37,0,0,0-1.239.007c-2.756.417-5.529.63-8.31.771a1.275,1.275,0,0,1-1.5-.984,2.408,2.408,0,0,0-2.2-1.5c-1.442-.234-2.155.765-2.979,1.65-1.61-3.244-5.213-3.43-7.1-.821-.166.229-.47.742-.673.357-.579-1.1-1.968-1.29-2.486-2.389-1.692-3.586-5.289-4.183-7.962-1.3-.318.342-.607.7-1.121.636a7.475,7.475,0,0,0-4.5.95c0,.012,0,.023,0,.034.012.082.026.165.038.247" transform="translate(-2.084 -147.432)" fill="#43aa5f"/>
      <path id="Trazado_194514" data-name="Trazado 194514" d="M9.232,263.905a1.184,1.184,0,0,0-.309.1,1.342,1.342,0,0,0,.377.185c-.023-.1-.047-.193-.068-.29" transform="translate(-5.888 -174.141)" fill="#43aa5f"/>
      <path id="Trazado_194515" data-name="Trazado 194515" d="M2.646,233.49c0-.012,0-.023,0-.034-.088.048-.178.092-.266.143a.7.7,0,0,0,.309.138c-.012-.082-.026-.164-.038-.247" transform="translate(-1.567 -154.049)" fill="#43aa5f"/>
      <path id="Trazado_194516" data-name="Trazado 194516" d="M51.671,261.755A90.231,90.231,0,0,0,69.1,248.511c2.139-2.031,4.232-4.107,6.336-6.171-1.176,1-2.4,1.935-3.6,2.9a85.072,85.072,0,0,1-17.3,11.313,65.991,65.991,0,0,1-19.168,5.563c-3,.411-6.026.394-9.031.673a1.326,1.326,0,0,1-.448-.028,47.685,47.685,0,0,0,3.564,5.644,6.855,6.855,0,0,1,2.865-.475,48.327,48.327,0,0,0,19.344-6.179" transform="translate(-17.088 -159.911)" fill="#3c9ad3"/>
      <path id="Trazado_194517" data-name="Trazado 194517" d="M25.068,301.928a.925.925,0,0,1-.428-.236,35.868,35.868,0,0,0,3.749,6.035,2.519,2.519,0,0,1,.243-.155,47.633,47.633,0,0,1-3.565-5.644" transform="translate(-16.259 -199.076)" fill="#3c9ad3"/>
      <path id="Trazado_194518" data-name="Trazado 194518" d="M55.01,258.366a76.58,76.58,0,0,0,19.048-13.135c3.719-3.35,7.207-6.958,10.776-10.474.229-.225.815-.35.512-.911a27.433,27.433,0,0,1-2.994,2.889c-2.1,2.064-4.2,4.14-6.336,6.171A90.217,90.217,0,0,1,58.585,256.15a48.333,48.333,0,0,1-19.344,6.179,6.854,6.854,0,0,0-2.865.474h0l.08.118c.919-.1,1.836-.217,2.757-.284a45.65,45.65,0,0,0,15.8-4.272" transform="translate(-24.003 -154.307)" fill="#3c9ad3"/>
      <path id="Trazado_194519" data-name="Trazado 194519" d="M35.907,318.981h0a2.571,2.571,0,0,0-.243.154l.324-.036c-.027-.039-.054-.078-.08-.118" transform="translate(-23.533 -210.483)" fill="#3c9ad3"/>
      <path id="Trazado_194520" data-name="Trazado 194520" d="M26.064,257.872c3.005-.28,6.026-.263,9.031-.673a66,66,0,0,0,19.168-5.563,85.057,85.057,0,0,0,17.3-11.313c1.2-.968,2.422-1.907,3.6-2.9q.9-.887,1.812-1.77a7.113,7.113,0,0,0,.737-.766c-4.494,3.542-8.821,7.293-13.531,10.562A65.171,65.171,0,0,1,39.69,256.074a110.737,110.737,0,0,1-14.219,1.515l.145.255a1.324,1.324,0,0,0,.448.028" transform="translate(-16.807 -154.991)" fill="#3c9ad3"/>
      <path id="Trazado_194521" data-name="Trazado 194521" d="M24.923,301.635l-.283.019a.925.925,0,0,0,.428.236l-.145-.256" transform="translate(-16.259 -199.038)" fill="#3c9ad3"/>
      <path id="Trazado_194522" data-name="Trazado 194522" d="M173.358,234.966q-.909.882-1.812,1.77a27.462,27.462,0,0,0,2.994-2.889c-.149.117-.3.235-.445.352a7.115,7.115,0,0,1-.737.766" transform="translate(-113.197 -154.307)" fill="#3c9ad3"/>
      <path id="Trazado_194523" data-name="Trazado 194523" d="M91.276,146.433a42.212,42.212,0,0,0-8.664-.055c-5.235.366-10.379,1.407-15.564,2.134,9.783-.31,19.469.087,28.721,3.868,4.323,1.767,8.326,4.166,12.5,6.231a46.886,46.886,0,0,0,19.6,4.808c.251.008.521-.027.785-.032-8.28-3.452-15.595-8.782-23.769-12.446-4.387-1.966-8.8-3.853-13.6-4.509" transform="translate(-44.243 -96.46)" fill="#afea80"/>
      <path id="Trazado_194524" data-name="Trazado 194524" d="M251.236,198a1.343,1.343,0,0,1,.1.146.589.589,0,0,1,.2-.028l-.3-.118" transform="translate(-165.781 -130.652)" fill="#afea80"/>
      <path id="Trazado_194525" data-name="Trazado 194525" d="M116.032,168.311a1.4,1.4,0,0,0-.1-.146c-.351-.138-.7-.275-1.05-.42-.264,0-.534.04-.785.032a46.89,46.89,0,0,1-19.6-4.808c-4.171-2.065-8.174-4.463-12.5-6.231-9.251-3.782-18.938-4.179-28.721-3.868-1.076.151-2.154.289-3.235.4-1.288.137-2.565.364-3.858.456h0c2.51-.17,5.02-.479,7.53-.481a106.267,106.267,0,0,1,14.451.457,59.375,59.375,0,0,1,12.938,3.1c4.584,1.717,8.748,4.284,13.109,6.453a46.5,46.5,0,0,0,20.425,4.894c.44.005.909-.124,1.312.18h0a.575.575,0,0,1,.078-.025" transform="translate(-30.478 -100.818)" fill="#afea80"/>
      <path id="Trazado_194526" data-name="Trazado 194526" d="M122.355,163.339a1.614,1.614,0,0,1-.018-.206h0a42.13,42.13,0,0,1-6.47-3.06c-6.551-3.622-13.063-7.307-19.778-10.635-8.447-4.186-17.266-5.04-26.436-3.61q-4.919.767-9.833,1.568c-1.6.262-3.2.534-4.8.808,1.022-.086,2.043-.193,3.066-.266.134-.01.266-.057.4-.062l.624-.02c5.186-.727,10.33-1.768,15.564-2.134a42.235,42.235,0,0,1,8.664.055c4.8.655,9.216,2.543,13.6,4.508,8.175,3.664,15.489,8.994,23.769,12.446a1.18,1.18,0,0,1,1.05.42c.1.039.2.079.3.118a.9.9,0,0,1,.3.073" transform="translate(-36.304 -95.802)" fill="#afea80"/>
      <path id="Trazado_194527" data-name="Trazado 194527" d="M248.151,196.764c.347.145.7.282,1.05.42a1.18,1.18,0,0,0-1.05-.42" transform="translate(-163.746 -129.837)" fill="#afea80"/>
      <path id="Trazado_194528" data-name="Trazado 194528" d="M53.289,153.033l-.624.02c-.135,0-.267.052-.4.061-1.023.074-2.044.181-3.066.267q-1.5.257-3,.513c1.293-.092,2.57-.319,3.858-.456,1.081-.115,2.159-.253,3.235-.4" transform="translate(-30.483 -100.981)" fill="#afea80"/>
      <path id="Trazado_194529" data-name="Trazado 194529" d="M251.727,198.344a.58.58,0,0,0-.2.028l.013.02-.008.01.394.02-.2-.078" transform="translate(-165.973 -130.88)" fill="#afea80"/>
      <path id="Trazado_194530" data-name="Trazado 194530" d="M251.38,198.457l.008-.01-.013-.02a.636.636,0,0,0-.078.024h0l.082,0" transform="translate(-165.822 -130.936)" fill="#afea80"/>
      <path id="Trazado_194531" data-name="Trazado 194531" d="M252.414,198.418a.9.9,0,0,0-.3-.073l.2.078.1.005s0-.007,0-.011" transform="translate(-166.363 -130.881)" fill="#afea80"/>
      <path id="Trazado_194532" data-name="Trazado 194532" d="M199.957,199.006a27.62,27.62,0,0,0-11.289,5.365,51.557,51.557,0,0,0-7.628,7.475,45.927,45.927,0,0,0-5.175,7.109,10.937,10.937,0,0,0-1.692,5.775c.069,1.7.8,2.265,2.465,1.861a7.706,7.706,0,0,0,3.246-1.9c2.969-2.639,5.833-5.395,8.843-7.99,6.854-5.909,13.886-11.57,21.905-15.865a25.03,25.03,0,0,1,5.942-2.416c-2.752.028-5.5.052-8.256.022a2.509,2.509,0,0,1-1.855-.4.972.972,0,0,1-.2.171,18.729,18.729,0,0,1-5.065.135c-.071-.027-.141-.056-.212-.083,0,.7-.623.652-1.027.741" transform="translate(-114.926 -130.681)" fill="#79cde9"/>
      <path id="Trazado_194533" data-name="Trazado 194533" d="M253.036,198.048c-.023.048-.047.071-.072.076,0,.015,0,.025,0,.04.071.027.141.057.212.083a18.731,18.731,0,0,0,5.065-.135.977.977,0,0,0,.2-.171c-.02-.019-.042-.032-.061-.052h0l-5.443.022q.136.061.1.137" transform="translate(-166.904 -130.58)" fill="#79cde9"/>
      <path id="Trazado_194534" data-name="Trazado 194534" d="M270.974,198.341c2.752.03,5.5.006,8.256-.022a15.1,15.1,0,0,1,2.323-.374h0l-12.391-.054c-.014.017-.029.034-.044.051a2.508,2.508,0,0,0,1.855.4" transform="translate(-177.582 -130.58)" fill="#79cde9"/>
      <path id="Trazado_194535" data-name="Trazado 194535" d="M269.044,197.889h-.1c.02.02.041.033.061.052.016-.017.03-.034.044-.051" transform="translate(-177.463 -130.58)" fill="#79cde9"/>
      <path id="Trazado_194536" data-name="Trazado 194536" d="M209.935,201.242c-8.019,4.295-15.051,9.957-21.9,15.865-3.01,2.595-5.873,5.351-8.842,7.99a7.71,7.71,0,0,1-3.246,1.9c-1.664.4-2.4-.162-2.465-1.861a10.94,10.94,0,0,1,1.692-5.775,45.931,45.931,0,0,1,5.176-7.109,51.54,51.54,0,0,1,7.628-7.475,27.619,27.619,0,0,1,11.288-5.365c.4-.089,1.031-.043,1.027-.741l-.033-.013c-.472.466-1.124.432-1.7.577a26.444,26.444,0,0,0-9.193,4.114,45.776,45.776,0,0,0-8.162,7.45A55.646,55.646,0,0,0,175,218.96a11.436,11.436,0,0,0-1.866,6.666,1.706,1.706,0,0,0,1.983,1.844,6.274,6.274,0,0,0,4.177-2.009c5-4.537,9.956-9.124,15.249-13.336a107.573,107.573,0,0,1,15.726-10.7,35.238,35.238,0,0,1,6.7-2.61l-1.1.011a25.012,25.012,0,0,0-5.943,2.416" transform="translate(-114.229 -131.088)" fill="#79cde9"/>
      <path id="Trazado_194537" data-name="Trazado 194537" d="M252.948,198.577s-.006,0-.009,0-.018.015-.027.023l.033.013c0-.015,0-.025,0-.04" transform="translate(-166.887 -131.034)" fill="#79cde9"/>
      <path id="Trazado_194538" data-name="Trazado 194538" d="M299.943,198.412q.611-.184,1.225-.363a15.092,15.092,0,0,0-2.323.374l1.1-.011" transform="translate(-197.197 -130.685)" fill="#79cde9"/>
      <path id="Trazado_194539" data-name="Trazado 194539" d="M252.965,198.163v0c.025-.005.049-.028.072-.076s-.009-.1-.1-.137a1.548,1.548,0,0,0,.018.206l.01,0" transform="translate(-166.904 -130.622)" fill="#79cde9"/>
      <path id="Trazado_194540" data-name="Trazado 194540" d="M253,198.564v0l-.01,0s0,.007,0,.011.005,0,.009,0" transform="translate(-166.938 -131.021)" fill="#79cde9"/>
      <path id="Trazado_194541" data-name="Trazado 194541" d="M189.946,408.574H191.1q-.547-.017-1.085-.045c-.023.015-.046.029-.069.045" transform="translate(-125.338 -269.574)" fill="#fefefe"/>
      <path id="Trazado_194542" data-name="Trazado 194542" d="M189.946,408.568c.022-.016.046-.029.069-.045l-.049,0c-.006.016-.012.032-.019.047" transform="translate(-125.338 -269.568)" fill="#fefefe"/>
    </g>
  </g>
</svg>
