<svg id="Grupo_562318" data-name="Grupo 562318" xmlns="http://www.w3.org/2000/svg" xmlns:xlink="http://www.w3.org/1999/xlink" width="139.035" height="139" viewBox="0 0 139.035 139">
  <defs>
    <clipPath id="clip-path">
      <rect id="Rectángulo_41218" data-name="Rectángulo 41218" width="139.035" height="139" fill="none"/>
    </clipPath>
  </defs>
  <g id="Grupo_562319" data-name="Grupo 562319" transform="translate(0)" clip-path="url(#clip-path)">
    <path id="Trazado_194543" data-name="Trazado 194543" d="M151.6.227a.315.315,0,0,1-.115.167c-2.241.48-4.539.544-6.8.941A70.172,70.172,0,0,0,131.546,4.92c-.063.021-.125.046-.188.068.318.383.9.243,1.313.383a22.931,22.931,0,0,0,2.881.641,8.182,8.182,0,0,1,6.047,4.447,5.747,5.747,0,0,0,2.811,2.621c3.325,1.484,5.048,3.761,4.157,7.529q.016.426.032.852h15.139a2.928,2.928,0,0,1,1.115-2.209h0a10.517,10.517,0,0,1,5.427-6.365c.475-.25.945-.516,1.393-.812,1.708-1.129,1.833-1.465,1.354-3.449-.715-2.953-.185-3.991,2.66-5.238a1.437,1.437,0,0,0,.264-.159,70.506,70.506,0,0,0-14.314-2.6A1.606,1.606,0,0,1,160.863.4a.321.321,0,0,1-.123-.175A5.9,5.9,0,0,1,157.8,0h-3.257A5.893,5.893,0,0,1,151.6.227" transform="translate(-86.694)" fill="#36b193"/>
    <path id="Trazado_194544" data-name="Trazado 194544" d="M217.9.838a1.61,1.61,0,0,0,.772.225,70.458,70.458,0,0,1,14.314,2.6c.1-.07.189-.145.287-.211a59.252,59.252,0,0,0-15.4-2.793c-.032,0-.065,0-.1,0a.319.319,0,0,0,.123.175" transform="translate(-143.726 -0.436)" fill="#36b193"/>
    <path id="Trazado_194545" data-name="Trazado 194545" d="M131.236,5.356a70.173,70.173,0,0,1,13.137-3.585c2.258-.4,4.556-.46,6.8-.941a.316.316,0,0,0,.115-.167c-.033,0-.065,0-.1,0a63.974,63.974,0,0,0-20.3,4.456.848.848,0,0,0,.16.308c.063-.022.125-.046.188-.068" transform="translate(-86.384 -0.436)" fill="#36b193"/>
    <path id="Trazado_194546" data-name="Trazado 194546" d="M.648,200.281c.008.091.019.182.028.273,2.477,1.4,5.275,1.371,7.995,1.609a11.054,11.054,0,0,1,7.109,3.161,69.175,69.175,0,0,0,6.555,6.041,11.561,11.561,0,0,0,5.855,2.575c.909-.2,1.894.231,2.762-.325,0,0,0-.007,0-.011a26.984,26.984,0,0,1-9.443-9.268c-2.308-3.9-6.005-6.13-9.9-8.1A40.546,40.546,0,0,1,.221,188.41.285.285,0,0,1,0,188.361v10.855c.691.068.54.644.648,1.065" transform="translate(0 -124.315)" fill="#52c782"/>
    <path id="Trazado_194547" data-name="Trazado 194547" d="M.324,221.419h0c.116.073.234.139.352.206-.008-.091-.02-.182-.028-.273-.108-.421.043-1-.648-1.065.351.308.213.755.324,1.132" transform="translate(0 -145.385)" fill="#52c782"/>
    <path id="Trazado_194548" data-name="Trazado 194548" d="M.221,188.343.2,188.324h0a.131.131,0,0,0-.2-.029.284.284,0,0,0,.221.048" transform="translate(0 -124.248)" fill="#52c782"/>
    <path id="Trazado_194549" data-name="Trazado 194549" d="M193.74,0h-2.985a.313.313,0,0,1,.047.2c.969-.214,1.98.141,2.938-.2" transform="translate(-125.895)" fill="#75cab5"/>
    <path id="Trazado_194550" data-name="Trazado 194550" d="M190.692.206a.312.312,0,0,0-.047-.2q-.023.113-.057.224c.034-.009.069-.012.1-.02" transform="translate(-125.785 -0.001)" fill="#75cab5"/>
    <path id="Trazado_194551" data-name="Trazado 194551" d="M190.882.206a.167.167,0,0,1-.006.022A5.893,5.893,0,0,0,193.82,0c-.959.346-1.97-.01-2.938.2" transform="translate(-125.975 -0.001)" fill="#75cab5"/>
    <path id="Trazado_194552" data-name="Trazado 194552" d="M190.686.625c0-.007,0-.015.006-.022-.035.007-.069.01-.1.019h0c.033,0,.065,0,.1,0" transform="translate(-125.785 -0.398)" fill="#75cab5"/>
    <path id="Trazado_194553" data-name="Trazado 194553" d="M212.054.205A.322.322,0,0,1,212.1,0h-2.985c.96.346,1.971-.01,2.941.205" transform="translate(-138.011)" fill="#75cab5"/>
    <path id="Trazado_194554" data-name="Trazado 194554" d="M217.858.225Q217.824.115,217.8,0a.321.321,0,0,0-.044.205c.034.007.068.011.1.019" transform="translate(-143.713 -0.001)" fill="#75cab5"/>
    <path id="Trazado_194555" data-name="Trazado 194555" d="M212.058.227c0-.007,0-.014,0-.022-.969-.215-1.981.141-2.941-.205a5.891,5.891,0,0,0,2.945.227" transform="translate(-138.011)" fill="#75cab5"/>
    <path id="Trazado_194556" data-name="Trazado 194556" d="M217.766.626c.033,0,.065,0,.1,0-.034-.009-.068-.012-.1-.019a.217.217,0,0,0,0,.022" transform="translate(-143.719 -0.399)" fill="#75cab5"/>
    <path id="Trazado_194557" data-name="Trazado 194557" d="M120.459,325.809c-1.277.016-1.455-.476-1.222-1.514a11.234,11.234,0,0,1,2.6-4.665h-14.1a4.772,4.772,0,0,1,1.383-1.827c5.044-5.088,11.262-7.495,18.313-8.013a30.93,30.93,0,0,0,5.382-.509,9.561,9.561,0,0,0,3.184-1.45h0c2.739-2,4.433-4.807,5.993-7.72l-21.412-.059h-47.8l-2.361.069c1.668,1.887,4,2.012,6.252,2.392,3.106.524,5.547,1.983,6.812,5.033.354.855.335,1.283-.8,1.228-1.706-.081-3.418-.038-5.127-.009-.413.007-.909-.226-1.233.258a3.071,3.071,0,0,1,.33.421c1.426,2.637,1.156,3.108-1.775,3.108q-9,0-17.992,0c-.661,0-1.5.293-1.253-1,.125-.642-.553-.432-.9-.436-2.164-.022-4.329-.011-6.493-.012-1.687,0-1.822-.215-1.081-1.723.1-.2.229-.386.345-.579l-6.286-.034a66.229,66.229,0,0,0,20.535,18.454,66.452,66.452,0,0,0,24.77,8.717,68.83,68.83,0,0,0,37.4-4.841,71.985,71.985,0,0,0,9.972-5.264c-4.482-.023-8.965-.084-13.446-.029m-16.068-6.19c-3.112-.028-6.225-.012-9.337-.012-2.977,0-5.955-.045-8.931.022-1.226.028-1.161-.513-.723-1.263a4.549,4.549,0,0,1,4.192-2.267,7.37,7.37,0,0,0,3.541-.9,9.389,9.389,0,0,1,9.881.485,4.918,4.918,0,0,1,2.142,3.01c.2.758-.042.929-.764.922" transform="translate(-27.21 -198.028)" fill="#b2f3ee"/>
    <path id="Trazado_194558" data-name="Trazado 194558" d="M133,342.758a71.988,71.988,0,0,1-9.972,5.264,68.829,68.829,0,0,1-37.4,4.84,66.456,66.456,0,0,1-24.77-8.717,66.236,66.236,0,0,1-20.535-18.454l-.468,0a63.574,63.574,0,0,0,9.8,10.77,68.816,68.816,0,0,0,37.528,16.96,74.245,74.245,0,0,0,16.165.167,64.44,64.44,0,0,0,17.6-4.315,59.464,59.464,0,0,0,12.559-6.511l-.506,0" transform="translate(-26.303 -214.949)" fill="#b2f3ee"/>
    <path id="Trazado_194559" data-name="Trazado 194559" d="M279.332,167.944c-3.646-2.808-6.565-2.667-10.142.556-1.868,1.683-3.529,3.6-5.227,5.465a6.1,6.1,0,0,1-7.33,1.64,13.6,13.6,0,0,1-2.46-1.1c-2.209-1.427-4.4-1.122-6.524.045-2.957,1.623-5.894,3.291-8.76,5.069a22.525,22.525,0,0,1-6.747,2.65c.006,5.663.3,11.317.507,16.974.024.671.035,1.342.052,2.013l.016.017c.87.46,1.746.909,2.607,1.384a2.6,2.6,0,0,0,1.412.376c5.639-.272,9.117,2.625,9.8,8.134,6.716-.064,13.433-.03,20.15-.017a3.49,3.49,0,0,1,.8.09,1.111,1.111,0,0,1,.53.337c1.285-1.716,2.372-3.565,3.645-5.3,3.937-5.353,9.33-8.186,15.727-9.338a10.121,10.121,0,0,1,2.159-.316c.026-.109.056-.216.081-.325a71.837,71.837,0,0,0,2.131-19.924,23.488,23.488,0,0,0-.23-3.089c-.006-.1-.016-.2-.022-.3-3.154-.448-6.424-.478-9.091-2.648-1.009-.821-2.055-1.6-3.086-2.393m-39.315,30.577a2.219,2.219,0,0,1-2.119-2.184,2.153,2.153,0,0,1,4.306.069,2.219,2.219,0,0,1-2.187,2.115m5.751.024a2.153,2.153,0,0,1,4.307-.029,2.153,2.153,0,0,1-4.307.029m5.082,8.65a2.226,2.226,0,0,1-2.1-2.208,2.154,2.154,0,0,1,4.307.114,2.223,2.223,0,0,1-2.21,2.094" transform="translate(-153.209 -109.526)" fill="#674447"/>
    <path id="Trazado_194560" data-name="Trazado 194560" d="M402.963,186.936a23.546,23.546,0,0,1,.23,3.089,71.838,71.838,0,0,1-2.131,19.924c-.025.109-.055.216-.081.325a3.086,3.086,0,0,1,.38.035h0a62.91,62.91,0,0,0,2.116-12.976,47.64,47.64,0,0,0-.2-10.649c-.111-.017-.223-.032-.335-.048.007.1.016.2.022.3" transform="translate(-264.64 -123.176)" fill="#674447"/>
    <path id="Trazado_194561" data-name="Trazado 194561" d="M295.932,299.286h0l.026-.036a1.109,1.109,0,0,0-.53-.337,3.492,3.492,0,0,0-.8-.09c-6.717-.013-13.434-.046-20.15.017.016.129.032.256.045.388l21.412.059" transform="translate(-181.148 -197.204)" fill="#674447"/>
    <path id="Trazado_194562" data-name="Trazado 194562" d="M264.934,76.5a12.422,12.422,0,0,0-4.431-1.544c-3.141-.272-5.13,1.594-6.954,3.726-1.985,2.32-3.4,5.089-5.671,7.189a4.985,4.985,0,0,1-.935.767c-1.479.807-2.512.215-2.383-1.432a32.681,32.681,0,0,1,1.608-6.8,71.963,71.963,0,0,0,2.392-9.39,2.751,2.751,0,0,0-1.008-2.889c-1.356-1.013-1.992-2.564-2.728-3.983-1.924-3.705-5.334-2.732-6.767.006a11.972,11.972,0,0,1-2.484,3.667c-2.6,2.259-5.22,1.526-7.126-1.872a5.787,5.787,0,0,0-1-1.722l-.013.01.254,14.09h0q.422,11.77.847,23.54c.151,4.062.329,8.122.5,12.183a1.381,1.381,0,0,1,.725-.4c4.008-.941,7.3-3.325,10.768-5.342,1.329-.772,2.618-1.611,4.01-2.276,2.257-1.078,4.465-1.327,6.72.066a14.762,14.762,0,0,0,3.529,1.377,5.292,5.292,0,0,0,5.356-1.421c1.83-1.626,3.312-3.584,5.041-5.308a14,14,0,0,1,1.958-1.671c2.629-1.8,5.316-2.15,8.1-.332a21.725,21.725,0,0,1,2.628,1.918,13.844,13.844,0,0,0,8.975,3.654,3.256,3.256,0,0,1,1.546.358,64.689,64.689,0,0,0-4.311-18.679,71.22,71.22,0,0,0-5.483-11.156c-.057-.1-.118-.191-.176-.288a10.319,10.319,0,0,0-6.3,2.951,5.83,5.83,0,0,1-7.183,1.007" transform="translate(-150.102 -39.406)" fill="#745154"/>
    <path id="Trazado_194563" data-name="Trazado 194563" d="M377.553,97.683a71.25,71.25,0,0,1,5.483,11.156,64.7,64.7,0,0,1,4.31,18.679,1.945,1.945,0,0,1,.35.254,49.714,49.714,0,0,0-1.609-10.37,65.4,65.4,0,0,0-8.4-20.029c-.106,0-.21.014-.315.021.057.1.119.191.176.288" transform="translate(-249.062 -64.265)" fill="#745154"/>
    <path id="Trazado_194564" data-name="Trazado 194564" d="M280.963,168.172a21.7,21.7,0,0,0-2.628-1.918c-2.786-1.818-5.472-1.468-8.1.332a14.008,14.008,0,0,0-1.958,1.671c-1.729,1.723-3.211,3.681-5.041,5.308a5.292,5.292,0,0,1-5.356,1.421,14.773,14.773,0,0,1-3.529-1.377c-2.255-1.393-4.462-1.143-6.72-.066-1.392.664-2.681,1.5-4.01,2.276-3.471,2.017-6.761,4.4-10.768,5.342a1.385,1.385,0,0,0-.725.4c0,.036,0,.072,0,.109a22.529,22.529,0,0,0,6.747-2.65c2.866-1.778,5.8-3.446,8.76-5.069,2.126-1.167,4.314-1.471,6.524-.045a13.6,13.6,0,0,0,2.46,1.1,6.1,6.1,0,0,0,7.33-1.639c1.7-1.863,3.36-3.782,5.227-5.465,3.577-3.223,6.5-3.364,10.142-.556,1.031.794,2.076,1.571,3.086,2.393,2.667,2.17,5.937,2.2,9.091,2.648,0-.069-.011-.138-.016-.206a3.254,3.254,0,0,0-1.546-.358,13.845,13.845,0,0,1-8.975-3.654" transform="translate(-153.2 -108.931)" fill="#745154"/>
    <path id="Trazado_194565" data-name="Trazado 194565" d="M406.713,186.234c.112.016.223.031.335.048a1.963,1.963,0,0,0-.35-.254c.005.069.011.137.016.206" transform="translate(-268.413 -122.775)" fill="#745154"/>
    <path id="Trazado_194566" data-name="Trazado 194566" d="M31.015,246.782a8.935,8.935,0,0,1-1.054-.114c-1.928.265-3.611-.711-5.3-1.482a18.977,18.977,0,0,1-6.825-4.989c-2.074-2.513-4.619-2.753-7.422-2.435a52.538,52.538,0,0,1-6.436.506,68.474,68.474,0,0,0,12.5,29.087,1.292,1.292,0,0,1,.667-.171c1.908.033,3.832-.323,5.717.236a.442.442,0,0,1,.131.146c2.778-2.774,6-2.7,9.387-1.372A1.311,1.311,0,0,0,33.942,266a11.116,11.116,0,0,1,6.8-2.512,14.292,14.292,0,0,1,8.294,1.769,11.321,11.321,0,0,1,2.648,2.515c.145-.606.761-.527,1.239-.546,1.576-.061,3.155-.044,4.732-.015.966.018,1.088-.368.7-1.146a7.992,7.992,0,0,0-6.17-4.327c-1.907-.341-3.863-.511-5.526-1.635-.414-.28-1.084-.5-.831-1.174a8.327,8.327,0,0,1-2.5-2.938,27.113,27.113,0,0,0-9.74-9.85h0l-.008,0a1.082,1.082,0,0,1-.025.279c-.783.579-1.687.281-2.539.358" transform="translate(-2.627 -156.846)" fill="#85646a"/>
    <path id="Trazado_194567" data-name="Trazado 194567" d="M3.436,239.464c-.094,0-.187,0-.28,0a17.876,17.876,0,0,0,.715,3.951,70.618,70.618,0,0,0,11.763,25.367,1.2,1.2,0,0,1,.3-.23,68.474,68.474,0,0,1-12.5-29.087" transform="translate(-2.083 -158.041)" fill="#85646a"/>
    <path id="Trazado_194568" data-name="Trazado 194568" d="M81.443,263.269c.852-.077,1.756.221,2.539-.358a1.082,1.082,0,0,0,.025-.279c-.867.556-1.852.122-2.762.325a4.878,4.878,0,0,1-.856.2,8.945,8.945,0,0,0,1.054.114" transform="translate(-53.055 -173.332)" fill="#85646a"/>
    <path id="Trazado_194569" data-name="Trazado 194569" d="M132.863,309.139c.324-.485.821-.252,1.234-.258,1.709-.029,3.421-.072,5.127.009,1.134.054,1.153-.374.8-1.228-1.265-3.051-3.706-4.509-6.812-5.033-2.252-.38-4.584-.505-6.252-2.392l-.013-.009c-.253.672.417.894.831,1.174,1.663,1.124,3.619,1.294,5.526,1.635a7.992,7.992,0,0,1,6.17,4.327c.39.779.268,1.164-.7,1.146-1.577-.029-3.156-.046-4.732.015-.479.019-1.095-.06-1.239.546Z" transform="translate(-83.745 -198.144)" fill="#85646a"/>
    <path id="Trazado_194570" data-name="Trazado 194570" d="M47.245,324.732a.438.438,0,0,0-.131-.146c-1.885-.559-3.81-.2-5.717-.236a1.293,1.293,0,0,0-.667.171l.032.045c.045.064.092.125.138.188l6.286.034c.019-.02.039-.036.059-.056" transform="translate(-26.881 -214.012)" fill="#85646a"/>
    <path id="Trazado_194571" data-name="Trazado 194571" d="M40.322,325.244c-.045-.063-.093-.125-.138-.188l-.032-.045a1.2,1.2,0,0,0-.3.23h0l.468,0" transform="translate(-26.303 -214.501)" fill="#85646a"/>
    <path id="Trazado_194572" data-name="Trazado 194572" d="M247.033,40.535a18.374,18.374,0,0,0-5.747-.128,24.412,24.412,0,0,0-4.355,2.4,17.809,17.809,0,0,1-6.223,2.172,18.185,18.185,0,0,0-2.713.728c-.033.079-.069.156-.1.236-.572.605-.637,1.558-1.278,2.118l.278,1.287.013.013c.3-.212.545.206.734.5.459.724.852,1.486,1.381,2.168,1.84,2.374,4.341,2.419,6.268.1a26.561,26.561,0,0,0,2.054-3.185,4.884,4.884,0,0,1,1.98-1.984,3.369,3.369,0,0,1,4.187.72,11.025,11.025,0,0,1,1.663,2.463,11.373,11.373,0,0,0,2.247,3.028,3.38,3.38,0,0,1,.891,3.243c-.546,3.777-1.84,7.354-2.864,11a34.181,34.181,0,0,0-1.029,4.486c-.079.563-.254,1.254.37,1.6a1.6,1.6,0,0,0,1.87-.385,14.973,14.973,0,0,0,2.487-2.668c1.232-1.728,2.419-3.5,3.81-5.1,1.923-2.219,4.107-3.97,7.33-3.571a11.6,11.6,0,0,1,3.942,1.39,5.818,5.818,0,0,0,7.318-.96,10.067,10.067,0,0,1,5.22-2.711,2.686,2.686,0,0,1,.971-.052,68.063,68.063,0,0,0-9.191-11.817c-.1-.1-.2-.2-.306-.3a77.975,77.975,0,0,1-10.154-3.418,69.523,69.523,0,0,0-11.051-3.39" transform="translate(-149.562 -26.558)" fill="#85646a"/>
    <path id="Trazado_194573" data-name="Trazado 194573" d="M349.335,61.425a68.08,68.08,0,0,1,9.191,11.817,1.077,1.077,0,0,1,.456.209,56.927,56.927,0,0,0-9.52-12.228c-.146-.028-.289-.066-.434-.1.1.1.2.2.306.3" transform="translate(-230.353 -40.342)" fill="#85646a"/>
    <path id="Trazado_194574" data-name="Trazado 194574" d="M226.6,58.683c.642-.559.707-1.512,1.279-2.118.032-.08.067-.157.1-.236-.091.034-.183.063-.274.1h0a2.929,2.929,0,0,0-1.115,2.209l.01.045" transform="translate(-149.543 -37.177)" fill="#85646a"/>
    <path id="Trazado_194575" data-name="Trazado 194575" d="M277.329,71.737a10.067,10.067,0,0,0-5.22,2.711,5.818,5.818,0,0,1-7.318.96,11.6,11.6,0,0,0-3.943-1.39c-3.224-.4-5.407,1.352-7.33,3.571-1.391,1.6-2.577,3.372-3.81,5.1a14.973,14.973,0,0,1-2.487,2.668,1.6,1.6,0,0,1-1.87.385c-.624-.35-.448-1.041-.37-1.6a34.115,34.115,0,0,1,1.029-4.487c1.023-3.649,2.317-7.227,2.864-11a3.38,3.38,0,0,0-.891-3.243,11.367,11.367,0,0,1-2.246-3.028,11.025,11.025,0,0,0-1.663-2.463,3.369,3.369,0,0,0-4.187-.72,4.882,4.882,0,0,0-1.98,1.984,26.561,26.561,0,0,1-2.054,3.185c-1.927,2.321-4.428,2.276-6.268-.1-.529-.682-.922-1.445-1.381-2.168-.189-.3-.431-.717-.734-.5a5.8,5.8,0,0,1,1,1.723c1.905,3.4,4.524,4.132,7.126,1.872a11.972,11.972,0,0,0,2.484-3.667c1.432-2.738,4.843-3.711,6.767-.006.736,1.418,1.372,2.97,2.728,3.983a2.751,2.751,0,0,1,1.008,2.89,71.991,71.991,0,0,1-2.392,9.39,32.654,32.654,0,0,0-1.608,6.8c-.13,1.647.9,2.239,2.383,1.432a4.962,4.962,0,0,0,.935-.767c2.266-2.1,3.686-4.869,5.671-7.189,1.824-2.132,3.813-4,6.954-3.726a12.422,12.422,0,0,1,4.431,1.544,5.829,5.829,0,0,0,7.183-1.007,10.319,10.319,0,0,1,6.3-2.951c-.046-.078-.095-.153-.141-.231a2.694,2.694,0,0,0-.971.052" transform="translate(-150.126 -38.785)" fill="#85646a"/>
    <path id="Trazado_194576" data-name="Trazado 194576" d="M377.1,96.989c.1-.008.209-.017.315-.021a1.077,1.077,0,0,0-.456-.209c.047.077.095.153.141.231" transform="translate(-248.787 -63.859)" fill="#85646a"/>
    <path id="Trazado_194577" data-name="Trazado 194577" d="M270.5,315.33a4.027,4.027,0,0,1-3.561-.668l-.079-.1c-.061.045-.12.09-.182.134a10.406,10.406,0,0,1-5.482,1.71c-5.792.227-11.394,1.164-16.448,4.311a29.605,29.605,0,0,0-5.58,4.765c.289.329.662.189.978.19,3.569.011,7.139,0,10.708.015.576,0,1.2-.118,1.683.34a15.628,15.628,0,0,1,7.611-3.612,17.206,17.206,0,0,1,12.657,2.219,2.857,2.857,0,0,1,.795.664,68.321,68.321,0,0,0,12.861-15.478,28.168,28.168,0,0,0-7.592,2.542,43.868,43.868,0,0,1-8.369,2.966" transform="translate(-157.85 -204.477)" fill="#85646a"/>
    <path id="Trazado_194578" data-name="Trazado 194578" d="M340.436,325.228a1.406,1.406,0,0,1,.156.256,48.882,48.882,0,0,0,6.085-6.135,56.608,56.608,0,0,0,6.931-9.636h0c-.1.01-.207.024-.31.037a68.331,68.331,0,0,1-12.861,15.478" transform="translate(-224.682 -204.405)" fill="#85646a"/>
    <path id="Trazado_194579" data-name="Trazado 194579" d="M265.1,322.931h0a9.565,9.565,0,0,1-3.184,1.45,30.973,30.973,0,0,1-5.382.509c-7.051.518-13.269,2.925-18.313,8.013a4.779,4.779,0,0,0-1.382,1.827h14.1c.02-.017.041-.033.062-.05-.479-.458-1.107-.337-1.683-.34-3.569-.018-7.139,0-10.708-.016-.315,0-.689.139-.977-.19a29.581,29.581,0,0,1,5.58-4.765c5.053-3.148,10.655-4.084,16.447-4.311a10.408,10.408,0,0,0,5.482-1.71c.062-.044.121-.09.182-.134l-.226-.283h0" transform="translate(-156.305 -213.129)" fill="#85646a"/>
    <path id="Trazado_194580" data-name="Trazado 194580" d="M332.233,264.633a40.423,40.423,0,0,0-4.289,5.89c-.288.457-.451,1.086-1.149,1.133.249.38-.127.853-.343,1.238a20.526,20.526,0,0,1-5.282,6.632,1.393,1.393,0,0,1,.17.085c.1.058.2.105.307.153,2.986-.115,5.177-2.024,7.482-3.628,2.911-2.025,5.626-4.373,9.027-5.58a8.687,8.687,0,0,1,5.225-.673l.027-.058a63.1,63.1,0,0,0,4.832-12.879,9.158,9.158,0,0,1-1.881.354,24.074,24.074,0,0,0-14.126,7.333" transform="translate(-211.966 -169.58)" fill="#52c782"/>
    <path id="Trazado_194581" data-name="Trazado 194581" d="M386.521,269.372c-.008.02-.018.039-.027.059.087.023.174.046.261.074h0a58.778,58.778,0,0,0,5.043-13.245,2.263,2.263,0,0,1-.448.234,63.085,63.085,0,0,1-4.832,12.879" transform="translate(-255.079 -169.126)" fill="#52c782"/>
    <path id="Trazado_194582" data-name="Trazado 194582" d="M325.947,300.214c-1.561,2.913-3.255,5.722-5.994,7.72.139.045.28.086.414.144a20.523,20.523,0,0,0,5.282-6.632c.216-.385.592-.858.343-1.238-.016,0-.029.006-.045.007Z" transform="translate(-211.163 -198.131)" fill="#52c782"/>
    <path id="Trazado_194583" data-name="Trazado 194583" d="M341.3,265.8c-1.273,1.73-2.36,3.579-3.645,5.3.007.01.013.02.019.03.7-.047.861-.676,1.149-1.133a40.372,40.372,0,0,1,4.289-5.89,24.071,24.071,0,0,1,14.126-7.333,9.109,9.109,0,0,0,1.881-.354c.022-.09.046-.179.067-.269a10.1,10.1,0,0,0-2.159.316c-6.4,1.152-11.79,3.985-15.727,9.338" transform="translate(-222.847 -169.052)" fill="#52c782"/>
    <path id="Trazado_194584" data-name="Trazado 194584" d="M400.85,256.153c-.021.09-.045.18-.067.269a2.265,2.265,0,0,0,.447-.234h0a3.089,3.089,0,0,0-.38-.035" transform="translate(-264.509 -169.056)" fill="#52c782"/>
    <path id="Trazado_194585" data-name="Trazado 194585" d="M337.58,300.155h0c.017,0,.029-.005.045-.006-.007-.01-.012-.02-.019-.03l-.026.036" transform="translate(-222.797 -198.073)" fill="#52c782"/>
    <path id="Trazado_194586" data-name="Trazado 194586" d="M320.695,323.593c.2.008.394.007.587,0-.1-.048-.205-.095-.307-.153a1.391,1.391,0,0,0-.17-.085c-.062.047-.125.093-.188.139l.079.1" transform="translate(-211.601 -213.409)" fill="#52c782"/>
    <path id="Trazado_194587" data-name="Trazado 194587" d="M319.952,322.931l.225.283c.063-.046.126-.092.189-.139-.134-.057-.275-.1-.414-.144h0" transform="translate(-211.162 -213.129)" fill="#52c782"/>
    <path id="Trazado_194588" data-name="Trazado 194588" d="M240.95,10.385c-1.894,1.091-2.3,1.99-1.826,4.133.577,2.586.374,3.358-1.932,4.52a12.61,12.61,0,0,0-6.073,6.138,3.41,3.41,0,0,1,1.441-.488,21.5,21.5,0,0,0,9.409-3.79,7.672,7.672,0,0,1,2.372-.938c.057-.015.115-.025.172-.039,1.7-1.912,3.978-1.716,6.254-1.465,3.862.425,7.659,1.485,11.589,1.217A71.127,71.127,0,0,0,243.285,9.99a12.859,12.859,0,0,0-1.258-.33c-.163.465-.708.511-1.078.725" transform="translate(-152.535 -6.375)" fill="#52c783"/>
    <path id="Trazado_194589" data-name="Trazado 194589" d="M264.457,9.472a71.125,71.125,0,0,1,19.072,9.682c.136-.009.272-.016.408-.029a57.987,57.987,0,0,0-11.29-6.739,48.22,48.22,0,0,0-9.4-3.512.877.877,0,0,1-.05.267,12.951,12.951,0,0,1,1.257.33" transform="translate(-173.707 -5.857)" fill="#52c783"/>
    <path id="Trazado_194590" data-name="Trazado 194590" d="M230.292,25.068a12.608,12.608,0,0,1,6.073-6.138c2.306-1.163,2.509-1.934,1.932-4.52-.478-2.143-.068-3.041,1.825-4.133.371-.214.914-.259,1.078-.725l-.187-.043-.049-.013a1.453,1.453,0,0,1-.264.158c-2.845,1.248-3.375,2.285-2.66,5.238.48,1.984.354,2.32-1.353,3.449-.448.3-.918.562-1.393.812a10.518,10.518,0,0,0-5.427,6.365,1.628,1.628,0,0,1,.426-.452" transform="translate(-151.707 -6.267)" fill="#52c783"/>
    <path id="Trazado_194591" data-name="Trazado 194591" d="M262.553,9.1l.187.043a.877.877,0,0,0,.05-.267c-.1.066-.191.142-.287.211l.049.013" transform="translate(-173.248 -5.857)" fill="#52c783"/>
    <path id="Trazado_194592" data-name="Trazado 194592" d="M239.609,42.546a24.376,24.376,0,0,1,4.355-2.4c.083-.108.169-.206.256-.3-.057.013-.115.024-.172.038a7.68,7.68,0,0,0-2.372.938,21.5,21.5,0,0,1-9.409,3.79,3.416,3.416,0,0,0-1.442.488c-.053.116-.1.235-.152.353a18.154,18.154,0,0,1,2.713-.728,17.8,17.8,0,0,0,6.224-2.172" transform="translate(-152.239 -26.293)" fill="#52c783"/>
    <path id="Trazado_194593" data-name="Trazado 194593" d="M230.141,55.645c.05-.118.1-.237.152-.353a1.632,1.632,0,0,0-.426.452h0c.09-.036.183-.065.274-.1" transform="translate(-151.708 -36.492)" fill="#52c783"/>
    <path id="Trazado_194594" data-name="Trazado 194594" d="M275.284,350.186c-.308.227-.583.588-1.025.489a1.9,1.9,0,0,1-.571,1.179,7.851,7.851,0,0,0-.7.992c-.516.991-1.415,2.074-.873,3.125.5.977,1.812.445,2.757.459,3.337.051,6.675.012,10.012.027a2.959,2.959,0,0,1,1.56.206,97.131,97.131,0,0,0,8.676-6.711,19.042,19.042,0,0,0-5.993-2.558c-4.98-.885-9.658-.287-13.839,2.791" transform="translate(-179.478 -229.029)" fill="#674447"/>
    <path id="Trazado_194595" data-name="Trazado 194595" d="M314.58,362.354a1.325,1.325,0,0,1,.238.177,74.571,74.571,0,0,0,8.709-6.734l-.272-.154a97.074,97.074,0,0,1-8.676,6.711" transform="translate(-207.617 -234.718)" fill="#674447"/>
    <path id="Trazado_194596" data-name="Trazado 194596" d="M283.859,363.461c-3.337-.015-6.675.025-10.012-.027-.945-.015-2.252.518-2.757-.459-.543-1.051.357-2.134.872-3.125a7.875,7.875,0,0,1,.7-.993,1.9,1.9,0,0,0,.571-1.179.8.8,0,0,1-.151-.046,11.239,11.239,0,0,0-2.6,4.666c-.233,1.037-.056,1.53,1.222,1.514,4.481-.056,8.964.006,13.446.029.064-.04.129-.079.193-.12l.075-.053a2.955,2.955,0,0,0-1.56-.206" transform="translate(-178.456 -236.031)" fill="#674447"/>
    <path id="Trazado_194597" data-name="Trazado 194597" d="M313.984,375.433l-.193.12.506,0h0a1.321,1.321,0,0,0-.238-.176l-.075.053" transform="translate(-207.096 -247.744)" fill="#674447"/>
    <path id="Trazado_194598" data-name="Trazado 194598" d="M298.758,348.439A17.206,17.206,0,0,0,286.1,346.22a15.628,15.628,0,0,0-7.611,3.612,1.148,1.148,0,0,1,.09.085s0,.007,0,.011c.441.1.717-.263,1.025-.49,4.182-3.078,8.859-3.676,13.839-2.791a19.059,19.059,0,0,1,5.993,2.558l.07-.061.046-.041a2.854,2.854,0,0,0-.8-.664" transform="translate(-183.799 -228.28)" fill="#674447"/>
    <path id="Trazado_194599" data-name="Trazado 194599" d="M340.164,355.383l-.07.061.272.154a1.384,1.384,0,0,0-.156-.256l-.046.041" transform="translate(-224.456 -234.519)" fill="#674447"/>
    <path id="Trazado_194600" data-name="Trazado 194600" d="M278.46,357.582s0-.007,0-.011a1.219,1.219,0,0,0-.09-.085c-.02.017-.041.032-.062.05a.8.8,0,0,0,.151.046" transform="translate(-183.679 -235.934)" fill="#674447"/>
    <path id="Trazado_194601" data-name="Trazado 194601" d="M326.066,304.968a4.677,4.677,0,0,1-1.477.315,5.524,5.524,0,0,0,2.675-.046,59.692,59.692,0,0,0,9.744-3.659,33.947,33.947,0,0,1,4.613-1.556,1.647,1.647,0,0,1,1.335-.02,49.168,49.168,0,0,0,2.645-4.772c-5.133.032-9.083,2.8-12.988,5.7a26.363,26.363,0,0,1-6.546,4.036" transform="translate(-214.223 -194.847)" fill="#674447"/>
    <path id="Trazado_194602" data-name="Trazado 194602" d="M378.606,299.991a1.059,1.059,0,0,1,.192.152h0a29.647,29.647,0,0,0,2.752-4.93h0c-.1,0-.2.005-.3.006a49.2,49.2,0,0,1-2.645,4.772" transform="translate(-249.873 -194.835)" fill="#674447"/>
    <path id="Trazado_194603" data-name="Trazado 194603" d="M339.151,309.014a33.944,33.944,0,0,0-4.613,1.556,59.77,59.77,0,0,1-9.744,3.659,5.533,5.533,0,0,1-2.675.046,2.861,2.861,0,0,1-1.272-.252,4.027,4.027,0,0,0,3.561.668,43.869,43.869,0,0,0,8.369-2.966,28.167,28.167,0,0,1,7.592-2.542l.095-.151.023-.038a1.645,1.645,0,0,0-1.335.02" transform="translate(-211.754 -203.839)" fill="#674447"/>
    <path id="Trazado_194604" data-name="Trazado 194604" d="M378.354,309.3l-.095.151c.1-.013.206-.027.31-.037a1.073,1.073,0,0,0-.192-.152l-.023.039" transform="translate(-249.644 -204.109)" fill="#674447"/>
    <path id="Trazado_194605" data-name="Trazado 194605" d="M339.083,295.31c-3.4,1.207-6.116,3.554-9.027,5.58-2.3,1.6-4.5,3.513-7.482,3.628a4.053,4.053,0,0,0,.685.252,4.677,4.677,0,0,0,1.477-.315,26.372,26.372,0,0,0,6.546-4.036c3.906-2.9,7.856-5.67,12.988-5.7.012-.027.025-.053.037-.08a8.684,8.684,0,0,0-5.225.673" transform="translate(-212.892 -194.334)" fill="#674447"/>
    <path id="Trazado_194606" data-name="Trazado 194606" d="M386.385,295.076c.1,0,.2-.007.3-.006-.087-.028-.174-.051-.261-.074-.012.027-.025.053-.037.08" transform="translate(-255.007 -194.692)" fill="#674447"/>
    <path id="Trazado_194607" data-name="Trazado 194607" d="M322.12,324.306a4.051,4.051,0,0,1-.686-.252c-.192.007-.387.008-.586,0a2.857,2.857,0,0,0,1.272.252" transform="translate(-211.754 -213.87)" fill="#674447"/>
    <path id="Trazado_194608" data-name="Trazado 194608" d="M284.559,37.516c-2.188-.249-4.368-.621-6.54-1a9.275,9.275,0,0,0-6.5.921,16.835,16.835,0,0,1,7.373.608c5.713,1.426,11.066,3.916,16.651,5.725.66.214,1.346.367,1.984.644a75.892,75.892,0,0,0-8.328-7.022l-.044-.031c-1.5.641-3.076.326-4.6.152" transform="translate(-179.2 -23.97)" fill="#36b193"/>
    <path id="Trazado_194609" data-name="Trazado 194609" d="M323.435,39.18a75.858,75.858,0,0,1,8.328,7.022,4.1,4.1,0,0,1,.779.433h0a53.649,53.649,0,0,0-8.88-7.612h0c-.09.046-.18.087-.271.126l.043.031" transform="translate(-213.433 -25.755)" fill="#36b193"/>
    <path id="Trazado_194610" data-name="Trazado 194610" d="M277.734,39.836a16.835,16.835,0,0,0-7.373-.608c-.2.117-.4.241-.6.379a18.363,18.363,0,0,1,5.747.128,69.524,69.524,0,0,1,11.051,3.39,77.974,77.974,0,0,0,10.154,3.418l-.345-.337c-.638-.277-1.324-.43-1.984-.644-5.585-1.809-10.938-4.3-16.651-5.725" transform="translate(-178.039 -25.758)" fill="#36b193"/>
    <path id="Trazado_194611" data-name="Trazado 194611" d="M348.013,60.135c.115.112.231.224.345.337.145.031.288.068.434.1h0a4.14,4.14,0,0,0-.779-.433" transform="translate(-229.682 -39.688)" fill="#36b193"/>
    <path id="Trazado_194612" data-name="Trazado 194612" d="M276.768,35.226c-2.276-.251-4.555-.447-6.254,1.465.115-.027.229-.054.343-.076a9.277,9.277,0,0,1,6.5-.921c2.172.376,4.351.748,6.54,1,1.525.173,3.1.488,4.6-.152l-.137-.1c-3.93.268-7.727-.792-11.589-1.217" transform="translate(-178.534 -23.145)" fill="#36b193"/>
    <path id="Trazado_194613" data-name="Trazado 194613" d="M323.126,39.149c.09-.039.181-.08.271-.126-.136.013-.272.019-.408.029l.137.1" transform="translate(-213.167 -25.754)" fill="#36b193"/>
    <path id="Trazado_194614" data-name="Trazado 194614" d="M270.361,39.615c-.114.022-.229.05-.343.076-.086.1-.172.195-.255.3.2-.138.4-.262.6-.379" transform="translate(-178.039 -26.145)" fill="#36b193"/>
    <path id="Trazado_194615" data-name="Trazado 194615" d="M6.256,229.364a35.957,35.957,0,0,1,5.524-.424,5.271,5.271,0,0,1,3.989,1.655,27.386,27.386,0,0,0,6.906,5.4,18.81,18.81,0,0,0,4.679,1.959A15.961,15.961,0,0,1,22,234.578c-1.809-1.569-3.567-3.2-5.234-4.922a10.229,10.229,0,0,0-6.658-2.974,30.594,30.594,0,0,1-5.9-.75,5.041,5.041,0,0,1-2.147-.98c.156,1.6.4,3.188.623,4.778l0,.014c1.125-.561,2.387-.2,3.569-.379" transform="translate(-1.36 -148.464)" fill="#674447"/>
    <path id="Trazado_194616" data-name="Trazado 194616" d="M1.951,228.849c-.227-1.59-.467-3.179-.623-4.778a2.31,2.31,0,0,1-.377-.454,27.335,27.335,0,0,0,.75,5.388,2.612,2.612,0,0,1,.253-.143s0-.009,0-.014" transform="translate(-0.628 -147.583)" fill="#674447"/>
    <path id="Trazado_194617" data-name="Trazado 194617" d="M4.159,225.449a30.594,30.594,0,0,0,5.9.75,10.229,10.229,0,0,1,6.658,2.974c1.666,1.726,3.425,3.353,5.234,4.922a15.96,15.96,0,0,0,5.349,3.377,7.321,7.321,0,0,0,2.2.133,11.56,11.56,0,0,1-5.855-2.575,69.216,69.216,0,0,1-6.555-6.041,11.054,11.054,0,0,0-7.109-3.161c-2.719-.237-5.517-.21-7.995-1.609.008.083.017.165.025.248a5.041,5.041,0,0,0,2.147.98" transform="translate(-1.311 -147.982)" fill="#674447"/>
    <path id="Trazado_194618" data-name="Trazado 194618" d="M1.3,223.822c-.118-.067-.236-.133-.352-.206a2.3,2.3,0,0,0,.377.454c-.008-.083-.018-.165-.025-.248" transform="translate(-0.628 -147.583)" fill="#674447"/>
    <path id="Trazado_194619" data-name="Trazado 194619" d="M17.786,239.558a18.974,18.974,0,0,0,6.825,4.989c1.687.772,3.37,1.747,5.3,1.482a9.052,9.052,0,0,1-1.34-.331,18.809,18.809,0,0,1-4.679-1.959,27.382,27.382,0,0,1-6.906-5.4,5.271,5.271,0,0,0-3.989-1.655,36.044,36.044,0,0,0-5.525.424c-1.182.182-2.444-.182-3.569.379.008.048.018.1.027.143a52.538,52.538,0,0,0,6.436-.506c2.8-.318,5.347-.078,7.422,2.435" transform="translate(-2.575 -156.206)" fill="#674447"/>
    <path id="Trazado_194620" data-name="Trazado 194620" d="M3.409,239.044a2.694,2.694,0,0,0-.253.142c.094,0,.187,0,.28,0-.009-.048-.019-.1-.027-.144" transform="translate(-2.083 -157.765)" fill="#674447"/>
    <path id="Trazado_194621" data-name="Trazado 194621" d="M76.447,263.2a9.1,9.1,0,0,0,1.34.331,4.875,4.875,0,0,0,.856-.2,7.319,7.319,0,0,1-2.2-.133" transform="translate(-50.454 -173.705)" fill="#674447"/>
    <path id="Trazado_194622" data-name="Trazado 194622" d="M31.43,151.295a10.531,10.531,0,0,1,4.378,2.736,23.3,23.3,0,0,1,4.836,5.783c.888,1.509,2.13,2.764,3.03,4.262a1.38,1.38,0,0,1,.1-.216,5.525,5.525,0,0,1,2.3-.218,6.5,6.5,0,0,1,9.54-5.321c.526.3.765.158,1.054-.306a10.87,10.87,0,0,1,3.244-3.2q.291-9.2.58-18.4c.014-.449-.007-.9-.011-1.35h0c.239-2.218-.214-3.724-2.623-4.847-2.588-1.207-4.213-3.862-6.081-6.054-2.2-2.578-4.658-4.771-8.016-5.693-3.39-.931-6.3.24-8.983,2.195-1.705,1.244-3.343,2.581-5,3.894-.629.5-1.334,1-2.071.5-.7-.475-.346-1.3-.241-2,.565-3.812,1.44-7.585,1.49-11.462a9.124,9.124,0,0,0-.674-3.421,4.04,4.04,0,0,0-4.072-2.757,10.8,10.8,0,0,1-7.831-3.928,20.37,20.37,0,0,1-4.17-7.024,1.284,1.284,0,0,0-.328-.52l-.105.162A68.633,68.633,0,0,0,1.453,121.6a35.087,35.087,0,0,1-.6,4.394.314.314,0,0,1-.139.092c.948.188,1.423,1.029,2.079,1.59,3.509,3,7.632,4.983,11.646,7.144a19.956,19.956,0,0,1,7.776,6.977,26.8,26.8,0,0,0,8.252,8.476c.392.254.922.465.954,1.014l.01.006h0m22.761-3.512a2.191,2.191,0,0,1,2.167,2.125,2.153,2.153,0,0,1-4.307.024,2.179,2.179,0,0,1,2.14-2.149M46.7,152.1a2.087,2.087,0,0,1,2.151,2.125,2.112,2.112,0,1,1-4.223.076,2.082,2.082,0,0,1,2.072-2.2" transform="translate(-0.471 -62)" fill="#674447"/>
    <path id="Trazado_194623" data-name="Trazado 194623" d="M.772,125.637a35.1,35.1,0,0,0,.6-4.394A68.631,68.631,0,0,1,11.7,93.746c.034-.054.07-.108.105-.162a.965.965,0,0,0-.267-.184c-.105.145-.219.285-.315.436A67.8,67.8,0,0,0,.592,125.717h0c.014,0,.026.009.04.011a.313.313,0,0,0,.139-.092" transform="translate(-0.391 -61.642)" fill="#674447"/>
    <path id="Trazado_194624" data-name="Trazado 194624" d="M30.423,212.669a26.8,26.8,0,0,1-8.252-8.476,19.956,19.956,0,0,0-7.776-6.977c-4.014-2.161-8.137-4.145-11.646-7.144-.656-.561-1.132-1.4-2.08-1.591l-.021.008a40.54,40.54,0,0,0,11.388,7.829c3.894,1.968,7.591,4.192,9.9,8.1a26.987,26.987,0,0,0,9.443,9.268c-.032-.549-.563-.76-.954-1.014" transform="translate(-0.428 -124.394)" fill="#674447"/>
    <path id="Trazado_194625" data-name="Trazado 194625" d="M.6,188.449l.018.019.022-.008c-.014,0-.026-.008-.04-.011" transform="translate(-0.393 -124.373)" fill="#674447"/>
    <path id="Trazado_194626" data-name="Trazado 194626" d="M129.432,299.28c.005-.129.017-.255.028-.381a5.525,5.525,0,0,0-2.3.218,1.38,1.38,0,0,0-.1.216l.01.015,2.361-.068" transform="translate(-83.858 -197.258)" fill="#674447"/>
    <path id="Trazado_194627" data-name="Trazado 194627" d="M100.267,271.137a23.305,23.305,0,0,0-4.836-5.783,10.531,10.531,0,0,0-4.378-2.736,27.111,27.111,0,0,1,9.741,9.85,8.324,8.324,0,0,0,2.5,2.938l0-.007c-.9-1.5-2.141-2.752-3.029-4.262" transform="translate(-60.093 -173.323)" fill="#674447"/>
    <path id="Trazado_194628" data-name="Trazado 194628" d="M127.056,300.207l0,.007.012.008-.01-.015" transform="translate(-83.853 -198.131)" fill="#674447"/>
    <path id="Trazado_194629" data-name="Trazado 194629" d="M34.746,73.8a17.83,17.83,0,0,0,5.929,7.921A9.609,9.609,0,0,0,45.964,83.6c2.659.115,4.094,1.35,4.821,3.934.685,2.435.261,4.846-.013,7.265-.265,2.336-.815,4.628-1.113,6.96-.062.486-.254,1.046.239,1.379.547.37,1.041-.006,1.476-.328,1.6-1.183,3.085-2.5,4.7-3.668,5.611-4.037,10.7-3.69,15.756,1.116,2.1,2,3.751,4.4,5.843,6.408a10.386,10.386,0,0,0,3.958,2.766,1.324,1.324,0,0,1,.952,1.1c-.187-4.956.407-9.9.282-14.852.1-1.777-.9-3.269-1.276-4.93a55.844,55.844,0,0,1-1.227-9.457c-.194-3.86-.077-7.734-.516-11.583a4.471,4.471,0,0,0-.884-2.381c-1.76-2.1-3.557-4.177-6.142-5.349a4.767,4.767,0,0,0-5.415.624c-2.787,2.285-6.113,3.106-9.611,3.448-1.916.187-3.838.317-5.5,1.53a8.828,8.828,0,0,0-2.348,2.9c-.146.252-.2.676-.621.591-.287-.057-.345-.369-.442-.629-.5-1.349-1.05-2.682-1.537-4.036-.645-1.8-1.472-2.462-3.37-2.525-1.237-.041-2.476-.028-3.715-.032l-.177.221a63.857,63.857,0,0,0-6.272,8.277c.647.2.709.924.931,1.456" transform="translate(-22.317 -40.534)" fill="#745154"/>
    <path id="Trazado_194630" data-name="Trazado 194630" d="M39.408,68.793l.177-.221h-.349a54.308,54.308,0,0,0-6.45,8.442,1.273,1.273,0,0,1,.35.056,63.856,63.856,0,0,1,6.272-8.277" transform="translate(-21.638 -45.256)" fill="#745154"/>
    <path id="Trazado_194631" data-name="Trazado 194631" d="M82.426,131.778c0-.01,0-.019,0-.029a1.323,1.323,0,0,0-.952-1.1,10.389,10.389,0,0,1-3.958-2.765c-2.092-2.007-3.742-4.41-5.843-6.408-5.054-4.805-10.145-5.152-15.756-1.115-1.617,1.164-3.1,2.485-4.7,3.667-.435.322-.929.7-1.476.328-.493-.334-.3-.893-.239-1.379.3-2.332.848-4.624,1.113-6.96.274-2.419.7-4.829.013-7.265-.727-2.583-2.162-3.819-4.821-3.934a9.609,9.609,0,0,1-5.289-1.879,17.826,17.826,0,0,1-5.928-7.921c-.223-.532-.284-1.252-.931-1.456l-.083.128a1.28,1.28,0,0,1,.328.52,20.369,20.369,0,0,0,4.17,7.024,10.8,10.8,0,0,0,7.831,3.928,4.04,4.04,0,0,1,4.072,2.757,9.131,9.131,0,0,1,.673,3.421c-.05,3.877-.925,7.65-1.49,11.462-.1.705-.457,1.528.241,2,.738.5,1.442,0,2.071-.5,1.654-1.313,3.291-2.65,5-3.894,2.68-1.955,5.592-3.126,8.983-2.195,3.357.922,5.82,3.115,8.016,5.693,1.868,2.192,3.493,4.847,6.081,6.054,2.41,1.124,2.863,2.63,2.623,4.847a21.307,21.307,0,0,0,.259-3.039" transform="translate(-22.157 -61.752)" fill="#745154"/>
    <path id="Trazado_194632" data-name="Trazado 194632" d="M33.053,93.584l.083-.128a1.262,1.262,0,0,0-.35-.056.972.972,0,0,1,.267.184" transform="translate(-21.638 -61.642)" fill="#745154"/>
    <path id="Trazado_194633" data-name="Trazado 194633" d="M58.233,49.2a3.269,3.269,0,0,1,2.133,2.3q.66,1.78,1.342,3.553c.225.586.547.748.9.107,1.686-3.08,4.558-3.886,7.761-4.126a17.312,17.312,0,0,0,9.8-3.531,4.867,4.867,0,0,1,5.247-.588,15.664,15.664,0,0,1,6.651,5.812c1.119,1.613,1.1,3.6,1.138,5.5a117.823,117.823,0,0,0,.858,14.731,26.2,26.2,0,0,0,1.521,5.9,4.176,4.176,0,0,1,.192.644c.209-7.244.306-14.493.675-21.729.175-3.439-.1-6.9.472-10.319a1.09,1.09,0,0,1-.33-.661,3,3,0,0,1,.017-.942,4.266,4.266,0,0,0-3.322-1.924,26.571,26.571,0,0,1-10.225-3.948h0c-4.723-1.693-9.126-.153-13.511,1.381-4.8,1.679-9.357,4.011-14.279,5.37-.008,0-.017,0-.025,0l-.2.192a15.088,15.088,0,0,0-1.963,2.162,9.953,9.953,0,0,1,5.15.112" transform="translate(-35.034 -25.896)" fill="#85646a"/>
    <path id="Trazado_194634" data-name="Trazado 194634" d="M52.209,63.63a15.11,15.11,0,0,1,1.963-2.162l.2-.192a3.137,3.137,0,0,1-.377.045,9.889,9.889,0,0,0-2.239,2.436c.15-.049.3-.086.451-.126" transform="translate(-34.159 -40.441)" fill="#85646a"/>
    <path id="Trazado_194635" data-name="Trazado 194635" d="M180.989,59.621a1.089,1.089,0,0,0,.33.661c.005-.031.01-.063.015-.094h0q-.016-.426-.032-.852a3.786,3.786,0,0,0-.3-.657,3,3,0,0,0-.017.942" transform="translate(-119.43 -38.727)" fill="#85646a"/>
    <path id="Trazado_194636" data-name="Trazado 194636" d="M59.867,65.685c.486,1.355,1.034,2.687,1.536,4.037.1.26.156.571.442.629.422.085.475-.339.621-.591a8.824,8.824,0,0,1,2.348-2.9c1.661-1.213,3.583-1.343,5.5-1.53,3.5-.342,6.824-1.163,9.611-3.448a4.768,4.768,0,0,1,5.415-.624c2.585,1.172,4.382,3.251,6.142,5.349a4.472,4.472,0,0,1,.884,2.381c.44,3.849.322,7.723.517,11.583a55.818,55.818,0,0,0,1.227,9.457c.372,1.66,1.379,3.153,1.276,4.93a2.5,2.5,0,0,0,.186-1.324c0-.073,0-.146.006-.219a4.138,4.138,0,0,0-.192-.643,26.226,26.226,0,0,1-1.521-5.9,117.877,117.877,0,0,1-.858-14.731c-.034-1.9-.019-3.891-1.138-5.5a15.66,15.66,0,0,0-6.651-5.812,4.866,4.866,0,0,0-5.246.588,17.314,17.314,0,0,1-9.8,3.531c-3.2.24-6.075,1.046-7.761,4.125-.351.641-.673.479-.9-.107q-.681-1.772-1.343-3.553a3.269,3.269,0,0,0-2.133-2.295A9.946,9.946,0,0,0,52.884,63l-.1.127c1.239,0,2.478-.01,3.715.032,1.9.064,2.725.729,3.37,2.525" transform="translate(-34.835 -39.812)" fill="#85646a"/>
    <path id="Trazado_194637" data-name="Trazado 194637" d="M52.209,68.2c-.15.04-.3.077-.451.126h.348l.1-.127" transform="translate(-34.159 -45.011)" fill="#85646a"/>
    <path id="Trazado_194638" data-name="Trazado 194638" d="M102.2,20.854c2.89-.516,5.02.092,6.639,2.51.025.038.055.073.082.11.121.04.242.079.362.122a5.483,5.483,0,0,1,1.223.57,21.955,21.955,0,0,0,8.546,3.2,11.144,11.144,0,0,1,1.7.455,3.3,3.3,0,0,1,2.105,1.6,4.757,4.757,0,0,0-2.732-5.436,12.693,12.693,0,0,1-5.352-5.013,4.927,4.927,0,0,0-2.839-2.162c-1.677-.555-3.387-.965-5.1-1.372-.386-.091-1.067,0-1.13-.568A55.02,55.02,0,0,0,92.765,21.5c3.189.547,6.343-.1,9.434-.65" transform="translate(-61.223 -9.814)" fill="#52c783"/>
    <path id="Trazado_194639" data-name="Trazado 194639" d="M104.861,14.14a1.131,1.131,0,0,1,.029-.376h0A55.825,55.825,0,0,0,91.5,20.7c.144.03.288.053.431.078a55.028,55.028,0,0,1,12.933-6.635" transform="translate(-60.386 -9.084)" fill="#52c783"/>
    <path id="Trazado_194640" data-name="Trazado 194640" d="M131.932,15.306c1.716.406,3.426.817,5.1,1.372a4.927,4.927,0,0,1,2.838,2.162,12.7,12.7,0,0,0,5.352,5.013,4.758,4.758,0,0,1,2.733,5.436,2.752,2.752,0,0,1,.241,1c.891-3.768-.832-6.045-4.157-7.529a5.747,5.747,0,0,1-2.811-2.621,8.182,8.182,0,0,0-6.047-4.447,22.931,22.931,0,0,1-2.881-.641c-.411-.139-.995,0-1.313-.383-.064.022-.126.046-.189.068.063.571.744.477,1.13.569" transform="translate(-86.327 -9.681)" fill="#52c783"/>
    <path id="Trazado_194641" data-name="Trazado 194641" d="M130.792,14.14c.063-.022.125-.046.189-.068a.854.854,0,0,1-.16-.308h0a1.131,1.131,0,0,0-.029.376" transform="translate(-86.317 -9.084)" fill="#52c783"/>
    <path id="Trazado_194642" data-name="Trazado 194642" d="M152.108,44.525a11.183,11.183,0,0,0-1.7-.454,21.961,21.961,0,0,1-8.546-3.2,5.485,5.485,0,0,0-1.223-.57c-.12-.043-.241-.081-.362-.122.106.143.221.28.331.42h0a26.565,26.565,0,0,0,10.225,3.948,4.266,4.266,0,0,1,3.322,1.924c.007-.045.013-.09.021-.134.014-.071.022-.14.033-.21a3.3,3.3,0,0,0-2.105-1.6" transform="translate(-92.582 -26.515)" fill="#52c783"/>
    <path id="Trazado_194643" data-name="Trazado 194643" d="M181.119,57.875c-.009.045-.014.09-.021.135a3.787,3.787,0,0,1,.3.657,2.746,2.746,0,0,0-.241-1c-.011.07-.019.139-.033.21" transform="translate(-119.521 -38.058)" fill="#52c783"/>
    <path id="Trazado_194644" data-name="Trazado 194644" d="M74.414,36.945a37.974,37.974,0,0,1,8.484-2.2,11.117,11.117,0,0,1,4.562.5,3.991,3.991,0,0,1-.625-.6A4.377,4.377,0,0,0,82.5,33.026q-3.941.634-7.92.949a4.343,4.343,0,0,1-2.943-.419,64.3,64.3,0,0,0-10.617,8.521c.942-.445,1.985-.638,2.96-.995,3.514-1.288,6.913-2.864,10.433-4.137" transform="translate(-40.273 -21.748)" fill="#36b193"/>
    <path id="Trazado_194645" data-name="Trazado 194645" d="M59.253,42.869a64.269,64.269,0,0,1,10.617-8.521,2.612,2.612,0,0,1-.256-.2,58.189,58.189,0,0,0-11.273,9.268h0a4.84,4.84,0,0,1,.911-.552" transform="translate(-38.505 -22.54)" fill="#36b193"/>
    <path id="Trazado_194646" data-name="Trazado 194646" d="M73.756,40.571c4.385-1.534,8.788-3.074,13.511-1.381h0a10.08,10.08,0,0,1-.842-.582,11.122,11.122,0,0,0-4.562-.5,37.975,37.975,0,0,0-8.484,2.2c-3.52,1.273-6.918,2.849-10.433,4.137-.974.357-2.018.55-2.96,1-.178.169-.356.337-.534.506l.025,0c4.922-1.359,9.479-3.69,14.279-5.37" transform="translate(-39.237 -25.109)" fill="#36b193"/>
    <path id="Trazado_194647" data-name="Trazado 194647" d="M58.719,60.293l.534-.506a4.858,4.858,0,0,0-.911.552h0a3.222,3.222,0,0,0,.377-.046" transform="translate(-38.505 -39.458)" fill="#36b193"/>
    <path id="Trazado_194648" data-name="Trazado 194648" d="M95.19,33.325q3.98-.311,7.92-.949A4.377,4.377,0,0,1,107.444,34a3.992,3.992,0,0,0,.625.6q.256.077.51.162c-.027-.037-.057-.072-.082-.109-1.619-2.419-3.748-3.027-6.639-2.511-3.091.552-6.245,1.2-9.435.651-.058.039-.117.077-.175.116h0a4.343,4.343,0,0,0,2.943.419" transform="translate(-60.881 -21.099)" fill="#36b193"/>
    <path id="Trazado_194649" data-name="Trazado 194649" d="M91.752,34.348c.058-.04.117-.077.175-.116-.144-.024-.287-.048-.431-.078a2.75,2.75,0,0,0,.256.195h0" transform="translate(-60.385 -22.541)" fill="#36b193"/>
    <path id="Trazado_194650" data-name="Trazado 194650" d="M138.779,39.7c.268.21.552.4.842.582-.11-.14-.225-.277-.331-.42q-.255-.085-.51-.163" transform="translate(-91.592 -26.2)" fill="#36b193"/>
    <path id="Trazado_194651" data-name="Trazado 194651" d="M179.738,65.408c.169,4.416-.227,8.821-.327,13.231-.128,5.622-.475,11.241-.514,16.868,0,.439.055.95-.294,1.272q.014.208.028.418c.181,4.795-.378,9.573-.285,14.365,1.341-1.191,1.6-2.948,2-4.555a129.646,129.646,0,0,0,2.515-14.833,82.618,82.618,0,0,1,1.811-11c.145-.539.211-1.2.843-1.215.689-.016.922.695,1.053,1.243a29.385,29.385,0,0,1,.852,5.847,50.67,50.67,0,0,0,.584,6.567c.109.669.1,1.711.945,1.73.686.016.837-.919.965-1.6.706-3.742,1.4-7.485,2.155-11.218a19.886,19.886,0,0,1,.888-2.832c.367-1.006,1-1.462,1.941-1.121.142-3.9-.408-7.776-.288-11.672a7.443,7.443,0,0,1,.138-1.878,1.063,1.063,0,0,1,.277-.369c0-.007,0-.015,0-.022h0a.8.8,0,0,1-.34-1.238,1.575,1.575,0,0,1-.26.169,79.421,79.421,0,0,1-8.625.126,28.525,28.525,0,0,1-6.047-.185c-.024-.012-.045-.025-.067-.038.306.628.023,1.295.048,1.94" transform="translate(-117.698 -41.84)" fill="#ade0f8"/>
    <path id="Trazado_194652" data-name="Trazado 194652" d="M182.217,63.32a28.527,28.527,0,0,0,6.047.185,79.423,79.423,0,0,0,8.625-.126,1.6,1.6,0,0,0,.259-.169c.018-.032.032-.062.052-.094H182.062a1.351,1.351,0,0,1,.089.167c.022.013.042.027.066.038" transform="translate(-120.158 -41.655)" fill="#ade0f8"/>
    <path id="Trazado_194653" data-name="Trazado 194653" d="M226.318,67.474a7.443,7.443,0,0,0-.138,1.878c-.12,3.9.43,7.776.288,11.672a2.836,2.836,0,0,1,.381.171L226.594,67.1a1.072,1.072,0,0,0-.276.37" transform="translate(-149.263 -44.287)" fill="#ade0f8"/>
    <path id="Trazado_194654" data-name="Trazado 194654" d="M226.454,64.539h0q-.139-.644-.278-1.287c-.019.017-.041.032-.062.049a.8.8,0,0,0,.34,1.239" transform="translate(-149.123 -41.745)" fill="#ade0f8"/>
    <path id="Trazado_194655" data-name="Trazado 194655" d="M226.494,63.163l-.01-.045c-.02.032-.035.063-.052.094.02-.016.042-.032.062-.049" transform="translate(-149.441 -41.657)" fill="#ade0f8"/>
    <path id="Trazado_194656" data-name="Trazado 194656" d="M177.559,176.36c-.094-4.792.465-9.57.285-14.365-.01-.139-.019-.279-.028-.418a1.006,1.006,0,0,1-.354.205c.125,4.955-.469,9.9-.283,14.852,0,.008,0,.018,0,.026a4.235,4.235,0,0,0,.375-.3" transform="translate(-116.911 -106.639)" fill="#ade0f8"/>
    <path id="Trazado_194657" data-name="Trazado 194657" d="M177.255,205.888c0-.008,0-.018,0-.026,0,.01,0,.019,0,.029l0,0" transform="translate(-116.982 -135.865)" fill="#ade0f8"/>
    <path id="Trazado_194658" data-name="Trazado 194658" d="M178.646,95.44a9.014,9.014,0,0,1,.162,1.337c.349-.322.291-.832.294-1.271.039-5.628.387-11.246.514-16.869.1-4.41.5-8.815.327-13.231-.024-.646.259-1.313-.048-1.941a.8.8,0,0,1-.1-.073c-.569,3.418-.3,6.88-.472,10.319-.368,7.236-.465,14.485-.675,21.729" transform="translate(-117.903 -41.838)" fill="#ade0f8"/>
    <path id="Trazado_194659" data-name="Trazado 194659" d="M182.019,63.21a.765.765,0,0,0,.1.073,1.259,1.259,0,0,0-.089-.167c-.005.031-.01.063-.015.094" transform="translate(-120.129 -41.655)" fill="#ade0f8"/>
    <path id="Trazado_194660" data-name="Trazado 194660" d="M178.274,157.645c0,.073,0,.146-.006.219a2.5,2.5,0,0,1-.186,1.324,1.007,1.007,0,0,0,.353-.205,9.015,9.015,0,0,0-.162-1.337" transform="translate(-117.531 -104.043)" fill="#ade0f8"/>
    <path id="Trazado_194661" data-name="Trazado 194661" d="M160.126,269.344a1.326,1.326,0,0,1-1.287-.058,10.44,10.44,0,0,0-10.18.364,2.19,2.19,0,0,1-.749.922A9.458,9.458,0,0,0,145.588,273a1.178,1.178,0,0,1-1.725.513c-3.337-1.9-7.993.256-8.9,4.637a2.311,2.311,0,0,1-.132.453c2.952-.1,5.9-.037,8.856-.039q18.558-.013,37.115,0c.425,0,.851-.005,1.275.023a6.736,6.736,0,0,1-.311-1.228,8.348,8.348,0,0,0-8.962-6.625,5.361,5.361,0,0,1-4.313-2.026l-.015-.008a10.874,10.874,0,0,0-8.353.647" transform="translate(-88.988 -176.964)" fill="#fefefe"/>
    <path id="Trazado_194662" data-name="Trazado 194662" d="M181.552,298.8c-.424-.029-.85-.023-1.275-.023q-18.557,0-37.115,0c-2.952,0-5.9-.056-8.856.039a1.055,1.055,0,0,1-.272.383h47.8a1.391,1.391,0,0,1-.279-.4" transform="translate(-88.459 -197.179)" fill="#fefefe"/>
    <path id="Trazado_194663" data-name="Trazado 194663" d="M238.144,271.839a8.348,8.348,0,0,1,8.962,6.625,6.7,6.7,0,0,0,.311,1.228c.071,0,.142.009.213.016h.021c-.684-5.509-4.161-8.406-9.8-8.133a2.6,2.6,0,0,1-1.412-.377c-.861-.475-1.737-.924-2.607-1.384a5.36,5.36,0,0,0,4.313,2.025" transform="translate(-154.324 -178.072)" fill="#fefefe"/>
    <path id="Trazado_194664" data-name="Trazado 194664" d="M273.787,298.867a1.39,1.39,0,0,0,.279.4c-.013-.131-.029-.259-.045-.388H274c-.071-.007-.142-.011-.213-.016" transform="translate(-180.694 -197.247)" fill="#fefefe"/>
    <path id="Trazado_194665" data-name="Trazado 194665" d="M134.36,281.546a2.309,2.309,0,0,0,.132-.453c.9-4.381,5.561-6.537,8.9-4.637a1.177,1.177,0,0,0,1.724-.513,9.472,9.472,0,0,1,2.322-2.429,2.191,2.191,0,0,0,.749-.922c-.077.043-.154.082-.231.127a10.871,10.871,0,0,0-3.244,3.2c-.289.464-.528.611-1.054.306a6.5,6.5,0,0,0-9.54,5.321c.054,0,.107,0,.161,0l.083,0" transform="translate(-88.514 -179.906)" fill="#fefefe"/>
    <path id="Trazado_194666" data-name="Trazado 194666" d="M134.305,298.926l-.083,0c-.054,0-.107,0-.161,0-.012.126-.023.252-.028.381a1.052,1.052,0,0,0,.272-.383" transform="translate(-88.459 -197.286)" fill="#fefefe"/>
    <path id="Trazado_194667" data-name="Trazado 194667" d="M59.806,318.78c-.216,1.556-.215,1.564,1.314,1.578,1.8.017,3.605-.018,5.407.017.679.013,1.385.022,1.65.861.159.506.587.485,1,.484,6.219-.011,12.438.019,18.656-.018,1.238-.008,1.433-.333,1.088-1.5-.14-.475-.393-.911-.489-1.4a1.353,1.353,0,0,1,.019-.2c-.5.029-.737-.391-1-.7a9.692,9.692,0,0,0-6.411-3.173c-3.609-.448-7.14-.132-10.13,2.308a1.751,1.751,0,0,1-2.019.17,9.122,9.122,0,0,0-4.5-.676,5.649,5.649,0,0,0-3.381,1.206,1.989,1.989,0,0,1-1.212.64.837.837,0,0,1,.013.4" transform="translate(-39.404 -207.603)" fill="#674447"/>
    <path id="Trazado_194668" data-name="Trazado 194668" d="M86.936,326.212c.1.49.349.926.489,1.4.345,1.168.15,1.493-1.088,1.5-6.218.037-12.437.008-18.656.019-.411,0-.838.021-1-.485-.265-.838-.97-.848-1.649-.861-1.8-.035-3.605,0-5.408-.017-1.529-.014-1.53-.023-1.313-1.578a.838.838,0,0,0-.013-.4c-.029,0-.055,0-.085,0-.116.192-.247.378-.345.579-.74,1.508-.606,1.722,1.081,1.723,2.164,0,4.329-.011,6.493.012.342,0,1.02-.206.9.436-.251,1.288.592.995,1.253,1q9,.007,17.991,0c2.931,0,3.2-.472,1.775-3.108a3.062,3.062,0,0,0-.33-.42c-.026,0-.048,0-.073,0a1.309,1.309,0,0,0-.019.2" transform="translate(-37.91 -215.014)" fill="#674447"/>
    <path id="Trazado_194669" data-name="Trazado 194669" d="M61.128,317.072a5.648,5.648,0,0,1,3.381-1.206,9.12,9.12,0,0,1,4.5.676,1.751,1.751,0,0,0,2.019-.17c2.99-2.44,6.521-2.756,10.13-2.308a9.692,9.692,0,0,1,6.411,3.173c.263.306.5.726,1,.7,0-.025.008-.049.014-.071a11.33,11.33,0,0,0-2.648-2.515,14.291,14.291,0,0,0-8.294-1.769,11.118,11.118,0,0,0-6.8,2.512,1.31,1.31,0,0,1-1.564.195c-3.385-1.324-6.61-1.4-9.388,1.372a.431.431,0,0,1,.026.054,1.991,1.991,0,0,0,1.212-.64" transform="translate(-39.526 -206.937)" fill="#674447"/>
    <path id="Trazado_194670" data-name="Trazado 194670" d="M144.314,326.3l-.059-.069c-.005.022-.01.047-.014.071.025,0,.047,0,.073,0" transform="translate(-95.196 -215.309)" fill="#674447"/>
    <path id="Trazado_194671" data-name="Trazado 194671" d="M59.8,325.685a.4.4,0,0,0-.026-.053c-.02.019-.04.036-.06.056.03,0,.057,0,.085,0" transform="translate(-39.411 -214.911)" fill="#674447"/>
    <path id="Trazado_194672" data-name="Trazado 194672" d="M188.192,342.815a9.39,9.39,0,0,0-9.881-.485,7.364,7.364,0,0,1-3.541.9,4.55,4.55,0,0,0-4.192,2.267c-.438.75-.5,1.291.723,1.264,2.975-.067,5.954-.022,8.931-.022,3.113,0,6.225-.016,9.337.012.722.007.959-.164.764-.922a4.918,4.918,0,0,0-2.142-3.011" transform="translate(-112.389 -225.157)" fill="#85646a"/>
    <path id="Trazado_194673" data-name="Trazado 194673" d="M194.812,157.5c.147-3.6-.45-7.186-.274-10.79a8.813,8.813,0,0,1,.132-1.878,1.154,1.154,0,0,1,.189-.374c-.747-.361-.569-1.094-.583-1.706-.058-2.523-.173-5.05-.212-7.567-.065-4.239-.249-8.476-.411-12.706-.144-3.735.008-7.486-.427-11.211a15.734,15.734,0,0,1-.034-2.551,2.661,2.661,0,0,0-1.97,2.139,88.13,88.13,0,0,0-2.119,10.619,16.572,16.572,0,0,1-.76,3.016c-.2.514-.5,1.041-1.13,1.019s-.9-.565-1.062-1.092a27.8,27.8,0,0,1-.779-6.567,32.509,32.509,0,0,0-.848-6.293c-.1-.385-.161-.918-.631-.936-.507-.02-.544.541-.634.912A102.428,102.428,0,0,0,181.51,122.5a139.524,139.524,0,0,1-2.417,14.283,14.931,14.931,0,0,1-1.414,3.941c-.25.442-.52.914-1.043,1.03-.116.911.351,1.943-.3,2.745.008.2.017.4.032.6.05,6.362-.245,12.711-.623,19.054a4.762,4.762,0,0,1,2.293-1.141,9.862,9.862,0,0,1,6.9.311,3.785,3.785,0,0,0,3.247-.016,9.162,9.162,0,0,1,5.977-.458,2.39,2.39,0,0,1,1.316.64v-.009c-.093-.106-.185-.214-.274-.326a41.681,41.681,0,0,1-.4-5.65" transform="translate(-115.992 -71.752)" fill="#dcf8fe"/>
    <path id="Trazado_194674" data-name="Trazado 194674" d="M231.262,213.83a1.162,1.162,0,0,0-.189.374,8.811,8.811,0,0,0-.132,1.878c-.176,3.6.421,7.187.274,10.79a41.688,41.688,0,0,0,.4,5.65c.089.112.181.22.274.326-.017-.671-.028-1.342-.052-2.013-.205-5.657-.5-11.311-.507-16.974-.023-.01-.043-.021-.065-.032" transform="translate(-152.395 -141.124)" fill="#dcf8fe"/>
    <path id="Trazado_194675" data-name="Trazado 194675" d="M227.012,111.155c.435,3.725.284,7.476.427,11.211.163,4.23.347,8.467.411,12.706.038,2.517.154,5.043.212,7.567.014.611-.164,1.344.583,1.705.02-.026.039-.053.061-.077-.166-4.061-.345-8.121-.5-12.183q-.436-11.769-.847-23.539h0a2.982,2.982,0,0,0-.386.059,15.736,15.736,0,0,0,.035,2.551" transform="translate(-149.778 -71.638)" fill="#dcf8fe"/>
    <path id="Trazado_194676" data-name="Trazado 194676" d="M232.014,213.712h0c0-.036,0-.072,0-.109-.022.024-.041.051-.061.077.022.011.041.022.065.032" transform="translate(-153.082 -140.974)" fill="#dcf8fe"/>
    <path id="Trazado_194677" data-name="Trazado 194677" d="M175.757,214.541c-.016-.2-.024-.4-.032-.6a1.806,1.806,0,0,1-.339.322h0c0,.45.025.9.011,1.35q-.286,9.2-.58,18.4a2.5,2.5,0,0,1,.317-.415c.377-6.344.673-12.692.623-19.054" transform="translate(-115.376 -141.197)" fill="#dcf8fe"/>
    <path id="Trazado_194678" data-name="Trazado 194678" d="M177.636,205.868a1.185,1.185,0,0,1-.372.027,2.919,2.919,0,0,1,.047.469c.016.749,0,1.5.029,2.249.646-.8.179-1.834.3-2.745" transform="translate(-116.991 -135.869)" fill="#dcf8fe"/>
    <path id="Trazado_194679" data-name="Trazado 194679" d="M176.83,208.665c-.029-.75-.014-1.5-.029-2.249a2.913,2.913,0,0,0-.047-.469h0a21.353,21.353,0,0,1-.259,3.039h0a1.817,1.817,0,0,0,.339-.322" transform="translate(-116.481 -135.921)" fill="#dcf8fe"/>
    <path id="Trazado_194680" data-name="Trazado 194680" d="M178.357,141.087c.523-.117.793-.588,1.043-1.03a14.938,14.938,0,0,0,1.414-3.941,139.444,139.444,0,0,0,2.417-14.283,102.514,102.514,0,0,1,1.749-10.961c.09-.371.127-.932.634-.912.47.018.53.551.631.936a32.542,32.542,0,0,1,.848,6.293,27.8,27.8,0,0,0,.779,6.568c.162.526.434,1.069,1.062,1.091s.931-.505,1.13-1.019a16.583,16.583,0,0,0,.76-3.016,88.223,88.223,0,0,1,2.118-10.619,2.661,2.661,0,0,1,1.97-2.139v-.018c0-.071,0-.142,0-.213-.944-.342-1.575.114-1.942,1.121a19.844,19.844,0,0,0-.888,2.832c-.753,3.732-1.45,7.476-2.155,11.218-.128.681-.279,1.615-.966,1.6-.843-.019-.836-1.061-.945-1.73a50.786,50.786,0,0,1-.584-6.567,29.355,29.355,0,0,0-.851-5.847c-.131-.549-.365-1.26-1.054-1.243-.632.015-.7.676-.842,1.215a82.616,82.616,0,0,0-1.811,11,129.649,129.649,0,0,1-2.515,14.833c-.4,1.607-.662,3.363-2,4.555,0,.076,0,.152,0,.228,0,.016,0,.033-.005.049" transform="translate(-117.712 -71.088)" fill="#dcf8fe"/>
    <path id="Trazado_194681" data-name="Trazado 194681" d="M227.046,108.254v.018a3.041,3.041,0,0,1,.386-.059,2.857,2.857,0,0,0-.381-.171c0,.071,0,.142,0,.213" transform="translate(-149.846 -71.305)" fill="#dcf8fe"/>
    <path id="Trazado_194682" data-name="Trazado 194682" d="M177.635,205.331c0-.016,0-.033.005-.049,0-.076,0-.152,0-.228a4.28,4.28,0,0,1-.375.3v0a1.186,1.186,0,0,0,.372-.027" transform="translate(-116.99 -135.332)" fill="#dcf8fe"/>
    <path id="Trazado_194683" data-name="Trazado 194683" d="M177.253,205.942h0v0l0,0" transform="translate(-116.984 -135.916)" fill="#dcf8fe"/>
    <path id="Trazado_194684" data-name="Trazado 194684" d="M185.675,268.532a1.326,1.326,0,0,0,1.287.058,10.873,10.873,0,0,1,8.353-.646A2.39,2.39,0,0,0,194,267.3a9.159,9.159,0,0,0-5.977.458,3.785,3.785,0,0,1-3.247.016,9.863,9.863,0,0,0-6.9-.312,4.765,4.765,0,0,0-2.293,1.141v.019a1.724,1.724,0,0,1-.086.269,10.44,10.44,0,0,1,10.18-.364" transform="translate(-115.823 -176.21)" fill="#dcf8fe"/>
    <path id="Trazado_194685" data-name="Trazado 194685" d="M175.048,272.032a1.745,1.745,0,0,0,.086-.269v-.019a2.518,2.518,0,0,0-.317.415c.077-.045.154-.084.23-.127" transform="translate(-115.376 -179.346)" fill="#dcf8fe"/>
    <path id="Trazado_194686" data-name="Trazado 194686" d="M276.524,257.6a2.153,2.153,0,0,0-4.307.029,2.153,2.153,0,0,0,4.307-.029" transform="translate(-179.659 -168.612)" fill="#fcfcfc"/>
    <path id="Trazado_194687" data-name="Trazado 194687" d="M283.205,274.634a2.187,2.187,0,0,0-2.209,2.08,2.154,2.154,0,0,0,4.307.114,2.189,2.189,0,0,0-2.1-2.194" transform="translate(-185.452 -181.253)" fill="#fcfcfc"/>
    <path id="Trazado_194688" data-name="Trazado 194688" d="M251.258,249.12a2.189,2.189,0,0,0-2.187,2.106,2.153,2.153,0,0,0,4.306.069,2.195,2.195,0,0,0-2.119-2.175" transform="translate(-164.382 -164.415)" fill="#fcfcfc"/>
    <path id="Trazado_194689" data-name="Trazado 194689" d="M153.864,256.576a2.227,2.227,0,0,0,2.141-2.163,2.153,2.153,0,0,0-4.306.024,2.226,2.226,0,0,0,2.165,2.139" transform="translate(-100.118 -166.506)" fill="#fcfcfc"/>
    <path id="Trazado_194690" data-name="Trazado 194690" d="M131.953,269.287a2.151,2.151,0,0,0,2.142-2.163,2.113,2.113,0,1,0-4.224.076,2.16,2.16,0,0,0,2.082,2.087" transform="translate(-85.712 -174.894)" fill="#fdfdfd"/>
  </g>
</svg>
