<svg id="Grupo_881565" data-name="Grupo 881565" xmlns="http://www.w3.org/2000/svg" xmlns:xlink="http://www.w3.org/1999/xlink" width="87.787" height="113" viewBox="0 0 87.787 113">
  <defs>
    <clipPath id="clip-path">
      <rect id="Rectángulo_7413" data-name="Rectángulo 7413" width="87.787" height="113" fill="#12263f"/>
    </clipPath>
  </defs>
  <g id="Grupo_60368" data-name="Grupo 60368" transform="translate(0 0)" clip-path="url(#clip-path)">
    <path id="Trazado_109015" data-name="Trazado 109015" d="M76.755,95.546H27.671a1.838,1.838,0,1,1,0-3.676H74.916V8.033H9.551V22.539a1.838,1.838,0,0,1-3.676,0V6.2A1.837,1.837,0,0,1,7.712,4.357H76.755A1.839,1.839,0,0,1,78.594,6.2v87.51a1.839,1.839,0,0,1-1.839,1.839" transform="translate(9.195 6.819)" fill="#12263f"/>
    <path id="Trazado_109016" data-name="Trazado 109016" d="M7.71,14.854a1.838,1.838,0,0,1-.331-3.645L68.191.03a1.838,1.838,0,0,1,2.17,1.808V13.015a1.838,1.838,0,1,1-3.676,0V4.045L8.044,14.823a1.833,1.833,0,0,1-.333.031" transform="translate(9.194 0.001)" fill="#12263f"/>
    <path id="Trazado_109017" data-name="Trazado 109017" d="M36.864,96.208a1.839,1.839,0,0,1-1.839-1.839v-12.5a1.838,1.838,0,0,1,.287-.985L40.306,73a13.035,13.035,0,0,0,2.009-7.072l-.172-26.975a4.648,4.648,0,0,0-4.489-4.579,4.161,4.161,0,0,0-4.312,4.23l.09,14.362a3.3,3.3,0,0,1-2.211,3.168,3.387,3.387,0,0,1-3.807-1.1L15.686,40.411c-1.916-2.386-1.739-5.856-.564-8.267V17.876L6.669,28.622A15.08,15.08,0,0,0,3.8,39.608L9.014,81.641a1.839,1.839,0,0,1-3.65.451L.149,40.062A18.753,18.753,0,0,1,3.758,26.377L15.514,11.43A1.837,1.837,0,0,1,18.8,12.566V32.6a1.829,1.829,0,0,1-.244.918,4.445,4.445,0,0,0,0,4.594L29.748,52.07l-.085-13.444A7.849,7.849,0,0,1,37.751,30.7a8.354,8.354,0,0,1,8.07,8.232L45.991,65.9a16.7,16.7,0,0,1-2.578,9.063L38.7,82.4V94.369a1.839,1.839,0,0,1-1.839,1.839" transform="translate(0 16.792)" fill="#12263f"/>
    <path id="Trazado_109018" data-name="Trazado 109018" d="M29.925,22.483a7.281,7.281,0,0,1-7.272-7.272,1.839,1.839,0,0,1,1.839-1.837H35.356A1.841,1.841,0,0,1,37.2,15.211a7.283,7.283,0,0,1-7.272,7.272M26.839,17.05a3.591,3.591,0,0,0,6.172,0Z" transform="translate(35.455 20.932)" fill="#12263f"/>
    <path id="Trazado_109019" data-name="Trazado 109019" d="M33.147,24.2a1.84,1.84,0,0,1-1.737-1.236l-2.324-6.7-2.321,6.7a1.838,1.838,0,0,1-3.473-1.2L27.35,10.043a1.838,1.838,0,0,1,3.473,0l4.061,11.715A1.833,1.833,0,0,1,33.747,24.1a1.748,1.748,0,0,1-.6.1" transform="translate(36.294 13.784)" fill="#12263f"/>
    <path id="Trazado_109020" data-name="Trazado 109020" d="M42.093,12.484H16.718a1.838,1.838,0,1,1,0-3.676H42.093a1.838,1.838,0,1,1,0,3.676" transform="translate(23.288 13.786)" fill="#12263f"/>
    <path id="Trazado_109021" data-name="Trazado 109021" d="M20.032,22.483a7.281,7.281,0,0,1-7.27-7.272A1.839,1.839,0,0,1,14.6,13.374H25.465A1.839,1.839,0,0,1,27.3,15.211a7.281,7.281,0,0,1-7.272,7.272M16.946,17.05a3.593,3.593,0,0,0,6.174,0Z" transform="translate(19.974 20.932)" fill="#12263f"/>
    <path id="Trazado_109022" data-name="Trazado 109022" d="M23.255,24.2a1.837,1.837,0,0,1-1.737-1.236l-2.324-6.7-2.321,6.7a1.838,1.838,0,0,1-3.473-1.2l4.058-11.715a1.84,1.84,0,0,1,3.476,0l4.058,11.715A1.834,1.834,0,0,1,23.858,24.1a1.773,1.773,0,0,1-.6.1" transform="translate(20.812 13.784)" fill="#12263f"/>
    <path id="Trazado_109023" data-name="Trazado 109023" d="M21.664,32.94A1.839,1.839,0,0,1,19.825,31.1V9.794a1.839,1.839,0,1,1,3.678,0V31.1a1.839,1.839,0,0,1-1.839,1.839" transform="translate(31.029 12.451)" fill="#12263f"/>
    <path id="Trazado_109024" data-name="Trazado 109024" d="M27.938,27.2H20.145a1.839,1.839,0,0,1-1.839-1.839V18.1a1.839,1.839,0,0,1,1.839-1.837h7.793A1.839,1.839,0,0,1,29.777,18.1v7.262A1.839,1.839,0,0,1,27.938,27.2m-5.954-3.676H26.1V19.94H21.984Z" transform="translate(28.652 25.452)" fill="#12263f"/>
    <path id="Trazado_109025" data-name="Trazado 109025" d="M39.562,27.6H18.335a1.838,1.838,0,1,1,0-3.676H39.562a1.838,1.838,0,1,1,0,3.676" transform="translate(25.819 37.446)" fill="#12263f"/>
    <path id="Trazado_109026" data-name="Trazado 109026" d="M39.562,30.468H18.335a1.838,1.838,0,1,1,0-3.676H39.562a1.838,1.838,0,1,1,0,3.676" transform="translate(25.819 41.934)" fill="#12263f"/>
    <path id="Trazado_109027" data-name="Trazado 109027" d="M39.562,33.334H18.335a1.838,1.838,0,1,1,0-3.676H39.562a1.838,1.838,0,1,1,0,3.676" transform="translate(25.819 46.419)" fill="#12263f"/>
  </g>
</svg>
