<svg xmlns="http://www.w3.org/2000/svg" xmlns:xlink="http://www.w3.org/1999/xlink" width="139.001" height="139" viewBox="0 0 139.001 139">
  <defs>
    <clipPath id="clip-path">
      <rect id="Rectángulo_41220" data-name="Rectángulo 41220" width="139.001" height="139" fill="none"/>
    </clipPath>
  </defs>
  <g id="Grupo_562320" data-name="Grupo 562320" transform="translate(0)">
    <g id="Grupo_562323" data-name="Grupo 562323" transform="translate(0)" clip-path="url(#clip-path)">
      <path id="Trazado_194857" data-name="Trazado 194857" d="M123.532,256.994c-.3-.4-.627-.164-.969-.063a108.228,108.228,0,0,1-16.863,3.552,78.652,78.652,0,0,1-8.206.642c-1.749.037-3.5.28-5.262.213A96.155,96.155,0,0,1,66.1,257.109a78.955,78.955,0,0,1-23.258-11.857,55.506,55.506,0,0,1-12.886-13c-.1-.142-.18-.294-.368-.6a52.141,52.141,0,0,1,6.864.631,60.8,60.8,0,0,1,6.488-14.385,55.372,55.372,0,0,1,5.907-8.728c.549-.7.931-1.4.295-2.18-.672-.826-1.445-.445-2.189-.037a44.437,44.437,0,0,0-11.863,9.549c-.267.3-.563.572-.846.858a56.378,56.378,0,0,0-7.965,13.182,1.042,1.042,0,0,1-1.158.688c-1.034-.031-2.069-.01-3.1-.011-.648.117-1.355-.207-1.973.136a71.263,71.263,0,0,0,11.113,16.3,68.688,68.688,0,0,0,20.79,15.633,67.243,67.243,0,0,0,24.036,6.693c.435.038,1.051-.147,1.137.6H87.162c1.909-.269,3.821-.521,5.726-.81a67.575,67.575,0,0,0,30.644-12.773" transform="translate(-12.77 -131.577)" fill="#84d149"/>
      <path id="Trazado_194858" data-name="Trazado 194858" d="M75.585,313.63a67.242,67.242,0,0,1-24.036-6.694A68.681,68.681,0,0,1,30.759,291.3,71.267,71.267,0,0,1,19.646,275a1.256,1.256,0,0,0-.225.158c.083.207.153.42.253.62a69.642,69.642,0,0,0,51.476,37.663,44.3,44.3,0,0,1,5.573.788c-.086-.748-.7-.562-1.137-.6" transform="translate(-12.375 -175.231)" fill="#84d149"/>
      <path id="Trazado_194859" data-name="Trazado 194859" d="M240.383,346.8c.473-.333,1-.638,1.116-1.284l-.081.066a67.584,67.584,0,0,1-30.644,12.773c-1.906.288-3.817.541-5.726.809,1.773-.279,3.577-.122,5.352-.375a68.178,68.178,0,0,0,29.983-11.99" transform="translate(-130.656 -220.16)" fill="#fefefe"/>
      <path id="Trazado_194860" data-name="Trazado 194860" d="M354.242,167.623c-.16-1.21-.295-2.424-.472-3.631,0-.038-.009-.075-.013-.113-1.7,0-3.408,0-5.111.008a4.328,4.328,0,0,0-4.619,4.4c-.12,2.806-1.92,4.394-5.2,4.595l-.023.044a124.2,124.2,0,0,1,9.3,17.82h0c1.446.147,2.93-.3,4.355.187l.024-.089a80.962,80.962,0,0,0,1.768-11.437c.024-.443-.086-1.048.637-1.138v-9.5c-.728-.092-.586-.7-.645-1.149" transform="translate(-215.886 -104.424)" fill="#64b5eb"/>
      <path id="Trazado_194861" data-name="Trazado 194861" d="M380.875,167.537a21.559,21.559,0,0,0-.552-3.659h-.3c0,.038.009.075.012.113.177,1.207.311,2.421.472,3.631.059.447-.083,1.057.645,1.149-.436-.334-.207-.818-.275-1.234" transform="translate(-242.149 -104.423)" fill="#64b5eb"/>
      <path id="Trazado_194862" data-name="Trazado 194862" d="M378.23,204.691a80.963,80.963,0,0,1-1.768,11.437l-.024.089c.091.031.181.065.271.1h0a46.83,46.83,0,0,0,1.336-6.546c.312-2.068.551-4.147.821-6.221-.723.09-.612.694-.636,1.138" transform="translate(-239.866 -129.704)" fill="#64b5eb"/>
      <path id="Trazado_194863" data-name="Trazado 194863" d="M70.808,61.775c.418-.46.847-.91,1.249-1.382.658-.772,1.462-1.166,2.342-.513.916.68.411,1.524,0,2.288-.466.869-.945,1.73-1.418,2.595h0c.628.016.927.526,1.286.906,4.316,4.556,9.691,7.419,15.461,9.62a76.886,76.886,0,0,0,19.63,4.437,59.429,59.429,0,0,0,6.7.518,1.051,1.051,0,0,1,.883.233l6.51.088h0c.676-.018,1.353-.052,2.029-.052q26.266-.017,52.532-.029a73.154,73.154,0,0,0-2.6-7.444c-.02-.052-.043-.1-.063-.153-4.161-.066-8.3-.427-12.451-.731a149.788,149.788,0,0,1-16.774-2.264,96.133,96.133,0,0,1-12.9-3.211h0c-4.178-1.112-8.243-2.57-12.287-4.083-4.134-1.547-8.246-3.152-12.363-4.743a3.854,3.854,0,0,1-.673-.437h0a17.611,17.611,0,0,1-4.339-1.439,152.2,152.2,0,0,0-29.839-7.965c-2.415-.385-4.852-.629-7.28-.925-.033.025-.065.052-.1.076-.1.089-.211.172-.32.253-.029.025-.056.051-.085.076A26.622,26.622,0,0,0,70.27,60.84c.194.3.359.623.538.935" transform="translate(-42.021 -30.006)" fill="#84d149"/>
      <path id="Trazado_194864" data-name="Trazado 194864" d="M66,47.317c.108-.082.217-.164.32-.253.034-.024.065-.052.1-.076l-.493-.059-.028.112c0,.118.013.235.019.353.029-.025.056-.051.085-.076" transform="translate(-41.989 -29.903)" fill="#84d149"/>
      <path id="Trazado_194865" data-name="Trazado 194865" d="M367.573,118.346a73.163,73.163,0,0,1,2.6,7.444h.295a39.507,39.507,0,0,0-2.639-7.59l-.322-.007c.021.052.043.1.064.153" transform="translate(-234.177 -75.313)" fill="#84d149"/>
      <path id="Trazado_194866" data-name="Trazado 194866" d="M70.318,17.607a144.855,144.855,0,0,1,26.216,5.709c4.317,1.359,8.544,2.968,12.809,4.47l.086.035a6.607,6.607,0,0,1,7.222-4.058,1.293,1.293,0,0,0,1.625-.824A8.431,8.431,0,0,1,134.01,25.1a14.836,14.836,0,0,0,2.892,4.572,5.5,5.5,0,0,1,1.862,2.439c.9.152,1.616-.465,2.453-.623.806-.152,1.612-.121,2.525-.2a13,13,0,0,1-.721-3.941A8.165,8.165,0,0,1,156.8,21.567c.783.8,1.324,1.053,2.3.3a4.641,4.641,0,0,1,2.515-.849c-1.942-1.638-3.706-3.469-5.712-5.041A69.265,69.265,0,0,0,88.914,5.315a67.563,67.563,0,0,0-20.3,11.8c-.147.124-.292.248-.44.37a9.467,9.467,0,0,1,2.145.12" transform="translate(-43.44 -0.638)" fill="#84f9f3"/>
      <path id="Trazado_194867" data-name="Trazado 194867" d="M66.771,16.849c.148-.122.294-.246.44-.37A68.87,68.87,0,0,1,119.772.878,68.744,68.744,0,0,1,154.5,15.335c2.006,1.572,3.77,3.4,5.712,5.041.14-.012.282-.02.422-.025h0A69.45,69.45,0,0,0,80.7,7.246a72.038,72.038,0,0,0-14.728,9.78h0a3.529,3.529,0,0,1,.8-.176" transform="translate(-42.038 0)" fill="#84f9f3"/>
      <path id="Trazado_194868" data-name="Trazado 194868" d="M104.453,55.521a17.613,17.613,0,0,0,4.338,1.439h0c.032-.079.069-.153.1-.23l-.085-.034c-4.265-1.5-8.492-3.111-12.809-4.47a144.789,144.789,0,0,0-26.216-5.708,9.451,9.451,0,0,0-2.146-.12c-.1.082-.2.159-.3.235,2.429.3,4.866.54,7.28.925a152.2,152.2,0,0,1,29.839,7.965" transform="translate(-42.905 -29.547)" fill="#84f9f3"/>
      <path id="Trazado_194869" data-name="Trazado 194869" d="M66.771,46.442a3.529,3.529,0,0,0-.8.176h0c.164.021.329.039.493.059.1-.076.205-.154.3-.235" transform="translate(-42.039 -29.593)" fill="#84f9f3"/>
      <path id="Trazado_194870" data-name="Trazado 194870" d="M238.678,156.961a4.238,4.238,0,0,0,3.49-3.8c.561-3.8,2.056-5.117,5.948-5.056,1.391.022,2.827-.324,4.186.209a57.391,57.391,0,0,0-1.8-8.641,2.858,2.858,0,0,1-1.674.265q-26.4.007-52.805,0c-.3-.021-.6-.031-.905-.037a5.2,5.2,0,0,0-2.75,4.609,4.29,4.29,0,0,1-4.235,3.943c-1.265.03-2.531,0-3.8.007a4.484,4.484,0,1,0,.033,8.952q22.848.007,45.7-.008a94.838,94.838,0,0,0-4.313-9.194c-.185-.362-.373-.723-.561-1.084-.368-.709-.462-1.391.278-1.924a1.379,1.379,0,0,1,1.947.264,73.577,73.577,0,0,1,6.461,7.312c1.176,1.544,2.309,3.122,3.461,4.684h0l.048,0a1.3,1.3,0,0,1,.122-.19,3.873,3.873,0,0,1,1.167-.31" transform="translate(-114.446 -89)" fill="#3188c9"/>
      <path id="Trazado_194871" data-name="Trazado 194871" d="M376.818,147.969c.107.042.213.087.318.14a35.958,35.958,0,0,0-1.881-8.978,1.421,1.421,0,0,1-.236.2,57.4,57.4,0,0,1,1.8,8.641" transform="translate(-238.962 -88.655)" fill="#3188c9"/>
      <path id="Trazado_194872" data-name="Trazado 194872" d="M349.6,162.756c-3.893-.061-5.388,1.259-5.948,5.056a4.238,4.238,0,0,1-3.49,3.8,3.894,3.894,0,0,0-1.168.31,1.277,1.277,0,0,0-.122.191c3.279-.2,5.079-1.789,5.2-4.595a4.328,4.328,0,0,1,4.619-4.4c1.7-.008,3.408-.006,5.112-.008,0-.047-.011-.094-.016-.141-1.359-.533-2.795-.187-4.186-.209" transform="translate(-215.927 -103.65)" fill="#3188c9"/>
      <path id="Trazado_194873" data-name="Trazado 194873" d="M379.977,163.49c0,.047.011.094.016.141h.3c-.106-.053-.211-.1-.318-.14" transform="translate(-242.121 -104.176)" fill="#3188c9"/>
      <path id="Trazado_194874" data-name="Trazado 194874" d="M223.125,139.213h0a6.643,6.643,0,0,0-.764.345c.3.006.6.016.905.037q26.4.035,52.805,0a2.854,2.854,0,0,0,1.674-.265l-.006-.022c-.017-.058-.036-.116-.053-.174q-26.266.013-52.532.028c-.676,0-1.353.034-2.029.052" transform="translate(-141.688 -88.656)" fill="#3188c9"/>
      <path id="Trazado_194875" data-name="Trazado 194875" d="M374.909,139.307l.006.022a1.437,1.437,0,0,0,.236-.2h-.295c.017.058.036.116.053.174" transform="translate(-238.858 -88.656)" fill="#3188c9"/>
      <path id="Trazado_194876" data-name="Trazado 194876" d="M274,54.617a7.423,7.423,0,0,0-7.655-1.738,7.786,7.786,0,0,0-5.3,9.293c.09.442.229.872.327,1.313.085.383.069.848-.379.858-1.626.038-3.123.846-4.763.747l-.037-.045a1.109,1.109,0,0,1-.395.52,8.778,8.778,0,0,0-3.119,4.087.675.675,0,0,1-.164.283,152.685,152.685,0,0,0,24.014,4.773c4.039.459,8.088.786,12.15,1.009a22.788,22.788,0,0,1,5.505.495A68.192,68.192,0,0,0,279.264,53.98l-.033-.028c-1.124.619-2.4.875-3.537,1.5-.707.389-1.218-.382-1.693-.834" transform="translate(-160.906 -33.447)" fill="#60b450"/>
      <path id="Trazado_194877" data-name="Trazado 194877" d="M326.176,56.277A68.185,68.185,0,0,1,341.1,78.508q.186.057.37.123A66.282,66.282,0,0,0,326.416,56.1h0c-.089.056-.181.1-.272.153l.033.028" transform="translate(-207.818 -35.744)" fill="#60b450"/>
      <path id="Trazado_194878" data-name="Trazado 194878" d="M275.823,105.341a152.7,152.7,0,0,1-24.014-4.773.661.661,0,0,1-.405.189h0a96.134,96.134,0,0,0,12.9,3.211,149.878,149.878,0,0,0,16.774,2.264c4.149.3,8.29.665,12.451.731l-.049-.117a22.771,22.771,0,0,0-5.505-.495c-4.062-.223-8.111-.551-12.15-1.009" transform="translate(-160.194 -64.082)" fill="#60b450"/>
      <path id="Trazado_194879" data-name="Trazado 194879" d="M367.424,117.988l.321.007q-.184-.067-.37-.124c.016.039.033.078.049.117" transform="translate(-234.091 -75.107)" fill="#60b450"/>
      <path id="Trazado_194880" data-name="Trazado 194880" d="M280.729,53.659a8.164,8.164,0,0,0-13.783,5.782,13,13,0,0,0,.721,3.941c-.914.082-1.719.051-2.525.2-.837.158-1.549.775-2.453.623a.724.724,0,0,1-.032.118l.038.045c1.64.1,3.137-.709,4.763-.747.448-.011.464-.476.379-.858-.1-.44-.236-.871-.327-1.313a7.785,7.785,0,0,1,5.3-9.292,7.422,7.422,0,0,1,7.655,1.737c.476.452.986,1.223,1.693.834,1.135-.623,2.413-.88,3.537-1.5l-.15-.128a4.64,4.64,0,0,0-2.515.849c-.972.756-1.514.5-2.3-.3" transform="translate(-167.364 -32.73)" fill="#60b450"/>
      <path id="Trazado_194881" data-name="Trazado 194881" d="M325.879,56.249c.091-.05.183-.1.272-.153q-.211.008-.422.025l.15.128" transform="translate(-207.554 -35.744)" fill="#60b450"/>
      <path id="Trazado_194882" data-name="Trazado 194882" d="M16.721,132.735c.958-3.949,2.16-7.828,3.406-11.694h0c1.9-6.057,4.027-12.034,6.46-17.9a167.826,167.826,0,0,1,7.3-15.727c-.23-.927.506-1.546.847-2.289s1.2-1.581.271-2.279c-.976-.733-1.609.273-2.234.9-.311.313-.532.8-1.083.689a122.428,122.428,0,0,0-12.613,16.5,9.69,9.69,0,0,1-1.494,2.223h0c-1.826,3.529-3.893,6.932-5.5,10.573-1.074,2.43-2.11,4.876-3.163,7.316-1.675,4.818-3.04,9.726-4.3,14.665.025.144.048.288.074.433a72.648,72.648,0,0,0,5.455,16.1c.429-.606,1.191-.246,1.787-.366.108.022.211.037.315.055,1.19-6.469,2.657-12.874,4.474-19.2l0,0" transform="translate(-2.941 -52.626)" fill="#a2e96e"/>
      <path id="Trazado_194883" data-name="Trazado 194883" d="M4.3,229.447c-.026-.144-.049-.289-.074-.433-.073.285-.147.569-.218.854v0c.254,1.047.48,2.1.765,3.138A63.4,63.4,0,0,0,9.6,245.856a1.311,1.311,0,0,1,.157-.307,72.649,72.649,0,0,1-5.455-16.1" transform="translate(-2.556 -145.928)" fill="#a2e96e"/>
      <path id="Trazado_194884" data-name="Trazado 194884" d="M21.64,273.58c-.6.12-1.358-.24-1.787.366.023.049.044.1.067.148v0c.618-.343,1.325-.019,1.973-.136.02-.108.041-.216.061-.325-.1-.017-.207-.033-.315-.055" transform="translate(-12.65 -174.325)" fill="#a2e96e"/>
      <path id="Trazado_194885" data-name="Trazado 194885" d="M19.577,274.59a1.287,1.287,0,0,0-.157.308,1.246,1.246,0,0,1,.225-.158v0c-.023-.049-.044-.1-.067-.148" transform="translate(-12.374 -174.969)" fill="#a2e96e"/>
      <path id="Trazado_194886" data-name="Trazado 194886" d="M81.451,86.645h0c.473-.865.952-1.726,1.418-2.594.409-.764.915-1.608,0-2.288-.88-.653-1.684-.259-2.342.513-.4.472-.832.922-1.25,1.382l-.039.045c.551.111.771-.375,1.083-.689.625-.63,1.258-1.637,2.234-.9.929.7.071,1.531-.271,2.279s-1.077,1.362-.847,2.289Z" transform="translate(-50.489 -51.889)" fill="#a2e96e"/>
      <path id="Trazado_194887" data-name="Trazado 194887" d="M19.713,81.651a128.918,128.918,0,0,1,9.262-13.177c1.289-1.567,2.52-3.187,3.951-4.633a2.559,2.559,0,0,1,1.067-.832c-.015,0-.027,0-.043-.009a23.694,23.694,0,0,1-4.418-9.494c-.316-1.181-.407-2.4-.606-3.607a2.376,2.376,0,0,1,.005-.916A68.771,68.771,0,0,0,9.15,78.774a26.7,26.7,0,0,0-.8,2.947l11.313.023.053-.093" transform="translate(-5.319 -31.212)" fill="#60b450"/>
      <path id="Trazado_194888" data-name="Trazado 194888" d="M8.607,77.661A68.773,68.773,0,0,1,28.387,47.87a1.593,1.593,0,0,1,.3-.633,3.036,3.036,0,0,0-.449.277A68.881,68.881,0,0,0,11.948,68.776,51.371,51.371,0,0,0,7.495,80.608H7.8a26.8,26.8,0,0,1,.8-2.947" transform="translate(-4.776 -30.099)" fill="#60b450"/>
      <path id="Trazado_194889" data-name="Trazado 194889" d="M64.995,49.406c.2,1.2.29,2.426.606,3.607a23.693,23.693,0,0,0,4.418,9.494c.016.005.028,0,.043.009a1.006,1.006,0,0,1,.113-.029c-.178-.312-.343-.633-.537-.935a26.619,26.619,0,0,1-4.323-13.343c-.106.093-.208.188-.314.281a2.383,2.383,0,0,0-.005.916" transform="translate(-41.388 -30.719)" fill="#60b450"/>
      <path id="Trazado_194890" data-name="Trazado 194890" d="M65.4,47.59c-.006-.118-.014-.234-.018-.353a1.592,1.592,0,0,0-.3.633c.106-.093.208-.188.314-.281" transform="translate(-41.47 -30.099)" fill="#60b450"/>
      <path id="Trazado_194891" data-name="Trazado 194891" d="M52.794,88.476c-1.431,1.446-2.661,3.066-3.951,4.633a128.917,128.917,0,0,0-9.262,13.177l-.053.092h.3a9.721,9.721,0,0,0,1.495-2.223,122.37,122.37,0,0,1,12.613-16.5c-.024-.005-.048-.008-.074-.016a2.559,2.559,0,0,0-1.067.832" transform="translate(-25.188 -55.847)" fill="#60b450"/>
      <path id="Trazado_194892" data-name="Trazado 194892" d="M79.033,87.593c.026.007.049.011.074.015l.04-.044a1.1,1.1,0,0,0-.113.029" transform="translate(-50.36 -55.796)" fill="#60b450"/>
      <path id="Trazado_194893" data-name="Trazado 194893" d="M14.924,139.8a3.083,3.083,0,0,1-1.124.2c-2.958.009-5.915.016-8.873-.007a2.412,2.412,0,0,1-1.244-.216c-.009.04-.019.081-.027.121A71.126,71.126,0,0,0,1.1,157.5l5.3-.012A113.057,113.057,0,0,1,14.924,139.8" transform="translate(-0.7 -89.07)" fill="#63b5eb"/>
      <path id="Trazado_194894" data-name="Trazado 194894" d="M3.046,139.545c.009-.041.019-.081.027-.121a1.2,1.2,0,0,1-.263-.2A62.559,62.559,0,0,0,.142,157.146H.489a71.126,71.126,0,0,1,2.557-17.6" transform="translate(-0.09 -88.71)" fill="#63b5eb"/>
      <path id="Trazado_194895" data-name="Trazado 194895" d="M15.7,157.174h.278c1.053-2.439,2.089-4.885,3.163-7.316,1.609-3.64,3.676-7.044,5.5-10.573a2.636,2.636,0,0,1-.415.2A113.089,113.089,0,0,0,15.7,157.174" transform="translate(-10.005 -88.752)" fill="#63b5eb"/>
      <path id="Trazado_194896" data-name="Trazado 194896" d="M18.338,139.648a3.085,3.085,0,0,0,1.124-.2c.04-.067.077-.135.117-.2l-11.313-.022c-.015.068-.031.136-.046.2a2.412,2.412,0,0,0,1.244.216c2.958.022,5.915.015,8.873.007" transform="translate(-5.238 -88.712)" fill="#63b5eb"/>
      <path id="Trazado_194897" data-name="Trazado 194897" d="M7.8,139.219H7.495a1.2,1.2,0,0,0,.263.2c.015-.068.03-.136.046-.2" transform="translate(-4.776 -88.71)" fill="#63b5eb"/>
      <path id="Trazado_194898" data-name="Trazado 194898" d="M39.322,139.283c-.04.067-.078.135-.117.2a2.617,2.617,0,0,0,.415-.2Z" transform="translate(-24.981 -88.751)" fill="#63b5eb"/>
      <path id="Trazado_194899" data-name="Trazado 194899" d="M1.066,188.872a73.289,73.289,0,0,0,1.215,14.181c.7-4.911,2.425-9.543,4.051-14.2a8.948,8.948,0,0,1-5.265.02" transform="translate(-0.669 -120.336)" fill="#3188c9"/>
      <path id="Trazado_194900" data-name="Trazado 194900" d="M.4,188.731c-.115-.034-.23-.062-.345-.1a65.846,65.846,0,0,0,1.4,15.508v0c.044-.41.1-.818.156-1.224A73.289,73.289,0,0,1,.4,188.731" transform="translate(0 -120.196)" fill="#3188c9"/>
      <path id="Trazado_194901" data-name="Trazado 194901" d="M8.8,188.591h0c-.1.036-.208.062-.312.094-1.625,4.658-3.348,9.291-4.051,14.2.021.123.042.247.063.37,1.26-4.939,2.625-9.847,4.3-14.665" transform="translate(-2.83 -120.17)" fill="#3188c9"/>
      <path id="Trazado_194902" data-name="Trazado 194902" d="M4.168,227.994c-.058.406-.112.814-.155,1.224.072-.285.145-.57.218-.854-.022-.123-.042-.247-.063-.37" transform="translate(-2.557 -145.278)" fill="#3188c9"/>
      <path id="Trazado_194903" data-name="Trazado 194903" d="M6.359,188.687l.021-.059.013-.034-5.3.013c0,.014,0,.027,0,.041s0,.04,0,.06a8.948,8.948,0,0,0,5.265-.02" transform="translate(-0.697 -120.171)" fill="#3188c9"/>
      <path id="Trazado_194904" data-name="Trazado 194904" d="M.488,188.669c0-.014,0-.027,0-.041H.142c.115.038.23.067.345.1,0-.02,0-.04,0-.06" transform="translate(-0.09 -120.194)" fill="#3188c9"/>
      <path id="Trazado_194905" data-name="Trazado 194905" d="M15.628,188.627l-.021.059c.1-.032.208-.058.312-.094h-.278l-.013.034" transform="translate(-9.945 -120.171)" fill="#3188c9"/>
      <path id="Trazado_194906" data-name="Trazado 194906" d="M99.273,201.236c.415.161.857.252,1.287.375h0a32.077,32.077,0,0,1,5.716-2.18,143.549,143.549,0,0,1,14.942-5.167q2.623-.769,5.249-1.528c0-.019,0-.035,0-.056-7.212-.011-14.425-.091-21.636.02a4.734,4.734,0,0,1-4.531-3.989,4.684,4.684,0,0,1,3.81-4.823c1.353-.128,2.7-.172,4.044-.176,5.377-.018,10.754,0,16.132-.017a4.292,4.292,0,0,0,4.255-4.067c.2-3.175,1.741-4.628,4.909-4.642.361,0,.723-.011,1.084-.016.335-1.7,1.022-2.061,2.523-1.279.8.415,1.572.867,2.356,1.3l4.612-.025a57.536,57.536,0,0,0-6.047-9.106c-.082-.108-.178-.2-.262-.311-.516-.655-.8-1.36-.174-2.077.588-.674,1.286-.47,1.97-.107a40.33,40.33,0,0,1,8.762,6.3c1.428,1.345,2.75,2.8,4.119,4.212l.025-.011a92.044,92.044,0,0,0-4.064-12.206c-.589-1.546-1.279-3.053-1.924-4.578a1.361,1.361,0,0,1-.334.272,6.794,6.794,0,0,1-1.891.133q-21.241,0-42.483,0a8.59,8.59,0,0,1-2.556-.244,4.856,4.856,0,0,1-3.569-5.123,4.955,4.955,0,0,1,4.628-4.38c1.264-.086,2.533,0,3.8-.039a4.044,4.044,0,0,0,4.315-3.808,8.606,8.606,0,0,1,.36-1.586,4.5,4.5,0,0,1,2.2-2.751,41.541,41.541,0,0,1-4.834-.061,12.44,12.44,0,0,0-2.777-.354c-2.441.013-4.881.027-7.322.028q-20.577.008-41.153,0c-.024.061-.05.122-.074.183-2.371,5.819-4.47,11.736-6.393,17.717l3.078,0a76.689,76.689,0,0,1,9.29-11.105c.387-.366.708-.831,1.337-.834,1.164-.005,1.677,1.025,1.048,2.264-1.409,2.781-2.856,5.543-4.09,8.409-.177.411-.324.835-.485,1.253l23.726.012c3.268,0,4.934,1.478,5.284,4.684a4.426,4.426,0,0,0,4.788,4.264c4.79.015,9.581,0,14.371.007,2.631,0,4.669,1.708,4.75,3.96a4.492,4.492,0,0,1-4.51,4.983c-.18.013-.361.005-.542.005l-45.108-.007-.112.19A75.194,75.194,0,0,0,55.211,188a2.955,2.955,0,0,1-.673,1.364,134.874,134.874,0,0,1,19.488,3.423,200.432,200.432,0,0,1,25.247,8.445" transform="translate(-30.806 -88.664)" fill="#64b5eb"/>
      <path id="Trazado_194907" data-name="Trazado 194907" d="M65.991,250.936a75.224,75.224,0,0,1,5.96-12.836l.112-.19h-.311A60.8,60.8,0,0,0,65.265,252.3l.053.005a2.951,2.951,0,0,0,.673-1.364" transform="translate(-41.587 -151.596)" fill="#64b5eb"/>
      <path id="Trazado_194908" data-name="Trazado 194908" d="M208.742,139.2l-6.51-.088-2.443.013a12.459,12.459,0,0,1,2.777.354,41.562,41.562,0,0,0,4.834.061,3.884,3.884,0,0,1,1.343-.34Z" transform="translate(-127.305 -88.642)" fill="#64b5eb"/>
      <path id="Trazado_194909" data-name="Trazado 194909" d="M191.65,143.042a8.609,8.609,0,0,0-.36,1.586,4.044,4.044,0,0,1-4.315,3.808c-1.266.039-2.536-.047-3.8.039a4.955,4.955,0,0,0-4.628,4.38,4.856,4.856,0,0,0,3.568,5.123,8.591,8.591,0,0,0,2.556.244q21.242,0,42.483,0a6.809,6.809,0,0,0,1.891-.134,1.347,1.347,0,0,0,.334-.272l-.007-.016h0q-22.848.007-45.7.009a4.484,4.484,0,1,1-.033-8.953c1.265,0,2.532.023,3.8-.007a4.29,4.29,0,0,0,4.236-3.943,5.2,5.2,0,0,1,2.75-4.609q-.29-.005-.579,0a4.494,4.494,0,0,0-2.2,2.75" transform="translate(-113.755 -89.394)" fill="#64b5eb"/>
      <path id="Trazado_194910" data-name="Trazado 194910" d="M220.764,139.695q.29,0,.579.005a6.534,6.534,0,0,1,.764-.345,3.885,3.885,0,0,0-1.343.34" transform="translate(-140.671 -88.797)" fill="#64b5eb"/>
      <path id="Trazado_194911" data-name="Trazado 194911" d="M53.831,139.236c-2.433,5.866-4.558,11.843-6.46,17.9h.354c1.922-5.981,4.022-11.9,6.393-17.717.024-.061.05-.122.075-.183h-.361" transform="translate(-30.185 -88.721)" fill="#64b5eb"/>
      <path id="Trazado_194912" data-name="Trazado 194912" d="M121.32,296.946a211.979,211.979,0,0,1-20.118-7.133,1.405,1.405,0,0,1-.248-.137c-.1.033-.2.067-.306.1a17.831,17.831,0,0,1-4.85-1.63,166.667,166.667,0,0,0-29.443-8.772c-3.464-.65-6.948-1.17-10.44-1.642-.427-.058-.893-.035-1.214-.409a1.267,1.267,0,0,1-.143.1c-1.927.21-3.828-.512-5.911-.2a34.058,34.058,0,0,0,3.92,4.933,69.985,69.985,0,0,0,17.2,13.314,83.085,83.085,0,0,0,28.407,9.479c2.9.427,5.838.586,8.762.836a75.929,75.929,0,0,0,10.553-.079,98.879,98.879,0,0,0,15.561-2.166c2.431-.523,4.83-1.182,7.235-1.816.517-.136,1.1-.483,1.528.176a1.752,1.752,0,0,1,.274-.426c-1.889-.357-3.772-.748-5.669-1.049a126.144,126.144,0,0,1-15.1-3.481" transform="translate(-30.997 -176.597)" fill="#a2e96e"/>
      <path id="Trazado_194913" data-name="Trazado 194913" d="M138.819,300.881c-2.4.633-4.8,1.293-7.235,1.816a98.921,98.921,0,0,1-15.562,2.166,75.924,75.924,0,0,1-10.553.079c-2.924-.251-5.859-.409-8.762-.836A83.087,83.087,0,0,1,68.3,294.626a69.982,69.982,0,0,1-17.2-13.314,34.043,34.043,0,0,1-3.92-4.933c2.083-.31,3.984.412,5.911.2a1.225,1.225,0,0,0,.143-.1c-.008-.009-.017-.016-.025-.026a52.136,52.136,0,0,0-6.864-.631c.188.309.271.46.368.6a55.506,55.506,0,0,0,12.886,13,78.955,78.955,0,0,0,23.258,11.857,96.158,96.158,0,0,0,26.137,4.228c1.758.067,3.513-.175,5.262-.213a78.752,78.752,0,0,0,8.206-.642,108.225,108.225,0,0,0,16.863-3.552c.341-.1.67-.342.969.063.017-.039.036-.075.054-.113-.424-.658-1.011-.312-1.528-.176" transform="translate(-29.531 -175.753)" fill="#a2e96e"/>
      <path id="Trazado_194914" data-name="Trazado 194914" d="M305.72,344.206a1.752,1.752,0,0,0-.274.426c.009.015.019.027.029.043v0l.52-.422-.272-.052" transform="translate(-194.63 -219.328)" fill="#a2e96e"/>
      <path id="Trazado_194915" data-name="Trazado 194915" d="M305.351,345.381c-.018.038-.037.075-.054.113l.081-.066v0c-.009-.016-.019-.028-.029-.043" transform="translate(-194.535 -220.077)" fill="#a2e96e"/>
      <path id="Trazado_194916" data-name="Trazado 194916" d="M66.548,278c3.492.472,6.976.992,10.44,1.642a166.679,166.679,0,0,1,29.443,8.772,17.838,17.838,0,0,0,4.85,1.63c.1-.031.2-.066.306-.1-.067-.044-.134-.091-.2-.132h0c-.43-.124-.872-.214-1.287-.376A200.474,200.474,0,0,0,84.85,281a134.857,134.857,0,0,0-19.488-3.423c-.009.007-.019.013-.028.02.321.374.787.351,1.214.409" transform="translate(-41.631 -176.87)" fill="#a2e96e"/>
      <path id="Trazado_194917" data-name="Trazado 194917" d="M65.318,277.564l-.053-.005c.008.01.017.016.025.026l.028-.02" transform="translate(-41.587 -176.861)" fill="#a2e96e"/>
      <path id="Trazado_194918" data-name="Trazado 194918" d="M70.545,206.169q20.885,0,41.77,0a10.121,10.121,0,0,0,2.827-.245,3.983,3.983,0,0,0-.952-7.863c-4.656-.046-9.312-.012-13.969-.016a7.177,7.177,0,0,1-2.539-.337,4.7,4.7,0,0,1-3.35-4.038,5.407,5.407,0,0,0-.811-2.7,4.568,4.568,0,0,0-3.972-1.9c-7.1.04-14.195.02-21.292.015a8.969,8.969,0,0,1-2.158-.118,1.155,1.155,0,0,1-.4-.251,106.557,106.557,0,0,0-6.051,16.669,54.116,54.116,0,0,1,5.53-5.418,55.3,55.3,0,0,1,6.344-4.39,6.651,6.651,0,0,1,.85-.419c.8-.338,1.614-.48,2.223.295a1.789,1.789,0,0,1-.1,2.369c-.942,1.214-1.845,2.455-2.757,3.691a54.259,54.259,0,0,0-3.126,4.834,5.444,5.444,0,0,1,1.929-.175" transform="translate(-38.01 -120.247)" fill="#3187c9"/>
      <path id="Trazado_194919" data-name="Trazado 194919" d="M71.439,212.347c.913-1.235,1.815-2.477,2.758-3.69a1.79,1.79,0,0,0,.1-2.369c-.609-.776-1.424-.633-2.223-.3a6.632,6.632,0,0,0-.851.419,55.257,55.257,0,0,0-6.344,4.39,54.04,54.04,0,0,0-5.53,5.418c-.056.214-.118.426-.172.641.283-.285.579-.558.846-.858a44.435,44.435,0,0,1,11.863-9.549c.744-.409,1.518-.789,2.189.037.636.783.254,1.477-.295,2.18a55.355,55.355,0,0,0-5.907,8.728,2.112,2.112,0,0,1,.439-.218,54.4,54.4,0,0,1,3.126-4.834" transform="translate(-37.708 -131.085)" fill="#3187c9"/>
      <path id="Trazado_194920" data-name="Trazado 194920" d="M124.764,206.46a4.492,4.492,0,0,0,4.51-4.983c-.081-2.253-2.118-3.958-4.749-3.961-4.79,0-9.581.008-14.371-.007a4.426,4.426,0,0,1-4.788-4.264c-.349-3.205-2.016-4.682-5.284-4.683l-23.726-.012-.026.058a1.156,1.156,0,0,0,.4.251,8.97,8.97,0,0,0,2.158.118c7.1,0,14.195.026,21.292-.015a4.566,4.566,0,0,1,3.971,1.9,5.407,5.407,0,0,1,.811,2.7,4.7,4.7,0,0,0,3.35,4.038,7.186,7.186,0,0,0,2.539.337c4.657,0,9.313-.03,13.969.016a3.983,3.983,0,0,1,.952,7.863,10.121,10.121,0,0,1-2.827.245q-20.885,0-41.77,0a5.446,5.446,0,0,0-1.929.175l-.128.218,45.108.007c.181,0,.362.008.542-.005" transform="translate(-48.637 -120.145)" fill="#3187c9"/>
      <path id="Trazado_194921" data-name="Trazado 194921" d="M83.459,237.529c.042-.073.086-.145.129-.218a2.1,2.1,0,0,0-.439.217h.31" transform="translate(-52.982 -151.215)" fill="#3187c9"/>
      <path id="Trazado_194922" data-name="Trazado 194922" d="M38.035,184.479a133.318,133.318,0,0,1,5.41-15.009,1.614,1.614,0,0,1,.874-1.068c-.311-.373,0-.852.18-1.285,1.11-2.674,2.5-5.215,3.749-7.822.329-.687,1.085-1.523.181-2.179-.921-.668-1.442.352-2,.87a58.529,58.529,0,0,0-8.114,9.615,2.209,2.209,0,0,1-1.231,1.092,111.671,111.671,0,0,0-6.143,10.731c-.061.235-.124.469-.183.7-1.639,6-3.043,12.055-4.254,18.156a2.887,2.887,0,0,1-.367,1.032c2.474.359,3.995-.62,5.036-3.245a41.692,41.692,0,0,1,6.685-10.49l.088-.1a1.519,1.519,0,0,1,.084-1.005" transform="translate(-16.658 -99.974)" fill="#60b450"/>
      <path id="Trazado_194923" data-name="Trazado 194923" d="M37.528,235.7l-.088.1a41.694,41.694,0,0,0-6.685,10.49c-1.041,2.625-2.562,3.6-5.036,3.245a1.694,1.694,0,0,1-.241.294c1.034,0,2.069-.02,3.1.011a1.041,1.041,0,0,0,1.158-.688A56.378,56.378,0,0,1,37.7,235.962a.826.826,0,0,1-.176-.264" transform="translate(-16.235 -150.187)" fill="#60b450"/>
      <path id="Trazado_194924" data-name="Trazado 194924" d="M30.448,219.694c.059-.235.122-.469.183-.7l-.023.047a3.569,3.569,0,0,1-.486.616v0c-1.817,6.324-3.284,12.728-4.474,19.2.06.01.121.023.18.032a2.886,2.886,0,0,0,.367-1.033c1.211-6.1,2.615-12.155,4.254-18.156" transform="translate(-16.342 -139.54)" fill="#60b450"/>
      <path id="Trazado_194925" data-name="Trazado 194925" d="M25.719,273.763c-.058-.008-.12-.021-.18-.032-.02.108-.041.217-.061.325h0a1.694,1.694,0,0,0,.241-.294" transform="translate(-16.235 -174.421)" fill="#60b450"/>
      <path id="Trazado_194926" data-name="Trazado 194926" d="M57.545,166.825a58.549,58.549,0,0,1,8.114-9.615c.554-.518,1.076-1.538,2-.87.9.656.149,1.492-.181,2.179-1.251,2.607-2.639,5.148-3.749,7.822-.18.434-.491.913-.18,1.285.019-.007.036-.016.056-.022.161-.418.308-.842.485-1.253,1.234-2.866,2.681-5.628,4.09-8.409.628-1.24.115-2.269-1.048-2.264-.628,0-.949.468-1.337.834a76.664,76.664,0,0,0-9.29,11.105l-.188.3a2.207,2.207,0,0,0,1.231-1.092" transform="translate(-35.883 -99.199)" fill="#60b450"/>
      <path id="Trazado_194927" data-name="Trazado 194927" d="M64.955,188.612a1.614,1.614,0,0,0-.874,1.068,133.386,133.386,0,0,0-5.41,15.009,1.521,1.521,0,0,0-.084,1.005l.349-.377a106.56,106.56,0,0,1,6.051-16.669c-.012-.012-.021-.024-.031-.036" transform="translate(-37.292 -120.184)" fill="#60b450"/>
      <path id="Trazado_194928" data-name="Trazado 194928" d="M58.691,235.035a.827.827,0,0,0,.176.264c.054-.215.116-.427.172-.641l-.348.377" transform="translate(-37.398 -149.524)" fill="#60b450"/>
      <path id="Trazado_194929" data-name="Trazado 194929" d="M76.276,188.609l.026-.058c-.02.006-.037.015-.057.022.01.012.019.024.031.036" transform="translate(-48.583 -120.145)" fill="#60b450"/>
      <path id="Trazado_194930" data-name="Trazado 194930" d="M260.088,249.139c-.62-.055-1.276.138-1.833-.3h0a2.446,2.446,0,0,1-3.322-.058,45.667,45.667,0,0,0-5.654-6.718h0a43.018,43.018,0,0,0-7.1-5.886l-.245-.009a6.982,6.982,0,0,1-2.184-1.037c-1.559-.808-1.831-.746-2.841.675a.532.532,0,0,1-.06.058,75.891,75.891,0,0,1,9.21,14.476c-2.8.461-5.486.861-8.156,1.357-3,.558-5.989,1.2-8.984,1.811h0l-.19.055c-.007.409-.108.472-.773.64-1.754.44-3.471,1-5.21,1.492-4.722,1.327-9.295,3.092-13.914,4.72a45,45,0,0,0,6.084,2.343,137.908,137.908,0,0,0,22.815,6.352c3.214.593,6.465.98,9.7,1.47.337.051.669.131,1,.209.057-.053.116-.1.173-.158a72.107,72.107,0,0,0,14-17.241c.752-1.342,1.355-2.76,2.154-4.075-1.531-.474-3.113-.043-4.663-.18" transform="translate(-133.066 -149.495)" fill="#84d149"/>
      <path id="Trazado_194931" data-name="Trazado 194931" d="M332.145,279.223a72.105,72.105,0,0,1-14,17.241c-.056.054-.116.1-.172.158.1.024.208.049.313.072h0a66.687,66.687,0,0,0,16.276-21.456c-.089-.034-.177-.063-.266-.09-.8,1.316-1.4,2.734-2.155,4.075" transform="translate(-202.614 -175.324)" fill="#84d149"/>
      <path id="Trazado_194932" data-name="Trazado 194932" d="M290.792,234.971h0c-.785-.435-1.561-.887-2.356-1.3-1.5-.782-2.188-.426-2.523,1.279l.052.067a.5.5,0,0,0,.06-.058c1.01-1.421,1.282-1.483,2.841-.675a6.973,6.973,0,0,0,2.184,1.037l.245.009Z" transform="translate(-182.184 -148.642)" fill="#84d149"/>
      <path id="Trazado_194933" data-name="Trazado 194933" d="M208.022,293.552c.1.056.2.1.293.157,4.619-1.628,9.193-3.393,13.914-4.72,1.739-.489,3.456-1.052,5.21-1.493.665-.167.766-.231.773-.64q-2.625.763-5.249,1.528a143.487,143.487,0,0,0-14.942,5.167" transform="translate(-132.552 -182.785)" fill="#84d149"/>
      <path id="Trazado_194934" data-name="Trazado 194934" d="M317.681,167.448c-.784-.119-1.058-.814-1.419-1.349a94.806,94.806,0,0,0-7.981-9.73,4.32,4.32,0,0,0-.485-.472c-.507-.416-1.062-.812-1.7-.348-.683.5-.345,1.14-.069,1.708,1.38,2.844,2.885,5.628,4.1,8.55.2.492.741,1.061.3,1.587.5.131.668.562.837.972a130.311,130.311,0,0,1,5.226,14.544,1.781,1.781,0,0,1,.078,1.191,1.124,1.124,0,0,1-.162.088c0,.017.009.033.012.05a93.856,93.856,0,0,1,3.553,14.037l.36-.1c1.671.053,3.341,0,5.008.056.438.015.993-.108,1.27.323a38.81,38.81,0,0,0,2.625-6.279c.04-.1.077-.2.115-.3l-2.244-6.391c-.56-.194-.748-.719-.956-1.215a101.461,101.461,0,0,0-7.908-15.32c-.29-.456-.832-.934-.533-1.564l-.025-.04h0" transform="translate(-194.787 -98.983)" fill="#a2e96e"/>
      <path id="Trazado_194935" data-name="Trazado 194935" d="M365.96,256.627a38.8,38.8,0,0,1-2.625,6.279,1,1,0,0,1,.132.34,28.54,28.54,0,0,0,2.762-6.479l-.154-.439c-.039.1-.075.2-.115.3" transform="translate(-231.517 -163.332)" fill="#a2e96e"/>
      <path id="Trazado_194936" data-name="Trazado 194936" d="M339.185,190.387a101.463,101.463,0,0,1,7.908,15.32c.208.5.4,1.021.956,1.215l-.1-.278h0a124.2,124.2,0,0,0-9.3-17.82c-.3.63.243,1.109.533,1.564" transform="translate(-215.734 -120.318)" fill="#a2e96e"/>
      <path id="Trazado_194937" data-name="Trazado 194937" d="M309.351,165.022c-1.212-2.922-2.717-5.707-4.1-8.55-.275-.567-.614-1.212.069-1.708.639-.464,1.194-.069,1.7.348a4.289,4.289,0,0,1,.485.472,94.8,94.8,0,0,1,7.981,9.73c.361.535.635,1.23,1.419,1.349h0c-1.152-1.563-2.285-3.14-3.461-4.684a73.57,73.57,0,0,0-6.461-7.312,1.379,1.379,0,0,0-1.947-.264c-.74.534-.646,1.216-.278,1.924q.281.541.561,1.084a94.8,94.8,0,0,1,4.313,9.194l.016.005c.441-.526-.1-1.095-.3-1.587" transform="translate(-194.017 -98.197)" fill="#a2e96e"/>
      <path id="Trazado_194938" data-name="Trazado 194938" d="M320.63,193.154a92.049,92.049,0,0,1,4.064,12.206,1.141,1.141,0,0,0,.162-.088,1.783,1.783,0,0,0-.078-1.191,130.383,130.383,0,0,0-5.225-14.544c-.169-.41-.337-.841-.837-.972l-.009.011c.645,1.525,1.334,3.032,1.924,4.578" transform="translate(-203.079 -120.154)" fill="#a2e96e"/>
      <path id="Trazado_194939" data-name="Trazado 194939" d="M318.693,188.566l.009-.011-.016-.005.007.016" transform="translate(-203.067 -120.144)" fill="#a2e96e"/>
      <path id="Trazado_194940" data-name="Trazado 194940" d="M350.4,273.469c-1.667-.058-3.337,0-5.008-.056l-.36.1.01.053h0c.557.434,1.213.242,1.832.3,1.551.138,3.132-.293,4.663.18.021-.034.038-.07.059-.1s.048-.1.074-.147c-.277-.432-.833-.308-1.271-.323" transform="translate(-219.857 -174.219)" fill="#a2e96e"/>
      <path id="Trazado_194941" data-name="Trazado 194941" d="M363.028,274.606c-.021.034-.038.069-.059.1.089.028.177.057.266.09a1.01,1.01,0,0,0-.133-.34c-.025.049-.048.1-.074.147" transform="translate(-231.284 -174.885)" fill="#a2e96e"/>
      <path id="Trazado_194942" data-name="Trazado 194942" d="M237.318,316.4a150.969,150.969,0,0,1-37.233-9.671c-.413-.161-.935-.24-1.077-.734-1.752.589-3.436,1.363-5.191,1.949a8.278,8.278,0,0,1,1.9.664,169.457,169.457,0,0,0,30.978,9.44c2.267.426,4.535.849,6.821,1.166.462.064.972.054,1.25.488.017-.012.03-.028.048-.04,1.29-1.013,2.577-2.029,3.785-3.139a6.145,6.145,0,0,1-1.275-.124" transform="translate(-123.499 -194.979)" fill="#60b450"/>
      <path id="Trazado_194943" data-name="Trazado 194943" d="M306.719,337.85c-.018.012-.031.027-.048.04a1.072,1.072,0,0,1,.1.208,25.592,25.592,0,0,0,4.312-3.56,1.438,1.438,0,0,1-.581.173c-1.208,1.111-2.5,2.127-3.785,3.139" transform="translate(-195.411 -213.167)" fill="#60b450"/>
      <path id="Trazado_194944" data-name="Trazado 194944" d="M192.266,307.491h0a2.5,2.5,0,0,1,.563.017c1.755-.586,3.439-1.36,5.191-1.949a1,1,0,0,1-.037-.247,32.035,32.035,0,0,0-5.716,2.179" transform="translate(-122.512 -194.545)" fill="#60b450"/>
      <path id="Trazado_194945" data-name="Trazado 194945" d="M232.878,322.636c-2.286-.318-4.553-.74-6.82-1.166a169.482,169.482,0,0,1-30.978-9.44,8.264,8.264,0,0,0-1.895-.664c-.12.04-.24.077-.36.115a1.417,1.417,0,0,0,.247.137,212.186,212.186,0,0,0,20.118,7.133,126.116,126.116,0,0,0,15.1,3.48c1.9.3,3.781.693,5.67,1.049a1.163,1.163,0,0,1,.171-.156c-.278-.434-.789-.424-1.251-.488" transform="translate(-122.867 -198.402)" fill="#60b450"/>
      <path id="Trazado_194946" data-name="Trazado 194946" d="M306.2,343.933l.272.052a1.085,1.085,0,0,0-.1-.208,1.227,1.227,0,0,0-.171.156" transform="translate(-195.112 -219.055)" fill="#60b450"/>
      <path id="Trazado_194947" data-name="Trazado 194947" d="M192.266,311.3c.069.042.135.088.2.132.12-.038.241-.075.36-.115a2.476,2.476,0,0,0-.563-.017" transform="translate(-122.512 -198.357)" fill="#60b450"/>
      <path id="Trazado_194948" data-name="Trazado 194948" d="M237.281,314.438a137.9,137.9,0,0,1-22.816-6.352,44.983,44.983,0,0,1-6.084-2.343l-.2.07-.059.021c.142.494.663.573,1.077.734a150.963,150.963,0,0,0,37.233,9.671,6.151,6.151,0,0,0,1.276.124c.089-.082.18-.162.268-.245-.332-.078-.665-.158-1-.209-3.233-.49-6.484-.877-9.7-1.47" transform="translate(-132.618 -194.819)" fill="#60b450"/>
      <path id="Trazado_194949" data-name="Trazado 194949" d="M317.5,334.338c-.089.083-.179.164-.268.246a1.439,1.439,0,0,0,.581-.173c-.1-.023-.209-.048-.313-.072" transform="translate(-202.143 -213.04)" fill="#60b450"/>
      <path id="Trazado_194950" data-name="Trazado 194950" d="M208.059,305.558l.059-.021.2-.07c-.1-.053-.2-.1-.293-.157a1,1,0,0,0,.037.247" transform="translate(-132.552 -194.544)" fill="#60b450"/>
      <path id="Trazado_194951" data-name="Trazado 194951" d="M364.981,238.8c-.023-.005-.041-.014-.063-.02a16.053,16.053,0,0,1,2.249,6.151c.762-2,1.328-4.062,1.892-6.126a21.153,21.153,0,0,1-4.078-.005" transform="translate(-232.526 -152.15)" fill="#3288c9"/>
      <path id="Trazado_194952" data-name="Trazado 194952" d="M371.117,244.908c.027.217.056.434.071.655a36.328,36.328,0,0,0,2.131-6.818c-.1.015-.207.026-.31.038-.563,2.063-1.13,4.125-1.892,6.125" transform="translate(-236.476 -152.128)" fill="#3288c9"/>
      <path id="Trazado_194953" data-name="Trazado 194953" d="M364.673,238.184a21.15,21.15,0,0,0,4.078.005l.039-.142c-1.425-.485-2.908-.04-4.355-.186.061.1.116.2.175.3.022.006.04.015.063.02" transform="translate(-232.218 -151.535)" fill="#3288c9"/>
      <path id="Trazado_194954" data-name="Trazado 194954" d="M376.331,238.6c.1-.012.207-.023.31-.038-.09-.039-.181-.073-.271-.1l-.039.142" transform="translate(-239.798 -151.945)" fill="#3288c9"/>
      <path id="Trazado_194955" data-name="Trazado 194955" d="M364.7,238.71l2.244,6.392c.028-.072.056-.144.083-.216a16.053,16.053,0,0,0-2.249-6.151c-.027-.008-.052-.016-.078-.025" transform="translate(-232.389 -152.106)" fill="#3288c9"/>
      <path id="Trazado_194956" data-name="Trazado 194956" d="M370.888,255.949l.154.439c-.015-.221-.044-.438-.071-.655l-.083.216" transform="translate(-236.33 -162.953)" fill="#3288c9"/>
      <path id="Trazado_194957" data-name="Trazado 194957" d="M364.533,238.221c.025.009.051.017.078.025-.059-.1-.115-.2-.175-.3l.1.278" transform="translate(-232.218 -151.617)" fill="#3288c9"/>
      <path id="Trazado_194958" data-name="Trazado 194958" d="M211.472,63.367a10.141,10.141,0,0,0-4.206-3.5c-.771-.28-.681-1.091-.7-1.768a7.919,7.919,0,0,0-6.835-8.031,8.042,8.042,0,0,0-8.1,3.778,2.373,2.373,0,0,1-2.647,1.466,6.094,6.094,0,0,0-6.14,3.168,2.325,2.325,0,0,1-.434.606c8.259,3.377,16.6,6.54,25.138,9.141a9.532,9.532,0,0,1,3.923-4.864" transform="translate(-116.232 -31.832)" fill="#389e4d"/>
      <path id="Trazado_194959" data-name="Trazado 194959" d="M181.9,75.135a.752.752,0,0,1-.292.153,3.851,3.851,0,0,0,.672.437c4.117,1.591,8.229,3.2,12.363,4.743,4.044,1.513,8.109,2.971,12.287,4.083.033-.094.073-.182.108-.275-8.543-2.6-16.88-5.764-25.138-9.141" transform="translate(-115.719 -47.876)" fill="#389e4d"/>
      <path id="Trazado_194960" data-name="Trazado 194960" d="M182.512,57.79a6.1,6.1,0,0,1,6.14-3.168,2.372,2.372,0,0,0,2.647-1.466,8.042,8.042,0,0,1,8.1-3.777,7.919,7.919,0,0,1,6.835,8.03c.023.677-.068,1.488.7,1.768a10.144,10.144,0,0,1,4.206,3.5c.029-.018.055-.038.084-.057a5.5,5.5,0,0,0-1.862-2.439,14.833,14.833,0,0,1-2.892-4.572,8.431,8.431,0,0,0-15.735-2.167,1.293,1.293,0,0,1-1.625.824,6.607,6.607,0,0,0-7.222,4.058l.189.077a2.332,2.332,0,0,0,.434-.606" transform="translate(-115.899 -31.137)" fill="#389e4d"/>
      <path id="Trazado_194961" data-name="Trazado 194961" d="M181.707,74.923c-.034.077-.07.151-.1.23h0A.757.757,0,0,0,181.9,75l-.19-.077" transform="translate(-115.719 -47.741)" fill="#389e4d"/>
      <path id="Trazado_194962" data-name="Trazado 194962" d="M251.7,91.786l.13.041.168.046a.675.675,0,0,0,.164-.283A8.778,8.778,0,0,1,255.28,87.5a1.109,1.109,0,0,0,.395-.52l-.052-.062a9.531,9.531,0,0,0-3.923,4.864" transform="translate(-160.383 -55.387)" fill="#389e4d"/>
      <path id="Trazado_194963" data-name="Trazado 194963" d="M251.809,100.416l-.168-.046-.13-.041c-.035.093-.075.181-.108.275a.662.662,0,0,0,.406-.189" transform="translate(-160.194 -63.93)" fill="#389e4d"/>
      <path id="Trazado_194964" data-name="Trazado 194964" d="M262.566,86.884a.731.731,0,0,0,.032-.118c-.029.018-.055.038-.084.057l.052.062" transform="translate(-167.274 -55.287)" fill="#389e4d"/>
      <path id="Trazado_194965" data-name="Trazado 194965" d="M73.362,96.389c.086.591-.309,1.052-.554,1.532-2.3,4.5-4.453,9.063-6.341,13.751a3.937,3.937,0,0,1,1.474-.192c13.745.02,27.49-.084,41.234.065.257,0,.514.011.771.016-9.391-1.014-18.466-3.131-26.906-7.662a39.106,39.106,0,0,1-9.678-7.51" transform="translate(-42.353 -61.419)" fill="#60b450"/>
      <path id="Trazado_194966" data-name="Trazado 194966" d="M95.067,103.523c8.44,4.531,17.515,6.648,26.906,7.662,2.443.045,4.89.173,7.332.328a1.048,1.048,0,0,0-.883-.233,59.425,59.425,0,0,1-6.7-.518,76.885,76.885,0,0,1-19.63-4.437c-5.77-2.2-11.145-5.064-15.46-9.62-.36-.38-.658-.89-1.287-.907a1.205,1.205,0,0,1,.048.214,39.1,39.1,0,0,0,9.678,7.51" transform="translate(-54.379 -61.043)" fill="#60b450"/>
      <path id="Trazado_194967" data-name="Trazado 194967" d="M71.987,97.6c.246-.48.64-.942.554-1.532l-.013-.014a1.541,1.541,0,0,1-.05-.168,167.65,167.65,0,0,0-7.3,15.727,1.968,1.968,0,0,1,.468-.262c1.888-4.687,4.042-9.252,6.341-13.751" transform="translate(-41.531 -61.099)" fill="#60b450"/>
      <path id="Trazado_194968" data-name="Trazado 194968" d="M85.36,96.014a1.205,1.205,0,0,0-.048-.214l-.016.032a1.726,1.726,0,0,0,.05.168l.014.014" transform="translate(-54.351 -61.044)" fill="#60b450"/>
      <path id="Trazado_194969" data-name="Trazado 194969" d="M109.758,138.036c-.257,0-.514-.013-.771-.016-13.744-.149-27.489-.045-41.234-.065a3.947,3.947,0,0,0-1.474.192c-.035.087-.071.174-.107.262q20.577,0,41.153,0c2.441,0,4.882-.015,7.322-.028-.865-.033-1.733-.036-2.594-.112-.767-.069-1.532-.146-2.3-.229" transform="translate(-42.165 -87.894)" fill="#60b450"/>
      <path id="Trazado_194970" data-name="Trazado 194970" d="M186.311,138.208c.763.082,1.528.16,2.3.229.861.077,1.729.079,2.594.112l2.443-.013c-2.442-.155-4.889-.283-7.332-.328" transform="translate(-118.717 -88.066)" fill="#60b450"/>
      <path id="Trazado_194971" data-name="Trazado 194971" d="M65.178,138.776h.361c.035-.087.071-.175.107-.262a1.961,1.961,0,0,0-.468.262" transform="translate(-41.531 -88.261)" fill="#60b450"/>
      <path id="Trazado_194972" data-name="Trazado 194972" d="M40.31,198.647a75.1,75.1,0,0,1,4.966-8.723,3.512,3.512,0,0,1,.595-.717,5.3,5.3,0,0,1-2.7-.157l-.008.025c-.979,3.182-1.978,6.359-2.852,9.572" transform="translate(-25.686 -120.463)" fill="#3188c8"/>
      <path id="Trazado_194973" data-name="Trazado 194973" d="M41.679,188.772l.008-.025a2.262,2.262,0,0,1-.3-.172h0c-1.246,3.866-2.448,7.745-3.406,11.694.263-.651.549-1.29.844-1.924.874-3.213,1.872-6.39,2.852-9.572" transform="translate(-24.203 -120.16)" fill="#3188c8"/>
      <path id="Trazado_194974" data-name="Trazado 194974" d="M50.893,188.906a2.541,2.541,0,0,1,.433-.325l-3.078,0-.056.172a5.3,5.3,0,0,0,2.7.157" transform="translate(-30.708 -120.161)" fill="#3188c8"/>
      <path id="Trazado_194975" data-name="Trazado 194975" d="M47.67,188.747l.056-.172h-.354a2.29,2.29,0,0,0,.3.172" transform="translate(-30.185 -120.16)" fill="#3188c8"/>
      <path id="Trazado_194976" data-name="Trazado 194976" d="M45.28,189.437a3.5,3.5,0,0,0-.6.717,75.1,75.1,0,0,0-4.966,8.723q-.172.631-.336,1.265a111.719,111.719,0,0,1,6.143-10.731c-.025.006-.046.015-.072.02l-.173.006" transform="translate(-25.095 -120.693)" fill="#3188c8"/>
      <path id="Trazado_194977" data-name="Trazado 194977" d="M37.981,217.427v0a3.525,3.525,0,0,0,.486-.616l.024-.047q.164-.633.336-1.265c-.295.634-.581,1.273-.844,1.925" transform="translate(-24.201 -137.318)" fill="#3188c8"/>
      <path id="Trazado_194978" data-name="Trazado 194978" d="M55.812,188.906c.026,0,.048-.014.072-.02l.187-.3a2.552,2.552,0,0,0-.432.325l.173-.006" transform="translate(-35.453 -120.168)" fill="#3188c8"/>
      <path id="Trazado_194979" data-name="Trazado 194979" d="M220.285,255.16c4.4-1,8.814-1.884,13.281-2.517,1.745-.247,1.772-.3.934-1.906a74.763,74.763,0,0,0-6.939-10.793c-.4-.528-.972-1-.985-1.746a1.365,1.365,0,0,1-.213.141,4.107,4.107,0,0,1-1.338.181,3.944,3.944,0,0,0-4,3.657,6.545,6.545,0,0,1-.561,2.359,4.8,4.8,0,0,1-4.519,2.676c-5.7-.027-11.393-.007-17.09-.012a12.159,12.159,0,0,0-2.826.285,4.056,4.056,0,0,0-3.229,4.248,3.948,3.948,0,0,0,4.03,3.611c6.51.038,13.021.008,19.531.019a5.279,5.279,0,0,1,2.142.2c0,.086,0,.162,0,.23h.188c.414-.5,1.033-.509,1.592-.636" transform="translate(-122.842 -151.78)" fill="#3187c9"/>
      <path id="Trazado_194980" data-name="Trazado 194980" d="M217.685,255.368a5.279,5.279,0,0,0-2.142-.2c-6.51-.01-13.021.019-19.531-.018a3.949,3.949,0,0,1-4.03-3.611,4.056,4.056,0,0,1,3.229-4.248,12.16,12.16,0,0,1,2.826-.285c5.7.005,11.393-.015,17.09.012a4.8,4.8,0,0,0,4.519-2.676,6.542,6.542,0,0,0,.562-2.359,3.944,3.944,0,0,1,4-3.657,4.106,4.106,0,0,0,1.338-.181,1.325,1.325,0,0,0,.213-.142c0-.038-.007-.073,0-.112-.361.005-.723.014-1.084.016-3.168.015-4.7,1.468-4.909,4.642a4.292,4.292,0,0,1-4.255,4.067c-5.377.019-10.754,0-16.132.017-1.348,0-2.691.048-4.043.176a4.685,4.685,0,0,0-3.81,4.823,4.733,4.733,0,0,0,4.531,3.988c7.21-.11,14.423-.03,21.636-.02,0-.067,0-.143,0-.23" transform="translate(-122.026 -151.582)" fill="#3187c9"/>
      <path id="Trazado_194981" data-name="Trazado 194981" d="M273.065,239.863A74.76,74.76,0,0,1,280,250.656c.838,1.6.812,1.659-.934,1.906-4.467.633-8.884,1.518-13.281,2.517-.559.127-1.178.133-1.592.636,2.994-.607,5.981-1.253,8.984-1.811,2.67-.5,5.359-.9,8.157-1.357a75.867,75.867,0,0,0-9.211-14.476.617.617,0,0,1-.047.046c.013.75.58,1.218.985,1.746" transform="translate(-168.347 -151.699)" fill="#3187c9"/>
      <path id="Trazado_194982" data-name="Trazado 194982" d="M285.915,238a.563.563,0,0,0,.047-.046l-.052-.067c0,.04,0,.075,0,.113" transform="translate(-182.182 -151.582)" fill="#3187c9"/>
      <path id="Trazado_194983" data-name="Trazado 194983" d="M308.18,215.9a46.972,46.972,0,0,0-10.827-8.9,8.533,8.533,0,0,0-1.446-.731,1.008,1.008,0,0,0-1.241.2,1.1,1.1,0,0,0,.006,1.273,8.265,8.265,0,0,0,.853,1.217,57.5,57.5,0,0,1,5.009,7.379c.227.414.724.881.337,1.349a44.594,44.594,0,0,1,3.1,5.793.458.458,0,0,1,.046.149c.04.044.081.086.12.13a39.387,39.387,0,0,1,4.581,5.245c1.618,2.125,1.789,2.275,4.053,1.657a1.709,1.709,0,0,1-.443-1.039c-.929-4.008-1.858-8.016-3.051-11.956a1.316,1.316,0,0,1-.02-1.053l-.037-.039c-.566.235-.759-.376-1.041-.679" transform="translate(-187.632 -131.361)" fill="#60b450"/>
      <path id="Trazado_194984" data-name="Trazado 194984" d="M299.742,215.6a57.5,57.5,0,0,0-5.009-7.379A8.268,8.268,0,0,1,293.88,207a1.1,1.1,0,0,1-.006-1.273,1.007,1.007,0,0,1,1.241-.2,8.507,8.507,0,0,1,1.446.731,46.966,46.966,0,0,1,10.828,8.9c.281.3.475.914,1.041.679-1.368-1.409-2.691-2.866-4.119-4.212a40.335,40.335,0,0,0-8.763-6.3c-.683-.363-1.382-.567-1.97.107-.625.717-.341,1.423.174,2.077.083.106.18.2.262.311a57.509,57.509,0,0,1,6.047,9.106l.018.028c.387-.468-.11-.935-.337-1.349" transform="translate(-186.84 -130.613)" fill="#60b450"/>
      <path id="Trazado_194985" data-name="Trazado 194985" d="M325.2,259.71a39.413,39.413,0,0,0-4.582-5.245c-.039-.044-.08-.086-.119-.13a.273.273,0,0,1-.174.3,45.688,45.688,0,0,1,5.654,6.718,2.446,2.446,0,0,0,3.322.058h0c-.018-.013-.032-.028-.049-.042-2.263.618-2.434.468-4.052-1.657" transform="translate(-204.109 -162.062)" fill="#60b450"/>
      <path id="Trazado_194986" data-name="Trazado 194986" d="M335.078,236.049c1.194,3.94,2.122,7.948,3.051,11.956a1.709,1.709,0,0,0,.444,1.039l.039-.011a93.873,93.873,0,0,0-3.553-14.038,1.317,1.317,0,0,0,.02,1.054" transform="translate(-213.432 -149.739)" fill="#60b450"/>
      <path id="Trazado_194987" data-name="Trazado 194987" d="M344.978,273.741l-.01-.053-.039.011c.017.014.03.029.049.042" transform="translate(-219.789 -174.394)" fill="#60b450"/>
      <path id="Trazado_194988" data-name="Trazado 194988" d="M305.716,238.022a1.283,1.283,0,0,1-.283.231,13.372,13.372,0,0,1-3.335.119,11.492,11.492,0,0,1,1.767,1.2,41.78,41.78,0,0,1,4.376,3.688c-.617-1.284-1.255-2.556-1.958-3.8a2.6,2.6,0,0,1-.567-1.438" transform="translate(-192.497 -151.668)" fill="#3188c8"/>
      <path id="Trazado_194989" data-name="Trazado 194989" d="M303.688,238.165a1.274,1.274,0,0,0,.283-.231c0-.017,0-.033,0-.051l-4.612.025a4.533,4.533,0,0,1,.994.376,13.387,13.387,0,0,0,3.334-.119" transform="translate(-190.752 -151.578)" fill="#3188c8"/>
      <path id="Trazado_194990" data-name="Trazado 194990" d="M303,240.149a11.508,11.508,0,0,0-1.767-1.2l-.491-.02a42.972,42.972,0,0,1,7.1,5.886q-.232-.492-.469-.982A41.806,41.806,0,0,0,303,240.149" transform="translate(-191.635 -152.248)" fill="#3188c8"/>
      <path id="Trazado_194991" data-name="Trazado 194991" d="M299.361,237.951h0l.5.356.491.02a4.531,4.531,0,0,0-.993-.376" transform="translate(-190.753 -151.622)" fill="#3188c8"/>
      <path id="Trazado_194992" data-name="Trazado 194992" d="M312.633,239.419c.7,1.239,1.342,2.512,1.958,3.8q.328.334.642.684a.457.457,0,0,0-.046-.149,44.635,44.635,0,0,0-3.1-5.793l-.019.024a2.6,2.6,0,0,0,.567,1.438" transform="translate(-198.847 -151.626)" fill="#3188c8"/>
      <path id="Trazado_194993" data-name="Trazado 194993" d="M312.09,237.909l-.018-.027c0,.017,0,.033,0,.051l.019-.024" transform="translate(-198.851 -151.578)" fill="#3188c8"/>
      <path id="Trazado_194994" data-name="Trazado 194994" d="M319.672,253.133q-.313-.351-.642-.684.236.491.469.982a.274.274,0,0,0,.174-.3" transform="translate(-203.286 -160.86)" fill="#3188c8"/>
    </g>
  </g>
</svg>
