<svg xmlns="http://www.w3.org/2000/svg" xmlns:xlink="http://www.w3.org/1999/xlink" width="55.834" height="81" viewBox="0 0 55.834 81">
  <defs>
    <clipPath id="clip-path">
      <rect id="Rectángulo_7417" data-name="Rectángulo 7417" width="55.834" height="81" fill="none"/>
    </clipPath>
  </defs>
  <g id="Grupo_60376" data-name="Grupo 60376" clip-path="url(#clip-path)">
    <path id="Trazado_109069" data-name="Trazado 109069" d="M47.518,30.886H4.217a1.326,1.326,0,0,1-1.274-.951L.055,20.244a1.33,1.33,0,0,1,1.276-1.71H50.4a1.33,1.33,0,0,1,1.276,1.71l-2.884,9.69a1.333,1.333,0,0,1-1.276.951M5.211,28.224H46.524L48.619,21.2H3.116Z" transform="translate(0 15.887)"/>
    <path id="Trazado_109070" data-name="Trazado 109070" d="M38.049,60.642H5.884A1.332,1.332,0,0,1,4.552,59.31V25.084a1.332,1.332,0,0,1,1.332-1.332H38.049a1.331,1.331,0,0,1,1.33,1.332V59.31a1.331,1.331,0,0,1-1.33,1.332M7.213,57.981h29.5V26.415H7.213Z" transform="translate(3.902 20.359)"/>
    <path id="Trazado_109071" data-name="Trazado 109071" d="M28.405,50.379H9.435A1.331,1.331,0,0,1,8.1,49.05V28.865a1.331,1.331,0,0,1,1.33-1.332H28.405a1.332,1.332,0,0,1,1.332,1.332V49.05a1.331,1.331,0,0,1-1.332,1.33M10.766,47.718H27.074V30.194H10.766Z" transform="translate(6.947 23.6)"/>
    <path id="Trazado_109072" data-name="Trazado 109072" d="M17.719,15.891a7.782,7.782,0,0,1-7.586-7.947A7.781,7.781,0,0,1,17.719,0a7.781,7.781,0,0,1,7.586,7.945,7.782,7.782,0,0,1-7.586,7.947m0-13.23a5.121,5.121,0,0,0-4.925,5.284,5.121,5.121,0,0,0,4.925,5.285,5.12,5.12,0,0,0,4.923-5.285,5.119,5.119,0,0,0-4.923-5.284" transform="translate(8.685 0.001)"/>
    <path id="Trazado_109073" data-name="Trazado 109073" d="M11.07,23.634A1.332,1.332,0,0,1,9.738,22.3V17.021a1.332,1.332,0,1,1,2.663,0V22.3a1.332,1.332,0,0,1-1.332,1.332" transform="translate(8.347 13.448)"/>
    <path id="Trazado_109074" data-name="Trazado 109074" d="M28.237,33.633H7.346a1.331,1.331,0,0,1-1.33-1.33V23.226a8.252,8.252,0,0,1,8.244-8.244H28.008A42.167,42.167,0,0,0,42.321,5.424a4.88,4.88,0,0,1,6.435-.362,4.655,4.655,0,0,1,1.229,6.2A31.069,31.069,0,0,1,29.566,25.031V32.3a1.331,1.331,0,0,1-1.33,1.33M8.677,30.972H26.9V23.915A1.33,1.33,0,0,1,28.027,22.6,28.406,28.406,0,0,0,47.7,9.89a2.006,2.006,0,0,0-.583-2.726,2.2,2.2,0,0,0-2.918.143A43.355,43.355,0,0,1,28.649,17.579a1.3,1.3,0,0,1-.412.065H14.26a5.589,5.589,0,0,0-5.583,5.583Z" transform="translate(5.156 3.448)"/>
    <path id="Trazado_109075" data-name="Trazado 109075" d="M54.5,44.844H1.33a1.331,1.331,0,0,1,0-2.661H54.5a1.331,1.331,0,1,1,0,2.661" transform="translate(0 36.157)"/>
  </g>
</svg>
