<svg xmlns="http://www.w3.org/2000/svg" xmlns:xlink="http://www.w3.org/1999/xlink" width="175" height="127.754" viewBox="0 0 175 127.754">
  <defs>
    <clipPath id="clip-path">
      <rect id="Rect치ngulo_7416" data-name="Rect치ngulo 7416" width="58.029" height="72.666" fill="#0f2771"/>
    </clipPath>
  </defs>
  <g id="Grupo_904040" data-name="Grupo 904040" transform="translate(-346.5 -12709.74)">
    <g id="Grupo_60375" data-name="Grupo 60375" transform="translate(402.563 12709.74)">
      <g id="Grupo_60374" data-name="Grupo 60374" transform="translate(0 0)" clip-path="url(#clip-path)">
        <path id="Trazado_109059" data-name="Trazado 109059" d="M22.085,42.177H8.5a8.5,8.5,0,1,1,0-17,1.257,1.257,0,1,1,0,2.515,5.988,5.988,0,1,0,0,11.975H22.085a1.256,1.256,0,1,1,0,2.513" transform="translate(0 18.97)" fill="#0f2771"/>
        <path id="Trazado_109060" data-name="Trazado 109060" d="M1.257,53.9A1.257,1.257,0,0,1,0,52.644V8.5A8.51,8.51,0,0,1,8.5,0H52.33a1.255,1.255,0,0,1,1.256,1.256V12.643a1.256,1.256,0,1,1-2.513,0V2.513H8.5A5.993,5.993,0,0,0,2.515,8.5V46.615A8.477,8.477,0,0,1,8.5,44.144H22.085a1.256,1.256,0,1,1,0,2.513H8.5a5.993,5.993,0,0,0-5.987,5.987A1.257,1.257,0,0,1,1.257,53.9" transform="translate(0 -0.001)" fill="#0f2771"/>
        <path id="Trazado_109061" data-name="Trazado 109061" d="M18.821,22.65a1,1,0,0,1-1-1v-7.33a1,1,0,1,1,2.01,0v7.33a1,1,0,0,1-1,1" transform="translate(13.426 10.029)" fill="#0f2771"/>
        <path id="Trazado_109062" data-name="Trazado 109062" d="M22.118,25.253a1,1,0,0,1-1-1V10.862a1,1,0,1,1,2.01,0V24.248a1,1,0,0,1-1,1" transform="translate(15.91 7.426)" fill="#0f2771"/>
        <path id="Trazado_109063" data-name="Trazado 109063" d="M25.415,25.184a1,1,0,0,1-1-1V10.861a1,1,0,1,1,2.01,0V24.179a1,1,0,0,1-1,1" transform="translate(18.395 7.427)" fill="#0f2771"/>
        <path id="Trazado_109064" data-name="Trazado 109064" d="M28.712,30.052a1,1,0,0,1-1-1V17.828a1,1,0,1,1,2.01,0V29.047a1,1,0,0,1-1,1" transform="translate(20.879 12.677)" fill="#0f2771"/>
        <path id="Trazado_109065" data-name="Trazado 109065" d="M38.65,56.413H18a1,1,0,0,1-1-1.007V52.727a27.855,27.855,0,0,0-1.25-8.254l-1.182-3.805a1.016,1.016,0,0,1-.046-.3V19.5a3.975,3.975,0,0,1,3.2-3.989,3.934,3.934,0,0,1,2.587.426V13.44a3.972,3.972,0,0,1,3.2-3.988,3.93,3.93,0,0,1,2.655.463,3.886,3.886,0,0,1,7.672-.011,3.917,3.917,0,0,1,2.636-.452,3.972,3.972,0,0,1,3.2,3.988v8.2a4.726,4.726,0,0,1,3.132-.838,4.855,4.855,0,0,1,4.3,4.9V36.891A9.819,9.819,0,0,1,44.449,43.6l-4.794,5.148v6.658a1,1,0,0,1-1,1.007M19.008,54.4H37.645V48.354a1,1,0,0,1,.27-.686l5.061-5.438a7.808,7.808,0,0,0,2.1-5.34V25.7A2.835,2.835,0,0,0,42.613,22.8a2.71,2.71,0,0,0-2.958,2.7,1,1,0,0,1-2.01,0V13.44a1.994,1.994,0,0,0-1.534-2.008,1.888,1.888,0,0,0-2.238,1.854,1,1,0,0,1-2.01,0V10.533a1.891,1.891,0,0,0-2.239-1.854,1.992,1.992,0,0,0-1.531,2.01v2.6a1.007,1.007,0,0,1-2.013,0,1.884,1.884,0,0,0-2.236-1.854A1.993,1.993,0,0,0,22.31,13.44v5.9a1,1,0,0,1-2.01,0,1.889,1.889,0,0,0-2.239-1.854A1.993,1.993,0,0,0,16.53,19.5v20.72l1.135,3.66a29.88,29.88,0,0,1,1.343,8.85Z" transform="translate(10.941 5.001)" fill="#0f2771"/>
        <path id="Trazado_109066" data-name="Trazado 109066" d="M40.464,41.615H15.79a1.006,1.006,0,0,1-1.007-1V34.881a1,1,0,0,1,1.007-1H40.464a1,1,0,0,1,1.007,1V40.61a1.006,1.006,0,0,1-1.007,1M16.794,39.6H39.459V35.887H16.794Z" transform="translate(11.14 25.528)" fill="#0f2771"/>
        <path id="Trazado_109067" data-name="Trazado 109067" d="M44.736,44.676H14.084a1.006,1.006,0,0,1-1-1V38.148a1,1,0,0,1,1-1H44.736a1,1,0,0,1,1.007,1v5.524a1.006,1.006,0,0,1-1.007,1M15.09,42.665H43.731V39.153H15.09Z" transform="translate(9.856 27.989)" fill="#0f2771"/>
        <path id="Trazado_109068" data-name="Trazado 109068" d="M5.388,46.657A1.257,1.257,0,0,1,4.131,45.4V1.256a1.257,1.257,0,0,1,2.515,0V45.4a1.257,1.257,0,0,1-1.257,1.257" transform="translate(3.113 -0.001)" fill="#0f2771"/>
      </g>
    </g>
    <rect id="Rect치ngulo_6912" data-name="Rect치ngulo 6912" width="175" height="36" transform="translate(346.5 12801.494)" fill="#0f2771"/>
    <path id="Trazado_235350" data-name="Trazado 235350" d="M11.32-4.333a4.673,4.673,0,0,1-.721,2.36A4.35,4.35,0,0,1,8.75-.387a6.3,6.3,0,0,1-2.72.563A5.025,5.025,0,0,1,2.057-1.468,6.786,6.786,0,0,1,.606-6.108v-.633a7.746,7.746,0,0,1,.655-3.292,4.961,4.961,0,0,1,1.885-2.18,5.26,5.26,0,0,1,2.848-.769,5.516,5.516,0,0,1,3.744,1.226,4.844,4.844,0,0,1,1.608,3.379H8.271a2.292,2.292,0,0,0-.589-1.679,2.422,2.422,0,0,0-1.687-.51A1.843,1.843,0,0,0,4.307-9.7a5.536,5.536,0,0,0-.562,2.751v.905A6.125,6.125,0,0,0,4.258-3.12a1.882,1.882,0,0,0,1.771.879,2.369,2.369,0,0,0,1.626-.5,2.126,2.126,0,0,0,.6-1.591ZM18,0a3.344,3.344,0,0,1-.281-.853A2.754,2.754,0,0,1,15.434.176a3.374,3.374,0,0,1-2.285-.813,2.588,2.588,0,0,1-.94-2.043,2.66,2.66,0,0,1,1.143-2.338,5.821,5.821,0,0,1,3.322-.791h.914v-.5q0-1.316-1.134-1.316A.927.927,0,0,0,15.4-6.587H12.437A2.655,2.655,0,0,1,13.61-8.825a4.931,4.931,0,0,1,2.993-.86,4.323,4.323,0,0,1,2.874.888,3.086,3.086,0,0,1,1.081,2.435v4.21a4.311,4.311,0,0,0,.4,2V0ZM16.146-1.934a1.652,1.652,0,0,0,.918-.237,1.487,1.487,0,0,0,.523-.536V-4.228h-.861q-1.547,0-1.547,1.389a.848.848,0,0,0,.272.655A.986.986,0,0,0,16.146-1.934Zm14.88-2.751a5.735,5.735,0,0,1-1,3.538A3.2,3.2,0,0,1,27.334.176a2.742,2.742,0,0,1-2.153-.958V3.656H22.219V-9.51h2.769l.088.879a2.742,2.742,0,0,1,2.241-1.055,3.224,3.224,0,0,1,2.733,1.3,5.805,5.805,0,0,1,.976,3.564Zm-2.962-.185q0-2.531-1.477-2.531a1.394,1.394,0,0,0-1.406.756V-2.9a1.439,1.439,0,0,0,1.424.791q1.415,0,1.459-2.443ZM35.561,0H32.581V-9.51h2.979ZM34.453-13.324h3.129l-2.443,2.76-2.417,0Zm6.46,1.45V-9.51h1.564v2.057H40.913V-3.1a1.111,1.111,0,0,0,.193.747,1.037,1.037,0,0,0,.765.211,4.345,4.345,0,0,0,.738-.053V-.079a5.466,5.466,0,0,1-1.67.255,3.1,3.1,0,0,1-2.259-.721,2.954,2.954,0,0,1-.729-2.188v-4.72H36.738V-9.51h1.213v-2.364ZM49.307-1.028a3.054,3.054,0,0,1-2.54,1.2A3,3,0,0,1,44.4-.734a3.826,3.826,0,0,1-.8-2.615V-9.51h2.962v6.179a1.065,1.065,0,0,0,1.187,1.222,1.548,1.548,0,0,0,1.45-.729V-9.51h2.979V0H49.395ZM56.918,0H53.947V-13.5h2.971Zm1.45-4.843a5.613,5.613,0,0,1,.554-2.536,3.96,3.96,0,0,1,1.591-1.709,4.791,4.791,0,0,1,2.435-.6,4.373,4.373,0,0,1,3.366,1.323,5.076,5.076,0,0,1,1.23,3.6v.105a4.925,4.925,0,0,1-1.235,3.529A4.384,4.384,0,0,1,62.965.176,4.434,4.434,0,0,1,59.7-1.042a4.761,4.761,0,0,1-1.327-3.3Zm2.962.185a3.538,3.538,0,0,0,.413,1.934,1.376,1.376,0,0,0,1.222.615q1.582,0,1.617-2.435v-.3q0-2.558-1.635-2.558-1.485,0-1.608,2.206ZM82.213,0h-8.93V-1.934L77.4-6.258a4.909,4.909,0,0,0,1.521-2.751,1.913,1.913,0,0,0-.36-1.257,1.287,1.287,0,0,0-1.046-.431,1.3,1.3,0,0,0-1.1.576,2.366,2.366,0,0,0-.422,1.437H73.02a4.2,4.2,0,0,1,.589-2.175,4.129,4.129,0,0,1,1.635-1.56,4.856,4.856,0,0,1,2.338-.562,4.777,4.777,0,0,1,3.195.958A3.42,3.42,0,0,1,81.9-9.272,4,4,0,0,1,81.615-7.8a6.456,6.456,0,0,1-.875,1.5,22.029,22.029,0,0,1-1.912,2.1L77.177-2.285h5.036Zm3.375-2.874a1.686,1.686,0,0,1,1.169.417,1.37,1.37,0,0,1,.466,1.068,1.37,1.37,0,0,1-.466,1.068A1.686,1.686,0,0,1,85.588.1a1.672,1.672,0,0,1-1.173-.422,1.379,1.379,0,0,1-.461-1.063,1.379,1.379,0,0,1,.461-1.063A1.672,1.672,0,0,1,85.588-2.874Z" transform="translate(387.5 12826.494)" fill="#fff"/>
  </g>
</svg>
