<svg xmlns="http://www.w3.org/2000/svg" width="820" height="344.75" viewBox="0 0 820 344.75">
  <g id="Grupo_904040" data-name="Grupo 904040" transform="translate(-390 -14898)">
    <g id="Grupo_562396" data-name="Grupo 562396" transform="translate(0 -350)">
      <rect id="Rectángulo_41258" data-name="Rectángulo 41258" width="125" height="38" rx="14" transform="translate(390 15248)" fill="#0c81be"/>
      <rect id="Rectángulo_41259" data-name="Rectángulo 41259" width="125" height="38" rx="14" transform="translate(573 15248)" fill="#0c81be"/>
      <rect id="Rectángulo_41260" data-name="Rectángulo 41260" width="209" height="38" rx="14" transform="translate(757 15248)" fill="#0c81be"/>
      <rect id="Rectángulo_41266" data-name="Rectángulo 41266" width="254.173" height="38.5" rx="14" transform="translate(705 15554.25)" fill="#0c81be"/>
      <rect id="Rectángulo_41267" data-name="Rectángulo 41267" width="250.509" height="38.5" rx="14" transform="translate(391 15554.25)" fill="#0c81be"/>
      <rect id="Rectángulo_41264" data-name="Rectángulo 41264" width="190" height="38" rx="14" transform="translate(1020 15478)" fill="#0c81be"/>
      <rect id="Rectángulo_41265" data-name="Rectángulo 41265" width="190" height="38" rx="14" transform="translate(1020 15554)" fill="#0c81be"/>
      <path id="Trazado_235350" data-name="Trazado 235350" d="M19.059,13.9H14.084V19H11V6.2H19.56V8.585H14.084v2.944h4.975ZM30.88,6.2v8.376a4.814,4.814,0,0,1-.606,2.465,3.929,3.929,0,0,1-1.74,1.586,6.131,6.131,0,0,1-2.681.545,5.3,5.3,0,0,1-3.683-1.213A4.326,4.326,0,0,1,20.8,14.641V6.2h3.1v8.5q.053,2.1,1.951,2.1a1.889,1.889,0,0,0,1.45-.527,2.465,2.465,0,0,0,.492-1.714V6.2Zm9.861,7.365H35.89v3.059h5.73V19H32.8V6.2h8.833V8.585H35.89v2.7h4.852ZM53.564,19H50.5l-4.535-7.963V19H42.877V6.2h3.085l4.526,7.963V6.2h3.076Zm12-10.415H61.721V19H58.636V8.585H54.865V6.2h10.7ZM74.8,13.568H69.947v3.059h5.73V19H66.862V6.2H75.7V8.585H69.947v2.7H74.8Z" transform="translate(410 15257)" fill="#fff"/>
      <path id="Trazado_235351" data-name="Trazado 235351" d="M8.437,14.474H6.767V19H3.682V6.2H8.718a5.621,5.621,0,0,1,3.56,1.01,3.421,3.421,0,0,1,1.283,2.853,4.155,4.155,0,0,1-.541,2.213A3.837,3.837,0,0,1,11.329,13.7L14,18.868V19H10.7ZM6.767,12.1H8.718a1.751,1.751,0,0,0,1.323-.463,1.788,1.788,0,0,0,.444-1.291,1.809,1.809,0,0,0-.448-1.3,1.735,1.735,0,0,0-1.318-.471H6.767Zm16.594,1.468H18.509v3.059h5.73V19H15.424V6.2h8.833V8.585H18.509v2.7h4.852ZM30.594,6.2H33.67v8.78a4.2,4.2,0,0,1-.567,2.18,3.87,3.87,0,0,1-1.582,1.485,4.835,4.835,0,0,1-2.263.527,4.661,4.661,0,0,1-3.252-1.055,3.833,3.833,0,0,1-1.16-2.988H27.94a2.113,2.113,0,0,0,.3,1.274,1.2,1.2,0,0,0,1.015.4,1.148,1.148,0,0,0,.989-.479,2.251,2.251,0,0,0,.347-1.34ZM38.9,19H35.824V6.2H38.9Zm5.229-2.373H49.5V19H41.044V6.2h3.085Zm9.756,0h5.37V19H50.8V6.2h3.085Zm14.106-.018H63.764L63.026,19h-3.3L64.423,6.2h2.9L72.052,19H68.739ZM64.5,14.228h2.751l-1.38-4.438ZM79.584,15.6a1.268,1.268,0,0,0-.479-1.055,5.954,5.954,0,0,0-1.683-.782,16.147,16.147,0,0,1-1.969-.782q-2.487-1.222-2.487-3.357a3.011,3.011,0,0,1,.62-1.876A4.008,4.008,0,0,1,75.339,6.48a6.823,6.823,0,0,1,2.549-.453,5.969,5.969,0,0,1,2.474.492,3.917,3.917,0,0,1,1.7,1.4A3.661,3.661,0,0,1,82.669,10H79.593a1.547,1.547,0,0,0-.479-1.213,1.867,1.867,0,0,0-1.3-.431,2.106,2.106,0,0,0-1.305.365,1.074,1.074,0,0,0,.048,1.819,6.65,6.65,0,0,0,1.854.826,11.36,11.36,0,0,1,2.18.918,3.663,3.663,0,0,1,2.074,3.3A3.125,3.125,0,0,1,81.4,18.218a5.629,5.629,0,0,1-3.472.958,6.888,6.888,0,0,1-2.817-.558,4.247,4.247,0,0,1-1.9-1.529,3.985,3.985,0,0,1-.637-2.237h3.094a1.963,1.963,0,0,0,.532,1.516,2.513,2.513,0,0,0,1.727.488,1.985,1.985,0,0,0,1.208-.33A1.088,1.088,0,0,0,79.584,15.6Z" transform="translate(593 15257)" fill="#fff"/>
      <path id="Trazado_235352" data-name="Trazado 235352" d="M17.579,14.474h-1.67V19H12.824V6.2H17.86a5.621,5.621,0,0,1,3.56,1.01A3.421,3.421,0,0,1,22.7,10.066a4.155,4.155,0,0,1-.541,2.213A3.837,3.837,0,0,1,20.471,13.7l2.672,5.167V19h-3.3ZM15.909,12.1H17.86a1.751,1.751,0,0,0,1.323-.463,1.788,1.788,0,0,0,.444-1.291,1.809,1.809,0,0,0-.448-1.3,1.735,1.735,0,0,0-1.318-.471H15.909ZM32.5,13.568H27.651v3.059h5.73V19H24.566V6.2H33.4V8.585H27.651v2.7H32.5ZM44.86,8.585H41.02V19H37.935V8.585H34.164V6.2h10.7Zm6.056,5.889h-1.67V19H46.161V6.2H51.2a5.621,5.621,0,0,1,3.56,1.01,3.421,3.421,0,0,1,1.283,2.853,4.155,4.155,0,0,1-.541,2.213A3.837,3.837,0,0,1,53.808,13.7l2.672,5.167V19h-3.3ZM49.246,12.1H51.2a1.751,1.751,0,0,0,1.323-.463,1.788,1.788,0,0,0,.444-1.291,1.809,1.809,0,0,0-.448-1.3A1.735,1.735,0,0,0,51.2,8.576H49.246Zm15.926,4.509H60.944L60.206,19h-3.3L61.6,6.2h2.9L69.232,19H65.919Zm-3.489-2.382h2.751l-1.38-4.438ZM79.155,8.585H75.314V19H72.229V8.585H68.459V6.2h10.7Zm7.515,8.024H82.442L81.7,19h-3.3L83.1,6.2H86L90.73,19H87.417Zm-3.489-2.382h2.751l-1.38-4.438ZM95.714,6.2l2.856,8.9,2.848-8.9h4.061V19h-3.094V16.012l.3-6.117L99.59,19H97.551l-3.1-9.114.3,6.126V19H91.662V6.2ZM110.726,19h-3.076V6.2h3.076Zm10.081-5.432h-4.852v3.059h5.73V19H112.87V6.2H121.7V8.585h-5.748v2.7h4.852ZM133.63,19h-3.067l-4.535-7.963V19h-3.085V6.2h3.085l4.526,7.963V6.2h3.076Zm12-10.415h-3.841V19H138.7V8.585h-3.771V6.2h10.7Zm11.892,4.28a7.546,7.546,0,0,1-.694,3.313,5.132,5.132,0,0,1-1.973,2.219,5.494,5.494,0,0,1-2.914.778,5.572,5.572,0,0,1-2.9-.751,5.123,5.123,0,0,1-1.973-2.149,7.329,7.329,0,0,1-.743-3.208v-.721a7.58,7.58,0,0,1,.69-3.318,5.119,5.119,0,0,1,1.978-2.219A5.854,5.854,0,0,1,154.82,6.8,5.211,5.211,0,0,1,156.8,9a7.362,7.362,0,0,1,.716,3.274Zm-3.138-.536a5.381,5.381,0,0,0-.637-2.9,2.044,2.044,0,0,0-1.824-.989q-2.32,0-2.452,3.48l-.009.94a5.535,5.535,0,0,0,.624,2.892,2.041,2.041,0,0,0,1.854,1.011,2.016,2.016,0,0,0,1.8-.993,5.383,5.383,0,0,0,.642-2.856Z" transform="translate(777 15257)" fill="#fff"/>
      <path id="Trazado_235359" data-name="Trazado 235359" d="M45.511,13.568H40.659v3.059h5.73V19H37.574V6.2h8.833V8.585H40.659v2.7h4.852Zm8.736,2.03a1.268,1.268,0,0,0-.479-1.055,5.954,5.954,0,0,0-1.683-.782,16.147,16.147,0,0,1-1.969-.782q-2.487-1.222-2.487-3.357a3.011,3.011,0,0,1,.62-1.876A4.008,4.008,0,0,1,50,6.48a6.823,6.823,0,0,1,2.549-.453,5.969,5.969,0,0,1,2.474.492,3.917,3.917,0,0,1,1.7,1.4A3.661,3.661,0,0,1,57.332,10H54.256a1.547,1.547,0,0,0-.479-1.213,1.867,1.867,0,0,0-1.3-.431,2.106,2.106,0,0,0-1.305.365,1.074,1.074,0,0,0,.048,1.819,6.65,6.65,0,0,0,1.854.826,11.36,11.36,0,0,1,2.18.918,3.663,3.663,0,0,1,2.074,3.3,3.125,3.125,0,0,1-1.266,2.637,5.629,5.629,0,0,1-3.472.958,6.888,6.888,0,0,1-2.817-.558,4.247,4.247,0,0,1-1.9-1.529,3.985,3.985,0,0,1-.637-2.237h3.094a1.963,1.963,0,0,0,.532,1.516,2.513,2.513,0,0,0,1.727.488,1.985,1.985,0,0,0,1.208-.33A1.088,1.088,0,0,0,54.247,15.6ZM68.96,8.585H65.119V19H62.034V8.585H58.264V6.2h10.7Zm7.515,8.024H72.247L71.509,19h-3.3L72.906,6.2h2.9L80.535,19H77.222Zm-3.489-2.382h2.751l-1.38-4.438ZM81.467,19V6.2h4.6a6.509,6.509,0,0,1,3.757.905,3.012,3.012,0,0,1,1.288,2.628,3.045,3.045,0,0,1-.457,1.7,2.663,2.663,0,0,1-1.345,1.037,2.7,2.7,0,0,1,1.538.984,2.862,2.862,0,0,1,.536,1.758,3.388,3.388,0,0,1-1.191,2.826A5.667,5.667,0,0,1,86.661,19Zm3.085-5.44v3.067h2.021a1.923,1.923,0,0,0,1.283-.382,1.338,1.338,0,0,0,.448-1.077,1.419,1.419,0,0,0-1.591-1.608Zm0-2.021H86.16a2.285,2.285,0,0,0,1.441-.37,1.314,1.314,0,0,0,.431-1.067,1.379,1.379,0,0,0-.466-1.168,2.493,2.493,0,0,0-1.5-.357H84.552ZM96.364,19H93.288V6.2h3.076Zm5.229-2.373h5.37V19H98.509V6.2h3.085ZM111.552,19h-3.076V6.2h3.076Zm5.607-2.373h6.117V19H113.31V17.374l6.1-8.789h-6.135V6.2h9.94V7.785Zm14.9-.018h-4.228L127.091,19h-3.3l4.693-12.8h2.9L136.117,19H132.8Zm-3.489-2.382h2.751l-1.38-4.438Zm18.835.439a4.673,4.673,0,0,1-.721,2.36,4.35,4.35,0,0,1-1.85,1.586,6.3,6.3,0,0,1-2.72.563,5.025,5.025,0,0,1-3.973-1.644,6.786,6.786,0,0,1-1.45-4.641v-.633a7.746,7.746,0,0,1,.655-3.292,4.961,4.961,0,0,1,1.885-2.18,5.26,5.26,0,0,1,2.848-.769,5.516,5.516,0,0,1,3.744,1.226,4.844,4.844,0,0,1,1.608,3.379h-3.076a2.292,2.292,0,0,0-.589-1.679,2.422,2.422,0,0,0-1.687-.51,1.843,1.843,0,0,0-1.687.861,5.536,5.536,0,0,0-.562,2.751v.905a6.126,6.126,0,0,0,.514,2.927,1.882,1.882,0,0,0,1.771.879,2.369,2.369,0,0,0,1.626-.5,2.126,2.126,0,0,0,.6-1.591ZM152.148,19h-3.076V6.2h3.076Zm12.981-6.135a7.546,7.546,0,0,1-.694,3.313,5.132,5.132,0,0,1-1.973,2.219,5.494,5.494,0,0,1-2.914.778,5.572,5.572,0,0,1-2.9-.751,5.123,5.123,0,0,1-1.973-2.149,7.329,7.329,0,0,1-.743-3.208v-.721a7.58,7.58,0,0,1,.69-3.318A5.119,5.119,0,0,1,156.6,6.81a5.854,5.854,0,0,1,5.832-.009A5.211,5.211,0,0,1,164.414,9a7.362,7.362,0,0,1,.716,3.274Zm-3.138-.536a5.381,5.381,0,0,0-.637-2.9,2.044,2.044,0,0,0-1.824-.989q-2.32,0-2.452,3.48l-.009.94a5.535,5.535,0,0,0,.624,2.892,2.041,2.041,0,0,0,1.854,1.011,2.016,2.016,0,0,0,1.8-.993,5.383,5.383,0,0,0,.642-2.856Zm-2.1-9.554h3.129l-2.443,2.76-2.417,0ZM177.408,19h-3.067l-4.535-7.963V19h-3.085V6.2h3.085l4.526,7.963V6.2h3.076Z" transform="translate(724 15563.282)" fill="#fff"/>
      <path id="Trazado_235360" data-name="Trazado 235360" d="M45.6,19V6.2h4.122a6.064,6.064,0,0,1,3.05.769,5.406,5.406,0,0,1,2.114,2.171,6.554,6.554,0,0,1,.769,3.142v.589a6.592,6.592,0,0,1-.743,3.151,5.429,5.429,0,0,1-2.092,2.18,5.93,5.93,0,0,1-3.01.8ZM48.682,8.585v8.042h1.072a2.4,2.4,0,0,0,2.039-.945,4.63,4.63,0,0,0,.712-2.808V12.32a4.592,4.592,0,0,0-.712-2.795,2.442,2.442,0,0,0-2.074-.94ZM60.521,19H57.445V6.2h3.076Zm8.745-3.4a1.268,1.268,0,0,0-.479-1.055,5.954,5.954,0,0,0-1.683-.782,16.147,16.147,0,0,1-1.969-.782q-2.487-1.222-2.487-3.357a3.011,3.011,0,0,1,.62-1.876A4.008,4.008,0,0,1,65.021,6.48a6.823,6.823,0,0,1,2.549-.453,5.969,5.969,0,0,1,2.474.492,3.917,3.917,0,0,1,1.7,1.4A3.661,3.661,0,0,1,72.351,10H69.275A1.547,1.547,0,0,0,68.8,8.787a1.867,1.867,0,0,0-1.3-.431,2.106,2.106,0,0,0-1.305.365,1.074,1.074,0,0,0,.048,1.819,6.65,6.65,0,0,0,1.854.826,11.36,11.36,0,0,1,2.18.918,3.663,3.663,0,0,1,2.074,3.3,3.125,3.125,0,0,1-1.266,2.637,5.629,5.629,0,0,1-3.472.958,6.888,6.888,0,0,1-2.817-.558,4.247,4.247,0,0,1-1.9-1.529,3.985,3.985,0,0,1-.637-2.237h3.094a1.963,1.963,0,0,0,.532,1.516,2.513,2.513,0,0,0,1.727.488,1.985,1.985,0,0,0,1.208-.33A1.088,1.088,0,0,0,69.266,15.6ZM83.979,8.585H80.138V19H77.053V8.585H73.283V6.2h10.7Zm6.056,5.889h-1.67V19H85.28V6.2h5.036a5.621,5.621,0,0,1,3.56,1.01,3.421,3.421,0,0,1,1.283,2.853,4.155,4.155,0,0,1-.541,2.213A3.837,3.837,0,0,1,92.926,13.7L95.6,18.868V19h-3.3ZM88.365,12.1h1.951a1.751,1.751,0,0,0,1.323-.463,1.788,1.788,0,0,0,.444-1.291,1.809,1.809,0,0,0-.448-1.3,1.735,1.735,0,0,0-1.318-.471H88.365ZM100.309,19H97.233V6.2h3.076Zm2.145,0V6.2h4.6a6.509,6.509,0,0,1,3.757.905A3.012,3.012,0,0,1,112.1,9.736a3.045,3.045,0,0,1-.457,1.7,2.663,2.663,0,0,1-1.345,1.037,2.7,2.7,0,0,1,1.538.984,2.862,2.862,0,0,1,.536,1.758,3.388,3.388,0,0,1-1.191,2.826,5.667,5.667,0,0,1-3.529.962Zm3.085-5.44v3.067h2.021a1.923,1.923,0,0,0,1.283-.382,1.338,1.338,0,0,0,.448-1.077A1.419,1.419,0,0,0,107.7,13.56Zm0-2.021h1.608a2.285,2.285,0,0,0,1.441-.37,1.314,1.314,0,0,0,.431-1.067,1.379,1.379,0,0,0-.466-1.168,2.493,2.493,0,0,0-1.5-.357h-1.512ZM124.1,6.2v8.376a4.814,4.814,0,0,1-.606,2.465,3.929,3.929,0,0,1-1.74,1.586,6.131,6.131,0,0,1-2.681.545,5.3,5.3,0,0,1-3.683-1.213,4.326,4.326,0,0,1-1.371-3.322V6.2h3.1v8.5q.053,2.1,1.951,2.1a1.889,1.889,0,0,0,1.45-.527,2.465,2.465,0,0,0,.492-1.714V6.2Zm12.278,8.464a4.673,4.673,0,0,1-.721,2.36,4.35,4.35,0,0,1-1.85,1.586,6.3,6.3,0,0,1-2.72.563,5.025,5.025,0,0,1-3.973-1.644,6.786,6.786,0,0,1-1.45-4.641v-.633a7.746,7.746,0,0,1,.655-3.292,4.961,4.961,0,0,1,1.885-2.18,5.26,5.26,0,0,1,2.848-.769A5.516,5.516,0,0,1,134.8,7.245a4.844,4.844,0,0,1,1.608,3.379H133.33a2.292,2.292,0,0,0-.589-1.679,2.422,2.422,0,0,0-1.687-.51,1.843,1.843,0,0,0-1.687.861,5.536,5.536,0,0,0-.562,2.751v.905a6.126,6.126,0,0,0,.514,2.927,1.882,1.882,0,0,0,1.771.879,2.369,2.369,0,0,0,1.626-.5,2.126,2.126,0,0,0,.6-1.591ZM141.125,19h-3.076V6.2h3.076Zm12.981-6.135a7.546,7.546,0,0,1-.694,3.313,5.132,5.132,0,0,1-1.973,2.219,5.494,5.494,0,0,1-2.914.778,5.572,5.572,0,0,1-2.9-.751,5.123,5.123,0,0,1-1.973-2.149,7.329,7.329,0,0,1-.743-3.208v-.721a7.58,7.58,0,0,1,.69-3.318,5.119,5.119,0,0,1,1.978-2.219,5.854,5.854,0,0,1,5.832-.009A5.211,5.211,0,0,1,153.391,9a7.362,7.362,0,0,1,.716,3.274Zm-3.138-.536a5.381,5.381,0,0,0-.637-2.9,2.044,2.044,0,0,0-1.824-.989q-2.32,0-2.452,3.48l-.009.94a5.535,5.535,0,0,0,.624,2.892,2.041,2.041,0,0,0,1.854,1.011,2.016,2.016,0,0,0,1.8-.993,5.383,5.383,0,0,0,.642-2.856Zm-2.1-9.554H152l-2.443,2.76-2.417,0ZM166.385,19h-3.067l-4.535-7.963V19H155.7V6.2h3.085l4.526,7.963V6.2h3.076Z" transform="translate(410 15563.282)" fill="#fff"/>
      <g id="Grupo_562390" data-name="Grupo 562390">
        <rect id="Rectángulo_41261" data-name="Rectángulo 41261" width="190" height="38" rx="14" transform="translate(1020 15248)" fill="#0c81be"/>
        <path id="Trazado_235353" data-name="Trazado 235353" d="M24.3,14.667a4.673,4.673,0,0,1-.721,2.36,4.35,4.35,0,0,1-1.85,1.586,6.3,6.3,0,0,1-2.72.563,5.025,5.025,0,0,1-3.973-1.644,6.786,6.786,0,0,1-1.45-4.641v-.633a7.746,7.746,0,0,1,.655-3.292,4.961,4.961,0,0,1,1.885-2.18,5.26,5.26,0,0,1,2.848-.769,5.516,5.516,0,0,1,3.744,1.226,4.844,4.844,0,0,1,1.608,3.379H21.25a2.292,2.292,0,0,0-.589-1.679,2.422,2.422,0,0,0-1.687-.51,1.843,1.843,0,0,0-1.687.861,5.536,5.536,0,0,0-.562,2.751v.905a6.126,6.126,0,0,0,.514,2.927,1.882,1.882,0,0,0,1.771.879,2.369,2.369,0,0,0,1.626-.5,2.126,2.126,0,0,0,.6-1.591Zm12.3-1.8a7.546,7.546,0,0,1-.694,3.313A5.132,5.132,0,0,1,33.928,18.4a5.494,5.494,0,0,1-2.914.778,5.572,5.572,0,0,1-2.9-.751,5.123,5.123,0,0,1-1.973-2.149,7.329,7.329,0,0,1-.743-3.208v-.721a7.58,7.58,0,0,1,.69-3.318A5.119,5.119,0,0,1,28.065,6.81,5.854,5.854,0,0,1,33.9,6.8,5.211,5.211,0,0,1,35.879,9a7.362,7.362,0,0,1,.716,3.274Zm-3.138-.536a5.381,5.381,0,0,0-.637-2.9A2.044,2.044,0,0,0,31,8.444q-2.32,0-2.452,3.48l-.009.94a5.535,5.535,0,0,0,.624,2.892,2.041,2.041,0,0,0,1.854,1.011,2.016,2.016,0,0,0,1.8-.993,5.383,5.383,0,0,0,.642-2.856Zm11.813,4.28H41.042L40.3,19h-3.3L41.7,6.2h2.9L49.331,19H46.017Zm-3.489-2.382h2.751l-1.38-4.438Zm18.958,3.19a4.96,4.96,0,0,1-2.083,1.274,8.984,8.984,0,0,1-3.006.483,5.36,5.36,0,0,1-4.017-1.538,6.226,6.226,0,0,1-1.608-4.28l-.009-1.107a7.637,7.637,0,0,1,.668-3.3A4.96,4.96,0,0,1,52.6,6.779a5.407,5.407,0,0,1,2.878-.76,5.669,5.669,0,0,1,3.713,1.094,4.637,4.637,0,0,1,1.542,3.265H57.759a2.426,2.426,0,0,0-.686-1.529,2.212,2.212,0,0,0-1.494-.457,2.013,2.013,0,0,0-1.793.984,5.256,5.256,0,0,0-.642,2.813v.773A5.145,5.145,0,0,0,53.8,15.84a2.316,2.316,0,0,0,2.061.962,2.592,2.592,0,0,0,1.793-.536V14.28H55.509V12.162h5.229ZM72.569,6.2v8.376a4.814,4.814,0,0,1-.606,2.465,3.929,3.929,0,0,1-1.74,1.586,6.131,6.131,0,0,1-2.681.545,5.3,5.3,0,0,1-3.683-1.213,4.326,4.326,0,0,1-1.371-3.322V6.2h3.1v8.5q.053,2.1,1.951,2.1a1.889,1.889,0,0,0,1.45-.527,2.465,2.465,0,0,0,.492-1.714V6.2Zm5.01,10.424h5.37V19H74.494V6.2h3.085Zm14.106-.018H87.458L86.719,19h-3.3L88.117,6.2h2.9L95.746,19H92.432ZM88.2,14.228h2.751l-1.38-4.438Zm18.835.439a4.673,4.673,0,0,1-.721,2.36,4.35,4.35,0,0,1-1.85,1.586,6.3,6.3,0,0,1-2.72.563,5.025,5.025,0,0,1-3.973-1.644,6.786,6.786,0,0,1-1.45-4.641v-.633a7.746,7.746,0,0,1,.655-3.292,4.961,4.961,0,0,1,1.885-2.18,5.26,5.26,0,0,1,2.848-.769,5.516,5.516,0,0,1,3.744,1.226,4.844,4.844,0,0,1,1.608,3.379h-3.076a2.292,2.292,0,0,0-.589-1.679,2.422,2.422,0,0,0-1.687-.51,1.843,1.843,0,0,0-1.687.861,5.536,5.536,0,0,0-.562,2.751v.905a6.126,6.126,0,0,0,.514,2.927,1.882,1.882,0,0,0,1.771.879,2.369,2.369,0,0,0,1.626-.5,2.126,2.126,0,0,0,.6-1.591ZM111.777,19H108.7V6.2h3.076Zm12.981-6.135a7.546,7.546,0,0,1-.694,3.313,5.132,5.132,0,0,1-1.973,2.219,5.494,5.494,0,0,1-2.914.778,5.572,5.572,0,0,1-2.9-.751,5.123,5.123,0,0,1-1.973-2.149,7.329,7.329,0,0,1-.743-3.208v-.721a7.58,7.58,0,0,1,.69-3.318,5.119,5.119,0,0,1,1.978-2.219A5.854,5.854,0,0,1,122.06,6.8,5.211,5.211,0,0,1,124.042,9a7.362,7.362,0,0,1,.716,3.274Zm-3.138-.536a5.381,5.381,0,0,0-.637-2.9,2.044,2.044,0,0,0-1.824-.989q-2.32,0-2.452,3.48l-.009.94a5.535,5.535,0,0,0,.624,2.892,2.041,2.041,0,0,0,1.854,1.011,2.016,2.016,0,0,0,1.8-.993,5.383,5.383,0,0,0,.642-2.856Zm-2.1-9.554h3.129l-2.443,2.76-2.417,0ZM137.037,19h-3.067l-4.535-7.963V19h-3.085V6.2h3.085l4.526,7.963V6.2h3.076Z" transform="translate(1040 15257)" fill="#fff"/>
      </g>
      <g id="Grupo_562391" data-name="Grupo 562391" transform="translate(0 -17)">
        <rect id="Rectángulo_41262" data-name="Rectángulo 41262" width="190" height="38" rx="14" transform="translate(1020 15342)" fill="#0c81be"/>
        <path id="Trazado_235354" data-name="Trazado 235354" d="M24.66,13.9H19.685V19H16.6V6.2h8.561V8.585H19.685v2.944H24.66Zm4.869,2.725H34.9V19H26.444V6.2h3.085Zm16.945-3.762a7.546,7.546,0,0,1-.694,3.313A5.132,5.132,0,0,1,43.807,18.4a5.494,5.494,0,0,1-2.914.778,5.572,5.572,0,0,1-2.9-.751,5.123,5.123,0,0,1-1.973-2.149,7.329,7.329,0,0,1-.743-3.208v-.721a7.58,7.58,0,0,1,.69-3.318A5.119,5.119,0,0,1,37.944,6.81,5.854,5.854,0,0,1,43.776,6.8,5.211,5.211,0,0,1,45.758,9a7.362,7.362,0,0,1,.716,3.274Zm-3.138-.536a5.381,5.381,0,0,0-.637-2.9,2.044,2.044,0,0,0-1.824-.989q-2.32,0-2.452,3.48l-.009.94a5.535,5.535,0,0,0,.624,2.892,2.041,2.041,0,0,0,1.854,1.011,2.016,2.016,0,0,0,1.8-.993,5.383,5.383,0,0,0,.642-2.856Zm15.082,2.338a4.673,4.673,0,0,1-.721,2.36,4.35,4.35,0,0,1-1.85,1.586,6.3,6.3,0,0,1-2.72.563,5.025,5.025,0,0,1-3.973-1.644,6.786,6.786,0,0,1-1.45-4.641v-.633a7.746,7.746,0,0,1,.655-3.292,4.961,4.961,0,0,1,1.885-2.18,5.26,5.26,0,0,1,2.848-.769,5.516,5.516,0,0,1,3.744,1.226,4.844,4.844,0,0,1,1.608,3.379H55.369a2.292,2.292,0,0,0-.589-1.679,2.422,2.422,0,0,0-1.687-.51A1.843,1.843,0,0,0,51.4,9.3a5.536,5.536,0,0,0-.562,2.751v.905a6.126,6.126,0,0,0,.514,2.927,1.882,1.882,0,0,0,1.771.879,2.369,2.369,0,0,0,1.626-.5,2.126,2.126,0,0,0,.6-1.591ZM69.915,6.2v8.376a4.814,4.814,0,0,1-.606,2.465,3.929,3.929,0,0,1-1.74,1.586,6.131,6.131,0,0,1-2.681.545A5.3,5.3,0,0,1,61.2,17.963a4.326,4.326,0,0,1-1.371-3.322V6.2h3.1v8.5q.053,2.1,1.951,2.1a1.889,1.889,0,0,0,1.45-.527,2.465,2.465,0,0,0,.492-1.714V6.2Zm5.01,10.424h5.37V19H71.839V6.2h3.085Zm14.106-.018H84.8L84.065,19h-3.3L85.462,6.2h2.9L93.091,19H89.778Zm-3.489-2.382h2.751l-1.38-4.438Zm18.835.439a4.673,4.673,0,0,1-.721,2.36,4.35,4.35,0,0,1-1.85,1.586,6.3,6.3,0,0,1-2.72.563,5.025,5.025,0,0,1-3.973-1.644,6.786,6.786,0,0,1-1.45-4.641v-.633a7.746,7.746,0,0,1,.655-3.292A4.961,4.961,0,0,1,96.2,6.788a5.26,5.26,0,0,1,2.848-.769,5.516,5.516,0,0,1,3.744,1.226,4.844,4.844,0,0,1,1.608,3.379h-3.076a2.292,2.292,0,0,0-.589-1.679,2.422,2.422,0,0,0-1.687-.51,1.843,1.843,0,0,0-1.687.861,5.536,5.536,0,0,0-.562,2.751v.905a6.126,6.126,0,0,0,.514,2.927,1.882,1.882,0,0,0,1.771.879,2.369,2.369,0,0,0,1.626-.5,2.126,2.126,0,0,0,.6-1.591ZM109.123,19h-3.076V6.2h3.076ZM122.1,12.865a7.546,7.546,0,0,1-.694,3.313,5.132,5.132,0,0,1-1.973,2.219,5.494,5.494,0,0,1-2.914.778,5.572,5.572,0,0,1-2.9-.751,5.123,5.123,0,0,1-1.973-2.149,7.329,7.329,0,0,1-.743-3.208v-.721a7.58,7.58,0,0,1,.69-3.318,5.119,5.119,0,0,1,1.978-2.219,5.854,5.854,0,0,1,5.832-.009A5.211,5.211,0,0,1,121.388,9a7.362,7.362,0,0,1,.716,3.274Zm-3.138-.536a5.381,5.381,0,0,0-.637-2.9,2.044,2.044,0,0,0-1.824-.989q-2.32,0-2.452,3.48l-.009.94a5.535,5.535,0,0,0,.624,2.892,2.041,2.041,0,0,0,1.854,1.011,2.016,2.016,0,0,0,1.8-.993,5.383,5.383,0,0,0,.642-2.856Zm-2.1-9.554h3.129l-2.443,2.76-2.417,0ZM134.382,19h-3.067l-4.535-7.963V19h-3.085V6.2h3.085l4.526,7.963V6.2h3.076Z" transform="translate(1040 15351)" fill="#fff"/>
      </g>
      <g id="Grupo_562392" data-name="Grupo 562392" transform="translate(0 -41)">
        <rect id="Rectángulo_41263" data-name="Rectángulo 41263" width="190" height="38" rx="14" transform="translate(1020 15443)" fill="#0c81be"/>
        <path id="Trazado_235355" data-name="Trazado 235355" d="M12.188,15.6a1.268,1.268,0,0,0-.479-1.055,5.954,5.954,0,0,0-1.683-.782,16.147,16.147,0,0,1-1.969-.782Q5.57,11.758,5.57,9.622a3.011,3.011,0,0,1,.62-1.876A4.008,4.008,0,0,1,7.943,6.48a6.823,6.823,0,0,1,2.549-.453,5.969,5.969,0,0,1,2.474.492,3.917,3.917,0,0,1,1.7,1.4A3.661,3.661,0,0,1,15.273,10H12.2a1.547,1.547,0,0,0-.479-1.213,1.867,1.867,0,0,0-1.3-.431,2.106,2.106,0,0,0-1.305.365,1.074,1.074,0,0,0,.048,1.819,6.65,6.65,0,0,0,1.854.826,11.36,11.36,0,0,1,2.18.918,3.663,3.663,0,0,1,2.074,3.3,3.125,3.125,0,0,1-1.266,2.637,5.629,5.629,0,0,1-3.472.958,6.888,6.888,0,0,1-2.817-.558,4.247,4.247,0,0,1-1.9-1.529,3.985,3.985,0,0,1-.637-2.237H8.277a1.963,1.963,0,0,0,.532,1.516,2.513,2.513,0,0,0,1.727.488,1.985,1.985,0,0,0,1.208-.33A1.088,1.088,0,0,0,12.188,15.6Zm12.6-2.03H19.94v3.059h5.73V19H16.855V6.2h8.833V8.585H19.94v2.7h4.852ZM26.927,19V6.2h4.122a6.064,6.064,0,0,1,3.05.769,5.406,5.406,0,0,1,2.114,2.171,6.554,6.554,0,0,1,.769,3.142v.589a6.592,6.592,0,0,1-.743,3.151,5.429,5.429,0,0,1-2.092,2.18,5.93,5.93,0,0,1-3.01.8ZM30.012,8.585v8.042h1.072a2.4,2.4,0,0,0,2.039-.945,4.63,4.63,0,0,0,.712-2.808V12.32a4.592,4.592,0,0,0-.712-2.795,2.442,2.442,0,0,0-2.074-.94ZM41.851,19H38.775V6.2h3.076Zm6.2-12.8,2.856,8.9,2.848-8.9h4.061V19H54.718V16.012l.3-6.117L51.923,19H49.884l-3.1-9.114.3,6.126V19H44V6.2Zm19.661,7.365H62.857v3.059h5.73V19H59.772V6.2H68.6V8.585H62.857v2.7h4.852ZM80.532,19H77.464l-4.535-7.963V19H69.844V6.2h3.085l4.526,7.963V6.2h3.076Zm12-10.415H88.688V19H85.6V8.585H81.833V6.2h10.7Zm7.515,8.024H95.816L95.078,19h-3.3L96.475,6.2h2.9L104.1,19h-3.313Zm-3.489-2.382h2.751l-1.38-4.438Zm18.835.439a4.673,4.673,0,0,1-.721,2.36,4.35,4.35,0,0,1-1.85,1.586,6.3,6.3,0,0,1-2.72.563,5.025,5.025,0,0,1-3.973-1.644,6.786,6.786,0,0,1-1.45-4.641v-.633a7.746,7.746,0,0,1,.655-3.292,4.961,4.961,0,0,1,1.885-2.18,5.26,5.26,0,0,1,2.848-.769,5.516,5.516,0,0,1,3.744,1.226,4.844,4.844,0,0,1,1.608,3.379h-3.076a2.292,2.292,0,0,0-.589-1.679,2.422,2.422,0,0,0-1.687-.51,1.843,1.843,0,0,0-1.687.861,5.536,5.536,0,0,0-.562,2.751v.905a6.126,6.126,0,0,0,.514,2.927,1.882,1.882,0,0,0,1.771.879,2.369,2.369,0,0,0,1.626-.5,2.126,2.126,0,0,0,.6-1.591ZM120.135,19h-3.076V6.2h3.076Zm12.981-6.135a7.546,7.546,0,0,1-.694,3.313,5.132,5.132,0,0,1-1.973,2.219,5.494,5.494,0,0,1-2.914.778,5.572,5.572,0,0,1-2.9-.751,5.123,5.123,0,0,1-1.973-2.149,7.329,7.329,0,0,1-.743-3.208v-.721a7.58,7.58,0,0,1,.69-3.318,5.119,5.119,0,0,1,1.978-2.219,5.854,5.854,0,0,1,5.832-.009A5.211,5.211,0,0,1,132.4,9a7.362,7.362,0,0,1,.716,3.274Zm-3.138-.536a5.381,5.381,0,0,0-.637-2.9,2.044,2.044,0,0,0-1.824-.989q-2.32,0-2.452,3.48l-.009.94a5.535,5.535,0,0,0,.624,2.892,2.041,2.041,0,0,0,1.854,1.011,2.016,2.016,0,0,0,1.8-.993,5.383,5.383,0,0,0,.642-2.856Zm-2.1-9.554h3.129l-2.443,2.76-2.417,0ZM145.4,19h-3.067l-4.535-7.963V19h-3.085V6.2h3.085l4.526,7.963V6.2H145.4Z" transform="translate(1040 15452)" fill="#fff"/>
      </g>
      <path id="Trazado_235357" data-name="Trazado 235357" d="M34.082,13.9H29.107V19H26.022V6.2h8.561V8.585H29.107v2.944h4.975ZM39.153,19H36.077V6.2h3.076Zm5.229-2.373h5.37V19H41.3V6.2h3.085ZM59.3,8.585H55.457V19H52.372V8.585H48.6V6.2H59.3Zm6.056,5.889h-1.67V19H60.6V6.2h5.036a5.621,5.621,0,0,1,3.56,1.01,3.421,3.421,0,0,1,1.283,2.853,4.155,4.155,0,0,1-.541,2.213A3.837,3.837,0,0,1,68.245,13.7l2.672,5.167V19h-3.3ZM63.683,12.1h1.951a1.751,1.751,0,0,0,1.323-.463,1.788,1.788,0,0,0,.444-1.291,1.809,1.809,0,0,0-.448-1.3,1.735,1.735,0,0,0-1.318-.471H63.683Zm15.926,4.509H75.381L74.643,19h-3.3L76.041,6.2h2.9L83.669,19H80.356ZM76.12,14.228h2.751l-1.38-4.438Zm18.835.439a4.673,4.673,0,0,1-.721,2.36,4.35,4.35,0,0,1-1.85,1.586,6.3,6.3,0,0,1-2.72.563,5.025,5.025,0,0,1-3.973-1.644,6.786,6.786,0,0,1-1.45-4.641v-.633A7.746,7.746,0,0,1,84.9,8.967a4.961,4.961,0,0,1,1.885-2.18,5.26,5.26,0,0,1,2.848-.769,5.516,5.516,0,0,1,3.744,1.226,4.844,4.844,0,0,1,1.608,3.379H91.9a2.292,2.292,0,0,0-.589-1.679,2.422,2.422,0,0,0-1.687-.51,1.843,1.843,0,0,0-1.687.861,5.536,5.536,0,0,0-.562,2.751v.905a6.126,6.126,0,0,0,.514,2.927,1.882,1.882,0,0,0,1.771.879,2.369,2.369,0,0,0,1.626-.5,2.126,2.126,0,0,0,.6-1.591ZM99.7,19H96.625V6.2H99.7Zm12.981-6.135a7.546,7.546,0,0,1-.694,3.313,5.132,5.132,0,0,1-1.973,2.219,5.494,5.494,0,0,1-2.914.778,5.572,5.572,0,0,1-2.9-.751,5.123,5.123,0,0,1-1.973-2.149,7.329,7.329,0,0,1-.743-3.208v-.721a7.58,7.58,0,0,1,.69-3.318,5.119,5.119,0,0,1,1.978-2.219,5.854,5.854,0,0,1,5.832-.009A5.211,5.211,0,0,1,111.966,9a7.362,7.362,0,0,1,.716,3.274Zm-3.138-.536a5.381,5.381,0,0,0-.637-2.9,2.044,2.044,0,0,0-1.824-.989q-2.32,0-2.452,3.48l-.009.94a5.535,5.535,0,0,0,.624,2.892,2.041,2.041,0,0,0,1.854,1.011,2.016,2.016,0,0,0,1.8-.993,5.383,5.383,0,0,0,.642-2.856Zm-2.1-9.554h3.129l-2.443,2.76-2.417,0ZM124.96,19h-3.067l-4.535-7.963V19h-3.085V6.2h3.085l4.526,7.963V6.2h3.076Z" transform="translate(1040 15487)" fill="#fff"/>
      <path id="Trazado_235358" data-name="Trazado 235358" d="M13.924,19V6.2h4.122a6.064,6.064,0,0,1,3.05.769,5.406,5.406,0,0,1,2.114,2.171,6.554,6.554,0,0,1,.769,3.142v.589a6.592,6.592,0,0,1-.743,3.151,5.429,5.429,0,0,1-2.092,2.18,5.93,5.93,0,0,1-3.01.8ZM17.009,8.585v8.042h1.072a2.4,2.4,0,0,0,2.039-.945,4.63,4.63,0,0,0,.712-2.808V12.32a4.592,4.592,0,0,0-.712-2.795,2.442,2.442,0,0,0-2.074-.94ZM33.5,13.568H28.646v3.059h5.73V19H25.561V6.2h8.833V8.585H28.646v2.7H33.5Zm8.736,2.03a1.268,1.268,0,0,0-.479-1.055,5.954,5.954,0,0,0-1.683-.782,16.147,16.147,0,0,1-1.969-.782q-2.487-1.222-2.487-3.357a3.011,3.011,0,0,1,.62-1.876A4.008,4.008,0,0,1,37.988,6.48a6.823,6.823,0,0,1,2.549-.453,5.969,5.969,0,0,1,2.474.492,3.917,3.917,0,0,1,1.7,1.4A3.661,3.661,0,0,1,45.318,10H42.242a1.547,1.547,0,0,0-.479-1.213,1.867,1.867,0,0,0-1.3-.431,2.106,2.106,0,0,0-1.305.365,1.074,1.074,0,0,0,.048,1.819,6.65,6.65,0,0,0,1.854.826,11.36,11.36,0,0,1,2.18.918,3.663,3.663,0,0,1,2.074,3.3,3.125,3.125,0,0,1-1.266,2.637,5.629,5.629,0,0,1-3.472.958,6.888,6.888,0,0,1-2.817-.558,4.247,4.247,0,0,1-1.9-1.529,3.985,3.985,0,0,1-.637-2.237h3.094a1.963,1.963,0,0,0,.532,1.516,2.513,2.513,0,0,0,1.727.488,1.985,1.985,0,0,0,1.208-.33A1.088,1.088,0,0,0,42.233,15.6ZM50.188,19H47.111V6.2h3.076ZM63.02,19H59.952l-4.535-7.963V19H52.332V6.2h3.085l4.526,7.963V6.2H63.02ZM73.03,13.9H68.056V19H64.971V6.2h8.561V8.585H68.056v2.944H73.03Zm9.721-.334H77.9v3.059h5.73V19H74.814V6.2h8.833V8.585H77.9v2.7h4.852Zm12.489,1.1a4.673,4.673,0,0,1-.721,2.36,4.35,4.35,0,0,1-1.85,1.586,6.3,6.3,0,0,1-2.72.563,5.025,5.025,0,0,1-3.973-1.644,6.786,6.786,0,0,1-1.45-4.641v-.633a7.746,7.746,0,0,1,.655-3.292,4.961,4.961,0,0,1,1.885-2.18,5.26,5.26,0,0,1,2.848-.769,5.516,5.516,0,0,1,3.744,1.226,4.844,4.844,0,0,1,1.608,3.379H92.19A2.292,2.292,0,0,0,91.6,8.945a2.422,2.422,0,0,0-1.687-.51,1.843,1.843,0,0,0-1.687.861,5.536,5.536,0,0,0-.562,2.751v.905a6.126,6.126,0,0,0,.514,2.927,1.882,1.882,0,0,0,1.771.879,2.369,2.369,0,0,0,1.626-.5,2.126,2.126,0,0,0,.6-1.591Zm11.813,0a4.673,4.673,0,0,1-.721,2.36,4.35,4.35,0,0,1-1.85,1.586,6.3,6.3,0,0,1-2.72.563,5.025,5.025,0,0,1-3.973-1.644,6.786,6.786,0,0,1-1.45-4.641v-.633a7.746,7.746,0,0,1,.655-3.292,4.961,4.961,0,0,1,1.885-2.18,5.26,5.26,0,0,1,2.848-.769,5.516,5.516,0,0,1,3.744,1.226,4.844,4.844,0,0,1,1.608,3.379H104a2.292,2.292,0,0,0-.589-1.679,2.422,2.422,0,0,0-1.687-.51,1.843,1.843,0,0,0-1.687.861,5.536,5.536,0,0,0-.562,2.751v.905a6.126,6.126,0,0,0,.514,2.927,1.882,1.882,0,0,0,1.771.879,2.369,2.369,0,0,0,1.626-.5,2.126,2.126,0,0,0,.6-1.591ZM111.8,19h-3.076V6.2H111.8Zm12.981-6.135a7.546,7.546,0,0,1-.694,3.313,5.132,5.132,0,0,1-1.973,2.219,5.494,5.494,0,0,1-2.914.778,5.572,5.572,0,0,1-2.9-.751,5.123,5.123,0,0,1-1.973-2.149,7.329,7.329,0,0,1-.743-3.208v-.721a7.58,7.58,0,0,1,.69-3.318A5.119,5.119,0,0,1,116.25,6.81a5.854,5.854,0,0,1,5.832-.009A5.211,5.211,0,0,1,124.064,9a7.362,7.362,0,0,1,.716,3.274Zm-3.138-.536a5.381,5.381,0,0,0-.637-2.9,2.044,2.044,0,0,0-1.824-.989q-2.32,0-2.452,3.48l-.009.94a5.535,5.535,0,0,0,.624,2.892,2.041,2.041,0,0,0,1.854,1.011,2.016,2.016,0,0,0,1.8-.993,5.383,5.383,0,0,0,.642-2.856Zm-2.1-9.554h3.129l-2.443,2.76-2.417,0ZM137.059,19h-3.067l-4.535-7.963V19h-3.085V6.2h3.085l4.526,7.963V6.2h3.076Z" transform="translate(1040 15563)" fill="#fff"/>
      <path id="Polígono_7" data-name="Polígono 7" d="M9.5,0,19,16H0Z" transform="translate(566.905 15257.5) rotate(90)" fill="#0f2771"/>
      <path id="Polígono_8" data-name="Polígono 8" d="M9.5,0,19,16H0Z" transform="translate(750.684 15257.5) rotate(90)" fill="#0f2771"/>
      <path id="Polígono_9" data-name="Polígono 9" d="M9.5,0,19,16H0Z" transform="translate(1009.562 15257.5) rotate(90)" fill="#0f2771"/>
      <path id="Polígono_15" data-name="Polígono 15" d="M9.5,0,19,16H0Z" transform="translate(661.437 15584.282) rotate(-90)" fill="#0f2771"/>
      <path id="Polígono_16" data-name="Polígono 16" d="M9.5,0,19,16H0Z" transform="translate(976.437 15584.282) rotate(-90)" fill="#0f2771"/>
      <path id="Trazado_195196" data-name="Trazado 195196" d="M-6119.248,3567.5h-35.906" transform="translate(6670.153 11699.5)" fill="none" stroke="#0f2771" stroke-width="2"/>
      <path id="Trazado_195197" data-name="Trazado 195197" d="M-6118.469,3567.5h-36.685" transform="translate(6853.153 11699.5)" fill="none" stroke="#0f2771" stroke-width="2"/>
      <path id="Trazado_195198" data-name="Trazado 195198" d="M-6116.44,3567.5h-38.714" transform="translate(7121.153 11699.5)" fill="none" stroke="#0f2771" stroke-width="2"/>
      <path id="Trazado_195204" data-name="Trazado 195204" d="M-6155.154,3567.5h38.714" transform="translate(6821.44 12007.282)" fill="none" stroke="#0f2771" stroke-width="2"/>
      <path id="Trazado_195205" data-name="Trazado 195205" d="M-6155.154,3567.5h38.714" transform="translate(7136.44 12007.282)" fill="none" stroke="#0f2771" stroke-width="2"/>
      <g id="Grupo_562389" data-name="Grupo 562389">
        <path id="Polígono_10" data-name="Polígono 10" d="M9.5,0,19,16H0Z" transform="translate(1125.5 15320) rotate(180)" fill="#0f2771"/>
        <path id="Trazado_195199" data-name="Trazado 195199" d="M-6129.154,3567.5h-26" transform="translate(4683.5 21441.154) rotate(90)" fill="none" stroke="#0f2771" stroke-width="2"/>
      </g>
      <g id="Grupo_562393" data-name="Grupo 562393" transform="translate(0 77)">
        <path id="Polígono_10-2" data-name="Polígono 10" d="M9.5,0,19,16H0Z" transform="translate(1125.5 15320) rotate(180)" fill="#0f2771"/>
        <path id="Trazado_195199-2" data-name="Trazado 195199" d="M-6129.154,3567.5h-26" transform="translate(4683.5 21441.154) rotate(90)" fill="none" stroke="#0f2771" stroke-width="2"/>
      </g>
      <g id="Grupo_562394" data-name="Grupo 562394" transform="translate(0 154)">
        <path id="Polígono_10-3" data-name="Polígono 10" d="M9.5,0,19,16H0Z" transform="translate(1125.5 15320) rotate(180)" fill="#0f2771"/>
        <path id="Trazado_195199-3" data-name="Trazado 195199" d="M-6129.154,3567.5h-26" transform="translate(4683.5 21441.154) rotate(90)" fill="none" stroke="#0f2771" stroke-width="2"/>
      </g>
      <g id="Grupo_562395" data-name="Grupo 562395" transform="translate(0 230)">
        <path id="Polígono_10-4" data-name="Polígono 10" d="M9.5,0,19,16H0Z" transform="translate(1125.5 15320) rotate(180)" fill="#0f2771"/>
        <path id="Trazado_195199-4" data-name="Trazado 195199" d="M-6129.154,3567.5h-26" transform="translate(4683.5 21441.154) rotate(90)" fill="none" stroke="#0f2771" stroke-width="2"/>
      </g>
      <g id="Grupo_562388" data-name="Grupo 562388" transform="translate(0 -63)">
        <path id="Trazado_235356" data-name="Trazado 235356" d="M37.856,15.6a1.268,1.268,0,0,0-.479-1.055,5.954,5.954,0,0,0-1.683-.782,16.147,16.147,0,0,1-1.969-.782q-2.487-1.222-2.487-3.357a3.011,3.011,0,0,1,.62-1.876A4.008,4.008,0,0,1,33.611,6.48a6.823,6.823,0,0,1,2.549-.453,5.969,5.969,0,0,1,2.474.492,3.917,3.917,0,0,1,1.7,1.4A3.661,3.661,0,0,1,40.941,10H37.865a1.547,1.547,0,0,0-.479-1.213,1.867,1.867,0,0,0-1.3-.431,2.106,2.106,0,0,0-1.305.365,1.074,1.074,0,0,0,.048,1.819,6.65,6.65,0,0,0,1.854.826,11.36,11.36,0,0,1,2.18.918,3.663,3.663,0,0,1,2.074,3.3,3.125,3.125,0,0,1-1.266,2.637,5.629,5.629,0,0,1-3.472.958,6.888,6.888,0,0,1-2.817-.558,4.247,4.247,0,0,1-1.9-1.529,3.985,3.985,0,0,1-.637-2.237h3.094a1.963,1.963,0,0,0,.532,1.516,2.513,2.513,0,0,0,1.727.488,1.985,1.985,0,0,0,1.208-.33A1.088,1.088,0,0,0,37.856,15.6ZM45.81,19H42.734V6.2H45.81Zm8.745-3.4a1.268,1.268,0,0,0-.479-1.055,5.954,5.954,0,0,0-1.683-.782,16.147,16.147,0,0,1-1.969-.782q-2.487-1.222-2.487-3.357a3.011,3.011,0,0,1,.62-1.876A4.008,4.008,0,0,1,50.31,6.48a6.823,6.823,0,0,1,2.549-.453,5.969,5.969,0,0,1,2.474.492,3.917,3.917,0,0,1,1.7,1.4A3.661,3.661,0,0,1,57.64,10H54.564a1.547,1.547,0,0,0-.479-1.213,1.867,1.867,0,0,0-1.3-.431,2.106,2.106,0,0,0-1.305.365,1.074,1.074,0,0,0,.048,1.819,6.65,6.65,0,0,0,1.854.826,11.36,11.36,0,0,1,2.18.918,3.663,3.663,0,0,1,2.074,3.3,3.125,3.125,0,0,1-1.266,2.637,5.629,5.629,0,0,1-3.472.958,6.888,6.888,0,0,1-2.817-.558,4.247,4.247,0,0,1-1.9-1.529,3.985,3.985,0,0,1-.637-2.237h3.094a1.963,1.963,0,0,0,.532,1.516,2.513,2.513,0,0,0,1.727.488,1.985,1.985,0,0,0,1.208-.33A1.088,1.088,0,0,0,54.555,15.6ZM69.268,8.585H65.427V19H62.342V8.585H58.572V6.2h10.7Zm9.237,4.983H73.654v3.059h5.73V19H70.569V6.2H79.4V8.585H73.654v2.7h4.852ZM84.693,6.2l2.856,8.9L90.4,6.2h4.061V19H91.364V16.012l.3-6.117L88.569,19H86.53l-3.1-9.114.3,6.126V19H80.641V6.2Zm18.993,10.406H99.458L98.72,19h-3.3l4.693-12.8h2.9L107.747,19h-3.313ZM100.2,14.228h2.751l-1.38-4.438ZM12.416,39.667a4.673,4.673,0,0,1-.721,2.36,4.35,4.35,0,0,1-1.85,1.586,6.3,6.3,0,0,1-2.72.563,5.025,5.025,0,0,1-3.973-1.644A6.786,6.786,0,0,1,1.7,37.892v-.633a7.746,7.746,0,0,1,.655-3.292,4.961,4.961,0,0,1,1.885-2.18,5.26,5.26,0,0,1,2.848-.769,5.516,5.516,0,0,1,3.744,1.226,4.844,4.844,0,0,1,1.608,3.379H9.366a2.292,2.292,0,0,0-.589-1.679,2.422,2.422,0,0,0-1.687-.51A1.843,1.843,0,0,0,5.4,34.3a5.536,5.536,0,0,0-.562,2.751v.905a6.125,6.125,0,0,0,.514,2.927,1.882,1.882,0,0,0,1.771.879,2.369,2.369,0,0,0,1.626-.5,2.126,2.126,0,0,0,.6-1.591Zm12.3-1.8a7.546,7.546,0,0,1-.694,3.313A5.132,5.132,0,0,1,22.044,43.4a5.494,5.494,0,0,1-2.914.778,5.572,5.572,0,0,1-2.9-.751,5.123,5.123,0,0,1-1.973-2.149,7.329,7.329,0,0,1-.743-3.208v-.721a7.58,7.58,0,0,1,.69-3.318,5.119,5.119,0,0,1,1.978-2.219,5.854,5.854,0,0,1,5.832-.009A5.211,5.211,0,0,1,24,34a7.362,7.362,0,0,1,.716,3.274Zm-3.138-.536a5.381,5.381,0,0,0-.637-2.9,2.044,2.044,0,0,0-1.824-.989q-2.32,0-2.452,3.48l-.009.94a5.535,5.535,0,0,0,.624,2.892,2.041,2.041,0,0,0,1.854,1.011,2.016,2.016,0,0,0,1.8-.993,5.383,5.383,0,0,0,.642-2.856ZM36.99,44H33.923l-4.535-7.963V44H26.3V31.2h3.085l4.526,7.963V31.2H36.99Zm6.917-3.48L46.456,31.2H49.9L45.595,44H42.22L37.948,31.2h3.419ZM58.77,38.568H53.918v3.059h5.73V44H50.833V31.2h8.833v2.382H53.918v2.7H58.77ZM71.593,44H68.525L63.99,36.037V44H60.905V31.2H63.99l4.526,7.963V31.2h3.076Zm12.3-4.333a4.673,4.673,0,0,1-.721,2.36,4.35,4.35,0,0,1-1.85,1.586,6.3,6.3,0,0,1-2.72.563,5.025,5.025,0,0,1-3.973-1.644,6.786,6.786,0,0,1-1.45-4.641v-.633a7.746,7.746,0,0,1,.655-3.292,4.961,4.961,0,0,1,1.885-2.18,5.26,5.26,0,0,1,2.848-.769,5.516,5.516,0,0,1,3.744,1.226,4.844,4.844,0,0,1,1.608,3.379H80.848a2.292,2.292,0,0,0-.589-1.679,2.422,2.422,0,0,0-1.687-.51,1.843,1.843,0,0,0-1.687.861,5.536,5.536,0,0,0-.562,2.751v.905a6.126,6.126,0,0,0,.514,2.927,1.882,1.882,0,0,0,1.771.879,2.369,2.369,0,0,0,1.626-.5,2.126,2.126,0,0,0,.6-1.591ZM88.644,44H85.567V31.2h3.076Zm12.981-6.135a7.546,7.546,0,0,1-.694,3.313A5.132,5.132,0,0,1,98.958,43.4a5.494,5.494,0,0,1-2.914.778,5.572,5.572,0,0,1-2.9-.751,5.123,5.123,0,0,1-1.973-2.149,7.329,7.329,0,0,1-.743-3.208v-.721a7.58,7.58,0,0,1,.69-3.318A5.119,5.119,0,0,1,93.1,31.81a5.854,5.854,0,0,1,5.832-.009,5.211,5.211,0,0,1,1.982,2.2,7.362,7.362,0,0,1,.716,3.274Zm-3.138-.536a5.381,5.381,0,0,0-.637-2.9,2.044,2.044,0,0,0-1.824-.989q-2.32,0-2.452,3.48l-.009.94a5.535,5.535,0,0,0,.624,2.892,2.041,2.041,0,0,0,1.854,1.011,2.016,2.016,0,0,0,1.8-.993,5.383,5.383,0,0,0,.642-2.856ZM113.9,44h-3.067L106.3,36.037V44h-3.085V31.2H106.3l4.526,7.963V31.2H113.9Zm9.22-2.391H118.9L118.157,44h-3.3l4.693-12.8h2.9L127.184,44H123.87Zm-3.489-2.382h2.751L121,34.789Zm11.566,2.4h5.37V44h-8.455V31.2H131.2Z" transform="translate(655 15495)" fill="#12263f"/>
        <g id="Grupo_57873" data-name="Grupo 57873" transform="translate(707 15437.563)">
          <path id="Trazado_103456" data-name="Trazado 103456" d="M103.543,198.9H87.124a1.539,1.539,0,1,0,0,3.079h4.716v.47a2.608,2.608,0,0,0,2.607,2.609h1.772a2.608,2.608,0,0,0,2.609-2.609v-.47h4.716a1.539,1.539,0,1,0,0-3.079" transform="translate(-77.769 -157.341)" fill="#12263f"/>
          <path id="Trazado_103457" data-name="Trazado 103457" d="M108.657,174.156a17.062,17.062,0,0,0-28.291,10.433,16.936,16.936,0,0,0,5.34,14.812c2.162,2,3.044,3.728,3.044,5.976v.565a1.346,1.346,0,0,0,1.344,1.346h14.367a1.346,1.346,0,0,0,1.344-1.346v-.58c0-2.239.88-3.964,3.038-5.954a17.056,17.056,0,0,0-.187-25.252M95.522,197.53l-5.74-5.74,2.664-2.911,2.87,2.87,9.636-9.636,2.994,2.993Z" transform="translate(-80.215 -169.81)" fill="#12263f"/>
        </g>
      </g>
    </g>
  </g>
</svg>
