<svg id="Grupo_879131" data-name="Grupo 879131" xmlns="http://www.w3.org/2000/svg" xmlns:xlink="http://www.w3.org/1999/xlink" width="112" height="112" viewBox="0 0 112 112">
  <defs>
    <clipPath id="clip-path">
      <rect id="Rectángulo_7520" data-name="Rectángulo 7520" width="112" height="112" transform="translate(0 0)" fill="none"/>
    </clipPath>
    <clipPath id="clip-path-3">
      <rect id="Rectángulo_7511" data-name="Rectángulo 7511" width="28.788" height="17.229" fill="none"/>
    </clipPath>
    <clipPath id="clip-path-4">
      <rect id="Rectángulo_7512" data-name="Rectángulo 7512" width="25.822" height="41.677" fill="none"/>
    </clipPath>
    <clipPath id="clip-path-5">
      <rect id="Rectángulo_7513" data-name="Rectángulo 7513" width="3.703" height="27.193" fill="none"/>
    </clipPath>
    <clipPath id="clip-path-6">
      <rect id="Rectángulo_7514" data-name="Rectángulo 7514" width="6.063" height="29.429" fill="none"/>
    </clipPath>
    <clipPath id="clip-path-7">
      <rect id="Rectángulo_7515" data-name="Rectángulo 7515" width="32.662" height="19.543" fill="none"/>
    </clipPath>
    <clipPath id="clip-path-8">
      <rect id="Rectángulo_7516" data-name="Rectángulo 7516" width="32.424" height="54.611" fill="none"/>
    </clipPath>
    <clipPath id="clip-path-9">
      <rect id="Rectángulo_7517" data-name="Rectángulo 7517" width="13.501" height="45.691" fill="none"/>
    </clipPath>
    <clipPath id="clip-path-10">
      <rect id="Rectángulo_7518" data-name="Rectángulo 7518" width="13.475" height="24.065" fill="none"/>
    </clipPath>
  </defs>
  <g id="Grupo_60543" data-name="Grupo 60543" transform="translate(0 0)" clip-path="url(#clip-path)">
    <g id="Grupo_60542" data-name="Grupo 60542" transform="translate(0 -0.001)">
      <g id="Grupo_60541" data-name="Grupo 60541" clip-path="url(#clip-path)">
        <path id="Trazado_109236" data-name="Trazado 109236" d="M111.862,55.931A55.931,55.931,0,1,1,55.933,0a55.933,55.933,0,0,1,55.929,55.931" transform="translate(0 0.001)" fill="#fff"/>
        <g id="Grupo_60519" data-name="Grupo 60519" transform="translate(57.709 48.866)" opacity="0.3">
          <g id="Grupo_60518" data-name="Grupo 60518">
            <g id="Grupo_60517" data-name="Grupo 60517" clip-path="url(#clip-path-3)">
              <path id="Trazado_109237" data-name="Trazado 109237" d="M39.874,38.807A20.216,20.216,0,0,1,29.856,36.4c-2.815-1.615-4.373-3.832-4.373-6.207s1.558-4.581,4.373-6.216a20.533,20.533,0,0,1,10.019-2.4A20.383,20.383,0,0,1,49.9,23.988c2.815,1.621,4.371,3.825,4.371,6.2S52.715,34.783,49.9,36.4a20.249,20.249,0,0,1-10.025,2.41" transform="translate(-25.484 -21.578)" fill="#0d0d0d"/>
            </g>
          </g>
        </g>
        <g id="Grupo_60522" data-name="Grupo 60522" transform="translate(59.258 23.043)" opacity="0.7">
          <g id="Grupo_60521" data-name="Grupo 60521">
            <g id="Grupo_60520" data-name="Grupo 60520" clip-path="url(#clip-path-4)">
              <path id="Trazado_109238" data-name="Trazado 109238" d="M26.167,16.527l2.874-3.757,4.126-1.855,5.1-.741h3.755l3.152,1.207,2.736.972,2.874,2.364,1.2,2.643V44.981l-2.6,3.859-4.674,2.412-5.052.6-4.821-.333L31.5,50.693,28.81,48.978l-1.624-1.669-1.019-2.328Z" transform="translate(-26.167 -10.175)" fill="#659ec9"/>
            </g>
          </g>
        </g>
        <path id="Trazado_109239" data-name="Trazado 109239" d="M38.022,40.937a15.843,15.843,0,0,1-7.706-1.832c-2.169-1.252-3.367-2.958-3.367-4.79V17.322H49.1V34.315c0,1.832-1.2,3.537-3.363,4.79a15.86,15.86,0,0,1-7.715,1.832" transform="translate(34.078 21.906)" fill="#295e87"/>
        <path id="Trazado_109240" data-name="Trazado 109240" d="M38.022,27.661A15.608,15.608,0,0,1,30.315,25.8c-2.169-1.239-3.367-2.942-3.367-4.778s1.2-3.533,3.367-4.767a15.537,15.537,0,0,1,7.706-1.864,15.523,15.523,0,0,1,7.715,1.864C47.9,17.491,49.1,19.192,49.1,21.024s-1.2,3.54-3.363,4.778a15.6,15.6,0,0,1-7.715,1.859" transform="translate(34.078 18.202)" fill="#659ec9"/>
        <g id="Grupo_60525" data-name="Grupo 60525" transform="translate(63.745 36.695)" opacity="0.2">
          <g id="Grupo_60524" data-name="Grupo 60524">
            <g id="Grupo_60523" data-name="Grupo 60523" clip-path="url(#clip-path-5)">
              <path id="Trazado_109241" data-name="Trazado 109241" d="M31.851,43.4l-3.7-1.411V16.2l3.7,1.042Z" transform="translate(-28.148 -16.204)" fill="#fff"/>
            </g>
          </g>
        </g>
        <g id="Grupo_60528" data-name="Grupo 60528" transform="translate(76.412 34.958)" opacity="0.2">
          <g id="Grupo_60527" data-name="Grupo 60527">
            <g id="Grupo_60526" data-name="Grupo 60526" clip-path="url(#clip-path-6)">
              <path id="Trazado_109242" data-name="Trazado 109242" d="M33.742,44.865,39.8,42.016V15.437l-6.062,2.779Z" transform="translate(-33.742 -15.436)" fill="#0d0d0d"/>
            </g>
          </g>
        </g>
        <path id="Trazado_109243" data-name="Trazado 109243" d="M52.941,17.958c0-2.231-1.465-4.3-4.1-5.825A19.2,19.2,0,0,0,39.4,9.871a19.133,19.133,0,0,0-9.43,2.262c-2.643,1.526-4.106,3.594-4.106,5.825V44.671c0,2.233,1.463,4.307,4.106,5.847a19.411,19.411,0,0,0,9.43,2.253,19.326,19.326,0,0,0,9.432-2.253c2.647-1.54,4.112-3.614,4.112-5.847Zm-25.712,0c0-1.719,1.218-3.367,3.422-4.64A17.752,17.752,0,0,1,39.4,11.237a17.693,17.693,0,0,1,8.748,2.081c2.217,1.273,3.422,2.921,3.422,4.64,0,1.739-1.2,3.4-3.422,4.663A17.718,17.718,0,0,1,39.4,24.7a17.777,17.777,0,0,1-8.746-2.083c-2.2-1.266-3.422-2.924-3.422-4.645ZM51.566,44.671c0,1.721-1.2,3.379-3.422,4.656-4.826,2.781-12.668,2.781-17.494,0-2.2-1.277-3.422-2.935-3.422-4.656V21.545a9.8,9.8,0,0,0,2.738,2.265,19.27,19.27,0,0,0,9.43,2.267,19.247,19.247,0,0,0,9.432-2.267,9.512,9.512,0,0,0,2.738-2.265Z" transform="translate(32.704 12.484)" fill="#517fa2"/>
        <g id="Grupo_60531" data-name="Grupo 60531" transform="translate(22.836 64.384)" opacity="0.3">
          <g id="Grupo_60530" data-name="Grupo 60530">
            <g id="Grupo_60529" data-name="Grupo 60529" clip-path="url(#clip-path-7)">
              <path id="Trazado_109244" data-name="Trazado 109244" d="M15.043,45.247c-3.2-1.848-4.959-4.337-4.959-7.041s1.757-5.213,4.959-7.066A23.251,23.251,0,0,1,26.414,28.43,23.3,23.3,0,0,1,37.8,31.141c3.189,1.852,4.946,4.371,4.946,7.066S40.987,43.4,37.8,45.247a23.178,23.178,0,0,1-11.384,2.727,23.131,23.131,0,0,1-11.371-2.727" transform="translate(-10.084 -28.43)" fill="#0d0d0d"/>
            </g>
          </g>
        </g>
        <g id="Grupo_60534" data-name="Grupo 60534" transform="translate(22.56 24.551)" opacity="0.7">
          <g id="Grupo_60533" data-name="Grupo 60533">
            <g id="Grupo_60532" data-name="Grupo 60532" clip-path="url(#clip-path-8)">
              <path id="Trazado_109245" data-name="Trazado 109245" d="M19.922,34.266V17.608l2.317-6.767H30.11l2.308,6.767V34.266a16.208,16.208,0,1,1-12.5,0" transform="translate(-9.962 -10.841)" fill="#659ec9"/>
            </g>
          </g>
        </g>
        <path id="Trazado_109246" data-name="Trazado 109246" d="M38.141,27.792a13.488,13.488,0,0,1-26.976,0Z" transform="translate(14.119 35.146)" fill="#4fbeff"/>
        <path id="Trazado_109247" data-name="Trazado 109247" d="M15.129,37.621c5.263,3.026,13.782,3.026,19.043,0s5.263-7.958,0-11c-5.261-3.019-13.78-3.019-19.043,0-5.263,3.041-5.263,7.98,0,11" transform="translate(14.141 30.804)" fill="#8dd5ff"/>
        <g id="Grupo_60537" data-name="Grupo 60537" transform="translate(25.283 30.727)" opacity="0.2">
          <g id="Grupo_60536" data-name="Grupo 60536">
            <g id="Grupo_60535" data-name="Grupo 60535" clip-path="url(#clip-path-9)">
              <path id="Trazado_109248" data-name="Trazado 109248" d="M24.156,13.568V33.576s-9.55,4.658-9.55,13.325c0,7.926,4.026,10.607,10.059,12.358-7.946,0-13.5-5.779-13.5-13.723,0-6.1,4.5-10.229,10.24-12.263l.931-.313V13.568Z" transform="translate(-11.165 -13.568)" fill="#fff"/>
            </g>
          </g>
        </g>
        <path id="Trazado_109249" data-name="Trazado 109249" d="M20.08,30.765V12.75h2.45v18.9L21.54,32a15.532,15.532,0,1,0,10.3,0l-.987-.346V12.75h2.434V30.765a17.126,17.126,0,1,1-13.2,0" transform="translate(12.084 16.124)" fill="#517fa2"/>
        <path id="Trazado_109250" data-name="Trazado 109250" d="M15.888,18.064a12.969,12.969,0,0,0,11.78,0c3.241-1.861,3.241-4.9,0-6.789a13.052,13.052,0,0,0-11.78,0c-3.256,1.891-3.256,4.928,0,6.789m3-6.649a6.419,6.419,0,0,1,5.815,0c1.61.931,1.61,2.419,0,3.363a6.562,6.562,0,0,1-5.815,0c-1.6-.944-1.6-2.432,0-3.363" transform="translate(17.003 12.482)" fill="#659ec9"/>
        <g id="Grupo_60540" data-name="Grupo 60540" transform="translate(38.784 52.352)" opacity="0.3">
          <g id="Grupo_60539" data-name="Grupo 60539">
            <g id="Grupo_60538" data-name="Grupo 60538" clip-path="url(#clip-path-10)">
              <path id="Trazado_109251" data-name="Trazado 109251" d="M24.935,23.916C27.752,26,30.6,29.154,30.6,33.457c0,7.944-5.546,13.726-13.474,13.726,6-1.751,10.034-4.434,10.034-12.358,0-4.613-2.693-8.082-5.222-10.313-1.092-.969.741-2.253,3-.6" transform="translate(-17.126 -23.118)"/>
            </g>
          </g>
        </g>
        <path id="Trazado_109252" data-name="Trazado 109252" d="M22.764,14a4.409,4.409,0,0,0-.428-.288,6.336,6.336,0,0,0-5.815,0,3.037,3.037,0,0,0-.426.288c-1.155-.933-1.035-2.237.426-3.059a6.419,6.419,0,0,1,5.815,0c1.454.822,1.59,2.126.428,3.059" transform="translate(19.369 12.956)" fill="#295e87"/>
      </g>
    </g>
  </g>
</svg>
