<svg xmlns="http://www.w3.org/2000/svg" xmlns:xlink="http://www.w3.org/1999/xlink" width="71.122" height="72.708" viewBox="0 0 71.122 72.708">
  <defs>
    <clipPath id="clip-path">
      <rect id="Rectángulo_7418" data-name="Rectángulo 7418" width="71.122" height="72.708" fill="none"/>
    </clipPath>
  </defs>
  <g id="Grupo_60378" data-name="Grupo 60378" clip-path="url(#clip-path)">
    <path id="Trazado_109076" data-name="Trazado 109076" d="M24.292,14.764a7.23,7.23,0,0,1-7.046-7.356A7.224,7.224,0,0,1,24.264,0a7.233,7.233,0,0,1,7.072,7.355,7.228,7.228,0,0,1-7.016,7.409Zm0-12.395A4.861,4.861,0,0,0,19.617,7.4a4.857,4.857,0,0,0,4.674,4.994,4.86,4.86,0,0,0,4.674-5.03A4.861,4.861,0,0,0,24.29,2.369" transform="translate(11.27 -0.001)"/>
    <path id="Trazado_109077" data-name="Trazado 109077" d="M22.138,46.417a1.186,1.186,0,0,1-1.186-1.181l-.079-18.121a1.185,1.185,0,1,1,2.369-.01l.081,18.121a1.187,1.187,0,0,1-1.181,1.191Z" transform="translate(13.641 16.941)"/>
    <path id="Trazado_109078" data-name="Trazado 109078" d="M26.028,59.253a1.184,1.184,0,0,1-1.184-1.181l-.146-35.6c-10.313-1.715-16.4-4.627-19.138-9.129A4.533,4.533,0,0,1,6.92,7.224a4.665,4.665,0,0,1,5.812.658c5.26,5.136,10.4,5.448,12.368,5.346.7-.038,1.4-.071,2.1-.073l10.382-.04c.7,0,1.4.025,2.1.058,1.968.084,7.105-.261,12.329-5.437a4.661,4.661,0,0,1,5.807-.7,4.529,4.529,0,0,1,1.4,6.111c-2.7,4.526-8.77,7.482-19.067,9.273l.144,35.6A1.186,1.186,0,0,1,39.127,59.2l-13.094.05ZM9.367,8.859a2.007,2.007,0,0,0-1.128.334,2.165,2.165,0,0,0-.651,2.925c2.394,3.949,8.438,6.624,18.473,8.178a1.186,1.186,0,0,1,1,1.166l.144,35.417,10.725-.04-.144-35.417a1.183,1.183,0,0,1,1-1.174c10.022-1.629,16.044-4.349,18.41-8.316a2.164,2.164,0,0,0-.673-2.92,2.288,2.288,0,0,0-2.834.407c-5.89,5.835-11.829,6.225-14.1,6.12-.661-.03-1.318-.053-1.988-.053l-10.382.038c-.663,0-1.324.035-1.988.069-2.275.124-8.22-.225-14.151-6.015a2.464,2.464,0,0,0-1.708-.719" transform="translate(3.203 4.13)"/>
    <path id="Trazado_109079" data-name="Trazado 109079" d="M37.346,18.767a1.186,1.186,0,0,1-1.186-1.186V11.063a1.186,1.186,0,0,1,2.371,0v6.518a1.186,1.186,0,0,1-1.186,1.186" transform="translate(23.631 6.455)"/>
    <path id="Trazado_109080" data-name="Trazado 109080" d="M44.392,30.714H34.29a1.184,1.184,0,0,1-1.119-1.572l5.05-14.574a1.186,1.186,0,0,1,2.241,0l5.05,14.574a1.184,1.184,0,0,1-1.119,1.572m-8.436-2.369h6.771L39.34,18.575Z" transform="translate(21.635 8.998)"/>
    <path id="Trazado_109081" data-name="Trazado 109081" d="M47.848,30.832H33.926a3.19,3.19,0,0,1-3.185-3.186V25.769a3.188,3.188,0,0,1,3.185-3.185H47.848a3.19,3.19,0,0,1,3.186,3.185v1.877a3.191,3.191,0,0,1-3.186,3.186M33.926,24.953a.816.816,0,0,0-.815.815v1.877a.816.816,0,0,0,.815.815H47.848a.816.816,0,0,0,.815-.815V25.769a.816.816,0,0,0-.815-.815Z" transform="translate(20.09 14.758)"/>
    <path id="Trazado_109082" data-name="Trazado 109082" d="M42.96,32.608H37.232a5.289,5.289,0,0,1-5.281-5.285,1.184,1.184,0,0,1,1.184-1.184H47.057a1.185,1.185,0,0,1,1.186,1.184,5.29,5.29,0,0,1-5.283,5.285m-8.388-4.1a2.918,2.918,0,0,0,2.66,1.728H42.96a2.918,2.918,0,0,0,2.66-1.728Z" transform="translate(20.88 17.081)"/>
    <path id="Trazado_109083" data-name="Trazado 109083" d="M6.606,18.767A1.186,1.186,0,0,1,5.42,17.581V11.063a1.186,1.186,0,0,1,2.371,0v6.518a1.186,1.186,0,0,1-1.186,1.186" transform="translate(3.542 6.455)"/>
    <path id="Trazado_109084" data-name="Trazado 109084" d="M13.652,30.714H3.55a1.184,1.184,0,0,1-1.119-1.572l5.05-14.574a1.186,1.186,0,0,1,2.241,0l5.05,14.574a1.184,1.184,0,0,1-1.119,1.572M5.215,28.344h6.771L8.6,18.575Z" transform="translate(1.546 8.998)"/>
    <path id="Trazado_109085" data-name="Trazado 109085" d="M17.109,30.832H3.186A3.191,3.191,0,0,1,0,27.645V25.769a3.19,3.19,0,0,1,3.186-3.185H17.109a3.188,3.188,0,0,1,3.185,3.185v1.877a3.19,3.19,0,0,1-3.185,3.186M3.186,24.953a.816.816,0,0,0-.815.815v1.877a.816.816,0,0,0,.815.815H17.109a.816.816,0,0,0,.815-.815V25.769a.816.816,0,0,0-.815-.815Z" transform="translate(0 14.758)"/>
    <path id="Trazado_109086" data-name="Trazado 109086" d="M12.219,32.608H6.493A5.29,5.29,0,0,1,1.21,27.323a1.185,1.185,0,0,1,1.184-1.184H16.316A1.185,1.185,0,0,1,17.5,27.323a5.291,5.291,0,0,1-5.283,5.285m-8.387-4.1a2.914,2.914,0,0,0,2.66,1.728h5.726a2.918,2.918,0,0,0,2.66-1.728Z" transform="translate(0.791 17.081)"/>
    <path id="Trazado_109087" data-name="Trazado 109087" d="M55.768,48.6H7.446A1.185,1.185,0,0,1,6.26,47.42v-.9a4.613,4.613,0,0,1,4.608-4.607h6.907a5.546,5.546,0,0,1,5.514-5.033H39.925a5.547,5.547,0,0,1,5.514,5.033h6.907a4.611,4.611,0,0,1,4.607,4.607v.9A1.185,1.185,0,0,1,55.768,48.6M8.649,46.235H54.566a2.24,2.24,0,0,0-2.219-1.946H44.278A1.184,1.184,0,0,1,43.092,43.1v-.681a3.17,3.17,0,0,0-3.166-3.166H23.29a3.17,3.17,0,0,0-3.166,3.166V43.1a1.186,1.186,0,0,1-1.186,1.186H10.868a2.239,2.239,0,0,0-2.219,1.946" transform="translate(4.091 24.103)"/>
    <path id="Trazado_109088" data-name="Trazado 109088" d="M68.209,44.909H2.054a1.185,1.185,0,1,1,0-2.369H68.209a1.185,1.185,0,1,1,0,2.369" transform="translate(0.567 27.799)"/>
    <path id="Trazado_109089" data-name="Trazado 109089" d="M34.522,42.3H14.4a1.185,1.185,0,1,1,0-2.369H34.522a1.185,1.185,0,1,1,0,2.369" transform="translate(8.633 26.093)"/>
    <path id="Trazado_109090" data-name="Trazado 109090" d="M39.152,14.249c-.035,0-.071,0-.107,0-4.792-.432-6.138-5.218-6.194-5.424A1.186,1.186,0,0,1,35.139,8.2c.041.149.992,3.4,4.119,3.684a1.186,1.186,0,0,1-.106,2.366" transform="translate(21.441 4.787)"/>
    <path id="Trazado_109091" data-name="Trazado 109091" d="M6.871,14.248a1.186,1.186,0,0,1-.106-2.366C9.9,11.6,10.846,8.337,10.884,8.2a1.185,1.185,0,0,1,2.287.622c-.055.205-1.4,4.992-6.192,5.424-.036,0-.073,0-.107,0" transform="translate(3.717 4.788)"/>
  </g>
</svg>
