<svg id="Grupo_60381" data-name="Grupo 60381" xmlns="http://www.w3.org/2000/svg" xmlns:xlink="http://www.w3.org/1999/xlink" width="56.456" height="58.708" viewBox="0 0 56.456 58.708">
  <defs>
    <clipPath id="clip-path">
      <rect id="Rectángulo_7419" data-name="Rectángulo 7419" width="56.456" height="58.708" fill="none"/>
    </clipPath>
  </defs>
  <g id="Grupo_60380" data-name="Grupo 60380" transform="translate(0 0)" clip-path="url(#clip-path)">
    <path id="Trazado_109092" data-name="Trazado 109092" d="M5.138,54.664H.985A.985.985,0,0,1,0,53.679V.987A.986.986,0,0,1,.985,0h39.75a.987.987,0,0,1,.987.987V5.031a.987.987,0,0,1-.987.987H6.125V53.679a.987.987,0,0,1-.987.985M1.972,52.692h2.18V5.031a.987.987,0,0,1,.985-.987H39.749V1.972H1.972Z" transform="translate(0 -0.001)"/>
    <path id="Trazado_109093" data-name="Trazado 109093" d="M54.334,57.6H4a.987.987,0,0,1-.987-.987V3.923A.987.987,0,0,1,4,2.938H43.753a.987.987,0,0,1,.987.985V20.349a.986.986,0,1,1-1.972,0V4.91H4.989V55.63H54.334a.986.986,0,1,1,0,1.972" transform="translate(1.135 1.105)"/>
    <path id="Trazado_109094" data-name="Trazado 109094" d="M28.557,10.2H11.025a.986.986,0,1,1,0-1.972H28.557a.986.986,0,1,1,0,1.972" transform="translate(3.778 3.096)"/>
    <path id="Trazado_109095" data-name="Trazado 109095" d="M35.951,14.621H8.607a.986.986,0,1,1,0-1.972H35.951a.986.986,0,1,1,0,1.972" transform="translate(2.868 4.76)"/>
    <path id="Trazado_109096" data-name="Trazado 109096" d="M28.06,19.043H8.607a.986.986,0,1,1,0-1.972H28.06a.986.986,0,1,1,0,1.972" transform="translate(2.868 6.424)"/>
    <path id="Trazado_109097" data-name="Trazado 109097" d="M18.591,23.465H8.607a.986.986,0,1,1,0-1.972h9.984a.986.986,0,1,1,0,1.972" transform="translate(2.868 8.088)"/>
    <path id="Trazado_109098" data-name="Trazado 109098" d="M33.716,52.341a1,1,0,0,1-.336-.059c-.153-.056-15.181-5.753-15.434-26.021a.989.989,0,0,1,.491-.864l14.785-8.59a.993.993,0,0,1,.99,0L48.994,25.4a.983.983,0,0,1,.491.864c-.253,20.268-15.279,25.965-15.432,26.021a1.024,1.024,0,0,1-.337.059M19.932,26.809c.458,16.819,11.7,22.558,13.791,23.479,2.161-.924,13.323-6.509,13.777-23.479L33.716,18.8Z" transform="translate(6.754 6.275)"/>
    <path id="Trazado_109099" data-name="Trazado 109099" d="M29.674,52.341a.987.987,0,0,1-.987-.987V17.66a.987.987,0,0,1,1.974,0V51.354a.987.987,0,0,1-.987.987" transform="translate(10.796 6.274)"/>
    <path id="Trazado_109100" data-name="Trazado 109100" d="M9.977,36.5a1.652,1.652,0,0,1-1.032-.3c-1.225-.888-.892-2.722-.767-3.413.1-.555.681-3.313,2.5-3.285a3.262,3.262,0,0,1,2.12.892,1.872,1.872,0,0,1,.564,1.365,1.019,1.019,0,0,1-1.007.963.986.986,0,0,1-.965-.948,1.379,1.379,0,0,0-.622-.29,3.979,3.979,0,0,0-.647,1.653,3.025,3.025,0,0,0-.051,1.389,7.712,7.712,0,0,0,1.679-.407,9.078,9.078,0,0,0,2.669-1.09,4.546,4.546,0,0,0,1.291-1.963c.248-.607.577-1.4,1.507-1.42,1.211.023,1.719,1.482,2.186,4a.986.986,0,0,1-1.938.361c-.107-.568-.205-1.014-.295-1.361a5.692,5.692,0,0,1-1.5,1.916A9.974,9.974,0,0,1,12.357,36a8.263,8.263,0,0,1-2.38.505" transform="translate(3.026 11.104)"/>
    <path id="Trazado_109101" data-name="Trazado 109101" d="M18.432,38.242H9.03a.986.986,0,1,1,0-1.972h9.4a.986.986,0,1,1,0,1.972" transform="translate(3.027 13.65)"/>
  </g>
</svg>
