<svg id="Grupo_879137" data-name="Grupo 879137" xmlns="http://www.w3.org/2000/svg" xmlns:xlink="http://www.w3.org/1999/xlink" width="112" height="112" viewBox="0 0 112 112">
  <defs>
    <clipPath id="clip-path">
      <rect id="Rectángulo_7510" data-name="Rectángulo 7510" width="112" height="112" fill="none"/>
    </clipPath>
    <clipPath id="clip-path-3">
      <rect id="Rectángulo_7507" data-name="Rectángulo 7507" width="47.417" height="27.364" fill="none"/>
    </clipPath>
    <clipPath id="clip-path-4">
      <rect id="Rectángulo_7508" data-name="Rectángulo 7508" width="43.81" height="25.281" fill="none"/>
    </clipPath>
  </defs>
  <g id="Grupo_60514" data-name="Grupo 60514" clip-path="url(#clip-path)">
    <g id="Grupo_60513" data-name="Grupo 60513" transform="translate(0 -0.001)">
      <g id="Grupo_60512" data-name="Grupo 60512" transform="translate(0 0)" clip-path="url(#clip-path)">
        <path id="Trazado_109144" data-name="Trazado 109144" d="M112.021,56.01A56.01,56.01,0,1,1,56.01,0a56.013,56.013,0,0,1,56.01,56.01" transform="translate(0 0.001)" fill="#fff"/>
        <g id="Grupo_60508" data-name="Grupo 60508" transform="translate(34.829 65.303)" opacity="0.3">
          <g id="Grupo_60507" data-name="Grupo 60507">
            <g id="Grupo_60506" data-name="Grupo 60506" clip-path="url(#clip-path-3)">
              <path id="Trazado_109145" data-name="Trazado 109145" d="M52.6,56.159,15.358,34.665,25.531,28.8,62.775,50.288Z" transform="translate(-15.358 -28.795)"/>
            </g>
          </g>
        </g>
        <path id="Trazado_109146" data-name="Trazado 109146" d="M18.687,21.66a6.211,6.211,0,0,1-3.923-5.171,4.493,4.493,0,0,1,1.649-4.363c.941-.624,2.637-1.041,5.357.506l-.42.746c-1.855-1.055-3.4-1.24-4.463-.537a3.667,3.667,0,0,0-1.272,3.551,5.354,5.354,0,0,0,3.372,4.465Z" transform="translate(18.664 14.662)" fill="#517fa2"/>
        <path id="Trazado_109147" data-name="Trazado 109147" d="M14.309,19.032l-.3.528a1.867,1.867,0,0,1-.506.875l-.3.528L9.678,18.932a.554.554,0,0,1-.229-.51,1.737,1.737,0,0,1,.787-1.365A.549.549,0,0,1,10.792,17Z" transform="translate(11.979 21.49)" fill="#a6a6a6"/>
        <path id="Trazado_109148" data-name="Trazado 109148" d="M11.787,17.953A1.742,1.742,0,0,0,11,19.318c0,.5.354.705.789.456a1.74,1.74,0,0,0,.789-1.365c0-.5-.352-.708-.789-.456" transform="translate(13.943 22.625)" fill="#575757"/>
        <path id="Trazado_109149" data-name="Trazado 109149" d="M11.639,18.066a1.168,1.168,0,0,0-.524.912c0,.336.236.472.524.3a1.167,1.167,0,0,0,.528-.912c0-.336-.236-.472-.528-.3" transform="translate(14.092 22.814)" fill="gray"/>
        <path id="Trazado_109150" data-name="Trazado 109150" d="M11.559,18.133v.014a.786.786,0,0,1-.356.617l-.014.007c.009.215.163.3.356.19a.785.785,0,0,0,.356-.615c0-.222-.154-.315-.342-.213" transform="translate(14.185 22.938)" fill="#575757"/>
        <path id="Trazado_109151" data-name="Trazado 109151" d="M11.559,18.11l-.014.007a.794.794,0,0,0-.356.617v.014l.014-.007a.786.786,0,0,0,.356-.617Z" transform="translate(14.185 22.961)"/>
        <path id="Trazado_109152" data-name="Trazado 109152" d="M11.8,16.907h-.5a1.518,1.518,0,0,0-.83,0h-.5v1.4a.448.448,0,0,0,.265.372,1.427,1.427,0,0,0,1.293,0A.453.453,0,0,0,11.8,18.3Z" transform="translate(12.644 21.363)" fill="gray"/>
        <path id="Trazado_109153" data-name="Trazado 109153" d="M11.533,17.544a1.427,1.427,0,0,1-1.293,0,.393.393,0,0,1,0-.746,1.427,1.427,0,0,1,1.293,0,.394.394,0,0,1,0,.746" transform="translate(12.642 21.1)" fill="#a6a6a6"/>
        <path id="Trazado_109154" data-name="Trazado 109154" d="M11.183,17.341a1,1,0,0,1-.9,0,.275.275,0,0,1,0-.522,1,1,0,0,1,.9,0,.275.275,0,0,1,0,.522" transform="translate(12.797 21.189)" fill="gray"/>
        <path id="Trazado_109155" data-name="Trazado 109155" d="M10.932,17.184l-.011,0a.668.668,0,0,0-.608,0l-.014,0c-.156-.1-.154-.249.014-.345a.668.668,0,0,1,.608,0c.166.1.17.247.011.345" transform="translate(12.912 21.256)" fill="#575757"/>
        <path id="Trazado_109156" data-name="Trazado 109156" d="M10.868,16.993,10.856,17a.668.668,0,0,1-.608,0l-.014-.007.014,0a.668.668,0,0,1,.608,0l.011,0" transform="translate(12.976 21.447)"/>
        <path id="Trazado_109157" data-name="Trazado 109157" d="M15.056,10.235c-4.313,2.93-4.871,10.4-4.871,16.58v0a.208.208,0,0,0,.113.17l.014.007a.668.668,0,0,0,.608,0l.011-.007a.212.212,0,0,0,.116-.17v0c0-5.971.508-13.167,4.49-15.875,2.082-1.413,4.978-1.4,8.6.032l.315-.8c-3.905-1.547-7.066-1.526-9.4.059" transform="translate(12.913 11.45)" fill="#517fa2"/>
        <path id="Trazado_109158" data-name="Trazado 109158" d="M30.608,20.419H27.093a10.776,10.776,0,0,0-5.84,0H17.736V46a3.2,3.2,0,0,0,1.887,2.626,10.05,10.05,0,0,0,9.1,0A3.2,3.2,0,0,0,30.608,46Z" transform="translate(22.486 25.377)" fill="#dae5f8"/>
        <path id="Trazado_109159" data-name="Trazado 109159" d="M27.234,25.92a10.194,10.194,0,0,1-8.543,0v7.42a10.186,10.186,0,0,0,8.543,0Z" transform="translate(23.697 32.86)" fill="#b2c4da"/>
        <path id="Trazado_109160" data-name="Trazado 109160" d="M24.392,28.01a10.542,10.542,0,0,1-4.259.467v2.168a10.542,10.542,0,0,0,4.259-.465Z" transform="translate(25.525 35.512)" fill="#68e38b"/>
        <path id="Trazado_109161" data-name="Trazado 109161" d="M27.093,20.418a10.812,10.812,0,0,0-5.837,0h-3.52v3.1A5.156,5.156,0,0,0,19.092,24.6a11.227,11.227,0,0,0,10.164,0,5.167,5.167,0,0,0,1.352-1.091v-3.1Z" transform="translate(22.486 25.378)" fill="#b4caed"/>
        <path id="Trazado_109162" data-name="Trazado 109162" d="M28.72,24.9a10.057,10.057,0,0,1-9.1,0c-2.513-1.451-2.513-3.8,0-5.255a10.064,10.064,0,0,1,9.1,0c2.513,1.451,2.513,3.8,0,5.255" transform="translate(22.487 23.527)" fill="#659ec9"/>
        <path id="Trazado_109163" data-name="Trazado 109163" d="M23.433,47.645l-.286.156-.125-.395-.159-.091V22.027l-.283-.558.283-.159.569.329Z" transform="translate(28.627 27.019)" fill="#b4caed"/>
        <path id="Trazado_109164" data-name="Trazado 109164" d="M23.394,47.712l-1.007-.583.438-.231V21.381l.569.329Z" transform="translate(28.382 27.107)" fill="#fff"/>
        <path id="Trazado_109165" data-name="Trazado 109165" d="M18.192,47.645l.286.156.127-.395.156-.091V22.027l.283-.558-.283-.159-.569.329Z" transform="translate(23.064 27.019)" fill="#fff"/>
        <path id="Trazado_109166" data-name="Trazado 109166" d="M18.317,47.712l1.007-.583-.438-.231V21.381l-.569.329Z" transform="translate(23.223 27.107)" fill="#b4caed"/>
        <path id="Trazado_109167" data-name="Trazado 109167" d="M31.781,18.33H27.853a12.058,12.058,0,0,0-6.52,0H17.4V23.5a3.571,3.571,0,0,0,2.107,2.935,11.227,11.227,0,0,0,10.164,0,3.572,3.572,0,0,0,2.1-2.935Z" transform="translate(22.066 22.67)" fill="#dae5f8"/>
        <path id="Trazado_109168" data-name="Trazado 109168" d="M31.781,18.633H17.4v.211a3.571,3.571,0,0,0,2.107,2.935,11.227,11.227,0,0,0,10.164,0,3.572,3.572,0,0,0,2.1-2.935Z" transform="translate(22.066 23.624)" fill="#b4caed"/>
        <path id="Trazado_109169" data-name="Trazado 109169" d="M29.677,23.333a11.232,11.232,0,0,1-10.167,0c-2.808-1.619-2.808-4.248,0-5.869a11.246,11.246,0,0,1,10.167,0c2.805,1.621,2.805,4.25,0,5.869" transform="translate(22.066 20.602)" fill="#fff"/>
        <path id="Trazado_109170" data-name="Trazado 109170" d="M35.582,23.3H32.066a10.812,10.812,0,0,0-5.837,0H22.714V48.876A3.2,3.2,0,0,0,24.6,51.5a10.05,10.05,0,0,0,9.1,0,3.19,3.19,0,0,0,1.885-2.626Z" transform="translate(28.797 29.026)" fill="#dae5f8"/>
        <path id="Trazado_109171" data-name="Trazado 109171" d="M32.21,28.795a10.186,10.186,0,0,1-8.543,0v7.418a10.186,10.186,0,0,0,8.543,0Z" transform="translate(30.005 36.507)" fill="#b2c4da"/>
        <path id="Trazado_109172" data-name="Trazado 109172" d="M29.371,30.887a10.559,10.559,0,0,1-4.263.465v2.17a10.559,10.559,0,0,0,4.263-.465Z" transform="translate(31.832 39.159)" fill="#ffc654"/>
        <path id="Trazado_109173" data-name="Trazado 109173" d="M32.065,23.3a10.753,10.753,0,0,0-5.837,0H22.713v3.1a5.175,5.175,0,0,0,1.352,1.091,11.227,11.227,0,0,0,10.164,0,5.178,5.178,0,0,0,1.352-1.089V23.3Z" transform="translate(28.796 29.025)" fill="#b4caed"/>
        <path id="Trazado_109174" data-name="Trazado 109174" d="M33.7,27.774a10.05,10.05,0,0,1-9.1,0c-2.513-1.449-2.513-3.8,0-5.252a10.05,10.05,0,0,1,9.1,0c2.513,1.449,2.513,3.8,0,5.252" transform="translate(28.797 27.174)" fill="#659ec9"/>
        <path id="Trazado_109175" data-name="Trazado 109175" d="M28.41,50.519l-.283.156-.132-.395-.154-.091V24.9l-.283-.56.283-.156.569.327Z" transform="translate(34.937 30.666)" fill="#b4caed"/>
        <path id="Trazado_109176" data-name="Trazado 109176" d="M28.372,50.588l-1.009-.583.44-.231V24.257l.569.329Z" transform="translate(34.691 30.753)" fill="#fff"/>
        <path id="Trazado_109177" data-name="Trazado 109177" d="M23.169,50.519l.281.156.127-.395.159-.091V24.9l.283-.56-.283-.156-.567.327Z" transform="translate(29.374 30.666)" fill="#fff"/>
        <path id="Trazado_109178" data-name="Trazado 109178" d="M23.293,50.588l1.007-.583-.438-.231V24.257l-.569.329Z" transform="translate(29.531 30.753)" fill="#b4caed"/>
        <path id="Trazado_109179" data-name="Trazado 109179" d="M36.753,21.206H32.825a12.05,12.05,0,0,0-6.518,0H22.382v5.168a3.573,3.573,0,0,0,2.1,2.935,11.227,11.227,0,0,0,10.164,0,3.576,3.576,0,0,0,2.1-2.935Z" transform="translate(28.376 26.317)" fill="#dae5f8"/>
        <path id="Trazado_109180" data-name="Trazado 109180" d="M36.753,21.509H22.382v.211a3.567,3.567,0,0,0,2.1,2.935,11.227,11.227,0,0,0,10.164,0,3.57,3.57,0,0,0,2.1-2.935Z" transform="translate(28.376 27.27)" fill="#b4caed"/>
        <path id="Trazado_109181" data-name="Trazado 109181" d="M34.651,26.209a11.232,11.232,0,0,1-10.167,0c-2.8-1.619-2.8-4.248,0-5.867a11.232,11.232,0,0,1,10.167,0c2.805,1.619,2.805,4.248,0,5.867" transform="translate(28.376 24.248)" fill="#fff"/>
        <path id="Trazado_109182" data-name="Trazado 109182" d="M40.555,26.166H37.04a10.768,10.768,0,0,0-5.837,0H27.685V51.747a3.2,3.2,0,0,0,1.887,2.626,10.05,10.05,0,0,0,9.1,0,3.2,3.2,0,0,0,1.885-2.626Z" transform="translate(35.099 32.664)" fill="#dae5f8"/>
        <path id="Trazado_109183" data-name="Trazado 109183" d="M37.182,31.666a10.186,10.186,0,0,1-8.543,0v7.418a10.186,10.186,0,0,0,8.543,0Z" transform="translate(36.309 40.147)" fill="#b2c4da"/>
        <path id="Trazado_109184" data-name="Trazado 109184" d="M34.34,33.758a10.538,10.538,0,0,1-4.259.465v2.17a10.538,10.538,0,0,0,4.259-.467Z" transform="translate(38.137 42.799)" fill="#ff8587"/>
        <path id="Trazado_109185" data-name="Trazado 109185" d="M37.04,26.167a10.753,10.753,0,0,0-5.837,0H27.685v3.1a5.15,5.15,0,0,0,1.354,1.091,11.241,11.241,0,0,0,10.164,0,5.129,5.129,0,0,0,1.352-1.091v-3.1Z" transform="translate(35.099 32.663)" fill="#b4caed"/>
        <path id="Trazado_109186" data-name="Trazado 109186" d="M38.669,30.646a10.05,10.05,0,0,1-9.1,0c-2.513-1.451-2.513-3.8,0-5.252a10.036,10.036,0,0,1,9.1,0c2.513,1.449,2.513,3.8,0,5.252" transform="translate(35.1 30.813)" fill="#659ec9"/>
        <path id="Trazado_109187" data-name="Trazado 109187" d="M33.382,53.39l-.283.156-.129-.395-.154-.091V27.775l-.286-.562.286-.154.567.329Z" transform="translate(41.24 34.306)" fill="#b4caed"/>
        <path id="Trazado_109188" data-name="Trazado 109188" d="M33.342,53.46l-1.007-.583.44-.234V27.127l.567.329Z" transform="translate(40.995 34.392)" fill="#fff"/>
        <path id="Trazado_109189" data-name="Trazado 109189" d="M28.14,53.39l.288.156.125-.395.159-.091V27.775l.283-.562-.283-.154-.571.329Z" transform="translate(35.676 34.306)" fill="#fff"/>
        <path id="Trazado_109190" data-name="Trazado 109190" d="M28.266,53.46l1-.583-.438-.234V27.127l-.567.329Z" transform="translate(35.836 34.392)" fill="#b4caed"/>
        <path id="Trazado_109191" data-name="Trazado 109191" d="M41.729,24.077H37.8a12.058,12.058,0,0,0-6.52,0H27.353v5.168A3.576,3.576,0,0,0,29.46,32.18a11.227,11.227,0,0,0,10.164,0,3.573,3.573,0,0,0,2.1-2.935Z" transform="translate(34.678 29.956)" fill="#dae5f8"/>
        <path id="Trazado_109192" data-name="Trazado 109192" d="M41.729,24.379H27.353v.211a3.576,3.576,0,0,0,2.107,2.937,11.234,11.234,0,0,0,10.164,0,3.573,3.573,0,0,0,2.1-2.937Z" transform="translate(34.678 30.909)" fill="#b4caed"/>
        <path id="Trazado_109193" data-name="Trazado 109193" d="M39.624,29.081a11.241,11.241,0,0,1-10.164,0c-2.81-1.619-2.81-4.25,0-5.869a11.227,11.227,0,0,1,10.164,0c2.805,1.619,2.805,4.25,0,5.869" transform="translate(34.678 27.887)" fill="#fff"/>
        <path id="Trazado_109194" data-name="Trazado 109194" d="M52.6,40.572,15.358,19.078l10.173-5.869L62.775,34.7Z" transform="translate(19.471 16.747)" fill="#fff"/>
        <g id="Grupo_60511" data-name="Grupo 60511" transform="translate(36.639 30.991)" opacity="0.1">
          <g id="Grupo_60510" data-name="Grupo 60510">
            <g id="Grupo_60509" data-name="Grupo 60509" clip-path="url(#clip-path-4)">
              <path id="Trazado_109195" data-name="Trazado 109195" d="M22.722,13.665l-6.565,3.79L53.4,38.947l6.563-3.787Z" transform="translate(-16.156 -13.665)"/>
            </g>
          </g>
        </g>
        <path id="Trazado_109196" data-name="Trazado 109196" d="M52.6,41.491,15.358,20V15.8L52.6,37.291Z" transform="translate(19.471 20.028)" fill="#dae5f8"/>
        <path id="Trazado_109197" data-name="Trazado 109197" d="M52.6,41.491,15.358,20V15.8C21.059,25.986,45.13,31.5,52.6,40.1Z" transform="translate(19.471 20.028)" fill="#659ec9"/>
        <path id="Trazado_109198" data-name="Trazado 109198" d="M31.782,32.757l10.171-5.871v-4.2L31.782,28.557Z" transform="translate(40.293 28.762)" fill="#b4caed"/>
        <path id="Trazado_109199" data-name="Trazado 109199" d="M26.21,11.837l-1.6,2.764a9.73,9.73,0,0,1-2.644,4.586l-1.6,2.762-2.921-1.685a2.9,2.9,0,0,1-1.206-2.674,9.131,9.131,0,0,1,4.127-7.15,2.9,2.9,0,0,1,2.919-.288Z" transform="translate(20.593 12.522)" fill="#dae5f8"/>
        <path id="Trazado_109200" data-name="Trazado 109200" d="M21.659,11.184a9.124,9.124,0,0,0-4.13,7.15c0,2.633,1.848,3.7,4.13,2.386a9.134,9.134,0,0,0,4.13-7.153c0-2.633-1.851-3.7-4.13-2.383" transform="translate(22.223 13.464)" fill="#b4caed"/>
        <path id="Trazado_109201" data-name="Trazado 109201" d="M20.994,19.214,19.189,18.18l7.794-4.5,1.807,1.034Z" transform="translate(24.328 17.345)" fill="#fff"/>
        <path id="Trazado_109202" data-name="Trazado 109202" d="M20.994,19.919l-1.805-1.043V15.664L20.994,16.7Z" transform="translate(24.328 19.86)" fill="#dae5f8"/>
        <path id="Trazado_109203" data-name="Trazado 109203" d="M19.985,21.856l7.8-4.5V14.137l-7.8,4.5Z" transform="translate(25.337 17.923)" fill="#b4caed"/>
        <path id="Trazado_109204" data-name="Trazado 109204" d="M28.622,23.62l-1.805-1.034,7.8-4.5,1.8,1.036Z" transform="translate(33.999 22.928)" fill="#fff"/>
        <path id="Trazado_109205" data-name="Trazado 109205" d="M28.622,24.322l-1.805-1.041V20.07L28.622,21.1Z" transform="translate(33.999 25.445)" fill="#dae5f8"/>
        <path id="Trazado_109206" data-name="Trazado 109206" d="M27.613,26.26l7.794-4.5v-3.22l-7.794,4.5Z" transform="translate(35.008 23.507)" fill="#b4caed"/>
        <path id="Trazado_109207" data-name="Trazado 109207" d="M50.033,25.923,48.54,28.506a9.1,9.1,0,0,1-2.474,4.288l-1.49,2.581L18.859,20.53a2.715,2.715,0,0,1-1.129-2.5,8.54,8.54,0,0,1,3.86-6.685,2.715,2.715,0,0,1,2.73-.27Z" transform="translate(22.478 13.719)" fill="#dae5f8"/>
        <path id="Trazado_109208" data-name="Trazado 109208" d="M35.282,21.027a8.742,8.742,0,0,1-.941,2.315,8.925,8.925,0,0,1-1.533,1.973L31.315,27.9,28.329,26.17a4.833,4.833,0,0,1-.141-1.209A9.9,9.9,0,0,1,32.665,17.2a4.874,4.874,0,0,1,1.12-.483l2.989,1.724Z" transform="translate(35.737 21.198)" fill="#b4caed"/>
        <path id="Trazado_109209" data-name="Trazado 109209" d="M32.928,17.894a8.544,8.544,0,0,0-3.858,6.685c0,2.461,1.73,3.458,3.86,2.227a8.53,8.53,0,0,0,3.858-6.683c0-2.463-1.728-3.461-3.86-2.229" transform="translate(36.855 22.018)" fill="#659ec9"/>
        <path id="Trazado_109210" data-name="Trazado 109210" d="M41.258,20.092l-1.733,3a10.6,10.6,0,0,1-2.871,4.978l-1.733,3-5.059-2.921a3.152,3.152,0,0,1-1.311-2.9,9.894,9.894,0,0,1,4.479-7.756,3.145,3.145,0,0,1,3.17-.315Z" transform="translate(36.197 21.391)" fill="#dae5f8"/>
        <path id="Trazado_109211" data-name="Trazado 109211" d="M35.26,18.771a9.9,9.9,0,0,0-4.479,7.758c0,2.857,2.007,4.014,4.479,2.585a9.9,9.9,0,0,0,4.481-7.756c0-2.857-2.007-4.014-4.481-2.588" transform="translate(39.024 23.025)" fill="#b4caed"/>
        <path id="Trazado_109212" data-name="Trazado 109212" d="M38.61,20.251l-1.2,2.082a7.34,7.34,0,0,1-1.993,3.458l-1.2,2.082L32.4,26.827a2.184,2.184,0,0,1-.914-2.014A6.879,6.879,0,0,1,34.6,19.423a2.2,2.2,0,0,1,2.2-.218Z" transform="translate(39.919 24.088)" fill="#dae5f8"/>
        <path id="Trazado_109213" data-name="Trazado 109213" d="M35.4,19.883a6.894,6.894,0,0,0-3.111,5.393c0,1.984,1.395,2.787,3.111,1.8a6.88,6.88,0,0,0,3.111-5.391c0-1.984-1.392-2.787-3.111-1.8" transform="translate(40.932 24.671)" fill="#b4caed"/>
        <path id="Trazado_109214" data-name="Trazado 109214" d="M34.2,20.808a2.163,2.163,0,0,0-.977,1.692c0,.621.44.873.977.565a2.17,2.17,0,0,0,.977-1.694c0-.621-.44-.873-.977-.562" transform="translate(42.125 26.213)" fill="#517fa2"/>
        <path id="Trazado_109215" data-name="Trazado 109215" d="M36.962,22.084l-.331.571a2.027,2.027,0,0,1-.551.95l-.329.574L33.537,22.9a.6.6,0,0,1-.249-.556,1.888,1.888,0,0,1,.857-1.481.6.6,0,0,1,.606-.061Z" transform="translate(42.203 26.305)" fill="#dae5f8"/>
        <path id="Trazado_109216" data-name="Trazado 109216" d="M35.121,21.429a1.889,1.889,0,0,0-.857,1.483c0,.547.383.769.857.494a1.9,1.9,0,0,0,.857-1.483c0-.547-.386-.769-.857-.494" transform="translate(43.44 27.019)" fill="#b4caed"/>
        <path id="Trazado_109217" data-name="Trazado 109217" d="M34.978,21.54a1.324,1.324,0,0,0-.6,1.036c0,.383.27.535.6.345a1.318,1.318,0,0,0,.6-1.036c0-.381-.268-.537-.6-.345" transform="translate(43.583 27.205)" fill="gray"/>
        <path id="Trazado_109218" data-name="Trazado 109218" d="M34.882,21.616v.016a.9.9,0,0,1-.4.7l-.016.007c.009.247.186.345.406.22a.9.9,0,0,0,.4-.7c0-.254-.172-.361-.39-.243" transform="translate(43.691 27.345)" fill="#575757"/>
        <path id="Trazado_109219" data-name="Trazado 109219" d="M34.882,21.589l-.014.007a.9.9,0,0,0-.406.7v.016l.016-.007a.9.9,0,0,0,.4-.7Z" transform="translate(43.691 27.371)"/>
        <path id="Trazado_109220" data-name="Trazado 109220" d="M22.939,9.515,21.71,11.642a7.555,7.555,0,0,1-2.039,3.536L18.442,17.3l-2.247-1.3a2.236,2.236,0,0,1-.934-2.057A7.031,7.031,0,0,1,18.442,8.44a2.227,2.227,0,0,1,2.247-.222Z" transform="translate(19.347 10.15)" fill="#fff"/>
        <path id="Trazado_109221" data-name="Trazado 109221" d="M19.433,9.012a7.028,7.028,0,0,0-3.182,5.506c0,2.03,1.424,2.853,3.182,1.837a7.025,7.025,0,0,0,3.179-5.506c0-2.03-1.424-2.851-3.179-1.837" transform="translate(20.603 10.875)" fill="#b4caed"/>
        <path id="Trazado_109222" data-name="Trazado 109222" d="M43.732,21.777l-1.148,1.989a7.061,7.061,0,0,1-1.907,3.3L39.53,29.056,17.278,16.209a2.09,2.09,0,0,1-.871-1.923A6.572,6.572,0,0,1,19.38,9.138a2.089,2.089,0,0,1,2.1-.209Z" transform="translate(20.801 11.071)" fill="#fff"/>
        <path id="Trazado_109223" data-name="Trazado 109223" d="M31.006,17.217A6.651,6.651,0,0,1,30.278,19,6.831,6.831,0,0,1,29.1,20.519l-1.15,1.989-2.3-1.327a3.834,3.834,0,0,1-.109-.937,7.632,7.632,0,0,1,3.449-5.973,3.88,3.88,0,0,1,.862-.372l2.3,1.329Z" transform="translate(32.377 17.622)" fill="#b4caed"/>
        <path id="Trazado_109224" data-name="Trazado 109224" d="M29.192,14.8a6.571,6.571,0,0,0-2.975,5.148c0,1.9,1.333,2.665,2.975,1.717a6.57,6.57,0,0,0,2.971-5.148c0-1.9-1.329-2.665-2.971-1.717" transform="translate(33.238 18.253)" fill="#659ec9"/>
        <path id="Trazado_109225" data-name="Trazado 109225" d="M35.6,16.495l-1.333,2.311a8.177,8.177,0,0,1-2.213,3.83l-1.336,2.311L26.828,22.7a2.415,2.415,0,0,1-1.009-2.232,7.623,7.623,0,0,1,3.449-5.976,2.423,2.423,0,0,1,2.44-.243Z" transform="translate(32.733 17.77)" fill="#fff"/>
        <path id="Trazado_109226" data-name="Trazado 109226" d="M30.986,15.479a7.621,7.621,0,0,0-3.449,5.978c0,2.2,1.544,3.089,3.449,1.989a7.619,7.619,0,0,0,3.449-5.973c0-2.2-1.544-3.093-3.449-1.993" transform="translate(34.912 19.028)" fill="#b4caed"/>
        <path id="Trazado_109227" data-name="Trazado 109227" d="M33.567,16.618l-.928,1.606A5.665,5.665,0,0,1,31.1,20.886l-.925,1.6-1.395-.805a1.688,1.688,0,0,1-.7-1.551,5.294,5.294,0,0,1,2.4-4.15,1.684,1.684,0,0,1,1.694-.17Z" transform="translate(35.601 19.847)" fill="#fff"/>
        <path id="Trazado_109228" data-name="Trazado 109228" d="M31.1,16.336a5.291,5.291,0,0,0-2.4,4.152c0,1.526,1.073,2.148,2.4,1.381a5.3,5.3,0,0,0,2.395-4.15c0-1.531-1.075-2.148-2.395-1.383" transform="translate(36.378 20.296)" fill="#b4caed"/>
        <path id="Trazado_109229" data-name="Trazado 109229" d="M30.3,16.96a2.166,2.166,0,0,0-.977,1.692c0,.621.44.873.977.562a2.156,2.156,0,0,0,.977-1.69c0-.621-.438-.875-.977-.565" transform="translate(37.175 21.335)" fill="#517fa2"/>
        <path id="Trazado_109230" data-name="Trazado 109230" d="M33.057,18.235l-.329.574a2.05,2.05,0,0,1-.553.95l-.329.574-2.211-1.277a.6.6,0,0,1-.252-.556,1.893,1.893,0,0,1,.855-1.483.609.609,0,0,1,.608-.059Z" transform="translate(37.252 21.428)" fill="#fff"/>
        <path id="Trazado_109231" data-name="Trazado 109231" d="M31.215,17.581a1.889,1.889,0,0,0-.857,1.483c0,.544.383.769.857.494a1.908,1.908,0,0,0,.857-1.483c0-.547-.388-.769-.857-.494" transform="translate(38.488 22.141)" fill="#b4caed"/>
        <path id="Trazado_109232" data-name="Trazado 109232" d="M31.072,17.691a1.325,1.325,0,0,0-.6,1.039c0,.383.27.535.6.345a1.324,1.324,0,0,0,.6-1.036c0-.381-.27-.535-.6-.347" transform="translate(38.631 22.328)" fill="gray"/>
        <path id="Trazado_109233" data-name="Trazado 109233" d="M30.978,17.768v.016a.9.9,0,0,1-.406.7l-.014.007c.009.247.184.345.406.218a.9.9,0,0,0,.406-.7c0-.252-.175-.356-.392-.24" transform="translate(38.742 22.468)" fill="#575757"/>
        <path id="Trazado_109234" data-name="Trazado 109234" d="M30.978,17.742l-.014.007a.9.9,0,0,0-.406.7v.016l.014-.007a.9.9,0,0,0,.406-.7v-.016" transform="translate(38.742 22.494)"/>
        <path id="Trazado_109235" data-name="Trazado 109235" d="M41.158,20.629a10.115,10.115,0,0,0-5.924-1.735,6.47,6.47,0,0,1-3.935-1.1.245.245,0,0,0-.324-.023l-.014.007a.894.894,0,0,0-.4.7v.016a.307.307,0,0,0,.088.225c1.281,1.082,2.848,1.1,4.524,1.2a9.157,9.157,0,0,1,5.37,1.528,3.982,3.982,0,0,1,1.553,3.817c-.261.789-.819,1.179-2.093,1.179v0a.342.342,0,0,0-.17.045l-.014.007a.9.9,0,0,0-.406.7v.016c.007.166.091.263.211.268v0l.029,0h.014c2.281-.016,3.173-1.193,3.4-1.9.565-1.687-.535-3.93-1.912-4.964" transform="translate(38.742 22.467)" fill="#517fa2"/>
      </g>
    </g>
  </g>
</svg>
