<svg xmlns="http://www.w3.org/2000/svg" xmlns:xlink="http://www.w3.org/1999/xlink" width="112" height="112" viewBox="0 0 112 112">
  <defs>
    <clipPath id="clip-path">
      <rect id="Rectángulo_294594" data-name="Rectángulo 294594" width="112" height="112" transform="translate(0 0.499)" fill="none"/>
    </clipPath>
    <clipPath id="clip-path-2">
      <rect id="Rectángulo_294582" data-name="Rectángulo 294582" width="48.327" height="28.114" fill="none"/>
    </clipPath>
    <clipPath id="clip-path-3">
      <rect id="Rectángulo_294583" data-name="Rectángulo 294583" width="47.825" height="65.142" fill="none"/>
    </clipPath>
    <clipPath id="clip-path-4">
      <rect id="Rectángulo_294584" data-name="Rectángulo 294584" width="37.78" height="27.542" fill="none"/>
    </clipPath>
    <clipPath id="clip-path-5">
      <rect id="Rectángulo_294585" data-name="Rectángulo 294585" width="10.755" height="4.521" fill="none"/>
    </clipPath>
    <clipPath id="clip-path-6">
      <rect id="Rectángulo_294586" data-name="Rectángulo 294586" width="46.666" height="45.458" fill="none"/>
    </clipPath>
    <clipPath id="clip-path-7">
      <rect id="Rectángulo_294587" data-name="Rectángulo 294587" width="39.089" height="22.569" fill="none"/>
    </clipPath>
    <clipPath id="clip-path-8">
      <rect id="Rectángulo_294588" data-name="Rectángulo 294588" width="42.807" height="35.32" fill="none"/>
    </clipPath>
    <clipPath id="clip-path-9">
      <rect id="Rectángulo_294589" data-name="Rectángulo 294589" width="47.825" height="52.852" fill="none"/>
    </clipPath>
    <clipPath id="clip-path-10">
      <rect id="Rectángulo_294590" data-name="Rectángulo 294590" width="9.046" height="22.596" fill="none"/>
    </clipPath>
    <clipPath id="clip-path-11">
      <rect id="Rectángulo_294591" data-name="Rectángulo 294591" width="7.349" height="24.992" fill="none"/>
    </clipPath>
    <clipPath id="clip-path-12">
      <rect id="Rectángulo_294592" data-name="Rectángulo 294592" width="9.374" height="5.412" fill="none"/>
    </clipPath>
    <clipPath id="clip-path-13">
      <rect id="Rectángulo_294593" data-name="Rectángulo 294593" width="42.723" height="24.855" fill="none"/>
    </clipPath>
  </defs>
  <g id="Grupo_879211" data-name="Grupo 879211" transform="translate(0 -0.499)" clip-path="url(#clip-path)">
    <path id="Trazado_227135" data-name="Trazado 227135" d="M112.536,56.268A56.268,56.268,0,1,1,56.268,0a56.271,56.271,0,0,1,56.268,56.268" transform="translate(0 -0.04)" fill="#fff"/>
    <g id="Grupo_879177" data-name="Grupo 879177" transform="translate(30.345 63.161)" opacity="0.3">
      <g id="Grupo_879176" data-name="Grupo 879176">
        <g id="Grupo_879175" data-name="Grupo 879175" clip-path="url(#clip-path-2)">
          <path id="Trazado_227136" data-name="Trazado 227136" d="M35.09,55.855A9.792,9.792,0,0,1,30.269,54.7L15.388,46.108a3.544,3.544,0,0,1-2.069-2.9,3.422,3.422,0,0,1,1.9-2.852v0L35.051,28.9a9.792,9.792,0,0,1,4.821-1.155A9.789,9.789,0,0,1,44.691,28.9l14.845,8.571.043.023a3.514,3.514,0,0,1,2.069,2.943,3.547,3.547,0,0,1-2.069,2.912L39.911,54.7a9.81,9.81,0,0,1-4.821,1.155" transform="translate(-13.32 -27.74)"/>
        </g>
      </g>
    </g>
    <path id="Trazado_227137" data-name="Trazado 227137" d="M41.173,39.683,42.388,38.5l-2.253-22.17-3.572-5.557-7.284,1.62v3.226l4.094-.909,2.773,22.069,1.7,1.841Z" transform="translate(37.425 13.733)" fill="#003552"/>
    <path id="Trazado_227138" data-name="Trazado 227138" d="M28.293,25.747l-.235,1.843,4.673,2.7,1.31-1.8-1.075-.041Z" transform="translate(35.865 32.872)" fill="#003552"/>
    <path id="Trazado_227139" data-name="Trazado 227139" d="M33.873,33.592l8.728-8.5-5.028-2.9-9.411,8.1Z" transform="translate(35.997 28.325)" fill="#517fa2"/>
    <path id="Trazado_227140" data-name="Trazado 227140" d="M40.17,12.26l-5.142-.538-2.142,2.16v3.226l4.094-.911,2.773,22.072-9.411,8.106-.232,1.841L43.264,36.883Z" transform="translate(38.487 14.944)" fill="#295e87"/>
    <path id="Trazado_227141" data-name="Trazado 227141" d="M41.232,13.471l-4.67-2.7L29.278,12.4l4.67,2.7Z" transform="translate(37.425 13.732)" fill="#517fa2"/>
    <g id="Grupo_879180" data-name="Grupo 879180" transform="translate(30.595 22.208)" opacity="0.5">
      <g id="Grupo_879179" data-name="Grupo 879179">
        <g id="Grupo_879178" data-name="Grupo 879178" clip-path="url(#clip-path-3)">
          <path id="Trazado_227142" data-name="Trazado 227142" d="M61.254,22.056l-.661-1.319-.638-.761L44,10.683a9.612,9.612,0,0,0-4.5-.918,9.929,9.929,0,0,0-4.135.918l-19.3,11.166-1.722,1.235-.918,1.745,5.224,40.89a2.876,2.876,0,0,0,1.6,2.041l10.765,6.215a8.653,8.653,0,0,0,7.817,0l15.606-8.967a2.9,2.9,0,0,0,1.592-1.982h0Z" transform="translate(-13.429 -9.765)" fill="#8dd5ff"/>
        </g>
      </g>
    </g>
    <path id="Trazado_227143" data-name="Trazado 227143" d="M27.981,48.953l-10.462-6.04c-2.1-1.21-2.1-3.178,0-4.388l15.164-8.714a8.412,8.412,0,0,1,7.6,0l10.464,6.04c2.094,1.21,2.094,3.178,0,4.388L35.579,48.953a8.407,8.407,0,0,1-7.6,0" transform="translate(20.384 36.907)" fill="#4fbeff"/>
    <path id="Trazado_227144" data-name="Trazado 227144" d="M61.254,22.139a3.283,3.283,0,0,0-1.941-2.725l0,0v0L44.425,10.821a10.4,10.4,0,0,0-9.391,0L15.363,22.178v0a3.277,3.277,0,0,0-1.934,2.729l.513-.018a3.043,3.043,0,0,1,1.791-2.506l0,0L35.4,11.03a9.618,9.618,0,0,1,8.669,0l14.882,8.591h.007l0,0a3.035,3.035,0,0,1,1.788,2.5Z" transform="translate(17.166 12.359)" fill="#c7f2ff"/>
    <g id="Grupo_879183" data-name="Grupo 879183" transform="translate(35.588 59.376)" opacity="0.7">
      <g id="Grupo_879182" data-name="Grupo 879182">
        <g id="Grupo_879181" data-name="Grupo 879181" clip-path="url(#clip-path-4)">
          <path id="Trazado_227145" data-name="Trazado 227145" d="M51.943,32.317,36.063,41.485a7.76,7.76,0,0,1-7,0L17.049,34.548a2.647,2.647,0,0,1-1.417-1.725l.82,6.384c0,.036.011.075.018.112l0,.023h0A2.7,2.7,0,0,0,17.9,41.034l10.692,6.174a7.866,7.866,0,0,0,7.076,0l15.551-8.979a2.6,2.6,0,0,0,1.444-1.843h0l.718-5.946h-.007a2.531,2.531,0,0,1-1.431,1.877" transform="translate(-15.606 -20.506)" fill="#4fbeff"/>
          <path id="Trazado_227146" data-name="Trazado 227146" d="M36.442,26.08a7.145,7.145,0,0,0-3.5.834L17.066,36.082c-1.927,1.11-1.925,2.928,0,4.039l12.013,6.937a7.76,7.76,0,0,0,7,0L51.957,37.89c1.925-1.112,1.925-2.93,0-4.042L39.941,26.914a7.154,7.154,0,0,0-3.5-.834" transform="translate(-15.62 -26.079)" fill="#8dd5ff"/>
        </g>
      </g>
    </g>
    <path id="Trazado_227147" data-name="Trazado 227147" d="M24.72,31.886l-1.839,1.059-.768-1.071.287-2.515,2.319-.221Z" transform="translate(28.267 37.206)" fill="#b4caed"/>
    <path id="Trazado_227148" data-name="Trazado 227148" d="M21.555,24.318l.656,12.9A2.4,2.4,0,0,0,23.6,39.108a7.055,7.055,0,0,1-.137-3.276,13.087,13.087,0,0,0,2.4,4.005,7.314,7.314,0,0,0,4.474-.724A2.388,2.388,0,0,0,31.73,37.22h0l.656-12.9Z" transform="translate(27.553 31.045)" fill="#dae5f8"/>
    <g id="Grupo_879186" data-name="Grupo 879186" transform="translate(49.146 55.759)" opacity="0.5">
      <g id="Grupo_879185" data-name="Grupo 879185">
        <g id="Grupo_879184" data-name="Grupo 879184" clip-path="url(#clip-path-5)">
          <path id="Trazado_227149" data-name="Trazado 227149" d="M29.769,24.882a10.4,10.4,0,0,0-5.641,0H21.572l.125,2.463a4.814,4.814,0,0,0,.857.617,9.72,9.72,0,0,0,8.792,0,4.793,4.793,0,0,0,.854-.617l.125-2.463Z" transform="translate(-21.572 -24.492)" fill="#b4caed"/>
        </g>
      </g>
    </g>
    <path id="Trazado_227150" data-name="Trazado 227150" d="M30.8,28.285a8.47,8.47,0,0,1-7.662,0c-2.116-1.221-2.116-3.2,0-4.424a8.47,8.47,0,0,1,7.662,0c2.114,1.223,2.114,3.2,0,4.424" transform="translate(27.552 29.29)" fill="#fff"/>
    <g id="Grupo_879189" data-name="Grupo 879189" transform="translate(31.19 22.604)" opacity="0.4">
      <g id="Grupo_879188" data-name="Grupo 879188">
        <g id="Grupo_879187" data-name="Grupo 879187" clip-path="url(#clip-path-6)">
          <path id="Trazado_227151" data-name="Trazado 227151" d="M60.356,22.263l-.255-.672-.542-1.23-.959-.836L43.224,10.739a8.783,8.783,0,0,0-4.313-.779A10.88,10.88,0,0,0,34.6,11.2L15.347,22.381l-1.271,1.271-.21,1.107-.175.394L16.985,45.61a1.155,1.155,0,0,0,.021.123l0,.025a2.989,2.989,0,0,0,1.574,1.873l11.836,6.832a8.686,8.686,0,0,0,7.833,0l17.212-9.935a2.879,2.879,0,0,0,1.6-2.044Z" transform="translate(-13.69 -9.939)" fill="#517fa2"/>
        </g>
      </g>
    </g>
    <g id="Grupo_879192" data-name="Grupo 879192" transform="translate(34.963 44.903)" opacity="0.4">
      <g id="Grupo_879191" data-name="Grupo 879191">
        <g id="Grupo_879190" data-name="Grupo 879190" clip-path="url(#clip-path-7)">
          <path id="Trazado_227152" data-name="Trazado 227152" d="M36.089,41.386a8.469,8.469,0,0,1-7.634,0L16.92,34.729c-2.1-1.214-2.1-3.2,0-4.408l16.775-9.685a8.469,8.469,0,0,1,7.634,0L52.862,27.3c2.1,1.212,2.1,3.194,0,4.406Z" transform="translate(-15.347 -19.727)" fill="#295e87"/>
        </g>
      </g>
    </g>
    <path id="Trazado_227153" data-name="Trazado 227153" d="M33.641,24.612h-3.4a10.4,10.4,0,0,0-5.641,0H21.2v.542a3.092,3.092,0,0,0,1.823,2.54,9.725,9.725,0,0,0,8.794,0,3.092,3.092,0,0,0,1.823-2.54Z" transform="translate(27.101 30.922)" fill="#dae5f8"/>
    <path id="Trazado_227154" data-name="Trazado 227154" d="M31.818,28.947a9.706,9.706,0,0,1-8.792,0c-2.431-1.4-2.431-3.675,0-5.078a9.72,9.72,0,0,1,8.792,0c2.429,1.4,2.429,3.675,0,5.078" transform="translate(27.102 29.127)" fill="#fff"/>
    <path id="Trazado_227155" data-name="Trazado 227155" d="M32.388,22.757H29.426a9.092,9.092,0,0,0-4.914,0H21.555v3.969a2.693,2.693,0,0,0,1.586,2.212,8.47,8.47,0,0,0,7.662,0,2.693,2.693,0,0,0,1.586-2.212Z" transform="translate(27.553 28.617)" fill="#dae5f8"/>
    <path id="Trazado_227156" data-name="Trazado 227156" d="M25.7,23.876c-.075.041-.153.082-.235.118v2.686c.082-.039.159-.08.235-.121Z" transform="translate(32.551 30.48)" fill="#b4caed"/>
    <path id="Trazado_227157" data-name="Trazado 227157" d="M25.472,23.986c-.077.034-.155.064-.232.1v2.684c.077-.03.155-.064.232-.1Z" transform="translate(32.263 30.621)" fill="#b4caed"/>
    <path id="Trazado_227158" data-name="Trazado 227158" d="M25.245,24.071c-.077.027-.155.05-.232.073v2.684c.077-.023.155-.048.232-.073Z" transform="translate(31.973 30.729)" fill="#b4caed"/>
    <path id="Trazado_227159" data-name="Trazado 227159" d="M22.528,24c-.077-.039-.155-.077-.232-.118v2.684c.077.041.155.082.232.121Z" transform="translate(28.5 30.481)" fill="#b4caed"/>
    <path id="Trazado_227160" data-name="Trazado 227160" d="M22.07,26.418c.075.052.15.107.232.159V23.893c-.082-.052-.157-.107-.232-.159Z" transform="translate(28.211 30.298)" fill="#b4caed"/>
    <path id="Trazado_227161" data-name="Trazado 227161" d="M25.925,23.734c-.073.052-.15.107-.232.159v2.684c.082-.052.159-.1.232-.159Z" transform="translate(32.842 30.298)" fill="#b4caed"/>
    <path id="Trazado_227162" data-name="Trazado 227162" d="M24.568,24.222c-.077.009-.155.018-.235.025v2.686c.08-.007.157-.018.235-.027Z" transform="translate(31.104 30.922)" fill="#b4caed"/>
    <path id="Trazado_227163" data-name="Trazado 227163" d="M26.146,26.31a2.481,2.481,0,0,0,.232-.431V23.191a2.437,2.437,0,0,1-.232.435Z" transform="translate(33.421 29.604)" fill="#b4caed"/>
    <path id="Trazado_227164" data-name="Trazado 227164" d="M24.108,26.941c.077,0,.153-.007.23-.014V24.244c-.077,0-.153.009-.23.011Z" transform="translate(30.816 30.95)" fill="#b4caed"/>
    <path id="Trazado_227165" data-name="Trazado 227165" d="M24.793,24.187l-.232.041v2.684c.077-.014.155-.025.232-.041Z" transform="translate(31.395 30.877)" fill="#b4caed"/>
    <path id="Trazado_227166" data-name="Trazado 227166" d="M25.017,24.138c-.075.018-.153.039-.23.055v2.684c.077-.018.155-.034.23-.055Z" transform="translate(31.684 30.815)" fill="#b4caed"/>
    <path id="Trazado_227167" data-name="Trazado 227167" d="M22.075,23.762a3.135,3.135,0,0,1-.232-.226V26.22a2.735,2.735,0,0,0,.232.226Z" transform="translate(27.921 30.045)" fill="#b4caed"/>
    <path id="Trazado_227168" data-name="Trazado 227168" d="M22.755,24.082c-.08-.032-.157-.062-.232-.1V26.67q.113.051.232.1Z" transform="translate(28.79 30.621)" fill="#b4caed"/>
    <path id="Trazado_227169" data-name="Trazado 227169" d="M24.115,24.253c-.077,0-.155,0-.235,0v2.684h.235Z" transform="translate(30.525 30.962)" fill="#b4caed"/>
    <path id="Trazado_227170" data-name="Trazado 227170" d="M26.151,23.536c-.071.075-.15.153-.232.226v2.684a3.121,3.121,0,0,0,.232-.226Z" transform="translate(33.131 30.045)" fill="#b4caed"/>
    <path id="Trazado_227171" data-name="Trazado 227171" d="M23.889,24.255c-.077,0-.157-.007-.235-.011v2.684l.235.014Z" transform="translate(30.236 30.95)" fill="#b4caed"/>
    <path id="Trazado_227172" data-name="Trazado 227172" d="M21.849,23.625a2.282,2.282,0,0,1-.232-.433v2.684a2.282,2.282,0,0,0,.232.433Z" transform="translate(27.632 29.606)" fill="#b4caed"/>
    <path id="Trazado_227173" data-name="Trazado 227173" d="M23.662,24.247c-.08-.007-.157-.016-.235-.025v2.684c.077.009.155.018.235.025Z" transform="translate(29.946 30.922)" fill="#b4caed"/>
    <path id="Trazado_227174" data-name="Trazado 227174" d="M22.981,24.145c-.077-.023-.153-.048-.232-.073v2.684l.232.073Z" transform="translate(29.079 30.73)" fill="#b4caed"/>
    <path id="Trazado_227175" data-name="Trazado 227175" d="M23.209,24.193c-.077-.016-.155-.036-.235-.055v2.684c.08.021.157.036.235.055Z" transform="translate(29.366 30.815)" fill="#b4caed"/>
    <path id="Trazado_227176" data-name="Trazado 227176" d="M23.434,24.228q-.116-.017-.232-.041v2.686l.232.039Z" transform="translate(29.658 30.877)" fill="#b4caed"/>
    <path id="Trazado_227177" data-name="Trazado 227177" d="M30.8,26.534a8.47,8.47,0,0,1-7.662,0c-2.116-1.221-2.116-3.2,0-4.422a8.456,8.456,0,0,1,7.662,0c2.114,1.221,2.114,3.2,0,4.422" transform="translate(27.552 27.052)" fill="#fff"/>
    <path id="Trazado_227178" data-name="Trazado 227178" d="M28.917,20.963H27.17a5.379,5.379,0,0,0-2.893,0H22.531v3.891a1.585,1.585,0,0,0,.934,1.3,4.99,4.99,0,0,0,4.515,0,1.588,1.588,0,0,0,.936-1.3Z" transform="translate(28.8 26.503)" fill="#dae5f8"/>
    <path id="Trazado_227179" data-name="Trazado 227179" d="M27.98,23.189a4.986,4.986,0,0,1-4.513,0,1.376,1.376,0,0,1,0-2.606,4.986,4.986,0,0,1,4.513,0,1.376,1.376,0,0,1,0,2.606" transform="translate(28.801 25.58)" fill="#fff"/>
    <path id="Trazado_227180" data-name="Trazado 227180" d="M27.681,21.813a1.32,1.32,0,0,0-.686-.8,3.765,3.765,0,0,0-3.417,0,1.312,1.312,0,0,0-.686.8,1.106,1.106,0,0,1,.686-1.164,3.779,3.779,0,0,1,3.417,0,1.106,1.106,0,0,1,.686,1.164" transform="translate(29.236 25.833)" fill="#b4caed"/>
    <path id="Trazado_227181" data-name="Trazado 227181" d="M27.67,21.612a1.321,1.321,0,0,1-.686.809,3.793,3.793,0,0,1-3.417,0,1.313,1.313,0,0,1-.686-.809,1.312,1.312,0,0,1,.686-.8,3.765,3.765,0,0,1,3.417,0,1.32,1.32,0,0,1,.686.8" transform="translate(29.248 26.034)" fill="#dae5f8"/>
    <path id="Trazado_227182" data-name="Trazado 227182" d="M39.449,10.331a8.309,8.309,0,0,1,4.083.966l14.882,8.591a2.57,2.57,0,0,1,1.538,2.069,2.573,2.573,0,0,1-1.538,2.071L38.745,35.383a8.318,8.318,0,0,1-4.085.966,8.318,8.318,0,0,1-4.085-.966L15.694,26.789a2.571,2.571,0,0,1-1.538-2.066,2.577,2.577,0,0,1,1.538-2.071L35.362,11.3a8.333,8.333,0,0,1,4.087-.966m0-.5a8.869,8.869,0,0,0-4.338,1.034L15.443,22.221c-2.385,1.374-2.383,3.627,0,5l14.884,8.591a8.844,8.844,0,0,0,4.333,1.032,8.838,8.838,0,0,0,4.333-1.032l19.67-11.357c2.385-1.376,2.385-3.625,0-5L43.782,10.864A8.845,8.845,0,0,0,39.449,9.83" transform="translate(17.455 12.526)" fill="#659ec9"/>
    <g id="Grupo_879195" data-name="Grupo 879195" transform="translate(33.114 32.151)" opacity="0.5">
      <g id="Grupo_879194" data-name="Grupo 879194">
        <g id="Grupo_879193" data-name="Grupo 879193" clip-path="url(#clip-path-8)">
          <path id="Trazado_227183" data-name="Trazado 227183" d="M55.7,21.06,37.7,31.449a8.8,8.8,0,0,1-7.928,0L16.16,23.587a2.934,2.934,0,0,1-1.618-2.039l1.911,11.929a1.064,1.064,0,0,0,.018.118l0,.023a2.91,2.91,0,0,0,1.531,1.825l11.514,6.648a8.459,8.459,0,0,0,7.623,0L53.89,32.424a2.808,2.808,0,0,0,1.561-1.987l1.832-11.261A3.035,3.035,0,0,1,55.7,21.06" transform="translate(-14.526 -7.679)" fill="#249e48"/>
          <path id="Trazado_227184" data-name="Trazado 227184" d="M38.128,14.129a8.08,8.08,0,0,0-3.966.945L16.17,25.461c-2.18,1.258-2.18,3.319,0,4.577L29.783,37.9a8.807,8.807,0,0,0,7.931,0L55.707,27.511c2.18-1.26,2.18-3.319,0-4.579L42.092,15.074a8.04,8.04,0,0,0-3.964-.945" transform="translate(-14.534 -14.13)" fill="#68e38b"/>
        </g>
      </g>
    </g>
    <g id="Grupo_879198" data-name="Grupo 879198" transform="translate(30.595 34.498)" opacity="0.3">
      <g id="Grupo_879197" data-name="Grupo 879197">
        <g id="Grupo_879196" data-name="Grupo 879196" clip-path="url(#clip-path-9)">
          <path id="Trazado_227185" data-name="Trazado 227185" d="M61.254,15.16l-1,1.864-1.738,1.125L40.025,28.784a8.818,8.818,0,0,1-4.837,1.406A13.208,13.208,0,0,1,30.7,29.3L14.764,20.026l-.886-1.084-.449-1.009,5.224,40.89a2.876,2.876,0,0,0,1.6,2.041l10.765,6.215a8.653,8.653,0,0,0,7.817,0l15.606-8.967a2.9,2.9,0,0,0,1.592-1.982h0Z" transform="translate(-13.429 -15.159)" fill="#8dd5ff"/>
        </g>
      </g>
    </g>
    <g id="Grupo_879201" data-name="Grupo 879201" transform="translate(35.762 46.688)" opacity="0.4">
      <g id="Grupo_879200" data-name="Grupo 879200">
        <g id="Grupo_879199" data-name="Grupo 879199" clip-path="url(#clip-path-10)">
          <path id="Trazado_227186" data-name="Trazado 227186" d="M15.7,20.51l9.047.355L21.89,43.106Z" transform="translate(-15.697 -20.51)" fill="#c7f2ff"/>
        </g>
      </g>
    </g>
    <g id="Grupo_879204" data-name="Grupo 879204" transform="translate(34.607 44.292)" opacity="0.7">
      <g id="Grupo_879203" data-name="Grupo 879203">
        <g id="Grupo_879202" data-name="Grupo 879202" clip-path="url(#clip-path-11)">
          <path id="Trazado_227187" data-name="Trazado 227187" d="M16.345,21.855l-1.155-2.4,7.347,24.992Z" transform="translate(-15.19 -19.459)" fill="#c7f2ff"/>
        </g>
      </g>
    </g>
    <path id="Trazado_227188" data-name="Trazado 227188" d="M60.739,15.153a3.041,3.041,0,0,1-1.788,2.5L39.283,29.012a9.618,9.618,0,0,1-8.669,0l-7.443-4.294-7.438-4.3a3.041,3.041,0,0,1-1.788-2.5l-.515.021a3.308,3.308,0,0,0,1.943,2.686l2.611,1.51c-1.934,1.6.613,5.219.613,5.219s6.265,1.474,9.047.355l2.609,1.508a10.4,10.4,0,0,0,9.393,0L59.313,17.864a3.3,3.3,0,0,0,1.941-2.7Z" transform="translate(17.166 19.33)" fill="#c7f2ff"/>
    <g id="Grupo_879207" data-name="Grupo 879207" transform="translate(34.857 41.801)" opacity="0.4">
      <g id="Grupo_879206" data-name="Grupo 879206">
        <g id="Grupo_879205" data-name="Grupo 879205" clip-path="url(#clip-path-12)">
          <path id="Trazado_227189" data-name="Trazado 227189" d="M15.954,18.365c-1.745,1.451.554,4.711.554,4.711s5.655,1.33,8.165.324Z" transform="translate(-15.3 -18.365)" fill="#517fa2"/>
        </g>
      </g>
    </g>
    <path id="Trazado_227190" data-name="Trazado 227190" d="M61.3,20.99a4.461,4.461,0,0,0-1.72-1.634l-.043-.021L44.69,10.765A9.792,9.792,0,0,0,39.87,9.61a9.789,9.789,0,0,0-4.818,1.155L15.217,22.22a4.375,4.375,0,0,0-1.556,1.54l-.342-.1v1.419a3.546,3.546,0,0,0,2.066,2.9l14.884,8.591a9.785,9.785,0,0,0,4.821,1.155,9.8,9.8,0,0,0,4.818-1.155l19.67-11.355A3.544,3.544,0,0,0,61.645,22.3V20.919Z" transform="translate(17.025 12.244)" fill="#295e87"/>
    <path id="Trazado_227191" data-name="Trazado 227191" d="M35.09,37.118a9.792,9.792,0,0,1-4.821-1.155L15.388,27.371a3.544,3.544,0,0,1-2.069-2.9,3.428,3.428,0,0,1,1.9-2.855v0L35.051,10.157A9.816,9.816,0,0,1,39.872,9a9.813,9.813,0,0,1,4.818,1.153l14.845,8.571.043.023a3.519,3.519,0,0,1,2.069,2.943,3.544,3.544,0,0,1-2.069,2.912L39.911,35.963a9.81,9.81,0,0,1-4.821,1.155" transform="translate(17.025 11.47)" fill="#659ec9"/>
    <g id="Grupo_879210" data-name="Grupo 879210" transform="translate(33.279 21.029)" opacity="0.2">
      <g id="Grupo_879209" data-name="Grupo 879209">
        <g id="Grupo_879208" data-name="Grupo 879208" clip-path="url(#clip-path-13)">
          <path id="Trazado_227192" data-name="Trazado 227192" d="M33.85,34.1a8.68,8.68,0,0,1-4.263-1.021l-13.155-7.6a3.13,3.13,0,0,1-1.825-2.565A3.027,3.027,0,0,1,16.285,20.4v0L33.816,10.27a9.393,9.393,0,0,1,8.525,0l13.125,7.575.036.021a3.106,3.106,0,0,1,1.827,2.6A3.131,3.131,0,0,1,55.5,23.042l-17.39,10.04A8.661,8.661,0,0,1,33.85,34.1" transform="translate(-14.607 -9.248)" fill="#c7f2ff"/>
        </g>
      </g>
    </g>
    <path id="Trazado_227193" data-name="Trazado 227193" d="M45.288,13.886l-.034-.016-3.162-1.827a8.359,8.359,0,0,0-7.573,0l-15.585,9a2.927,2.927,0,0,0-1.451,1.836,3,3,0,0,0,1.586,1.909l3.19,1.843a7.7,7.7,0,0,0,3.789.909,7.693,7.693,0,0,0,3.786-.909l15.456-8.922A3,3,0,0,0,46.874,15.8a3.007,3.007,0,0,0-1.586-1.914" transform="translate(22.346 14.195)" fill="#517fa2"/>
    <path id="Trazado_227194" data-name="Trazado 227194" d="M46.933,15.859a1.894,1.894,0,0,1-.036.376,3.009,3.009,0,0,0-1.586-1.911l-.034-.016L42.115,12.48a8.359,8.359,0,0,0-7.573,0l-15.585,9a2.914,2.914,0,0,0-1.451,1.834,2.015,2.015,0,0,1-.041-.371A2.706,2.706,0,0,1,18.956,20.7l15.585-9a8.359,8.359,0,0,1,7.573,0l3.162,1.825.034.021a2.767,2.767,0,0,1,1.622,2.312" transform="translate(22.323 13.758)" fill="#295e87"/>
    <path id="Trazado_227195" data-name="Trazado 227195" d="M43.358,14.767a1.094,1.094,0,0,0,.636-.9V11.881l-.875.371-1.014-.583a3.273,3.273,0,0,0-2.975,0L24.08,20.356l-5.762,2.454V24.75l2.871,1.659a5.657,5.657,0,0,0,.738.353,2.91,2.91,0,0,0,1.258-.349Z" transform="translate(23.415 14.419)" fill="#295e87"/>
    <path id="Trazado_227196" data-name="Trazado 227196" d="M21.694,25.58a3.044,3.044,0,0,1-1.488-.355L18.954,24.5a1.088,1.088,0,0,1-.636-.9,1.051,1.051,0,0,1,.583-.879L39.128,11.044a3.291,3.291,0,0,1,2.975,0l1.253.724a1.091,1.091,0,0,1,.638.909,1.093,1.093,0,0,1-.638.9L23.182,25.224a3.05,3.05,0,0,1-1.488.355" transform="translate(23.415 13.624)" fill="#659ec9"/>
  </g>
</svg>
