<svg id="Grupo_879219" data-name="Grupo 879219" xmlns="http://www.w3.org/2000/svg" xmlns:xlink="http://www.w3.org/1999/xlink" width="112" height="112" viewBox="0 0 112 112">
  <defs>
    <clipPath id="clip-path">
      <rect id="Rectángulo_7538" data-name="Rectángulo 7538" width="112" height="112" fill="none"/>
    </clipPath>
    <clipPath id="clip-path-3">
      <rect id="Rectángulo_7535" data-name="Rectángulo 7535" width="23.769" height="13.725" fill="none"/>
    </clipPath>
    <clipPath id="clip-path-4">
      <rect id="Rectángulo_7536" data-name="Rectángulo 7536" width="21.064" height="56.955" fill="none"/>
    </clipPath>
  </defs>
  <g id="Grupo_60597" data-name="Grupo 60597" clip-path="url(#clip-path)">
    <g id="Grupo_60596" data-name="Grupo 60596" transform="translate(0 -0.001)">
      <g id="Grupo_60595" data-name="Grupo 60595" clip-path="url(#clip-path)">
        <path id="Trazado_109315" data-name="Trazado 109315" d="M112.43,56.213A56.215,56.215,0,1,1,56.217,0,56.217,56.217,0,0,1,112.43,56.213" transform="translate(0 0.001)" fill="#fff"/>
        <g id="Grupo_60591" data-name="Grupo 60591" transform="translate(41.601 80.052)" opacity="0.3">
          <g id="Grupo_60590" data-name="Grupo 60590">
            <g id="Grupo_60589" data-name="Grupo 60589" clip-path="url(#clip-path-3)">
              <path id="Trazado_109316" data-name="Trazado 109316" d="M38.565,46.883c-4.643,2.681-12.168,2.681-16.807,0s-4.641-7.022,0-9.705,12.163-2.677,16.807,0,4.641,7.026,0,9.705" transform="translate(-18.277 -35.17)"/>
            </g>
          </g>
        </g>
        <path id="Trazado_109317" data-name="Trazado 109317" d="M35.659,17.13H31.4a13.032,13.032,0,0,0-7.067,0H20.075V58.614a3.871,3.871,0,0,0,2.283,3.18,12.175,12.175,0,0,0,11.019,0,3.871,3.871,0,0,0,2.283-3.18Z" transform="translate(25.618 21.237)" fill="#fff"/>
        <path id="Trazado_109318" data-name="Trazado 109318" d="M33.376,22.56a12.189,12.189,0,0,1-11.019,0c-3.043-1.757-3.043-4.6,0-6.362a12.175,12.175,0,0,1,11.019,0c3.043,1.757,3.043,4.6,0,6.362" transform="translate(25.618 18.989)" fill="#dae5f8"/>
        <path id="Trazado_109319" data-name="Trazado 109319" d="M30.405,20.842a8.5,8.5,0,0,1-7.7,0c-2.128-1.227-2.128-3.218,0-4.445a8.51,8.51,0,0,1,7.7,0c2.126,1.227,2.126,3.218,0,4.445" transform="translate(26.932 19.748)" fill="#1078ad"/>
        <path id="Trazado_109320" data-name="Trazado 109320" d="M28.252,19.5l-.086-.055a5.757,5.757,0,0,0-5.2,0c-.032.018-.064.036-.091.055-1.347-.833-1.318-2.14.091-2.952a5.757,5.757,0,0,1,5.2,0c1.407.813,1.436,2.119.086,2.952" transform="translate(27.924 20.32)" fill="#00537d"/>
        <path id="Trazado_109321" data-name="Trazado 109321" d="M27.7,17.872c-.027.018-.057.036-.086.052a5.743,5.743,0,0,1-5.2,0,.868.868,0,0,1-.091-.052c.027-.018.059-.036.091-.055a5.757,5.757,0,0,1,5.2,0l.086.055" transform="translate(28.479 21.945)" fill="#003552"/>
        <g id="Grupo_60594" data-name="Grupo 60594" transform="translate(42.954 32.501)" opacity="0.5">
          <g id="Grupo_60593" data-name="Grupo 60593">
            <g id="Grupo_60592" data-name="Grupo 60592" clip-path="url(#clip-path-4)">
              <path id="Trazado_109322" data-name="Trazado 109322" d="M36.851,16.059a15.253,15.253,0,0,0-7.45-1.78,15.244,15.244,0,0,0-7.447,1.78c-2.053,1.186-3.082,2.745-3.082,4.3V60.7a10.53,10.53,0,1,0,21.061,0V20.358c0-1.555-1.027-3.114-3.082-4.3" transform="translate(-18.871 -14.279)" fill="#c7f2ff"/>
            </g>
          </g>
        </g>
        <path id="Trazado_109323" data-name="Trazado 109323" d="M20.513,18.411v36.8a1.349,1.349,0,0,0,2.7,0v-36.8Z" transform="translate(26.177 23.495)" fill="#fff"/>
        <path id="Trazado_109324" data-name="Trazado 109324" d="M39.362,17.568V57.579a9.9,9.9,0,1,1-19.8,0V17.568l-.74-.74V57.579a10.638,10.638,0,0,0,21.277,0V16.828Z" transform="translate(24.023 21.475)" fill="#4fbeff"/>
        <path id="Trazado_109325" data-name="Trazado 109325" d="M29.464,14.867a14.545,14.545,0,0,1,7.154,1.7c1.771,1.022,2.743,2.338,2.743,3.7s-.972,2.681-2.743,3.7a14.545,14.545,0,0,1-7.154,1.7,14.561,14.561,0,0,1-7.156-1.7c-1.766-1.022-2.745-2.338-2.745-3.7s.979-2.681,2.745-3.7a14.561,14.561,0,0,1,7.156-1.7m0-.737a15.372,15.372,0,0,0-7.522,1.8c-4.156,2.4-4.156,6.287,0,8.686a15.347,15.347,0,0,0,7.522,1.8,15.368,15.368,0,0,0,7.525-1.8c4.149-2.4,4.149-6.287,0-8.686a15.387,15.387,0,0,0-7.525-1.8" transform="translate(24.022 18.032)" fill="#4fbeff"/>
        <path id="Trazado_109326" data-name="Trazado 109326" d="M42.046,16.453H35.553a19.844,19.844,0,0,0-10.78,0h-6.5v3.193c0,1.757,1.161,3.512,3.48,4.853,4.641,2.679,12.166,2.679,16.809,0,2.319-1.341,3.48-3.1,3.48-4.853Z" transform="translate(23.323 20.045)" fill="#517fa2"/>
        <path id="Trazado_109327" data-name="Trazado 109327" d="M38.565,24.735c-4.643,2.679-12.168,2.679-16.807,0s-4.641-7.024,0-9.705,12.163-2.679,16.807,0,4.641,7.026,0,9.705" transform="translate(23.324 16.616)" fill="#659ec9"/>
        <path id="Trazado_109328" data-name="Trazado 109328" d="M28.267,12.111,26.835,14.59a8.77,8.77,0,0,1-2.374,4.117l-1.434,2.479L17.7,18.111a2.609,2.609,0,0,1-1.083-2.4,8.186,8.186,0,0,1,3.7-6.416,2.61,2.61,0,0,1,2.622-.257Z" transform="translate(21.206 11.22)" fill="#517fa2"/>
        <path id="Trazado_109329" data-name="Trazado 109329" d="M22.659,10.648a8.19,8.19,0,0,0-3.7,6.416c0,2.363,1.657,3.321,3.7,2.137a8.191,8.191,0,0,0,3.708-6.416c0-2.36-1.662-3.319-3.708-2.137" transform="translate(24.192 12.943)" fill="#295e87"/>
        <path id="Trazado_109330" data-name="Trazado 109330" d="M22.035,11.127a5.729,5.729,0,0,0-2.588,4.486c0,1.65,1.159,2.322,2.588,1.5a5.727,5.727,0,0,0,2.592-4.486c0-1.65-1.161-2.322-2.592-1.5" transform="translate(24.816 13.749)" fill="gray"/>
        <path id="Trazado_109331" data-name="Trazado 109331" d="M21.626,11.455c0,.023,0,.048,0,.071a3.866,3.866,0,0,1-1.75,3.029.521.521,0,0,1-.061.032c.032,1.067.8,1.489,1.75.942A3.868,3.868,0,0,0,23.315,12.5c0-1.09-.751-1.55-1.689-1.045" transform="translate(25.288 14.357)" fill="#575757"/>
        <path id="Trazado_109332" data-name="Trazado 109332" d="M21.626,11.34a.435.435,0,0,0-.061.036A3.86,3.86,0,0,0,19.817,14.4v.068a.521.521,0,0,0,.061-.032,3.866,3.866,0,0,0,1.75-3.029c0-.023,0-.048,0-.071" transform="translate(25.288 14.472)"/>
        <path id="Trazado_109333" data-name="Trazado 109333" d="M40.1,11.962H34.29a17.82,17.82,0,0,0-9.651,0H18.824v9.667c0,1.571,1.04,3.143,3.118,4.343a16.625,16.625,0,0,0,15.045,0c2.078-1.2,3.116-2.772,3.116-4.343Z" transform="translate(24.021 14.416)" fill="#517fa2"/>
        <path id="Trazado_109334" data-name="Trazado 109334" d="M36.987,19.375a16.625,16.625,0,0,1-15.045,0c-4.156-2.4-4.156-6.287,0-8.686a16.625,16.625,0,0,1,15.045,0c4.154,2.4,4.154,6.289,0,8.686" transform="translate(24.022 11.346)" fill="#659ec9"/>
        <path id="Trazado_109335" data-name="Trazado 109335" d="M38.065,10.053h-5.1a15.589,15.589,0,0,0-8.465,0H19.4v3.687c0,1.379.908,2.759,2.734,3.812a14.6,14.6,0,0,0,13.2,0c1.823-1.054,2.734-2.433,2.734-3.812Z" transform="translate(24.755 12.083)" fill="#517fa2"/>
        <path id="Trazado_109336" data-name="Trazado 109336" d="M35.331,16.556a14.567,14.567,0,0,1-13.2,0c-3.646-2.105-3.646-5.513,0-7.62a14.581,14.581,0,0,1,13.2,0c3.646,2.108,3.646,5.515,0,7.62" transform="translate(24.753 9.388)" fill="#659ec9"/>
        <path id="Trazado_109337" data-name="Trazado 109337" d="M32.713,12.558a3.665,3.665,0,0,0-1.571-1.577,9.417,9.417,0,0,0-8.529,0,3.614,3.614,0,0,0-1.566,1.577c-.526-1.156,0-2.435,1.566-3.341a9.417,9.417,0,0,1,8.529,0c1.571.906,2.089,2.185,1.571,3.341" transform="translate(26.607 10.459)" fill="#295e87"/>
        <path id="Trazado_109338" data-name="Trazado 109338" d="M32.6,11.569a3.656,3.656,0,0,1-1.571,1.58,9.417,9.417,0,0,1-8.529,0,3.618,3.618,0,0,1-1.566-1.58A3.614,3.614,0,0,1,22.5,9.991a9.417,9.417,0,0,1,8.529,0A3.665,3.665,0,0,1,32.6,11.569" transform="translate(26.718 11.448)" fill="#517fa2"/>
        <path id="Trazado_109339" data-name="Trazado 109339" d="M36.825,17.053l-1.432,2.479a8.775,8.775,0,0,1-2.376,4.115l-1.429,2.479L26.259,23.05a2.6,2.6,0,0,1-1.083-2.4,8.188,8.188,0,0,1,3.705-6.416,2.6,2.6,0,0,1,2.618-.259Z" transform="translate(32.127 17.524)" fill="#659ec9"/>
        <path id="Trazado_109340" data-name="Trazado 109340" d="M31.219,15.588A8.185,8.185,0,0,0,27.516,22c0,2.365,1.657,3.321,3.7,2.142a8.2,8.2,0,0,0,3.705-6.416c0-2.363-1.659-3.319-3.705-2.14" transform="translate(35.113 19.248)" fill="#295e87"/>
        <path id="Trazado_109341" data-name="Trazado 109341" d="M30.6,16.068A5.731,5.731,0,0,0,28,20.554c0,1.652,1.161,2.322,2.59,1.5a5.728,5.728,0,0,0,2.59-4.486c0-1.65-1.161-2.319-2.59-1.5" transform="translate(35.737 20.055)" fill="#ff8530"/>
        <path id="Trazado_109342" data-name="Trazado 109342" d="M30.185,16.4c0,.023,0,.046,0,.071A3.866,3.866,0,0,1,28.435,19.5l-.059.032c.032,1.065.8,1.489,1.748.942a3.868,3.868,0,0,0,1.748-3.029c0-1.093-.749-1.55-1.687-1.045" transform="translate(36.211 20.663)" fill="#f26716"/>
        <path id="Trazado_109343" data-name="Trazado 109343" d="M30.187,16.282a.533.533,0,0,0-.061.034,3.864,3.864,0,0,0-1.75,3.029.663.663,0,0,0,0,.068l.059-.032a3.866,3.866,0,0,0,1.753-3.029c0-.025,0-.048,0-.071" transform="translate(36.209 20.778)" fill="#003552"/>
      </g>
    </g>
  </g>
</svg>
