<svg id="Grupo_879217" data-name="Grupo 879217" xmlns="http://www.w3.org/2000/svg" xmlns:xlink="http://www.w3.org/1999/xlink" width="112" height="112" viewBox="0 0 112 112">
  <defs>
    <clipPath id="clip-path">
      <rect id="Rectángulo_7566" data-name="Rectángulo 7566" width="112" height="112" fill="none"/>
    </clipPath>
    <clipPath id="clip-path-2">
      <rect id="Rectángulo_7565" data-name="Rectángulo 7565" width="112" height="112" transform="translate(0 -0.002)" fill="none"/>
    </clipPath>
    <clipPath id="clip-path-3">
      <rect id="Rectángulo_7563" data-name="Rectángulo 7563" width="74.828" height="43.589" fill="none"/>
    </clipPath>
    <clipPath id="clip-path-4">
      <rect id="Rectángulo_7564" data-name="Rectángulo 7564" width="23.606" height="13.569" fill="none"/>
    </clipPath>
  </defs>
  <g id="Grupo_60674" data-name="Grupo 60674" clip-path="url(#clip-path)">
    <g id="Grupo_60673" data-name="Grupo 60673" transform="translate(0 0.001)">
      <g id="Grupo_60672" data-name="Grupo 60672" clip-path="url(#clip-path-2)">
        <path id="Trazado_109471" data-name="Trazado 109471" d="M112,56A56,56,0,1,1,56,0a56,56,0,0,1,56,56" transform="translate(0 -0.001)" fill="#fff"/>
        <g id="Grupo_60668" data-name="Grupo 60668" transform="translate(20.041 34.508)" opacity="0.3">
          <g id="Grupo_60667" data-name="Grupo 60667">
            <g id="Grupo_60666" data-name="Grupo 60666" clip-path="url(#clip-path-3)">
              <path id="Trazado_109472" data-name="Trazado 109472" d="M76.614,51.338l-1.168-.678c5.324-3.848,8.219-8.611,8.219-13.645,0-5.87-3.925-11.371-11.053-15.484-7.047-4.07-16.409-6.312-26.358-6.312s-19.311,2.242-26.363,6.312C12.765,25.644,8.838,31.145,8.838,37.015S12.765,48.382,19.891,52.5c7.052,4.07,16.411,6.31,26.363,6.31,9.131,0,17.756-1.891,24.565-5.346l1.054.612Z" transform="translate(-8.84 -15.221)"/>
            </g>
          </g>
        </g>
        <path id="Trazado_109473" data-name="Trazado 109473" d="M82.829,34.429c-.678-4.87-4.245-9.639-10.7-13.366-14.434-8.333-37.829-8.333-52.263,0C13.443,24.773,9.879,29.5,9.174,34.352l-.132-.011v3.233c.018,5.444,3.628,10.888,10.822,15.042,14.434,8.33,37.831,8.33,52.263,0,7.194-4.154,10.8-9.6,10.822-15.042V34.429Z" transform="translate(11.46 18.773)" fill="#b4caed"/>
        <path id="Trazado_109474" data-name="Trazado 109474" d="M72.129,50.437c-14.432,8.335-37.831,8.335-52.263,0s-14.434-21.842,0-30.172,37.829-8.333,52.263,0,14.432,21.842,0,30.172" transform="translate(11.458 17.762)" fill="#fff"/>
        <path id="Trazado_109475" data-name="Trazado 109475" d="M81.418,35.469c-.186-5.172-3.7-10.31-10.532-14.257-14.049-8.11-36.829-8.11-50.875,0C13.173,25.159,9.665,30.3,9.481,35.469c-.2-5.458,3.31-10.954,10.53-15.121,14.046-8.11,36.827-8.11,50.875,0,7.219,4.167,10.729,9.664,10.532,15.121" transform="translate(12.006 18.078)" fill="#a6a6a6"/>
        <path id="Trazado_109476" data-name="Trazado 109476" d="M81.414,34.986c-.186,5.167-3.7,10.307-10.527,14.255-14.053,8.108-36.833,8.108-50.88,0-6.836-3.947-10.346-9.088-10.53-14.255.184-5.172,3.691-10.31,10.53-14.257,14.046-8.11,36.827-8.11,50.875,0,6.834,3.947,10.346,9.085,10.532,14.257" transform="translate(12.011 18.561)" fill="#2b9fe3"/>
        <path id="Trazado_109477" data-name="Trazado 109477" d="M74.287,32.92c-.5-4.226-3.542-8.373-9.135-11.607-12.28-7.09-32.192-7.09-44.472,0-5.548,3.206-8.587,7.308-9.122,11.5l-.086.023v1.313c0,4.648,3.065,9.3,9.208,12.842,12.28,7.088,32.192,7.088,44.472,0,6.115-3.535,9.185-8.158,9.208-12.79V32.843Z" transform="translate(14.539 20.271)" fill="#575757"/>
        <path id="Trazado_109478" data-name="Trazado 109478" d="M65.15,46.411c-12.28,7.088-32.19,7.088-44.47,0S8.4,27.825,20.68,20.735s32.19-7.088,44.47,0,12.28,18.586,0,25.676" transform="translate(14.539 19.541)" fill="#a6a6a6"/>
        <path id="Trazado_109479" data-name="Trazado 109479" d="M73.158,33.76c-.19-4.39-3.181-8.745-8.979-12.092-11.981-6.918-31.4-6.918-43.384,0C15,25.015,12,29.37,11.819,33.76c-.195-4.678,2.8-9.389,8.977-12.958,11.983-6.918,31.4-6.918,43.384,0,6.179,3.569,9.172,8.28,8.979,12.958" transform="translate(14.968 19.787)" fill="#575757"/>
        <path id="Trazado_109480" data-name="Trazado 109480" d="M73.153,33.276c-.19,4.385-3.181,8.741-8.979,12.09-11.981,6.918-31.4,6.918-43.384,0-5.8-3.349-8.793-7.7-8.977-12.09C12,28.886,15,24.531,20.791,21.184c11.983-6.918,31.4-6.918,43.384,0,5.8,3.347,8.788,7.7,8.979,12.092" transform="translate(14.973 20.271)" fill="#2b9fe3"/>
        <g id="Grupo_60671" data-name="Grupo 60671" transform="translate(58.312 55.416)" opacity="0.3">
          <g id="Grupo_60670" data-name="Grupo 60670">
            <g id="Grupo_60669" data-name="Grupo 60669" clip-path="url(#clip-path-4)">
              <path id="Trazado_109481" data-name="Trazado 109481" d="M28.6,24.441a11.032,11.032,0,0,1-2.886.664l22.352,12.9.56-.279.7-1.762Z" transform="translate(-25.719 -24.442)"/>
            </g>
          </g>
        </g>
        <path id="Trazado_109482" data-name="Trazado 109482" d="M35.668,25.066H35.61a3.636,3.636,0,0,0-1.88-2.208,10.365,10.365,0,0,0-9.369,0,3.618,3.618,0,0,0-1.882,2.208h-.061v.521a3.319,3.319,0,0,0,1.941,2.682,10.37,10.37,0,0,0,9.371,0,3.321,3.321,0,0,0,1.939-2.682Z" transform="translate(28.412 27.55)" fill="#575757"/>
        <path id="Trazado_109483" data-name="Trazado 109483" d="M33.727,28.066a10.356,10.356,0,0,1-9.371,0c-2.585-1.494-2.585-3.918,0-5.41a10.351,10.351,0,0,1,9.369,0c2.587,1.492,2.587,3.916,0,5.41" transform="translate(28.412 27.293)" fill="#a6a6a6"/>
        <path id="Trazado_109484" data-name="Trazado 109484" d="M31.469,25.1V21.74H23.606V25.1a1.956,1.956,0,0,0,1.15,1.608,6.162,6.162,0,0,0,5.562,0A1.957,1.957,0,0,0,31.469,25.1" transform="translate(29.917 27.551)" fill="#575757"/>
        <path id="Trazado_109485" data-name="Trazado 109485" d="M30.317,24.612a6.134,6.134,0,0,1-5.562,0c-1.533-.884-1.533-2.324,0-3.211a6.155,6.155,0,0,1,5.562,0c1.533.887,1.533,2.326,0,3.211" transform="translate(29.917 26.28)" fill="#a6a6a6"/>
        <path id="Trazado_109486" data-name="Trazado 109486" d="M28.714,22.738a1.3,1.3,0,0,0-.59-.61,3.448,3.448,0,0,0-3.111,0,1.325,1.325,0,0,0-.587.61c-.168-.413.029-.864.587-1.186a3.42,3.42,0,0,1,3.111,0c.56.322.757.773.59,1.186" transform="translate(30.884 26.839)" fill="#575757"/>
        <path id="Trazado_109487" data-name="Trazado 109487" d="M28.682,22.414a1.289,1.289,0,0,1-.59.61,3.434,3.434,0,0,1-3.111,0,1.3,1.3,0,0,1-.587-.61,1.325,1.325,0,0,1,.587-.61,3.448,3.448,0,0,1,3.111,0,1.3,1.3,0,0,1,.59.61" transform="translate(30.916 27.163)" fill="gray"/>
        <path id="Trazado_109488" data-name="Trazado 109488" d="M40.831,32.943,36.8,35.271l-.234-3.181,4.267-2.326Z" transform="translate(46.34 37.721)" fill="#575757"/>
        <path id="Trazado_109489" data-name="Trazado 109489" d="M37.349,34.366l-1.22-.705V30.479l.735.19.485.515Z" transform="translate(45.789 38.627)" fill="gray"/>
        <path id="Trazado_109490" data-name="Trazado 109490" d="M36.9,32.818l4.034-2.326v-1.3l-4.444,1.691Z" transform="translate(46.241 36.993)" fill="#575757"/>
        <path id="Trazado_109491" data-name="Trazado 109491" d="M51.081,39.116,29.323,23.2c-.531,1.889-4.029,1.027-4.029,1.027v1.3l25.787,14.89Z" transform="translate(32.057 29.398)" fill="gray"/>
        <path id="Trazado_109492" data-name="Trazado 109492" d="M29.323,22.623a1.9,1.9,0,0,1-1.145,1.664,5.711,5.711,0,0,1-2.884.662L51.081,39.844l4.034-2.331Z" transform="translate(32.057 28.671)" fill="#a6a6a6"/>
      </g>
    </g>
  </g>
</svg>
