<svg id="Grupo_879224" data-name="Grupo 879224" xmlns="http://www.w3.org/2000/svg" xmlns:xlink="http://www.w3.org/1999/xlink" width="112" height="112" viewBox="0 0 112 112">
  <defs>
    <clipPath id="clip-path">
      <rect id="Rectángulo_7562" data-name="Rectángulo 7562" width="112" height="112" fill="none"/>
    </clipPath>
    <clipPath id="clip-path-2">
      <rect id="Rectángulo_7561" data-name="Rectángulo 7561" width="112" height="112" transform="translate(0 -0.002)" fill="none"/>
    </clipPath>
    <clipPath id="clip-path-3">
      <rect id="Rectángulo_7559" data-name="Rectángulo 7559" width="74.828" height="43.591" fill="none"/>
    </clipPath>
    <clipPath id="clip-path-4">
      <rect id="Rectángulo_7560" data-name="Rectángulo 7560" width="23.606" height="13.569" fill="none"/>
    </clipPath>
  </defs>
  <g id="Grupo_60664" data-name="Grupo 60664" clip-path="url(#clip-path)">
    <g id="Grupo_60663" data-name="Grupo 60663" transform="translate(0 0.001)">
      <g id="Grupo_60662" data-name="Grupo 60662" clip-path="url(#clip-path-2)">
        <path id="Trazado_109444" data-name="Trazado 109444" d="M112,56A56,56,0,1,1,56,0a56,56,0,0,1,56,56" transform="translate(0 -0.001)" fill="#fff"/>
        <g id="Grupo_60658" data-name="Grupo 60658" transform="translate(18.586 43.282)" opacity="0.3">
          <g id="Grupo_60657" data-name="Grupo 60657">
            <g id="Grupo_60656" data-name="Grupo 60656" clip-path="url(#clip-path-3)">
              <path id="Trazado_109445" data-name="Trazado 109445" d="M75.973,55.207l-1.168-.673c5.322-3.85,8.219-8.611,8.219-13.647,0-5.87-3.923-11.371-11.053-15.484-7.047-4.07-16.409-6.312-26.36-6.312S26.3,21.332,19.25,25.4C12.124,29.515,8.2,35.016,8.2,40.886S12.124,52.255,19.25,56.372c7.049,4.065,16.413,6.31,26.36,6.31,9.131,0,17.756-1.893,24.562-5.349l1.059.612Z" transform="translate(-8.198 -19.09)"/>
            </g>
          </g>
        </g>
        <path id="Trazado_109446" data-name="Trazado 109446" d="M82.189,31.124c-.68-4.873-4.245-9.636-10.7-13.366-14.434-8.333-37.831-8.333-52.263,0C12.8,21.468,9.239,26.2,8.534,31.047L8.4,31.036l0,19.456c.02,5.444,3.628,10.888,10.822,15.042,14.432,8.335,37.831,8.335,52.263,0,7.194-4.154,10.8-9.6,10.822-15.042l0-19.368Z" transform="translate(10.643 14.585)" fill="#b4caed"/>
        <path id="Trazado_109447" data-name="Trazado 109447" d="M16.3,33.034,12.275,35.36l-.234-19.542L12.273,15,16.3,12.67Z" transform="translate(15.262 16.057)" fill="#575757"/>
        <path id="Trazado_109448" data-name="Trazado 109448" d="M12.828,34.454l-1.222-.705V13.386l1.222.707Z" transform="translate(14.709 16.963)" fill="gray"/>
        <path id="Trazado_109449" data-name="Trazado 109449" d="M71.487,47.132c-14.432,8.335-37.833,8.335-52.263,0s-14.432-21.842,0-30.172,37.829-8.333,52.263,0,14.43,21.839,0,30.172" transform="translate(10.646 13.573)" fill="#fff"/>
        <path id="Trazado_109450" data-name="Trazado 109450" d="M80.777,32.164A12.847,12.847,0,0,1,79.519,37.2c-1.587-3.374-4.682-6.564-9.271-9.217-14.051-8.108-36.829-8.108-50.882,0-4.589,2.653-7.682,5.838-9.271,9.217a12.84,12.84,0,0,1-1.254-5.036c-.2-5.458,3.308-10.954,10.525-15.121,14.053-8.11,36.831-8.11,50.882,0,7.215,4.167,10.725,9.664,10.53,15.121" transform="translate(11.194 13.89)" fill="#575757"/>
        <path id="Trazado_109451" data-name="Trazado 109451" d="M78.816,31.083c-1.587,3.381-4.682,6.571-9.274,9.217-14.051,8.117-36.829,8.117-50.882,0-4.591-2.646-7.682-5.836-9.271-9.217,1.589-3.376,4.68-6.564,9.271-9.215,14.053-8.11,36.831-8.11,50.882,0,4.591,2.651,7.686,5.843,9.274,9.215" transform="translate(11.899 20.005)" fill="#2b9fe3"/>
        <path id="Trazado_109452" data-name="Trazado 109452" d="M73.715,39.63l0-10.092-.075.077c-.494-4.229-3.539-8.373-9.137-11.607-12.278-7.09-32.188-7.09-44.468,0-5.548,3.2-8.589,7.308-9.122,11.5l-.086.023v10.1a27.159,27.159,0,0,0,6,4.6c7.027,4.052,16.23,6.081,25.44,6.081s18.416-2.029,25.442-6.081a27.19,27.19,0,0,0,6-4.6" transform="translate(13.726 16.083)" fill="#575757"/>
        <path id="Trazado_109453" data-name="Trazado 109453" d="M64.507,43.1c-12.278,7.09-32.188,7.09-44.468,0s-12.278-18.583,0-25.673,32.19-7.088,44.468,0,12.28,18.586,0,25.673" transform="translate(13.727 15.352)" fill="#a6a6a6"/>
        <path id="Trazado_109454" data-name="Trazado 109454" d="M72.515,30.453a10.77,10.77,0,0,1-.862,3.762c-1.286-3.05-3.993-5.947-8.117-8.328-11.979-6.918-31.4-6.918-43.382,0-4.127,2.381-6.829,5.278-8.115,8.328a10.871,10.871,0,0,1-.862-3.762c-.2-4.673,2.8-9.389,8.977-12.956,11.981-6.915,31.4-6.915,43.382,0,6.179,3.567,9.172,8.283,8.979,12.956" transform="translate(14.155 15.601)" fill="#575757"/>
        <path id="Trazado_109455" data-name="Trazado 109455" d="M71.167,29.527c-1.283,3.056-3.986,5.95-8.117,8.33-11.978,6.915-31.4,6.915-43.382,0-4.127-2.381-6.832-5.274-8.115-8.33,1.283-3.05,3.988-5.947,8.115-8.328,11.979-6.92,31.4-6.92,43.382,0,4.124,2.381,6.832,5.278,8.117,8.328" transform="translate(14.642 20.288)" fill="#2b9fe3"/>
        <g id="Grupo_60661" data-name="Grupo 60661" transform="translate(56.857 47.924)" opacity="0.3">
          <g id="Grupo_60660" data-name="Grupo 60660">
            <g id="Grupo_60659" data-name="Grupo 60659" clip-path="url(#clip-path-4)">
              <path id="Trazado_109456" data-name="Trazado 109456" d="M27.959,21.137a10.982,10.982,0,0,1-2.882.664L47.426,34.7l.562-.277.694-1.764Z" transform="translate(-25.075 -21.136)"/>
            </g>
          </g>
        </g>
        <path id="Trazado_109457" data-name="Trazado 109457" d="M35.026,21.759H34.97a3.636,3.636,0,0,0-1.884-2.206,10.36,10.36,0,0,0-9.366,0,3.609,3.609,0,0,0-1.882,2.206h-.061v8.614a3.31,3.31,0,0,0,1.943,2.68,10.346,10.346,0,0,0,9.366,0,3.316,3.316,0,0,0,1.941-2.68Z" transform="translate(27.598 23.361)" fill="#575757"/>
        <path id="Trazado_109458" data-name="Trazado 109458" d="M33.085,24.759a10.346,10.346,0,0,1-9.366,0c-2.589-1.492-2.589-3.916,0-5.408a10.346,10.346,0,0,1,9.366,0c2.589,1.492,2.589,3.916,0,5.408" transform="translate(27.599 23.104)" fill="#a6a6a6"/>
        <path id="Trazado_109459" data-name="Trazado 109459" d="M23.211,22.983l4.031-2.329v-3.09L22.8,19.258Z" transform="translate(28.892 22.259)" fill="#575757"/>
        <path id="Trazado_109460" data-name="Trazado 109460" d="M37.393,27.49,15.633,11.571C15.1,13.46,11.606,12.6,11.606,12.6v3.088L37.393,30.578Z" transform="translate(14.709 14.664)" fill="gray"/>
        <path id="Trazado_109461" data-name="Trazado 109461" d="M15.635,11l-4.029,2.324L37.395,28.216l4.031-2.331Z" transform="translate(14.709 13.937)" fill="#a6a6a6"/>
        <path id="Trazado_109462" data-name="Trazado 109462" d="M30.827,21.8V18.435H22.964V21.8A1.953,1.953,0,0,0,24.116,23.4a6.143,6.143,0,0,0,5.56,0A1.95,1.95,0,0,0,30.827,21.8" transform="translate(29.104 23.363)" fill="#575757"/>
        <path id="Trazado_109463" data-name="Trazado 109463" d="M29.675,21.311a6.143,6.143,0,0,1-5.56,0c-1.535-.887-1.535-2.324,0-3.213a6.143,6.143,0,0,1,5.56,0c1.537.889,1.537,2.326,0,3.213" transform="translate(29.104 22.093)" fill="#a6a6a6"/>
        <path id="Trazado_109464" data-name="Trazado 109464" d="M28.073,19.434a1.3,1.3,0,0,0-.587-.61,3.453,3.453,0,0,0-3.113,0,1.3,1.3,0,0,0-.587.61c-.166-.413.027-.864.587-1.186a3.425,3.425,0,0,1,3.113,0c.56.322.753.773.587,1.186" transform="translate(30.072 22.652)" fill="#575757"/>
        <path id="Trazado_109465" data-name="Trazado 109465" d="M28.041,19.11a1.294,1.294,0,0,1-.587.61,3.439,3.439,0,0,1-3.113,0,1.294,1.294,0,0,1-.587-.61,1.3,1.3,0,0,1,.587-.61,3.453,3.453,0,0,1,3.113,0,1.3,1.3,0,0,1,.587.61" transform="translate(30.104 22.976)" fill="gray"/>
        <path id="Trazado_109466" data-name="Trazado 109466" d="M40.188,45.863l-4.031,2.326L35.923,27.96l4.265-1.5Z" transform="translate(45.527 33.532)" fill="#575757"/>
        <path id="Trazado_109467" data-name="Trazado 109467" d="M36.707,47.423l-1.22-.7v-19.4l.735.19.485-.442Z" transform="translate(44.976 34.299)" fill="gray"/>
        <path id="Trazado_109468" data-name="Trazado 109468" d="M36.256,30.513l4.031-2.326V25.1L35.843,26.79Z" transform="translate(45.427 31.805)" fill="#575757"/>
        <path id="Trazado_109469" data-name="Trazado 109469" d="M50.439,35.022,28.681,19.1c-.533,1.889-4.029,1.027-4.029,1.027v3.088l25.787,14.89Z" transform="translate(31.243 24.209)" fill="gray"/>
        <path id="Trazado_109470" data-name="Trazado 109470" d="M28.682,18.528a1.908,1.908,0,0,1-1.147,1.667,5.7,5.7,0,0,1-2.882.662L50.44,35.751l4.031-2.331Z" transform="translate(31.244 23.481)" fill="#a6a6a6"/>
      </g>
    </g>
  </g>
</svg>
