<svg xmlns="http://www.w3.org/2000/svg" xmlns:xlink="http://www.w3.org/1999/xlink" width="505" height="356" viewBox="0 0 505 356">
  <defs>
    <clipPath id="clip-path">
      <rect id="Rectángulo_41317" data-name="Rectángulo 41317" width="505" height="356" transform="translate(285 22967)" fill="#fff" stroke="#707070" stroke-width="1"/>
    </clipPath>
    <clipPath id="clip-path-2">
      <rect id="Rectángulo_41316" data-name="Rectángulo 41316" width="845.565" height="356.807" fill="none"/>
    </clipPath>
  </defs>
  <g id="Enmascarar_grupo_51" data-name="Enmascarar grupo 51" transform="translate(-285 -22967)" clip-path="url(#clip-path)">
    <g id="Grupo_562524" data-name="Grupo 562524" transform="translate(35 22876.031)">
      <g id="Grupo_562523" data-name="Grupo 562523" transform="translate(0 90.534)" clip-path="url(#clip-path-2)">
        <path id="Trazado_195501" data-name="Trazado 195501" d="M552.818,484.492c-1-8.141-10.172-35.731-5.682-42.595s8.025-6.942,11.651.415a31.208,31.208,0,0,1-4.582-11.9c-.9-5.519-.025-11.774,4.085-15.564s11.951-3.4,14.3,1.678c-5.107-3.718-8.963-9.511-9.225-15.823s3.671-12.884,9.74-14.636,13.472,2.548,14.041,8.839a51.515,51.515,0,0,1-5.721-34.14,6.673,6.673,0,0,1,1.563-3.705c1.194-1.161,3.012-1.333,4.677-1.393a90.492,90.492,0,0,1,20.057,1.514c3.485.659,7.916,3.616,6.05,6.633-13.55-13.014-18.035-34.587-10.8-51.923a34.686,34.686,0,0,1,21.362,13.3,29.989,29.989,0,0,1-5.577-28.1c.675-2.089,1.792-4.3,3.86-5.042a7.2,7.2,0,0,1,5.033.565,26.958,26.958,0,0,1,12.732,10.814,40.6,40.6,0,0,1,13.093-29.984c1.337-1.217,2.9-2.4,4.709-2.436,2.785-.058,4.819,2.526,6.287,4.893a118.109,118.109,0,0,1,10.848,22.525,58.385,58.385,0,0,1,7.235-30.915c1.483-2.67,3.8-5.549,6.843-5.276,2.591.232,4.352,2.664,5.664,4.91a102.723,102.723,0,0,1,9.394,21.336c.747-8.589,2.363-18.573,9.947-22.673,8.492-4.59,20.578,3.88,19.162,13.428a102.174,102.174,0,0,1,9.3-22.547c1.563-2.787,3.953-5.868,7.13-5.533,2.442.258,4.15,2.472,5.472,4.542a96.986,96.986,0,0,1,9.041,18.088c-1.391-7.47,4.619-15.467,12.182-16.207s15.01,5.939,15.094,13.537c2.174-6.852,4.453-13.9,9.094-19.392s12.29-9.089,19.127-6.865c7.71,2.508,11.508,10.963,14.413,18.533.839-8.92,9.555-16.558,18.457-15.549S868.64,259,865.66,267.452a19.859,19.859,0,0,1,35.693,13.609,11.877,11.877,0,0,1,12.01-10.664,39.037,39.037,0,0,1,10.089,26.121c5.992-3.713,13.832-5.51,20.079-2.244s8.934,12.888,3.74,17.655c7.225-.387,15.016,2.383,18.86,8.514s2.087,15.653-4.512,18.62l3.8,8.263c5.283,0,9.735-4.172,14.844-5.518s11.093-.976,14.939,2.645,3.971,11.034-.652,13.591c4.586-4.476,13.2-3.56,16.747,1.78s1.037,13.636-4.869,16.122c8.429,1.788,14.931,8.772,18.745,16.5,1.781,3.607,3.11,7.822,1.741,11.6s-6.514,6.244-9.621,3.691c9.126,3.23,16.441,12.434,15.444,22.064s-12.052,17.469-20.921,13.586c14.145,7.281,22.516,24.343,19.619,39.986a27.079,27.079,0,0,1-12.166.925c3.128,3.915,6.353,8.03,7.351,12.941s-1.017,10.825-5.721,12.549l-106.905-1.6c-15.445-1.347-30.817,2.428-46.211,4.267a189.092,189.092,0,0,1-38.147.678l1.29-.33c-67.513-13.711-135.535-24.7-204.042-31.964-7.452-.79-15.219-1.51-22.242,1.1-10.7,3.979-17.155,14.594-23.146,24.306-.876,1.42-1.906,2.948-3.517,3.381-1.687.454-3.414-.453-4.9-1.367-16.775-10.3-17.853-4.234-20.255-23.77" transform="translate(-207.068 -186.574)" fill="#a4e0bc"/>
        <path id="Trazado_195502" data-name="Trazado 195502" d="M41.981,488.771c-1-8.14-10.172-35.73-5.682-42.595s8.025-6.941,11.652.416a31.21,31.21,0,0,1-4.582-11.905c-.9-5.518-.025-11.774,4.085-15.564s11.951-3.4,14.3,1.677c-5.107-3.717-8.963-9.511-9.225-15.823s3.671-12.883,9.74-14.636,13.472,2.547,14.041,8.839a51.515,51.515,0,0,1-5.721-34.14,6.672,6.672,0,0,1,1.563-3.706c1.194-1.161,3.012-1.333,4.677-1.393a90.489,90.489,0,0,1,20.058,1.514c3.485.659,7.916,3.616,6.05,6.633C89.386,355.075,84.9,333.5,92.14,316.166a34.686,34.686,0,0,1,21.362,13.3,29.989,29.989,0,0,1-5.577-28.1c.675-2.089,1.792-4.3,3.859-5.042a7.2,7.2,0,0,1,5.033.565,26.955,26.955,0,0,1,12.732,10.814,40.6,40.6,0,0,1,13.093-29.984c1.337-1.217,2.9-2.4,4.709-2.436,2.785-.058,4.819,2.526,6.287,4.893a118.083,118.083,0,0,1,10.848,22.525,58.386,58.386,0,0,1,7.235-30.915c1.483-2.67,3.8-5.549,6.842-5.276,2.591.232,4.352,2.664,5.664,4.91a102.7,102.7,0,0,1,9.394,21.336c.747-8.589,2.363-18.573,9.947-22.673,8.492-4.59,20.578,3.879,19.162,13.428a102.175,102.175,0,0,1,9.3-22.547c1.564-2.787,3.953-5.868,7.13-5.533,2.442.258,4.151,2.471,5.472,4.542a96.987,96.987,0,0,1,9.041,18.088c-1.391-7.47,4.619-15.467,12.182-16.207s15.01,5.939,15.094,13.537c2.174-6.852,4.453-13.9,9.094-19.392s12.29-9.089,19.127-6.865c7.71,2.508,11.508,10.963,14.413,18.533.839-8.92,9.555-16.558,18.457-15.549s15.759,11.158,12.779,19.607a19.859,19.859,0,0,1,35.693,13.608,11.877,11.877,0,0,1,12.01-10.663A39.038,39.038,0,0,1,412.615,300.8c5.992-3.713,13.832-5.51,20.079-2.244s8.934,12.888,3.74,17.655c7.225-.387,15.016,2.383,18.86,8.514s2.087,15.653-4.512,18.619l3.8,8.264c5.283,0,9.735-4.172,14.844-5.518s11.093-.976,14.939,2.645,3.971,11.033-.652,13.591c4.586-4.476,13.2-3.56,16.747,1.78s1.037,13.637-4.869,16.122c8.429,1.789,14.931,8.772,18.745,16.5,1.781,3.607,3.11,7.822,1.741,11.6s-6.514,6.245-9.621,3.691c9.126,3.231,16.441,12.434,15.444,22.064s-12.052,17.469-20.92,13.586c14.144,7.281,22.516,24.344,19.619,39.987a27.078,27.078,0,0,1-12.165.925c3.128,3.915,6.353,8.03,7.352,12.941s-1.017,10.825-5.722,12.549l-106.9-1.6c-15.446-1.347-30.818,2.428-46.212,4.267a189.136,189.136,0,0,1-38.147.678l1.29-.33c-67.513-13.71-135.535-24.7-204.042-31.963-7.452-.79-15.219-1.51-22.242,1.1-10.7,3.979-17.155,14.594-23.145,24.306-.876,1.419-1.906,2.948-3.517,3.38-1.687.454-3.414-.453-4.9-1.367-16.775-10.3-17.854-4.234-20.255-23.771" transform="translate(-13.302 -188.197)" fill="#95ceac"/>
        <rect id="Rectángulo_41310" data-name="Rectángulo 41310" width="845.565" height="58.502" transform="translate(0 298.306)" fill="#726a5b"/>
        <path id="Trazado_195503" data-name="Trazado 195503" d="M635.78,519.85s0-1.138,8.248,6.826,17.634.853,11.661-9.386-7.395-15.96,7.679-15.375,37.344-.552,28.2-15.911-17.107-16.78-35.595-5.689-24.175,6.257-24.175,6.257Z" transform="translate(-239.648 -273.386)" fill="#c8ffbc"/>
        <path id="Trazado_195504" data-name="Trazado 195504" d="M652.412,534.273a1.707,1.707,0,0,1-1.6-1.117c-.261-.355-1.168-1.259-1.9-2-3.835-3.826-10.253-10.23-9.112-16.224.549-2.88,2.733-5.165,6.491-6.789a94.137,94.137,0,0,0,11.735-5.985c3.769-2.227,5.846-3.454,12.215-3.818,9.749-.556,12.133-.045,12.512.063a1.707,1.707,0,0,1-.938,3.282c-.034,0-2.2-.461-11.38.063-5.541.317-7.044,1.2-10.673,3.348a97.067,97.067,0,0,1-12.116,6.179c-2.657,1.149-4.169,2.594-4.492,4.3-.8,4.216,5.034,10.041,8.17,13.169,1.918,1.915,2.636,2.63,2.782,3.557a1.7,1.7,0,0,1-1.688,1.972" transform="translate(-242.63 -282.88)" fill="#9ece93"/>
        <path id="Trazado_195505" data-name="Trazado 195505" d="M667.324,536.582s-11.958-12.836-9.4-18.377,9.67-8.243,19.2-7.39,25.383-3.095,26.273-4.961c0,0,2.073,10.613-34.782,8.543,0,0-8.955.2-7.049,7.126,0,0,7.619,12.668,5.758,15.058" transform="translate(-249.423 -285.825)" fill="#b8eaac"/>
        <path id="Trazado_195506" data-name="Trazado 195506" d="M566.215,486.026s-10.776-17.065-44.069-20.857-42.394-42.852-23.811-46.266,42.472,24.649,42.472,24.649,10.618-5.688-6.067-20.857-35.047-47.579-12.594-47.3,31.934,22.51,44.069,32.062,9.149,34.2,7.608,49.749a102.1,102.1,0,0,1-7.608,28.821" transform="translate(-185.424 -236.339)" fill="#c8ffbc"/>
        <path id="Trazado_195507" data-name="Trazado 195507" d="M572.315,474.416c-1.453,0-2.558-1.376-3.279-2.444-3.1-4.589-5.386-3.984-11.506-2.362a74.4,74.4,0,0,1-9.122,1.961c-12.68,1.759-39.359-22.938-42.361-25.76a1.707,1.707,0,1,1,2.339-2.486c7.826,7.359,30.208,26.184,39.55,24.865a70.527,70.527,0,0,0,8.721-1.879c6.087-1.614,10.528-2.79,14.875,3.272-.313-4.572-3.409-15.373-10.4-22.389-5.464-5.488-7.715-11.707-9.891-17.722-2.524-6.973-4.907-13.561-12.067-19.107a1.706,1.706,0,1,1,2.09-2.7c7.942,6.153,10.608,13.52,13.187,20.645,2.145,5.926,4.17,11.522,9.1,16.474,8.685,8.721,12.488,23.64,11.082,27.783a2.48,2.48,0,0,1-2.01,1.828,2.4,2.4,0,0,1-.31.021" transform="translate(-191.745 -248.445)" fill="#9ece93"/>
        <path id="Trazado_195508" data-name="Trazado 195508" d="M492.846,424.091s22.175,2.648,36.017,16.49c10.92,10.92,13.933,8.268,14.9,10.293a1.734,1.734,0,0,0,2.91.344c3.155-3.915,7.569-11.672,1.715-19.689-8.343-11.427-12.135-24.889-20.1-31.051s-11.233-22.924-11.233-22.924-12.046,3.916,6.041,30.722c0,0,10.509,14.285,16.952,19.029,0,0,10.614,10.242,2.272,17.068,0,0-32.785-38.288-49.479-20.282" transform="translate(-186.942 -237.159)" fill="#b8eaac"/>
        <path id="Trazado_195509" data-name="Trazado 195509" d="M871.238,323.817a25.31,25.31,0,0,1-2.259-6.368h-.119a21.288,21.288,0,0,1-2.113,6.368c-1.547,3.125-2.565,5.921-2.479,8.264.221,5.982,9.23,5.982,9.45,0,.087-2.342-.932-5.139-2.479-8.264m-6.37,9.04a4.005,4.005,0,0,1-.058-1.724,4.105,4.105,0,0,1,2.8,1.469,1.141,1.141,0,0,1,.142.223c.445.9.173,2.689,1.413,3.29,0,0-3.579-.6-4.3-3.259" transform="translate(-327.824 -214.361)" fill="#f3ffff"/>
        <path id="Trazado_195510" data-name="Trazado 195510" d="M903.339,695.886c0,3.04-40.759,5.5-91.037,5.5s-91.037-2.465-91.037-5.5,40.759-5.5,91.037-5.5,91.037,2.465,91.037,5.5" transform="translate(-273.584 -355.818)" fill="#5e574a"/>
        <path id="Trazado_195511" data-name="Trazado 195511" d="M764.258,209.97V192.717H683.61l-.021.307a2.345,2.345,0,0,0-1.144-.307H669.326a2.368,2.368,0,0,1-2.369-2.368V175.224a2.368,2.368,0,0,0-2.368-2.368H652.6a2.368,2.368,0,0,0-2.349,2.074l-3.033,24.261-.019.294v18.871a2.361,2.361,0,0,0,2.2,2.351,79.476,79.476,0,0,1,1.439-10.738Z" transform="translate(-245.489 -159.515)" fill="#9e9e9e"/>
        <path id="Trazado_195512" data-name="Trazado 195512" d="M692.174,242.582v-5.417h35.51v9.107a3.912,3.912,0,1,0,7.824,0v-6.549h20.249a6.693,6.693,0,0,0,4.733-1.96l5.111-5.111H652.175a79.49,79.49,0,0,0-1.439,10.737c.058,0,.112.017.171.017h7.878c3.962-3.052,9.5-6.1,16.6-4.736h8.4v3.48a41.042,41.042,0,0,1,5.512,4.2,3.911,3.911,0,0,0,2.874-3.769" transform="translate(-246.831 -182.196)" fill="#848484"/>
        <rect id="Rectángulo_41311" data-name="Rectángulo 41311" width="3.45" height="23.271" transform="translate(433.506 33.202)" fill="#c4c4c4"/>
        <rect id="Rectángulo_41312" data-name="Rectángulo 41312" width="3.45" height="47.869" transform="translate(411.689 13.341)" fill="#c4c4c4"/>
        <rect id="Rectángulo_41313" data-name="Rectángulo 41313" width="26.883" height="261.406" transform="translate(378.737 6.319)" fill="#8a9d9e"/>
        <path id="Trazado_195513" data-name="Trazado 195513" d="M646.34,595.6H572L576,569.123h65.885Z" transform="translate(-216.965 -309.824)" fill="#4b5656"/>
        <path id="Trazado_195514" data-name="Trazado 195514" d="M653.148,615.784H543.794l4.451-26.482H648.7Z" transform="translate(-206.267 -317.478)" fill="#363f3f"/>
        <path id="Trazado_195515" data-name="Trazado 195515" d="M639.158,489.353v-.007l-5.469-2.8H606.166l-4.624,2.8v9.071h.05v.007l5.469,2.8h27.523l4.624-2.8v-9.071Z" transform="translate(-228.172 -278.5)" fill="#6c7c7c"/>
        <path id="Trazado_195516" data-name="Trazado 195516" d="M636.351,494.78h-27.4a1.345,1.345,0,0,1-1.344-1.345v-1.6a1.345,1.345,0,0,1,1.344-1.345h27.4a1.345,1.345,0,0,1,1.345,1.345v1.6a1.345,1.345,0,0,1-1.345,1.345" transform="translate(-230.471 -279.998)" fill="#4b5656"/>
        <path id="Trazado_195517" data-name="Trazado 195517" d="M636.608,501.019H608.69a1.087,1.087,0,0,1-1.087-1.087V499.5a1.088,1.088,0,0,1,1.087-1.087h27.918A1.088,1.088,0,0,1,637.7,499.5v.433a1.087,1.087,0,0,1-1.088,1.087" transform="translate(-230.471 -283.002)" fill="#4b5656"/>
        <path id="Trazado_195518" data-name="Trazado 195518" d="M634.735,506.675H616.447a1.087,1.087,0,0,1-1.088-1.087v-.433a1.088,1.088,0,0,1,1.088-1.087h18.288a1.088,1.088,0,0,1,1.087,1.087v.433a1.087,1.087,0,0,1-1.087,1.087" transform="translate(-233.413 -285.147)" fill="#4b5656"/>
        <path id="Trazado_195519" data-name="Trazado 195519" d="M639,374.255v-.007l-5.469-2.8H606l-4.624,2.8v9.071h.05v.007l5.469,2.8h27.523l4.624-2.8v-9.071Z" transform="translate(-228.11 -234.842)" fill="#6c7c7c"/>
        <path id="Trazado_195520" data-name="Trazado 195520" d="M636.189,379.681h-27.4a1.345,1.345,0,0,1-1.344-1.345v-1.6a1.345,1.345,0,0,1,1.344-1.345h27.4a1.345,1.345,0,0,1,1.345,1.345v1.6a1.345,1.345,0,0,1-1.345,1.345" transform="translate(-230.409 -236.339)" fill="#4b5656"/>
        <path id="Trazado_195521" data-name="Trazado 195521" d="M636.446,385.92H608.528a1.088,1.088,0,0,1-1.088-1.087V384.4a1.088,1.088,0,0,1,1.088-1.087h27.918a1.088,1.088,0,0,1,1.087,1.087v.433a1.087,1.087,0,0,1-1.087,1.087" transform="translate(-230.409 -239.343)" fill="#4b5656"/>
        <path id="Trazado_195522" data-name="Trazado 195522" d="M634.574,391.577H616.286a1.087,1.087,0,0,1-1.087-1.087v-.433a1.087,1.087,0,0,1,1.087-1.087h18.288a1.088,1.088,0,0,1,1.088,1.087v.433a1.087,1.087,0,0,1-1.088,1.087" transform="translate(-233.352 -241.489)" fill="#4b5656"/>
        <path id="Trazado_195523" data-name="Trazado 195523" d="M639.037,263.708V263.7l-5.469-2.8H606.045l-4.624,2.8v9.071h.05v.007l5.469,2.8h27.523l4.624-2.8v-9.071Z" transform="translate(-228.126 -192.911)" fill="#6c7c7c"/>
        <path id="Trazado_195524" data-name="Trazado 195524" d="M636.23,269.134h-27.4a1.345,1.345,0,0,1-1.344-1.345v-1.6a1.345,1.345,0,0,1,1.344-1.345h27.4a1.345,1.345,0,0,1,1.345,1.345v1.6a1.345,1.345,0,0,1-1.345,1.345" transform="translate(-230.425 -194.408)" fill="#4b5656"/>
        <path id="Trazado_195525" data-name="Trazado 195525" d="M636.486,275.373H608.568a1.088,1.088,0,0,1-1.087-1.087v-.433a1.088,1.088,0,0,1,1.087-1.087h27.918a1.087,1.087,0,0,1,1.087,1.087v.433a1.087,1.087,0,0,1-1.087,1.087" transform="translate(-230.424 -197.412)" fill="#4b5656"/>
        <path id="Trazado_195526" data-name="Trazado 195526" d="M634.614,281.029H616.327a1.087,1.087,0,0,1-1.088-1.087v-.433a1.088,1.088,0,0,1,1.088-1.087h18.288a1.088,1.088,0,0,1,1.087,1.087v.433a1.087,1.087,0,0,1-1.087,1.087" transform="translate(-233.367 -199.557)" fill="#4b5656"/>
        <path id="Trazado_195527" data-name="Trazado 195527" d="M703.986,248.387A3.912,3.912,0,0,0,707.9,252.3h.562a3.921,3.921,0,0,0,1.038-.143,41.086,41.086,0,0,0-5.512-4.2Z" transform="translate(-267.03 -188.001)" fill="#848484"/>
        <path id="Trazado_195528" data-name="Trazado 195528" d="M787.7,198.125h19.771V187.114H787.7Z" transform="translate(-298.782 -164.923)" fill="#656868"/>
        <path id="Trazado_195529" data-name="Trazado 195529" d="M819.147,161.122a9.76,9.76,0,0,0-9.76-9.76H749.072a9.761,9.761,0,0,0-9.761,9.76v1.71h7.82a3.2,3.2,0,0,1,1.9-.626h10.344a9.969,9.969,0,0,1,9.969,9.969v1.376h19.771v-1.376a9.969,9.969,0,0,1,9.969-9.969h10.344a3.2,3.2,0,0,1,1.244.25h8.475Z" transform="translate(-280.429 -151.362)" fill="#848484"/>
        <path id="Trazado_195530" data-name="Trazado 195530" d="M856.251,172.2v2.252a3.212,3.212,0,0,0,3.212,3.211h.083a3.212,3.212,0,0,0,3.212-3.211v-5.214h-8.475a3.212,3.212,0,0,1,1.968,2.961" transform="translate(-324.039 -158.143)" fill="#656868"/>
        <path id="Trazado_195531" data-name="Trazado 195531" d="M739.311,174.681a3.212,3.212,0,0,0,3.212,3.212h.083a3.212,3.212,0,0,0,3.212-3.212v-2.252a3.2,3.2,0,0,1,1.313-2.586h-7.82Z" transform="translate(-280.429 -158.372)" fill="#656868"/>
        <path id="Trazado_195532" data-name="Trazado 195532" d="M786.793,155.192H757.637A6.632,6.632,0,0,0,751,161.824h30.032V175h5.756V161.824h29.532a6.632,6.632,0,0,0-6.632-6.632Z" transform="translate(-284.865 -152.815)" fill="#c4c4c4"/>
        <path id="Trazado_195533" data-name="Trazado 195533" d="M862.344,288.347v-7.715a2.166,2.166,0,0,1,2.189-2.141h7.9a2.142,2.142,0,1,0,0-4.283h-7.9a2.165,2.165,0,0,1-2.189-2.141v-26.68a2.166,2.166,0,0,0-2.189-2.141H840.55a2.166,2.166,0,0,0-2.189,2.141v26.68a2.165,2.165,0,0,1-2.189,2.141h-7.9a2.142,2.142,0,1,0,0,4.283h7.9a2.166,2.166,0,0,1,2.189,2.141v7.715a2.165,2.165,0,0,1-2.189,2.141H824.33a2.166,2.166,0,0,0-2.189,2.142v2.792a2.165,2.165,0,0,0,2.189,2.141h52.045a2.165,2.165,0,0,0,2.189-2.141v-2.792a2.166,2.166,0,0,0-2.189-2.142H864.533a2.165,2.165,0,0,1-2.189-2.141" transform="translate(-311.847 -186.214)" fill="#848484"/>
        <path id="Trazado_195534" data-name="Trazado 195534" d="M865.085,232.846V204.855H829.493v17.253h11.736v10.755l6.476,4.864a9.244,9.244,0,0,0,11.226-.095Z" transform="translate(-314.636 -171.653)" fill="#9e9e9e"/>
        <path id="Trazado_195535" data-name="Trazado 195535" d="M874.121,296.393H839.683a.837.837,0,0,1-.837-.837v-.333a.837.837,0,0,1,.837-.837h34.438a.837.837,0,0,1,.837.837v.333a.837.837,0,0,1-.837.837" transform="translate(-318.184 -205.613)" fill="#c4c4c4"/>
        <path id="Trazado_195536" data-name="Trazado 195536" d="M876.541,325.354H829.033A1.035,1.035,0,0,1,828,324.319v-.94a1.034,1.034,0,0,1,1.035-1.034h47.509a1.035,1.035,0,0,1,1.035,1.034v.94a1.035,1.035,0,0,1-1.035,1.035" transform="translate(-314.069 -216.218)" fill="#c4c4c4"/>
        <path id="Trazado_195537" data-name="Trazado 195537" d="M892.266,407.466h6.915V395.1H736.728v12.368h6.914V564.011H892.266Z" transform="translate(-279.449 -243.814)" fill="#4b949b"/>
        <path id="Trazado_195538" data-name="Trazado 195538" d="M880.744,383.99a25.31,25.31,0,0,1-2.259-6.368h-.119a21.288,21.288,0,0,1-2.114,6.368c-1.547,3.125-2.565,5.921-2.479,8.264.221,5.982,9.23,5.982,9.45,0,.087-2.342-.932-5.139-2.479-8.264m-6.37,9.04a4,4,0,0,1-.058-1.724,4.105,4.105,0,0,1,2.8,1.469,1.134,1.134,0,0,1,.142.223c.445.9.173,2.689,1.413,3.29,0,0-3.58-.6-4.3-3.259" transform="translate(-331.43 -237.185)" fill="#f3ffff"/>
        <path id="Trazado_195539" data-name="Trazado 195539" d="M761.944,685.991H882.415a14.076,14.076,0,0,0,14.076-14.076v-4.678H747.868v4.678a14.076,14.076,0,0,0,14.076,14.076" transform="translate(-283.675 -347.039)" fill="#465b5b"/>
        <rect id="Rectángulo_41314" data-name="Rectángulo 41314" width="174.716" height="5.615" transform="translate(451.148 151.284)" fill="#74d2e8"/>
        <rect id="Rectángulo_41315" data-name="Rectángulo 41315" width="162.453" height="6.753" transform="translate(457.278 156.899)" fill="#60b7c6"/>
        <path id="Trazado_195540" data-name="Trazado 195540" d="M850.392,354.413a25.3,25.3,0,0,1-2.259-6.368h-.119a21.3,21.3,0,0,1-2.114,6.368c-1.547,3.125-2.565,5.921-2.479,8.264.221,5.982,9.23,5.982,9.45,0,.087-2.342-.932-5.139-2.479-8.264m-6.37,9.04a4,4,0,0,1-.058-1.724,4.105,4.105,0,0,1,2.8,1.469,1.145,1.145,0,0,1,.142.223c.445.9.173,2.689,1.413,3.29,0,0-3.58-.6-4.3-3.259" transform="translate(-319.917 -225.966)" fill="#f3ffff"/>
        <path id="Trazado_195541" data-name="Trazado 195541" d="M836.237,465.647a45.859,45.859,0,1,0,45.86,45.859,45.859,45.859,0,0,0-45.86-45.859m0,76.963a31.1,31.1,0,1,1,31.1-31.1,31.1,31.1,0,0,1-31.1,31.1" transform="translate(-299.799 -270.574)" fill="#73efef"/>
        <path id="Trazado_195542" data-name="Trazado 195542" d="M862.459,514.263a70.737,70.737,0,0,1-6.321-17.811H855.8a59.527,59.527,0,0,1-5.911,17.811c-4.328,8.743-7.176,16.564-6.934,23.117.618,16.733,25.816,16.733,26.434,0,.242-6.553-2.606-14.374-6.934-23.117M844.639,539.55a11.223,11.223,0,0,1-.164-4.823,11.486,11.486,0,0,1,7.831,4.111,3.145,3.145,0,0,1,.4.624c1.246,2.509.483,7.523,3.953,9.2-.007,0-10.014-1.678-12.017-9.117" transform="translate(-319.739 -282.258)" fill="#94faff"/>
        <path id="Trazado_195543" data-name="Trazado 195543" d="M247.052,601.96H408.919s-11.164-34.443-45.77-52.471-45.769-34.02-74.794-45-29.024,24.964-46.886,44.945S202.4,566.164,202.4,580.069s-7.814,21.891-7.814,21.891Z" transform="translate(-73.808 -284.532)" fill="#59564f"/>
        <path id="Trazado_195544" data-name="Trazado 195544" d="M1031.524,601.19h136.192s15.713-35.609-43.537-44.133c-55.085-7.925-19.367-20.351-65.863,0-42.042,18.4-26.791,44.133-26.791,44.133" transform="translate(-390.246 -301.046)" fill="#59564f"/>
        <path id="Trazado_195545" data-name="Trazado 195545" d="M1156.547,664.679h-144.13a4.081,4.081,0,0,1-4.081-4.08v-1.625a4.081,4.081,0,0,1,4.081-4.08h144.13a4.08,4.08,0,0,1,4.08,4.08V660.6a4.08,4.08,0,0,1-4.08,4.08" transform="translate(-382.473 -342.357)" fill="#a89a83"/>
        <path id="Trazado_195546" data-name="Trazado 195546" d="M1216.609,699.355h-89.189a4.081,4.081,0,0,1-4.081-4.08v-1.625a4.081,4.081,0,0,1,4.081-4.08h89.189a4.08,4.08,0,0,1,4.08,4.08v1.625a4.08,4.08,0,0,1-4.08,4.08" transform="translate(-426.095 -355.51)" fill="#a89a83"/>
        <path id="Trazado_195547" data-name="Trazado 195547" d="M572.86,691.472H501.221a4.08,4.08,0,0,1-4.08-4.08v-1.625a4.08,4.08,0,0,1,4.08-4.08H572.86a4.08,4.08,0,0,1,4.08,4.08v1.625a4.08,4.08,0,0,1-4.08,4.08" transform="translate(-188.571 -352.52)" fill="#a89a83"/>
        <path id="Trazado_195548" data-name="Trazado 195548" d="M662.347,656.795H562.574a4.08,4.08,0,0,1-4.081-4.08V651.09a4.081,4.081,0,0,1,4.081-4.081h99.773a4.08,4.08,0,0,1,4.08,4.081v1.624a4.08,4.08,0,0,1-4.08,4.08" transform="translate(-211.843 -339.366)" fill="#a89a83"/>
        <path id="Trazado_195549" data-name="Trazado 195549" d="M1144.633,571.324c-2.7-6.975-17.322,1.222-37.213-7.443s-21.583-4.095-30.514,3.907-20.095,13.622-2.605,10.812,15.629-8.046,33.864-4.87,39.851,6.327,36.468-2.406" transform="translate(-403.997 -306.06)" fill="#7f7a70"/>
      </g>
    </g>
  </g>
</svg>
