<svg id="Grupo_879215" data-name="Grupo 879215" xmlns="http://www.w3.org/2000/svg" xmlns:xlink="http://www.w3.org/1999/xlink" width="112" height="112" viewBox="0 0 112 112">
  <defs>
    <clipPath id="clip-path">
      <rect id="Rect치ngulo_7570" data-name="Rect치ngulo 7570" width="112" height="112" fill="none"/>
    </clipPath>
    <clipPath id="clip-path-3">
      <rect id="Rect치ngulo_7567" data-name="Rect치ngulo 7567" width="4.081" height="2.356" fill="none"/>
    </clipPath>
  </defs>
  <g id="Grupo_60684" data-name="Grupo 60684" clip-path="url(#clip-path)">
    <g id="Grupo_60683" data-name="Grupo 60683" transform="translate(0 0.001)">
      <g id="Grupo_60682" data-name="Grupo 60682" clip-path="url(#clip-path)">
        <path id="Trazado_109493" data-name="Trazado 109493" d="M112,56A56,56,0,1,1,56,0a56,56,0,0,1,56,56" transform="translate(0 -0.001)" fill="#fff"/>
        <path id="Trazado_109494" data-name="Trazado 109494" d="M42.659,22.239H36.7a18.179,18.179,0,0,0-9.877,0H20.869v1.753c0,1.612,1.063,3.22,3.192,4.449a17.027,17.027,0,0,0,15.4,0c2.127-1.229,3.192-2.837,3.192-4.449Z" transform="translate(26.449 27.318)" fill="gray"/>
        <path id="Trazado_109495" data-name="Trazado 109495" d="M39.466,29.819a17.032,17.032,0,0,1-15.407,0c-4.254-2.456-4.254-6.437,0-8.895a17.032,17.032,0,0,1,15.407,0c4.254,2.458,4.254,6.439,0,8.895" transform="translate(26.449 24.184)" fill="#a6a6a6"/>
        <path id="Trazado_109496" data-name="Trazado 109496" d="M41.727,10.141H36.1a17.231,17.231,0,0,0-9.337,0h-5.63V37.187c0,1.521,1.007,3.043,3.018,4.2a16.077,16.077,0,0,0,14.561,0c2.011-1.161,3.016-2.682,3.016-4.2Z" transform="translate(26.782 12.035)" fill="#dae5f8"/>
        <path id="Trazado_109497" data-name="Trazado 109497" d="M38.709,17.307a16.1,16.1,0,0,1-14.561,0c-4.02-2.32-4.02-6.086,0-8.407a16.1,16.1,0,0,1,14.561,0c4.022,2.322,4.022,6.088,0,8.407" transform="translate(26.784 9.073)" fill="#fff"/>
        <path id="Trazado_109498" data-name="Trazado 109498" d="M41.727,15.683c0,1.519-1,3.043-3.016,4.2a16.1,16.1,0,0,1-14.561,0c-2.011-1.161-3.018-2.685-3.018-4.2v.832c0,1.524,1.007,3.043,3.018,4.206a16.1,16.1,0,0,0,14.561,0c2.011-1.163,3.016-2.682,3.016-4.206Z" transform="translate(26.782 19.876)" fill="#b4caed"/>
        <path id="Trazado_109499" data-name="Trazado 109499" d="M41.727,17.835c0,1.521-1,3.043-3.016,4.2a16.1,16.1,0,0,1-14.561,0c-2.011-1.161-3.018-2.682-3.018-4.2v.834c0,1.521,1.007,3.043,3.018,4.206a16.1,16.1,0,0,0,14.561,0c2.011-1.163,3.016-2.685,3.016-4.206Z" transform="translate(26.782 22.603)" fill="#b4caed"/>
        <path id="Trazado_109500" data-name="Trazado 109500" d="M36.79,12.817a4.053,4.053,0,0,0-2-2.229,11.263,11.263,0,0,0-10.181,0,4.044,4.044,0,0,0-2,2.229c-.388-1.286.281-2.657,2-3.651a11.249,11.249,0,0,1,10.181,0c1.721.993,2.39,2.365,2,3.651" transform="translate(28.515 10.074)" fill="#b4caed"/>
        <path id="Trazado_109501" data-name="Trazado 109501" d="M36.731,12.021a4.055,4.055,0,0,1-2,2.224,11.249,11.249,0,0,1-10.181,0,4.055,4.055,0,0,1-2-2.224,4.044,4.044,0,0,1,2-2.229,11.263,11.263,0,0,1,10.181,0,4.053,4.053,0,0,1,2,2.229" transform="translate(28.575 10.869)" fill="#dae5f8"/>
        <path id="Trazado_109502" data-name="Trazado 109502" d="M31.834,28.485H25.882a18.283,18.283,0,0,0-9.881,0H10.047v1.757c0,1.61,1.061,3.22,3.192,4.446a17.027,17.027,0,0,0,15.4,0c2.127-1.227,3.19-2.837,3.19-4.446Z" transform="translate(12.733 35.239)" fill="gray"/>
        <path id="Trazado_109503" data-name="Trazado 109503" d="M28.644,36.067a17.027,17.027,0,0,1-15.4,0c-4.256-2.456-4.256-6.437,0-8.895a17.027,17.027,0,0,1,15.4,0c4.254,2.458,4.254,6.439,0,8.895" transform="translate(12.734 32.103)" fill="#a6a6a6"/>
        <path id="Trazado_109504" data-name="Trazado 109504" d="M30.9,16.389H25.278a17.247,17.247,0,0,0-9.342,0H10.311V43.435c0,1.521,1,3.043,3.016,4.2a16.091,16.091,0,0,0,14.561,0c2.011-1.161,3.016-2.682,3.016-4.2Z" transform="translate(13.068 19.954)" fill="#dae5f8"/>
        <path id="Trazado_109505" data-name="Trazado 109505" d="M27.887,23.557a16.1,16.1,0,0,1-14.561,0c-4.02-2.324-4.02-6.088,0-8.407a16.091,16.091,0,0,1,14.561,0c4.018,2.32,4.018,6.083,0,8.407" transform="translate(13.068 16.992)" fill="#fff"/>
        <path id="Trazado_109506" data-name="Trazado 109506" d="M30.9,21.93c0,1.521-1,3.045-3.016,4.2a16.077,16.077,0,0,1-14.561,0c-2.011-1.159-3.016-2.682-3.016-4.2v.837c0,1.519,1,3.043,3.016,4.206a16.1,16.1,0,0,0,14.561,0C29.9,25.81,30.9,24.286,30.9,22.767Z" transform="translate(13.068 27.793)" fill="#b4caed"/>
        <path id="Trazado_109507" data-name="Trazado 109507" d="M30.9,24.083c0,1.521-1,3.043-3.016,4.2a16.091,16.091,0,0,1-14.561,0c-2.011-1.161-3.016-2.682-3.016-4.2v.837c0,1.519,1,3.043,3.016,4.2a16.1,16.1,0,0,0,14.561,0c2.011-1.161,3.016-2.685,3.016-4.2Z" transform="translate(13.068 30.522)" fill="#b4caed"/>
        <path id="Trazado_109508" data-name="Trazado 109508" d="M25.967,19.065a4.035,4.035,0,0,0-2-2.229,11.244,11.244,0,0,0-10.178,0,4.039,4.039,0,0,0-2,2.229c-.388-1.286.281-2.657,2-3.65a11.244,11.244,0,0,1,10.178,0c1.725.993,2.394,2.365,2,3.65" transform="translate(14.798 17.992)" fill="#b4caed"/>
        <path id="Trazado_109509" data-name="Trazado 109509" d="M25.908,18.27a4.062,4.062,0,0,1-2,2.227,11.258,11.258,0,0,1-10.178,0,4.074,4.074,0,0,1-2-2.227,4.039,4.039,0,0,1,2-2.229,11.244,11.244,0,0,1,10.178,0,4.035,4.035,0,0,1,2,2.229" transform="translate(14.858 18.787)" fill="#dae5f8"/>
        <path id="Trazado_109510" data-name="Trazado 109510" d="M82.281,32.7,34.847,60.084,14.014,48.055,61.446,20.67Z" transform="translate(17.761 26.196)" fill="#fff"/>
        <path id="Trazado_109511" data-name="Trazado 109511" d="M35.047,21.493,52.39,31.5,50.3,32.71,35.047,23.9Z" transform="translate(44.418 27.239)" fill="#dae5f8"/>
        <path id="Trazado_109512" data-name="Trazado 109512" d="M59.9,23.9,17.528,48.366,15.44,47.16,59.9,21.493Z" transform="translate(19.568 27.239)" fill="#b4caed"/>
        <path id="Trazado_109513" data-name="Trazado 109513" d="M73.982,31.365,31.614,55.826,16.361,47.02,58.73,22.554Z" transform="translate(20.736 28.584)" fill="#2b9fe3"/>
        <path id="Trazado_109514" data-name="Trazado 109514" d="M34.847,48.671,14.014,36.641V32.748L34.847,44.776Z" transform="translate(17.761 41.503)" fill="#dae5f8"/>
        <path id="Trazado_109515" data-name="Trazado 109515" d="M23.2,57.255,70.636,29.87v-3.9L23.2,53.36Z" transform="translate(29.406 32.919)" fill="#b4caed"/>
        <path id="Trazado_109516" data-name="Trazado 109516" d="M30.481,18.154l.662.383-1.787,3.088-.66-.381a.89.89,0,0,1-.37-.816,2.782,2.782,0,0,1,1.261-2.186.888.888,0,0,1,.893-.088" transform="translate(35.901 22.901)" fill="#517fa2"/>
        <path id="Trazado_109517" data-name="Trazado 109517" d="M29.88,18.412A2.779,2.779,0,0,0,28.619,20.6c0,.8.565,1.127,1.261.726a2.785,2.785,0,0,0,1.263-2.186c0-.8-.565-1.129-1.263-.726" transform="translate(36.271 23.115)" fill="#295e87"/>
        <g id="Grupo_60678" data-name="Grupo 60678" transform="translate(76.039 59.812)" opacity="0.3">
          <g id="Grupo_60677" data-name="Grupo 60677">
            <g id="Grupo_60676" data-name="Grupo 60676" clip-path="url(#clip-path-3)">
              <path id="Trazado_109518" data-name="Trazado 109518" d="M37.017,28.391a3.189,3.189,0,0,1-2.886,0,.881.881,0,0,1,0-1.667,3.2,3.2,0,0,1,2.886,0,.879.879,0,0,1,0,1.667" transform="translate(-33.536 -26.378)"/>
            </g>
          </g>
        </g>
        <path id="Trazado_109519" data-name="Trazado 109519" d="M38.439,23l-7.822-4.546a.747.747,0,0,0-.78.068A2.4,2.4,0,0,0,28.75,20.4a.752.752,0,0,0,.336.705h0L36.9,25.66A7.426,7.426,0,0,1,40.162,31.3v6.3h0a.762.762,0,0,0,.451.628,2.387,2.387,0,0,0,2.168,0,.761.761,0,0,0,.447-.628V31.3A10.446,10.446,0,0,0,38.439,23" transform="translate(36.437 23.279)" fill="#f5a52e"/>
        <path id="Trazado_109520" data-name="Trazado 109520" d="M19.655,24.4l.662.379-1.782,3.09-.662-.383a.877.877,0,0,1-.367-.814,2.785,2.785,0,0,1,1.258-2.183.873.873,0,0,1,.891-.088" transform="translate(22.187 30.82)" fill="#517fa2"/>
        <path id="Trazado_109521" data-name="Trazado 109521" d="M19.058,24.66A2.788,2.788,0,0,0,17.8,26.843c0,.8.565,1.131,1.261.728a2.779,2.779,0,0,0,1.261-2.186c0-.8-.562-1.129-1.261-.726" transform="translate(22.556 31.033)" fill="#295e87"/>
        <g id="Grupo_60681" data-name="Grupo 60681" transform="translate(51.566 73.955)" opacity="0.3">
          <g id="Grupo_60680" data-name="Grupo 60680">
            <g id="Grupo_60679" data-name="Grupo 60679" clip-path="url(#clip-path-3)">
              <path id="Trazado_109522" data-name="Trazado 109522" d="M26.227,34.627a3.185,3.185,0,0,1-2.884,0,.877.877,0,0,1,0-1.664,3.185,3.185,0,0,1,2.884,0,.878.878,0,0,1,0,1.664" transform="translate(-22.743 -32.617)"/>
            </g>
          </g>
        </g>
        <path id="Trazado_109523" data-name="Trazado 109523" d="M27.616,29.243,19.794,24.7a.749.749,0,0,0-.782.063A2.4,2.4,0,0,0,17.93,26.64a.753.753,0,0,0,.331.71l7.816,4.555a7.431,7.431,0,0,1,3.258,5.641v6.3h.009a.76.76,0,0,0,.449.63,2.416,2.416,0,0,0,2.168,0,.757.757,0,0,0,.447-.63v-6.3a10.45,10.45,0,0,0-4.791-8.3" transform="translate(22.724 31.198)" fill="#f5a52e"/>
      </g>
    </g>
  </g>
</svg>
